<?xml version="1.0" encoding="utf-8" standalone="no"?>
<!DOCTYPE svg PUBLIC "-//W3C//DTD SVG 1.1//EN"
  "http://www.w3.org/Graphics/SVG/1.1/DTD/svg11.dtd">
<svg xmlns:xlink="http://www.w3.org/1999/xlink" width="460.8pt" height="345.6pt" viewBox="0 0 460.8 345.6" xmlns="http://www.w3.org/2000/svg" version="1.1">
 <metadata>
  <rdf:RDF xmlns:dc="http://purl.org/dc/elements/1.1/" xmlns:cc="http://creativecommons.org/ns#" xmlns:rdf="http://www.w3.org/1999/02/22-rdf-syntax-ns#">
   <cc:Work>
    <dc:type rdf:resource="http://purl.org/dc/dcmitype/StillImage"/>
    <dc:date>2024-12-31T10:16:10.194671</dc:date>
    <dc:format>image/svg+xml</dc:format>
    <dc:creator>
     <cc:Agent>
      <dc:title>Matplotlib v3.7.1, https://matplotlib.org/</dc:title>
     </cc:Agent>
    </dc:creator>
   </cc:Work>
  </rdf:RDF>
 </metadata>
 <defs>
  <style type="text/css">*{stroke-linejoin: round; stroke-linecap: butt}</style>
 </defs>
 <g id="figure_1">
  <g id="patch_1">
   <path d="M 0 345.6 
L 460.8 345.6 
L 460.8 0 
L 0 0 
z
" style="fill: #ffffff"/>
  </g>
  <g id="axes_1">
   <g id="patch_2">
    <path d="M 57.6 307.584 
L 414.72 307.584 
L 414.72 41.472 
L 57.6 41.472 
z
" style="fill: #ffffff"/>
   </g>
   <g id="matplotlib.axis_1">
    <g id="xtick_1">
     <g id="line2d_1">
      <path d="M 57.6 307.584 
L 57.6 41.472 
" clip-path="url(#p52b329a3e6)" style="fill: none; stroke: #b0b0b0; stroke-width: 0.8; stroke-linecap: square"/>
     </g>
     <g id="line2d_2">
      <defs>
       <path id="m7f269be952" d="M 0 0 
L 0 3.5 
" style="stroke: #000000; stroke-width: 0.8"/>
      </defs>
      <g>
       <use xlink:href="#m7f269be952" x="57.6" y="307.584" style="stroke: #000000; stroke-width: 0.8"/>
      </g>
     </g>
     <g id="text_1">
      <!-- 0 -->
      <g transform="translate(54.41875 322.182437) scale(0.1 -0.1)">
       <defs>
        <path id="DejaVuSans-30" d="M 2034 4250 
Q 1547 4250 1301 3770 
Q 1056 3291 1056 2328 
Q 1056 1369 1301 889 
Q 1547 409 2034 409 
Q 2525 409 2770 889 
Q 3016 1369 3016 2328 
Q 3016 3291 2770 3770 
Q 2525 4250 2034 4250 
z
M 2034 4750 
Q 2819 4750 3233 4129 
Q 3647 3509 3647 2328 
Q 3647 1150 3233 529 
Q 2819 -91 2034 -91 
Q 1250 -91 836 529 
Q 422 1150 422 2328 
Q 422 3509 836 4129 
Q 1250 4750 2034 4750 
z
" transform="scale(0.015625)"/>
       </defs>
       <use xlink:href="#DejaVuSans-30"/>
      </g>
     </g>
    </g>
    <g id="xtick_2">
     <g id="line2d_3">
      <path d="M 129.024 307.584 
L 129.024 41.472 
" clip-path="url(#p52b329a3e6)" style="fill: none; stroke: #b0b0b0; stroke-width: 0.8; stroke-linecap: square"/>
     </g>
     <g id="line2d_4">
      <g>
       <use xlink:href="#m7f269be952" x="129.024" y="307.584" style="stroke: #000000; stroke-width: 0.8"/>
      </g>
     </g>
     <g id="text_2">
      <!-- 100 -->
      <g transform="translate(119.48025 322.182437) scale(0.1 -0.1)">
       <defs>
        <path id="DejaVuSans-31" d="M 794 531 
L 1825 531 
L 1825 4091 
L 703 3866 
L 703 4441 
L 1819 4666 
L 2450 4666 
L 2450 531 
L 3481 531 
L 3481 0 
L 794 0 
L 794 531 
z
" transform="scale(0.015625)"/>
       </defs>
       <use xlink:href="#DejaVuSans-31"/>
       <use xlink:href="#DejaVuSans-30" x="63.623047"/>
       <use xlink:href="#DejaVuSans-30" x="127.246094"/>
      </g>
     </g>
    </g>
    <g id="xtick_3">
     <g id="line2d_5">
      <path d="M 200.448 307.584 
L 200.448 41.472 
" clip-path="url(#p52b329a3e6)" style="fill: none; stroke: #b0b0b0; stroke-width: 0.8; stroke-linecap: square"/>
     </g>
     <g id="line2d_6">
      <g>
       <use xlink:href="#m7f269be952" x="200.448" y="307.584" style="stroke: #000000; stroke-width: 0.8"/>
      </g>
     </g>
     <g id="text_3">
      <!-- 200 -->
      <g transform="translate(190.90425 322.182437) scale(0.1 -0.1)">
       <defs>
        <path id="DejaVuSans-32" d="M 1228 531 
L 3431 531 
L 3431 0 
L 469 0 
L 469 531 
Q 828 903 1448 1529 
Q 2069 2156 2228 2338 
Q 2531 2678 2651 2914 
Q 2772 3150 2772 3378 
Q 2772 3750 2511 3984 
Q 2250 4219 1831 4219 
Q 1534 4219 1204 4116 
Q 875 4013 500 3803 
L 500 4441 
Q 881 4594 1212 4672 
Q 1544 4750 1819 4750 
Q 2544 4750 2975 4387 
Q 3406 4025 3406 3419 
Q 3406 3131 3298 2873 
Q 3191 2616 2906 2266 
Q 2828 2175 2409 1742 
Q 1991 1309 1228 531 
z
" transform="scale(0.015625)"/>
       </defs>
       <use xlink:href="#DejaVuSans-32"/>
       <use xlink:href="#DejaVuSans-30" x="63.623047"/>
       <use xlink:href="#DejaVuSans-30" x="127.246094"/>
      </g>
     </g>
    </g>
    <g id="xtick_4">
     <g id="line2d_7">
      <path d="M 271.872 307.584 
L 271.872 41.472 
" clip-path="url(#p52b329a3e6)" style="fill: none; stroke: #b0b0b0; stroke-width: 0.8; stroke-linecap: square"/>
     </g>
     <g id="line2d_8">
      <g>
       <use xlink:href="#m7f269be952" x="271.872" y="307.584" style="stroke: #000000; stroke-width: 0.8"/>
      </g>
     </g>
     <g id="text_4">
      <!-- 300 -->
      <g transform="translate(262.32825 322.182437) scale(0.1 -0.1)">
       <defs>
        <path id="DejaVuSans-33" d="M 2597 2516 
Q 3050 2419 3304 2112 
Q 3559 1806 3559 1356 
Q 3559 666 3084 287 
Q 2609 -91 1734 -91 
Q 1441 -91 1130 -33 
Q 819 25 488 141 
L 488 750 
Q 750 597 1062 519 
Q 1375 441 1716 441 
Q 2309 441 2620 675 
Q 2931 909 2931 1356 
Q 2931 1769 2642 2001 
Q 2353 2234 1838 2234 
L 1294 2234 
L 1294 2753 
L 1863 2753 
Q 2328 2753 2575 2939 
Q 2822 3125 2822 3475 
Q 2822 3834 2567 4026 
Q 2313 4219 1838 4219 
Q 1578 4219 1281 4162 
Q 984 4106 628 3988 
L 628 4550 
Q 988 4650 1302 4700 
Q 1616 4750 1894 4750 
Q 2613 4750 3031 4423 
Q 3450 4097 3450 3541 
Q 3450 3153 3228 2886 
Q 3006 2619 2597 2516 
z
" transform="scale(0.015625)"/>
       </defs>
       <use xlink:href="#DejaVuSans-33"/>
       <use xlink:href="#DejaVuSans-30" x="63.623047"/>
       <use xlink:href="#DejaVuSans-30" x="127.246094"/>
      </g>
     </g>
    </g>
    <g id="xtick_5">
     <g id="line2d_9">
      <path d="M 343.296 307.584 
L 343.296 41.472 
" clip-path="url(#p52b329a3e6)" style="fill: none; stroke: #b0b0b0; stroke-width: 0.8; stroke-linecap: square"/>
     </g>
     <g id="line2d_10">
      <g>
       <use xlink:href="#m7f269be952" x="343.296" y="307.584" style="stroke: #000000; stroke-width: 0.8"/>
      </g>
     </g>
     <g id="text_5">
      <!-- 400 -->
      <g transform="translate(333.75225 322.182437) scale(0.1 -0.1)">
       <defs>
        <path id="DejaVuSans-34" d="M 2419 4116 
L 825 1625 
L 2419 1625 
L 2419 4116 
z
M 2253 4666 
L 3047 4666 
L 3047 1625 
L 3713 1625 
L 3713 1100 
L 3047 1100 
L 3047 0 
L 2419 0 
L 2419 1100 
L 313 1100 
L 313 1709 
L 2253 4666 
z
" transform="scale(0.015625)"/>
       </defs>
       <use xlink:href="#DejaVuSans-34"/>
       <use xlink:href="#DejaVuSans-30" x="63.623047"/>
       <use xlink:href="#DejaVuSans-30" x="127.246094"/>
      </g>
     </g>
    </g>
    <g id="xtick_6">
     <g id="line2d_11">
      <path d="M 414.72 307.584 
L 414.72 41.472 
" clip-path="url(#p52b329a3e6)" style="fill: none; stroke: #b0b0b0; stroke-width: 0.8; stroke-linecap: square"/>
     </g>
     <g id="line2d_12">
      <g>
       <use xlink:href="#m7f269be952" x="414.72" y="307.584" style="stroke: #000000; stroke-width: 0.8"/>
      </g>
     </g>
     <g id="text_6">
      <!-- 500 -->
      <g transform="translate(405.17625 322.182437) scale(0.1 -0.1)">
       <defs>
        <path id="DejaVuSans-35" d="M 691 4666 
L 3169 4666 
L 3169 4134 
L 1269 4134 
L 1269 2991 
Q 1406 3038 1543 3061 
Q 1681 3084 1819 3084 
Q 2600 3084 3056 2656 
Q 3513 2228 3513 1497 
Q 3513 744 3044 326 
Q 2575 -91 1722 -91 
Q 1428 -91 1123 -41 
Q 819 9 494 109 
L 494 744 
Q 775 591 1075 516 
Q 1375 441 1709 441 
Q 2250 441 2565 725 
Q 2881 1009 2881 1497 
Q 2881 1984 2565 2268 
Q 2250 2553 1709 2553 
Q 1456 2553 1204 2497 
Q 953 2441 691 2322 
L 691 4666 
z
" transform="scale(0.015625)"/>
       </defs>
       <use xlink:href="#DejaVuSans-35"/>
       <use xlink:href="#DejaVuSans-30" x="63.623047"/>
       <use xlink:href="#DejaVuSans-30" x="127.246094"/>
      </g>
     </g>
    </g>
    <g id="text_7">
     <!-- Computational time [s] -->
     <g transform="translate(149.461172 339.659781) scale(0.15 -0.15)">
      <defs>
       <path id="DejaVuSans-43" d="M 4122 4306 
L 4122 3641 
Q 3803 3938 3442 4084 
Q 3081 4231 2675 4231 
Q 1875 4231 1450 3742 
Q 1025 3253 1025 2328 
Q 1025 1406 1450 917 
Q 1875 428 2675 428 
Q 3081 428 3442 575 
Q 3803 722 4122 1019 
L 4122 359 
Q 3791 134 3420 21 
Q 3050 -91 2638 -91 
Q 1578 -91 968 557 
Q 359 1206 359 2328 
Q 359 3453 968 4101 
Q 1578 4750 2638 4750 
Q 3056 4750 3426 4639 
Q 3797 4528 4122 4306 
z
" transform="scale(0.015625)"/>
       <path id="DejaVuSans-6f" d="M 1959 3097 
Q 1497 3097 1228 2736 
Q 959 2375 959 1747 
Q 959 1119 1226 758 
Q 1494 397 1959 397 
Q 2419 397 2687 759 
Q 2956 1122 2956 1747 
Q 2956 2369 2687 2733 
Q 2419 3097 1959 3097 
z
M 1959 3584 
Q 2709 3584 3137 3096 
Q 3566 2609 3566 1747 
Q 3566 888 3137 398 
Q 2709 -91 1959 -91 
Q 1206 -91 779 398 
Q 353 888 353 1747 
Q 353 2609 779 3096 
Q 1206 3584 1959 3584 
z
" transform="scale(0.015625)"/>
       <path id="DejaVuSans-6d" d="M 3328 2828 
Q 3544 3216 3844 3400 
Q 4144 3584 4550 3584 
Q 5097 3584 5394 3201 
Q 5691 2819 5691 2113 
L 5691 0 
L 5113 0 
L 5113 2094 
Q 5113 2597 4934 2840 
Q 4756 3084 4391 3084 
Q 3944 3084 3684 2787 
Q 3425 2491 3425 1978 
L 3425 0 
L 2847 0 
L 2847 2094 
Q 2847 2600 2669 2842 
Q 2491 3084 2119 3084 
Q 1678 3084 1418 2786 
Q 1159 2488 1159 1978 
L 1159 0 
L 581 0 
L 581 3500 
L 1159 3500 
L 1159 2956 
Q 1356 3278 1631 3431 
Q 1906 3584 2284 3584 
Q 2666 3584 2933 3390 
Q 3200 3197 3328 2828 
z
" transform="scale(0.015625)"/>
       <path id="DejaVuSans-70" d="M 1159 525 
L 1159 -1331 
L 581 -1331 
L 581 3500 
L 1159 3500 
L 1159 2969 
Q 1341 3281 1617 3432 
Q 1894 3584 2278 3584 
Q 2916 3584 3314 3078 
Q 3713 2572 3713 1747 
Q 3713 922 3314 415 
Q 2916 -91 2278 -91 
Q 1894 -91 1617 61 
Q 1341 213 1159 525 
z
M 3116 1747 
Q 3116 2381 2855 2742 
Q 2594 3103 2138 3103 
Q 1681 3103 1420 2742 
Q 1159 2381 1159 1747 
Q 1159 1113 1420 752 
Q 1681 391 2138 391 
Q 2594 391 2855 752 
Q 3116 1113 3116 1747 
z
" transform="scale(0.015625)"/>
       <path id="DejaVuSans-75" d="M 544 1381 
L 544 3500 
L 1119 3500 
L 1119 1403 
Q 1119 906 1312 657 
Q 1506 409 1894 409 
Q 2359 409 2629 706 
Q 2900 1003 2900 1516 
L 2900 3500 
L 3475 3500 
L 3475 0 
L 2900 0 
L 2900 538 
Q 2691 219 2414 64 
Q 2138 -91 1772 -91 
Q 1169 -91 856 284 
Q 544 659 544 1381 
z
M 1991 3584 
L 1991 3584 
z
" transform="scale(0.015625)"/>
       <path id="DejaVuSans-74" d="M 1172 4494 
L 1172 3500 
L 2356 3500 
L 2356 3053 
L 1172 3053 
L 1172 1153 
Q 1172 725 1289 603 
Q 1406 481 1766 481 
L 2356 481 
L 2356 0 
L 1766 0 
Q 1100 0 847 248 
Q 594 497 594 1153 
L 594 3053 
L 172 3053 
L 172 3500 
L 594 3500 
L 594 4494 
L 1172 4494 
z
" transform="scale(0.015625)"/>
       <path id="DejaVuSans-61" d="M 2194 1759 
Q 1497 1759 1228 1600 
Q 959 1441 959 1056 
Q 959 750 1161 570 
Q 1363 391 1709 391 
Q 2188 391 2477 730 
Q 2766 1069 2766 1631 
L 2766 1759 
L 2194 1759 
z
M 3341 1997 
L 3341 0 
L 2766 0 
L 2766 531 
Q 2569 213 2275 61 
Q 1981 -91 1556 -91 
Q 1019 -91 701 211 
Q 384 513 384 1019 
Q 384 1609 779 1909 
Q 1175 2209 1959 2209 
L 2766 2209 
L 2766 2266 
Q 2766 2663 2505 2880 
Q 2244 3097 1772 3097 
Q 1472 3097 1187 3025 
Q 903 2953 641 2809 
L 641 3341 
Q 956 3463 1253 3523 
Q 1550 3584 1831 3584 
Q 2591 3584 2966 3190 
Q 3341 2797 3341 1997 
z
" transform="scale(0.015625)"/>
       <path id="DejaVuSans-69" d="M 603 3500 
L 1178 3500 
L 1178 0 
L 603 0 
L 603 3500 
z
M 603 4863 
L 1178 4863 
L 1178 4134 
L 603 4134 
L 603 4863 
z
" transform="scale(0.015625)"/>
       <path id="DejaVuSans-6e" d="M 3513 2113 
L 3513 0 
L 2938 0 
L 2938 2094 
Q 2938 2591 2744 2837 
Q 2550 3084 2163 3084 
Q 1697 3084 1428 2787 
Q 1159 2491 1159 1978 
L 1159 0 
L 581 0 
L 581 3500 
L 1159 3500 
L 1159 2956 
Q 1366 3272 1645 3428 
Q 1925 3584 2291 3584 
Q 2894 3584 3203 3211 
Q 3513 2838 3513 2113 
z
" transform="scale(0.015625)"/>
       <path id="DejaVuSans-6c" d="M 603 4863 
L 1178 4863 
L 1178 0 
L 603 0 
L 603 4863 
z
" transform="scale(0.015625)"/>
       <path id="DejaVuSans-20" transform="scale(0.015625)"/>
       <path id="DejaVuSans-65" d="M 3597 1894 
L 3597 1613 
L 953 1613 
Q 991 1019 1311 708 
Q 1631 397 2203 397 
Q 2534 397 2845 478 
Q 3156 559 3463 722 
L 3463 178 
Q 3153 47 2828 -22 
Q 2503 -91 2169 -91 
Q 1331 -91 842 396 
Q 353 884 353 1716 
Q 353 2575 817 3079 
Q 1281 3584 2069 3584 
Q 2775 3584 3186 3129 
Q 3597 2675 3597 1894 
z
M 3022 2063 
Q 3016 2534 2758 2815 
Q 2500 3097 2075 3097 
Q 1594 3097 1305 2825 
Q 1016 2553 972 2059 
L 3022 2063 
z
" transform="scale(0.015625)"/>
       <path id="DejaVuSans-5b" d="M 550 4863 
L 1875 4863 
L 1875 4416 
L 1125 4416 
L 1125 -397 
L 1875 -397 
L 1875 -844 
L 550 -844 
L 550 4863 
z
" transform="scale(0.015625)"/>
       <path id="DejaVuSans-73" d="M 2834 3397 
L 2834 2853 
Q 2591 2978 2328 3040 
Q 2066 3103 1784 3103 
Q 1356 3103 1142 2972 
Q 928 2841 928 2578 
Q 928 2378 1081 2264 
Q 1234 2150 1697 2047 
L 1894 2003 
Q 2506 1872 2764 1633 
Q 3022 1394 3022 966 
Q 3022 478 2636 193 
Q 2250 -91 1575 -91 
Q 1294 -91 989 -36 
Q 684 19 347 128 
L 347 722 
Q 666 556 975 473 
Q 1284 391 1588 391 
Q 1994 391 2212 530 
Q 2431 669 2431 922 
Q 2431 1156 2273 1281 
Q 2116 1406 1581 1522 
L 1381 1569 
Q 847 1681 609 1914 
Q 372 2147 372 2553 
Q 372 3047 722 3315 
Q 1072 3584 1716 3584 
Q 2034 3584 2315 3537 
Q 2597 3491 2834 3397 
z
" transform="scale(0.015625)"/>
       <path id="DejaVuSans-5d" d="M 1947 4863 
L 1947 -844 
L 622 -844 
L 622 -397 
L 1369 -397 
L 1369 4416 
L 622 4416 
L 622 4863 
L 1947 4863 
z
" transform="scale(0.015625)"/>
      </defs>
      <use xlink:href="#DejaVuSans-43"/>
      <use xlink:href="#DejaVuSans-6f" x="69.824219"/>
      <use xlink:href="#DejaVuSans-6d" x="131.005859"/>
      <use xlink:href="#DejaVuSans-70" x="228.417969"/>
      <use xlink:href="#DejaVuSans-75" x="291.894531"/>
      <use xlink:href="#DejaVuSans-74" x="355.273438"/>
      <use xlink:href="#DejaVuSans-61" x="394.482422"/>
      <use xlink:href="#DejaVuSans-74" x="455.761719"/>
      <use xlink:href="#DejaVuSans-69" x="494.970703"/>
      <use xlink:href="#DejaVuSans-6f" x="522.753906"/>
      <use xlink:href="#DejaVuSans-6e" x="583.935547"/>
      <use xlink:href="#DejaVuSans-61" x="647.314453"/>
      <use xlink:href="#DejaVuSans-6c" x="708.59375"/>
      <use xlink:href="#DejaVuSans-20" x="736.376953"/>
      <use xlink:href="#DejaVuSans-74" x="768.164062"/>
      <use xlink:href="#DejaVuSans-69" x="807.373047"/>
      <use xlink:href="#DejaVuSans-6d" x="835.15625"/>
      <use xlink:href="#DejaVuSans-65" x="932.568359"/>
      <use xlink:href="#DejaVuSans-20" x="994.091797"/>
      <use xlink:href="#DejaVuSans-5b" x="1025.878906"/>
      <use xlink:href="#DejaVuSans-73" x="1064.892578"/>
      <use xlink:href="#DejaVuSans-5d" x="1116.992188"/>
     </g>
    </g>
   </g>
   <g id="matplotlib.axis_2">
    <g id="ytick_1">
     <g id="line2d_13">
      <path d="M 57.6 295.488 
L 414.72 295.488 
" clip-path="url(#p52b329a3e6)" style="fill: none; stroke: #b0b0b0; stroke-width: 0.8; stroke-linecap: square"/>
     </g>
     <g id="line2d_14">
      <defs>
       <path id="m160b2120ec" d="M 0 0 
L -3.5 0 
" style="stroke: #000000; stroke-width: 0.8"/>
      </defs>
      <g>
       <use xlink:href="#m160b2120ec" x="57.6" y="295.488" style="stroke: #000000; stroke-width: 0.8"/>
      </g>
     </g>
     <g id="text_8">
      <!-- 0.0 -->
      <g transform="translate(34.696875 299.287219) scale(0.1 -0.1)">
       <defs>
        <path id="DejaVuSans-2e" d="M 684 794 
L 1344 794 
L 1344 0 
L 684 0 
L 684 794 
z
" transform="scale(0.015625)"/>
       </defs>
       <use xlink:href="#DejaVuSans-30"/>
       <use xlink:href="#DejaVuSans-2e" x="63.623047"/>
       <use xlink:href="#DejaVuSans-30" x="95.410156"/>
      </g>
     </g>
    </g>
    <g id="ytick_2">
     <g id="line2d_15">
      <path d="M 57.6 265.248 
L 414.72 265.248 
" clip-path="url(#p52b329a3e6)" style="fill: none; stroke: #b0b0b0; stroke-width: 0.8; stroke-linecap: square"/>
     </g>
     <g id="line2d_16">
      <g>
       <use xlink:href="#m160b2120ec" x="57.6" y="265.248" style="stroke: #000000; stroke-width: 0.8"/>
      </g>
     </g>
     <g id="text_9">
      <!-- 0.5 -->
      <g transform="translate(34.696875 269.047219) scale(0.1 -0.1)">
       <use xlink:href="#DejaVuSans-30"/>
       <use xlink:href="#DejaVuSans-2e" x="63.623047"/>
       <use xlink:href="#DejaVuSans-35" x="95.410156"/>
      </g>
     </g>
    </g>
    <g id="ytick_3">
     <g id="line2d_17">
      <path d="M 57.6 235.008 
L 414.72 235.008 
" clip-path="url(#p52b329a3e6)" style="fill: none; stroke: #b0b0b0; stroke-width: 0.8; stroke-linecap: square"/>
     </g>
     <g id="line2d_18">
      <g>
       <use xlink:href="#m160b2120ec" x="57.6" y="235.008" style="stroke: #000000; stroke-width: 0.8"/>
      </g>
     </g>
     <g id="text_10">
      <!-- 1.0 -->
      <g transform="translate(34.696875 238.807219) scale(0.1 -0.1)">
       <use xlink:href="#DejaVuSans-31"/>
       <use xlink:href="#DejaVuSans-2e" x="63.623047"/>
       <use xlink:href="#DejaVuSans-30" x="95.410156"/>
      </g>
     </g>
    </g>
    <g id="ytick_4">
     <g id="line2d_19">
      <path d="M 57.6 204.768 
L 414.72 204.768 
" clip-path="url(#p52b329a3e6)" style="fill: none; stroke: #b0b0b0; stroke-width: 0.8; stroke-linecap: square"/>
     </g>
     <g id="line2d_20">
      <g>
       <use xlink:href="#m160b2120ec" x="57.6" y="204.768" style="stroke: #000000; stroke-width: 0.8"/>
      </g>
     </g>
     <g id="text_11">
      <!-- 1.5 -->
      <g transform="translate(34.696875 208.567219) scale(0.1 -0.1)">
       <use xlink:href="#DejaVuSans-31"/>
       <use xlink:href="#DejaVuSans-2e" x="63.623047"/>
       <use xlink:href="#DejaVuSans-35" x="95.410156"/>
      </g>
     </g>
    </g>
    <g id="ytick_5">
     <g id="line2d_21">
      <path d="M 57.6 174.528 
L 414.72 174.528 
" clip-path="url(#p52b329a3e6)" style="fill: none; stroke: #b0b0b0; stroke-width: 0.8; stroke-linecap: square"/>
     </g>
     <g id="line2d_22">
      <g>
       <use xlink:href="#m160b2120ec" x="57.6" y="174.528" style="stroke: #000000; stroke-width: 0.8"/>
      </g>
     </g>
     <g id="text_12">
      <!-- 2.0 -->
      <g transform="translate(34.696875 178.327219) scale(0.1 -0.1)">
       <use xlink:href="#DejaVuSans-32"/>
       <use xlink:href="#DejaVuSans-2e" x="63.623047"/>
       <use xlink:href="#DejaVuSans-30" x="95.410156"/>
      </g>
     </g>
    </g>
    <g id="ytick_6">
     <g id="line2d_23">
      <path d="M 57.6 144.288 
L 414.72 144.288 
" clip-path="url(#p52b329a3e6)" style="fill: none; stroke: #b0b0b0; stroke-width: 0.8; stroke-linecap: square"/>
     </g>
     <g id="line2d_24">
      <g>
       <use xlink:href="#m160b2120ec" x="57.6" y="144.288" style="stroke: #000000; stroke-width: 0.8"/>
      </g>
     </g>
     <g id="text_13">
      <!-- 2.5 -->
      <g transform="translate(34.696875 148.087219) scale(0.1 -0.1)">
       <use xlink:href="#DejaVuSans-32"/>
       <use xlink:href="#DejaVuSans-2e" x="63.623047"/>
       <use xlink:href="#DejaVuSans-35" x="95.410156"/>
      </g>
     </g>
    </g>
    <g id="ytick_7">
     <g id="line2d_25">
      <path d="M 57.6 114.048 
L 414.72 114.048 
" clip-path="url(#p52b329a3e6)" style="fill: none; stroke: #b0b0b0; stroke-width: 0.8; stroke-linecap: square"/>
     </g>
     <g id="line2d_26">
      <g>
       <use xlink:href="#m160b2120ec" x="57.6" y="114.048" style="stroke: #000000; stroke-width: 0.8"/>
      </g>
     </g>
     <g id="text_14">
      <!-- 3.0 -->
      <g transform="translate(34.696875 117.847219) scale(0.1 -0.1)">
       <use xlink:href="#DejaVuSans-33"/>
       <use xlink:href="#DejaVuSans-2e" x="63.623047"/>
       <use xlink:href="#DejaVuSans-30" x="95.410156"/>
      </g>
     </g>
    </g>
    <g id="ytick_8">
     <g id="line2d_27">
      <path d="M 57.6 83.808 
L 414.72 83.808 
" clip-path="url(#p52b329a3e6)" style="fill: none; stroke: #b0b0b0; stroke-width: 0.8; stroke-linecap: square"/>
     </g>
     <g id="line2d_28">
      <g>
       <use xlink:href="#m160b2120ec" x="57.6" y="83.808" style="stroke: #000000; stroke-width: 0.8"/>
      </g>
     </g>
     <g id="text_15">
      <!-- 3.5 -->
      <g transform="translate(34.696875 87.607219) scale(0.1 -0.1)">
       <use xlink:href="#DejaVuSans-33"/>
       <use xlink:href="#DejaVuSans-2e" x="63.623047"/>
       <use xlink:href="#DejaVuSans-35" x="95.410156"/>
      </g>
     </g>
    </g>
    <g id="ytick_9">
     <g id="line2d_29">
      <path d="M 57.6 53.568 
L 414.72 53.568 
" clip-path="url(#p52b329a3e6)" style="fill: none; stroke: #b0b0b0; stroke-width: 0.8; stroke-linecap: square"/>
     </g>
     <g id="line2d_30">
      <g>
       <use xlink:href="#m160b2120ec" x="57.6" y="53.568" style="stroke: #000000; stroke-width: 0.8"/>
      </g>
     </g>
     <g id="text_16">
      <!-- 4.0 -->
      <g transform="translate(34.696875 57.367219) scale(0.1 -0.1)">
       <use xlink:href="#DejaVuSans-34"/>
       <use xlink:href="#DejaVuSans-2e" x="63.623047"/>
       <use xlink:href="#DejaVuSans-30" x="95.410156"/>
      </g>
     </g>
    </g>
    <g id="text_17">
     <!-- Constraint violation -->
     <g transform="translate(27.577344 247.951828) rotate(-90) scale(0.15 -0.15)">
      <defs>
       <path id="DejaVuSans-72" d="M 2631 2963 
Q 2534 3019 2420 3045 
Q 2306 3072 2169 3072 
Q 1681 3072 1420 2755 
Q 1159 2438 1159 1844 
L 1159 0 
L 581 0 
L 581 3500 
L 1159 3500 
L 1159 2956 
Q 1341 3275 1631 3429 
Q 1922 3584 2338 3584 
Q 2397 3584 2469 3576 
Q 2541 3569 2628 3553 
L 2631 2963 
z
" transform="scale(0.015625)"/>
       <path id="DejaVuSans-76" d="M 191 3500 
L 800 3500 
L 1894 563 
L 2988 3500 
L 3597 3500 
L 2284 0 
L 1503 0 
L 191 3500 
z
" transform="scale(0.015625)"/>
      </defs>
      <use xlink:href="#DejaVuSans-43"/>
      <use xlink:href="#DejaVuSans-6f" x="69.824219"/>
      <use xlink:href="#DejaVuSans-6e" x="131.005859"/>
      <use xlink:href="#DejaVuSans-73" x="194.384766"/>
      <use xlink:href="#DejaVuSans-74" x="246.484375"/>
      <use xlink:href="#DejaVuSans-72" x="285.693359"/>
      <use xlink:href="#DejaVuSans-61" x="326.806641"/>
      <use xlink:href="#DejaVuSans-69" x="388.085938"/>
      <use xlink:href="#DejaVuSans-6e" x="415.869141"/>
      <use xlink:href="#DejaVuSans-74" x="479.248047"/>
      <use xlink:href="#DejaVuSans-20" x="518.457031"/>
      <use xlink:href="#DejaVuSans-76" x="550.244141"/>
      <use xlink:href="#DejaVuSans-69" x="609.423828"/>
      <use xlink:href="#DejaVuSans-6f" x="637.207031"/>
      <use xlink:href="#DejaVuSans-6c" x="698.388672"/>
      <use xlink:href="#DejaVuSans-61" x="726.171875"/>
      <use xlink:href="#DejaVuSans-74" x="787.451172"/>
      <use xlink:href="#DejaVuSans-69" x="826.660156"/>
      <use xlink:href="#DejaVuSans-6f" x="854.443359"/>
      <use xlink:href="#DejaVuSans-6e" x="915.625"/>
     </g>
    </g>
   </g>
   <g id="line2d_31">
    <path d="M 57.808581 295.488 
" clip-path="url(#p52b329a3e6)" style="fill: none; stroke: #36ff33; stroke-width: 1.5; stroke-linecap: square"/>
    <defs>
     <path id="m1a7efdbd8d" d="M -6 6 
L 6 6 
L 6 -6 
L -6 -6 
z
" style="stroke: #36ff33; stroke-linejoin: miter"/>
    </defs>
    <g clip-path="url(#p52b329a3e6)">
     <use xlink:href="#m1a7efdbd8d" x="57.808581" y="295.488" style="fill: #36ff33; stroke: #36ff33; stroke-linejoin: miter"/>
    </g>
   </g>
   <g id="line2d_32">
    <path d="M 57.808581 295.488 
L 414.72 295.488 
" clip-path="url(#p52b329a3e6)" style="fill: none; stroke: #36ff33; stroke-width: 1.5; stroke-linecap: square"/>
   </g>
   <g id="line2d_33">
    <path d="M 81.984222 53.568 
" clip-path="url(#p52b329a3e6)" style="fill: none; stroke: #b6c800; stroke-width: 1.5; stroke-linecap: square"/>
    <defs>
     <path id="mecb9c4af7f" d="M 0 -6 
L -6 6 
L 6 6 
z
" style="stroke: #b6c800; stroke-linejoin: miter"/>
    </defs>
    <g clip-path="url(#p52b329a3e6)">
     <use xlink:href="#mecb9c4af7f" x="81.984222" y="53.568" style="fill: #b6c800; stroke: #b6c800; stroke-linejoin: miter"/>
    </g>
   </g>
   <g id="line2d_34">
    <path d="M 81.984222 53.568 
L 414.72 53.568 
" clip-path="url(#p52b329a3e6)" style="fill: none; stroke: #b6c800; stroke-width: 1.5; stroke-linecap: square"/>
   </g>
   <g id="line2d_35">
    <path d="M 82.91069 295.417171 
" clip-path="url(#p52b329a3e6)" style="fill: none; stroke: #f119c3; stroke-width: 1.5; stroke-linecap: square"/>
    <defs>
     <path id="m29b3cb31e8" d="M -0 6 
L 6 -6 
L -6 -6 
z
" style="stroke: #f119c3; stroke-linejoin: miter"/>
    </defs>
    <g clip-path="url(#p52b329a3e6)">
     <use xlink:href="#m29b3cb31e8" x="82.91069" y="295.417171" style="fill: #f119c3; stroke: #f119c3; stroke-linejoin: miter"/>
    </g>
   </g>
   <g id="line2d_36">
    <path d="M 82.91069 295.417171 
L 414.72 295.417171 
" clip-path="url(#p52b329a3e6)" style="fill: none; stroke: #f119c3; stroke-width: 1.5; stroke-linecap: square"/>
   </g>
   <g id="line2d_37">
    <path d="M 81.849165 236.424592 
L 105.807006 269.026904 
L 129.671238 282.844155 
L 153.299104 289.740913 
L 177.688792 293.133287 
L 203.868331 294.641399 
L 228.684797 295.226285 
L 252.203766 295.411 
L 277.343069 295.465621 
L 301.306721 295.488 
L 325.586208 295.485981 
L 349.472267 295.487077 
L 373.422369 295.488 
L 397.345092 295.487337 
L 421.22672 295.488 
" clip-path="url(#p52b329a3e6)" style="fill: none; stroke: #0d5915; stroke-width: 1.5; stroke-linecap: square"/>
    <defs>
     <path id="mdabd85fda4" d="M 0 0 
L 0 -7.5 
M 0 0 
L -6 3.75 
M 0 0 
L 6 3.75 
" style="stroke: #0d5915"/>
    </defs>
    <g clip-path="url(#p52b329a3e6)">
     <use xlink:href="#mdabd85fda4" x="81.849165" y="236.424592" style="fill: #0d5915; stroke: #0d5915"/>
     <use xlink:href="#mdabd85fda4" x="105.807006" y="269.026904" style="fill: #0d5915; stroke: #0d5915"/>
     <use xlink:href="#mdabd85fda4" x="129.671238" y="282.844155" style="fill: #0d5915; stroke: #0d5915"/>
     <use xlink:href="#mdabd85fda4" x="153.299104" y="289.740913" style="fill: #0d5915; stroke: #0d5915"/>
     <use xlink:href="#mdabd85fda4" x="177.688792" y="293.133287" style="fill: #0d5915; stroke: #0d5915"/>
     <use xlink:href="#mdabd85fda4" x="203.868331" y="294.641399" style="fill: #0d5915; stroke: #0d5915"/>
     <use xlink:href="#mdabd85fda4" x="228.684797" y="295.226285" style="fill: #0d5915; stroke: #0d5915"/>
     <use xlink:href="#mdabd85fda4" x="252.203766" y="295.411" style="fill: #0d5915; stroke: #0d5915"/>
     <use xlink:href="#mdabd85fda4" x="277.343069" y="295.465621" style="fill: #0d5915; stroke: #0d5915"/>
     <use xlink:href="#mdabd85fda4" x="301.306721" y="295.488" style="fill: #0d5915; stroke: #0d5915"/>
     <use xlink:href="#mdabd85fda4" x="325.586208" y="295.485981" style="fill: #0d5915; stroke: #0d5915"/>
     <use xlink:href="#mdabd85fda4" x="349.472267" y="295.487077" style="fill: #0d5915; stroke: #0d5915"/>
     <use xlink:href="#mdabd85fda4" x="373.422369" y="295.488" style="fill: #0d5915; stroke: #0d5915"/>
     <use xlink:href="#mdabd85fda4" x="397.345092" y="295.487337" style="fill: #0d5915; stroke: #0d5915"/>
     <use xlink:href="#mdabd85fda4" x="421.22672" y="295.488" style="fill: #0d5915; stroke: #0d5915"/>
    </g>
   </g>
   <g id="line2d_38">
    <path d="M 57.649682 295.488 
L 72.057129 286.235735 
L 86.401318 287.743112 
L 100.908702 289.394426 
L 117.458543 289.93154 
L 132.348328 290.316354 
L 146.495697 290.611768 
L 160.477002 290.847989 
L 174.143792 291.043518 
L 188.202291 291.209372 
L 202.783795 291.353452 
L 217.38113 291.478974 
L 232.306402 291.590308 
L 247.298446 291.690062 
L 261.310048 291.780199 
L 274.691557 291.862289 
L 289.469099 291.937386 
L 303.583134 292.006557 
L 317.034604 292.070609 
L 331.101819 292.13006 
L 345.100942 292.185605 
L 359.030315 292.237544 
L 373.217643 292.286397 
L 387.202278 292.33228 
L 401.163384 292.375683 
L 414.650597 292.416779 
" clip-path="url(#p52b329a3e6)" style="fill: none; stroke: #e31d1d; stroke-width: 1.5; stroke-linecap: square"/>
    <defs>
     <path id="md08c4c9d7d" d="M 0 5 
C 1.326016 5 2.597899 4.473168 3.535534 3.535534 
C 4.473168 2.597899 5 1.326016 5 0 
C 5 -1.326016 4.473168 -2.597899 3.535534 -3.535534 
C 2.597899 -4.473168 1.326016 -5 0 -5 
C -1.326016 -5 -2.597899 -4.473168 -3.535534 -3.535534 
C -4.473168 -2.597899 -5 -1.326016 -5 0 
C -5 1.326016 -4.473168 2.597899 -3.535534 3.535534 
C -2.597899 4.473168 -1.326016 5 0 5 
z
" style="stroke: #e31d1d"/>
    </defs>
    <g clip-path="url(#p52b329a3e6)">
     <use xlink:href="#md08c4c9d7d" x="57.649682" y="295.488" style="fill: #e31d1d; stroke: #e31d1d"/>
     <use xlink:href="#md08c4c9d7d" x="72.057129" y="286.235735" style="fill: #e31d1d; stroke: #e31d1d"/>
     <use xlink:href="#md08c4c9d7d" x="86.401318" y="287.743112" style="fill: #e31d1d; stroke: #e31d1d"/>
     <use xlink:href="#md08c4c9d7d" x="100.908702" y="289.394426" style="fill: #e31d1d; stroke: #e31d1d"/>
     <use xlink:href="#md08c4c9d7d" x="117.458543" y="289.93154" style="fill: #e31d1d; stroke: #e31d1d"/>
     <use xlink:href="#md08c4c9d7d" x="132.348328" y="290.316354" style="fill: #e31d1d; stroke: #e31d1d"/>
     <use xlink:href="#md08c4c9d7d" x="146.495697" y="290.611768" style="fill: #e31d1d; stroke: #e31d1d"/>
     <use xlink:href="#md08c4c9d7d" x="160.477002" y="290.847989" style="fill: #e31d1d; stroke: #e31d1d"/>
     <use xlink:href="#md08c4c9d7d" x="174.143792" y="291.043518" style="fill: #e31d1d; stroke: #e31d1d"/>
     <use xlink:href="#md08c4c9d7d" x="188.202291" y="291.209372" style="fill: #e31d1d; stroke: #e31d1d"/>
     <use xlink:href="#md08c4c9d7d" x="202.783795" y="291.353452" style="fill: #e31d1d; stroke: #e31d1d"/>
     <use xlink:href="#md08c4c9d7d" x="217.38113" y="291.478974" style="fill: #e31d1d; stroke: #e31d1d"/>
     <use xlink:href="#md08c4c9d7d" x="232.306402" y="291.590308" style="fill: #e31d1d; stroke: #e31d1d"/>
     <use xlink:href="#md08c4c9d7d" x="247.298446" y="291.690062" style="fill: #e31d1d; stroke: #e31d1d"/>
     <use xlink:href="#md08c4c9d7d" x="261.310048" y="291.780199" style="fill: #e31d1d; stroke: #e31d1d"/>
     <use xlink:href="#md08c4c9d7d" x="274.691557" y="291.862289" style="fill: #e31d1d; stroke: #e31d1d"/>
     <use xlink:href="#md08c4c9d7d" x="289.469099" y="291.937386" style="fill: #e31d1d; stroke: #e31d1d"/>
     <use xlink:href="#md08c4c9d7d" x="303.583134" y="292.006557" style="fill: #e31d1d; stroke: #e31d1d"/>
     <use xlink:href="#md08c4c9d7d" x="317.034604" y="292.070609" style="fill: #e31d1d; stroke: #e31d1d"/>
     <use xlink:href="#md08c4c9d7d" x="331.101819" y="292.13006" style="fill: #e31d1d; stroke: #e31d1d"/>
     <use xlink:href="#md08c4c9d7d" x="345.100942" y="292.185605" style="fill: #e31d1d; stroke: #e31d1d"/>
     <use xlink:href="#md08c4c9d7d" x="359.030315" y="292.237544" style="fill: #e31d1d; stroke: #e31d1d"/>
     <use xlink:href="#md08c4c9d7d" x="373.217643" y="292.286397" style="fill: #e31d1d; stroke: #e31d1d"/>
     <use xlink:href="#md08c4c9d7d" x="387.202278" y="292.33228" style="fill: #e31d1d; stroke: #e31d1d"/>
     <use xlink:href="#md08c4c9d7d" x="401.163384" y="292.375683" style="fill: #e31d1d; stroke: #e31d1d"/>
     <use xlink:href="#md08c4c9d7d" x="414.650597" y="292.416779" style="fill: #e31d1d; stroke: #e31d1d"/>
    </g>
   </g>
   <g id="line2d_39">
    <path d="M 57.609971 295.488 
L 71.60808 286.235735 
L 85.610779 287.743112 
L 99.907056 289.394426 
L 114.240414 289.93154 
L 128.777916 290.316354 
L 143.041746 290.611768 
L 156.874647 290.847989 
L 172.159222 291.043518 
L 186.513394 291.209372 
L 201.122286 291.353452 
L 214.884472 291.478974 
L 228.865644 291.590308 
L 242.976472 291.690062 
L 257.093619 291.780199 
L 271.151841 291.862289 
L 287.27575 291.937386 
L 302.179308 292.006557 
L 315.956745 292.070609 
L 329.442977 292.13006 
L 344.16505 292.185605 
L 358.430656 292.237544 
L 371.795646 292.286397 
L 386.030764 292.33228 
L 401.278431 292.375683 
L 414.706155 292.416779 
" clip-path="url(#p52b329a3e6)" style="fill: none; stroke-dasharray: 1.5,15; stroke-dashoffset: 0; stroke: #df6f67; stroke-width: 1.5"/>
    <defs>
     <path id="mbfd93b73d1" d="M 0 3 
C 0.795609 3 1.55874 2.683901 2.12132 2.12132 
C 2.683901 1.55874 3 0.795609 3 0 
C 3 -0.795609 2.683901 -1.55874 2.12132 -2.12132 
C 1.55874 -2.683901 0.795609 -3 0 -3 
C -0.795609 -3 -1.55874 -2.683901 -2.12132 -2.12132 
C -2.683901 -1.55874 -3 -0.795609 -3 0 
C -3 0.795609 -2.683901 1.55874 -2.12132 2.12132 
C -1.55874 2.683901 -0.795609 3 0 3 
z
" style="stroke: #df6f67"/>
    </defs>
    <g clip-path="url(#p52b329a3e6)">
     <use xlink:href="#mbfd93b73d1" x="57.609971" y="295.488" style="fill: #df6f67; stroke: #df6f67"/>
     <use xlink:href="#mbfd93b73d1" x="71.60808" y="286.235735" style="fill: #df6f67; stroke: #df6f67"/>
     <use xlink:href="#mbfd93b73d1" x="85.610779" y="287.743112" style="fill: #df6f67; stroke: #df6f67"/>
     <use xlink:href="#mbfd93b73d1" x="99.907056" y="289.394426" style="fill: #df6f67; stroke: #df6f67"/>
     <use xlink:href="#mbfd93b73d1" x="114.240414" y="289.93154" style="fill: #df6f67; stroke: #df6f67"/>
     <use xlink:href="#mbfd93b73d1" x="128.777916" y="290.316354" style="fill: #df6f67; stroke: #df6f67"/>
     <use xlink:href="#mbfd93b73d1" x="143.041746" y="290.611768" style="fill: #df6f67; stroke: #df6f67"/>
     <use xlink:href="#mbfd93b73d1" x="156.874647" y="290.847989" style="fill: #df6f67; stroke: #df6f67"/>
     <use xlink:href="#mbfd93b73d1" x="172.159222" y="291.043518" style="fill: #df6f67; stroke: #df6f67"/>
     <use xlink:href="#mbfd93b73d1" x="186.513394" y="291.209372" style="fill: #df6f67; stroke: #df6f67"/>
     <use xlink:href="#mbfd93b73d1" x="201.122286" y="291.353452" style="fill: #df6f67; stroke: #df6f67"/>
     <use xlink:href="#mbfd93b73d1" x="214.884472" y="291.478974" style="fill: #df6f67; stroke: #df6f67"/>
     <use xlink:href="#mbfd93b73d1" x="228.865644" y="291.590308" style="fill: #df6f67; stroke: #df6f67"/>
     <use xlink:href="#mbfd93b73d1" x="242.976472" y="291.690062" style="fill: #df6f67; stroke: #df6f67"/>
     <use xlink:href="#mbfd93b73d1" x="257.093619" y="291.780199" style="fill: #df6f67; stroke: #df6f67"/>
     <use xlink:href="#mbfd93b73d1" x="271.151841" y="291.862289" style="fill: #df6f67; stroke: #df6f67"/>
     <use xlink:href="#mbfd93b73d1" x="287.27575" y="291.937386" style="fill: #df6f67; stroke: #df6f67"/>
     <use xlink:href="#mbfd93b73d1" x="302.179308" y="292.006557" style="fill: #df6f67; stroke: #df6f67"/>
     <use xlink:href="#mbfd93b73d1" x="315.956745" y="292.070609" style="fill: #df6f67; stroke: #df6f67"/>
     <use xlink:href="#mbfd93b73d1" x="329.442977" y="292.13006" style="fill: #df6f67; stroke: #df6f67"/>
     <use xlink:href="#mbfd93b73d1" x="344.16505" y="292.185605" style="fill: #df6f67; stroke: #df6f67"/>
     <use xlink:href="#mbfd93b73d1" x="358.430656" y="292.237544" style="fill: #df6f67; stroke: #df6f67"/>
     <use xlink:href="#mbfd93b73d1" x="371.795646" y="292.286397" style="fill: #df6f67; stroke: #df6f67"/>
     <use xlink:href="#mbfd93b73d1" x="386.030764" y="292.33228" style="fill: #df6f67; stroke: #df6f67"/>
     <use xlink:href="#mbfd93b73d1" x="401.278431" y="292.375683" style="fill: #df6f67; stroke: #df6f67"/>
     <use xlink:href="#mbfd93b73d1" x="414.706155" y="292.416779" style="fill: #df6f67; stroke: #df6f67"/>
    </g>
   </g>
   <g id="line2d_40">
    <path d="M 57.654856 295.488 
L 69.214471 285.973429 
L 89.278417 287.524973 
L 103.363009 288.356982 
L 114.651317 289.740206 
L 127.2359 290.137912 
L 143.003052 290.442338 
L 156.348795 290.687384 
L 169.298072 290.88956 
L 183.565361 291.060995 
L 201.411557 291.209026 
L 217.459482 291.339638 
L 231.896983 291.454764 
L 244.386124 291.557921 
L 259.157427 291.651144 
L 272.880099 291.735916 
L 285.146512 291.813638 
L 296.874452 291.885187 
L 309.751225 291.951344 
L 324.377795 292.012858 
L 339.298198 292.07032 
L 353.980786 292.124019 
L 367.665859 292.174559 
L 384.385477 292.222014 
L 397.846682 292.26696 
L 414.606004 292.309411 
" clip-path="url(#p52b329a3e6)" style="fill: none; stroke-dasharray: 7.5,15; stroke-dashoffset: 0; stroke: #dea39f; stroke-width: 1.5"/>
    <defs>
     <path id="m00a53869e3" d="M 0 3 
C 0.795609 3 1.55874 2.683901 2.12132 2.12132 
C 2.683901 1.55874 3 0.795609 3 0 
C 3 -0.795609 2.683901 -1.55874 2.12132 -2.12132 
C 1.55874 -2.683901 0.795609 -3 0 -3 
C -0.795609 -3 -1.55874 -2.683901 -2.12132 -2.12132 
C -2.683901 -1.55874 -3 -0.795609 -3 0 
C -3 0.795609 -2.683901 1.55874 -2.12132 2.12132 
C -1.55874 2.683901 -0.795609 3 0 3 
z
" style="stroke: #dea39f"/>
    </defs>
    <g clip-path="url(#p52b329a3e6)">
     <use xlink:href="#m00a53869e3" x="57.654856" y="295.488" style="fill: #dea39f; stroke: #dea39f"/>
     <use xlink:href="#m00a53869e3" x="69.214471" y="285.973429" style="fill: #dea39f; stroke: #dea39f"/>
     <use xlink:href="#m00a53869e3" x="89.278417" y="287.524973" style="fill: #dea39f; stroke: #dea39f"/>
     <use xlink:href="#m00a53869e3" x="103.363009" y="288.356982" style="fill: #dea39f; stroke: #dea39f"/>
     <use xlink:href="#m00a53869e3" x="114.651317" y="289.740206" style="fill: #dea39f; stroke: #dea39f"/>
     <use xlink:href="#m00a53869e3" x="127.2359" y="290.137912" style="fill: #dea39f; stroke: #dea39f"/>
     <use xlink:href="#m00a53869e3" x="143.003052" y="290.442338" style="fill: #dea39f; stroke: #dea39f"/>
     <use xlink:href="#m00a53869e3" x="156.348795" y="290.687384" style="fill: #dea39f; stroke: #dea39f"/>
     <use xlink:href="#m00a53869e3" x="169.298072" y="290.88956" style="fill: #dea39f; stroke: #dea39f"/>
     <use xlink:href="#m00a53869e3" x="183.565361" y="291.060995" style="fill: #dea39f; stroke: #dea39f"/>
     <use xlink:href="#m00a53869e3" x="201.411557" y="291.209026" style="fill: #dea39f; stroke: #dea39f"/>
     <use xlink:href="#m00a53869e3" x="217.459482" y="291.339638" style="fill: #dea39f; stroke: #dea39f"/>
     <use xlink:href="#m00a53869e3" x="231.896983" y="291.454764" style="fill: #dea39f; stroke: #dea39f"/>
     <use xlink:href="#m00a53869e3" x="244.386124" y="291.557921" style="fill: #dea39f; stroke: #dea39f"/>
     <use xlink:href="#m00a53869e3" x="259.157427" y="291.651144" style="fill: #dea39f; stroke: #dea39f"/>
     <use xlink:href="#m00a53869e3" x="272.880099" y="291.735916" style="fill: #dea39f; stroke: #dea39f"/>
     <use xlink:href="#m00a53869e3" x="285.146512" y="291.813638" style="fill: #dea39f; stroke: #dea39f"/>
     <use xlink:href="#m00a53869e3" x="296.874452" y="291.885187" style="fill: #dea39f; stroke: #dea39f"/>
     <use xlink:href="#m00a53869e3" x="309.751225" y="291.951344" style="fill: #dea39f; stroke: #dea39f"/>
     <use xlink:href="#m00a53869e3" x="324.377795" y="292.012858" style="fill: #dea39f; stroke: #dea39f"/>
     <use xlink:href="#m00a53869e3" x="339.298198" y="292.07032" style="fill: #dea39f; stroke: #dea39f"/>
     <use xlink:href="#m00a53869e3" x="353.980786" y="292.124019" style="fill: #dea39f; stroke: #dea39f"/>
     <use xlink:href="#m00a53869e3" x="367.665859" y="292.174559" style="fill: #dea39f; stroke: #dea39f"/>
     <use xlink:href="#m00a53869e3" x="384.385477" y="292.222014" style="fill: #dea39f; stroke: #dea39f"/>
     <use xlink:href="#m00a53869e3" x="397.846682" y="292.26696" style="fill: #dea39f; stroke: #dea39f"/>
     <use xlink:href="#m00a53869e3" x="414.606004" y="292.309411" style="fill: #dea39f; stroke: #dea39f"/>
    </g>
   </g>
   <g id="line2d_41">
    <path d="M 82.117888 53.568 
L 106.906691 155.540733 
L 130.646498 156.736431 
L 153.889503 157.570127 
L 177.456909 158.257074 
L 200.921524 291.637964 
L 224.497677 292.00908 
L 251.745821 292.323311 
L 276.267685 292.59362 
L 299.605146 292.828976 
L 323.871071 293.035868 
L 347.437764 293.219342 
L 370.651892 293.383033 
L 394.40251 293.530113 
L 417.935676 293.662758 
" clip-path="url(#p52b329a3e6)" style="fill: none; stroke: #1c24dc; stroke-width: 1.5; stroke-linecap: square"/>
    <defs>
     <path id="m889398bf53" d="M 0 -5 
L -1.12257 -1.545085 
L -4.755283 -1.545085 
L -1.816356 0.59017 
L -2.938926 4.045085 
L -0 1.90983 
L 2.938926 4.045085 
L 1.816356 0.59017 
L 4.755283 -1.545085 
L 1.12257 -1.545085 
z
" style="stroke: #1c24dc; stroke-linejoin: bevel"/>
    </defs>
    <g clip-path="url(#p52b329a3e6)">
     <use xlink:href="#m889398bf53" x="82.117888" y="53.568" style="fill: #1c24dc; stroke: #1c24dc; stroke-linejoin: bevel"/>
     <use xlink:href="#m889398bf53" x="106.906691" y="155.540733" style="fill: #1c24dc; stroke: #1c24dc; stroke-linejoin: bevel"/>
     <use xlink:href="#m889398bf53" x="130.646498" y="156.736431" style="fill: #1c24dc; stroke: #1c24dc; stroke-linejoin: bevel"/>
     <use xlink:href="#m889398bf53" x="153.889503" y="157.570127" style="fill: #1c24dc; stroke: #1c24dc; stroke-linejoin: bevel"/>
     <use xlink:href="#m889398bf53" x="177.456909" y="158.257074" style="fill: #1c24dc; stroke: #1c24dc; stroke-linejoin: bevel"/>
     <use xlink:href="#m889398bf53" x="200.921524" y="291.637964" style="fill: #1c24dc; stroke: #1c24dc; stroke-linejoin: bevel"/>
     <use xlink:href="#m889398bf53" x="224.497677" y="292.00908" style="fill: #1c24dc; stroke: #1c24dc; stroke-linejoin: bevel"/>
     <use xlink:href="#m889398bf53" x="251.745821" y="292.323311" style="fill: #1c24dc; stroke: #1c24dc; stroke-linejoin: bevel"/>
     <use xlink:href="#m889398bf53" x="276.267685" y="292.59362" style="fill: #1c24dc; stroke: #1c24dc; stroke-linejoin: bevel"/>
     <use xlink:href="#m889398bf53" x="299.605146" y="292.828976" style="fill: #1c24dc; stroke: #1c24dc; stroke-linejoin: bevel"/>
     <use xlink:href="#m889398bf53" x="323.871071" y="293.035868" style="fill: #1c24dc; stroke: #1c24dc; stroke-linejoin: bevel"/>
     <use xlink:href="#m889398bf53" x="347.437764" y="293.219342" style="fill: #1c24dc; stroke: #1c24dc; stroke-linejoin: bevel"/>
     <use xlink:href="#m889398bf53" x="370.651892" y="293.383033" style="fill: #1c24dc; stroke: #1c24dc; stroke-linejoin: bevel"/>
     <use xlink:href="#m889398bf53" x="394.40251" y="293.530113" style="fill: #1c24dc; stroke: #1c24dc; stroke-linejoin: bevel"/>
     <use xlink:href="#m889398bf53" x="417.935676" y="293.662758" style="fill: #1c24dc; stroke: #1c24dc; stroke-linejoin: bevel"/>
    </g>
   </g>
   <g id="line2d_42">
    <path d="M 81.31513 53.568 
L 104.997383 155.540733 
L 129.286011 156.736431 
L 152.405242 157.570127 
L 176.659915 158.257074 
L 200.252404 291.637964 
L 223.933661 292.00908 
L 247.472178 292.323311 
L 270.82235 292.59362 
L 294.459234 292.828976 
L 320.745604 293.035868 
L 345.344706 293.219342 
L 368.571068 293.383033 
L 392.774463 293.530113 
L 416.623603 293.662758 
" clip-path="url(#p52b329a3e6)" style="fill: none; stroke-dasharray: 1.5,15; stroke-dashoffset: 0; stroke: #595fdc; stroke-width: 1.5"/>
    <defs>
     <path id="m80df23b625" d="M 0 -3 
L -0.673542 -0.927051 
L -2.85317 -0.927051 
L -1.089814 0.354102 
L -1.763356 2.427051 
L -0 1.145898 
L 1.763356 2.427051 
L 1.089814 0.354102 
L 2.85317 -0.927051 
L 0.673542 -0.927051 
z
" style="stroke: #595fdc; stroke-linejoin: bevel"/>
    </defs>
    <g clip-path="url(#p52b329a3e6)">
     <use xlink:href="#m80df23b625" x="81.31513" y="53.568" style="fill: #595fdc; stroke: #595fdc; stroke-linejoin: bevel"/>
     <use xlink:href="#m80df23b625" x="104.997383" y="155.540733" style="fill: #595fdc; stroke: #595fdc; stroke-linejoin: bevel"/>
     <use xlink:href="#m80df23b625" x="129.286011" y="156.736431" style="fill: #595fdc; stroke: #595fdc; stroke-linejoin: bevel"/>
     <use xlink:href="#m80df23b625" x="152.405242" y="157.570127" style="fill: #595fdc; stroke: #595fdc; stroke-linejoin: bevel"/>
     <use xlink:href="#m80df23b625" x="176.659915" y="158.257074" style="fill: #595fdc; stroke: #595fdc; stroke-linejoin: bevel"/>
     <use xlink:href="#m80df23b625" x="200.252404" y="291.637964" style="fill: #595fdc; stroke: #595fdc; stroke-linejoin: bevel"/>
     <use xlink:href="#m80df23b625" x="223.933661" y="292.00908" style="fill: #595fdc; stroke: #595fdc; stroke-linejoin: bevel"/>
     <use xlink:href="#m80df23b625" x="247.472178" y="292.323311" style="fill: #595fdc; stroke: #595fdc; stroke-linejoin: bevel"/>
     <use xlink:href="#m80df23b625" x="270.82235" y="292.59362" style="fill: #595fdc; stroke: #595fdc; stroke-linejoin: bevel"/>
     <use xlink:href="#m80df23b625" x="294.459234" y="292.828976" style="fill: #595fdc; stroke: #595fdc; stroke-linejoin: bevel"/>
     <use xlink:href="#m80df23b625" x="320.745604" y="293.035868" style="fill: #595fdc; stroke: #595fdc; stroke-linejoin: bevel"/>
     <use xlink:href="#m80df23b625" x="345.344706" y="293.219342" style="fill: #595fdc; stroke: #595fdc; stroke-linejoin: bevel"/>
     <use xlink:href="#m80df23b625" x="368.571068" y="293.383033" style="fill: #595fdc; stroke: #595fdc; stroke-linejoin: bevel"/>
     <use xlink:href="#m80df23b625" x="392.774463" y="293.530113" style="fill: #595fdc; stroke: #595fdc; stroke-linejoin: bevel"/>
     <use xlink:href="#m80df23b625" x="416.623603" y="293.662758" style="fill: #595fdc; stroke: #595fdc; stroke-linejoin: bevel"/>
    </g>
   </g>
   <g id="line2d_43">
    <path d="M 82.511818 53.568 
L 105.953361 155.540733 
L 133.223668 156.736431 
L 156.351732 157.570127 
L 179.456533 158.257074 
L 203.682977 291.637964 
L 225.686183 292.00908 
L 247.290604 292.323311 
L 270.410137 292.59362 
L 293.676017 292.828976 
L 322.677303 293.035868 
L 345.128623 293.219342 
L 369.410295 293.383033 
L 390.390651 293.530113 
L 412.131101 293.662758 
L 436.817044 293.783046 
" clip-path="url(#p52b329a3e6)" style="fill: none; stroke-dasharray: 7.5,15; stroke-dashoffset: 0; stroke: #9598dc; stroke-width: 1.5"/>
    <defs>
     <path id="ma33eca9a53" d="M 0 -3 
L -0.673542 -0.927051 
L -2.85317 -0.927051 
L -1.089814 0.354102 
L -1.763356 2.427051 
L -0 1.145898 
L 1.763356 2.427051 
L 1.089814 0.354102 
L 2.85317 -0.927051 
L 0.673542 -0.927051 
z
" style="stroke: #9598dc; stroke-linejoin: bevel"/>
    </defs>
    <g clip-path="url(#p52b329a3e6)">
     <use xlink:href="#ma33eca9a53" x="82.511818" y="53.568" style="fill: #9598dc; stroke: #9598dc; stroke-linejoin: bevel"/>
     <use xlink:href="#ma33eca9a53" x="105.953361" y="155.540733" style="fill: #9598dc; stroke: #9598dc; stroke-linejoin: bevel"/>
     <use xlink:href="#ma33eca9a53" x="133.223668" y="156.736431" style="fill: #9598dc; stroke: #9598dc; stroke-linejoin: bevel"/>
     <use xlink:href="#ma33eca9a53" x="156.351732" y="157.570127" style="fill: #9598dc; stroke: #9598dc; stroke-linejoin: bevel"/>
     <use xlink:href="#ma33eca9a53" x="179.456533" y="158.257074" style="fill: #9598dc; stroke: #9598dc; stroke-linejoin: bevel"/>
     <use xlink:href="#ma33eca9a53" x="203.682977" y="291.637964" style="fill: #9598dc; stroke: #9598dc; stroke-linejoin: bevel"/>
     <use xlink:href="#ma33eca9a53" x="225.686183" y="292.00908" style="fill: #9598dc; stroke: #9598dc; stroke-linejoin: bevel"/>
     <use xlink:href="#ma33eca9a53" x="247.290604" y="292.323311" style="fill: #9598dc; stroke: #9598dc; stroke-linejoin: bevel"/>
     <use xlink:href="#ma33eca9a53" x="270.410137" y="292.59362" style="fill: #9598dc; stroke: #9598dc; stroke-linejoin: bevel"/>
     <use xlink:href="#ma33eca9a53" x="293.676017" y="292.828976" style="fill: #9598dc; stroke: #9598dc; stroke-linejoin: bevel"/>
     <use xlink:href="#ma33eca9a53" x="322.677303" y="293.035868" style="fill: #9598dc; stroke: #9598dc; stroke-linejoin: bevel"/>
     <use xlink:href="#ma33eca9a53" x="345.128623" y="293.219342" style="fill: #9598dc; stroke: #9598dc; stroke-linejoin: bevel"/>
     <use xlink:href="#ma33eca9a53" x="369.410295" y="293.383033" style="fill: #9598dc; stroke: #9598dc; stroke-linejoin: bevel"/>
     <use xlink:href="#ma33eca9a53" x="390.390651" y="293.530113" style="fill: #9598dc; stroke: #9598dc; stroke-linejoin: bevel"/>
     <use xlink:href="#ma33eca9a53" x="412.131101" y="293.662758" style="fill: #9598dc; stroke: #9598dc; stroke-linejoin: bevel"/>
     <use xlink:href="#ma33eca9a53" x="436.817044" y="293.783046" style="fill: #9598dc; stroke: #9598dc; stroke-linejoin: bevel"/>
    </g>
   </g>
   <g id="patch_3">
    <path d="M 57.6 307.584 
L 57.6 41.472 
" style="fill: none; stroke: #000000; stroke-width: 0.8; stroke-linejoin: miter; stroke-linecap: square"/>
   </g>
   <g id="patch_4">
    <path d="M 414.72 307.584 
L 414.72 41.472 
" style="fill: none; stroke: #000000; stroke-width: 0.8; stroke-linejoin: miter; stroke-linecap: square"/>
   </g>
   <g id="patch_5">
    <path d="M 57.6 307.584 
L 414.72 307.584 
" style="fill: none; stroke: #000000; stroke-width: 0.8; stroke-linejoin: miter; stroke-linecap: square"/>
   </g>
   <g id="patch_6">
    <path d="M 57.6 41.472 
L 414.72 41.472 
" style="fill: none; stroke: #000000; stroke-width: 0.8; stroke-linejoin: miter; stroke-linecap: square"/>
   </g>
   <g id="legend_1">
    <g id="patch_7">
     <path d="M 317.42 219.072 
L 407.72 219.072 
Q 409.72 219.072 409.72 217.072 
L 409.72 48.472 
Q 409.72 46.472 407.72 46.472 
L 317.42 46.472 
Q 315.42 46.472 315.42 48.472 
L 315.42 217.072 
Q 315.42 219.072 317.42 219.072 
z
" style="fill: #ffffff; opacity: 0.8; stroke: #cccccc; stroke-linejoin: miter"/>
    </g>
    <g id="line2d_44">
     <path d="M 319.42 56.072 
L 329.42 56.072 
L 339.42 56.072 
" style="fill: none; stroke: #36ff33; stroke-width: 1.5; stroke-linecap: square"/>
     <g>
      <use xlink:href="#m1a7efdbd8d" x="329.42" y="56.072" style="fill: #36ff33; stroke: #36ff33; stroke-linejoin: miter"/>
     </g>
    </g>
    <g id="text_18">
     <!-- $MPS(\mathbf{x}^0_{max})$ -->
     <g transform="translate(347.42 59.572) scale(0.1 -0.1)">
      <defs>
       <path id="DejaVuSans-Oblique-4d" d="M 1081 4666 
L 2028 4666 
L 2572 1522 
L 4378 4666 
L 5350 4666 
L 4441 0 
L 3828 0 
L 4622 4091 
L 2791 897 
L 2175 897 
L 1581 4103 
L 788 0 
L 172 0 
L 1081 4666 
z
" transform="scale(0.015625)"/>
       <path id="DejaVuSans-Oblique-50" d="M 1081 4666 
L 2541 4666 
Q 3178 4666 3512 4369 
Q 3847 4072 3847 3500 
Q 3847 2731 3353 2303 
Q 2859 1875 1966 1875 
L 1172 1875 
L 806 0 
L 172 0 
L 1081 4666 
z
M 1613 4147 
L 1275 2394 
L 2069 2394 
Q 2606 2394 2893 2669 
Q 3181 2944 3181 3456 
Q 3181 3784 2986 3965 
Q 2791 4147 2438 4147 
L 1613 4147 
z
" transform="scale(0.015625)"/>
       <path id="DejaVuSans-Oblique-53" d="M 3859 4513 
L 3738 3897 
Q 3422 4066 3111 4152 
Q 2800 4238 2509 4238 
Q 1944 4238 1609 3991 
Q 1275 3744 1275 3334 
Q 1275 3109 1398 2989 
Q 1522 2869 2034 2731 
L 2413 2638 
Q 3053 2472 3303 2217 
Q 3553 1963 3553 1503 
Q 3553 797 2998 353 
Q 2444 -91 1538 -91 
Q 1166 -91 791 -17 
Q 416 56 38 206 
L 166 856 
Q 513 641 861 531 
Q 1209 422 1556 422 
Q 2147 422 2503 684 
Q 2859 947 2859 1369 
Q 2859 1650 2717 1795 
Q 2575 1941 2106 2059 
L 1728 2156 
Q 1081 2325 845 2545 
Q 609 2766 609 3163 
Q 609 3859 1145 4304 
Q 1681 4750 2541 4750 
Q 2875 4750 3203 4690 
Q 3531 4631 3859 4513 
z
" transform="scale(0.015625)"/>
       <path id="DejaVuSans-28" d="M 1984 4856 
Q 1566 4138 1362 3434 
Q 1159 2731 1159 2009 
Q 1159 1288 1364 580 
Q 1569 -128 1984 -844 
L 1484 -844 
Q 1016 -109 783 600 
Q 550 1309 550 2009 
Q 550 2706 781 3412 
Q 1013 4119 1484 4856 
L 1984 4856 
z
" transform="scale(0.015625)"/>
       <path id="DejaVuSans-Bold-78" d="M 1422 1791 
L 159 3500 
L 1344 3500 
L 2059 2463 
L 2784 3500 
L 3969 3500 
L 2706 1797 
L 4031 0 
L 2847 0 
L 2059 1106 
L 1281 0 
L 97 0 
L 1422 1791 
z
" transform="scale(0.015625)"/>
       <path id="DejaVuSans-Oblique-6d" d="M 5747 2113 
L 5338 0 
L 4763 0 
L 5166 2094 
Q 5191 2228 5203 2325 
Q 5216 2422 5216 2491 
Q 5216 2772 5059 2928 
Q 4903 3084 4622 3084 
Q 4203 3084 3875 2770 
Q 3547 2456 3450 1953 
L 3066 0 
L 2491 0 
L 2900 2094 
Q 2925 2209 2937 2307 
Q 2950 2406 2950 2484 
Q 2950 2769 2794 2926 
Q 2638 3084 2363 3084 
Q 1938 3084 1609 2770 
Q 1281 2456 1184 1953 
L 800 0 
L 225 0 
L 909 3500 
L 1484 3500 
L 1375 2956 
Q 1609 3263 1923 3423 
Q 2238 3584 2597 3584 
Q 2978 3584 3223 3384 
Q 3469 3184 3519 2828 
Q 3781 3197 4126 3390 
Q 4472 3584 4856 3584 
Q 5306 3584 5551 3325 
Q 5797 3066 5797 2591 
Q 5797 2488 5784 2364 
Q 5772 2241 5747 2113 
z
" transform="scale(0.015625)"/>
       <path id="DejaVuSans-Oblique-61" d="M 3438 1997 
L 3047 0 
L 2472 0 
L 2578 531 
Q 2325 219 2001 64 
Q 1678 -91 1281 -91 
Q 834 -91 548 182 
Q 263 456 263 884 
Q 263 1497 752 1853 
Q 1241 2209 2100 2209 
L 2900 2209 
L 2931 2363 
Q 2938 2388 2941 2417 
Q 2944 2447 2944 2509 
Q 2944 2788 2717 2942 
Q 2491 3097 2081 3097 
Q 1800 3097 1504 3025 
Q 1209 2953 897 2809 
L 997 3341 
Q 1322 3463 1633 3523 
Q 1944 3584 2234 3584 
Q 2853 3584 3176 3315 
Q 3500 3047 3500 2534 
Q 3500 2431 3484 2292 
Q 3469 2153 3438 1997 
z
M 2816 1759 
L 2241 1759 
Q 1534 1759 1195 1570 
Q 856 1381 856 984 
Q 856 709 1029 553 
Q 1203 397 1509 397 
Q 1978 397 2328 733 
Q 2678 1069 2791 1631 
L 2816 1759 
z
" transform="scale(0.015625)"/>
       <path id="DejaVuSans-Oblique-78" d="M 3841 3500 
L 2234 1784 
L 3219 0 
L 2559 0 
L 1819 1388 
L 531 0 
L -166 0 
L 1556 1844 
L 641 3500 
L 1300 3500 
L 1972 2234 
L 3144 3500 
L 3841 3500 
z
" transform="scale(0.015625)"/>
       <path id="DejaVuSans-29" d="M 513 4856 
L 1013 4856 
Q 1481 4119 1714 3412 
Q 1947 2706 1947 2009 
Q 1947 1309 1714 600 
Q 1481 -109 1013 -844 
L 513 -844 
Q 928 -128 1133 580 
Q 1338 1288 1338 2009 
Q 1338 2731 1133 3434 
Q 928 4138 513 4856 
z
" transform="scale(0.015625)"/>
      </defs>
      <use xlink:href="#DejaVuSans-Oblique-4d" transform="translate(0 0.765625)"/>
      <use xlink:href="#DejaVuSans-Oblique-50" transform="translate(86.279297 0.765625)"/>
      <use xlink:href="#DejaVuSans-Oblique-53" transform="translate(146.582031 0.765625)"/>
      <use xlink:href="#DejaVuSans-28" transform="translate(210.058594 0.765625)"/>
      <use xlink:href="#DejaVuSans-Bold-78" transform="translate(249.072266 0.765625)"/>
      <use xlink:href="#DejaVuSans-30" transform="translate(314.53125 39.046875) scale(0.7)"/>
      <use xlink:href="#DejaVuSans-Oblique-6d" transform="translate(314.53125 -26.578125) scale(0.7)"/>
      <use xlink:href="#DejaVuSans-Oblique-61" transform="translate(382.719727 -26.578125) scale(0.7)"/>
      <use xlink:href="#DejaVuSans-Oblique-78" transform="translate(425.615234 -26.578125) scale(0.7)"/>
      <use xlink:href="#DejaVuSans-29" transform="translate(469.775391 0.765625)"/>
     </g>
    </g>
    <g id="line2d_45">
     <path d="M 319.42 73.072 
L 329.42 73.072 
L 339.42 73.072 
" style="fill: none; stroke: #b6c800; stroke-width: 1.5; stroke-linecap: square"/>
     <g>
      <use xlink:href="#mecb9c4af7f" x="329.42" y="73.072" style="fill: #b6c800; stroke: #b6c800; stroke-linejoin: miter"/>
     </g>
    </g>
    <g id="text_19">
     <!-- $PM_{C\searrow}(\mathbf{x}^0_{max})$ -->
     <g transform="translate(347.42 76.572) scale(0.1 -0.1)">
      <defs>
       <path id="DejaVuSans-Oblique-43" d="M 4447 4306 
L 4319 3641 
Q 4019 3944 3683 4091 
Q 3347 4238 2956 4238 
Q 2422 4238 2017 3981 
Q 1613 3725 1319 3200 
Q 1131 2863 1032 2486 
Q 934 2109 934 1728 
Q 934 1091 1264 756 
Q 1594 422 2222 422 
Q 2656 422 3056 561 
Q 3456 700 3834 978 
L 3688 231 
Q 3316 72 2936 -9 
Q 2556 -91 2175 -91 
Q 1278 -91 773 396 
Q 269 884 269 1753 
Q 269 2309 461 2846 
Q 653 3384 1013 3828 
Q 1394 4300 1883 4525 
Q 2372 4750 3022 4750 
Q 3422 4750 3780 4639 
Q 4138 4528 4447 4306 
z
" transform="scale(0.015625)"/>
       <path id="DejaVuSans-2198" d="M 4497 359 
L 4300 163 
L 2563 163 
L 2563 691 
L 3594 691 
L 900 3384 
L 1275 3759 
L 3969 1066 
L 3969 2097 
L 4497 2097 
L 4497 359 
z
" transform="scale(0.015625)"/>
      </defs>
      <use xlink:href="#DejaVuSans-Oblique-50" transform="translate(0 0.765625)"/>
      <use xlink:href="#DejaVuSans-Oblique-4d" transform="translate(60.302734 0.765625)"/>
      <use xlink:href="#DejaVuSans-Oblique-43" transform="translate(146.582031 -15.640625) scale(0.7)"/>
      <use xlink:href="#DejaVuSans-2198" transform="translate(209.09668 -15.640625) scale(0.7)"/>
      <use xlink:href="#DejaVuSans-28" transform="translate(284.121094 0.765625)"/>
      <use xlink:href="#DejaVuSans-Bold-78" transform="translate(323.134766 0.765625)"/>
      <use xlink:href="#DejaVuSans-30" transform="translate(388.59375 39.046875) scale(0.7)"/>
      <use xlink:href="#DejaVuSans-Oblique-6d" transform="translate(388.59375 -26.578125) scale(0.7)"/>
      <use xlink:href="#DejaVuSans-Oblique-61" transform="translate(456.782227 -26.578125) scale(0.7)"/>
      <use xlink:href="#DejaVuSans-Oblique-78" transform="translate(499.677734 -26.578125) scale(0.7)"/>
      <use xlink:href="#DejaVuSans-29" transform="translate(543.837891 0.765625)"/>
     </g>
    </g>
    <g id="line2d_46">
     <path d="M 319.42 90.072 
L 329.42 90.072 
L 339.42 90.072 
" style="fill: none; stroke: #f119c3; stroke-width: 1.5; stroke-linecap: square"/>
     <g>
      <use xlink:href="#m29b3cb31e8" x="329.42" y="90.072" style="fill: #f119c3; stroke: #f119c3; stroke-linejoin: miter"/>
     </g>
    </g>
    <g id="text_20">
     <!-- $PM_{C\nearrow}(\mathbf{x}^0_{max})$ -->
     <g transform="translate(347.42 93.572) scale(0.1 -0.1)">
      <defs>
       <path id="DejaVuSans-2197" d="M 4300 3759 
L 4497 3563 
L 4497 1825 
L 3969 1825 
L 3969 2856 
L 1275 163 
L 900 538 
L 3594 3231 
L 2563 3231 
L 2563 3759 
L 4300 3759 
z
" transform="scale(0.015625)"/>
      </defs>
      <use xlink:href="#DejaVuSans-Oblique-50" transform="translate(0 0.765625)"/>
      <use xlink:href="#DejaVuSans-Oblique-4d" transform="translate(60.302734 0.765625)"/>
      <use xlink:href="#DejaVuSans-Oblique-43" transform="translate(146.582031 -15.640625) scale(0.7)"/>
      <use xlink:href="#DejaVuSans-2197" transform="translate(209.09668 -15.640625) scale(0.7)"/>
      <use xlink:href="#DejaVuSans-28" transform="translate(284.121094 0.765625)"/>
      <use xlink:href="#DejaVuSans-Bold-78" transform="translate(323.134766 0.765625)"/>
      <use xlink:href="#DejaVuSans-30" transform="translate(388.59375 39.046875) scale(0.7)"/>
      <use xlink:href="#DejaVuSans-Oblique-6d" transform="translate(388.59375 -26.578125) scale(0.7)"/>
      <use xlink:href="#DejaVuSans-Oblique-61" transform="translate(456.782227 -26.578125) scale(0.7)"/>
      <use xlink:href="#DejaVuSans-Oblique-78" transform="translate(499.677734 -26.578125) scale(0.7)"/>
      <use xlink:href="#DejaVuSans-29" transform="translate(543.837891 0.765625)"/>
     </g>
    </g>
    <g id="line2d_47">
     <path d="M 319.42 107.072 
L 329.42 107.072 
L 339.42 107.072 
" style="fill: none; stroke: #0d5915; stroke-width: 1.5; stroke-linecap: square"/>
     <g>
      <use xlink:href="#mdabd85fda4" x="329.42" y="107.072" style="fill: #0d5915; stroke: #0d5915"/>
     </g>
    </g>
    <g id="text_21">
     <!-- $IPDD(\mathbf{x}^0_{max})$ -->
     <g transform="translate(347.42 110.572) scale(0.1 -0.1)">
      <defs>
       <path id="DejaVuSans-Oblique-49" d="M 1081 4666 
L 1716 4666 
L 806 0 
L 172 0 
L 1081 4666 
z
" transform="scale(0.015625)"/>
       <path id="DejaVuSans-Oblique-44" d="M 1081 4666 
L 2438 4666 
Q 3519 4666 4070 4208 
Q 4622 3750 4622 2847 
Q 4622 2250 4412 1698 
Q 4203 1147 3834 769 
Q 3463 381 2891 190 
Q 2319 0 1538 0 
L 172 0 
L 1081 4666 
z
M 1613 4147 
L 909 519 
L 1734 519 
Q 2794 519 3375 1128 
Q 3956 1738 3956 2847 
Q 3956 3519 3581 3833 
Q 3206 4147 2406 4147 
L 1613 4147 
z
" transform="scale(0.015625)"/>
      </defs>
      <use xlink:href="#DejaVuSans-Oblique-49" transform="translate(0 0.765625)"/>
      <use xlink:href="#DejaVuSans-Oblique-50" transform="translate(29.492188 0.765625)"/>
      <use xlink:href="#DejaVuSans-Oblique-44" transform="translate(89.794922 0.765625)"/>
      <use xlink:href="#DejaVuSans-Oblique-44" transform="translate(166.796875 0.765625)"/>
      <use xlink:href="#DejaVuSans-28" transform="translate(243.798828 0.765625)"/>
      <use xlink:href="#DejaVuSans-Bold-78" transform="translate(282.8125 0.765625)"/>
      <use xlink:href="#DejaVuSans-30" transform="translate(348.271484 39.046875) scale(0.7)"/>
      <use xlink:href="#DejaVuSans-Oblique-6d" transform="translate(348.271484 -26.578125) scale(0.7)"/>
      <use xlink:href="#DejaVuSans-Oblique-61" transform="translate(416.459961 -26.578125) scale(0.7)"/>
      <use xlink:href="#DejaVuSans-Oblique-78" transform="translate(459.355469 -26.578125) scale(0.7)"/>
      <use xlink:href="#DejaVuSans-29" transform="translate(503.515625 0.765625)"/>
     </g>
    </g>
    <g id="line2d_48">
     <path d="M 319.42 124.072 
L 329.42 124.072 
L 339.42 124.072 
" style="fill: none; stroke: #e31d1d; stroke-width: 1.5; stroke-linecap: square"/>
     <g>
      <use xlink:href="#md08c4c9d7d" x="329.42" y="124.072" style="fill: #e31d1d; stroke: #e31d1d"/>
     </g>
    </g>
    <g id="text_22">
     <!-- $GDPA(\mathbf{x}^0_{max})$ -->
     <g transform="translate(347.42 127.572) scale(0.1 -0.1)">
      <defs>
       <path id="DejaVuSans-Oblique-47" d="M 3494 697 
L 3738 1919 
L 2700 1919 
L 2797 2438 
L 4453 2438 
L 4050 384 
Q 3634 156 3143 32 
Q 2653 -91 2156 -91 
Q 1278 -91 783 396 
Q 288 884 288 1753 
Q 288 2475 589 3126 
Q 891 3778 1422 4213 
Q 1756 4484 2153 4617 
Q 2550 4750 3034 4750 
Q 3472 4750 3873 4639 
Q 4275 4528 4641 4306 
L 4513 3634 
Q 4231 3928 3853 4083 
Q 3475 4238 3047 4238 
Q 2550 4238 2172 4048 
Q 1794 3859 1497 3463 
Q 1244 3125 1098 2667 
Q 953 2209 953 1734 
Q 953 1081 1287 751 
Q 1622 422 2284 422 
Q 2616 422 2925 492 
Q 3234 563 3494 697 
z
" transform="scale(0.015625)"/>
       <path id="DejaVuSans-Oblique-41" d="M 2356 4666 
L 3072 4666 
L 3938 0 
L 3278 0 
L 3084 1197 
L 984 1197 
L 325 0 
L -341 0 
L 2356 4666 
z
M 2584 4044 
L 1275 1722 
L 2988 1722 
L 2584 4044 
z
" transform="scale(0.015625)"/>
      </defs>
      <use xlink:href="#DejaVuSans-Oblique-47" transform="translate(0 0.765625)"/>
      <use xlink:href="#DejaVuSans-Oblique-44" transform="translate(77.490234 0.765625)"/>
      <use xlink:href="#DejaVuSans-Oblique-50" transform="translate(154.492188 0.765625)"/>
      <use xlink:href="#DejaVuSans-Oblique-41" transform="translate(214.794922 0.765625)"/>
      <use xlink:href="#DejaVuSans-28" transform="translate(283.203125 0.765625)"/>
      <use xlink:href="#DejaVuSans-Bold-78" transform="translate(322.216797 0.765625)"/>
      <use xlink:href="#DejaVuSans-30" transform="translate(387.675781 39.046875) scale(0.7)"/>
      <use xlink:href="#DejaVuSans-Oblique-6d" transform="translate(387.675781 -26.578125) scale(0.7)"/>
      <use xlink:href="#DejaVuSans-Oblique-61" transform="translate(455.864258 -26.578125) scale(0.7)"/>
      <use xlink:href="#DejaVuSans-Oblique-78" transform="translate(498.759766 -26.578125) scale(0.7)"/>
      <use xlink:href="#DejaVuSans-29" transform="translate(542.919922 0.765625)"/>
     </g>
    </g>
    <g id="line2d_49">
     <path d="M 319.42 141.072 
L 329.42 141.072 
L 339.42 141.072 
" style="fill: none; stroke-dasharray: 1.5,15; stroke-dashoffset: 0; stroke: #df6f67; stroke-width: 1.5"/>
     <g>
      <use xlink:href="#mbfd93b73d1" x="329.42" y="141.072" style="fill: #df6f67; stroke: #df6f67"/>
     </g>
    </g>
    <g id="text_23">
     <!-- $GDPA(\mathbf{x}^0_1)$ -->
     <g transform="translate(347.42 144.572) scale(0.1 -0.1)">
      <use xlink:href="#DejaVuSans-Oblique-47" transform="translate(0 0.765625)"/>
      <use xlink:href="#DejaVuSans-Oblique-44" transform="translate(77.490234 0.765625)"/>
      <use xlink:href="#DejaVuSans-Oblique-50" transform="translate(154.492188 0.765625)"/>
      <use xlink:href="#DejaVuSans-Oblique-41" transform="translate(214.794922 0.765625)"/>
      <use xlink:href="#DejaVuSans-28" transform="translate(283.203125 0.765625)"/>
      <use xlink:href="#DejaVuSans-Bold-78" transform="translate(322.216797 0.765625)"/>
      <use xlink:href="#DejaVuSans-30" transform="translate(387.675781 39.046875) scale(0.7)"/>
      <use xlink:href="#DejaVuSans-31" transform="translate(387.675781 -26.578125) scale(0.7)"/>
      <use xlink:href="#DejaVuSans-29" transform="translate(434.946289 0.765625)"/>
     </g>
    </g>
    <g id="line2d_50">
     <path d="M 319.42 157.972 
L 329.42 157.972 
L 339.42 157.972 
" style="fill: none; stroke-dasharray: 7.5,15; stroke-dashoffset: 0; stroke: #dea39f; stroke-width: 1.5"/>
     <g>
      <use xlink:href="#m00a53869e3" x="329.42" y="157.972" style="fill: #dea39f; stroke: #dea39f"/>
     </g>
    </g>
    <g id="text_24">
     <!-- $GDPA(\mathbf{x}^0_2)$ -->
     <g transform="translate(347.42 161.472) scale(0.1 -0.1)">
      <use xlink:href="#DejaVuSans-Oblique-47" transform="translate(0 0.765625)"/>
      <use xlink:href="#DejaVuSans-Oblique-44" transform="translate(77.490234 0.765625)"/>
      <use xlink:href="#DejaVuSans-Oblique-50" transform="translate(154.492188 0.765625)"/>
      <use xlink:href="#DejaVuSans-Oblique-41" transform="translate(214.794922 0.765625)"/>
      <use xlink:href="#DejaVuSans-28" transform="translate(283.203125 0.765625)"/>
      <use xlink:href="#DejaVuSans-Bold-78" transform="translate(322.216797 0.765625)"/>
      <use xlink:href="#DejaVuSans-30" transform="translate(387.675781 39.046875) scale(0.7)"/>
      <use xlink:href="#DejaVuSans-32" transform="translate(387.675781 -26.578125) scale(0.7)"/>
      <use xlink:href="#DejaVuSans-29" transform="translate(434.946289 0.765625)"/>
     </g>
    </g>
    <g id="line2d_51">
     <path d="M 319.42 174.872 
L 329.42 174.872 
L 339.42 174.872 
" style="fill: none; stroke: #1c24dc; stroke-width: 1.5; stroke-linecap: square"/>
     <g>
      <use xlink:href="#m889398bf53" x="329.42" y="174.872" style="fill: #1c24dc; stroke: #1c24dc; stroke-linejoin: bevel"/>
     </g>
    </g>
    <g id="text_25">
     <!-- $PGA(\mathbf{x}^0_{max})$ -->
     <g transform="translate(347.42 178.372) scale(0.1 -0.1)">
      <use xlink:href="#DejaVuSans-Oblique-50" transform="translate(0 0.765625)"/>
      <use xlink:href="#DejaVuSans-Oblique-47" transform="translate(60.302734 0.765625)"/>
      <use xlink:href="#DejaVuSans-Oblique-41" transform="translate(137.792969 0.765625)"/>
      <use xlink:href="#DejaVuSans-28" transform="translate(206.201172 0.765625)"/>
      <use xlink:href="#DejaVuSans-Bold-78" transform="translate(245.214844 0.765625)"/>
      <use xlink:href="#DejaVuSans-30" transform="translate(310.673828 39.046875) scale(0.7)"/>
      <use xlink:href="#DejaVuSans-Oblique-6d" transform="translate(310.673828 -26.578125) scale(0.7)"/>
      <use xlink:href="#DejaVuSans-Oblique-61" transform="translate(378.862305 -26.578125) scale(0.7)"/>
      <use xlink:href="#DejaVuSans-Oblique-78" transform="translate(421.757812 -26.578125) scale(0.7)"/>
      <use xlink:href="#DejaVuSans-29" transform="translate(465.917969 0.765625)"/>
     </g>
    </g>
    <g id="line2d_52">
     <path d="M 319.42 191.872 
L 329.42 191.872 
L 339.42 191.872 
" style="fill: none; stroke-dasharray: 1.5,15; stroke-dashoffset: 0; stroke: #595fdc; stroke-width: 1.5"/>
     <g>
      <use xlink:href="#m80df23b625" x="329.42" y="191.872" style="fill: #595fdc; stroke: #595fdc; stroke-linejoin: bevel"/>
     </g>
    </g>
    <g id="text_26">
     <!-- $PGA(\mathbf{x}^0_1)$ -->
     <g transform="translate(347.42 195.372) scale(0.1 -0.1)">
      <use xlink:href="#DejaVuSans-Oblique-50" transform="translate(0 0.765625)"/>
      <use xlink:href="#DejaVuSans-Oblique-47" transform="translate(60.302734 0.765625)"/>
      <use xlink:href="#DejaVuSans-Oblique-41" transform="translate(137.792969 0.765625)"/>
      <use xlink:href="#DejaVuSans-28" transform="translate(206.201172 0.765625)"/>
      <use xlink:href="#DejaVuSans-Bold-78" transform="translate(245.214844 0.765625)"/>
      <use xlink:href="#DejaVuSans-30" transform="translate(310.673828 39.046875) scale(0.7)"/>
      <use xlink:href="#DejaVuSans-31" transform="translate(310.673828 -26.578125) scale(0.7)"/>
      <use xlink:href="#DejaVuSans-29" transform="translate(357.944336 0.765625)"/>
     </g>
    </g>
    <g id="line2d_53">
     <path d="M 319.42 208.772 
L 329.42 208.772 
L 339.42 208.772 
" style="fill: none; stroke-dasharray: 7.5,15; stroke-dashoffset: 0; stroke: #9598dc; stroke-width: 1.5"/>
     <g>
      <use xlink:href="#ma33eca9a53" x="329.42" y="208.772" style="fill: #9598dc; stroke: #9598dc; stroke-linejoin: bevel"/>
     </g>
    </g>
    <g id="text_27">
     <!-- $PGA(\mathbf{x}^0_2)$ -->
     <g transform="translate(347.42 212.272) scale(0.1 -0.1)">
      <use xlink:href="#DejaVuSans-Oblique-50" transform="translate(0 0.765625)"/>
      <use xlink:href="#DejaVuSans-Oblique-47" transform="translate(60.302734 0.765625)"/>
      <use xlink:href="#DejaVuSans-Oblique-41" transform="translate(137.792969 0.765625)"/>
      <use xlink:href="#DejaVuSans-28" transform="translate(206.201172 0.765625)"/>
      <use xlink:href="#DejaVuSans-Bold-78" transform="translate(245.214844 0.765625)"/>
      <use xlink:href="#DejaVuSans-30" transform="translate(310.673828 39.046875) scale(0.7)"/>
      <use xlink:href="#DejaVuSans-32" transform="translate(310.673828 -26.578125) scale(0.7)"/>
      <use xlink:href="#DejaVuSans-29" transform="translate(357.944336 0.765625)"/>
     </g>
    </g>
   </g>
  </g>
 </g>
 <defs>
  <clipPath id="p52b329a3e6">
   <rect x="57.6" y="41.472" width="357.12" height="266.112"/>
  </clipPath>
 </defs>
</svg>
