<?xml version="1.0" encoding="utf-8" standalone="no"?>
<!DOCTYPE svg PUBLIC "-//W3C//DTD SVG 1.1//EN"
  "http://www.w3.org/Graphics/SVG/1.1/DTD/svg11.dtd">
<svg xmlns:xlink="http://www.w3.org/1999/xlink" width="576pt" height="432pt" viewBox="0 0 576 432" xmlns="http://www.w3.org/2000/svg" version="1.1">
 <metadata>
  <rdf:RDF xmlns:dc="http://purl.org/dc/elements/1.1/" xmlns:cc="http://creativecommons.org/ns#" xmlns:rdf="http://www.w3.org/1999/02/22-rdf-syntax-ns#">
   <cc:Work>
    <dc:type rdf:resource="http://purl.org/dc/dcmitype/StillImage"/>
    <dc:date>2025-03-28T16:17:24.810746</dc:date>
    <dc:format>image/svg+xml</dc:format>
    <dc:creator>
     <cc:Agent>
      <dc:title>Matplotlib v3.7.1, https://matplotlib.org/</dc:title>
     </cc:Agent>
    </dc:creator>
   </cc:Work>
  </rdf:RDF>
 </metadata>
 <defs>
  <style type="text/css">*{stroke-linejoin: round; stroke-linecap: butt}</style>
 </defs>
 <g id="figure_1">
  <g id="patch_1">
   <path d="M 0 432 
L 576 432 
L 576 0 
L 0 0 
z
" style="fill: #ffffff"/>
  </g>
  <g id="axes_1">
   <g id="patch_2">
    <path d="M 72 384.48 
L 518.4 384.48 
L 518.4 51.84 
L 72 51.84 
z
" style="fill: #ffffff"/>
   </g>
   <g id="matplotlib.axis_1">
    <g id="xtick_1">
     <g id="line2d_1">
      <path d="M 72 384.48 
L 72 51.84 
" clip-path="url(#pf062de9765)" style="fill: none; stroke: #b0b0b0; stroke-width: 0.8; stroke-linecap: square"/>
     </g>
     <g id="line2d_2">
      <defs>
       <path id="mfb043b25e2" d="M 0 0 
L 0 3.5 
" style="stroke: #000000; stroke-width: 0.8"/>
      </defs>
      <g>
       <use xlink:href="#mfb043b25e2" x="72" y="384.48" style="stroke: #000000; stroke-width: 0.8"/>
      </g>
     </g>
     <g id="text_1">
      <!-- 0 -->
      <g transform="translate(67.54625 402.117813) scale(0.14 -0.14)">
       <defs>
        <path id="DejaVuSans-30" d="M 2034 4250 
Q 1547 4250 1301 3770 
Q 1056 3291 1056 2328 
Q 1056 1369 1301 889 
Q 1547 409 2034 409 
Q 2525 409 2770 889 
Q 3016 1369 3016 2328 
Q 3016 3291 2770 3770 
Q 2525 4250 2034 4250 
z
M 2034 4750 
Q 2819 4750 3233 4129 
Q 3647 3509 3647 2328 
Q 3647 1150 3233 529 
Q 2819 -91 2034 -91 
Q 1250 -91 836 529 
Q 422 1150 422 2328 
Q 422 3509 836 4129 
Q 1250 4750 2034 4750 
z
" transform="scale(0.015625)"/>
       </defs>
       <use xlink:href="#DejaVuSans-30"/>
      </g>
     </g>
    </g>
    <g id="xtick_2">
     <g id="line2d_3">
      <path d="M 161.28 384.48 
L 161.28 51.84 
" clip-path="url(#pf062de9765)" style="fill: none; stroke: #b0b0b0; stroke-width: 0.8; stroke-linecap: square"/>
     </g>
     <g id="line2d_4">
      <g>
       <use xlink:href="#mfb043b25e2" x="161.28" y="384.48" style="stroke: #000000; stroke-width: 0.8"/>
      </g>
     </g>
     <g id="text_2">
      <!-- 100 -->
      <g transform="translate(147.91875 402.117813) scale(0.14 -0.14)">
       <defs>
        <path id="DejaVuSans-31" d="M 794 531 
L 1825 531 
L 1825 4091 
L 703 3866 
L 703 4441 
L 1819 4666 
L 2450 4666 
L 2450 531 
L 3481 531 
L 3481 0 
L 794 0 
L 794 531 
z
" transform="scale(0.015625)"/>
       </defs>
       <use xlink:href="#DejaVuSans-31"/>
       <use xlink:href="#DejaVuSans-30" x="63.623047"/>
       <use xlink:href="#DejaVuSans-30" x="127.246094"/>
      </g>
     </g>
    </g>
    <g id="xtick_3">
     <g id="line2d_5">
      <path d="M 250.56 384.48 
L 250.56 51.84 
" clip-path="url(#pf062de9765)" style="fill: none; stroke: #b0b0b0; stroke-width: 0.8; stroke-linecap: square"/>
     </g>
     <g id="line2d_6">
      <g>
       <use xlink:href="#mfb043b25e2" x="250.56" y="384.48" style="stroke: #000000; stroke-width: 0.8"/>
      </g>
     </g>
     <g id="text_3">
      <!-- 200 -->
      <g transform="translate(237.19875 402.117813) scale(0.14 -0.14)">
       <defs>
        <path id="DejaVuSans-32" d="M 1228 531 
L 3431 531 
L 3431 0 
L 469 0 
L 469 531 
Q 828 903 1448 1529 
Q 2069 2156 2228 2338 
Q 2531 2678 2651 2914 
Q 2772 3150 2772 3378 
Q 2772 3750 2511 3984 
Q 2250 4219 1831 4219 
Q 1534 4219 1204 4116 
Q 875 4013 500 3803 
L 500 4441 
Q 881 4594 1212 4672 
Q 1544 4750 1819 4750 
Q 2544 4750 2975 4387 
Q 3406 4025 3406 3419 
Q 3406 3131 3298 2873 
Q 3191 2616 2906 2266 
Q 2828 2175 2409 1742 
Q 1991 1309 1228 531 
z
" transform="scale(0.015625)"/>
       </defs>
       <use xlink:href="#DejaVuSans-32"/>
       <use xlink:href="#DejaVuSans-30" x="63.623047"/>
       <use xlink:href="#DejaVuSans-30" x="127.246094"/>
      </g>
     </g>
    </g>
    <g id="xtick_4">
     <g id="line2d_7">
      <path d="M 339.84 384.48 
L 339.84 51.84 
" clip-path="url(#pf062de9765)" style="fill: none; stroke: #b0b0b0; stroke-width: 0.8; stroke-linecap: square"/>
     </g>
     <g id="line2d_8">
      <g>
       <use xlink:href="#mfb043b25e2" x="339.84" y="384.48" style="stroke: #000000; stroke-width: 0.8"/>
      </g>
     </g>
     <g id="text_4">
      <!-- 300 -->
      <g transform="translate(326.47875 402.117813) scale(0.14 -0.14)">
       <defs>
        <path id="DejaVuSans-33" d="M 2597 2516 
Q 3050 2419 3304 2112 
Q 3559 1806 3559 1356 
Q 3559 666 3084 287 
Q 2609 -91 1734 -91 
Q 1441 -91 1130 -33 
Q 819 25 488 141 
L 488 750 
Q 750 597 1062 519 
Q 1375 441 1716 441 
Q 2309 441 2620 675 
Q 2931 909 2931 1356 
Q 2931 1769 2642 2001 
Q 2353 2234 1838 2234 
L 1294 2234 
L 1294 2753 
L 1863 2753 
Q 2328 2753 2575 2939 
Q 2822 3125 2822 3475 
Q 2822 3834 2567 4026 
Q 2313 4219 1838 4219 
Q 1578 4219 1281 4162 
Q 984 4106 628 3988 
L 628 4550 
Q 988 4650 1302 4700 
Q 1616 4750 1894 4750 
Q 2613 4750 3031 4423 
Q 3450 4097 3450 3541 
Q 3450 3153 3228 2886 
Q 3006 2619 2597 2516 
z
" transform="scale(0.015625)"/>
       </defs>
       <use xlink:href="#DejaVuSans-33"/>
       <use xlink:href="#DejaVuSans-30" x="63.623047"/>
       <use xlink:href="#DejaVuSans-30" x="127.246094"/>
      </g>
     </g>
    </g>
    <g id="xtick_5">
     <g id="line2d_9">
      <path d="M 429.12 384.48 
L 429.12 51.84 
" clip-path="url(#pf062de9765)" style="fill: none; stroke: #b0b0b0; stroke-width: 0.8; stroke-linecap: square"/>
     </g>
     <g id="line2d_10">
      <g>
       <use xlink:href="#mfb043b25e2" x="429.12" y="384.48" style="stroke: #000000; stroke-width: 0.8"/>
      </g>
     </g>
     <g id="text_5">
      <!-- 400 -->
      <g transform="translate(415.75875 402.117813) scale(0.14 -0.14)">
       <defs>
        <path id="DejaVuSans-34" d="M 2419 4116 
L 825 1625 
L 2419 1625 
L 2419 4116 
z
M 2253 4666 
L 3047 4666 
L 3047 1625 
L 3713 1625 
L 3713 1100 
L 3047 1100 
L 3047 0 
L 2419 0 
L 2419 1100 
L 313 1100 
L 313 1709 
L 2253 4666 
z
" transform="scale(0.015625)"/>
       </defs>
       <use xlink:href="#DejaVuSans-34"/>
       <use xlink:href="#DejaVuSans-30" x="63.623047"/>
       <use xlink:href="#DejaVuSans-30" x="127.246094"/>
      </g>
     </g>
    </g>
    <g id="xtick_6">
     <g id="line2d_11">
      <path d="M 518.4 384.48 
L 518.4 51.84 
" clip-path="url(#pf062de9765)" style="fill: none; stroke: #b0b0b0; stroke-width: 0.8; stroke-linecap: square"/>
     </g>
     <g id="line2d_12">
      <g>
       <use xlink:href="#mfb043b25e2" x="518.4" y="384.48" style="stroke: #000000; stroke-width: 0.8"/>
      </g>
     </g>
     <g id="text_6">
      <!-- 500 -->
      <g transform="translate(505.03875 402.117813) scale(0.14 -0.14)">
       <defs>
        <path id="DejaVuSans-35" d="M 691 4666 
L 3169 4666 
L 3169 4134 
L 1269 4134 
L 1269 2991 
Q 1406 3038 1543 3061 
Q 1681 3084 1819 3084 
Q 2600 3084 3056 2656 
Q 3513 2228 3513 1497 
Q 3513 744 3044 326 
Q 2575 -91 1722 -91 
Q 1428 -91 1123 -41 
Q 819 9 494 109 
L 494 744 
Q 775 591 1075 516 
Q 1375 441 1709 441 
Q 2250 441 2565 725 
Q 2881 1009 2881 1497 
Q 2881 1984 2565 2268 
Q 2250 2553 1709 2553 
Q 1456 2553 1204 2497 
Q 953 2441 691 2322 
L 691 4666 
z
" transform="scale(0.015625)"/>
       </defs>
       <use xlink:href="#DejaVuSans-35"/>
       <use xlink:href="#DejaVuSans-30" x="63.623047"/>
       <use xlink:href="#DejaVuSans-30" x="127.246094"/>
      </g>
     </g>
    </g>
    <g id="text_7">
     <!-- Computational time [s] -->
     <g transform="translate(191.161406 422.706563) scale(0.18 -0.18)">
      <defs>
       <path id="DejaVuSans-43" d="M 4122 4306 
L 4122 3641 
Q 3803 3938 3442 4084 
Q 3081 4231 2675 4231 
Q 1875 4231 1450 3742 
Q 1025 3253 1025 2328 
Q 1025 1406 1450 917 
Q 1875 428 2675 428 
Q 3081 428 3442 575 
Q 3803 722 4122 1019 
L 4122 359 
Q 3791 134 3420 21 
Q 3050 -91 2638 -91 
Q 1578 -91 968 557 
Q 359 1206 359 2328 
Q 359 3453 968 4101 
Q 1578 4750 2638 4750 
Q 3056 4750 3426 4639 
Q 3797 4528 4122 4306 
z
" transform="scale(0.015625)"/>
       <path id="DejaVuSans-6f" d="M 1959 3097 
Q 1497 3097 1228 2736 
Q 959 2375 959 1747 
Q 959 1119 1226 758 
Q 1494 397 1959 397 
Q 2419 397 2687 759 
Q 2956 1122 2956 1747 
Q 2956 2369 2687 2733 
Q 2419 3097 1959 3097 
z
M 1959 3584 
Q 2709 3584 3137 3096 
Q 3566 2609 3566 1747 
Q 3566 888 3137 398 
Q 2709 -91 1959 -91 
Q 1206 -91 779 398 
Q 353 888 353 1747 
Q 353 2609 779 3096 
Q 1206 3584 1959 3584 
z
" transform="scale(0.015625)"/>
       <path id="DejaVuSans-6d" d="M 3328 2828 
Q 3544 3216 3844 3400 
Q 4144 3584 4550 3584 
Q 5097 3584 5394 3201 
Q 5691 2819 5691 2113 
L 5691 0 
L 5113 0 
L 5113 2094 
Q 5113 2597 4934 2840 
Q 4756 3084 4391 3084 
Q 3944 3084 3684 2787 
Q 3425 2491 3425 1978 
L 3425 0 
L 2847 0 
L 2847 2094 
Q 2847 2600 2669 2842 
Q 2491 3084 2119 3084 
Q 1678 3084 1418 2786 
Q 1159 2488 1159 1978 
L 1159 0 
L 581 0 
L 581 3500 
L 1159 3500 
L 1159 2956 
Q 1356 3278 1631 3431 
Q 1906 3584 2284 3584 
Q 2666 3584 2933 3390 
Q 3200 3197 3328 2828 
z
" transform="scale(0.015625)"/>
       <path id="DejaVuSans-70" d="M 1159 525 
L 1159 -1331 
L 581 -1331 
L 581 3500 
L 1159 3500 
L 1159 2969 
Q 1341 3281 1617 3432 
Q 1894 3584 2278 3584 
Q 2916 3584 3314 3078 
Q 3713 2572 3713 1747 
Q 3713 922 3314 415 
Q 2916 -91 2278 -91 
Q 1894 -91 1617 61 
Q 1341 213 1159 525 
z
M 3116 1747 
Q 3116 2381 2855 2742 
Q 2594 3103 2138 3103 
Q 1681 3103 1420 2742 
Q 1159 2381 1159 1747 
Q 1159 1113 1420 752 
Q 1681 391 2138 391 
Q 2594 391 2855 752 
Q 3116 1113 3116 1747 
z
" transform="scale(0.015625)"/>
       <path id="DejaVuSans-75" d="M 544 1381 
L 544 3500 
L 1119 3500 
L 1119 1403 
Q 1119 906 1312 657 
Q 1506 409 1894 409 
Q 2359 409 2629 706 
Q 2900 1003 2900 1516 
L 2900 3500 
L 3475 3500 
L 3475 0 
L 2900 0 
L 2900 538 
Q 2691 219 2414 64 
Q 2138 -91 1772 -91 
Q 1169 -91 856 284 
Q 544 659 544 1381 
z
M 1991 3584 
L 1991 3584 
z
" transform="scale(0.015625)"/>
       <path id="DejaVuSans-74" d="M 1172 4494 
L 1172 3500 
L 2356 3500 
L 2356 3053 
L 1172 3053 
L 1172 1153 
Q 1172 725 1289 603 
Q 1406 481 1766 481 
L 2356 481 
L 2356 0 
L 1766 0 
Q 1100 0 847 248 
Q 594 497 594 1153 
L 594 3053 
L 172 3053 
L 172 3500 
L 594 3500 
L 594 4494 
L 1172 4494 
z
" transform="scale(0.015625)"/>
       <path id="DejaVuSans-61" d="M 2194 1759 
Q 1497 1759 1228 1600 
Q 959 1441 959 1056 
Q 959 750 1161 570 
Q 1363 391 1709 391 
Q 2188 391 2477 730 
Q 2766 1069 2766 1631 
L 2766 1759 
L 2194 1759 
z
M 3341 1997 
L 3341 0 
L 2766 0 
L 2766 531 
Q 2569 213 2275 61 
Q 1981 -91 1556 -91 
Q 1019 -91 701 211 
Q 384 513 384 1019 
Q 384 1609 779 1909 
Q 1175 2209 1959 2209 
L 2766 2209 
L 2766 2266 
Q 2766 2663 2505 2880 
Q 2244 3097 1772 3097 
Q 1472 3097 1187 3025 
Q 903 2953 641 2809 
L 641 3341 
Q 956 3463 1253 3523 
Q 1550 3584 1831 3584 
Q 2591 3584 2966 3190 
Q 3341 2797 3341 1997 
z
" transform="scale(0.015625)"/>
       <path id="DejaVuSans-69" d="M 603 3500 
L 1178 3500 
L 1178 0 
L 603 0 
L 603 3500 
z
M 603 4863 
L 1178 4863 
L 1178 4134 
L 603 4134 
L 603 4863 
z
" transform="scale(0.015625)"/>
       <path id="DejaVuSans-6e" d="M 3513 2113 
L 3513 0 
L 2938 0 
L 2938 2094 
Q 2938 2591 2744 2837 
Q 2550 3084 2163 3084 
Q 1697 3084 1428 2787 
Q 1159 2491 1159 1978 
L 1159 0 
L 581 0 
L 581 3500 
L 1159 3500 
L 1159 2956 
Q 1366 3272 1645 3428 
Q 1925 3584 2291 3584 
Q 2894 3584 3203 3211 
Q 3513 2838 3513 2113 
z
" transform="scale(0.015625)"/>
       <path id="DejaVuSans-6c" d="M 603 4863 
L 1178 4863 
L 1178 0 
L 603 0 
L 603 4863 
z
" transform="scale(0.015625)"/>
       <path id="DejaVuSans-20" transform="scale(0.015625)"/>
       <path id="DejaVuSans-65" d="M 3597 1894 
L 3597 1613 
L 953 1613 
Q 991 1019 1311 708 
Q 1631 397 2203 397 
Q 2534 397 2845 478 
Q 3156 559 3463 722 
L 3463 178 
Q 3153 47 2828 -22 
Q 2503 -91 2169 -91 
Q 1331 -91 842 396 
Q 353 884 353 1716 
Q 353 2575 817 3079 
Q 1281 3584 2069 3584 
Q 2775 3584 3186 3129 
Q 3597 2675 3597 1894 
z
M 3022 2063 
Q 3016 2534 2758 2815 
Q 2500 3097 2075 3097 
Q 1594 3097 1305 2825 
Q 1016 2553 972 2059 
L 3022 2063 
z
" transform="scale(0.015625)"/>
       <path id="DejaVuSans-5b" d="M 550 4863 
L 1875 4863 
L 1875 4416 
L 1125 4416 
L 1125 -397 
L 1875 -397 
L 1875 -844 
L 550 -844 
L 550 4863 
z
" transform="scale(0.015625)"/>
       <path id="DejaVuSans-73" d="M 2834 3397 
L 2834 2853 
Q 2591 2978 2328 3040 
Q 2066 3103 1784 3103 
Q 1356 3103 1142 2972 
Q 928 2841 928 2578 
Q 928 2378 1081 2264 
Q 1234 2150 1697 2047 
L 1894 2003 
Q 2506 1872 2764 1633 
Q 3022 1394 3022 966 
Q 3022 478 2636 193 
Q 2250 -91 1575 -91 
Q 1294 -91 989 -36 
Q 684 19 347 128 
L 347 722 
Q 666 556 975 473 
Q 1284 391 1588 391 
Q 1994 391 2212 530 
Q 2431 669 2431 922 
Q 2431 1156 2273 1281 
Q 2116 1406 1581 1522 
L 1381 1569 
Q 847 1681 609 1914 
Q 372 2147 372 2553 
Q 372 3047 722 3315 
Q 1072 3584 1716 3584 
Q 2034 3584 2315 3537 
Q 2597 3491 2834 3397 
z
" transform="scale(0.015625)"/>
       <path id="DejaVuSans-5d" d="M 1947 4863 
L 1947 -844 
L 622 -844 
L 622 -397 
L 1369 -397 
L 1369 4416 
L 622 4416 
L 622 4863 
L 1947 4863 
z
" transform="scale(0.015625)"/>
      </defs>
      <use xlink:href="#DejaVuSans-43"/>
      <use xlink:href="#DejaVuSans-6f" x="69.824219"/>
      <use xlink:href="#DejaVuSans-6d" x="131.005859"/>
      <use xlink:href="#DejaVuSans-70" x="228.417969"/>
      <use xlink:href="#DejaVuSans-75" x="291.894531"/>
      <use xlink:href="#DejaVuSans-74" x="355.273438"/>
      <use xlink:href="#DejaVuSans-61" x="394.482422"/>
      <use xlink:href="#DejaVuSans-74" x="455.761719"/>
      <use xlink:href="#DejaVuSans-69" x="494.970703"/>
      <use xlink:href="#DejaVuSans-6f" x="522.753906"/>
      <use xlink:href="#DejaVuSans-6e" x="583.935547"/>
      <use xlink:href="#DejaVuSans-61" x="647.314453"/>
      <use xlink:href="#DejaVuSans-6c" x="708.59375"/>
      <use xlink:href="#DejaVuSans-20" x="736.376953"/>
      <use xlink:href="#DejaVuSans-74" x="768.164062"/>
      <use xlink:href="#DejaVuSans-69" x="807.373047"/>
      <use xlink:href="#DejaVuSans-6d" x="835.15625"/>
      <use xlink:href="#DejaVuSans-65" x="932.568359"/>
      <use xlink:href="#DejaVuSans-20" x="994.091797"/>
      <use xlink:href="#DejaVuSans-5b" x="1025.878906"/>
      <use xlink:href="#DejaVuSans-73" x="1064.892578"/>
      <use xlink:href="#DejaVuSans-5d" x="1116.992188"/>
     </g>
    </g>
   </g>
   <g id="matplotlib.axis_2">
    <g id="ytick_1">
     <g id="line2d_13">
      <path d="M 72 384.48 
L 518.4 384.48 
" clip-path="url(#pf062de9765)" style="fill: none; stroke: #b0b0b0; stroke-width: 0.8; stroke-linecap: square"/>
     </g>
     <g id="line2d_14">
      <defs>
       <path id="m8baaf87c0e" d="M 0 0 
L -3.5 0 
" style="stroke: #000000; stroke-width: 0.8"/>
      </defs>
      <g>
       <use xlink:href="#m8baaf87c0e" x="72" y="384.48" style="stroke: #000000; stroke-width: 0.8"/>
      </g>
     </g>
     <g id="text_8">
      <!-- −60 -->
      <g transform="translate(35.453437 389.798906) scale(0.14 -0.14)">
       <defs>
        <path id="DejaVuSans-2212" d="M 678 2272 
L 4684 2272 
L 4684 1741 
L 678 1741 
L 678 2272 
z
" transform="scale(0.015625)"/>
        <path id="DejaVuSans-36" d="M 2113 2584 
Q 1688 2584 1439 2293 
Q 1191 2003 1191 1497 
Q 1191 994 1439 701 
Q 1688 409 2113 409 
Q 2538 409 2786 701 
Q 3034 994 3034 1497 
Q 3034 2003 2786 2293 
Q 2538 2584 2113 2584 
z
M 3366 4563 
L 3366 3988 
Q 3128 4100 2886 4159 
Q 2644 4219 2406 4219 
Q 1781 4219 1451 3797 
Q 1122 3375 1075 2522 
Q 1259 2794 1537 2939 
Q 1816 3084 2150 3084 
Q 2853 3084 3261 2657 
Q 3669 2231 3669 1497 
Q 3669 778 3244 343 
Q 2819 -91 2113 -91 
Q 1303 -91 875 529 
Q 447 1150 447 2328 
Q 447 3434 972 4092 
Q 1497 4750 2381 4750 
Q 2619 4750 2861 4703 
Q 3103 4656 3366 4563 
z
" transform="scale(0.015625)"/>
       </defs>
       <use xlink:href="#DejaVuSans-2212"/>
       <use xlink:href="#DejaVuSans-36" x="83.789062"/>
       <use xlink:href="#DejaVuSans-30" x="147.412109"/>
      </g>
     </g>
    </g>
    <g id="ytick_2">
     <g id="line2d_15">
      <path d="M 72 317.952 
L 518.4 317.952 
" clip-path="url(#pf062de9765)" style="fill: none; stroke: #b0b0b0; stroke-width: 0.8; stroke-linecap: square"/>
     </g>
     <g id="line2d_16">
      <g>
       <use xlink:href="#m8baaf87c0e" x="72" y="317.952" style="stroke: #000000; stroke-width: 0.8"/>
      </g>
     </g>
     <g id="text_9">
      <!-- −40 -->
      <g transform="translate(35.453437 323.270906) scale(0.14 -0.14)">
       <use xlink:href="#DejaVuSans-2212"/>
       <use xlink:href="#DejaVuSans-34" x="83.789062"/>
       <use xlink:href="#DejaVuSans-30" x="147.412109"/>
      </g>
     </g>
    </g>
    <g id="ytick_3">
     <g id="line2d_17">
      <path d="M 72 251.424 
L 518.4 251.424 
" clip-path="url(#pf062de9765)" style="fill: none; stroke: #b0b0b0; stroke-width: 0.8; stroke-linecap: square"/>
     </g>
     <g id="line2d_18">
      <g>
       <use xlink:href="#m8baaf87c0e" x="72" y="251.424" style="stroke: #000000; stroke-width: 0.8"/>
      </g>
     </g>
     <g id="text_10">
      <!-- −20 -->
      <g transform="translate(35.453437 256.742906) scale(0.14 -0.14)">
       <use xlink:href="#DejaVuSans-2212"/>
       <use xlink:href="#DejaVuSans-32" x="83.789062"/>
       <use xlink:href="#DejaVuSans-30" x="147.412109"/>
      </g>
     </g>
    </g>
    <g id="ytick_4">
     <g id="line2d_19">
      <path d="M 72 184.896 
L 518.4 184.896 
" clip-path="url(#pf062de9765)" style="fill: none; stroke: #b0b0b0; stroke-width: 0.8; stroke-linecap: square"/>
     </g>
     <g id="line2d_20">
      <g>
       <use xlink:href="#m8baaf87c0e" x="72" y="184.896" style="stroke: #000000; stroke-width: 0.8"/>
      </g>
     </g>
     <g id="text_11">
      <!-- 0 -->
      <g transform="translate(56.0925 190.214906) scale(0.14 -0.14)">
       <use xlink:href="#DejaVuSans-30"/>
      </g>
     </g>
    </g>
    <g id="ytick_5">
     <g id="line2d_21">
      <path d="M 72 118.368 
L 518.4 118.368 
" clip-path="url(#pf062de9765)" style="fill: none; stroke: #b0b0b0; stroke-width: 0.8; stroke-linecap: square"/>
     </g>
     <g id="line2d_22">
      <g>
       <use xlink:href="#m8baaf87c0e" x="72" y="118.368" style="stroke: #000000; stroke-width: 0.8"/>
      </g>
     </g>
     <g id="text_12">
      <!-- 20 -->
      <g transform="translate(47.185 123.686906) scale(0.14 -0.14)">
       <use xlink:href="#DejaVuSans-32"/>
       <use xlink:href="#DejaVuSans-30" x="63.623047"/>
      </g>
     </g>
    </g>
    <g id="ytick_6">
     <g id="line2d_23">
      <path d="M 72 51.84 
L 518.4 51.84 
" clip-path="url(#pf062de9765)" style="fill: none; stroke: #b0b0b0; stroke-width: 0.8; stroke-linecap: square"/>
     </g>
     <g id="line2d_24">
      <g>
       <use xlink:href="#m8baaf87c0e" x="72" y="51.84" style="stroke: #000000; stroke-width: 0.8"/>
      </g>
     </g>
     <g id="text_13">
      <!-- 40 -->
      <g transform="translate(47.185 57.158906) scale(0.14 -0.14)">
       <use xlink:href="#DejaVuSans-34"/>
       <use xlink:href="#DejaVuSans-30" x="63.623047"/>
      </g>
     </g>
    </g>
    <g id="text_14">
     <!-- Objective value -->
     <g transform="translate(27.71 288.282656) rotate(-90) scale(0.18 -0.18)">
      <defs>
       <path id="DejaVuSans-4f" d="M 2522 4238 
Q 1834 4238 1429 3725 
Q 1025 3213 1025 2328 
Q 1025 1447 1429 934 
Q 1834 422 2522 422 
Q 3209 422 3611 934 
Q 4013 1447 4013 2328 
Q 4013 3213 3611 3725 
Q 3209 4238 2522 4238 
z
M 2522 4750 
Q 3503 4750 4090 4092 
Q 4678 3434 4678 2328 
Q 4678 1225 4090 567 
Q 3503 -91 2522 -91 
Q 1538 -91 948 565 
Q 359 1222 359 2328 
Q 359 3434 948 4092 
Q 1538 4750 2522 4750 
z
" transform="scale(0.015625)"/>
       <path id="DejaVuSans-62" d="M 3116 1747 
Q 3116 2381 2855 2742 
Q 2594 3103 2138 3103 
Q 1681 3103 1420 2742 
Q 1159 2381 1159 1747 
Q 1159 1113 1420 752 
Q 1681 391 2138 391 
Q 2594 391 2855 752 
Q 3116 1113 3116 1747 
z
M 1159 2969 
Q 1341 3281 1617 3432 
Q 1894 3584 2278 3584 
Q 2916 3584 3314 3078 
Q 3713 2572 3713 1747 
Q 3713 922 3314 415 
Q 2916 -91 2278 -91 
Q 1894 -91 1617 61 
Q 1341 213 1159 525 
L 1159 0 
L 581 0 
L 581 4863 
L 1159 4863 
L 1159 2969 
z
" transform="scale(0.015625)"/>
       <path id="DejaVuSans-6a" d="M 603 3500 
L 1178 3500 
L 1178 -63 
Q 1178 -731 923 -1031 
Q 669 -1331 103 -1331 
L -116 -1331 
L -116 -844 
L 38 -844 
Q 366 -844 484 -692 
Q 603 -541 603 -63 
L 603 3500 
z
M 603 4863 
L 1178 4863 
L 1178 4134 
L 603 4134 
L 603 4863 
z
" transform="scale(0.015625)"/>
       <path id="DejaVuSans-63" d="M 3122 3366 
L 3122 2828 
Q 2878 2963 2633 3030 
Q 2388 3097 2138 3097 
Q 1578 3097 1268 2742 
Q 959 2388 959 1747 
Q 959 1106 1268 751 
Q 1578 397 2138 397 
Q 2388 397 2633 464 
Q 2878 531 3122 666 
L 3122 134 
Q 2881 22 2623 -34 
Q 2366 -91 2075 -91 
Q 1284 -91 818 406 
Q 353 903 353 1747 
Q 353 2603 823 3093 
Q 1294 3584 2113 3584 
Q 2378 3584 2631 3529 
Q 2884 3475 3122 3366 
z
" transform="scale(0.015625)"/>
       <path id="DejaVuSans-76" d="M 191 3500 
L 800 3500 
L 1894 563 
L 2988 3500 
L 3597 3500 
L 2284 0 
L 1503 0 
L 191 3500 
z
" transform="scale(0.015625)"/>
      </defs>
      <use xlink:href="#DejaVuSans-4f"/>
      <use xlink:href="#DejaVuSans-62" x="78.710938"/>
      <use xlink:href="#DejaVuSans-6a" x="142.1875"/>
      <use xlink:href="#DejaVuSans-65" x="169.970703"/>
      <use xlink:href="#DejaVuSans-63" x="231.494141"/>
      <use xlink:href="#DejaVuSans-74" x="286.474609"/>
      <use xlink:href="#DejaVuSans-69" x="325.683594"/>
      <use xlink:href="#DejaVuSans-76" x="353.466797"/>
      <use xlink:href="#DejaVuSans-65" x="412.646484"/>
      <use xlink:href="#DejaVuSans-20" x="474.169922"/>
      <use xlink:href="#DejaVuSans-76" x="505.957031"/>
      <use xlink:href="#DejaVuSans-61" x="565.136719"/>
      <use xlink:href="#DejaVuSans-6c" x="626.416016"/>
      <use xlink:href="#DejaVuSans-75" x="654.199219"/>
      <use xlink:href="#DejaVuSans-65" x="717.578125"/>
     </g>
    </g>
   </g>
   <g id="line2d_25">
    <path d="M 72.064347 24.50365 
L 91.6543 206.135782 
L 109.78994 205.954332 
L 129.604119 205.86415 
L 147.090425 205.806471 
L 164.956298 205.765028 
L 182.08862 205.733185 
L 199.270825 205.707603 
L 216.499273 205.686393 
L 234.058149 205.668362 
L 252.20144 205.652792 
L 270.918827 205.639132 
L 287.992615 205.627014 
L 305.684262 205.61614 
L 323.348016 205.606312 
L 341.579247 205.597353 
L 359.017575 205.58915 
L 375.95952 205.5816 
L 393.014673 205.574601 
L 410.371515 205.568098 
L 428.157711 205.562026 
L 446.14343 205.556342 
L 463.244223 205.551 
L 480.36905 205.545968 
L 497.760681 205.541216 
L 518.365661 205.536711 
L 518.400429 205.536705 
" clip-path="url(#pf062de9765)" style="fill: none; stroke: #e31d1d; stroke-width: 1.5; stroke-linecap: square"/>
    <defs>
     <path id="m17880bbb4c" d="M 0 3.5 
C 0.928211 3.5 1.81853 3.131218 2.474874 2.474874 
C 3.131218 1.81853 3.5 0.928211 3.5 0 
C 3.5 -0.928211 3.131218 -1.81853 2.474874 -2.474874 
C 1.81853 -3.131218 0.928211 -3.5 0 -3.5 
C -0.928211 -3.5 -1.81853 -3.131218 -2.474874 -2.474874 
C -3.131218 -1.81853 -3.5 -0.928211 -3.5 0 
C -3.5 0.928211 -3.131218 1.81853 -2.474874 2.474874 
C -1.81853 3.131218 -0.928211 3.5 0 3.5 
z
" style="stroke: #e31d1d"/>
    </defs>
    <g clip-path="url(#pf062de9765)">
     <use xlink:href="#m17880bbb4c" x="72.064347" y="24.50365" style="fill: #e31d1d; stroke: #e31d1d"/>
     <use xlink:href="#m17880bbb4c" x="91.6543" y="206.135782" style="fill: #e31d1d; stroke: #e31d1d"/>
     <use xlink:href="#m17880bbb4c" x="109.78994" y="205.954332" style="fill: #e31d1d; stroke: #e31d1d"/>
     <use xlink:href="#m17880bbb4c" x="129.604119" y="205.86415" style="fill: #e31d1d; stroke: #e31d1d"/>
     <use xlink:href="#m17880bbb4c" x="147.090425" y="205.806471" style="fill: #e31d1d; stroke: #e31d1d"/>
     <use xlink:href="#m17880bbb4c" x="164.956298" y="205.765028" style="fill: #e31d1d; stroke: #e31d1d"/>
     <use xlink:href="#m17880bbb4c" x="182.08862" y="205.733185" style="fill: #e31d1d; stroke: #e31d1d"/>
     <use xlink:href="#m17880bbb4c" x="199.270825" y="205.707603" style="fill: #e31d1d; stroke: #e31d1d"/>
     <use xlink:href="#m17880bbb4c" x="216.499273" y="205.686393" style="fill: #e31d1d; stroke: #e31d1d"/>
     <use xlink:href="#m17880bbb4c" x="234.058149" y="205.668362" style="fill: #e31d1d; stroke: #e31d1d"/>
     <use xlink:href="#m17880bbb4c" x="252.20144" y="205.652792" style="fill: #e31d1d; stroke: #e31d1d"/>
     <use xlink:href="#m17880bbb4c" x="270.918827" y="205.639132" style="fill: #e31d1d; stroke: #e31d1d"/>
     <use xlink:href="#m17880bbb4c" x="287.992615" y="205.627014" style="fill: #e31d1d; stroke: #e31d1d"/>
     <use xlink:href="#m17880bbb4c" x="305.684262" y="205.61614" style="fill: #e31d1d; stroke: #e31d1d"/>
     <use xlink:href="#m17880bbb4c" x="323.348016" y="205.606312" style="fill: #e31d1d; stroke: #e31d1d"/>
     <use xlink:href="#m17880bbb4c" x="341.579247" y="205.597353" style="fill: #e31d1d; stroke: #e31d1d"/>
     <use xlink:href="#m17880bbb4c" x="359.017575" y="205.58915" style="fill: #e31d1d; stroke: #e31d1d"/>
     <use xlink:href="#m17880bbb4c" x="375.95952" y="205.5816" style="fill: #e31d1d; stroke: #e31d1d"/>
     <use xlink:href="#m17880bbb4c" x="393.014673" y="205.574601" style="fill: #e31d1d; stroke: #e31d1d"/>
     <use xlink:href="#m17880bbb4c" x="410.371515" y="205.568098" style="fill: #e31d1d; stroke: #e31d1d"/>
     <use xlink:href="#m17880bbb4c" x="428.157711" y="205.562026" style="fill: #e31d1d; stroke: #e31d1d"/>
     <use xlink:href="#m17880bbb4c" x="446.14343" y="205.556342" style="fill: #e31d1d; stroke: #e31d1d"/>
     <use xlink:href="#m17880bbb4c" x="463.244223" y="205.551" style="fill: #e31d1d; stroke: #e31d1d"/>
     <use xlink:href="#m17880bbb4c" x="480.36905" y="205.545968" style="fill: #e31d1d; stroke: #e31d1d"/>
     <use xlink:href="#m17880bbb4c" x="497.760681" y="205.541216" style="fill: #e31d1d; stroke: #e31d1d"/>
     <use xlink:href="#m17880bbb4c" x="518.365661" y="205.536711" style="fill: #e31d1d; stroke: #e31d1d"/>
     <use xlink:href="#m17880bbb4c" x="518.400429" y="205.536705" style="fill: #e31d1d; stroke: #e31d1d"/>
    </g>
   </g>
   <g id="line2d_26">
    <path d="M 72.010664 23.515706 
L 86.752426 206.195345 
L 104.832217 206.0029 
L 125.018932 205.907205 
L 144.964777 205.845986 
L 169.736552 205.801979 
L 190.12568 205.768163 
L 209.009861 205.740963 
L 226.99709 205.718427 
L 246.981808 205.699292 
L 264.994126 205.682745 
L 280.804086 205.668203 
L 300.211798 205.655311 
L 319.374671 205.643751 
L 339.422822 205.633302 
L 357.273204 205.623778 
L 374.689753 205.615061 
L 391.451829 205.607022 
L 408.4855 205.59958 
L 424.98638 205.592658 
L 440.702871 205.586199 
L 457.293831 205.580153 
L 473.433132 205.574475 
L 489.012967 205.56912 
L 503.710601 205.564057 
L 518.265184 205.559267 
L 518.404905 205.559228 
" clip-path="url(#pf062de9765)" style="fill: none; stroke-dasharray: 4.5,1.5,1.5,1.5,1.5,1.5; stroke-dashoffset: 0; stroke: #36ff33; stroke-width: 1.5"/>
    <defs>
     <path id="m37632e748b" d="M 0 -3.5 
L -3.5 3.5 
L 3.5 3.5 
z
" style="stroke: #36ff33; stroke-linejoin: miter"/>
    </defs>
    <g clip-path="url(#pf062de9765)">
     <use xlink:href="#m37632e748b" x="72.010664" y="23.515706" style="fill: #36ff33; stroke: #36ff33; stroke-linejoin: miter"/>
     <use xlink:href="#m37632e748b" x="86.752426" y="206.195345" style="fill: #36ff33; stroke: #36ff33; stroke-linejoin: miter"/>
     <use xlink:href="#m37632e748b" x="104.832217" y="206.0029" style="fill: #36ff33; stroke: #36ff33; stroke-linejoin: miter"/>
     <use xlink:href="#m37632e748b" x="125.018932" y="205.907205" style="fill: #36ff33; stroke: #36ff33; stroke-linejoin: miter"/>
     <use xlink:href="#m37632e748b" x="144.964777" y="205.845986" style="fill: #36ff33; stroke: #36ff33; stroke-linejoin: miter"/>
     <use xlink:href="#m37632e748b" x="169.736552" y="205.801979" style="fill: #36ff33; stroke: #36ff33; stroke-linejoin: miter"/>
     <use xlink:href="#m37632e748b" x="190.12568" y="205.768163" style="fill: #36ff33; stroke: #36ff33; stroke-linejoin: miter"/>
     <use xlink:href="#m37632e748b" x="209.009861" y="205.740963" style="fill: #36ff33; stroke: #36ff33; stroke-linejoin: miter"/>
     <use xlink:href="#m37632e748b" x="226.99709" y="205.718427" style="fill: #36ff33; stroke: #36ff33; stroke-linejoin: miter"/>
     <use xlink:href="#m37632e748b" x="246.981808" y="205.699292" style="fill: #36ff33; stroke: #36ff33; stroke-linejoin: miter"/>
     <use xlink:href="#m37632e748b" x="264.994126" y="205.682745" style="fill: #36ff33; stroke: #36ff33; stroke-linejoin: miter"/>
     <use xlink:href="#m37632e748b" x="280.804086" y="205.668203" style="fill: #36ff33; stroke: #36ff33; stroke-linejoin: miter"/>
     <use xlink:href="#m37632e748b" x="300.211798" y="205.655311" style="fill: #36ff33; stroke: #36ff33; stroke-linejoin: miter"/>
     <use xlink:href="#m37632e748b" x="319.374671" y="205.643751" style="fill: #36ff33; stroke: #36ff33; stroke-linejoin: miter"/>
     <use xlink:href="#m37632e748b" x="339.422822" y="205.633302" style="fill: #36ff33; stroke: #36ff33; stroke-linejoin: miter"/>
     <use xlink:href="#m37632e748b" x="357.273204" y="205.623778" style="fill: #36ff33; stroke: #36ff33; stroke-linejoin: miter"/>
     <use xlink:href="#m37632e748b" x="374.689753" y="205.615061" style="fill: #36ff33; stroke: #36ff33; stroke-linejoin: miter"/>
     <use xlink:href="#m37632e748b" x="391.451829" y="205.607022" style="fill: #36ff33; stroke: #36ff33; stroke-linejoin: miter"/>
     <use xlink:href="#m37632e748b" x="408.4855" y="205.59958" style="fill: #36ff33; stroke: #36ff33; stroke-linejoin: miter"/>
     <use xlink:href="#m37632e748b" x="424.98638" y="205.592658" style="fill: #36ff33; stroke: #36ff33; stroke-linejoin: miter"/>
     <use xlink:href="#m37632e748b" x="440.702871" y="205.586199" style="fill: #36ff33; stroke: #36ff33; stroke-linejoin: miter"/>
     <use xlink:href="#m37632e748b" x="457.293831" y="205.580153" style="fill: #36ff33; stroke: #36ff33; stroke-linejoin: miter"/>
     <use xlink:href="#m37632e748b" x="473.433132" y="205.574475" style="fill: #36ff33; stroke: #36ff33; stroke-linejoin: miter"/>
     <use xlink:href="#m37632e748b" x="489.012967" y="205.56912" style="fill: #36ff33; stroke: #36ff33; stroke-linejoin: miter"/>
     <use xlink:href="#m37632e748b" x="503.710601" y="205.564057" style="fill: #36ff33; stroke: #36ff33; stroke-linejoin: miter"/>
     <use xlink:href="#m37632e748b" x="518.265184" y="205.559267" style="fill: #36ff33; stroke: #36ff33; stroke-linejoin: miter"/>
     <use xlink:href="#m37632e748b" x="518.404905" y="205.559228" style="fill: #36ff33; stroke: #36ff33; stroke-linejoin: miter"/>
    </g>
   </g>
   <g id="line2d_27">
    <path d="M 72.091715 21.869142 
L 95.385158 206.141815 
L 116.094322 205.959084 
L 133.469063 205.868312 
L 150.150066 205.810272 
L 167.847571 205.7686 
L 189.954369 205.736535 
L 207.579637 205.710801 
L 225.531847 205.689458 
L 242.250084 205.6713 
L 259.057934 205.655635 
L 276.427537 205.641899 
L 294.098782 205.629698 
L 312.017932 205.618766 
L 328.967714 205.608875 
L 345.810827 205.599872 
L 362.740044 205.591618 
L 379.8491 205.58401 
L 396.523425 205.576974 
L 414.97993 205.570433 
L 431.883253 205.564323 
L 449.179694 205.5586 
L 466.797946 205.553226 
L 484.542398 205.548163 
L 501.659212 205.543386 
L 518.359072 205.538856 
L 518.404405 205.538843 
" clip-path="url(#pf062de9765)" style="fill: none; stroke-dasharray: 9.6,2.4,1.5,2.4; stroke-dashoffset: 0; stroke: #1c24dc; stroke-width: 1.5"/>
    <defs>
     <path id="mfd4dffa9b0" d="M -3.5 3.5 
L 3.5 3.5 
L 3.5 -3.5 
L -3.5 -3.5 
z
" style="stroke: #1c24dc; stroke-linejoin: miter"/>
    </defs>
    <g clip-path="url(#pf062de9765)">
     <use xlink:href="#mfd4dffa9b0" x="72.091715" y="21.869142" style="fill: #1c24dc; stroke: #1c24dc; stroke-linejoin: miter"/>
     <use xlink:href="#mfd4dffa9b0" x="95.385158" y="206.141815" style="fill: #1c24dc; stroke: #1c24dc; stroke-linejoin: miter"/>
     <use xlink:href="#mfd4dffa9b0" x="116.094322" y="205.959084" style="fill: #1c24dc; stroke: #1c24dc; stroke-linejoin: miter"/>
     <use xlink:href="#mfd4dffa9b0" x="133.469063" y="205.868312" style="fill: #1c24dc; stroke: #1c24dc; stroke-linejoin: miter"/>
     <use xlink:href="#mfd4dffa9b0" x="150.150066" y="205.810272" style="fill: #1c24dc; stroke: #1c24dc; stroke-linejoin: miter"/>
     <use xlink:href="#mfd4dffa9b0" x="167.847571" y="205.7686" style="fill: #1c24dc; stroke: #1c24dc; stroke-linejoin: miter"/>
     <use xlink:href="#mfd4dffa9b0" x="189.954369" y="205.736535" style="fill: #1c24dc; stroke: #1c24dc; stroke-linejoin: miter"/>
     <use xlink:href="#mfd4dffa9b0" x="207.579637" y="205.710801" style="fill: #1c24dc; stroke: #1c24dc; stroke-linejoin: miter"/>
     <use xlink:href="#mfd4dffa9b0" x="225.531847" y="205.689458" style="fill: #1c24dc; stroke: #1c24dc; stroke-linejoin: miter"/>
     <use xlink:href="#mfd4dffa9b0" x="242.250084" y="205.6713" style="fill: #1c24dc; stroke: #1c24dc; stroke-linejoin: miter"/>
     <use xlink:href="#mfd4dffa9b0" x="259.057934" y="205.655635" style="fill: #1c24dc; stroke: #1c24dc; stroke-linejoin: miter"/>
     <use xlink:href="#mfd4dffa9b0" x="276.427537" y="205.641899" style="fill: #1c24dc; stroke: #1c24dc; stroke-linejoin: miter"/>
     <use xlink:href="#mfd4dffa9b0" x="294.098782" y="205.629698" style="fill: #1c24dc; stroke: #1c24dc; stroke-linejoin: miter"/>
     <use xlink:href="#mfd4dffa9b0" x="312.017932" y="205.618766" style="fill: #1c24dc; stroke: #1c24dc; stroke-linejoin: miter"/>
     <use xlink:href="#mfd4dffa9b0" x="328.967714" y="205.608875" style="fill: #1c24dc; stroke: #1c24dc; stroke-linejoin: miter"/>
     <use xlink:href="#mfd4dffa9b0" x="345.810827" y="205.599872" style="fill: #1c24dc; stroke: #1c24dc; stroke-linejoin: miter"/>
     <use xlink:href="#mfd4dffa9b0" x="362.740044" y="205.591618" style="fill: #1c24dc; stroke: #1c24dc; stroke-linejoin: miter"/>
     <use xlink:href="#mfd4dffa9b0" x="379.8491" y="205.58401" style="fill: #1c24dc; stroke: #1c24dc; stroke-linejoin: miter"/>
     <use xlink:href="#mfd4dffa9b0" x="396.523425" y="205.576974" style="fill: #1c24dc; stroke: #1c24dc; stroke-linejoin: miter"/>
     <use xlink:href="#mfd4dffa9b0" x="414.97993" y="205.570433" style="fill: #1c24dc; stroke: #1c24dc; stroke-linejoin: miter"/>
     <use xlink:href="#mfd4dffa9b0" x="431.883253" y="205.564323" style="fill: #1c24dc; stroke: #1c24dc; stroke-linejoin: miter"/>
     <use xlink:href="#mfd4dffa9b0" x="449.179694" y="205.5586" style="fill: #1c24dc; stroke: #1c24dc; stroke-linejoin: miter"/>
     <use xlink:href="#mfd4dffa9b0" x="466.797946" y="205.553226" style="fill: #1c24dc; stroke: #1c24dc; stroke-linejoin: miter"/>
     <use xlink:href="#mfd4dffa9b0" x="484.542398" y="205.548163" style="fill: #1c24dc; stroke: #1c24dc; stroke-linejoin: miter"/>
     <use xlink:href="#mfd4dffa9b0" x="501.659212" y="205.543386" style="fill: #1c24dc; stroke: #1c24dc; stroke-linejoin: miter"/>
     <use xlink:href="#mfd4dffa9b0" x="518.359072" y="205.538856" style="fill: #1c24dc; stroke: #1c24dc; stroke-linejoin: miter"/>
     <use xlink:href="#mfd4dffa9b0" x="518.404405" y="205.538843" style="fill: #1c24dc; stroke: #1c24dc; stroke-linejoin: miter"/>
    </g>
   </g>
   <g id="line2d_28">
    <path d="M 72.01247 20.222564 
L 89.892552 193.510425 
L 107.794253 203.189893 
L 125.802409 205.858015 
L 143.503339 205.800787 
L 160.965458 205.759648 
L 178.573584 205.728103 
L 196.256707 205.702756 
L 214.278636 205.681743 
L 231.980002 205.663807 
L 250.886786 205.648383 
L 268.722486 205.63485 
L 286.079257 205.622839 
L 303.812667 205.612073 
L 321.977571 205.602334 
L 339.733594 205.593464 
L 357.144903 205.585343 
L 374.814422 205.577856 
L 394.064574 205.570928 
L 411.792115 205.564488 
L 430.535033 205.558473 
L 447.878335 205.552846 
L 465.646754 205.547548 
L 483.367683 205.542568 
L 500.880666 205.537853 
L 518.348476 205.5334 
L 518.403045 205.533381 
" clip-path="url(#pf062de9765)" style="fill: none; stroke-dasharray: 7.5,1.5; stroke-dashoffset: 0; stroke: #0d5915; stroke-width: 1.5"/>
    <defs>
     <path id="me2b8dc0354" d="M 0 -5 
L -1.12257 -1.545085 
L -4.755283 -1.545085 
L -1.816356 0.59017 
L -2.938926 4.045085 
L -0 1.90983 
L 2.938926 4.045085 
L 1.816356 0.59017 
L 4.755283 -1.545085 
L 1.12257 -1.545085 
z
" style="stroke: #0d5915; stroke-linejoin: bevel"/>
    </defs>
    <g clip-path="url(#pf062de9765)">
     <use xlink:href="#me2b8dc0354" x="72.01247" y="20.222564" style="fill: #0d5915; stroke: #0d5915; stroke-linejoin: bevel"/>
     <use xlink:href="#me2b8dc0354" x="89.892552" y="193.510425" style="fill: #0d5915; stroke: #0d5915; stroke-linejoin: bevel"/>
     <use xlink:href="#me2b8dc0354" x="107.794253" y="203.189893" style="fill: #0d5915; stroke: #0d5915; stroke-linejoin: bevel"/>
     <use xlink:href="#me2b8dc0354" x="125.802409" y="205.858015" style="fill: #0d5915; stroke: #0d5915; stroke-linejoin: bevel"/>
     <use xlink:href="#me2b8dc0354" x="143.503339" y="205.800787" style="fill: #0d5915; stroke: #0d5915; stroke-linejoin: bevel"/>
     <use xlink:href="#me2b8dc0354" x="160.965458" y="205.759648" style="fill: #0d5915; stroke: #0d5915; stroke-linejoin: bevel"/>
     <use xlink:href="#me2b8dc0354" x="178.573584" y="205.728103" style="fill: #0d5915; stroke: #0d5915; stroke-linejoin: bevel"/>
     <use xlink:href="#me2b8dc0354" x="196.256707" y="205.702756" style="fill: #0d5915; stroke: #0d5915; stroke-linejoin: bevel"/>
     <use xlink:href="#me2b8dc0354" x="214.278636" y="205.681743" style="fill: #0d5915; stroke: #0d5915; stroke-linejoin: bevel"/>
     <use xlink:href="#me2b8dc0354" x="231.980002" y="205.663807" style="fill: #0d5915; stroke: #0d5915; stroke-linejoin: bevel"/>
     <use xlink:href="#me2b8dc0354" x="250.886786" y="205.648383" style="fill: #0d5915; stroke: #0d5915; stroke-linejoin: bevel"/>
     <use xlink:href="#me2b8dc0354" x="268.722486" y="205.63485" style="fill: #0d5915; stroke: #0d5915; stroke-linejoin: bevel"/>
     <use xlink:href="#me2b8dc0354" x="286.079257" y="205.622839" style="fill: #0d5915; stroke: #0d5915; stroke-linejoin: bevel"/>
     <use xlink:href="#me2b8dc0354" x="303.812667" y="205.612073" style="fill: #0d5915; stroke: #0d5915; stroke-linejoin: bevel"/>
     <use xlink:href="#me2b8dc0354" x="321.977571" y="205.602334" style="fill: #0d5915; stroke: #0d5915; stroke-linejoin: bevel"/>
     <use xlink:href="#me2b8dc0354" x="339.733594" y="205.593464" style="fill: #0d5915; stroke: #0d5915; stroke-linejoin: bevel"/>
     <use xlink:href="#me2b8dc0354" x="357.144903" y="205.585343" style="fill: #0d5915; stroke: #0d5915; stroke-linejoin: bevel"/>
     <use xlink:href="#me2b8dc0354" x="374.814422" y="205.577856" style="fill: #0d5915; stroke: #0d5915; stroke-linejoin: bevel"/>
     <use xlink:href="#me2b8dc0354" x="394.064574" y="205.570928" style="fill: #0d5915; stroke: #0d5915; stroke-linejoin: bevel"/>
     <use xlink:href="#me2b8dc0354" x="411.792115" y="205.564488" style="fill: #0d5915; stroke: #0d5915; stroke-linejoin: bevel"/>
     <use xlink:href="#me2b8dc0354" x="430.535033" y="205.558473" style="fill: #0d5915; stroke: #0d5915; stroke-linejoin: bevel"/>
     <use xlink:href="#me2b8dc0354" x="447.878335" y="205.552846" style="fill: #0d5915; stroke: #0d5915; stroke-linejoin: bevel"/>
     <use xlink:href="#me2b8dc0354" x="465.646754" y="205.547548" style="fill: #0d5915; stroke: #0d5915; stroke-linejoin: bevel"/>
     <use xlink:href="#me2b8dc0354" x="483.367683" y="205.542568" style="fill: #0d5915; stroke: #0d5915; stroke-linejoin: bevel"/>
     <use xlink:href="#me2b8dc0354" x="500.880666" y="205.537853" style="fill: #0d5915; stroke: #0d5915; stroke-linejoin: bevel"/>
     <use xlink:href="#me2b8dc0354" x="518.348476" y="205.5334" style="fill: #0d5915; stroke: #0d5915; stroke-linejoin: bevel"/>
     <use xlink:href="#me2b8dc0354" x="518.403045" y="205.533381" style="fill: #0d5915; stroke: #0d5915; stroke-linejoin: bevel"/>
    </g>
   </g>
   <g id="line2d_29">
    <path d="M 72.009826 19.234633 
L 88.267194 178.740435 
L 104.320971 184.534588 
L 123.570019 188.730206 
L 155.564307 192.05613 
L 180.394443 194.843001 
L 196.212706 197.270862 
L 211.979927 199.447147 
L 227.819963 201.440118 
L 248.674205 203.294554 
L 264.736035 205.041414 
L 281.12214 205.649785 
L 296.992992 205.637375 
L 313.37567 205.626259 
L 331.038694 205.616203 
L 347.306786 205.607048 
L 363.865584 205.59866 
L 381.336624 205.590926 
L 397.745805 205.583769 
L 414.428802 205.577114 
L 430.402511 205.570903 
L 446.231453 205.565085 
L 464.227722 205.559615 
L 484.777124 205.554464 
L 502.180975 205.54961 
L 518.316849 205.545004 
L 518.40169 205.544978 
" clip-path="url(#pf062de9765)" style="fill: none; stroke-dasharray: 1.5,2.475; stroke-dashoffset: 0; stroke: #f119c3; stroke-width: 1.5"/>
    <defs>
     <path id="m6c2dbb006a" d="M 0 0 
L 0 -7.5 
M 0 0 
L -6 3.75 
M 0 0 
L 6 3.75 
" style="stroke: #f119c3"/>
    </defs>
    <g clip-path="url(#pf062de9765)">
     <use xlink:href="#m6c2dbb006a" x="72.009826" y="19.234633" style="fill: #f119c3; stroke: #f119c3"/>
     <use xlink:href="#m6c2dbb006a" x="88.267194" y="178.740435" style="fill: #f119c3; stroke: #f119c3"/>
     <use xlink:href="#m6c2dbb006a" x="104.320971" y="184.534588" style="fill: #f119c3; stroke: #f119c3"/>
     <use xlink:href="#m6c2dbb006a" x="123.570019" y="188.730206" style="fill: #f119c3; stroke: #f119c3"/>
     <use xlink:href="#m6c2dbb006a" x="155.564307" y="192.05613" style="fill: #f119c3; stroke: #f119c3"/>
     <use xlink:href="#m6c2dbb006a" x="180.394443" y="194.843001" style="fill: #f119c3; stroke: #f119c3"/>
     <use xlink:href="#m6c2dbb006a" x="196.212706" y="197.270862" style="fill: #f119c3; stroke: #f119c3"/>
     <use xlink:href="#m6c2dbb006a" x="211.979927" y="199.447147" style="fill: #f119c3; stroke: #f119c3"/>
     <use xlink:href="#m6c2dbb006a" x="227.819963" y="201.440118" style="fill: #f119c3; stroke: #f119c3"/>
     <use xlink:href="#m6c2dbb006a" x="248.674205" y="203.294554" style="fill: #f119c3; stroke: #f119c3"/>
     <use xlink:href="#m6c2dbb006a" x="264.736035" y="205.041414" style="fill: #f119c3; stroke: #f119c3"/>
     <use xlink:href="#m6c2dbb006a" x="281.12214" y="205.649785" style="fill: #f119c3; stroke: #f119c3"/>
     <use xlink:href="#m6c2dbb006a" x="296.992992" y="205.637375" style="fill: #f119c3; stroke: #f119c3"/>
     <use xlink:href="#m6c2dbb006a" x="313.37567" y="205.626259" style="fill: #f119c3; stroke: #f119c3"/>
     <use xlink:href="#m6c2dbb006a" x="331.038694" y="205.616203" style="fill: #f119c3; stroke: #f119c3"/>
     <use xlink:href="#m6c2dbb006a" x="347.306786" y="205.607048" style="fill: #f119c3; stroke: #f119c3"/>
     <use xlink:href="#m6c2dbb006a" x="363.865584" y="205.59866" style="fill: #f119c3; stroke: #f119c3"/>
     <use xlink:href="#m6c2dbb006a" x="381.336624" y="205.590926" style="fill: #f119c3; stroke: #f119c3"/>
     <use xlink:href="#m6c2dbb006a" x="397.745805" y="205.583769" style="fill: #f119c3; stroke: #f119c3"/>
     <use xlink:href="#m6c2dbb006a" x="414.428802" y="205.577114" style="fill: #f119c3; stroke: #f119c3"/>
     <use xlink:href="#m6c2dbb006a" x="430.402511" y="205.570903" style="fill: #f119c3; stroke: #f119c3"/>
     <use xlink:href="#m6c2dbb006a" x="446.231453" y="205.565085" style="fill: #f119c3; stroke: #f119c3"/>
     <use xlink:href="#m6c2dbb006a" x="464.227722" y="205.559615" style="fill: #f119c3; stroke: #f119c3"/>
     <use xlink:href="#m6c2dbb006a" x="484.777124" y="205.554464" style="fill: #f119c3; stroke: #f119c3"/>
     <use xlink:href="#m6c2dbb006a" x="502.180975" y="205.54961" style="fill: #f119c3; stroke: #f119c3"/>
     <use xlink:href="#m6c2dbb006a" x="518.316849" y="205.545004" style="fill: #f119c3; stroke: #f119c3"/>
     <use xlink:href="#m6c2dbb006a" x="518.40169" y="205.544978" style="fill: #f119c3; stroke: #f119c3"/>
    </g>
   </g>
   <g id="patch_3">
    <path d="M 72 384.48 
L 72 51.84 
" style="fill: none; stroke: #000000; stroke-width: 0.8; stroke-linejoin: miter; stroke-linecap: square"/>
   </g>
   <g id="patch_4">
    <path d="M 518.4 384.48 
L 518.4 51.84 
" style="fill: none; stroke: #000000; stroke-width: 0.8; stroke-linejoin: miter; stroke-linecap: square"/>
   </g>
   <g id="patch_5">
    <path d="M 72 384.48 
L 518.4 384.48 
" style="fill: none; stroke: #000000; stroke-width: 0.8; stroke-linejoin: miter; stroke-linecap: square"/>
   </g>
   <g id="patch_6">
    <path d="M 72 51.84 
L 518.4 51.84 
" style="fill: none; stroke: #000000; stroke-width: 0.8; stroke-linejoin: miter; stroke-linecap: square"/>
   </g>
   <g id="legend_1">
    <g id="patch_7">
     <path d="M 439 133.84 
L 511.4 133.84 
Q 513.4 133.84 513.4 131.84 
L 513.4 58.84 
Q 513.4 56.84 511.4 56.84 
L 439 56.84 
Q 437 56.84 437 58.84 
L 437 131.84 
Q 437 133.84 439 133.84 
z
" style="fill: #ffffff; opacity: 0.8; stroke: #cccccc; stroke-linejoin: miter"/>
    </g>
    <g id="line2d_30">
     <path d="M 441 65.04 
L 451 65.04 
L 461 65.04 
" style="fill: none; stroke: #e31d1d; stroke-width: 1.5; stroke-linecap: square"/>
     <g>
      <use xlink:href="#m17880bbb4c" x="451" y="65.04" style="fill: #e31d1d; stroke: #e31d1d"/>
     </g>
    </g>
    <g id="text_15">
     <!-- $\beta=0.9$ -->
     <g transform="translate(469 68.54) scale(0.1 -0.1)">
      <defs>
       <path id="DejaVuSans-Oblique-3b2" d="M 872 216 
L 572 -1331 
L -6 -1331 
L 928 3478 
Q 1206 4903 2538 4903 
Q 3888 4903 3659 3700 
Q 3503 2844 2894 2531 
Q 3713 2250 3553 1416 
Q 3272 -69 1759 -66 
Q 1097 -63 872 216 
z
M 1019 966 
Q 1259 422 1875 425 
Q 2775 425 2966 1406 
Q 3138 2288 1675 2219 
L 1778 2750 
Q 2909 2731 3106 3750 
Q 3241 4438 2509 4434 
Q 1691 4434 1503 3459 
L 1019 966 
z
" transform="scale(0.015625)"/>
       <path id="DejaVuSans-3d" d="M 678 2906 
L 4684 2906 
L 4684 2381 
L 678 2381 
L 678 2906 
z
M 678 1631 
L 4684 1631 
L 4684 1100 
L 678 1100 
L 678 1631 
z
" transform="scale(0.015625)"/>
       <path id="DejaVuSans-2e" d="M 684 794 
L 1344 794 
L 1344 0 
L 684 0 
L 684 794 
z
" transform="scale(0.015625)"/>
       <path id="DejaVuSans-39" d="M 703 97 
L 703 672 
Q 941 559 1184 500 
Q 1428 441 1663 441 
Q 2288 441 2617 861 
Q 2947 1281 2994 2138 
Q 2813 1869 2534 1725 
Q 2256 1581 1919 1581 
Q 1219 1581 811 2004 
Q 403 2428 403 3163 
Q 403 3881 828 4315 
Q 1253 4750 1959 4750 
Q 2769 4750 3195 4129 
Q 3622 3509 3622 2328 
Q 3622 1225 3098 567 
Q 2575 -91 1691 -91 
Q 1453 -91 1209 -44 
Q 966 3 703 97 
z
M 1959 2075 
Q 2384 2075 2632 2365 
Q 2881 2656 2881 3163 
Q 2881 3666 2632 3958 
Q 2384 4250 1959 4250 
Q 1534 4250 1286 3958 
Q 1038 3666 1038 3163 
Q 1038 2656 1286 2365 
Q 1534 2075 1959 2075 
z
" transform="scale(0.015625)"/>
      </defs>
      <use xlink:href="#DejaVuSans-Oblique-3b2" transform="translate(0 0.390625)"/>
      <use xlink:href="#DejaVuSans-3d" transform="translate(83.300781 0.390625)"/>
      <use xlink:href="#DejaVuSans-30" transform="translate(186.572266 0.390625)"/>
      <use xlink:href="#DejaVuSans-2e" transform="translate(250.195312 0.390625)"/>
      <use xlink:href="#DejaVuSans-39" transform="translate(281.982422 0.390625)"/>
     </g>
    </g>
    <g id="line2d_31">
     <path d="M 441 79.84 
L 451 79.84 
L 461 79.84 
" style="fill: none; stroke-dasharray: 4.5,1.5,1.5,1.5,1.5,1.5; stroke-dashoffset: 0; stroke: #36ff33; stroke-width: 1.5"/>
     <g>
      <use xlink:href="#m37632e748b" x="451" y="79.84" style="fill: #36ff33; stroke: #36ff33; stroke-linejoin: miter"/>
     </g>
    </g>
    <g id="text_16">
     <!-- $\beta=0.75$ -->
     <g transform="translate(469 83.34) scale(0.1 -0.1)">
      <defs>
       <path id="DejaVuSans-37" d="M 525 4666 
L 3525 4666 
L 3525 4397 
L 1831 0 
L 1172 0 
L 2766 4134 
L 525 4134 
L 525 4666 
z
" transform="scale(0.015625)"/>
      </defs>
      <use xlink:href="#DejaVuSans-Oblique-3b2" transform="translate(0 0.390625)"/>
      <use xlink:href="#DejaVuSans-3d" transform="translate(83.300781 0.390625)"/>
      <use xlink:href="#DejaVuSans-30" transform="translate(186.572266 0.390625)"/>
      <use xlink:href="#DejaVuSans-2e" transform="translate(250.195312 0.390625)"/>
      <use xlink:href="#DejaVuSans-37" transform="translate(274.232422 0.390625)"/>
      <use xlink:href="#DejaVuSans-35" transform="translate(337.855469 0.390625)"/>
     </g>
    </g>
    <g id="line2d_32">
     <path d="M 441 94.64 
L 451 94.64 
L 461 94.64 
" style="fill: none; stroke-dasharray: 9.6,2.4,1.5,2.4; stroke-dashoffset: 0; stroke: #1c24dc; stroke-width: 1.5"/>
     <g>
      <use xlink:href="#mfd4dffa9b0" x="451" y="94.64" style="fill: #1c24dc; stroke: #1c24dc; stroke-linejoin: miter"/>
     </g>
    </g>
    <g id="text_17">
     <!-- $\beta=0.5$ -->
     <g transform="translate(469 98.14) scale(0.1 -0.1)">
      <use xlink:href="#DejaVuSans-Oblique-3b2" transform="translate(0 0.390625)"/>
      <use xlink:href="#DejaVuSans-3d" transform="translate(83.300781 0.390625)"/>
      <use xlink:href="#DejaVuSans-30" transform="translate(186.572266 0.390625)"/>
      <use xlink:href="#DejaVuSans-2e" transform="translate(250.195312 0.390625)"/>
      <use xlink:href="#DejaVuSans-35" transform="translate(281.982422 0.390625)"/>
     </g>
    </g>
    <g id="line2d_33">
     <path d="M 441 109.44 
L 451 109.44 
L 461 109.44 
" style="fill: none; stroke-dasharray: 7.5,1.5; stroke-dashoffset: 0; stroke: #0d5915; stroke-width: 1.5"/>
     <g>
      <use xlink:href="#me2b8dc0354" x="451" y="109.44" style="fill: #0d5915; stroke: #0d5915; stroke-linejoin: bevel"/>
     </g>
    </g>
    <g id="text_18">
     <!-- $\beta=0.25$ -->
     <g transform="translate(469 112.94) scale(0.1 -0.1)">
      <use xlink:href="#DejaVuSans-Oblique-3b2" transform="translate(0 0.390625)"/>
      <use xlink:href="#DejaVuSans-3d" transform="translate(83.300781 0.390625)"/>
      <use xlink:href="#DejaVuSans-30" transform="translate(186.572266 0.390625)"/>
      <use xlink:href="#DejaVuSans-2e" transform="translate(250.195312 0.390625)"/>
      <use xlink:href="#DejaVuSans-32" transform="translate(276.482422 0.390625)"/>
      <use xlink:href="#DejaVuSans-35" transform="translate(340.105469 0.390625)"/>
     </g>
    </g>
    <g id="line2d_34">
     <path d="M 441 124.24 
L 451 124.24 
L 461 124.24 
" style="fill: none; stroke-dasharray: 1.5,2.475; stroke-dashoffset: 0; stroke: #f119c3; stroke-width: 1.5"/>
     <g>
      <use xlink:href="#m6c2dbb006a" x="451" y="124.24" style="fill: #f119c3; stroke: #f119c3"/>
     </g>
    </g>
    <g id="text_19">
     <!-- $\beta=0.1$ -->
     <g transform="translate(469 127.74) scale(0.1 -0.1)">
      <use xlink:href="#DejaVuSans-Oblique-3b2" transform="translate(0 0.390625)"/>
      <use xlink:href="#DejaVuSans-3d" transform="translate(83.300781 0.390625)"/>
      <use xlink:href="#DejaVuSans-30" transform="translate(186.572266 0.390625)"/>
      <use xlink:href="#DejaVuSans-2e" transform="translate(250.195312 0.390625)"/>
      <use xlink:href="#DejaVuSans-31" transform="translate(281.982422 0.390625)"/>
     </g>
    </g>
   </g>
  </g>
 </g>
 <defs>
  <clipPath id="pf062de9765">
   <rect x="72" y="51.84" width="446.4" height="332.64"/>
  </clipPath>
 </defs>
</svg>
