<?xml version="1.0" encoding="utf-8" standalone="no"?>
<!DOCTYPE svg PUBLIC "-//W3C//DTD SVG 1.1//EN"
  "http://www.w3.org/Graphics/SVG/1.1/DTD/svg11.dtd">
<svg xmlns:xlink="http://www.w3.org/1999/xlink" width="864pt" height="432pt" viewBox="0 0 864 432" xmlns="http://www.w3.org/2000/svg" version="1.1">
 <metadata>
  <rdf:RDF xmlns:dc="http://purl.org/dc/elements/1.1/" xmlns:cc="http://creativecommons.org/ns#" xmlns:rdf="http://www.w3.org/1999/02/22-rdf-syntax-ns#">
   <cc:Work>
    <dc:type rdf:resource="http://purl.org/dc/dcmitype/StillImage"/>
    <dc:date>2024-12-31T10:15:56.939285</dc:date>
    <dc:format>image/svg+xml</dc:format>
    <dc:creator>
     <cc:Agent>
      <dc:title>Matplotlib v3.7.1, https://matplotlib.org/</dc:title>
     </cc:Agent>
    </dc:creator>
   </cc:Work>
  </rdf:RDF>
 </metadata>
 <defs>
  <style type="text/css">*{stroke-linejoin: round; stroke-linecap: butt}</style>
 </defs>
 <g id="figure_1">
  <g id="patch_1">
   <path d="M 0 432 
L 864 432 
L 864 0 
L 0 0 
z
" style="fill: #ffffff"/>
  </g>
  <g id="axes_1">
   <g id="patch_2">
    <path d="M 108 384.48 
L 777.6 384.48 
L 777.6 51.84 
L 108 51.84 
z
" style="fill: #ffffff"/>
   </g>
   <g id="matplotlib.axis_1">
    <g id="xtick_1">
     <g id="line2d_1">
      <path d="M 108 384.48 
L 108 51.84 
" clip-path="url(#pde8c8200f1)" style="fill: none; stroke: #b0b0b0; stroke-width: 0.8; stroke-linecap: square"/>
     </g>
     <g id="line2d_2">
      <defs>
       <path id="m78466fd119" d="M 0 0 
L 0 3.5 
" style="stroke: #000000; stroke-width: 0.8"/>
      </defs>
      <g>
       <use xlink:href="#m78466fd119" x="108" y="384.48" style="stroke: #000000; stroke-width: 0.8"/>
      </g>
     </g>
     <g id="text_1">
      <!-- 0 -->
      <g transform="translate(104.81875 399.078438) scale(0.1 -0.1)">
       <defs>
        <path id="DejaVuSans-30" d="M 2034 4250 
Q 1547 4250 1301 3770 
Q 1056 3291 1056 2328 
Q 1056 1369 1301 889 
Q 1547 409 2034 409 
Q 2525 409 2770 889 
Q 3016 1369 3016 2328 
Q 3016 3291 2770 3770 
Q 2525 4250 2034 4250 
z
M 2034 4750 
Q 2819 4750 3233 4129 
Q 3647 3509 3647 2328 
Q 3647 1150 3233 529 
Q 2819 -91 2034 -91 
Q 1250 -91 836 529 
Q 422 1150 422 2328 
Q 422 3509 836 4129 
Q 1250 4750 2034 4750 
z
" transform="scale(0.015625)"/>
       </defs>
       <use xlink:href="#DejaVuSans-30"/>
      </g>
     </g>
    </g>
    <g id="xtick_2">
     <g id="line2d_3">
      <path d="M 241.92 384.48 
L 241.92 51.84 
" clip-path="url(#pde8c8200f1)" style="fill: none; stroke: #b0b0b0; stroke-width: 0.8; stroke-linecap: square"/>
     </g>
     <g id="line2d_4">
      <g>
       <use xlink:href="#m78466fd119" x="241.92" y="384.48" style="stroke: #000000; stroke-width: 0.8"/>
      </g>
     </g>
     <g id="text_2">
      <!-- 100 -->
      <g transform="translate(232.37625 399.078438) scale(0.1 -0.1)">
       <defs>
        <path id="DejaVuSans-31" d="M 794 531 
L 1825 531 
L 1825 4091 
L 703 3866 
L 703 4441 
L 1819 4666 
L 2450 4666 
L 2450 531 
L 3481 531 
L 3481 0 
L 794 0 
L 794 531 
z
" transform="scale(0.015625)"/>
       </defs>
       <use xlink:href="#DejaVuSans-31"/>
       <use xlink:href="#DejaVuSans-30" x="63.623047"/>
       <use xlink:href="#DejaVuSans-30" x="127.246094"/>
      </g>
     </g>
    </g>
    <g id="xtick_3">
     <g id="line2d_5">
      <path d="M 375.84 384.48 
L 375.84 51.84 
" clip-path="url(#pde8c8200f1)" style="fill: none; stroke: #b0b0b0; stroke-width: 0.8; stroke-linecap: square"/>
     </g>
     <g id="line2d_6">
      <g>
       <use xlink:href="#m78466fd119" x="375.84" y="384.48" style="stroke: #000000; stroke-width: 0.8"/>
      </g>
     </g>
     <g id="text_3">
      <!-- 200 -->
      <g transform="translate(366.29625 399.078438) scale(0.1 -0.1)">
       <defs>
        <path id="DejaVuSans-32" d="M 1228 531 
L 3431 531 
L 3431 0 
L 469 0 
L 469 531 
Q 828 903 1448 1529 
Q 2069 2156 2228 2338 
Q 2531 2678 2651 2914 
Q 2772 3150 2772 3378 
Q 2772 3750 2511 3984 
Q 2250 4219 1831 4219 
Q 1534 4219 1204 4116 
Q 875 4013 500 3803 
L 500 4441 
Q 881 4594 1212 4672 
Q 1544 4750 1819 4750 
Q 2544 4750 2975 4387 
Q 3406 4025 3406 3419 
Q 3406 3131 3298 2873 
Q 3191 2616 2906 2266 
Q 2828 2175 2409 1742 
Q 1991 1309 1228 531 
z
" transform="scale(0.015625)"/>
       </defs>
       <use xlink:href="#DejaVuSans-32"/>
       <use xlink:href="#DejaVuSans-30" x="63.623047"/>
       <use xlink:href="#DejaVuSans-30" x="127.246094"/>
      </g>
     </g>
    </g>
    <g id="xtick_4">
     <g id="line2d_7">
      <path d="M 509.76 384.48 
L 509.76 51.84 
" clip-path="url(#pde8c8200f1)" style="fill: none; stroke: #b0b0b0; stroke-width: 0.8; stroke-linecap: square"/>
     </g>
     <g id="line2d_8">
      <g>
       <use xlink:href="#m78466fd119" x="509.76" y="384.48" style="stroke: #000000; stroke-width: 0.8"/>
      </g>
     </g>
     <g id="text_4">
      <!-- 300 -->
      <g transform="translate(500.21625 399.078438) scale(0.1 -0.1)">
       <defs>
        <path id="DejaVuSans-33" d="M 2597 2516 
Q 3050 2419 3304 2112 
Q 3559 1806 3559 1356 
Q 3559 666 3084 287 
Q 2609 -91 1734 -91 
Q 1441 -91 1130 -33 
Q 819 25 488 141 
L 488 750 
Q 750 597 1062 519 
Q 1375 441 1716 441 
Q 2309 441 2620 675 
Q 2931 909 2931 1356 
Q 2931 1769 2642 2001 
Q 2353 2234 1838 2234 
L 1294 2234 
L 1294 2753 
L 1863 2753 
Q 2328 2753 2575 2939 
Q 2822 3125 2822 3475 
Q 2822 3834 2567 4026 
Q 2313 4219 1838 4219 
Q 1578 4219 1281 4162 
Q 984 4106 628 3988 
L 628 4550 
Q 988 4650 1302 4700 
Q 1616 4750 1894 4750 
Q 2613 4750 3031 4423 
Q 3450 4097 3450 3541 
Q 3450 3153 3228 2886 
Q 3006 2619 2597 2516 
z
" transform="scale(0.015625)"/>
       </defs>
       <use xlink:href="#DejaVuSans-33"/>
       <use xlink:href="#DejaVuSans-30" x="63.623047"/>
       <use xlink:href="#DejaVuSans-30" x="127.246094"/>
      </g>
     </g>
    </g>
    <g id="xtick_5">
     <g id="line2d_9">
      <path d="M 643.68 384.48 
L 643.68 51.84 
" clip-path="url(#pde8c8200f1)" style="fill: none; stroke: #b0b0b0; stroke-width: 0.8; stroke-linecap: square"/>
     </g>
     <g id="line2d_10">
      <g>
       <use xlink:href="#m78466fd119" x="643.68" y="384.48" style="stroke: #000000; stroke-width: 0.8"/>
      </g>
     </g>
     <g id="text_5">
      <!-- 400 -->
      <g transform="translate(634.13625 399.078438) scale(0.1 -0.1)">
       <defs>
        <path id="DejaVuSans-34" d="M 2419 4116 
L 825 1625 
L 2419 1625 
L 2419 4116 
z
M 2253 4666 
L 3047 4666 
L 3047 1625 
L 3713 1625 
L 3713 1100 
L 3047 1100 
L 3047 0 
L 2419 0 
L 2419 1100 
L 313 1100 
L 313 1709 
L 2253 4666 
z
" transform="scale(0.015625)"/>
       </defs>
       <use xlink:href="#DejaVuSans-34"/>
       <use xlink:href="#DejaVuSans-30" x="63.623047"/>
       <use xlink:href="#DejaVuSans-30" x="127.246094"/>
      </g>
     </g>
    </g>
    <g id="xtick_6">
     <g id="line2d_11">
      <path d="M 777.6 384.48 
L 777.6 51.84 
" clip-path="url(#pde8c8200f1)" style="fill: none; stroke: #b0b0b0; stroke-width: 0.8; stroke-linecap: square"/>
     </g>
     <g id="line2d_12">
      <g>
       <use xlink:href="#m78466fd119" x="777.6" y="384.48" style="stroke: #000000; stroke-width: 0.8"/>
      </g>
     </g>
     <g id="text_6">
      <!-- 500 -->
      <g transform="translate(768.05625 399.078438) scale(0.1 -0.1)">
       <defs>
        <path id="DejaVuSans-35" d="M 691 4666 
L 3169 4666 
L 3169 4134 
L 1269 4134 
L 1269 2991 
Q 1406 3038 1543 3061 
Q 1681 3084 1819 3084 
Q 2600 3084 3056 2656 
Q 3513 2228 3513 1497 
Q 3513 744 3044 326 
Q 2575 -91 1722 -91 
Q 1428 -91 1123 -41 
Q 819 9 494 109 
L 494 744 
Q 775 591 1075 516 
Q 1375 441 1709 441 
Q 2250 441 2565 725 
Q 2881 1009 2881 1497 
Q 2881 1984 2565 2268 
Q 2250 2553 1709 2553 
Q 1456 2553 1204 2497 
Q 953 2441 691 2322 
L 691 4666 
z
" transform="scale(0.015625)"/>
       </defs>
       <use xlink:href="#DejaVuSans-35"/>
       <use xlink:href="#DejaVuSans-30" x="63.623047"/>
       <use xlink:href="#DejaVuSans-30" x="127.246094"/>
      </g>
     </g>
    </g>
    <g id="text_7">
     <!-- Computational time [s] -->
     <g transform="translate(356.101172 416.555781) scale(0.15 -0.15)">
      <defs>
       <path id="DejaVuSans-43" d="M 4122 4306 
L 4122 3641 
Q 3803 3938 3442 4084 
Q 3081 4231 2675 4231 
Q 1875 4231 1450 3742 
Q 1025 3253 1025 2328 
Q 1025 1406 1450 917 
Q 1875 428 2675 428 
Q 3081 428 3442 575 
Q 3803 722 4122 1019 
L 4122 359 
Q 3791 134 3420 21 
Q 3050 -91 2638 -91 
Q 1578 -91 968 557 
Q 359 1206 359 2328 
Q 359 3453 968 4101 
Q 1578 4750 2638 4750 
Q 3056 4750 3426 4639 
Q 3797 4528 4122 4306 
z
" transform="scale(0.015625)"/>
       <path id="DejaVuSans-6f" d="M 1959 3097 
Q 1497 3097 1228 2736 
Q 959 2375 959 1747 
Q 959 1119 1226 758 
Q 1494 397 1959 397 
Q 2419 397 2687 759 
Q 2956 1122 2956 1747 
Q 2956 2369 2687 2733 
Q 2419 3097 1959 3097 
z
M 1959 3584 
Q 2709 3584 3137 3096 
Q 3566 2609 3566 1747 
Q 3566 888 3137 398 
Q 2709 -91 1959 -91 
Q 1206 -91 779 398 
Q 353 888 353 1747 
Q 353 2609 779 3096 
Q 1206 3584 1959 3584 
z
" transform="scale(0.015625)"/>
       <path id="DejaVuSans-6d" d="M 3328 2828 
Q 3544 3216 3844 3400 
Q 4144 3584 4550 3584 
Q 5097 3584 5394 3201 
Q 5691 2819 5691 2113 
L 5691 0 
L 5113 0 
L 5113 2094 
Q 5113 2597 4934 2840 
Q 4756 3084 4391 3084 
Q 3944 3084 3684 2787 
Q 3425 2491 3425 1978 
L 3425 0 
L 2847 0 
L 2847 2094 
Q 2847 2600 2669 2842 
Q 2491 3084 2119 3084 
Q 1678 3084 1418 2786 
Q 1159 2488 1159 1978 
L 1159 0 
L 581 0 
L 581 3500 
L 1159 3500 
L 1159 2956 
Q 1356 3278 1631 3431 
Q 1906 3584 2284 3584 
Q 2666 3584 2933 3390 
Q 3200 3197 3328 2828 
z
" transform="scale(0.015625)"/>
       <path id="DejaVuSans-70" d="M 1159 525 
L 1159 -1331 
L 581 -1331 
L 581 3500 
L 1159 3500 
L 1159 2969 
Q 1341 3281 1617 3432 
Q 1894 3584 2278 3584 
Q 2916 3584 3314 3078 
Q 3713 2572 3713 1747 
Q 3713 922 3314 415 
Q 2916 -91 2278 -91 
Q 1894 -91 1617 61 
Q 1341 213 1159 525 
z
M 3116 1747 
Q 3116 2381 2855 2742 
Q 2594 3103 2138 3103 
Q 1681 3103 1420 2742 
Q 1159 2381 1159 1747 
Q 1159 1113 1420 752 
Q 1681 391 2138 391 
Q 2594 391 2855 752 
Q 3116 1113 3116 1747 
z
" transform="scale(0.015625)"/>
       <path id="DejaVuSans-75" d="M 544 1381 
L 544 3500 
L 1119 3500 
L 1119 1403 
Q 1119 906 1312 657 
Q 1506 409 1894 409 
Q 2359 409 2629 706 
Q 2900 1003 2900 1516 
L 2900 3500 
L 3475 3500 
L 3475 0 
L 2900 0 
L 2900 538 
Q 2691 219 2414 64 
Q 2138 -91 1772 -91 
Q 1169 -91 856 284 
Q 544 659 544 1381 
z
M 1991 3584 
L 1991 3584 
z
" transform="scale(0.015625)"/>
       <path id="DejaVuSans-74" d="M 1172 4494 
L 1172 3500 
L 2356 3500 
L 2356 3053 
L 1172 3053 
L 1172 1153 
Q 1172 725 1289 603 
Q 1406 481 1766 481 
L 2356 481 
L 2356 0 
L 1766 0 
Q 1100 0 847 248 
Q 594 497 594 1153 
L 594 3053 
L 172 3053 
L 172 3500 
L 594 3500 
L 594 4494 
L 1172 4494 
z
" transform="scale(0.015625)"/>
       <path id="DejaVuSans-61" d="M 2194 1759 
Q 1497 1759 1228 1600 
Q 959 1441 959 1056 
Q 959 750 1161 570 
Q 1363 391 1709 391 
Q 2188 391 2477 730 
Q 2766 1069 2766 1631 
L 2766 1759 
L 2194 1759 
z
M 3341 1997 
L 3341 0 
L 2766 0 
L 2766 531 
Q 2569 213 2275 61 
Q 1981 -91 1556 -91 
Q 1019 -91 701 211 
Q 384 513 384 1019 
Q 384 1609 779 1909 
Q 1175 2209 1959 2209 
L 2766 2209 
L 2766 2266 
Q 2766 2663 2505 2880 
Q 2244 3097 1772 3097 
Q 1472 3097 1187 3025 
Q 903 2953 641 2809 
L 641 3341 
Q 956 3463 1253 3523 
Q 1550 3584 1831 3584 
Q 2591 3584 2966 3190 
Q 3341 2797 3341 1997 
z
" transform="scale(0.015625)"/>
       <path id="DejaVuSans-69" d="M 603 3500 
L 1178 3500 
L 1178 0 
L 603 0 
L 603 3500 
z
M 603 4863 
L 1178 4863 
L 1178 4134 
L 603 4134 
L 603 4863 
z
" transform="scale(0.015625)"/>
       <path id="DejaVuSans-6e" d="M 3513 2113 
L 3513 0 
L 2938 0 
L 2938 2094 
Q 2938 2591 2744 2837 
Q 2550 3084 2163 3084 
Q 1697 3084 1428 2787 
Q 1159 2491 1159 1978 
L 1159 0 
L 581 0 
L 581 3500 
L 1159 3500 
L 1159 2956 
Q 1366 3272 1645 3428 
Q 1925 3584 2291 3584 
Q 2894 3584 3203 3211 
Q 3513 2838 3513 2113 
z
" transform="scale(0.015625)"/>
       <path id="DejaVuSans-6c" d="M 603 4863 
L 1178 4863 
L 1178 0 
L 603 0 
L 603 4863 
z
" transform="scale(0.015625)"/>
       <path id="DejaVuSans-20" transform="scale(0.015625)"/>
       <path id="DejaVuSans-65" d="M 3597 1894 
L 3597 1613 
L 953 1613 
Q 991 1019 1311 708 
Q 1631 397 2203 397 
Q 2534 397 2845 478 
Q 3156 559 3463 722 
L 3463 178 
Q 3153 47 2828 -22 
Q 2503 -91 2169 -91 
Q 1331 -91 842 396 
Q 353 884 353 1716 
Q 353 2575 817 3079 
Q 1281 3584 2069 3584 
Q 2775 3584 3186 3129 
Q 3597 2675 3597 1894 
z
M 3022 2063 
Q 3016 2534 2758 2815 
Q 2500 3097 2075 3097 
Q 1594 3097 1305 2825 
Q 1016 2553 972 2059 
L 3022 2063 
z
" transform="scale(0.015625)"/>
       <path id="DejaVuSans-5b" d="M 550 4863 
L 1875 4863 
L 1875 4416 
L 1125 4416 
L 1125 -397 
L 1875 -397 
L 1875 -844 
L 550 -844 
L 550 4863 
z
" transform="scale(0.015625)"/>
       <path id="DejaVuSans-73" d="M 2834 3397 
L 2834 2853 
Q 2591 2978 2328 3040 
Q 2066 3103 1784 3103 
Q 1356 3103 1142 2972 
Q 928 2841 928 2578 
Q 928 2378 1081 2264 
Q 1234 2150 1697 2047 
L 1894 2003 
Q 2506 1872 2764 1633 
Q 3022 1394 3022 966 
Q 3022 478 2636 193 
Q 2250 -91 1575 -91 
Q 1294 -91 989 -36 
Q 684 19 347 128 
L 347 722 
Q 666 556 975 473 
Q 1284 391 1588 391 
Q 1994 391 2212 530 
Q 2431 669 2431 922 
Q 2431 1156 2273 1281 
Q 2116 1406 1581 1522 
L 1381 1569 
Q 847 1681 609 1914 
Q 372 2147 372 2553 
Q 372 3047 722 3315 
Q 1072 3584 1716 3584 
Q 2034 3584 2315 3537 
Q 2597 3491 2834 3397 
z
" transform="scale(0.015625)"/>
       <path id="DejaVuSans-5d" d="M 1947 4863 
L 1947 -844 
L 622 -844 
L 622 -397 
L 1369 -397 
L 1369 4416 
L 622 4416 
L 622 4863 
L 1947 4863 
z
" transform="scale(0.015625)"/>
      </defs>
      <use xlink:href="#DejaVuSans-43"/>
      <use xlink:href="#DejaVuSans-6f" x="69.824219"/>
      <use xlink:href="#DejaVuSans-6d" x="131.005859"/>
      <use xlink:href="#DejaVuSans-70" x="228.417969"/>
      <use xlink:href="#DejaVuSans-75" x="291.894531"/>
      <use xlink:href="#DejaVuSans-74" x="355.273438"/>
      <use xlink:href="#DejaVuSans-61" x="394.482422"/>
      <use xlink:href="#DejaVuSans-74" x="455.761719"/>
      <use xlink:href="#DejaVuSans-69" x="494.970703"/>
      <use xlink:href="#DejaVuSans-6f" x="522.753906"/>
      <use xlink:href="#DejaVuSans-6e" x="583.935547"/>
      <use xlink:href="#DejaVuSans-61" x="647.314453"/>
      <use xlink:href="#DejaVuSans-6c" x="708.59375"/>
      <use xlink:href="#DejaVuSans-20" x="736.376953"/>
      <use xlink:href="#DejaVuSans-74" x="768.164062"/>
      <use xlink:href="#DejaVuSans-69" x="807.373047"/>
      <use xlink:href="#DejaVuSans-6d" x="835.15625"/>
      <use xlink:href="#DejaVuSans-65" x="932.568359"/>
      <use xlink:href="#DejaVuSans-20" x="994.091797"/>
      <use xlink:href="#DejaVuSans-5b" x="1025.878906"/>
      <use xlink:href="#DejaVuSans-73" x="1064.892578"/>
      <use xlink:href="#DejaVuSans-5d" x="1116.992188"/>
     </g>
    </g>
   </g>
   <g id="matplotlib.axis_2">
    <g id="ytick_1">
     <g id="line2d_13">
      <path d="M 108 369.36 
L 777.6 369.36 
" clip-path="url(#pde8c8200f1)" style="fill: none; stroke: #b0b0b0; stroke-width: 0.8; stroke-linecap: square"/>
     </g>
     <g id="line2d_14">
      <defs>
       <path id="mffef1cf0d7" d="M 0 0 
L -3.5 0 
" style="stroke: #000000; stroke-width: 0.8"/>
      </defs>
      <g>
       <use xlink:href="#mffef1cf0d7" x="108" y="369.36" style="stroke: #000000; stroke-width: 0.8"/>
      </g>
     </g>
     <g id="text_8">
      <!-- −50 -->
      <g transform="translate(79.895313 373.159219) scale(0.1 -0.1)">
       <defs>
        <path id="DejaVuSans-2212" d="M 678 2272 
L 4684 2272 
L 4684 1741 
L 678 1741 
L 678 2272 
z
" transform="scale(0.015625)"/>
       </defs>
       <use xlink:href="#DejaVuSans-2212"/>
       <use xlink:href="#DejaVuSans-35" x="83.789062"/>
       <use xlink:href="#DejaVuSans-30" x="147.412109"/>
      </g>
     </g>
    </g>
    <g id="ytick_2">
     <g id="line2d_15">
      <path d="M 108 301.833406 
L 777.6 301.833406 
" clip-path="url(#pde8c8200f1)" style="fill: none; stroke: #b0b0b0; stroke-width: 0.8; stroke-linecap: square"/>
     </g>
     <g id="line2d_16">
      <g>
       <use xlink:href="#mffef1cf0d7" x="108" y="301.833406" style="stroke: #000000; stroke-width: 0.8"/>
      </g>
     </g>
     <g id="text_9">
      <!-- −40 -->
      <g transform="translate(79.895313 305.632625) scale(0.1 -0.1)">
       <use xlink:href="#DejaVuSans-2212"/>
       <use xlink:href="#DejaVuSans-34" x="83.789062"/>
       <use xlink:href="#DejaVuSans-30" x="147.412109"/>
      </g>
     </g>
    </g>
    <g id="ytick_3">
     <g id="line2d_17">
      <path d="M 108 234.306812 
L 777.6 234.306812 
" clip-path="url(#pde8c8200f1)" style="fill: none; stroke: #b0b0b0; stroke-width: 0.8; stroke-linecap: square"/>
     </g>
     <g id="line2d_18">
      <g>
       <use xlink:href="#mffef1cf0d7" x="108" y="234.306812" style="stroke: #000000; stroke-width: 0.8"/>
      </g>
     </g>
     <g id="text_10">
      <!-- −30 -->
      <g transform="translate(79.895313 238.10603) scale(0.1 -0.1)">
       <use xlink:href="#DejaVuSans-2212"/>
       <use xlink:href="#DejaVuSans-33" x="83.789062"/>
       <use xlink:href="#DejaVuSans-30" x="147.412109"/>
      </g>
     </g>
    </g>
    <g id="ytick_4">
     <g id="line2d_19">
      <path d="M 108 166.780217 
L 777.6 166.780217 
" clip-path="url(#pde8c8200f1)" style="fill: none; stroke: #b0b0b0; stroke-width: 0.8; stroke-linecap: square"/>
     </g>
     <g id="line2d_20">
      <g>
       <use xlink:href="#mffef1cf0d7" x="108" y="166.780217" style="stroke: #000000; stroke-width: 0.8"/>
      </g>
     </g>
     <g id="text_11">
      <!-- −20 -->
      <g transform="translate(79.895313 170.579436) scale(0.1 -0.1)">
       <use xlink:href="#DejaVuSans-2212"/>
       <use xlink:href="#DejaVuSans-32" x="83.789062"/>
       <use xlink:href="#DejaVuSans-30" x="147.412109"/>
      </g>
     </g>
    </g>
    <g id="ytick_5">
     <g id="line2d_21">
      <path d="M 108 99.253623 
L 777.6 99.253623 
" clip-path="url(#pde8c8200f1)" style="fill: none; stroke: #b0b0b0; stroke-width: 0.8; stroke-linecap: square"/>
     </g>
     <g id="line2d_22">
      <g>
       <use xlink:href="#mffef1cf0d7" x="108" y="99.253623" style="stroke: #000000; stroke-width: 0.8"/>
      </g>
     </g>
     <g id="text_12">
      <!-- −10 -->
      <g transform="translate(79.895313 103.052842) scale(0.1 -0.1)">
       <use xlink:href="#DejaVuSans-2212"/>
       <use xlink:href="#DejaVuSans-31" x="83.789062"/>
       <use xlink:href="#DejaVuSans-30" x="147.412109"/>
      </g>
     </g>
    </g>
    <g id="text_13">
     <!-- Objective value -->
     <g transform="translate(72.775781 276.595547) rotate(-90) scale(0.15 -0.15)">
      <defs>
       <path id="DejaVuSans-4f" d="M 2522 4238 
Q 1834 4238 1429 3725 
Q 1025 3213 1025 2328 
Q 1025 1447 1429 934 
Q 1834 422 2522 422 
Q 3209 422 3611 934 
Q 4013 1447 4013 2328 
Q 4013 3213 3611 3725 
Q 3209 4238 2522 4238 
z
M 2522 4750 
Q 3503 4750 4090 4092 
Q 4678 3434 4678 2328 
Q 4678 1225 4090 567 
Q 3503 -91 2522 -91 
Q 1538 -91 948 565 
Q 359 1222 359 2328 
Q 359 3434 948 4092 
Q 1538 4750 2522 4750 
z
" transform="scale(0.015625)"/>
       <path id="DejaVuSans-62" d="M 3116 1747 
Q 3116 2381 2855 2742 
Q 2594 3103 2138 3103 
Q 1681 3103 1420 2742 
Q 1159 2381 1159 1747 
Q 1159 1113 1420 752 
Q 1681 391 2138 391 
Q 2594 391 2855 752 
Q 3116 1113 3116 1747 
z
M 1159 2969 
Q 1341 3281 1617 3432 
Q 1894 3584 2278 3584 
Q 2916 3584 3314 3078 
Q 3713 2572 3713 1747 
Q 3713 922 3314 415 
Q 2916 -91 2278 -91 
Q 1894 -91 1617 61 
Q 1341 213 1159 525 
L 1159 0 
L 581 0 
L 581 4863 
L 1159 4863 
L 1159 2969 
z
" transform="scale(0.015625)"/>
       <path id="DejaVuSans-6a" d="M 603 3500 
L 1178 3500 
L 1178 -63 
Q 1178 -731 923 -1031 
Q 669 -1331 103 -1331 
L -116 -1331 
L -116 -844 
L 38 -844 
Q 366 -844 484 -692 
Q 603 -541 603 -63 
L 603 3500 
z
M 603 4863 
L 1178 4863 
L 1178 4134 
L 603 4134 
L 603 4863 
z
" transform="scale(0.015625)"/>
       <path id="DejaVuSans-63" d="M 3122 3366 
L 3122 2828 
Q 2878 2963 2633 3030 
Q 2388 3097 2138 3097 
Q 1578 3097 1268 2742 
Q 959 2388 959 1747 
Q 959 1106 1268 751 
Q 1578 397 2138 397 
Q 2388 397 2633 464 
Q 2878 531 3122 666 
L 3122 134 
Q 2881 22 2623 -34 
Q 2366 -91 2075 -91 
Q 1284 -91 818 406 
Q 353 903 353 1747 
Q 353 2603 823 3093 
Q 1294 3584 2113 3584 
Q 2378 3584 2631 3529 
Q 2884 3475 3122 3366 
z
" transform="scale(0.015625)"/>
       <path id="DejaVuSans-76" d="M 191 3500 
L 800 3500 
L 1894 563 
L 2988 3500 
L 3597 3500 
L 2284 0 
L 1503 0 
L 191 3500 
z
" transform="scale(0.015625)"/>
      </defs>
      <use xlink:href="#DejaVuSans-4f"/>
      <use xlink:href="#DejaVuSans-62" x="78.710938"/>
      <use xlink:href="#DejaVuSans-6a" x="142.1875"/>
      <use xlink:href="#DejaVuSans-65" x="169.970703"/>
      <use xlink:href="#DejaVuSans-63" x="231.494141"/>
      <use xlink:href="#DejaVuSans-74" x="286.474609"/>
      <use xlink:href="#DejaVuSans-69" x="325.683594"/>
      <use xlink:href="#DejaVuSans-76" x="353.466797"/>
      <use xlink:href="#DejaVuSans-65" x="412.646484"/>
      <use xlink:href="#DejaVuSans-20" x="474.169922"/>
      <use xlink:href="#DejaVuSans-76" x="505.957031"/>
      <use xlink:href="#DejaVuSans-61" x="565.136719"/>
      <use xlink:href="#DejaVuSans-6c" x="626.416016"/>
      <use xlink:href="#DejaVuSans-75" x="654.199219"/>
      <use xlink:href="#DejaVuSans-65" x="717.578125"/>
     </g>
    </g>
   </g>
   <g id="line2d_23">
    <path d="M 154.182868 85.496751 
" clip-path="url(#pde8c8200f1)" style="fill: none; stroke-dasharray: 5.55,2.4; stroke-dashoffset: 0; stroke: #36ff33; stroke-width: 1.5"/>
    <defs>
     <path id="m19a3928056" d="M 0 3.5 
C 0.928211 3.5 1.81853 3.131218 2.474874 2.474874 
C 3.131218 1.81853 3.5 0.928211 3.5 0 
C 3.5 -0.928211 3.131218 -1.81853 2.474874 -2.474874 
C 1.81853 -3.131218 0.928211 -3.5 0 -3.5 
C -0.928211 -3.5 -1.81853 -3.131218 -2.474874 -2.474874 
C -3.131218 -1.81853 -3.5 -0.928211 -3.5 0 
C -3.5 0.928211 -3.131218 1.81853 -2.474874 2.474874 
C -1.81853 3.131218 -0.928211 3.5 0 3.5 
z
" style="stroke: #36ff33"/>
    </defs>
    <g clip-path="url(#pde8c8200f1)">
     <use xlink:href="#m19a3928056" x="154.182868" y="85.496751" style="fill: #36ff33; stroke: #36ff33"/>
    </g>
   </g>
   <g id="line2d_24">
    <path d="M 154.182868 85.496751 
L 777.6 85.496751 
" clip-path="url(#pde8c8200f1)" style="fill: none; stroke-dasharray: 5.55,2.4; stroke-dashoffset: 0; stroke: #36ff33; stroke-width: 1.5"/>
   </g>
   <g id="line2d_25">
    <path d="M 151.288487 85.496751 
L 197.94618 73.693031 
L 242.326245 73.295783 
L 285.875579 73.133834 
L 344.818394 73.053735 
L 410.114496 73.009816 
L 454.993518 72.984121 
L 500.06855 72.968369 
L 549.47092 72.958374 
L 595.028134 72.951857 
L 640.629234 72.947504 
L 684.339432 72.944541 
L 728.15098 72.942493 
L 770.529453 72.941064 
L 809.605624 72.940046 
" clip-path="url(#pde8c8200f1)" style="fill: none; stroke: #36ff33; stroke-width: 1.5; stroke-linecap: square"/>
    <defs>
     <path id="m59e834a147" d="M 0 -5 
L -1.12257 -1.545085 
L -4.755283 -1.545085 
L -1.816356 0.59017 
L -2.938926 4.045085 
L -0 1.90983 
L 2.938926 4.045085 
L 1.816356 0.59017 
L 4.755283 -1.545085 
L 1.12257 -1.545085 
z
" style="stroke: #36ff33; stroke-linejoin: bevel"/>
    </defs>
    <g clip-path="url(#pde8c8200f1)">
     <use xlink:href="#m59e834a147" x="151.288487" y="85.496751" style="fill: #36ff33; stroke: #36ff33; stroke-linejoin: bevel"/>
     <use xlink:href="#m59e834a147" x="197.94618" y="73.693031" style="fill: #36ff33; stroke: #36ff33; stroke-linejoin: bevel"/>
     <use xlink:href="#m59e834a147" x="242.326245" y="73.295783" style="fill: #36ff33; stroke: #36ff33; stroke-linejoin: bevel"/>
     <use xlink:href="#m59e834a147" x="285.875579" y="73.133834" style="fill: #36ff33; stroke: #36ff33; stroke-linejoin: bevel"/>
     <use xlink:href="#m59e834a147" x="344.818394" y="73.053735" style="fill: #36ff33; stroke: #36ff33; stroke-linejoin: bevel"/>
     <use xlink:href="#m59e834a147" x="410.114496" y="73.009816" style="fill: #36ff33; stroke: #36ff33; stroke-linejoin: bevel"/>
     <use xlink:href="#m59e834a147" x="454.993518" y="72.984121" style="fill: #36ff33; stroke: #36ff33; stroke-linejoin: bevel"/>
     <use xlink:href="#m59e834a147" x="500.06855" y="72.968369" style="fill: #36ff33; stroke: #36ff33; stroke-linejoin: bevel"/>
     <use xlink:href="#m59e834a147" x="549.47092" y="72.958374" style="fill: #36ff33; stroke: #36ff33; stroke-linejoin: bevel"/>
     <use xlink:href="#m59e834a147" x="595.028134" y="72.951857" style="fill: #36ff33; stroke: #36ff33; stroke-linejoin: bevel"/>
     <use xlink:href="#m59e834a147" x="640.629234" y="72.947504" style="fill: #36ff33; stroke: #36ff33; stroke-linejoin: bevel"/>
     <use xlink:href="#m59e834a147" x="684.339432" y="72.944541" style="fill: #36ff33; stroke: #36ff33; stroke-linejoin: bevel"/>
     <use xlink:href="#m59e834a147" x="728.15098" y="72.942493" style="fill: #36ff33; stroke: #36ff33; stroke-linejoin: bevel"/>
     <use xlink:href="#m59e834a147" x="770.529453" y="72.941064" style="fill: #36ff33; stroke: #36ff33; stroke-linejoin: bevel"/>
     <use xlink:href="#m59e834a147" x="809.605624" y="72.940046" style="fill: #36ff33; stroke: #36ff33; stroke-linejoin: bevel"/>
    </g>
   </g>
   <g id="line2d_26">
    <path d="M 150.405324 112.652491 
" clip-path="url(#pde8c8200f1)" style="fill: none; stroke-dasharray: 5.55,2.4; stroke-dashoffset: 0; stroke: #b6c800; stroke-width: 1.5"/>
    <defs>
     <path id="m2853667a7a" d="M 0 3.5 
C 0.928211 3.5 1.81853 3.131218 2.474874 2.474874 
C 3.131218 1.81853 3.5 0.928211 3.5 0 
C 3.5 -0.928211 3.131218 -1.81853 2.474874 -2.474874 
C 1.81853 -3.131218 0.928211 -3.5 0 -3.5 
C -0.928211 -3.5 -1.81853 -3.131218 -2.474874 -2.474874 
C -3.131218 -1.81853 -3.5 -0.928211 -3.5 0 
C -3.5 0.928211 -3.131218 1.81853 -2.474874 2.474874 
C -1.81853 3.131218 -0.928211 3.5 0 3.5 
z
" style="stroke: #b6c800"/>
    </defs>
    <g clip-path="url(#pde8c8200f1)">
     <use xlink:href="#m2853667a7a" x="150.405324" y="112.652491" style="fill: #b6c800; stroke: #b6c800"/>
    </g>
   </g>
   <g id="line2d_27">
    <path d="M 150.405324 112.652491 
L 777.6 112.652491 
" clip-path="url(#pde8c8200f1)" style="fill: none; stroke-dasharray: 5.55,2.4; stroke-dashoffset: 0; stroke: #b6c800; stroke-width: 1.5"/>
   </g>
   <g id="line2d_28">
    <path d="M 151.313264 112.652491 
L 196.471026 66.96 
L 242.587006 66.96 
L 286.894219 66.96 
L 329.928812 66.96 
L 376.562556 66.96 
L 421.392983 66.96 
L 465.635538 66.96 
L 512.269861 66.96 
L 567.545649 66.96 
L 611.229895 66.96 
L 660.050828 66.96 
L 718.211895 66.96 
L 764.08767 66.96 
L 809.332617 66.96 
" clip-path="url(#pde8c8200f1)" style="fill: none; stroke: #b6c800; stroke-width: 1.5; stroke-linecap: square"/>
    <defs>
     <path id="mdea09524db" d="M 0 -5 
L -1.12257 -1.545085 
L -4.755283 -1.545085 
L -1.816356 0.59017 
L -2.938926 4.045085 
L -0 1.90983 
L 2.938926 4.045085 
L 1.816356 0.59017 
L 4.755283 -1.545085 
L 1.12257 -1.545085 
z
" style="stroke: #b6c800; stroke-linejoin: bevel"/>
    </defs>
    <g clip-path="url(#pde8c8200f1)">
     <use xlink:href="#mdea09524db" x="151.313264" y="112.652491" style="fill: #b6c800; stroke: #b6c800; stroke-linejoin: bevel"/>
     <use xlink:href="#mdea09524db" x="196.471026" y="66.96" style="fill: #b6c800; stroke: #b6c800; stroke-linejoin: bevel"/>
     <use xlink:href="#mdea09524db" x="242.587006" y="66.96" style="fill: #b6c800; stroke: #b6c800; stroke-linejoin: bevel"/>
     <use xlink:href="#mdea09524db" x="286.894219" y="66.96" style="fill: #b6c800; stroke: #b6c800; stroke-linejoin: bevel"/>
     <use xlink:href="#mdea09524db" x="329.928812" y="66.96" style="fill: #b6c800; stroke: #b6c800; stroke-linejoin: bevel"/>
     <use xlink:href="#mdea09524db" x="376.562556" y="66.96" style="fill: #b6c800; stroke: #b6c800; stroke-linejoin: bevel"/>
     <use xlink:href="#mdea09524db" x="421.392983" y="66.96" style="fill: #b6c800; stroke: #b6c800; stroke-linejoin: bevel"/>
     <use xlink:href="#mdea09524db" x="465.635538" y="66.96" style="fill: #b6c800; stroke: #b6c800; stroke-linejoin: bevel"/>
     <use xlink:href="#mdea09524db" x="512.269861" y="66.96" style="fill: #b6c800; stroke: #b6c800; stroke-linejoin: bevel"/>
     <use xlink:href="#mdea09524db" x="567.545649" y="66.96" style="fill: #b6c800; stroke: #b6c800; stroke-linejoin: bevel"/>
     <use xlink:href="#mdea09524db" x="611.229895" y="66.96" style="fill: #b6c800; stroke: #b6c800; stroke-linejoin: bevel"/>
     <use xlink:href="#mdea09524db" x="660.050828" y="66.96" style="fill: #b6c800; stroke: #b6c800; stroke-linejoin: bevel"/>
     <use xlink:href="#mdea09524db" x="718.211895" y="66.96" style="fill: #b6c800; stroke: #b6c800; stroke-linejoin: bevel"/>
     <use xlink:href="#mdea09524db" x="764.08767" y="66.96" style="fill: #b6c800; stroke: #b6c800; stroke-linejoin: bevel"/>
     <use xlink:href="#mdea09524db" x="809.332617" y="66.96" style="fill: #b6c800; stroke: #b6c800; stroke-linejoin: bevel"/>
    </g>
   </g>
   <g id="line2d_29">
    <path d="M 153.5287 113.775226 
" clip-path="url(#pde8c8200f1)" style="fill: none; stroke-dasharray: 5.55,2.4; stroke-dashoffset: 0; stroke: #f119c3; stroke-width: 1.5"/>
    <defs>
     <path id="m88148a8e39" d="M 0 3.5 
C 0.928211 3.5 1.81853 3.131218 2.474874 2.474874 
C 3.131218 1.81853 3.5 0.928211 3.5 0 
C 3.5 -0.928211 3.131218 -1.81853 2.474874 -2.474874 
C 1.81853 -3.131218 0.928211 -3.5 0 -3.5 
C -0.928211 -3.5 -1.81853 -3.131218 -2.474874 -2.474874 
C -3.131218 -1.81853 -3.5 -0.928211 -3.5 0 
C -3.5 0.928211 -3.131218 1.81853 -2.474874 2.474874 
C -1.81853 3.131218 -0.928211 3.5 0 3.5 
z
" style="stroke: #f119c3"/>
    </defs>
    <g clip-path="url(#pde8c8200f1)">
     <use xlink:href="#m88148a8e39" x="153.5287" y="113.775226" style="fill: #f119c3; stroke: #f119c3"/>
    </g>
   </g>
   <g id="line2d_30">
    <path d="M 153.5287 113.775226 
L 777.6 113.775226 
" clip-path="url(#pde8c8200f1)" style="fill: none; stroke-dasharray: 5.55,2.4; stroke-dashoffset: 0; stroke: #f119c3; stroke-width: 1.5"/>
   </g>
   <g id="line2d_31">
    <path d="M 154.939595 113.775226 
L 204.525504 71.744143 
L 249.212748 71.744143 
L 293.849692 71.744143 
L 339.210086 71.744143 
L 382.708665 71.744143 
L 426.351291 71.744143 
L 470.140423 71.744143 
L 513.745454 71.744143 
L 557.664719 71.744143 
L 601.037365 71.744143 
L 649.105588 71.744143 
L 695.193294 71.744143 
L 740.57705 71.744143 
L 785.233637 71.744143 
" clip-path="url(#pde8c8200f1)" style="fill: none; stroke: #f119c3; stroke-width: 1.5; stroke-linecap: square"/>
    <defs>
     <path id="m4b3a4f5eeb" d="M 0 -5 
L -1.12257 -1.545085 
L -4.755283 -1.545085 
L -1.816356 0.59017 
L -2.938926 4.045085 
L -0 1.90983 
L 2.938926 4.045085 
L 1.816356 0.59017 
L 4.755283 -1.545085 
L 1.12257 -1.545085 
z
" style="stroke: #f119c3; stroke-linejoin: bevel"/>
    </defs>
    <g clip-path="url(#pde8c8200f1)">
     <use xlink:href="#m4b3a4f5eeb" x="154.939595" y="113.775226" style="fill: #f119c3; stroke: #f119c3; stroke-linejoin: bevel"/>
     <use xlink:href="#m4b3a4f5eeb" x="204.525504" y="71.744143" style="fill: #f119c3; stroke: #f119c3; stroke-linejoin: bevel"/>
     <use xlink:href="#m4b3a4f5eeb" x="249.212748" y="71.744143" style="fill: #f119c3; stroke: #f119c3; stroke-linejoin: bevel"/>
     <use xlink:href="#m4b3a4f5eeb" x="293.849692" y="71.744143" style="fill: #f119c3; stroke: #f119c3; stroke-linejoin: bevel"/>
     <use xlink:href="#m4b3a4f5eeb" x="339.210086" y="71.744143" style="fill: #f119c3; stroke: #f119c3; stroke-linejoin: bevel"/>
     <use xlink:href="#m4b3a4f5eeb" x="382.708665" y="71.744143" style="fill: #f119c3; stroke: #f119c3; stroke-linejoin: bevel"/>
     <use xlink:href="#m4b3a4f5eeb" x="426.351291" y="71.744143" style="fill: #f119c3; stroke: #f119c3; stroke-linejoin: bevel"/>
     <use xlink:href="#m4b3a4f5eeb" x="470.140423" y="71.744143" style="fill: #f119c3; stroke: #f119c3; stroke-linejoin: bevel"/>
     <use xlink:href="#m4b3a4f5eeb" x="513.745454" y="71.744143" style="fill: #f119c3; stroke: #f119c3; stroke-linejoin: bevel"/>
     <use xlink:href="#m4b3a4f5eeb" x="557.664719" y="71.744143" style="fill: #f119c3; stroke: #f119c3; stroke-linejoin: bevel"/>
     <use xlink:href="#m4b3a4f5eeb" x="601.037365" y="71.744143" style="fill: #f119c3; stroke: #f119c3; stroke-linejoin: bevel"/>
     <use xlink:href="#m4b3a4f5eeb" x="649.105588" y="71.744143" style="fill: #f119c3; stroke: #f119c3; stroke-linejoin: bevel"/>
     <use xlink:href="#m4b3a4f5eeb" x="695.193294" y="71.744143" style="fill: #f119c3; stroke: #f119c3; stroke-linejoin: bevel"/>
     <use xlink:href="#m4b3a4f5eeb" x="740.57705" y="71.744143" style="fill: #f119c3; stroke: #f119c3; stroke-linejoin: bevel"/>
     <use xlink:href="#m4b3a4f5eeb" x="785.233637" y="71.744143" style="fill: #f119c3; stroke: #f119c3; stroke-linejoin: bevel"/>
    </g>
   </g>
   <g id="line2d_32">
    <path d="M 153.241125 115.382229 
" clip-path="url(#pde8c8200f1)" style="fill: none; stroke-dasharray: 5.55,2.4; stroke-dashoffset: 0; stroke: #0d5915; stroke-width: 1.5"/>
    <defs>
     <path id="m5a09941258" d="M 0 3.5 
C 0.928211 3.5 1.81853 3.131218 2.474874 2.474874 
C 3.131218 1.81853 3.5 0.928211 3.5 0 
C 3.5 -0.928211 3.131218 -1.81853 2.474874 -2.474874 
C 1.81853 -3.131218 0.928211 -3.5 0 -3.5 
C -0.928211 -3.5 -1.81853 -3.131218 -2.474874 -2.474874 
C -3.131218 -1.81853 -3.5 -0.928211 -3.5 0 
C -3.5 0.928211 -3.131218 1.81853 -2.474874 2.474874 
C -1.81853 3.131218 -0.928211 3.5 0 3.5 
z
" style="stroke: #0d5915"/>
    </defs>
    <g clip-path="url(#pde8c8200f1)">
     <use xlink:href="#m5a09941258" x="153.241125" y="115.382229" style="fill: #0d5915; stroke: #0d5915"/>
    </g>
   </g>
   <g id="line2d_33">
    <path d="M 153.241125 115.382229 
L 777.6 115.382229 
" clip-path="url(#pde8c8200f1)" style="fill: none; stroke-dasharray: 5.55,2.4; stroke-dashoffset: 0; stroke: #0d5915; stroke-width: 1.5"/>
   </g>
   <g id="line2d_34">
    <path d="M 152.009291 115.382229 
L 197.573985 113.041374 
L 246.691215 73.264266 
L 290.931971 73.191767 
L 336.279856 73.140866 
L 382.122819 73.103283 
L 426.690906 73.074549 
L 469.654594 73.052048 
L 513.394995 73.034107 
L 557.816309 73.019565 
L 601.339212 73.007665 
L 645.153694 72.997812 
L 688.466261 72.989594 
L 735.431967 72.982678 
L 783.252998 72.976831 
" clip-path="url(#pde8c8200f1)" style="fill: none; stroke: #0d5915; stroke-width: 1.5; stroke-linecap: square"/>
    <defs>
     <path id="meb48ca9583" d="M 0 -5 
L -1.12257 -1.545085 
L -4.755283 -1.545085 
L -1.816356 0.59017 
L -2.938926 4.045085 
L -0 1.90983 
L 2.938926 4.045085 
L 1.816356 0.59017 
L 4.755283 -1.545085 
L 1.12257 -1.545085 
z
" style="stroke: #0d5915; stroke-linejoin: bevel"/>
    </defs>
    <g clip-path="url(#pde8c8200f1)">
     <use xlink:href="#meb48ca9583" x="152.009291" y="115.382229" style="fill: #0d5915; stroke: #0d5915; stroke-linejoin: bevel"/>
     <use xlink:href="#meb48ca9583" x="197.573985" y="113.041374" style="fill: #0d5915; stroke: #0d5915; stroke-linejoin: bevel"/>
     <use xlink:href="#meb48ca9583" x="246.691215" y="73.264266" style="fill: #0d5915; stroke: #0d5915; stroke-linejoin: bevel"/>
     <use xlink:href="#meb48ca9583" x="290.931971" y="73.191767" style="fill: #0d5915; stroke: #0d5915; stroke-linejoin: bevel"/>
     <use xlink:href="#meb48ca9583" x="336.279856" y="73.140866" style="fill: #0d5915; stroke: #0d5915; stroke-linejoin: bevel"/>
     <use xlink:href="#meb48ca9583" x="382.122819" y="73.103283" style="fill: #0d5915; stroke: #0d5915; stroke-linejoin: bevel"/>
     <use xlink:href="#meb48ca9583" x="426.690906" y="73.074549" style="fill: #0d5915; stroke: #0d5915; stroke-linejoin: bevel"/>
     <use xlink:href="#meb48ca9583" x="469.654594" y="73.052048" style="fill: #0d5915; stroke: #0d5915; stroke-linejoin: bevel"/>
     <use xlink:href="#meb48ca9583" x="513.394995" y="73.034107" style="fill: #0d5915; stroke: #0d5915; stroke-linejoin: bevel"/>
     <use xlink:href="#meb48ca9583" x="557.816309" y="73.019565" style="fill: #0d5915; stroke: #0d5915; stroke-linejoin: bevel"/>
     <use xlink:href="#meb48ca9583" x="601.339212" y="73.007665" style="fill: #0d5915; stroke: #0d5915; stroke-linejoin: bevel"/>
     <use xlink:href="#meb48ca9583" x="645.153694" y="72.997812" style="fill: #0d5915; stroke: #0d5915; stroke-linejoin: bevel"/>
     <use xlink:href="#meb48ca9583" x="688.466261" y="72.989594" style="fill: #0d5915; stroke: #0d5915; stroke-linejoin: bevel"/>
     <use xlink:href="#meb48ca9583" x="735.431967" y="72.982678" style="fill: #0d5915; stroke: #0d5915; stroke-linejoin: bevel"/>
     <use xlink:href="#meb48ca9583" x="783.252998" y="72.976831" style="fill: #0d5915; stroke: #0d5915; stroke-linejoin: bevel"/>
    </g>
   </g>
   <g id="line2d_35">
    <path d="M 152.726055 369.36 
" clip-path="url(#pde8c8200f1)" style="fill: none; stroke-dasharray: 5.55,2.4; stroke-dashoffset: 0; stroke: #e31d1d; stroke-width: 1.5"/>
    <defs>
     <path id="mf05031fab6" d="M 0 3.5 
C 0.928211 3.5 1.81853 3.131218 2.474874 2.474874 
C 3.131218 1.81853 3.5 0.928211 3.5 0 
C 3.5 -0.928211 3.131218 -1.81853 2.474874 -2.474874 
C 1.81853 -3.131218 0.928211 -3.5 0 -3.5 
C -0.928211 -3.5 -1.81853 -3.131218 -2.474874 -2.474874 
C -3.131218 -1.81853 -3.5 -0.928211 -3.5 0 
C -3.5 0.928211 -3.131218 1.81853 -2.474874 2.474874 
C -1.81853 3.131218 -0.928211 3.5 0 3.5 
z
" style="stroke: #e31d1d"/>
    </defs>
    <g clip-path="url(#pde8c8200f1)">
     <use xlink:href="#mf05031fab6" x="152.726055" y="369.36" style="fill: #e31d1d; stroke: #e31d1d"/>
    </g>
   </g>
   <g id="line2d_36">
    <path d="M 152.726055 369.36 
L 777.6 369.36 
" clip-path="url(#pde8c8200f1)" style="fill: none; stroke-dasharray: 5.55,2.4; stroke-dashoffset: 0; stroke: #e31d1d; stroke-width: 1.5"/>
   </g>
   <g id="line2d_37">
    <path d="M 153.033306 369.36 
L 197.276035 114.199907 
L 241.295812 113.581638 
L 286.335634 113.14928 
L 334.569544 112.792429 
L 378.58173 73.832415 
L 423.773871 73.747319 
L 469.124908 73.675077 
L 513.415439 73.61279 
L 558.818426 73.558451 
L 602.884438 73.510603 
L 646.775072 73.4681 
L 690.440383 73.430131 
L 734.611242 73.395974 
L 778.851851 73.365127 
" clip-path="url(#pde8c8200f1)" style="fill: none; stroke: #e31d1d; stroke-width: 1.5; stroke-linecap: square"/>
    <defs>
     <path id="mc528019b51" d="M 0 -5 
L -1.12257 -1.545085 
L -4.755283 -1.545085 
L -1.816356 0.59017 
L -2.938926 4.045085 
L -0 1.90983 
L 2.938926 4.045085 
L 1.816356 0.59017 
L 4.755283 -1.545085 
L 1.12257 -1.545085 
z
" style="stroke: #e31d1d; stroke-linejoin: bevel"/>
    </defs>
    <g clip-path="url(#pde8c8200f1)">
     <use xlink:href="#mc528019b51" x="153.033306" y="369.36" style="fill: #e31d1d; stroke: #e31d1d; stroke-linejoin: bevel"/>
     <use xlink:href="#mc528019b51" x="197.276035" y="114.199907" style="fill: #e31d1d; stroke: #e31d1d; stroke-linejoin: bevel"/>
     <use xlink:href="#mc528019b51" x="241.295812" y="113.581638" style="fill: #e31d1d; stroke: #e31d1d; stroke-linejoin: bevel"/>
     <use xlink:href="#mc528019b51" x="286.335634" y="113.14928" style="fill: #e31d1d; stroke: #e31d1d; stroke-linejoin: bevel"/>
     <use xlink:href="#mc528019b51" x="334.569544" y="112.792429" style="fill: #e31d1d; stroke: #e31d1d; stroke-linejoin: bevel"/>
     <use xlink:href="#mc528019b51" x="378.58173" y="73.832415" style="fill: #e31d1d; stroke: #e31d1d; stroke-linejoin: bevel"/>
     <use xlink:href="#mc528019b51" x="423.773871" y="73.747319" style="fill: #e31d1d; stroke: #e31d1d; stroke-linejoin: bevel"/>
     <use xlink:href="#mc528019b51" x="469.124908" y="73.675077" style="fill: #e31d1d; stroke: #e31d1d; stroke-linejoin: bevel"/>
     <use xlink:href="#mc528019b51" x="513.415439" y="73.61279" style="fill: #e31d1d; stroke: #e31d1d; stroke-linejoin: bevel"/>
     <use xlink:href="#mc528019b51" x="558.818426" y="73.558451" style="fill: #e31d1d; stroke: #e31d1d; stroke-linejoin: bevel"/>
     <use xlink:href="#mc528019b51" x="602.884438" y="73.510603" style="fill: #e31d1d; stroke: #e31d1d; stroke-linejoin: bevel"/>
     <use xlink:href="#mc528019b51" x="646.775072" y="73.4681" style="fill: #e31d1d; stroke: #e31d1d; stroke-linejoin: bevel"/>
     <use xlink:href="#mc528019b51" x="690.440383" y="73.430131" style="fill: #e31d1d; stroke: #e31d1d; stroke-linejoin: bevel"/>
     <use xlink:href="#mc528019b51" x="734.611242" y="73.395974" style="fill: #e31d1d; stroke: #e31d1d; stroke-linejoin: bevel"/>
     <use xlink:href="#mc528019b51" x="778.851851" y="73.365127" style="fill: #e31d1d; stroke: #e31d1d; stroke-linejoin: bevel"/>
    </g>
   </g>
   <g id="patch_3">
    <path d="M 108 384.48 
L 108 51.84 
" style="fill: none; stroke: #000000; stroke-width: 0.8; stroke-linejoin: miter; stroke-linecap: square"/>
   </g>
   <g id="patch_4">
    <path d="M 777.6 384.48 
L 777.6 51.84 
" style="fill: none; stroke: #000000; stroke-width: 0.8; stroke-linejoin: miter; stroke-linecap: square"/>
   </g>
   <g id="patch_5">
    <path d="M 108 384.48 
L 777.6 384.48 
" style="fill: none; stroke: #000000; stroke-width: 0.8; stroke-linejoin: miter; stroke-linecap: square"/>
   </g>
   <g id="patch_6">
    <path d="M 108 51.84 
L 777.6 51.84 
" style="fill: none; stroke: #000000; stroke-width: 0.8; stroke-linejoin: miter; stroke-linecap: square"/>
   </g>
   <g id="legend_1">
    <g id="patch_7">
     <path d="M 115 147.90875 
L 184.628125 147.90875 
Q 186.628125 147.90875 186.628125 145.90875 
L 186.628125 58.84 
Q 186.628125 56.84 184.628125 56.84 
L 115 56.84 
Q 113 56.84 113 58.84 
L 113 145.90875 
Q 113 147.90875 115 147.90875 
z
" style="fill: #ffffff; opacity: 0.8; stroke: #cccccc; stroke-linejoin: miter"/>
    </g>
    <g id="text_14">
     <!-- C values -->
     <g transform="translate(128.471094 68.438437) scale(0.1 -0.1)">
      <use xlink:href="#DejaVuSans-43"/>
      <use xlink:href="#DejaVuSans-20" x="69.824219"/>
      <use xlink:href="#DejaVuSans-76" x="101.611328"/>
      <use xlink:href="#DejaVuSans-61" x="160.791016"/>
      <use xlink:href="#DejaVuSans-6c" x="222.070312"/>
      <use xlink:href="#DejaVuSans-75" x="249.853516"/>
      <use xlink:href="#DejaVuSans-65" x="313.232422"/>
      <use xlink:href="#DejaVuSans-73" x="374.755859"/>
     </g>
    </g>
    <g id="line2d_38">
     <path d="M 117 79.616562 
L 127 79.616562 
L 137 79.616562 
" style="fill: none; stroke: #36ff33; stroke-width: 2; stroke-linecap: square"/>
    </g>
    <g id="text_15">
     <!-- C=1 -->
     <g transform="translate(145 83.116562) scale(0.1 -0.1)">
      <defs>
       <path id="DejaVuSans-3d" d="M 678 2906 
L 4684 2906 
L 4684 2381 
L 678 2381 
L 678 2906 
z
M 678 1631 
L 4684 1631 
L 4684 1100 
L 678 1100 
L 678 1631 
z
" transform="scale(0.015625)"/>
      </defs>
      <use xlink:href="#DejaVuSans-43"/>
      <use xlink:href="#DejaVuSans-3d" x="69.824219"/>
      <use xlink:href="#DejaVuSans-31" x="153.613281"/>
     </g>
    </g>
    <g id="line2d_39">
     <path d="M 117 94.294688 
L 127 94.294688 
L 137 94.294688 
" style="fill: none; stroke: #b6c800; stroke-width: 2; stroke-linecap: square"/>
    </g>
    <g id="text_16">
     <!-- C=0.75 -->
     <g transform="translate(145 97.794688) scale(0.1 -0.1)">
      <defs>
       <path id="DejaVuSans-2e" d="M 684 794 
L 1344 794 
L 1344 0 
L 684 0 
L 684 794 
z
" transform="scale(0.015625)"/>
       <path id="DejaVuSans-37" d="M 525 4666 
L 3525 4666 
L 3525 4397 
L 1831 0 
L 1172 0 
L 2766 4134 
L 525 4134 
L 525 4666 
z
" transform="scale(0.015625)"/>
      </defs>
      <use xlink:href="#DejaVuSans-43"/>
      <use xlink:href="#DejaVuSans-3d" x="69.824219"/>
      <use xlink:href="#DejaVuSans-30" x="153.613281"/>
      <use xlink:href="#DejaVuSans-2e" x="217.236328"/>
      <use xlink:href="#DejaVuSans-37" x="249.023438"/>
      <use xlink:href="#DejaVuSans-35" x="312.646484"/>
     </g>
    </g>
    <g id="line2d_40">
     <path d="M 117 108.972812 
L 127 108.972812 
L 137 108.972812 
" style="fill: none; stroke: #f119c3; stroke-width: 2; stroke-linecap: square"/>
    </g>
    <g id="text_17">
     <!-- C=0.5 -->
     <g transform="translate(145 112.472812) scale(0.1 -0.1)">
      <use xlink:href="#DejaVuSans-43"/>
      <use xlink:href="#DejaVuSans-3d" x="69.824219"/>
      <use xlink:href="#DejaVuSans-30" x="153.613281"/>
      <use xlink:href="#DejaVuSans-2e" x="217.236328"/>
      <use xlink:href="#DejaVuSans-35" x="249.023438"/>
     </g>
    </g>
    <g id="line2d_41">
     <path d="M 117 123.650937 
L 127 123.650937 
L 137 123.650937 
" style="fill: none; stroke: #0d5915; stroke-width: 2; stroke-linecap: square"/>
    </g>
    <g id="text_18">
     <!-- C=0.25 -->
     <g transform="translate(145 127.150937) scale(0.1 -0.1)">
      <use xlink:href="#DejaVuSans-43"/>
      <use xlink:href="#DejaVuSans-3d" x="69.824219"/>
      <use xlink:href="#DejaVuSans-30" x="153.613281"/>
      <use xlink:href="#DejaVuSans-2e" x="217.236328"/>
      <use xlink:href="#DejaVuSans-32" x="249.023438"/>
      <use xlink:href="#DejaVuSans-35" x="312.646484"/>
     </g>
    </g>
    <g id="line2d_42">
     <path d="M 117 138.329062 
L 127 138.329062 
L 137 138.329062 
" style="fill: none; stroke: #e31d1d; stroke-width: 2; stroke-linecap: square"/>
    </g>
    <g id="text_19">
     <!-- C=0.1 -->
     <g transform="translate(145 141.829062) scale(0.1 -0.1)">
      <use xlink:href="#DejaVuSans-43"/>
      <use xlink:href="#DejaVuSans-3d" x="69.824219"/>
      <use xlink:href="#DejaVuSans-30" x="153.613281"/>
      <use xlink:href="#DejaVuSans-2e" x="217.236328"/>
      <use xlink:href="#DejaVuSans-31" x="249.023438"/>
     </g>
    </g>
   </g>
   <g id="legend_2">
    <g id="patch_8">
     <path d="M 712.440625 103.874375 
L 770.6 103.874375 
Q 772.6 103.874375 772.6 101.874375 
L 772.6 58.84 
Q 772.6 56.84 770.6 56.84 
L 712.440625 56.84 
Q 710.440625 56.84 710.440625 58.84 
L 710.440625 101.874375 
Q 710.440625 103.874375 712.440625 103.874375 
z
" style="fill: #ffffff; opacity: 0.8; stroke: #cccccc; stroke-linejoin: miter"/>
    </g>
    <g id="text_20">
     <!-- Optimizers -->
     <g transform="translate(714.440625 68.438437) scale(0.1 -0.1)">
      <defs>
       <path id="DejaVuSans-7a" d="M 353 3500 
L 3084 3500 
L 3084 2975 
L 922 459 
L 3084 459 
L 3084 0 
L 275 0 
L 275 525 
L 2438 3041 
L 353 3041 
L 353 3500 
z
" transform="scale(0.015625)"/>
       <path id="DejaVuSans-72" d="M 2631 2963 
Q 2534 3019 2420 3045 
Q 2306 3072 2169 3072 
Q 1681 3072 1420 2755 
Q 1159 2438 1159 1844 
L 1159 0 
L 581 0 
L 581 3500 
L 1159 3500 
L 1159 2956 
Q 1341 3275 1631 3429 
Q 1922 3584 2338 3584 
Q 2397 3584 2469 3576 
Q 2541 3569 2628 3553 
L 2631 2963 
z
" transform="scale(0.015625)"/>
      </defs>
      <use xlink:href="#DejaVuSans-4f"/>
      <use xlink:href="#DejaVuSans-70" x="78.710938"/>
      <use xlink:href="#DejaVuSans-74" x="142.1875"/>
      <use xlink:href="#DejaVuSans-69" x="181.396484"/>
      <use xlink:href="#DejaVuSans-6d" x="209.179688"/>
      <use xlink:href="#DejaVuSans-69" x="306.591797"/>
      <use xlink:href="#DejaVuSans-7a" x="334.375"/>
      <use xlink:href="#DejaVuSans-65" x="386.865234"/>
      <use xlink:href="#DejaVuSans-72" x="448.388672"/>
      <use xlink:href="#DejaVuSans-73" x="489.501953"/>
     </g>
    </g>
    <g id="line2d_43">
     <path d="M 717.210938 79.616562 
L 727.210938 79.616562 
L 737.210938 79.616562 
" style="fill: none; stroke-dasharray: 5.55,2.4; stroke-dashoffset: 0; stroke: #000000; stroke-width: 1.5"/>
     <defs>
      <path id="m44d5c10d9b" d="M 0 3.5 
C 0.928211 3.5 1.81853 3.131218 2.474874 2.474874 
C 3.131218 1.81853 3.5 0.928211 3.5 0 
C 3.5 -0.928211 3.131218 -1.81853 2.474874 -2.474874 
C 1.81853 -3.131218 0.928211 -3.5 0 -3.5 
C -0.928211 -3.5 -1.81853 -3.131218 -2.474874 -2.474874 
C -3.131218 -1.81853 -3.5 -0.928211 -3.5 0 
C -3.5 0.928211 -3.131218 1.81853 -2.474874 2.474874 
C -1.81853 3.131218 -0.928211 3.5 0 3.5 
z
" style="stroke: #000000"/>
     </defs>
     <g>
      <use xlink:href="#m44d5c10d9b" x="727.210938" y="79.616562" style="stroke: #000000"/>
     </g>
    </g>
    <g id="text_21">
     <!-- PM -->
     <g transform="translate(745.210938 83.116562) scale(0.1 -0.1)">
      <defs>
       <path id="DejaVuSans-50" d="M 1259 4147 
L 1259 2394 
L 2053 2394 
Q 2494 2394 2734 2622 
Q 2975 2850 2975 3272 
Q 2975 3691 2734 3919 
Q 2494 4147 2053 4147 
L 1259 4147 
z
M 628 4666 
L 2053 4666 
Q 2838 4666 3239 4311 
Q 3641 3956 3641 3272 
Q 3641 2581 3239 2228 
Q 2838 1875 2053 1875 
L 1259 1875 
L 1259 0 
L 628 0 
L 628 4666 
z
" transform="scale(0.015625)"/>
       <path id="DejaVuSans-4d" d="M 628 4666 
L 1569 4666 
L 2759 1491 
L 3956 4666 
L 4897 4666 
L 4897 0 
L 4281 0 
L 4281 4097 
L 3078 897 
L 2444 897 
L 1241 4097 
L 1241 0 
L 628 0 
L 628 4666 
z
" transform="scale(0.015625)"/>
      </defs>
      <use xlink:href="#DejaVuSans-50"/>
      <use xlink:href="#DejaVuSans-4d" x="60.302734"/>
     </g>
    </g>
    <g id="line2d_44">
     <path d="M 717.210938 94.294688 
L 727.210938 94.294688 
L 737.210938 94.294688 
" style="fill: none; stroke: #000000; stroke-width: 1.5; stroke-linecap: square"/>
     <defs>
      <path id="me596c42b88" d="M 0 -5 
L -1.12257 -1.545085 
L -4.755283 -1.545085 
L -1.816356 0.59017 
L -2.938926 4.045085 
L -0 1.90983 
L 2.938926 4.045085 
L 1.816356 0.59017 
L 4.755283 -1.545085 
L 1.12257 -1.545085 
z
" style="stroke: #000000; stroke-linejoin: bevel"/>
     </defs>
     <g>
      <use xlink:href="#me596c42b88" x="727.210938" y="94.294688" style="stroke: #000000; stroke-linejoin: bevel"/>
     </g>
    </g>
    <g id="text_22">
     <!-- PGA -->
     <g transform="translate(745.210938 97.794688) scale(0.1 -0.1)">
      <defs>
       <path id="DejaVuSans-47" d="M 3809 666 
L 3809 1919 
L 2778 1919 
L 2778 2438 
L 4434 2438 
L 4434 434 
Q 4069 175 3628 42 
Q 3188 -91 2688 -91 
Q 1594 -91 976 548 
Q 359 1188 359 2328 
Q 359 3472 976 4111 
Q 1594 4750 2688 4750 
Q 3144 4750 3555 4637 
Q 3966 4525 4313 4306 
L 4313 3634 
Q 3963 3931 3569 4081 
Q 3175 4231 2741 4231 
Q 1884 4231 1454 3753 
Q 1025 3275 1025 2328 
Q 1025 1384 1454 906 
Q 1884 428 2741 428 
Q 3075 428 3337 486 
Q 3600 544 3809 666 
z
" transform="scale(0.015625)"/>
       <path id="DejaVuSans-41" d="M 2188 4044 
L 1331 1722 
L 3047 1722 
L 2188 4044 
z
M 1831 4666 
L 2547 4666 
L 4325 0 
L 3669 0 
L 3244 1197 
L 1141 1197 
L 716 0 
L 50 0 
L 1831 4666 
z
" transform="scale(0.015625)"/>
      </defs>
      <use xlink:href="#DejaVuSans-50"/>
      <use xlink:href="#DejaVuSans-47" x="60.302734"/>
      <use xlink:href="#DejaVuSans-41" x="137.792969"/>
     </g>
    </g>
   </g>
  </g>
 </g>
 <defs>
  <clipPath id="pde8c8200f1">
   <rect x="108" y="51.84" width="669.6" height="332.64"/>
  </clipPath>
 </defs>
</svg>
