<?xml version="1.0" encoding="utf-8" standalone="no"?>
<!DOCTYPE svg PUBLIC "-//W3C//DTD SVG 1.1//EN"
  "http://www.w3.org/Graphics/SVG/1.1/DTD/svg11.dtd">
<svg xmlns:xlink="http://www.w3.org/1999/xlink" width="576pt" height="432pt" viewBox="0 0 576 432" xmlns="http://www.w3.org/2000/svg" version="1.1">
 <metadata>
  <rdf:RDF xmlns:dc="http://purl.org/dc/elements/1.1/" xmlns:cc="http://creativecommons.org/ns#" xmlns:rdf="http://www.w3.org/1999/02/22-rdf-syntax-ns#">
   <cc:Work>
    <dc:type rdf:resource="http://purl.org/dc/dcmitype/StillImage"/>
    <dc:date>2024-12-21T15:41:47.833294</dc:date>
    <dc:format>image/svg+xml</dc:format>
    <dc:creator>
     <cc:Agent>
      <dc:title>Matplotlib v3.7.1, https://matplotlib.org/</dc:title>
     </cc:Agent>
    </dc:creator>
   </cc:Work>
  </rdf:RDF>
 </metadata>
 <defs>
  <style type="text/css">*{stroke-linejoin: round; stroke-linecap: butt}</style>
 </defs>
 <g id="figure_1">
  <g id="patch_1">
   <path d="M 0 432 
L 576 432 
L 576 0 
L 0 0 
z
" style="fill: #ffffff"/>
  </g>
  <g id="axes_1">
   <g id="patch_2">
    <path d="M 72 384.48 
L 518.4 384.48 
L 518.4 51.84 
L 72 51.84 
z
" style="fill: #ffffff"/>
   </g>
   <g id="matplotlib.axis_1">
    <g id="xtick_1">
     <g id="line2d_1">
      <path d="M 72 384.48 
L 72 51.84 
" clip-path="url(#pea3e86bc1f)" style="fill: none; stroke: #b0b0b0; stroke-width: 0.8; stroke-linecap: square"/>
     </g>
     <g id="line2d_2">
      <defs>
       <path id="m82c0d97671" d="M 0 0 
L 0 3.5 
" style="stroke: #000000; stroke-width: 0.8"/>
      </defs>
      <g>
       <use xlink:href="#m82c0d97671" x="72" y="384.48" style="stroke: #000000; stroke-width: 0.8"/>
      </g>
     </g>
     <g id="text_1">
      <!-- 0 -->
      <g transform="translate(68.81875 399.078438) scale(0.1 -0.1)">
       <defs>
        <path id="DejaVuSans-30" d="M 2034 4250 
Q 1547 4250 1301 3770 
Q 1056 3291 1056 2328 
Q 1056 1369 1301 889 
Q 1547 409 2034 409 
Q 2525 409 2770 889 
Q 3016 1369 3016 2328 
Q 3016 3291 2770 3770 
Q 2525 4250 2034 4250 
z
M 2034 4750 
Q 2819 4750 3233 4129 
Q 3647 3509 3647 2328 
Q 3647 1150 3233 529 
Q 2819 -91 2034 -91 
Q 1250 -91 836 529 
Q 422 1150 422 2328 
Q 422 3509 836 4129 
Q 1250 4750 2034 4750 
z
" transform="scale(0.015625)"/>
       </defs>
       <use xlink:href="#DejaVuSans-30"/>
      </g>
     </g>
    </g>
    <g id="xtick_2">
     <g id="line2d_3">
      <path d="M 161.28 384.48 
L 161.28 51.84 
" clip-path="url(#pea3e86bc1f)" style="fill: none; stroke: #b0b0b0; stroke-width: 0.8; stroke-linecap: square"/>
     </g>
     <g id="line2d_4">
      <g>
       <use xlink:href="#m82c0d97671" x="161.28" y="384.48" style="stroke: #000000; stroke-width: 0.8"/>
      </g>
     </g>
     <g id="text_2">
      <!-- 20 -->
      <g transform="translate(154.9175 399.078438) scale(0.1 -0.1)">
       <defs>
        <path id="DejaVuSans-32" d="M 1228 531 
L 3431 531 
L 3431 0 
L 469 0 
L 469 531 
Q 828 903 1448 1529 
Q 2069 2156 2228 2338 
Q 2531 2678 2651 2914 
Q 2772 3150 2772 3378 
Q 2772 3750 2511 3984 
Q 2250 4219 1831 4219 
Q 1534 4219 1204 4116 
Q 875 4013 500 3803 
L 500 4441 
Q 881 4594 1212 4672 
Q 1544 4750 1819 4750 
Q 2544 4750 2975 4387 
Q 3406 4025 3406 3419 
Q 3406 3131 3298 2873 
Q 3191 2616 2906 2266 
Q 2828 2175 2409 1742 
Q 1991 1309 1228 531 
z
" transform="scale(0.015625)"/>
       </defs>
       <use xlink:href="#DejaVuSans-32"/>
       <use xlink:href="#DejaVuSans-30" x="63.623047"/>
      </g>
     </g>
    </g>
    <g id="xtick_3">
     <g id="line2d_5">
      <path d="M 250.56 384.48 
L 250.56 51.84 
" clip-path="url(#pea3e86bc1f)" style="fill: none; stroke: #b0b0b0; stroke-width: 0.8; stroke-linecap: square"/>
     </g>
     <g id="line2d_6">
      <g>
       <use xlink:href="#m82c0d97671" x="250.56" y="384.48" style="stroke: #000000; stroke-width: 0.8"/>
      </g>
     </g>
     <g id="text_3">
      <!-- 40 -->
      <g transform="translate(244.1975 399.078438) scale(0.1 -0.1)">
       <defs>
        <path id="DejaVuSans-34" d="M 2419 4116 
L 825 1625 
L 2419 1625 
L 2419 4116 
z
M 2253 4666 
L 3047 4666 
L 3047 1625 
L 3713 1625 
L 3713 1100 
L 3047 1100 
L 3047 0 
L 2419 0 
L 2419 1100 
L 313 1100 
L 313 1709 
L 2253 4666 
z
" transform="scale(0.015625)"/>
       </defs>
       <use xlink:href="#DejaVuSans-34"/>
       <use xlink:href="#DejaVuSans-30" x="63.623047"/>
      </g>
     </g>
    </g>
    <g id="xtick_4">
     <g id="line2d_7">
      <path d="M 339.84 384.48 
L 339.84 51.84 
" clip-path="url(#pea3e86bc1f)" style="fill: none; stroke: #b0b0b0; stroke-width: 0.8; stroke-linecap: square"/>
     </g>
     <g id="line2d_8">
      <g>
       <use xlink:href="#m82c0d97671" x="339.84" y="384.48" style="stroke: #000000; stroke-width: 0.8"/>
      </g>
     </g>
     <g id="text_4">
      <!-- 60 -->
      <g transform="translate(333.4775 399.078438) scale(0.1 -0.1)">
       <defs>
        <path id="DejaVuSans-36" d="M 2113 2584 
Q 1688 2584 1439 2293 
Q 1191 2003 1191 1497 
Q 1191 994 1439 701 
Q 1688 409 2113 409 
Q 2538 409 2786 701 
Q 3034 994 3034 1497 
Q 3034 2003 2786 2293 
Q 2538 2584 2113 2584 
z
M 3366 4563 
L 3366 3988 
Q 3128 4100 2886 4159 
Q 2644 4219 2406 4219 
Q 1781 4219 1451 3797 
Q 1122 3375 1075 2522 
Q 1259 2794 1537 2939 
Q 1816 3084 2150 3084 
Q 2853 3084 3261 2657 
Q 3669 2231 3669 1497 
Q 3669 778 3244 343 
Q 2819 -91 2113 -91 
Q 1303 -91 875 529 
Q 447 1150 447 2328 
Q 447 3434 972 4092 
Q 1497 4750 2381 4750 
Q 2619 4750 2861 4703 
Q 3103 4656 3366 4563 
z
" transform="scale(0.015625)"/>
       </defs>
       <use xlink:href="#DejaVuSans-36"/>
       <use xlink:href="#DejaVuSans-30" x="63.623047"/>
      </g>
     </g>
    </g>
    <g id="xtick_5">
     <g id="line2d_9">
      <path d="M 429.12 384.48 
L 429.12 51.84 
" clip-path="url(#pea3e86bc1f)" style="fill: none; stroke: #b0b0b0; stroke-width: 0.8; stroke-linecap: square"/>
     </g>
     <g id="line2d_10">
      <g>
       <use xlink:href="#m82c0d97671" x="429.12" y="384.48" style="stroke: #000000; stroke-width: 0.8"/>
      </g>
     </g>
     <g id="text_5">
      <!-- 80 -->
      <g transform="translate(422.7575 399.078438) scale(0.1 -0.1)">
       <defs>
        <path id="DejaVuSans-38" d="M 2034 2216 
Q 1584 2216 1326 1975 
Q 1069 1734 1069 1313 
Q 1069 891 1326 650 
Q 1584 409 2034 409 
Q 2484 409 2743 651 
Q 3003 894 3003 1313 
Q 3003 1734 2745 1975 
Q 2488 2216 2034 2216 
z
M 1403 2484 
Q 997 2584 770 2862 
Q 544 3141 544 3541 
Q 544 4100 942 4425 
Q 1341 4750 2034 4750 
Q 2731 4750 3128 4425 
Q 3525 4100 3525 3541 
Q 3525 3141 3298 2862 
Q 3072 2584 2669 2484 
Q 3125 2378 3379 2068 
Q 3634 1759 3634 1313 
Q 3634 634 3220 271 
Q 2806 -91 2034 -91 
Q 1263 -91 848 271 
Q 434 634 434 1313 
Q 434 1759 690 2068 
Q 947 2378 1403 2484 
z
M 1172 3481 
Q 1172 3119 1398 2916 
Q 1625 2713 2034 2713 
Q 2441 2713 2670 2916 
Q 2900 3119 2900 3481 
Q 2900 3844 2670 4047 
Q 2441 4250 2034 4250 
Q 1625 4250 1398 4047 
Q 1172 3844 1172 3481 
z
" transform="scale(0.015625)"/>
       </defs>
       <use xlink:href="#DejaVuSans-38"/>
       <use xlink:href="#DejaVuSans-30" x="63.623047"/>
      </g>
     </g>
    </g>
    <g id="xtick_6">
     <g id="line2d_11">
      <path d="M 518.4 384.48 
L 518.4 51.84 
" clip-path="url(#pea3e86bc1f)" style="fill: none; stroke: #b0b0b0; stroke-width: 0.8; stroke-linecap: square"/>
     </g>
     <g id="line2d_12">
      <g>
       <use xlink:href="#m82c0d97671" x="518.4" y="384.48" style="stroke: #000000; stroke-width: 0.8"/>
      </g>
     </g>
     <g id="text_6">
      <!-- 100 -->
      <g transform="translate(508.85625 399.078438) scale(0.1 -0.1)">
       <defs>
        <path id="DejaVuSans-31" d="M 794 531 
L 1825 531 
L 1825 4091 
L 703 3866 
L 703 4441 
L 1819 4666 
L 2450 4666 
L 2450 531 
L 3481 531 
L 3481 0 
L 794 0 
L 794 531 
z
" transform="scale(0.015625)"/>
       </defs>
       <use xlink:href="#DejaVuSans-31"/>
       <use xlink:href="#DejaVuSans-30" x="63.623047"/>
       <use xlink:href="#DejaVuSans-30" x="127.246094"/>
      </g>
     </g>
    </g>
    <g id="text_7">
     <!-- Computational time [s] -->
     <g transform="translate(214.281094 415.795938) scale(0.14 -0.14)">
      <defs>
       <path id="DejaVuSans-43" d="M 4122 4306 
L 4122 3641 
Q 3803 3938 3442 4084 
Q 3081 4231 2675 4231 
Q 1875 4231 1450 3742 
Q 1025 3253 1025 2328 
Q 1025 1406 1450 917 
Q 1875 428 2675 428 
Q 3081 428 3442 575 
Q 3803 722 4122 1019 
L 4122 359 
Q 3791 134 3420 21 
Q 3050 -91 2638 -91 
Q 1578 -91 968 557 
Q 359 1206 359 2328 
Q 359 3453 968 4101 
Q 1578 4750 2638 4750 
Q 3056 4750 3426 4639 
Q 3797 4528 4122 4306 
z
" transform="scale(0.015625)"/>
       <path id="DejaVuSans-6f" d="M 1959 3097 
Q 1497 3097 1228 2736 
Q 959 2375 959 1747 
Q 959 1119 1226 758 
Q 1494 397 1959 397 
Q 2419 397 2687 759 
Q 2956 1122 2956 1747 
Q 2956 2369 2687 2733 
Q 2419 3097 1959 3097 
z
M 1959 3584 
Q 2709 3584 3137 3096 
Q 3566 2609 3566 1747 
Q 3566 888 3137 398 
Q 2709 -91 1959 -91 
Q 1206 -91 779 398 
Q 353 888 353 1747 
Q 353 2609 779 3096 
Q 1206 3584 1959 3584 
z
" transform="scale(0.015625)"/>
       <path id="DejaVuSans-6d" d="M 3328 2828 
Q 3544 3216 3844 3400 
Q 4144 3584 4550 3584 
Q 5097 3584 5394 3201 
Q 5691 2819 5691 2113 
L 5691 0 
L 5113 0 
L 5113 2094 
Q 5113 2597 4934 2840 
Q 4756 3084 4391 3084 
Q 3944 3084 3684 2787 
Q 3425 2491 3425 1978 
L 3425 0 
L 2847 0 
L 2847 2094 
Q 2847 2600 2669 2842 
Q 2491 3084 2119 3084 
Q 1678 3084 1418 2786 
Q 1159 2488 1159 1978 
L 1159 0 
L 581 0 
L 581 3500 
L 1159 3500 
L 1159 2956 
Q 1356 3278 1631 3431 
Q 1906 3584 2284 3584 
Q 2666 3584 2933 3390 
Q 3200 3197 3328 2828 
z
" transform="scale(0.015625)"/>
       <path id="DejaVuSans-70" d="M 1159 525 
L 1159 -1331 
L 581 -1331 
L 581 3500 
L 1159 3500 
L 1159 2969 
Q 1341 3281 1617 3432 
Q 1894 3584 2278 3584 
Q 2916 3584 3314 3078 
Q 3713 2572 3713 1747 
Q 3713 922 3314 415 
Q 2916 -91 2278 -91 
Q 1894 -91 1617 61 
Q 1341 213 1159 525 
z
M 3116 1747 
Q 3116 2381 2855 2742 
Q 2594 3103 2138 3103 
Q 1681 3103 1420 2742 
Q 1159 2381 1159 1747 
Q 1159 1113 1420 752 
Q 1681 391 2138 391 
Q 2594 391 2855 752 
Q 3116 1113 3116 1747 
z
" transform="scale(0.015625)"/>
       <path id="DejaVuSans-75" d="M 544 1381 
L 544 3500 
L 1119 3500 
L 1119 1403 
Q 1119 906 1312 657 
Q 1506 409 1894 409 
Q 2359 409 2629 706 
Q 2900 1003 2900 1516 
L 2900 3500 
L 3475 3500 
L 3475 0 
L 2900 0 
L 2900 538 
Q 2691 219 2414 64 
Q 2138 -91 1772 -91 
Q 1169 -91 856 284 
Q 544 659 544 1381 
z
M 1991 3584 
L 1991 3584 
z
" transform="scale(0.015625)"/>
       <path id="DejaVuSans-74" d="M 1172 4494 
L 1172 3500 
L 2356 3500 
L 2356 3053 
L 1172 3053 
L 1172 1153 
Q 1172 725 1289 603 
Q 1406 481 1766 481 
L 2356 481 
L 2356 0 
L 1766 0 
Q 1100 0 847 248 
Q 594 497 594 1153 
L 594 3053 
L 172 3053 
L 172 3500 
L 594 3500 
L 594 4494 
L 1172 4494 
z
" transform="scale(0.015625)"/>
       <path id="DejaVuSans-61" d="M 2194 1759 
Q 1497 1759 1228 1600 
Q 959 1441 959 1056 
Q 959 750 1161 570 
Q 1363 391 1709 391 
Q 2188 391 2477 730 
Q 2766 1069 2766 1631 
L 2766 1759 
L 2194 1759 
z
M 3341 1997 
L 3341 0 
L 2766 0 
L 2766 531 
Q 2569 213 2275 61 
Q 1981 -91 1556 -91 
Q 1019 -91 701 211 
Q 384 513 384 1019 
Q 384 1609 779 1909 
Q 1175 2209 1959 2209 
L 2766 2209 
L 2766 2266 
Q 2766 2663 2505 2880 
Q 2244 3097 1772 3097 
Q 1472 3097 1187 3025 
Q 903 2953 641 2809 
L 641 3341 
Q 956 3463 1253 3523 
Q 1550 3584 1831 3584 
Q 2591 3584 2966 3190 
Q 3341 2797 3341 1997 
z
" transform="scale(0.015625)"/>
       <path id="DejaVuSans-69" d="M 603 3500 
L 1178 3500 
L 1178 0 
L 603 0 
L 603 3500 
z
M 603 4863 
L 1178 4863 
L 1178 4134 
L 603 4134 
L 603 4863 
z
" transform="scale(0.015625)"/>
       <path id="DejaVuSans-6e" d="M 3513 2113 
L 3513 0 
L 2938 0 
L 2938 2094 
Q 2938 2591 2744 2837 
Q 2550 3084 2163 3084 
Q 1697 3084 1428 2787 
Q 1159 2491 1159 1978 
L 1159 0 
L 581 0 
L 581 3500 
L 1159 3500 
L 1159 2956 
Q 1366 3272 1645 3428 
Q 1925 3584 2291 3584 
Q 2894 3584 3203 3211 
Q 3513 2838 3513 2113 
z
" transform="scale(0.015625)"/>
       <path id="DejaVuSans-6c" d="M 603 4863 
L 1178 4863 
L 1178 0 
L 603 0 
L 603 4863 
z
" transform="scale(0.015625)"/>
       <path id="DejaVuSans-20" transform="scale(0.015625)"/>
       <path id="DejaVuSans-65" d="M 3597 1894 
L 3597 1613 
L 953 1613 
Q 991 1019 1311 708 
Q 1631 397 2203 397 
Q 2534 397 2845 478 
Q 3156 559 3463 722 
L 3463 178 
Q 3153 47 2828 -22 
Q 2503 -91 2169 -91 
Q 1331 -91 842 396 
Q 353 884 353 1716 
Q 353 2575 817 3079 
Q 1281 3584 2069 3584 
Q 2775 3584 3186 3129 
Q 3597 2675 3597 1894 
z
M 3022 2063 
Q 3016 2534 2758 2815 
Q 2500 3097 2075 3097 
Q 1594 3097 1305 2825 
Q 1016 2553 972 2059 
L 3022 2063 
z
" transform="scale(0.015625)"/>
       <path id="DejaVuSans-5b" d="M 550 4863 
L 1875 4863 
L 1875 4416 
L 1125 4416 
L 1125 -397 
L 1875 -397 
L 1875 -844 
L 550 -844 
L 550 4863 
z
" transform="scale(0.015625)"/>
       <path id="DejaVuSans-73" d="M 2834 3397 
L 2834 2853 
Q 2591 2978 2328 3040 
Q 2066 3103 1784 3103 
Q 1356 3103 1142 2972 
Q 928 2841 928 2578 
Q 928 2378 1081 2264 
Q 1234 2150 1697 2047 
L 1894 2003 
Q 2506 1872 2764 1633 
Q 3022 1394 3022 966 
Q 3022 478 2636 193 
Q 2250 -91 1575 -91 
Q 1294 -91 989 -36 
Q 684 19 347 128 
L 347 722 
Q 666 556 975 473 
Q 1284 391 1588 391 
Q 1994 391 2212 530 
Q 2431 669 2431 922 
Q 2431 1156 2273 1281 
Q 2116 1406 1581 1522 
L 1381 1569 
Q 847 1681 609 1914 
Q 372 2147 372 2553 
Q 372 3047 722 3315 
Q 1072 3584 1716 3584 
Q 2034 3584 2315 3537 
Q 2597 3491 2834 3397 
z
" transform="scale(0.015625)"/>
       <path id="DejaVuSans-5d" d="M 1947 4863 
L 1947 -844 
L 622 -844 
L 622 -397 
L 1369 -397 
L 1369 4416 
L 622 4416 
L 622 4863 
L 1947 4863 
z
" transform="scale(0.015625)"/>
      </defs>
      <use xlink:href="#DejaVuSans-43"/>
      <use xlink:href="#DejaVuSans-6f" x="69.824219"/>
      <use xlink:href="#DejaVuSans-6d" x="131.005859"/>
      <use xlink:href="#DejaVuSans-70" x="228.417969"/>
      <use xlink:href="#DejaVuSans-75" x="291.894531"/>
      <use xlink:href="#DejaVuSans-74" x="355.273438"/>
      <use xlink:href="#DejaVuSans-61" x="394.482422"/>
      <use xlink:href="#DejaVuSans-74" x="455.761719"/>
      <use xlink:href="#DejaVuSans-69" x="494.970703"/>
      <use xlink:href="#DejaVuSans-6f" x="522.753906"/>
      <use xlink:href="#DejaVuSans-6e" x="583.935547"/>
      <use xlink:href="#DejaVuSans-61" x="647.314453"/>
      <use xlink:href="#DejaVuSans-6c" x="708.59375"/>
      <use xlink:href="#DejaVuSans-20" x="736.376953"/>
      <use xlink:href="#DejaVuSans-74" x="768.164062"/>
      <use xlink:href="#DejaVuSans-69" x="807.373047"/>
      <use xlink:href="#DejaVuSans-6d" x="835.15625"/>
      <use xlink:href="#DejaVuSans-65" x="932.568359"/>
      <use xlink:href="#DejaVuSans-20" x="994.091797"/>
      <use xlink:href="#DejaVuSans-5b" x="1025.878906"/>
      <use xlink:href="#DejaVuSans-73" x="1064.892578"/>
      <use xlink:href="#DejaVuSans-5d" x="1116.992188"/>
     </g>
    </g>
   </g>
   <g id="matplotlib.axis_2">
    <g id="ytick_1">
     <g id="line2d_13">
      <path d="M 72 340.20572 
L 518.4 340.20572 
" clip-path="url(#pea3e86bc1f)" style="fill: none; stroke: #b0b0b0; stroke-width: 0.8; stroke-linecap: square"/>
     </g>
     <g id="line2d_14">
      <defs>
       <path id="md250787840" d="M 0 0 
L -3.5 0 
" style="stroke: #000000; stroke-width: 0.8"/>
      </defs>
      <g>
       <use xlink:href="#md250787840" x="72" y="340.20572" style="stroke: #000000; stroke-width: 0.8"/>
      </g>
     </g>
     <g id="text_8">
      <!-- −40 -->
      <g transform="translate(43.895313 344.004939) scale(0.1 -0.1)">
       <defs>
        <path id="DejaVuSans-2212" d="M 678 2272 
L 4684 2272 
L 4684 1741 
L 678 1741 
L 678 2272 
z
" transform="scale(0.015625)"/>
       </defs>
       <use xlink:href="#DejaVuSans-2212"/>
       <use xlink:href="#DejaVuSans-34" x="83.789062"/>
       <use xlink:href="#DejaVuSans-30" x="147.412109"/>
      </g>
     </g>
    </g>
    <g id="ytick_2">
     <g id="line2d_15">
      <path d="M 72 278.257881 
L 518.4 278.257881 
" clip-path="url(#pea3e86bc1f)" style="fill: none; stroke: #b0b0b0; stroke-width: 0.8; stroke-linecap: square"/>
     </g>
     <g id="line2d_16">
      <g>
       <use xlink:href="#md250787840" x="72" y="278.257881" style="stroke: #000000; stroke-width: 0.8"/>
      </g>
     </g>
     <g id="text_9">
      <!-- −20 -->
      <g transform="translate(43.895313 282.057099) scale(0.1 -0.1)">
       <use xlink:href="#DejaVuSans-2212"/>
       <use xlink:href="#DejaVuSans-32" x="83.789062"/>
       <use xlink:href="#DejaVuSans-30" x="147.412109"/>
      </g>
     </g>
    </g>
    <g id="ytick_3">
     <g id="line2d_17">
      <path d="M 72 216.310041 
L 518.4 216.310041 
" clip-path="url(#pea3e86bc1f)" style="fill: none; stroke: #b0b0b0; stroke-width: 0.8; stroke-linecap: square"/>
     </g>
     <g id="line2d_18">
      <g>
       <use xlink:href="#md250787840" x="72" y="216.310041" style="stroke: #000000; stroke-width: 0.8"/>
      </g>
     </g>
     <g id="text_10">
      <!-- 0 -->
      <g transform="translate(58.6375 220.10926) scale(0.1 -0.1)">
       <use xlink:href="#DejaVuSans-30"/>
      </g>
     </g>
    </g>
    <g id="ytick_4">
     <g id="line2d_19">
      <path d="M 72 154.362202 
L 518.4 154.362202 
" clip-path="url(#pea3e86bc1f)" style="fill: none; stroke: #b0b0b0; stroke-width: 0.8; stroke-linecap: square"/>
     </g>
     <g id="line2d_20">
      <g>
       <use xlink:href="#md250787840" x="72" y="154.362202" style="stroke: #000000; stroke-width: 0.8"/>
      </g>
     </g>
     <g id="text_11">
      <!-- 20 -->
      <g transform="translate(52.275 158.161421) scale(0.1 -0.1)">
       <use xlink:href="#DejaVuSans-32"/>
       <use xlink:href="#DejaVuSans-30" x="63.623047"/>
      </g>
     </g>
    </g>
    <g id="ytick_5">
     <g id="line2d_21">
      <path d="M 72 92.414363 
L 518.4 92.414363 
" clip-path="url(#pea3e86bc1f)" style="fill: none; stroke: #b0b0b0; stroke-width: 0.8; stroke-linecap: square"/>
     </g>
     <g id="line2d_22">
      <g>
       <use xlink:href="#md250787840" x="72" y="92.414363" style="stroke: #000000; stroke-width: 0.8"/>
      </g>
     </g>
     <g id="text_12">
      <!-- 40 -->
      <g transform="translate(52.275 96.213581) scale(0.1 -0.1)">
       <use xlink:href="#DejaVuSans-34"/>
       <use xlink:href="#DejaVuSans-30" x="63.623047"/>
      </g>
     </g>
    </g>
    <g id="text_13">
     <!-- Objective value -->
     <g transform="translate(36.98375 272.699844) rotate(-90) scale(0.14 -0.14)">
      <defs>
       <path id="DejaVuSans-4f" d="M 2522 4238 
Q 1834 4238 1429 3725 
Q 1025 3213 1025 2328 
Q 1025 1447 1429 934 
Q 1834 422 2522 422 
Q 3209 422 3611 934 
Q 4013 1447 4013 2328 
Q 4013 3213 3611 3725 
Q 3209 4238 2522 4238 
z
M 2522 4750 
Q 3503 4750 4090 4092 
Q 4678 3434 4678 2328 
Q 4678 1225 4090 567 
Q 3503 -91 2522 -91 
Q 1538 -91 948 565 
Q 359 1222 359 2328 
Q 359 3434 948 4092 
Q 1538 4750 2522 4750 
z
" transform="scale(0.015625)"/>
       <path id="DejaVuSans-62" d="M 3116 1747 
Q 3116 2381 2855 2742 
Q 2594 3103 2138 3103 
Q 1681 3103 1420 2742 
Q 1159 2381 1159 1747 
Q 1159 1113 1420 752 
Q 1681 391 2138 391 
Q 2594 391 2855 752 
Q 3116 1113 3116 1747 
z
M 1159 2969 
Q 1341 3281 1617 3432 
Q 1894 3584 2278 3584 
Q 2916 3584 3314 3078 
Q 3713 2572 3713 1747 
Q 3713 922 3314 415 
Q 2916 -91 2278 -91 
Q 1894 -91 1617 61 
Q 1341 213 1159 525 
L 1159 0 
L 581 0 
L 581 4863 
L 1159 4863 
L 1159 2969 
z
" transform="scale(0.015625)"/>
       <path id="DejaVuSans-6a" d="M 603 3500 
L 1178 3500 
L 1178 -63 
Q 1178 -731 923 -1031 
Q 669 -1331 103 -1331 
L -116 -1331 
L -116 -844 
L 38 -844 
Q 366 -844 484 -692 
Q 603 -541 603 -63 
L 603 3500 
z
M 603 4863 
L 1178 4863 
L 1178 4134 
L 603 4134 
L 603 4863 
z
" transform="scale(0.015625)"/>
       <path id="DejaVuSans-63" d="M 3122 3366 
L 3122 2828 
Q 2878 2963 2633 3030 
Q 2388 3097 2138 3097 
Q 1578 3097 1268 2742 
Q 959 2388 959 1747 
Q 959 1106 1268 751 
Q 1578 397 2138 397 
Q 2388 397 2633 464 
Q 2878 531 3122 666 
L 3122 134 
Q 2881 22 2623 -34 
Q 2366 -91 2075 -91 
Q 1284 -91 818 406 
Q 353 903 353 1747 
Q 353 2603 823 3093 
Q 1294 3584 2113 3584 
Q 2378 3584 2631 3529 
Q 2884 3475 3122 3366 
z
" transform="scale(0.015625)"/>
       <path id="DejaVuSans-76" d="M 191 3500 
L 800 3500 
L 1894 563 
L 2988 3500 
L 3597 3500 
L 2284 0 
L 1503 0 
L 191 3500 
z
" transform="scale(0.015625)"/>
      </defs>
      <use xlink:href="#DejaVuSans-4f"/>
      <use xlink:href="#DejaVuSans-62" x="78.710938"/>
      <use xlink:href="#DejaVuSans-6a" x="142.1875"/>
      <use xlink:href="#DejaVuSans-65" x="169.970703"/>
      <use xlink:href="#DejaVuSans-63" x="231.494141"/>
      <use xlink:href="#DejaVuSans-74" x="286.474609"/>
      <use xlink:href="#DejaVuSans-69" x="325.683594"/>
      <use xlink:href="#DejaVuSans-76" x="353.466797"/>
      <use xlink:href="#DejaVuSans-65" x="412.646484"/>
      <use xlink:href="#DejaVuSans-20" x="474.169922"/>
      <use xlink:href="#DejaVuSans-76" x="505.957031"/>
      <use xlink:href="#DejaVuSans-61" x="565.136719"/>
      <use xlink:href="#DejaVuSans-6c" x="626.416016"/>
      <use xlink:href="#DejaVuSans-75" x="654.199219"/>
      <use xlink:href="#DejaVuSans-65" x="717.578125"/>
     </g>
    </g>
   </g>
   <g id="line2d_23">
    <path d="M 73.303634 235.212842 
" clip-path="url(#pea3e86bc1f)" style="fill: none; stroke: #36ff33; stroke-width: 1.5; stroke-linecap: square"/>
    <defs>
     <path id="m5e80404be4" d="M -6 6 
L 6 6 
L 6 -6 
L -6 -6 
z
" style="stroke: #36ff33; stroke-linejoin: miter"/>
    </defs>
    <g clip-path="url(#pea3e86bc1f)">
     <use xlink:href="#m5e80404be4" x="73.303634" y="235.212842" style="fill: #36ff33; stroke: #36ff33; stroke-linejoin: miter"/>
    </g>
   </g>
   <g id="line2d_24">
    <path d="M 73.303634 235.212842 
L 518.4 235.212842 
" clip-path="url(#pea3e86bc1f)" style="fill: none; stroke: #36ff33; stroke-width: 1.5; stroke-linecap: square"/>
   </g>
   <g id="line2d_25">
    <path d="M 153.450641 369.36 
" clip-path="url(#pea3e86bc1f)" style="fill: none; stroke: #b6c800; stroke-width: 1.5; stroke-linecap: square"/>
    <defs>
     <path id="m9a4afcc7b9" d="M 0 -6 
L -6 6 
L 6 6 
z
" style="stroke: #b6c800; stroke-linejoin: miter"/>
    </defs>
    <g clip-path="url(#pea3e86bc1f)">
     <use xlink:href="#m9a4afcc7b9" x="153.450641" y="369.36" style="fill: #b6c800; stroke: #b6c800; stroke-linejoin: miter"/>
    </g>
   </g>
   <g id="line2d_26">
    <path d="M 153.450641 369.36 
L 518.4 369.36 
" clip-path="url(#pea3e86bc1f)" style="fill: none; stroke: #b6c800; stroke-width: 1.5; stroke-linecap: square"/>
   </g>
   <g id="line2d_27">
    <path d="M 150.663899 221.995487 
" clip-path="url(#pea3e86bc1f)" style="fill: none; stroke: #f119c3; stroke-width: 1.5; stroke-linecap: square"/>
    <defs>
     <path id="m339eb66645" d="M -0 6 
L 6 -6 
L -6 -6 
z
" style="stroke: #f119c3; stroke-linejoin: miter"/>
    </defs>
    <g clip-path="url(#pea3e86bc1f)">
     <use xlink:href="#m339eb66645" x="150.663899" y="221.995487" style="fill: #f119c3; stroke: #f119c3; stroke-linejoin: miter"/>
    </g>
   </g>
   <g id="line2d_28">
    <path d="M 150.663899 221.995487 
L 518.4 221.995487 
" clip-path="url(#pea3e86bc1f)" style="fill: none; stroke: #f119c3; stroke-width: 1.5; stroke-linecap: square"/>
   </g>
   <g id="line2d_29">
    <path d="M 175.813592 227.402559 
L 265.454893 238.116523 
L 346.456565 236.623165 
L 425.009505 235.865424 
L 533.980977 235.483254 
" clip-path="url(#pea3e86bc1f)" style="fill: none; stroke: #0d5915; stroke-width: 1.5; stroke-linecap: square"/>
    <defs>
     <path id="mc014f31c7b" d="M 0 0 
L 0 -7.5 
M 0 0 
L -6 3.75 
M 0 0 
L 6 3.75 
" style="stroke: #0d5915"/>
    </defs>
    <g clip-path="url(#pea3e86bc1f)">
     <use xlink:href="#mc014f31c7b" x="175.813592" y="227.402559" style="fill: #0d5915; stroke: #0d5915"/>
     <use xlink:href="#mc014f31c7b" x="265.454893" y="238.116523" style="fill: #0d5915; stroke: #0d5915"/>
     <use xlink:href="#mc014f31c7b" x="346.456565" y="236.623165" style="fill: #0d5915; stroke: #0d5915"/>
     <use xlink:href="#mc014f31c7b" x="425.009505" y="235.865424" style="fill: #0d5915; stroke: #0d5915"/>
     <use xlink:href="#mc014f31c7b" x="533.980977" y="235.483254" style="fill: #0d5915; stroke: #0d5915"/>
    </g>
   </g>
   <g id="line2d_30">
    <path d="M 72.293833 66.96 
L 115.735949 236.383917 
L 152.432453 236.160838 
L 193.033632 236.049676 
L 238.985761 235.978417 
L 288.126451 235.927137 
L 324.072466 235.88769 
L 369.25162 235.855954 
L 415.678535 235.829611 
L 452.056625 235.807244 
L 518.215793 235.787872 
" clip-path="url(#pea3e86bc1f)" style="fill: none; stroke: #e31d1d; stroke-width: 1.5; stroke-linecap: square"/>
    <defs>
     <path id="m898e5da17a" d="M 0 5 
C 1.326016 5 2.597899 4.473168 3.535534 3.535534 
C 4.473168 2.597899 5 1.326016 5 0 
C 5 -1.326016 4.473168 -2.597899 3.535534 -3.535534 
C 2.597899 -4.473168 1.326016 -5 0 -5 
C -1.326016 -5 -2.597899 -4.473168 -3.535534 -3.535534 
C -4.473168 -2.597899 -5 -1.326016 -5 0 
C -5 1.326016 -4.473168 2.597899 -3.535534 3.535534 
C -2.597899 4.473168 -1.326016 5 0 5 
z
" style="stroke: #e31d1d"/>
    </defs>
    <g clip-path="url(#pea3e86bc1f)">
     <use xlink:href="#m898e5da17a" x="72.293833" y="66.96" style="fill: #e31d1d; stroke: #e31d1d"/>
     <use xlink:href="#m898e5da17a" x="115.735949" y="236.383917" style="fill: #e31d1d; stroke: #e31d1d"/>
     <use xlink:href="#m898e5da17a" x="152.432453" y="236.160838" style="fill: #e31d1d; stroke: #e31d1d"/>
     <use xlink:href="#m898e5da17a" x="193.033632" y="236.049676" style="fill: #e31d1d; stroke: #e31d1d"/>
     <use xlink:href="#m898e5da17a" x="238.985761" y="235.978417" style="fill: #e31d1d; stroke: #e31d1d"/>
     <use xlink:href="#m898e5da17a" x="288.126451" y="235.927137" style="fill: #e31d1d; stroke: #e31d1d"/>
     <use xlink:href="#m898e5da17a" x="324.072466" y="235.88769" style="fill: #e31d1d; stroke: #e31d1d"/>
     <use xlink:href="#m898e5da17a" x="369.25162" y="235.855954" style="fill: #e31d1d; stroke: #e31d1d"/>
     <use xlink:href="#m898e5da17a" x="415.678535" y="235.829611" style="fill: #e31d1d; stroke: #e31d1d"/>
     <use xlink:href="#m898e5da17a" x="452.056625" y="235.807244" style="fill: #e31d1d; stroke: #e31d1d"/>
     <use xlink:href="#m898e5da17a" x="518.215793" y="235.787872" style="fill: #e31d1d; stroke: #e31d1d"/>
    </g>
   </g>
   <g id="line2d_31">
    <path d="M 72.235614 66.96 
L 118.927508 236.320148 
L 163.208284 236.108654 
L 210.258803 236.003318 
L 254.546565 235.935809 
L 297.81429 235.887253 
L 340.203624 235.849898 
L 384.975907 235.819851 
L 428.905261 235.79492 
L 472.628408 235.773746 
L 518.105837 235.755438 
" clip-path="url(#pea3e86bc1f)" style="fill: none; stroke-dasharray: 1.5,15; stroke-dashoffset: 0; stroke: #df6f67; stroke-width: 1.5"/>
    <defs>
     <path id="m57bf1f3d50" d="M 0 3 
C 0.795609 3 1.55874 2.683901 2.12132 2.12132 
C 2.683901 1.55874 3 0.795609 3 0 
C 3 -0.795609 2.683901 -1.55874 2.12132 -2.12132 
C 1.55874 -2.683901 0.795609 -3 0 -3 
C -0.795609 -3 -1.55874 -2.683901 -2.12132 -2.12132 
C -2.683901 -1.55874 -3 -0.795609 -3 0 
C -3 0.795609 -2.683901 1.55874 -2.12132 2.12132 
C -1.55874 2.683901 -0.795609 3 0 3 
z
" style="stroke: #df6f67"/>
    </defs>
    <g clip-path="url(#pea3e86bc1f)">
     <use xlink:href="#m57bf1f3d50" x="72.235614" y="66.96" style="fill: #df6f67; stroke: #df6f67"/>
     <use xlink:href="#m57bf1f3d50" x="118.927508" y="236.320148" style="fill: #df6f67; stroke: #df6f67"/>
     <use xlink:href="#m57bf1f3d50" x="163.208284" y="236.108654" style="fill: #df6f67; stroke: #df6f67"/>
     <use xlink:href="#m57bf1f3d50" x="210.258803" y="236.003318" style="fill: #df6f67; stroke: #df6f67"/>
     <use xlink:href="#m57bf1f3d50" x="254.546565" y="235.935809" style="fill: #df6f67; stroke: #df6f67"/>
     <use xlink:href="#m57bf1f3d50" x="297.81429" y="235.887253" style="fill: #df6f67; stroke: #df6f67"/>
     <use xlink:href="#m57bf1f3d50" x="340.203624" y="235.849898" style="fill: #df6f67; stroke: #df6f67"/>
     <use xlink:href="#m57bf1f3d50" x="384.975907" y="235.819851" style="fill: #df6f67; stroke: #df6f67"/>
     <use xlink:href="#m57bf1f3d50" x="428.905261" y="235.79492" style="fill: #df6f67; stroke: #df6f67"/>
     <use xlink:href="#m57bf1f3d50" x="472.628408" y="235.773746" style="fill: #df6f67; stroke: #df6f67"/>
     <use xlink:href="#m57bf1f3d50" x="518.105837" y="235.755438" style="fill: #df6f67; stroke: #df6f67"/>
    </g>
   </g>
   <g id="line2d_32">
    <path d="M 72.04929 66.96 
L 110.346378 236.340116 
L 152.865867 236.124983 
L 191.000024 236.017833 
L 230.030401 235.949143 
L 271.101962 235.899736 
L 310.088308 235.861726 
L 347.986249 235.831147 
L 399.503017 235.805785 
L 464.389677 235.784227 
L 518.368164 235.765588 
" clip-path="url(#pea3e86bc1f)" style="fill: none; stroke-dasharray: 7.5,15; stroke-dashoffset: 0; stroke: #dea39f; stroke-width: 1.5"/>
    <defs>
     <path id="m9b29e003ef" d="M 0 3 
C 0.795609 3 1.55874 2.683901 2.12132 2.12132 
C 2.683901 1.55874 3 0.795609 3 0 
C 3 -0.795609 2.683901 -1.55874 2.12132 -2.12132 
C 1.55874 -2.683901 0.795609 -3 0 -3 
C -0.795609 -3 -1.55874 -2.683901 -2.12132 -2.12132 
C -2.683901 -1.55874 -3 -0.795609 -3 0 
C -3 0.795609 -2.683901 1.55874 -2.12132 2.12132 
C -1.55874 2.683901 -0.795609 3 0 3 
z
" style="stroke: #dea39f"/>
    </defs>
    <g clip-path="url(#pea3e86bc1f)">
     <use xlink:href="#m9b29e003ef" x="72.04929" y="66.96" style="fill: #dea39f; stroke: #dea39f"/>
     <use xlink:href="#m9b29e003ef" x="110.346378" y="236.340116" style="fill: #dea39f; stroke: #dea39f"/>
     <use xlink:href="#m9b29e003ef" x="152.865867" y="236.124983" style="fill: #dea39f; stroke: #dea39f"/>
     <use xlink:href="#m9b29e003ef" x="191.000024" y="236.017833" style="fill: #dea39f; stroke: #dea39f"/>
     <use xlink:href="#m9b29e003ef" x="230.030401" y="235.949143" style="fill: #dea39f; stroke: #dea39f"/>
     <use xlink:href="#m9b29e003ef" x="271.101962" y="235.899736" style="fill: #dea39f; stroke: #dea39f"/>
     <use xlink:href="#m9b29e003ef" x="310.088308" y="235.861726" style="fill: #dea39f; stroke: #dea39f"/>
     <use xlink:href="#m9b29e003ef" x="347.986249" y="235.831147" style="fill: #dea39f; stroke: #dea39f"/>
     <use xlink:href="#m9b29e003ef" x="399.503017" y="235.805785" style="fill: #dea39f; stroke: #dea39f"/>
     <use xlink:href="#m9b29e003ef" x="464.389677" y="235.784227" style="fill: #dea39f; stroke: #dea39f"/>
     <use xlink:href="#m9b29e003ef" x="518.368164" y="235.765588" style="fill: #dea39f; stroke: #dea39f"/>
    </g>
   </g>
   <g id="line2d_33">
    <path d="M 152.243896 369.36 
L 221.675238 238.278649 
L 295.175356 236.618554 
L 359.898833 231.20316 
L 448.549639 227.056114 
L 516.736947 226.171942 
L 577 225.701353 
" clip-path="url(#pea3e86bc1f)" style="fill: none; stroke: #1c24dc; stroke-width: 1.5; stroke-linecap: square"/>
    <defs>
     <path id="m6725a0ab31" d="M 0 -5 
L -1.12257 -1.545085 
L -4.755283 -1.545085 
L -1.816356 0.59017 
L -2.938926 4.045085 
L -0 1.90983 
L 2.938926 4.045085 
L 1.816356 0.59017 
L 4.755283 -1.545085 
L 1.12257 -1.545085 
z
" style="stroke: #1c24dc; stroke-linejoin: bevel"/>
    </defs>
    <g clip-path="url(#pea3e86bc1f)">
     <use xlink:href="#m6725a0ab31" x="152.243896" y="369.36" style="fill: #1c24dc; stroke: #1c24dc; stroke-linejoin: bevel"/>
     <use xlink:href="#m6725a0ab31" x="221.675238" y="238.278649" style="fill: #1c24dc; stroke: #1c24dc; stroke-linejoin: bevel"/>
     <use xlink:href="#m6725a0ab31" x="295.175356" y="236.618554" style="fill: #1c24dc; stroke: #1c24dc; stroke-linejoin: bevel"/>
     <use xlink:href="#m6725a0ab31" x="359.898833" y="231.20316" style="fill: #1c24dc; stroke: #1c24dc; stroke-linejoin: bevel"/>
     <use xlink:href="#m6725a0ab31" x="448.549639" y="227.056114" style="fill: #1c24dc; stroke: #1c24dc; stroke-linejoin: bevel"/>
     <use xlink:href="#m6725a0ab31" x="516.736947" y="226.171942" style="fill: #1c24dc; stroke: #1c24dc; stroke-linejoin: bevel"/>
     <use xlink:href="#m6725a0ab31" x="583.454887" y="225.650948" style="fill: #1c24dc; stroke: #1c24dc; stroke-linejoin: bevel"/>
    </g>
   </g>
   <g id="line2d_34">
    <path d="M 159.855432 369.36 
L 252.066625 238.278649 
L 355.118299 236.618554 
L 473.447634 231.20316 
L 577 227.397067 
" clip-path="url(#pea3e86bc1f)" style="fill: none; stroke-dasharray: 1.5,15; stroke-dashoffset: 0; stroke: #595fdc; stroke-width: 1.5"/>
    <defs>
     <path id="m53a8d6fff3" d="M 0 -3 
L -0.673542 -0.927051 
L -2.85317 -0.927051 
L -1.089814 0.354102 
L -1.763356 2.427051 
L -0 1.145898 
L 1.763356 2.427051 
L 1.089814 0.354102 
L 2.85317 -0.927051 
L 0.673542 -0.927051 
z
" style="stroke: #595fdc; stroke-linejoin: bevel"/>
    </defs>
    <g clip-path="url(#pea3e86bc1f)">
     <use xlink:href="#m53a8d6fff3" x="159.855432" y="369.36" style="fill: #595fdc; stroke: #595fdc; stroke-linejoin: bevel"/>
     <use xlink:href="#m53a8d6fff3" x="252.066625" y="238.278649" style="fill: #595fdc; stroke: #595fdc; stroke-linejoin: bevel"/>
     <use xlink:href="#m53a8d6fff3" x="355.118299" y="236.618554" style="fill: #595fdc; stroke: #595fdc; stroke-linejoin: bevel"/>
     <use xlink:href="#m53a8d6fff3" x="473.447634" y="231.20316" style="fill: #595fdc; stroke: #595fdc; stroke-linejoin: bevel"/>
     <use xlink:href="#m53a8d6fff3" x="586.276312" y="227.056114" style="fill: #595fdc; stroke: #595fdc; stroke-linejoin: bevel"/>
    </g>
   </g>
   <g id="line2d_35">
    <path d="M 144.217125 369.36 
L 215.983934 238.278649 
L 285.323521 236.618554 
L 354.437696 231.20316 
L 424.407025 227.056114 
L 490.294524 226.171942 
L 559.196069 225.650948 
" clip-path="url(#pea3e86bc1f)" style="fill: none; stroke-dasharray: 7.5,15; stroke-dashoffset: 0; stroke: #9598dc; stroke-width: 1.5"/>
    <defs>
     <path id="m4bc6908715" d="M 0 -3 
L -0.673542 -0.927051 
L -2.85317 -0.927051 
L -1.089814 0.354102 
L -1.763356 2.427051 
L -0 1.145898 
L 1.763356 2.427051 
L 1.089814 0.354102 
L 2.85317 -0.927051 
L 0.673542 -0.927051 
z
" style="stroke: #9598dc; stroke-linejoin: bevel"/>
    </defs>
    <g clip-path="url(#pea3e86bc1f)">
     <use xlink:href="#m4bc6908715" x="144.217125" y="369.36" style="fill: #9598dc; stroke: #9598dc; stroke-linejoin: bevel"/>
     <use xlink:href="#m4bc6908715" x="215.983934" y="238.278649" style="fill: #9598dc; stroke: #9598dc; stroke-linejoin: bevel"/>
     <use xlink:href="#m4bc6908715" x="285.323521" y="236.618554" style="fill: #9598dc; stroke: #9598dc; stroke-linejoin: bevel"/>
     <use xlink:href="#m4bc6908715" x="354.437696" y="231.20316" style="fill: #9598dc; stroke: #9598dc; stroke-linejoin: bevel"/>
     <use xlink:href="#m4bc6908715" x="424.407025" y="227.056114" style="fill: #9598dc; stroke: #9598dc; stroke-linejoin: bevel"/>
     <use xlink:href="#m4bc6908715" x="490.294524" y="226.171942" style="fill: #9598dc; stroke: #9598dc; stroke-linejoin: bevel"/>
     <use xlink:href="#m4bc6908715" x="559.196069" y="225.650948" style="fill: #9598dc; stroke: #9598dc; stroke-linejoin: bevel"/>
    </g>
   </g>
   <g id="patch_3">
    <path d="M 72 384.48 
L 72 51.84 
" style="fill: none; stroke: #000000; stroke-width: 0.8; stroke-linejoin: miter; stroke-linecap: square"/>
   </g>
   <g id="patch_4">
    <path d="M 518.4 384.48 
L 518.4 51.84 
" style="fill: none; stroke: #000000; stroke-width: 0.8; stroke-linejoin: miter; stroke-linecap: square"/>
   </g>
   <g id="patch_5">
    <path d="M 72 384.48 
L 518.4 384.48 
" style="fill: none; stroke: #000000; stroke-width: 0.8; stroke-linejoin: miter; stroke-linecap: square"/>
   </g>
   <g id="patch_6">
    <path d="M 72 51.84 
L 518.4 51.84 
" style="fill: none; stroke: #000000; stroke-width: 0.8; stroke-linejoin: miter; stroke-linecap: square"/>
   </g>
   <g id="legend_1">
    <g id="patch_7">
     <path d="M 421.1 229.44 
L 511.4 229.44 
Q 513.4 229.44 513.4 227.44 
L 513.4 58.84 
Q 513.4 56.84 511.4 56.84 
L 421.1 56.84 
Q 419.1 56.84 419.1 58.84 
L 419.1 227.44 
Q 419.1 229.44 421.1 229.44 
z
" style="fill: #ffffff; opacity: 0.8; stroke: #cccccc; stroke-linejoin: miter"/>
    </g>
    <g id="line2d_36">
     <path d="M 423.1 66.44 
L 433.1 66.44 
L 443.1 66.44 
" style="fill: none; stroke: #36ff33; stroke-width: 1.5; stroke-linecap: square"/>
     <g>
      <use xlink:href="#m5e80404be4" x="433.1" y="66.44" style="fill: #36ff33; stroke: #36ff33; stroke-linejoin: miter"/>
     </g>
    </g>
    <g id="text_14">
     <!-- $MPS(\mathbf{x}^0_{max})$ -->
     <g transform="translate(451.1 69.94) scale(0.1 -0.1)">
      <defs>
       <path id="DejaVuSans-Oblique-4d" d="M 1081 4666 
L 2028 4666 
L 2572 1522 
L 4378 4666 
L 5350 4666 
L 4441 0 
L 3828 0 
L 4622 4091 
L 2791 897 
L 2175 897 
L 1581 4103 
L 788 0 
L 172 0 
L 1081 4666 
z
" transform="scale(0.015625)"/>
       <path id="DejaVuSans-Oblique-50" d="M 1081 4666 
L 2541 4666 
Q 3178 4666 3512 4369 
Q 3847 4072 3847 3500 
Q 3847 2731 3353 2303 
Q 2859 1875 1966 1875 
L 1172 1875 
L 806 0 
L 172 0 
L 1081 4666 
z
M 1613 4147 
L 1275 2394 
L 2069 2394 
Q 2606 2394 2893 2669 
Q 3181 2944 3181 3456 
Q 3181 3784 2986 3965 
Q 2791 4147 2438 4147 
L 1613 4147 
z
" transform="scale(0.015625)"/>
       <path id="DejaVuSans-Oblique-53" d="M 3859 4513 
L 3738 3897 
Q 3422 4066 3111 4152 
Q 2800 4238 2509 4238 
Q 1944 4238 1609 3991 
Q 1275 3744 1275 3334 
Q 1275 3109 1398 2989 
Q 1522 2869 2034 2731 
L 2413 2638 
Q 3053 2472 3303 2217 
Q 3553 1963 3553 1503 
Q 3553 797 2998 353 
Q 2444 -91 1538 -91 
Q 1166 -91 791 -17 
Q 416 56 38 206 
L 166 856 
Q 513 641 861 531 
Q 1209 422 1556 422 
Q 2147 422 2503 684 
Q 2859 947 2859 1369 
Q 2859 1650 2717 1795 
Q 2575 1941 2106 2059 
L 1728 2156 
Q 1081 2325 845 2545 
Q 609 2766 609 3163 
Q 609 3859 1145 4304 
Q 1681 4750 2541 4750 
Q 2875 4750 3203 4690 
Q 3531 4631 3859 4513 
z
" transform="scale(0.015625)"/>
       <path id="DejaVuSans-28" d="M 1984 4856 
Q 1566 4138 1362 3434 
Q 1159 2731 1159 2009 
Q 1159 1288 1364 580 
Q 1569 -128 1984 -844 
L 1484 -844 
Q 1016 -109 783 600 
Q 550 1309 550 2009 
Q 550 2706 781 3412 
Q 1013 4119 1484 4856 
L 1984 4856 
z
" transform="scale(0.015625)"/>
       <path id="DejaVuSans-Bold-78" d="M 1422 1791 
L 159 3500 
L 1344 3500 
L 2059 2463 
L 2784 3500 
L 3969 3500 
L 2706 1797 
L 4031 0 
L 2847 0 
L 2059 1106 
L 1281 0 
L 97 0 
L 1422 1791 
z
" transform="scale(0.015625)"/>
       <path id="DejaVuSans-Oblique-6d" d="M 5747 2113 
L 5338 0 
L 4763 0 
L 5166 2094 
Q 5191 2228 5203 2325 
Q 5216 2422 5216 2491 
Q 5216 2772 5059 2928 
Q 4903 3084 4622 3084 
Q 4203 3084 3875 2770 
Q 3547 2456 3450 1953 
L 3066 0 
L 2491 0 
L 2900 2094 
Q 2925 2209 2937 2307 
Q 2950 2406 2950 2484 
Q 2950 2769 2794 2926 
Q 2638 3084 2363 3084 
Q 1938 3084 1609 2770 
Q 1281 2456 1184 1953 
L 800 0 
L 225 0 
L 909 3500 
L 1484 3500 
L 1375 2956 
Q 1609 3263 1923 3423 
Q 2238 3584 2597 3584 
Q 2978 3584 3223 3384 
Q 3469 3184 3519 2828 
Q 3781 3197 4126 3390 
Q 4472 3584 4856 3584 
Q 5306 3584 5551 3325 
Q 5797 3066 5797 2591 
Q 5797 2488 5784 2364 
Q 5772 2241 5747 2113 
z
" transform="scale(0.015625)"/>
       <path id="DejaVuSans-Oblique-61" d="M 3438 1997 
L 3047 0 
L 2472 0 
L 2578 531 
Q 2325 219 2001 64 
Q 1678 -91 1281 -91 
Q 834 -91 548 182 
Q 263 456 263 884 
Q 263 1497 752 1853 
Q 1241 2209 2100 2209 
L 2900 2209 
L 2931 2363 
Q 2938 2388 2941 2417 
Q 2944 2447 2944 2509 
Q 2944 2788 2717 2942 
Q 2491 3097 2081 3097 
Q 1800 3097 1504 3025 
Q 1209 2953 897 2809 
L 997 3341 
Q 1322 3463 1633 3523 
Q 1944 3584 2234 3584 
Q 2853 3584 3176 3315 
Q 3500 3047 3500 2534 
Q 3500 2431 3484 2292 
Q 3469 2153 3438 1997 
z
M 2816 1759 
L 2241 1759 
Q 1534 1759 1195 1570 
Q 856 1381 856 984 
Q 856 709 1029 553 
Q 1203 397 1509 397 
Q 1978 397 2328 733 
Q 2678 1069 2791 1631 
L 2816 1759 
z
" transform="scale(0.015625)"/>
       <path id="DejaVuSans-Oblique-78" d="M 3841 3500 
L 2234 1784 
L 3219 0 
L 2559 0 
L 1819 1388 
L 531 0 
L -166 0 
L 1556 1844 
L 641 3500 
L 1300 3500 
L 1972 2234 
L 3144 3500 
L 3841 3500 
z
" transform="scale(0.015625)"/>
       <path id="DejaVuSans-29" d="M 513 4856 
L 1013 4856 
Q 1481 4119 1714 3412 
Q 1947 2706 1947 2009 
Q 1947 1309 1714 600 
Q 1481 -109 1013 -844 
L 513 -844 
Q 928 -128 1133 580 
Q 1338 1288 1338 2009 
Q 1338 2731 1133 3434 
Q 928 4138 513 4856 
z
" transform="scale(0.015625)"/>
      </defs>
      <use xlink:href="#DejaVuSans-Oblique-4d" transform="translate(0 0.765625)"/>
      <use xlink:href="#DejaVuSans-Oblique-50" transform="translate(86.279297 0.765625)"/>
      <use xlink:href="#DejaVuSans-Oblique-53" transform="translate(146.582031 0.765625)"/>
      <use xlink:href="#DejaVuSans-28" transform="translate(210.058594 0.765625)"/>
      <use xlink:href="#DejaVuSans-Bold-78" transform="translate(249.072266 0.765625)"/>
      <use xlink:href="#DejaVuSans-30" transform="translate(314.53125 39.046875) scale(0.7)"/>
      <use xlink:href="#DejaVuSans-Oblique-6d" transform="translate(314.53125 -26.578125) scale(0.7)"/>
      <use xlink:href="#DejaVuSans-Oblique-61" transform="translate(382.719727 -26.578125) scale(0.7)"/>
      <use xlink:href="#DejaVuSans-Oblique-78" transform="translate(425.615234 -26.578125) scale(0.7)"/>
      <use xlink:href="#DejaVuSans-29" transform="translate(469.775391 0.765625)"/>
     </g>
    </g>
    <g id="line2d_37">
     <path d="M 423.1 83.44 
L 433.1 83.44 
L 443.1 83.44 
" style="fill: none; stroke: #b6c800; stroke-width: 1.5; stroke-linecap: square"/>
     <g>
      <use xlink:href="#m9a4afcc7b9" x="433.1" y="83.44" style="fill: #b6c800; stroke: #b6c800; stroke-linejoin: miter"/>
     </g>
    </g>
    <g id="text_15">
     <!-- $PM_{C\searrow}(\mathbf{x}^0_{max})$ -->
     <g transform="translate(451.1 86.94) scale(0.1 -0.1)">
      <defs>
       <path id="DejaVuSans-Oblique-43" d="M 4447 4306 
L 4319 3641 
Q 4019 3944 3683 4091 
Q 3347 4238 2956 4238 
Q 2422 4238 2017 3981 
Q 1613 3725 1319 3200 
Q 1131 2863 1032 2486 
Q 934 2109 934 1728 
Q 934 1091 1264 756 
Q 1594 422 2222 422 
Q 2656 422 3056 561 
Q 3456 700 3834 978 
L 3688 231 
Q 3316 72 2936 -9 
Q 2556 -91 2175 -91 
Q 1278 -91 773 396 
Q 269 884 269 1753 
Q 269 2309 461 2846 
Q 653 3384 1013 3828 
Q 1394 4300 1883 4525 
Q 2372 4750 3022 4750 
Q 3422 4750 3780 4639 
Q 4138 4528 4447 4306 
z
" transform="scale(0.015625)"/>
       <path id="DejaVuSans-2198" d="M 4497 359 
L 4300 163 
L 2563 163 
L 2563 691 
L 3594 691 
L 900 3384 
L 1275 3759 
L 3969 1066 
L 3969 2097 
L 4497 2097 
L 4497 359 
z
" transform="scale(0.015625)"/>
      </defs>
      <use xlink:href="#DejaVuSans-Oblique-50" transform="translate(0 0.765625)"/>
      <use xlink:href="#DejaVuSans-Oblique-4d" transform="translate(60.302734 0.765625)"/>
      <use xlink:href="#DejaVuSans-Oblique-43" transform="translate(146.582031 -15.640625) scale(0.7)"/>
      <use xlink:href="#DejaVuSans-2198" transform="translate(209.09668 -15.640625) scale(0.7)"/>
      <use xlink:href="#DejaVuSans-28" transform="translate(284.121094 0.765625)"/>
      <use xlink:href="#DejaVuSans-Bold-78" transform="translate(323.134766 0.765625)"/>
      <use xlink:href="#DejaVuSans-30" transform="translate(388.59375 39.046875) scale(0.7)"/>
      <use xlink:href="#DejaVuSans-Oblique-6d" transform="translate(388.59375 -26.578125) scale(0.7)"/>
      <use xlink:href="#DejaVuSans-Oblique-61" transform="translate(456.782227 -26.578125) scale(0.7)"/>
      <use xlink:href="#DejaVuSans-Oblique-78" transform="translate(499.677734 -26.578125) scale(0.7)"/>
      <use xlink:href="#DejaVuSans-29" transform="translate(543.837891 0.765625)"/>
     </g>
    </g>
    <g id="line2d_38">
     <path d="M 423.1 100.44 
L 433.1 100.44 
L 443.1 100.44 
" style="fill: none; stroke: #f119c3; stroke-width: 1.5; stroke-linecap: square"/>
     <g>
      <use xlink:href="#m339eb66645" x="433.1" y="100.44" style="fill: #f119c3; stroke: #f119c3; stroke-linejoin: miter"/>
     </g>
    </g>
    <g id="text_16">
     <!-- $PM_{C\nearrow}(\mathbf{x}^0_{max})$ -->
     <g transform="translate(451.1 103.94) scale(0.1 -0.1)">
      <defs>
       <path id="DejaVuSans-2197" d="M 4300 3759 
L 4497 3563 
L 4497 1825 
L 3969 1825 
L 3969 2856 
L 1275 163 
L 900 538 
L 3594 3231 
L 2563 3231 
L 2563 3759 
L 4300 3759 
z
" transform="scale(0.015625)"/>
      </defs>
      <use xlink:href="#DejaVuSans-Oblique-50" transform="translate(0 0.765625)"/>
      <use xlink:href="#DejaVuSans-Oblique-4d" transform="translate(60.302734 0.765625)"/>
      <use xlink:href="#DejaVuSans-Oblique-43" transform="translate(146.582031 -15.640625) scale(0.7)"/>
      <use xlink:href="#DejaVuSans-2197" transform="translate(209.09668 -15.640625) scale(0.7)"/>
      <use xlink:href="#DejaVuSans-28" transform="translate(284.121094 0.765625)"/>
      <use xlink:href="#DejaVuSans-Bold-78" transform="translate(323.134766 0.765625)"/>
      <use xlink:href="#DejaVuSans-30" transform="translate(388.59375 39.046875) scale(0.7)"/>
      <use xlink:href="#DejaVuSans-Oblique-6d" transform="translate(388.59375 -26.578125) scale(0.7)"/>
      <use xlink:href="#DejaVuSans-Oblique-61" transform="translate(456.782227 -26.578125) scale(0.7)"/>
      <use xlink:href="#DejaVuSans-Oblique-78" transform="translate(499.677734 -26.578125) scale(0.7)"/>
      <use xlink:href="#DejaVuSans-29" transform="translate(543.837891 0.765625)"/>
     </g>
    </g>
    <g id="line2d_39">
     <path d="M 423.1 117.44 
L 433.1 117.44 
L 443.1 117.44 
" style="fill: none; stroke: #0d5915; stroke-width: 1.5; stroke-linecap: square"/>
     <g>
      <use xlink:href="#mc014f31c7b" x="433.1" y="117.44" style="fill: #0d5915; stroke: #0d5915"/>
     </g>
    </g>
    <g id="text_17">
     <!-- $IPDD(\mathbf{x}^0_{max})$ -->
     <g transform="translate(451.1 120.94) scale(0.1 -0.1)">
      <defs>
       <path id="DejaVuSans-Oblique-49" d="M 1081 4666 
L 1716 4666 
L 806 0 
L 172 0 
L 1081 4666 
z
" transform="scale(0.015625)"/>
       <path id="DejaVuSans-Oblique-44" d="M 1081 4666 
L 2438 4666 
Q 3519 4666 4070 4208 
Q 4622 3750 4622 2847 
Q 4622 2250 4412 1698 
Q 4203 1147 3834 769 
Q 3463 381 2891 190 
Q 2319 0 1538 0 
L 172 0 
L 1081 4666 
z
M 1613 4147 
L 909 519 
L 1734 519 
Q 2794 519 3375 1128 
Q 3956 1738 3956 2847 
Q 3956 3519 3581 3833 
Q 3206 4147 2406 4147 
L 1613 4147 
z
" transform="scale(0.015625)"/>
      </defs>
      <use xlink:href="#DejaVuSans-Oblique-49" transform="translate(0 0.765625)"/>
      <use xlink:href="#DejaVuSans-Oblique-50" transform="translate(29.492188 0.765625)"/>
      <use xlink:href="#DejaVuSans-Oblique-44" transform="translate(89.794922 0.765625)"/>
      <use xlink:href="#DejaVuSans-Oblique-44" transform="translate(166.796875 0.765625)"/>
      <use xlink:href="#DejaVuSans-28" transform="translate(243.798828 0.765625)"/>
      <use xlink:href="#DejaVuSans-Bold-78" transform="translate(282.8125 0.765625)"/>
      <use xlink:href="#DejaVuSans-30" transform="translate(348.271484 39.046875) scale(0.7)"/>
      <use xlink:href="#DejaVuSans-Oblique-6d" transform="translate(348.271484 -26.578125) scale(0.7)"/>
      <use xlink:href="#DejaVuSans-Oblique-61" transform="translate(416.459961 -26.578125) scale(0.7)"/>
      <use xlink:href="#DejaVuSans-Oblique-78" transform="translate(459.355469 -26.578125) scale(0.7)"/>
      <use xlink:href="#DejaVuSans-29" transform="translate(503.515625 0.765625)"/>
     </g>
    </g>
    <g id="line2d_40">
     <path d="M 423.1 134.44 
L 433.1 134.44 
L 443.1 134.44 
" style="fill: none; stroke: #e31d1d; stroke-width: 1.5; stroke-linecap: square"/>
     <g>
      <use xlink:href="#m898e5da17a" x="433.1" y="134.44" style="fill: #e31d1d; stroke: #e31d1d"/>
     </g>
    </g>
    <g id="text_18">
     <!-- $GDPA(\mathbf{x}^0_{max})$ -->
     <g transform="translate(451.1 137.94) scale(0.1 -0.1)">
      <defs>
       <path id="DejaVuSans-Oblique-47" d="M 3494 697 
L 3738 1919 
L 2700 1919 
L 2797 2438 
L 4453 2438 
L 4050 384 
Q 3634 156 3143 32 
Q 2653 -91 2156 -91 
Q 1278 -91 783 396 
Q 288 884 288 1753 
Q 288 2475 589 3126 
Q 891 3778 1422 4213 
Q 1756 4484 2153 4617 
Q 2550 4750 3034 4750 
Q 3472 4750 3873 4639 
Q 4275 4528 4641 4306 
L 4513 3634 
Q 4231 3928 3853 4083 
Q 3475 4238 3047 4238 
Q 2550 4238 2172 4048 
Q 1794 3859 1497 3463 
Q 1244 3125 1098 2667 
Q 953 2209 953 1734 
Q 953 1081 1287 751 
Q 1622 422 2284 422 
Q 2616 422 2925 492 
Q 3234 563 3494 697 
z
" transform="scale(0.015625)"/>
       <path id="DejaVuSans-Oblique-41" d="M 2356 4666 
L 3072 4666 
L 3938 0 
L 3278 0 
L 3084 1197 
L 984 1197 
L 325 0 
L -341 0 
L 2356 4666 
z
M 2584 4044 
L 1275 1722 
L 2988 1722 
L 2584 4044 
z
" transform="scale(0.015625)"/>
      </defs>
      <use xlink:href="#DejaVuSans-Oblique-47" transform="translate(0 0.765625)"/>
      <use xlink:href="#DejaVuSans-Oblique-44" transform="translate(77.490234 0.765625)"/>
      <use xlink:href="#DejaVuSans-Oblique-50" transform="translate(154.492188 0.765625)"/>
      <use xlink:href="#DejaVuSans-Oblique-41" transform="translate(214.794922 0.765625)"/>
      <use xlink:href="#DejaVuSans-28" transform="translate(283.203125 0.765625)"/>
      <use xlink:href="#DejaVuSans-Bold-78" transform="translate(322.216797 0.765625)"/>
      <use xlink:href="#DejaVuSans-30" transform="translate(387.675781 39.046875) scale(0.7)"/>
      <use xlink:href="#DejaVuSans-Oblique-6d" transform="translate(387.675781 -26.578125) scale(0.7)"/>
      <use xlink:href="#DejaVuSans-Oblique-61" transform="translate(455.864258 -26.578125) scale(0.7)"/>
      <use xlink:href="#DejaVuSans-Oblique-78" transform="translate(498.759766 -26.578125) scale(0.7)"/>
      <use xlink:href="#DejaVuSans-29" transform="translate(542.919922 0.765625)"/>
     </g>
    </g>
    <g id="line2d_41">
     <path d="M 423.1 151.44 
L 433.1 151.44 
L 443.1 151.44 
" style="fill: none; stroke-dasharray: 1.5,15; stroke-dashoffset: 0; stroke: #df6f67; stroke-width: 1.5"/>
     <g>
      <use xlink:href="#m57bf1f3d50" x="433.1" y="151.44" style="fill: #df6f67; stroke: #df6f67"/>
     </g>
    </g>
    <g id="text_19">
     <!-- $GDPA(\mathbf{x}^0_1)$ -->
     <g transform="translate(451.1 154.94) scale(0.1 -0.1)">
      <use xlink:href="#DejaVuSans-Oblique-47" transform="translate(0 0.765625)"/>
      <use xlink:href="#DejaVuSans-Oblique-44" transform="translate(77.490234 0.765625)"/>
      <use xlink:href="#DejaVuSans-Oblique-50" transform="translate(154.492188 0.765625)"/>
      <use xlink:href="#DejaVuSans-Oblique-41" transform="translate(214.794922 0.765625)"/>
      <use xlink:href="#DejaVuSans-28" transform="translate(283.203125 0.765625)"/>
      <use xlink:href="#DejaVuSans-Bold-78" transform="translate(322.216797 0.765625)"/>
      <use xlink:href="#DejaVuSans-30" transform="translate(387.675781 39.046875) scale(0.7)"/>
      <use xlink:href="#DejaVuSans-31" transform="translate(387.675781 -26.578125) scale(0.7)"/>
      <use xlink:href="#DejaVuSans-29" transform="translate(434.946289 0.765625)"/>
     </g>
    </g>
    <g id="line2d_42">
     <path d="M 423.1 168.34 
L 433.1 168.34 
L 443.1 168.34 
" style="fill: none; stroke-dasharray: 7.5,15; stroke-dashoffset: 0; stroke: #dea39f; stroke-width: 1.5"/>
     <g>
      <use xlink:href="#m9b29e003ef" x="433.1" y="168.34" style="fill: #dea39f; stroke: #dea39f"/>
     </g>
    </g>
    <g id="text_20">
     <!-- $GDPA(\mathbf{x}^0_2)$ -->
     <g transform="translate(451.1 171.84) scale(0.1 -0.1)">
      <use xlink:href="#DejaVuSans-Oblique-47" transform="translate(0 0.765625)"/>
      <use xlink:href="#DejaVuSans-Oblique-44" transform="translate(77.490234 0.765625)"/>
      <use xlink:href="#DejaVuSans-Oblique-50" transform="translate(154.492188 0.765625)"/>
      <use xlink:href="#DejaVuSans-Oblique-41" transform="translate(214.794922 0.765625)"/>
      <use xlink:href="#DejaVuSans-28" transform="translate(283.203125 0.765625)"/>
      <use xlink:href="#DejaVuSans-Bold-78" transform="translate(322.216797 0.765625)"/>
      <use xlink:href="#DejaVuSans-30" transform="translate(387.675781 39.046875) scale(0.7)"/>
      <use xlink:href="#DejaVuSans-32" transform="translate(387.675781 -26.578125) scale(0.7)"/>
      <use xlink:href="#DejaVuSans-29" transform="translate(434.946289 0.765625)"/>
     </g>
    </g>
    <g id="line2d_43">
     <path d="M 423.1 185.24 
L 433.1 185.24 
L 443.1 185.24 
" style="fill: none; stroke: #1c24dc; stroke-width: 1.5; stroke-linecap: square"/>
     <g>
      <use xlink:href="#m6725a0ab31" x="433.1" y="185.24" style="fill: #1c24dc; stroke: #1c24dc; stroke-linejoin: bevel"/>
     </g>
    </g>
    <g id="text_21">
     <!-- $PGA(\mathbf{x}^0_{max})$ -->
     <g transform="translate(451.1 188.74) scale(0.1 -0.1)">
      <use xlink:href="#DejaVuSans-Oblique-50" transform="translate(0 0.765625)"/>
      <use xlink:href="#DejaVuSans-Oblique-47" transform="translate(60.302734 0.765625)"/>
      <use xlink:href="#DejaVuSans-Oblique-41" transform="translate(137.792969 0.765625)"/>
      <use xlink:href="#DejaVuSans-28" transform="translate(206.201172 0.765625)"/>
      <use xlink:href="#DejaVuSans-Bold-78" transform="translate(245.214844 0.765625)"/>
      <use xlink:href="#DejaVuSans-30" transform="translate(310.673828 39.046875) scale(0.7)"/>
      <use xlink:href="#DejaVuSans-Oblique-6d" transform="translate(310.673828 -26.578125) scale(0.7)"/>
      <use xlink:href="#DejaVuSans-Oblique-61" transform="translate(378.862305 -26.578125) scale(0.7)"/>
      <use xlink:href="#DejaVuSans-Oblique-78" transform="translate(421.757812 -26.578125) scale(0.7)"/>
      <use xlink:href="#DejaVuSans-29" transform="translate(465.917969 0.765625)"/>
     </g>
    </g>
    <g id="line2d_44">
     <path d="M 423.1 202.24 
L 433.1 202.24 
L 443.1 202.24 
" style="fill: none; stroke-dasharray: 1.5,15; stroke-dashoffset: 0; stroke: #595fdc; stroke-width: 1.5"/>
     <g>
      <use xlink:href="#m53a8d6fff3" x="433.1" y="202.24" style="fill: #595fdc; stroke: #595fdc; stroke-linejoin: bevel"/>
     </g>
    </g>
    <g id="text_22">
     <!-- $PGA(\mathbf{x}^0_1)$ -->
     <g transform="translate(451.1 205.74) scale(0.1 -0.1)">
      <use xlink:href="#DejaVuSans-Oblique-50" transform="translate(0 0.765625)"/>
      <use xlink:href="#DejaVuSans-Oblique-47" transform="translate(60.302734 0.765625)"/>
      <use xlink:href="#DejaVuSans-Oblique-41" transform="translate(137.792969 0.765625)"/>
      <use xlink:href="#DejaVuSans-28" transform="translate(206.201172 0.765625)"/>
      <use xlink:href="#DejaVuSans-Bold-78" transform="translate(245.214844 0.765625)"/>
      <use xlink:href="#DejaVuSans-30" transform="translate(310.673828 39.046875) scale(0.7)"/>
      <use xlink:href="#DejaVuSans-31" transform="translate(310.673828 -26.578125) scale(0.7)"/>
      <use xlink:href="#DejaVuSans-29" transform="translate(357.944336 0.765625)"/>
     </g>
    </g>
    <g id="line2d_45">
     <path d="M 423.1 219.14 
L 433.1 219.14 
L 443.1 219.14 
" style="fill: none; stroke-dasharray: 7.5,15; stroke-dashoffset: 0; stroke: #9598dc; stroke-width: 1.5"/>
     <g>
      <use xlink:href="#m4bc6908715" x="433.1" y="219.14" style="fill: #9598dc; stroke: #9598dc; stroke-linejoin: bevel"/>
     </g>
    </g>
    <g id="text_23">
     <!-- $PGA(\mathbf{x}^0_2)$ -->
     <g transform="translate(451.1 222.64) scale(0.1 -0.1)">
      <use xlink:href="#DejaVuSans-Oblique-50" transform="translate(0 0.765625)"/>
      <use xlink:href="#DejaVuSans-Oblique-47" transform="translate(60.302734 0.765625)"/>
      <use xlink:href="#DejaVuSans-Oblique-41" transform="translate(137.792969 0.765625)"/>
      <use xlink:href="#DejaVuSans-28" transform="translate(206.201172 0.765625)"/>
      <use xlink:href="#DejaVuSans-Bold-78" transform="translate(245.214844 0.765625)"/>
      <use xlink:href="#DejaVuSans-30" transform="translate(310.673828 39.046875) scale(0.7)"/>
      <use xlink:href="#DejaVuSans-32" transform="translate(310.673828 -26.578125) scale(0.7)"/>
      <use xlink:href="#DejaVuSans-29" transform="translate(357.944336 0.765625)"/>
     </g>
    </g>
   </g>
  </g>
 </g>
 <defs>
  <clipPath id="pea3e86bc1f">
   <rect x="72" y="51.84" width="446.4" height="332.64"/>
  </clipPath>
 </defs>
</svg>
