<?xml version="1.0" encoding="utf-8" standalone="no"?>
<!DOCTYPE svg PUBLIC "-//W3C//DTD SVG 1.1//EN"
  "http://www.w3.org/Graphics/SVG/1.1/DTD/svg11.dtd">
<svg xmlns:xlink="http://www.w3.org/1999/xlink" width="576pt" height="432pt" viewBox="0 0 576 432" xmlns="http://www.w3.org/2000/svg" version="1.1">
 <metadata>
  <rdf:RDF xmlns:dc="http://purl.org/dc/elements/1.1/" xmlns:cc="http://creativecommons.org/ns#" xmlns:rdf="http://www.w3.org/1999/02/22-rdf-syntax-ns#">
   <cc:Work>
    <dc:type rdf:resource="http://purl.org/dc/dcmitype/StillImage"/>
    <dc:date>2024-12-29T13:27:42.714773</dc:date>
    <dc:format>image/svg+xml</dc:format>
    <dc:creator>
     <cc:Agent>
      <dc:title>Matplotlib v3.7.1, https://matplotlib.org/</dc:title>
     </cc:Agent>
    </dc:creator>
   </cc:Work>
  </rdf:RDF>
 </metadata>
 <defs>
  <style type="text/css">*{stroke-linejoin: round; stroke-linecap: butt}</style>
 </defs>
 <g id="figure_1">
  <g id="patch_1">
   <path d="M 0 432 
L 576 432 
L 576 0 
L 0 0 
z
" style="fill: #ffffff"/>
  </g>
  <g id="axes_1">
   <g id="patch_2">
    <path d="M 72 384.48 
L 518.4 384.48 
L 518.4 51.84 
L 72 51.84 
z
" style="fill: #ffffff"/>
   </g>
   <g id="matplotlib.axis_1">
    <g id="xtick_1">
     <g id="line2d_1">
      <path d="M 72 384.48 
L 72 51.84 
" clip-path="url(#p2a08a599ad)" style="fill: none; stroke: #b0b0b0; stroke-width: 0.8; stroke-linecap: square"/>
     </g>
     <g id="line2d_2">
      <defs>
       <path id="m6d9b0be3ea" d="M 0 0 
L 0 3.5 
" style="stroke: #000000; stroke-width: 0.8"/>
      </defs>
      <g>
       <use xlink:href="#m6d9b0be3ea" x="72" y="384.48" style="stroke: #000000; stroke-width: 0.8"/>
      </g>
     </g>
     <g id="text_1">
      <!-- 0 -->
      <g transform="translate(68.81875 399.078438) scale(0.1 -0.1)">
       <defs>
        <path id="DejaVuSans-30" d="M 2034 4250 
Q 1547 4250 1301 3770 
Q 1056 3291 1056 2328 
Q 1056 1369 1301 889 
Q 1547 409 2034 409 
Q 2525 409 2770 889 
Q 3016 1369 3016 2328 
Q 3016 3291 2770 3770 
Q 2525 4250 2034 4250 
z
M 2034 4750 
Q 2819 4750 3233 4129 
Q 3647 3509 3647 2328 
Q 3647 1150 3233 529 
Q 2819 -91 2034 -91 
Q 1250 -91 836 529 
Q 422 1150 422 2328 
Q 422 3509 836 4129 
Q 1250 4750 2034 4750 
z
" transform="scale(0.015625)"/>
       </defs>
       <use xlink:href="#DejaVuSans-30"/>
      </g>
     </g>
    </g>
    <g id="xtick_2">
     <g id="line2d_3">
      <path d="M 161.28 384.48 
L 161.28 51.84 
" clip-path="url(#p2a08a599ad)" style="fill: none; stroke: #b0b0b0; stroke-width: 0.8; stroke-linecap: square"/>
     </g>
     <g id="line2d_4">
      <g>
       <use xlink:href="#m6d9b0be3ea" x="161.28" y="384.48" style="stroke: #000000; stroke-width: 0.8"/>
      </g>
     </g>
     <g id="text_2">
      <!-- 100 -->
      <g transform="translate(151.73625 399.078438) scale(0.1 -0.1)">
       <defs>
        <path id="DejaVuSans-31" d="M 794 531 
L 1825 531 
L 1825 4091 
L 703 3866 
L 703 4441 
L 1819 4666 
L 2450 4666 
L 2450 531 
L 3481 531 
L 3481 0 
L 794 0 
L 794 531 
z
" transform="scale(0.015625)"/>
       </defs>
       <use xlink:href="#DejaVuSans-31"/>
       <use xlink:href="#DejaVuSans-30" x="63.623047"/>
       <use xlink:href="#DejaVuSans-30" x="127.246094"/>
      </g>
     </g>
    </g>
    <g id="xtick_3">
     <g id="line2d_5">
      <path d="M 250.56 384.48 
L 250.56 51.84 
" clip-path="url(#p2a08a599ad)" style="fill: none; stroke: #b0b0b0; stroke-width: 0.8; stroke-linecap: square"/>
     </g>
     <g id="line2d_6">
      <g>
       <use xlink:href="#m6d9b0be3ea" x="250.56" y="384.48" style="stroke: #000000; stroke-width: 0.8"/>
      </g>
     </g>
     <g id="text_3">
      <!-- 200 -->
      <g transform="translate(241.01625 399.078438) scale(0.1 -0.1)">
       <defs>
        <path id="DejaVuSans-32" d="M 1228 531 
L 3431 531 
L 3431 0 
L 469 0 
L 469 531 
Q 828 903 1448 1529 
Q 2069 2156 2228 2338 
Q 2531 2678 2651 2914 
Q 2772 3150 2772 3378 
Q 2772 3750 2511 3984 
Q 2250 4219 1831 4219 
Q 1534 4219 1204 4116 
Q 875 4013 500 3803 
L 500 4441 
Q 881 4594 1212 4672 
Q 1544 4750 1819 4750 
Q 2544 4750 2975 4387 
Q 3406 4025 3406 3419 
Q 3406 3131 3298 2873 
Q 3191 2616 2906 2266 
Q 2828 2175 2409 1742 
Q 1991 1309 1228 531 
z
" transform="scale(0.015625)"/>
       </defs>
       <use xlink:href="#DejaVuSans-32"/>
       <use xlink:href="#DejaVuSans-30" x="63.623047"/>
       <use xlink:href="#DejaVuSans-30" x="127.246094"/>
      </g>
     </g>
    </g>
    <g id="xtick_4">
     <g id="line2d_7">
      <path d="M 339.84 384.48 
L 339.84 51.84 
" clip-path="url(#p2a08a599ad)" style="fill: none; stroke: #b0b0b0; stroke-width: 0.8; stroke-linecap: square"/>
     </g>
     <g id="line2d_8">
      <g>
       <use xlink:href="#m6d9b0be3ea" x="339.84" y="384.48" style="stroke: #000000; stroke-width: 0.8"/>
      </g>
     </g>
     <g id="text_4">
      <!-- 300 -->
      <g transform="translate(330.29625 399.078438) scale(0.1 -0.1)">
       <defs>
        <path id="DejaVuSans-33" d="M 2597 2516 
Q 3050 2419 3304 2112 
Q 3559 1806 3559 1356 
Q 3559 666 3084 287 
Q 2609 -91 1734 -91 
Q 1441 -91 1130 -33 
Q 819 25 488 141 
L 488 750 
Q 750 597 1062 519 
Q 1375 441 1716 441 
Q 2309 441 2620 675 
Q 2931 909 2931 1356 
Q 2931 1769 2642 2001 
Q 2353 2234 1838 2234 
L 1294 2234 
L 1294 2753 
L 1863 2753 
Q 2328 2753 2575 2939 
Q 2822 3125 2822 3475 
Q 2822 3834 2567 4026 
Q 2313 4219 1838 4219 
Q 1578 4219 1281 4162 
Q 984 4106 628 3988 
L 628 4550 
Q 988 4650 1302 4700 
Q 1616 4750 1894 4750 
Q 2613 4750 3031 4423 
Q 3450 4097 3450 3541 
Q 3450 3153 3228 2886 
Q 3006 2619 2597 2516 
z
" transform="scale(0.015625)"/>
       </defs>
       <use xlink:href="#DejaVuSans-33"/>
       <use xlink:href="#DejaVuSans-30" x="63.623047"/>
       <use xlink:href="#DejaVuSans-30" x="127.246094"/>
      </g>
     </g>
    </g>
    <g id="xtick_5">
     <g id="line2d_9">
      <path d="M 429.12 384.48 
L 429.12 51.84 
" clip-path="url(#p2a08a599ad)" style="fill: none; stroke: #b0b0b0; stroke-width: 0.8; stroke-linecap: square"/>
     </g>
     <g id="line2d_10">
      <g>
       <use xlink:href="#m6d9b0be3ea" x="429.12" y="384.48" style="stroke: #000000; stroke-width: 0.8"/>
      </g>
     </g>
     <g id="text_5">
      <!-- 400 -->
      <g transform="translate(419.57625 399.078438) scale(0.1 -0.1)">
       <defs>
        <path id="DejaVuSans-34" d="M 2419 4116 
L 825 1625 
L 2419 1625 
L 2419 4116 
z
M 2253 4666 
L 3047 4666 
L 3047 1625 
L 3713 1625 
L 3713 1100 
L 3047 1100 
L 3047 0 
L 2419 0 
L 2419 1100 
L 313 1100 
L 313 1709 
L 2253 4666 
z
" transform="scale(0.015625)"/>
       </defs>
       <use xlink:href="#DejaVuSans-34"/>
       <use xlink:href="#DejaVuSans-30" x="63.623047"/>
       <use xlink:href="#DejaVuSans-30" x="127.246094"/>
      </g>
     </g>
    </g>
    <g id="xtick_6">
     <g id="line2d_11">
      <path d="M 518.4 384.48 
L 518.4 51.84 
" clip-path="url(#p2a08a599ad)" style="fill: none; stroke: #b0b0b0; stroke-width: 0.8; stroke-linecap: square"/>
     </g>
     <g id="line2d_12">
      <g>
       <use xlink:href="#m6d9b0be3ea" x="518.4" y="384.48" style="stroke: #000000; stroke-width: 0.8"/>
      </g>
     </g>
     <g id="text_6">
      <!-- 500 -->
      <g transform="translate(508.85625 399.078438) scale(0.1 -0.1)">
       <defs>
        <path id="DejaVuSans-35" d="M 691 4666 
L 3169 4666 
L 3169 4134 
L 1269 4134 
L 1269 2991 
Q 1406 3038 1543 3061 
Q 1681 3084 1819 3084 
Q 2600 3084 3056 2656 
Q 3513 2228 3513 1497 
Q 3513 744 3044 326 
Q 2575 -91 1722 -91 
Q 1428 -91 1123 -41 
Q 819 9 494 109 
L 494 744 
Q 775 591 1075 516 
Q 1375 441 1709 441 
Q 2250 441 2565 725 
Q 2881 1009 2881 1497 
Q 2881 1984 2565 2268 
Q 2250 2553 1709 2553 
Q 1456 2553 1204 2497 
Q 953 2441 691 2322 
L 691 4666 
z
" transform="scale(0.015625)"/>
       </defs>
       <use xlink:href="#DejaVuSans-35"/>
       <use xlink:href="#DejaVuSans-30" x="63.623047"/>
       <use xlink:href="#DejaVuSans-30" x="127.246094"/>
      </g>
     </g>
    </g>
    <g id="text_7">
     <!-- Computational time [s] -->
     <g transform="translate(208.501172 416.555781) scale(0.15 -0.15)">
      <defs>
       <path id="DejaVuSans-43" d="M 4122 4306 
L 4122 3641 
Q 3803 3938 3442 4084 
Q 3081 4231 2675 4231 
Q 1875 4231 1450 3742 
Q 1025 3253 1025 2328 
Q 1025 1406 1450 917 
Q 1875 428 2675 428 
Q 3081 428 3442 575 
Q 3803 722 4122 1019 
L 4122 359 
Q 3791 134 3420 21 
Q 3050 -91 2638 -91 
Q 1578 -91 968 557 
Q 359 1206 359 2328 
Q 359 3453 968 4101 
Q 1578 4750 2638 4750 
Q 3056 4750 3426 4639 
Q 3797 4528 4122 4306 
z
" transform="scale(0.015625)"/>
       <path id="DejaVuSans-6f" d="M 1959 3097 
Q 1497 3097 1228 2736 
Q 959 2375 959 1747 
Q 959 1119 1226 758 
Q 1494 397 1959 397 
Q 2419 397 2687 759 
Q 2956 1122 2956 1747 
Q 2956 2369 2687 2733 
Q 2419 3097 1959 3097 
z
M 1959 3584 
Q 2709 3584 3137 3096 
Q 3566 2609 3566 1747 
Q 3566 888 3137 398 
Q 2709 -91 1959 -91 
Q 1206 -91 779 398 
Q 353 888 353 1747 
Q 353 2609 779 3096 
Q 1206 3584 1959 3584 
z
" transform="scale(0.015625)"/>
       <path id="DejaVuSans-6d" d="M 3328 2828 
Q 3544 3216 3844 3400 
Q 4144 3584 4550 3584 
Q 5097 3584 5394 3201 
Q 5691 2819 5691 2113 
L 5691 0 
L 5113 0 
L 5113 2094 
Q 5113 2597 4934 2840 
Q 4756 3084 4391 3084 
Q 3944 3084 3684 2787 
Q 3425 2491 3425 1978 
L 3425 0 
L 2847 0 
L 2847 2094 
Q 2847 2600 2669 2842 
Q 2491 3084 2119 3084 
Q 1678 3084 1418 2786 
Q 1159 2488 1159 1978 
L 1159 0 
L 581 0 
L 581 3500 
L 1159 3500 
L 1159 2956 
Q 1356 3278 1631 3431 
Q 1906 3584 2284 3584 
Q 2666 3584 2933 3390 
Q 3200 3197 3328 2828 
z
" transform="scale(0.015625)"/>
       <path id="DejaVuSans-70" d="M 1159 525 
L 1159 -1331 
L 581 -1331 
L 581 3500 
L 1159 3500 
L 1159 2969 
Q 1341 3281 1617 3432 
Q 1894 3584 2278 3584 
Q 2916 3584 3314 3078 
Q 3713 2572 3713 1747 
Q 3713 922 3314 415 
Q 2916 -91 2278 -91 
Q 1894 -91 1617 61 
Q 1341 213 1159 525 
z
M 3116 1747 
Q 3116 2381 2855 2742 
Q 2594 3103 2138 3103 
Q 1681 3103 1420 2742 
Q 1159 2381 1159 1747 
Q 1159 1113 1420 752 
Q 1681 391 2138 391 
Q 2594 391 2855 752 
Q 3116 1113 3116 1747 
z
" transform="scale(0.015625)"/>
       <path id="DejaVuSans-75" d="M 544 1381 
L 544 3500 
L 1119 3500 
L 1119 1403 
Q 1119 906 1312 657 
Q 1506 409 1894 409 
Q 2359 409 2629 706 
Q 2900 1003 2900 1516 
L 2900 3500 
L 3475 3500 
L 3475 0 
L 2900 0 
L 2900 538 
Q 2691 219 2414 64 
Q 2138 -91 1772 -91 
Q 1169 -91 856 284 
Q 544 659 544 1381 
z
M 1991 3584 
L 1991 3584 
z
" transform="scale(0.015625)"/>
       <path id="DejaVuSans-74" d="M 1172 4494 
L 1172 3500 
L 2356 3500 
L 2356 3053 
L 1172 3053 
L 1172 1153 
Q 1172 725 1289 603 
Q 1406 481 1766 481 
L 2356 481 
L 2356 0 
L 1766 0 
Q 1100 0 847 248 
Q 594 497 594 1153 
L 594 3053 
L 172 3053 
L 172 3500 
L 594 3500 
L 594 4494 
L 1172 4494 
z
" transform="scale(0.015625)"/>
       <path id="DejaVuSans-61" d="M 2194 1759 
Q 1497 1759 1228 1600 
Q 959 1441 959 1056 
Q 959 750 1161 570 
Q 1363 391 1709 391 
Q 2188 391 2477 730 
Q 2766 1069 2766 1631 
L 2766 1759 
L 2194 1759 
z
M 3341 1997 
L 3341 0 
L 2766 0 
L 2766 531 
Q 2569 213 2275 61 
Q 1981 -91 1556 -91 
Q 1019 -91 701 211 
Q 384 513 384 1019 
Q 384 1609 779 1909 
Q 1175 2209 1959 2209 
L 2766 2209 
L 2766 2266 
Q 2766 2663 2505 2880 
Q 2244 3097 1772 3097 
Q 1472 3097 1187 3025 
Q 903 2953 641 2809 
L 641 3341 
Q 956 3463 1253 3523 
Q 1550 3584 1831 3584 
Q 2591 3584 2966 3190 
Q 3341 2797 3341 1997 
z
" transform="scale(0.015625)"/>
       <path id="DejaVuSans-69" d="M 603 3500 
L 1178 3500 
L 1178 0 
L 603 0 
L 603 3500 
z
M 603 4863 
L 1178 4863 
L 1178 4134 
L 603 4134 
L 603 4863 
z
" transform="scale(0.015625)"/>
       <path id="DejaVuSans-6e" d="M 3513 2113 
L 3513 0 
L 2938 0 
L 2938 2094 
Q 2938 2591 2744 2837 
Q 2550 3084 2163 3084 
Q 1697 3084 1428 2787 
Q 1159 2491 1159 1978 
L 1159 0 
L 581 0 
L 581 3500 
L 1159 3500 
L 1159 2956 
Q 1366 3272 1645 3428 
Q 1925 3584 2291 3584 
Q 2894 3584 3203 3211 
Q 3513 2838 3513 2113 
z
" transform="scale(0.015625)"/>
       <path id="DejaVuSans-6c" d="M 603 4863 
L 1178 4863 
L 1178 0 
L 603 0 
L 603 4863 
z
" transform="scale(0.015625)"/>
       <path id="DejaVuSans-20" transform="scale(0.015625)"/>
       <path id="DejaVuSans-65" d="M 3597 1894 
L 3597 1613 
L 953 1613 
Q 991 1019 1311 708 
Q 1631 397 2203 397 
Q 2534 397 2845 478 
Q 3156 559 3463 722 
L 3463 178 
Q 3153 47 2828 -22 
Q 2503 -91 2169 -91 
Q 1331 -91 842 396 
Q 353 884 353 1716 
Q 353 2575 817 3079 
Q 1281 3584 2069 3584 
Q 2775 3584 3186 3129 
Q 3597 2675 3597 1894 
z
M 3022 2063 
Q 3016 2534 2758 2815 
Q 2500 3097 2075 3097 
Q 1594 3097 1305 2825 
Q 1016 2553 972 2059 
L 3022 2063 
z
" transform="scale(0.015625)"/>
       <path id="DejaVuSans-5b" d="M 550 4863 
L 1875 4863 
L 1875 4416 
L 1125 4416 
L 1125 -397 
L 1875 -397 
L 1875 -844 
L 550 -844 
L 550 4863 
z
" transform="scale(0.015625)"/>
       <path id="DejaVuSans-73" d="M 2834 3397 
L 2834 2853 
Q 2591 2978 2328 3040 
Q 2066 3103 1784 3103 
Q 1356 3103 1142 2972 
Q 928 2841 928 2578 
Q 928 2378 1081 2264 
Q 1234 2150 1697 2047 
L 1894 2003 
Q 2506 1872 2764 1633 
Q 3022 1394 3022 966 
Q 3022 478 2636 193 
Q 2250 -91 1575 -91 
Q 1294 -91 989 -36 
Q 684 19 347 128 
L 347 722 
Q 666 556 975 473 
Q 1284 391 1588 391 
Q 1994 391 2212 530 
Q 2431 669 2431 922 
Q 2431 1156 2273 1281 
Q 2116 1406 1581 1522 
L 1381 1569 
Q 847 1681 609 1914 
Q 372 2147 372 2553 
Q 372 3047 722 3315 
Q 1072 3584 1716 3584 
Q 2034 3584 2315 3537 
Q 2597 3491 2834 3397 
z
" transform="scale(0.015625)"/>
       <path id="DejaVuSans-5d" d="M 1947 4863 
L 1947 -844 
L 622 -844 
L 622 -397 
L 1369 -397 
L 1369 4416 
L 622 4416 
L 622 4863 
L 1947 4863 
z
" transform="scale(0.015625)"/>
      </defs>
      <use xlink:href="#DejaVuSans-43"/>
      <use xlink:href="#DejaVuSans-6f" x="69.824219"/>
      <use xlink:href="#DejaVuSans-6d" x="131.005859"/>
      <use xlink:href="#DejaVuSans-70" x="228.417969"/>
      <use xlink:href="#DejaVuSans-75" x="291.894531"/>
      <use xlink:href="#DejaVuSans-74" x="355.273438"/>
      <use xlink:href="#DejaVuSans-61" x="394.482422"/>
      <use xlink:href="#DejaVuSans-74" x="455.761719"/>
      <use xlink:href="#DejaVuSans-69" x="494.970703"/>
      <use xlink:href="#DejaVuSans-6f" x="522.753906"/>
      <use xlink:href="#DejaVuSans-6e" x="583.935547"/>
      <use xlink:href="#DejaVuSans-61" x="647.314453"/>
      <use xlink:href="#DejaVuSans-6c" x="708.59375"/>
      <use xlink:href="#DejaVuSans-20" x="736.376953"/>
      <use xlink:href="#DejaVuSans-74" x="768.164062"/>
      <use xlink:href="#DejaVuSans-69" x="807.373047"/>
      <use xlink:href="#DejaVuSans-6d" x="835.15625"/>
      <use xlink:href="#DejaVuSans-65" x="932.568359"/>
      <use xlink:href="#DejaVuSans-20" x="994.091797"/>
      <use xlink:href="#DejaVuSans-5b" x="1025.878906"/>
      <use xlink:href="#DejaVuSans-73" x="1064.892578"/>
      <use xlink:href="#DejaVuSans-5d" x="1116.992188"/>
     </g>
    </g>
   </g>
   <g id="matplotlib.axis_2">
    <g id="ytick_1">
     <g id="line2d_13">
      <path d="M 72 369.36 
L 518.4 369.36 
" clip-path="url(#p2a08a599ad)" style="fill: none; stroke: #b0b0b0; stroke-width: 0.8; stroke-linecap: square"/>
     </g>
     <g id="line2d_14">
      <defs>
       <path id="m2f65e36f37" d="M 0 0 
L -3.5 0 
" style="stroke: #000000; stroke-width: 0.8"/>
      </defs>
      <g>
       <use xlink:href="#m2f65e36f37" x="72" y="369.36" style="stroke: #000000; stroke-width: 0.8"/>
      </g>
     </g>
     <g id="text_8">
      <!-- 0 -->
      <g transform="translate(58.6375 373.159219) scale(0.1 -0.1)">
       <use xlink:href="#DejaVuSans-30"/>
      </g>
     </g>
    </g>
    <g id="ytick_2">
     <g id="line2d_15">
      <path d="M 72 327.696064 
L 518.4 327.696064 
" clip-path="url(#p2a08a599ad)" style="fill: none; stroke: #b0b0b0; stroke-width: 0.8; stroke-linecap: square"/>
     </g>
     <g id="line2d_16">
      <g>
       <use xlink:href="#m2f65e36f37" x="72" y="327.696064" style="stroke: #000000; stroke-width: 0.8"/>
      </g>
     </g>
     <g id="text_9">
      <!-- 1 -->
      <g transform="translate(58.6375 331.495283) scale(0.1 -0.1)">
       <use xlink:href="#DejaVuSans-31"/>
      </g>
     </g>
    </g>
    <g id="ytick_3">
     <g id="line2d_17">
      <path d="M 72 286.032129 
L 518.4 286.032129 
" clip-path="url(#p2a08a599ad)" style="fill: none; stroke: #b0b0b0; stroke-width: 0.8; stroke-linecap: square"/>
     </g>
     <g id="line2d_18">
      <g>
       <use xlink:href="#m2f65e36f37" x="72" y="286.032129" style="stroke: #000000; stroke-width: 0.8"/>
      </g>
     </g>
     <g id="text_10">
      <!-- 2 -->
      <g transform="translate(58.6375 289.831347) scale(0.1 -0.1)">
       <use xlink:href="#DejaVuSans-32"/>
      </g>
     </g>
    </g>
    <g id="ytick_4">
     <g id="line2d_19">
      <path d="M 72 244.368193 
L 518.4 244.368193 
" clip-path="url(#p2a08a599ad)" style="fill: none; stroke: #b0b0b0; stroke-width: 0.8; stroke-linecap: square"/>
     </g>
     <g id="line2d_20">
      <g>
       <use xlink:href="#m2f65e36f37" x="72" y="244.368193" style="stroke: #000000; stroke-width: 0.8"/>
      </g>
     </g>
     <g id="text_11">
      <!-- 3 -->
      <g transform="translate(58.6375 248.167412) scale(0.1 -0.1)">
       <use xlink:href="#DejaVuSans-33"/>
      </g>
     </g>
    </g>
    <g id="ytick_5">
     <g id="line2d_21">
      <path d="M 72 202.704257 
L 518.4 202.704257 
" clip-path="url(#p2a08a599ad)" style="fill: none; stroke: #b0b0b0; stroke-width: 0.8; stroke-linecap: square"/>
     </g>
     <g id="line2d_22">
      <g>
       <use xlink:href="#m2f65e36f37" x="72" y="202.704257" style="stroke: #000000; stroke-width: 0.8"/>
      </g>
     </g>
     <g id="text_12">
      <!-- 4 -->
      <g transform="translate(58.6375 206.503476) scale(0.1 -0.1)">
       <use xlink:href="#DejaVuSans-34"/>
      </g>
     </g>
    </g>
    <g id="ytick_6">
     <g id="line2d_23">
      <path d="M 72 161.040321 
L 518.4 161.040321 
" clip-path="url(#p2a08a599ad)" style="fill: none; stroke: #b0b0b0; stroke-width: 0.8; stroke-linecap: square"/>
     </g>
     <g id="line2d_24">
      <g>
       <use xlink:href="#m2f65e36f37" x="72" y="161.040321" style="stroke: #000000; stroke-width: 0.8"/>
      </g>
     </g>
     <g id="text_13">
      <!-- 5 -->
      <g transform="translate(58.6375 164.83954) scale(0.1 -0.1)">
       <use xlink:href="#DejaVuSans-35"/>
      </g>
     </g>
    </g>
    <g id="ytick_7">
     <g id="line2d_25">
      <path d="M 72 119.376386 
L 518.4 119.376386 
" clip-path="url(#p2a08a599ad)" style="fill: none; stroke: #b0b0b0; stroke-width: 0.8; stroke-linecap: square"/>
     </g>
     <g id="line2d_26">
      <g>
       <use xlink:href="#m2f65e36f37" x="72" y="119.376386" style="stroke: #000000; stroke-width: 0.8"/>
      </g>
     </g>
     <g id="text_14">
      <!-- 6 -->
      <g transform="translate(58.6375 123.175604) scale(0.1 -0.1)">
       <defs>
        <path id="DejaVuSans-36" d="M 2113 2584 
Q 1688 2584 1439 2293 
Q 1191 2003 1191 1497 
Q 1191 994 1439 701 
Q 1688 409 2113 409 
Q 2538 409 2786 701 
Q 3034 994 3034 1497 
Q 3034 2003 2786 2293 
Q 2538 2584 2113 2584 
z
M 3366 4563 
L 3366 3988 
Q 3128 4100 2886 4159 
Q 2644 4219 2406 4219 
Q 1781 4219 1451 3797 
Q 1122 3375 1075 2522 
Q 1259 2794 1537 2939 
Q 1816 3084 2150 3084 
Q 2853 3084 3261 2657 
Q 3669 2231 3669 1497 
Q 3669 778 3244 343 
Q 2819 -91 2113 -91 
Q 1303 -91 875 529 
Q 447 1150 447 2328 
Q 447 3434 972 4092 
Q 1497 4750 2381 4750 
Q 2619 4750 2861 4703 
Q 3103 4656 3366 4563 
z
" transform="scale(0.015625)"/>
       </defs>
       <use xlink:href="#DejaVuSans-36"/>
      </g>
     </g>
    </g>
    <g id="ytick_8">
     <g id="line2d_27">
      <path d="M 72 77.71245 
L 518.4 77.71245 
" clip-path="url(#p2a08a599ad)" style="fill: none; stroke: #b0b0b0; stroke-width: 0.8; stroke-linecap: square"/>
     </g>
     <g id="line2d_28">
      <g>
       <use xlink:href="#m2f65e36f37" x="72" y="77.71245" style="stroke: #000000; stroke-width: 0.8"/>
      </g>
     </g>
     <g id="text_15">
      <!-- 7 -->
      <g transform="translate(58.6375 81.511669) scale(0.1 -0.1)">
       <defs>
        <path id="DejaVuSans-37" d="M 525 4666 
L 3525 4666 
L 3525 4397 
L 1831 0 
L 1172 0 
L 2766 4134 
L 525 4134 
L 525 4666 
z
" transform="scale(0.015625)"/>
       </defs>
       <use xlink:href="#DejaVuSans-37"/>
      </g>
     </g>
    </g>
    <g id="text_16">
     <!-- Constraint violation -->
     <g transform="translate(51.517969 291.583828) rotate(-90) scale(0.15 -0.15)">
      <defs>
       <path id="DejaVuSans-72" d="M 2631 2963 
Q 2534 3019 2420 3045 
Q 2306 3072 2169 3072 
Q 1681 3072 1420 2755 
Q 1159 2438 1159 1844 
L 1159 0 
L 581 0 
L 581 3500 
L 1159 3500 
L 1159 2956 
Q 1341 3275 1631 3429 
Q 1922 3584 2338 3584 
Q 2397 3584 2469 3576 
Q 2541 3569 2628 3553 
L 2631 2963 
z
" transform="scale(0.015625)"/>
       <path id="DejaVuSans-76" d="M 191 3500 
L 800 3500 
L 1894 563 
L 2988 3500 
L 3597 3500 
L 2284 0 
L 1503 0 
L 191 3500 
z
" transform="scale(0.015625)"/>
      </defs>
      <use xlink:href="#DejaVuSans-43"/>
      <use xlink:href="#DejaVuSans-6f" x="69.824219"/>
      <use xlink:href="#DejaVuSans-6e" x="131.005859"/>
      <use xlink:href="#DejaVuSans-73" x="194.384766"/>
      <use xlink:href="#DejaVuSans-74" x="246.484375"/>
      <use xlink:href="#DejaVuSans-72" x="285.693359"/>
      <use xlink:href="#DejaVuSans-61" x="326.806641"/>
      <use xlink:href="#DejaVuSans-69" x="388.085938"/>
      <use xlink:href="#DejaVuSans-6e" x="415.869141"/>
      <use xlink:href="#DejaVuSans-74" x="479.248047"/>
      <use xlink:href="#DejaVuSans-20" x="518.457031"/>
      <use xlink:href="#DejaVuSans-76" x="550.244141"/>
      <use xlink:href="#DejaVuSans-69" x="609.423828"/>
      <use xlink:href="#DejaVuSans-6f" x="637.207031"/>
      <use xlink:href="#DejaVuSans-6c" x="698.388672"/>
      <use xlink:href="#DejaVuSans-61" x="726.171875"/>
      <use xlink:href="#DejaVuSans-74" x="787.451172"/>
      <use xlink:href="#DejaVuSans-69" x="826.660156"/>
      <use xlink:href="#DejaVuSans-6f" x="854.443359"/>
      <use xlink:href="#DejaVuSans-6e" x="915.625"/>
     </g>
    </g>
   </g>
   <g id="line2d_29">
    <path d="M 72.146891 369.36 
" clip-path="url(#p2a08a599ad)" style="fill: none; stroke: #36ff33; stroke-width: 1.5; stroke-linecap: square"/>
    <defs>
     <path id="m9dabcedee5" d="M -6 6 
L 6 6 
L 6 -6 
L -6 -6 
z
" style="stroke: #36ff33; stroke-linejoin: miter"/>
    </defs>
    <g clip-path="url(#p2a08a599ad)">
     <use xlink:href="#m9dabcedee5" x="72.146891" y="369.36" style="fill: #36ff33; stroke: #36ff33; stroke-linejoin: miter"/>
    </g>
   </g>
   <g id="line2d_30">
    <path d="M 72.146891 369.36 
L 518.4 369.36 
" clip-path="url(#p2a08a599ad)" style="fill: none; stroke: #36ff33; stroke-width: 1.5; stroke-linecap: square"/>
   </g>
   <g id="line2d_31">
    <path d="M 98.737896 66.960318 
" clip-path="url(#p2a08a599ad)" style="fill: none; stroke: #b6c800; stroke-width: 1.5; stroke-linecap: square"/>
    <defs>
     <path id="mf05cc3a9f9" d="M 0 -6 
L -6 6 
L 6 6 
z
" style="stroke: #b6c800; stroke-linejoin: miter"/>
    </defs>
    <g clip-path="url(#p2a08a599ad)">
     <use xlink:href="#mf05cc3a9f9" x="98.737896" y="66.960318" style="fill: #b6c800; stroke: #b6c800; stroke-linejoin: miter"/>
    </g>
   </g>
   <g id="line2d_32">
    <path d="M 98.737896 66.960318 
L 518.4 66.960318 
" clip-path="url(#p2a08a599ad)" style="fill: none; stroke: #b6c800; stroke-width: 1.5; stroke-linecap: square"/>
   </g>
   <g id="line2d_33">
    <path d="M 96.005178 369.350146 
" clip-path="url(#p2a08a599ad)" style="fill: none; stroke: #f119c3; stroke-width: 1.5; stroke-linecap: square"/>
    <defs>
     <path id="mc86d567f40" d="M -0 6 
L 6 -6 
L -6 -6 
z
" style="stroke: #f119c3; stroke-linejoin: miter"/>
    </defs>
    <g clip-path="url(#p2a08a599ad)">
     <use xlink:href="#mc86d567f40" x="96.005178" y="369.350146" style="fill: #f119c3; stroke: #f119c3; stroke-linejoin: miter"/>
    </g>
   </g>
   <g id="line2d_34">
    <path d="M 96.005178 369.350146 
L 518.4 369.350146 
" clip-path="url(#p2a08a599ad)" style="fill: none; stroke: #f119c3; stroke-width: 1.5; stroke-linecap: square"/>
   </g>
   <g id="line2d_35">
    <path d="M 97.97943 161.77492 
L 122.671655 234.111939 
L 147.711883 247.978885 
L 172.022997 249.470334 
L 196.38865 249.185204 
L 220.71666 249.071724 
L 245.506326 249.041685 
L 269.615928 249.032308 
L 293.417556 249.031196 
L 319.381192 249.041368 
L 343.904895 249.028653 
L 369.548633 249.031672 
L 394.201025 249.032149 
L 420.464283 249.033898 
L 445.105904 249.029447 
L 469.509424 248.981449 
L 495.303478 249.034374 
L 520.520296 248.988283 
" clip-path="url(#p2a08a599ad)" style="fill: none; stroke: #0d5915; stroke-width: 1.5; stroke-linecap: square"/>
    <defs>
     <path id="md5ba07f3bf" d="M 0 0 
L 0 -7.5 
M 0 0 
L -6 3.75 
M 0 0 
L 6 3.75 
" style="stroke: #0d5915"/>
    </defs>
    <g clip-path="url(#p2a08a599ad)">
     <use xlink:href="#md5ba07f3bf" x="97.97943" y="161.77492" style="fill: #0d5915; stroke: #0d5915"/>
     <use xlink:href="#md5ba07f3bf" x="122.671655" y="234.111939" style="fill: #0d5915; stroke: #0d5915"/>
     <use xlink:href="#md5ba07f3bf" x="147.711883" y="247.978885" style="fill: #0d5915; stroke: #0d5915"/>
     <use xlink:href="#md5ba07f3bf" x="172.022997" y="249.470334" style="fill: #0d5915; stroke: #0d5915"/>
     <use xlink:href="#md5ba07f3bf" x="196.38865" y="249.185204" style="fill: #0d5915; stroke: #0d5915"/>
     <use xlink:href="#md5ba07f3bf" x="220.71666" y="249.071724" style="fill: #0d5915; stroke: #0d5915"/>
     <use xlink:href="#md5ba07f3bf" x="245.506326" y="249.041685" style="fill: #0d5915; stroke: #0d5915"/>
     <use xlink:href="#md5ba07f3bf" x="269.615928" y="249.032308" style="fill: #0d5915; stroke: #0d5915"/>
     <use xlink:href="#md5ba07f3bf" x="293.417556" y="249.031196" style="fill: #0d5915; stroke: #0d5915"/>
     <use xlink:href="#md5ba07f3bf" x="319.381192" y="249.041368" style="fill: #0d5915; stroke: #0d5915"/>
     <use xlink:href="#md5ba07f3bf" x="343.904895" y="249.028653" style="fill: #0d5915; stroke: #0d5915"/>
     <use xlink:href="#md5ba07f3bf" x="369.548633" y="249.031672" style="fill: #0d5915; stroke: #0d5915"/>
     <use xlink:href="#md5ba07f3bf" x="394.201025" y="249.032149" style="fill: #0d5915; stroke: #0d5915"/>
     <use xlink:href="#md5ba07f3bf" x="420.464283" y="249.033898" style="fill: #0d5915; stroke: #0d5915"/>
     <use xlink:href="#md5ba07f3bf" x="445.105904" y="249.029447" style="fill: #0d5915; stroke: #0d5915"/>
     <use xlink:href="#md5ba07f3bf" x="469.509424" y="248.981449" style="fill: #0d5915; stroke: #0d5915"/>
     <use xlink:href="#md5ba07f3bf" x="495.303478" y="249.034374" style="fill: #0d5915; stroke: #0d5915"/>
     <use xlink:href="#md5ba07f3bf" x="520.520296" y="248.988283" style="fill: #0d5915; stroke: #0d5915"/>
    </g>
   </g>
   <g id="line2d_36">
    <path d="M 72.934921 369.36 
L 89.88594 365.985271 
L 106.841918 367.315905 
L 125.214672 367.020022 
L 142.39159 367.737593 
L 159.466984 367.386374 
L 176.291329 367.942695 
L 193.732007 367.595764 
L 210.74485 368.072292 
L 228.261736 367.737533 
L 246.55236 368.164597 
L 263.33421 367.842509 
L 280.567953 368.235082 
L 297.604952 367.924699 
L 314.394056 368.291424 
L 331.06875 367.991556 
L 348.560654 368.337944 
L 365.008971 368.047474 
L 382.195527 368.377293 
L 400.64095 368.095245 
L 417.483745 368.411207 
L 434.497911 368.136742 
L 452.983811 368.440876 
L 469.912159 368.173279 
L 498.147463 368.467152 
L 518.363952 368.205808 
L 518.402104 368.479237 
" clip-path="url(#p2a08a599ad)" style="fill: none; stroke: #e31d1d; stroke-width: 1.5; stroke-linecap: square"/>
    <defs>
     <path id="m26c84799be" d="M 0 5 
C 1.326016 5 2.597899 4.473168 3.535534 3.535534 
C 4.473168 2.597899 5 1.326016 5 0 
C 5 -1.326016 4.473168 -2.597899 3.535534 -3.535534 
C 2.597899 -4.473168 1.326016 -5 0 -5 
C -1.326016 -5 -2.597899 -4.473168 -3.535534 -3.535534 
C -4.473168 -2.597899 -5 -1.326016 -5 0 
C -5 1.326016 -4.473168 2.597899 -3.535534 3.535534 
C -2.597899 4.473168 -1.326016 5 0 5 
z
" style="stroke: #e31d1d"/>
    </defs>
    <g clip-path="url(#p2a08a599ad)">
     <use xlink:href="#m26c84799be" x="72.934921" y="369.36" style="fill: #e31d1d; stroke: #e31d1d"/>
     <use xlink:href="#m26c84799be" x="89.88594" y="365.985271" style="fill: #e31d1d; stroke: #e31d1d"/>
     <use xlink:href="#m26c84799be" x="106.841918" y="367.315905" style="fill: #e31d1d; stroke: #e31d1d"/>
     <use xlink:href="#m26c84799be" x="125.214672" y="367.020022" style="fill: #e31d1d; stroke: #e31d1d"/>
     <use xlink:href="#m26c84799be" x="142.39159" y="367.737593" style="fill: #e31d1d; stroke: #e31d1d"/>
     <use xlink:href="#m26c84799be" x="159.466984" y="367.386374" style="fill: #e31d1d; stroke: #e31d1d"/>
     <use xlink:href="#m26c84799be" x="176.291329" y="367.942695" style="fill: #e31d1d; stroke: #e31d1d"/>
     <use xlink:href="#m26c84799be" x="193.732007" y="367.595764" style="fill: #e31d1d; stroke: #e31d1d"/>
     <use xlink:href="#m26c84799be" x="210.74485" y="368.072292" style="fill: #e31d1d; stroke: #e31d1d"/>
     <use xlink:href="#m26c84799be" x="228.261736" y="367.737533" style="fill: #e31d1d; stroke: #e31d1d"/>
     <use xlink:href="#m26c84799be" x="246.55236" y="368.164597" style="fill: #e31d1d; stroke: #e31d1d"/>
     <use xlink:href="#m26c84799be" x="263.33421" y="367.842509" style="fill: #e31d1d; stroke: #e31d1d"/>
     <use xlink:href="#m26c84799be" x="280.567953" y="368.235082" style="fill: #e31d1d; stroke: #e31d1d"/>
     <use xlink:href="#m26c84799be" x="297.604952" y="367.924699" style="fill: #e31d1d; stroke: #e31d1d"/>
     <use xlink:href="#m26c84799be" x="314.394056" y="368.291424" style="fill: #e31d1d; stroke: #e31d1d"/>
     <use xlink:href="#m26c84799be" x="331.06875" y="367.991556" style="fill: #e31d1d; stroke: #e31d1d"/>
     <use xlink:href="#m26c84799be" x="348.560654" y="368.337944" style="fill: #e31d1d; stroke: #e31d1d"/>
     <use xlink:href="#m26c84799be" x="365.008971" y="368.047474" style="fill: #e31d1d; stroke: #e31d1d"/>
     <use xlink:href="#m26c84799be" x="382.195527" y="368.377293" style="fill: #e31d1d; stroke: #e31d1d"/>
     <use xlink:href="#m26c84799be" x="400.64095" y="368.095245" style="fill: #e31d1d; stroke: #e31d1d"/>
     <use xlink:href="#m26c84799be" x="417.483745" y="368.411207" style="fill: #e31d1d; stroke: #e31d1d"/>
     <use xlink:href="#m26c84799be" x="434.497911" y="368.136742" style="fill: #e31d1d; stroke: #e31d1d"/>
     <use xlink:href="#m26c84799be" x="452.983811" y="368.440876" style="fill: #e31d1d; stroke: #e31d1d"/>
     <use xlink:href="#m26c84799be" x="469.912159" y="368.173279" style="fill: #e31d1d; stroke: #e31d1d"/>
     <use xlink:href="#m26c84799be" x="498.147463" y="368.467152" style="fill: #e31d1d; stroke: #e31d1d"/>
     <use xlink:href="#m26c84799be" x="518.363952" y="368.205808" style="fill: #e31d1d; stroke: #e31d1d"/>
     <use xlink:href="#m26c84799be" x="518.402104" y="368.479237" style="fill: #e31d1d; stroke: #e31d1d"/>
    </g>
   </g>
   <g id="line2d_37">
    <path d="M 72.014861 369.36 
L 91.176681 366.027651 
L 109.714202 366.715054 
L 129.592514 367.04941 
L 149.781767 367.260682 
L 169.072502 367.411161 
L 187.004051 367.52607 
L 204.883205 367.617922 
L 222.226649 367.693761 
L 240.130995 367.757911 
L 257.542578 367.813199 
L 274.255125 367.861568 
L 291.034901 367.904403 
L 308.553917 367.942726 
L 325.946724 367.977307 
L 343.444978 368.008743 
L 361.095592 368.037502 
L 378.662243 368.063958 
L 395.921476 368.088418 
L 413.881157 368.111129 
L 431.026139 368.132301 
L 447.704342 368.152105 
L 465.889882 368.170691 
L 483.611942 368.188184 
L 500.889712 368.20469 
L 518.383874 368.220304 
L 518.402651 368.220319 
" clip-path="url(#p2a08a599ad)" style="fill: none; stroke-dasharray: 1.5,15; stroke-dashoffset: 0; stroke: #df6f67; stroke-width: 1.5"/>
    <defs>
     <path id="ma97aa8c778" d="M 0 3 
C 0.795609 3 1.55874 2.683901 2.12132 2.12132 
C 2.683901 1.55874 3 0.795609 3 0 
C 3 -0.795609 2.683901 -1.55874 2.12132 -2.12132 
C 1.55874 -2.683901 0.795609 -3 0 -3 
C -0.795609 -3 -1.55874 -2.683901 -2.12132 -2.12132 
C -2.683901 -1.55874 -3 -0.795609 -3 0 
C -3 0.795609 -2.683901 1.55874 -2.12132 2.12132 
C -1.55874 2.683901 -0.795609 3 0 3 
z
" style="stroke: #df6f67"/>
    </defs>
    <g clip-path="url(#p2a08a599ad)">
     <use xlink:href="#ma97aa8c778" x="72.014861" y="369.36" style="fill: #df6f67; stroke: #df6f67"/>
     <use xlink:href="#ma97aa8c778" x="91.176681" y="366.027651" style="fill: #df6f67; stroke: #df6f67"/>
     <use xlink:href="#ma97aa8c778" x="109.714202" y="366.715054" style="fill: #df6f67; stroke: #df6f67"/>
     <use xlink:href="#ma97aa8c778" x="129.592514" y="367.04941" style="fill: #df6f67; stroke: #df6f67"/>
     <use xlink:href="#ma97aa8c778" x="149.781767" y="367.260682" style="fill: #df6f67; stroke: #df6f67"/>
     <use xlink:href="#ma97aa8c778" x="169.072502" y="367.411161" style="fill: #df6f67; stroke: #df6f67"/>
     <use xlink:href="#ma97aa8c778" x="187.004051" y="367.52607" style="fill: #df6f67; stroke: #df6f67"/>
     <use xlink:href="#ma97aa8c778" x="204.883205" y="367.617922" style="fill: #df6f67; stroke: #df6f67"/>
     <use xlink:href="#ma97aa8c778" x="222.226649" y="367.693761" style="fill: #df6f67; stroke: #df6f67"/>
     <use xlink:href="#ma97aa8c778" x="240.130995" y="367.757911" style="fill: #df6f67; stroke: #df6f67"/>
     <use xlink:href="#ma97aa8c778" x="257.542578" y="367.813199" style="fill: #df6f67; stroke: #df6f67"/>
     <use xlink:href="#ma97aa8c778" x="274.255125" y="367.861568" style="fill: #df6f67; stroke: #df6f67"/>
     <use xlink:href="#ma97aa8c778" x="291.034901" y="367.904403" style="fill: #df6f67; stroke: #df6f67"/>
     <use xlink:href="#ma97aa8c778" x="308.553917" y="367.942726" style="fill: #df6f67; stroke: #df6f67"/>
     <use xlink:href="#ma97aa8c778" x="325.946724" y="367.977307" style="fill: #df6f67; stroke: #df6f67"/>
     <use xlink:href="#ma97aa8c778" x="343.444978" y="368.008743" style="fill: #df6f67; stroke: #df6f67"/>
     <use xlink:href="#ma97aa8c778" x="361.095592" y="368.037502" style="fill: #df6f67; stroke: #df6f67"/>
     <use xlink:href="#ma97aa8c778" x="378.662243" y="368.063958" style="fill: #df6f67; stroke: #df6f67"/>
     <use xlink:href="#ma97aa8c778" x="395.921476" y="368.088418" style="fill: #df6f67; stroke: #df6f67"/>
     <use xlink:href="#ma97aa8c778" x="413.881157" y="368.111129" style="fill: #df6f67; stroke: #df6f67"/>
     <use xlink:href="#ma97aa8c778" x="431.026139" y="368.132301" style="fill: #df6f67; stroke: #df6f67"/>
     <use xlink:href="#ma97aa8c778" x="447.704342" y="368.152105" style="fill: #df6f67; stroke: #df6f67"/>
     <use xlink:href="#ma97aa8c778" x="465.889882" y="368.170691" style="fill: #df6f67; stroke: #df6f67"/>
     <use xlink:href="#ma97aa8c778" x="483.611942" y="368.188184" style="fill: #df6f67; stroke: #df6f67"/>
     <use xlink:href="#ma97aa8c778" x="500.889712" y="368.20469" style="fill: #df6f67; stroke: #df6f67"/>
     <use xlink:href="#ma97aa8c778" x="518.383874" y="368.220304" style="fill: #df6f67; stroke: #df6f67"/>
     <use xlink:href="#ma97aa8c778" x="518.402651" y="368.220319" style="fill: #df6f67; stroke: #df6f67"/>
    </g>
   </g>
   <g id="line2d_38">
    <path d="M 72.02091 369.36 
L 88.508414 366.742193 
L 104.665841 366.637281 
L 120.757596 367.54489 
L 136.177685 367.198951 
L 152.775123 367.829073 
L 168.087681 367.472142 
L 185.107862 367.991497 
L 203.865398 367.644764 
L 220.541321 368.101467 
L 236.415881 367.767714 
L 253.357505 368.182897 
L 270.154594 367.8616 
L 286.145949 368.246651 
L 311.710721 367.936648 
L 330.374148 368.298512 
L 353.396765 367.998612 
L 373.312576 368.341887 
L 390.384368 368.051025 
L 410.618034 368.378942 
L 427.308162 368.096199 
L 445.321362 368.411131 
L 468.395541 368.135718 
L 484.867608 368.439473 
L 501.458695 368.170717 
L 518.358634 368.464706 
L 518.400839 368.464736 
" clip-path="url(#p2a08a599ad)" style="fill: none; stroke-dasharray: 7.5,15; stroke-dashoffset: 0; stroke: #dea39f; stroke-width: 1.5"/>
    <defs>
     <path id="mca07102017" d="M 0 3 
C 0.795609 3 1.55874 2.683901 2.12132 2.12132 
C 2.683901 1.55874 3 0.795609 3 0 
C 3 -0.795609 2.683901 -1.55874 2.12132 -2.12132 
C 1.55874 -2.683901 0.795609 -3 0 -3 
C -0.795609 -3 -1.55874 -2.683901 -2.12132 -2.12132 
C -2.683901 -1.55874 -3 -0.795609 -3 0 
C -3 0.795609 -2.683901 1.55874 -2.12132 2.12132 
C -1.55874 2.683901 -0.795609 3 0 3 
z
" style="stroke: #dea39f"/>
    </defs>
    <g clip-path="url(#p2a08a599ad)">
     <use xlink:href="#mca07102017" x="72.02091" y="369.36" style="fill: #dea39f; stroke: #dea39f"/>
     <use xlink:href="#mca07102017" x="88.508414" y="366.742193" style="fill: #dea39f; stroke: #dea39f"/>
     <use xlink:href="#mca07102017" x="104.665841" y="366.637281" style="fill: #dea39f; stroke: #dea39f"/>
     <use xlink:href="#mca07102017" x="120.757596" y="367.54489" style="fill: #dea39f; stroke: #dea39f"/>
     <use xlink:href="#mca07102017" x="136.177685" y="367.198951" style="fill: #dea39f; stroke: #dea39f"/>
     <use xlink:href="#mca07102017" x="152.775123" y="367.829073" style="fill: #dea39f; stroke: #dea39f"/>
     <use xlink:href="#mca07102017" x="168.087681" y="367.472142" style="fill: #dea39f; stroke: #dea39f"/>
     <use xlink:href="#mca07102017" x="185.107862" y="367.991497" style="fill: #dea39f; stroke: #dea39f"/>
     <use xlink:href="#mca07102017" x="203.865398" y="367.644764" style="fill: #dea39f; stroke: #dea39f"/>
     <use xlink:href="#mca07102017" x="220.541321" y="368.101467" style="fill: #dea39f; stroke: #dea39f"/>
     <use xlink:href="#mca07102017" x="236.415881" y="367.767714" style="fill: #dea39f; stroke: #dea39f"/>
     <use xlink:href="#mca07102017" x="253.357505" y="368.182897" style="fill: #dea39f; stroke: #dea39f"/>
     <use xlink:href="#mca07102017" x="270.154594" y="367.8616" style="fill: #dea39f; stroke: #dea39f"/>
     <use xlink:href="#mca07102017" x="286.145949" y="368.246651" style="fill: #dea39f; stroke: #dea39f"/>
     <use xlink:href="#mca07102017" x="311.710721" y="367.936648" style="fill: #dea39f; stroke: #dea39f"/>
     <use xlink:href="#mca07102017" x="330.374148" y="368.298512" style="fill: #dea39f; stroke: #dea39f"/>
     <use xlink:href="#mca07102017" x="353.396765" y="367.998612" style="fill: #dea39f; stroke: #dea39f"/>
     <use xlink:href="#mca07102017" x="373.312576" y="368.341887" style="fill: #dea39f; stroke: #dea39f"/>
     <use xlink:href="#mca07102017" x="390.384368" y="368.051025" style="fill: #dea39f; stroke: #dea39f"/>
     <use xlink:href="#mca07102017" x="410.618034" y="368.378942" style="fill: #dea39f; stroke: #dea39f"/>
     <use xlink:href="#mca07102017" x="427.308162" y="368.096199" style="fill: #dea39f; stroke: #dea39f"/>
     <use xlink:href="#mca07102017" x="445.321362" y="368.411131" style="fill: #dea39f; stroke: #dea39f"/>
     <use xlink:href="#mca07102017" x="468.395541" y="368.135718" style="fill: #dea39f; stroke: #dea39f"/>
     <use xlink:href="#mca07102017" x="484.867608" y="368.439473" style="fill: #dea39f; stroke: #dea39f"/>
     <use xlink:href="#mca07102017" x="501.458695" y="368.170717" style="fill: #dea39f; stroke: #dea39f"/>
     <use xlink:href="#mca07102017" x="518.358634" y="368.464706" style="fill: #dea39f; stroke: #dea39f"/>
     <use xlink:href="#mca07102017" x="518.400839" y="368.464736" style="fill: #dea39f; stroke: #dea39f"/>
    </g>
   </g>
   <g id="line2d_39">
    <path d="M 106.163178 66.960318 
L 130.875479 369.36 
L 156.037786 369.36 
L 182.85593 369.36 
L 208.533844 369.36 
L 234.43948 369.36 
L 259.072307 369.36 
L 284.912771 369.36 
L 310.266443 369.36 
L 335.860525 369.36 
L 359.853911 369.36 
L 384.684477 369.36 
L 409.709301 369.36 
L 435.798749 369.36 
L 460.904124 369.36 
L 486.877949 369.36 
L 513.774204 369.36 
L 538.630811 369.36 
" clip-path="url(#p2a08a599ad)" style="fill: none; stroke: #1c24dc; stroke-width: 1.5; stroke-linecap: square"/>
    <defs>
     <path id="ma56e66c27b" d="M 0 -5 
L -1.12257 -1.545085 
L -4.755283 -1.545085 
L -1.816356 0.59017 
L -2.938926 4.045085 
L -0 1.90983 
L 2.938926 4.045085 
L 1.816356 0.59017 
L 4.755283 -1.545085 
L 1.12257 -1.545085 
z
" style="stroke: #1c24dc; stroke-linejoin: bevel"/>
    </defs>
    <g clip-path="url(#p2a08a599ad)">
     <use xlink:href="#ma56e66c27b" x="106.163178" y="66.960318" style="fill: #1c24dc; stroke: #1c24dc; stroke-linejoin: bevel"/>
     <use xlink:href="#ma56e66c27b" x="130.875479" y="369.36" style="fill: #1c24dc; stroke: #1c24dc; stroke-linejoin: bevel"/>
     <use xlink:href="#ma56e66c27b" x="156.037786" y="369.36" style="fill: #1c24dc; stroke: #1c24dc; stroke-linejoin: bevel"/>
     <use xlink:href="#ma56e66c27b" x="182.85593" y="369.36" style="fill: #1c24dc; stroke: #1c24dc; stroke-linejoin: bevel"/>
     <use xlink:href="#ma56e66c27b" x="208.533844" y="369.36" style="fill: #1c24dc; stroke: #1c24dc; stroke-linejoin: bevel"/>
     <use xlink:href="#ma56e66c27b" x="234.43948" y="369.36" style="fill: #1c24dc; stroke: #1c24dc; stroke-linejoin: bevel"/>
     <use xlink:href="#ma56e66c27b" x="259.072307" y="369.36" style="fill: #1c24dc; stroke: #1c24dc; stroke-linejoin: bevel"/>
     <use xlink:href="#ma56e66c27b" x="284.912771" y="369.36" style="fill: #1c24dc; stroke: #1c24dc; stroke-linejoin: bevel"/>
     <use xlink:href="#ma56e66c27b" x="310.266443" y="369.36" style="fill: #1c24dc; stroke: #1c24dc; stroke-linejoin: bevel"/>
     <use xlink:href="#ma56e66c27b" x="335.860525" y="369.36" style="fill: #1c24dc; stroke: #1c24dc; stroke-linejoin: bevel"/>
     <use xlink:href="#ma56e66c27b" x="359.853911" y="369.36" style="fill: #1c24dc; stroke: #1c24dc; stroke-linejoin: bevel"/>
     <use xlink:href="#ma56e66c27b" x="384.684477" y="369.36" style="fill: #1c24dc; stroke: #1c24dc; stroke-linejoin: bevel"/>
     <use xlink:href="#ma56e66c27b" x="409.709301" y="369.36" style="fill: #1c24dc; stroke: #1c24dc; stroke-linejoin: bevel"/>
     <use xlink:href="#ma56e66c27b" x="435.798749" y="369.36" style="fill: #1c24dc; stroke: #1c24dc; stroke-linejoin: bevel"/>
     <use xlink:href="#ma56e66c27b" x="460.904124" y="369.36" style="fill: #1c24dc; stroke: #1c24dc; stroke-linejoin: bevel"/>
     <use xlink:href="#ma56e66c27b" x="486.877949" y="369.36" style="fill: #1c24dc; stroke: #1c24dc; stroke-linejoin: bevel"/>
     <use xlink:href="#ma56e66c27b" x="513.774204" y="369.36" style="fill: #1c24dc; stroke: #1c24dc; stroke-linejoin: bevel"/>
     <use xlink:href="#ma56e66c27b" x="538.630811" y="369.36" style="fill: #1c24dc; stroke: #1c24dc; stroke-linejoin: bevel"/>
    </g>
   </g>
   <g id="line2d_40">
    <path d="M 95.829796 66.960477 
L 119.642145 369.36 
L 143.279029 369.36 
L 166.533492 369.36 
L 189.929388 369.36 
L 214.252046 369.36 
L 241.025287 369.36 
L 264.854011 369.36 
L 288.639517 369.36 
L 312.081489 369.36 
L 336.28064 369.36 
L 359.994338 369.36 
L 384.119047 369.36 
L 409.794935 369.36 
L 433.605788 369.36 
L 457.455821 369.36 
L 481.578567 369.36 
L 505.189048 369.36 
L 528.493679 369.36 
" clip-path="url(#p2a08a599ad)" style="fill: none; stroke-dasharray: 1.5,15; stroke-dashoffset: 0; stroke: #595fdc; stroke-width: 1.5"/>
    <defs>
     <path id="m8c6cce90e4" d="M 0 -3 
L -0.673542 -0.927051 
L -2.85317 -0.927051 
L -1.089814 0.354102 
L -1.763356 2.427051 
L -0 1.145898 
L 1.763356 2.427051 
L 1.089814 0.354102 
L 2.85317 -0.927051 
L 0.673542 -0.927051 
z
" style="stroke: #595fdc; stroke-linejoin: bevel"/>
    </defs>
    <g clip-path="url(#p2a08a599ad)">
     <use xlink:href="#m8c6cce90e4" x="95.829796" y="66.960477" style="fill: #595fdc; stroke: #595fdc; stroke-linejoin: bevel"/>
     <use xlink:href="#m8c6cce90e4" x="119.642145" y="369.36" style="fill: #595fdc; stroke: #595fdc; stroke-linejoin: bevel"/>
     <use xlink:href="#m8c6cce90e4" x="143.279029" y="369.36" style="fill: #595fdc; stroke: #595fdc; stroke-linejoin: bevel"/>
     <use xlink:href="#m8c6cce90e4" x="166.533492" y="369.36" style="fill: #595fdc; stroke: #595fdc; stroke-linejoin: bevel"/>
     <use xlink:href="#m8c6cce90e4" x="189.929388" y="369.36" style="fill: #595fdc; stroke: #595fdc; stroke-linejoin: bevel"/>
     <use xlink:href="#m8c6cce90e4" x="214.252046" y="369.36" style="fill: #595fdc; stroke: #595fdc; stroke-linejoin: bevel"/>
     <use xlink:href="#m8c6cce90e4" x="241.025287" y="369.36" style="fill: #595fdc; stroke: #595fdc; stroke-linejoin: bevel"/>
     <use xlink:href="#m8c6cce90e4" x="264.854011" y="369.36" style="fill: #595fdc; stroke: #595fdc; stroke-linejoin: bevel"/>
     <use xlink:href="#m8c6cce90e4" x="288.639517" y="369.36" style="fill: #595fdc; stroke: #595fdc; stroke-linejoin: bevel"/>
     <use xlink:href="#m8c6cce90e4" x="312.081489" y="369.36" style="fill: #595fdc; stroke: #595fdc; stroke-linejoin: bevel"/>
     <use xlink:href="#m8c6cce90e4" x="336.28064" y="369.36" style="fill: #595fdc; stroke: #595fdc; stroke-linejoin: bevel"/>
     <use xlink:href="#m8c6cce90e4" x="359.994338" y="369.36" style="fill: #595fdc; stroke: #595fdc; stroke-linejoin: bevel"/>
     <use xlink:href="#m8c6cce90e4" x="384.119047" y="369.36" style="fill: #595fdc; stroke: #595fdc; stroke-linejoin: bevel"/>
     <use xlink:href="#m8c6cce90e4" x="409.794935" y="369.36" style="fill: #595fdc; stroke: #595fdc; stroke-linejoin: bevel"/>
     <use xlink:href="#m8c6cce90e4" x="433.605788" y="369.36" style="fill: #595fdc; stroke: #595fdc; stroke-linejoin: bevel"/>
     <use xlink:href="#m8c6cce90e4" x="457.455821" y="369.36" style="fill: #595fdc; stroke: #595fdc; stroke-linejoin: bevel"/>
     <use xlink:href="#m8c6cce90e4" x="481.578567" y="369.36" style="fill: #595fdc; stroke: #595fdc; stroke-linejoin: bevel"/>
     <use xlink:href="#m8c6cce90e4" x="505.189048" y="369.36" style="fill: #595fdc; stroke: #595fdc; stroke-linejoin: bevel"/>
     <use xlink:href="#m8c6cce90e4" x="528.493679" y="369.36" style="fill: #595fdc; stroke: #595fdc; stroke-linejoin: bevel"/>
    </g>
   </g>
   <g id="line2d_41">
    <path d="M 98.160308 66.96 
L 122.64478 369.359682 
L 148.246947 369.36 
L 174.418912 369.36 
L 198.767604 369.36 
L 224.198252 369.36 
L 248.91428 369.36 
L 272.744615 369.36 
L 297.077249 369.36 
L 320.764675 369.36 
L 346.374677 369.36 
L 370.104181 369.36 
L 394.467413 369.36 
L 420.330066 369.36 
L 447.490729 369.36 
L 471.630006 369.36 
L 497.073026 369.36 
L 521.785265 369.36 
" clip-path="url(#p2a08a599ad)" style="fill: none; stroke-dasharray: 7.5,15; stroke-dashoffset: 0; stroke: #9598dc; stroke-width: 1.5"/>
    <defs>
     <path id="mc8cd1ca66f" d="M 0 -3 
L -0.673542 -0.927051 
L -2.85317 -0.927051 
L -1.089814 0.354102 
L -1.763356 2.427051 
L -0 1.145898 
L 1.763356 2.427051 
L 1.089814 0.354102 
L 2.85317 -0.927051 
L 0.673542 -0.927051 
z
" style="stroke: #9598dc; stroke-linejoin: bevel"/>
    </defs>
    <g clip-path="url(#p2a08a599ad)">
     <use xlink:href="#mc8cd1ca66f" x="98.160308" y="66.96" style="fill: #9598dc; stroke: #9598dc; stroke-linejoin: bevel"/>
     <use xlink:href="#mc8cd1ca66f" x="122.64478" y="369.359682" style="fill: #9598dc; stroke: #9598dc; stroke-linejoin: bevel"/>
     <use xlink:href="#mc8cd1ca66f" x="148.246947" y="369.36" style="fill: #9598dc; stroke: #9598dc; stroke-linejoin: bevel"/>
     <use xlink:href="#mc8cd1ca66f" x="174.418912" y="369.36" style="fill: #9598dc; stroke: #9598dc; stroke-linejoin: bevel"/>
     <use xlink:href="#mc8cd1ca66f" x="198.767604" y="369.36" style="fill: #9598dc; stroke: #9598dc; stroke-linejoin: bevel"/>
     <use xlink:href="#mc8cd1ca66f" x="224.198252" y="369.36" style="fill: #9598dc; stroke: #9598dc; stroke-linejoin: bevel"/>
     <use xlink:href="#mc8cd1ca66f" x="248.91428" y="369.36" style="fill: #9598dc; stroke: #9598dc; stroke-linejoin: bevel"/>
     <use xlink:href="#mc8cd1ca66f" x="272.744615" y="369.36" style="fill: #9598dc; stroke: #9598dc; stroke-linejoin: bevel"/>
     <use xlink:href="#mc8cd1ca66f" x="297.077249" y="369.36" style="fill: #9598dc; stroke: #9598dc; stroke-linejoin: bevel"/>
     <use xlink:href="#mc8cd1ca66f" x="320.764675" y="369.36" style="fill: #9598dc; stroke: #9598dc; stroke-linejoin: bevel"/>
     <use xlink:href="#mc8cd1ca66f" x="346.374677" y="369.36" style="fill: #9598dc; stroke: #9598dc; stroke-linejoin: bevel"/>
     <use xlink:href="#mc8cd1ca66f" x="370.104181" y="369.36" style="fill: #9598dc; stroke: #9598dc; stroke-linejoin: bevel"/>
     <use xlink:href="#mc8cd1ca66f" x="394.467413" y="369.36" style="fill: #9598dc; stroke: #9598dc; stroke-linejoin: bevel"/>
     <use xlink:href="#mc8cd1ca66f" x="420.330066" y="369.36" style="fill: #9598dc; stroke: #9598dc; stroke-linejoin: bevel"/>
     <use xlink:href="#mc8cd1ca66f" x="447.490729" y="369.36" style="fill: #9598dc; stroke: #9598dc; stroke-linejoin: bevel"/>
     <use xlink:href="#mc8cd1ca66f" x="471.630006" y="369.36" style="fill: #9598dc; stroke: #9598dc; stroke-linejoin: bevel"/>
     <use xlink:href="#mc8cd1ca66f" x="497.073026" y="369.36" style="fill: #9598dc; stroke: #9598dc; stroke-linejoin: bevel"/>
     <use xlink:href="#mc8cd1ca66f" x="521.785265" y="369.36" style="fill: #9598dc; stroke: #9598dc; stroke-linejoin: bevel"/>
    </g>
   </g>
   <g id="patch_3">
    <path d="M 72 384.48 
L 72 51.84 
" style="fill: none; stroke: #000000; stroke-width: 0.8; stroke-linejoin: miter; stroke-linecap: square"/>
   </g>
   <g id="patch_4">
    <path d="M 518.4 384.48 
L 518.4 51.84 
" style="fill: none; stroke: #000000; stroke-width: 0.8; stroke-linejoin: miter; stroke-linecap: square"/>
   </g>
   <g id="patch_5">
    <path d="M 72 384.48 
L 518.4 384.48 
" style="fill: none; stroke: #000000; stroke-width: 0.8; stroke-linejoin: miter; stroke-linecap: square"/>
   </g>
   <g id="patch_6">
    <path d="M 72 51.84 
L 518.4 51.84 
" style="fill: none; stroke: #000000; stroke-width: 0.8; stroke-linejoin: miter; stroke-linecap: square"/>
   </g>
   <g id="legend_1">
    <g id="patch_7">
     <path d="M 421.1 229.44 
L 511.4 229.44 
Q 513.4 229.44 513.4 227.44 
L 513.4 58.84 
Q 513.4 56.84 511.4 56.84 
L 421.1 56.84 
Q 419.1 56.84 419.1 58.84 
L 419.1 227.44 
Q 419.1 229.44 421.1 229.44 
z
" style="fill: #ffffff; opacity: 0.8; stroke: #cccccc; stroke-linejoin: miter"/>
    </g>
    <g id="line2d_42">
     <path d="M 423.1 66.44 
L 433.1 66.44 
L 443.1 66.44 
" style="fill: none; stroke: #36ff33; stroke-width: 1.5; stroke-linecap: square"/>
     <g>
      <use xlink:href="#m9dabcedee5" x="433.1" y="66.44" style="fill: #36ff33; stroke: #36ff33; stroke-linejoin: miter"/>
     </g>
    </g>
    <g id="text_17">
     <!-- $MPS(\mathbf{x}^0_{max})$ -->
     <g transform="translate(451.1 69.94) scale(0.1 -0.1)">
      <defs>
       <path id="DejaVuSans-Oblique-4d" d="M 1081 4666 
L 2028 4666 
L 2572 1522 
L 4378 4666 
L 5350 4666 
L 4441 0 
L 3828 0 
L 4622 4091 
L 2791 897 
L 2175 897 
L 1581 4103 
L 788 0 
L 172 0 
L 1081 4666 
z
" transform="scale(0.015625)"/>
       <path id="DejaVuSans-Oblique-50" d="M 1081 4666 
L 2541 4666 
Q 3178 4666 3512 4369 
Q 3847 4072 3847 3500 
Q 3847 2731 3353 2303 
Q 2859 1875 1966 1875 
L 1172 1875 
L 806 0 
L 172 0 
L 1081 4666 
z
M 1613 4147 
L 1275 2394 
L 2069 2394 
Q 2606 2394 2893 2669 
Q 3181 2944 3181 3456 
Q 3181 3784 2986 3965 
Q 2791 4147 2438 4147 
L 1613 4147 
z
" transform="scale(0.015625)"/>
       <path id="DejaVuSans-Oblique-53" d="M 3859 4513 
L 3738 3897 
Q 3422 4066 3111 4152 
Q 2800 4238 2509 4238 
Q 1944 4238 1609 3991 
Q 1275 3744 1275 3334 
Q 1275 3109 1398 2989 
Q 1522 2869 2034 2731 
L 2413 2638 
Q 3053 2472 3303 2217 
Q 3553 1963 3553 1503 
Q 3553 797 2998 353 
Q 2444 -91 1538 -91 
Q 1166 -91 791 -17 
Q 416 56 38 206 
L 166 856 
Q 513 641 861 531 
Q 1209 422 1556 422 
Q 2147 422 2503 684 
Q 2859 947 2859 1369 
Q 2859 1650 2717 1795 
Q 2575 1941 2106 2059 
L 1728 2156 
Q 1081 2325 845 2545 
Q 609 2766 609 3163 
Q 609 3859 1145 4304 
Q 1681 4750 2541 4750 
Q 2875 4750 3203 4690 
Q 3531 4631 3859 4513 
z
" transform="scale(0.015625)"/>
       <path id="DejaVuSans-28" d="M 1984 4856 
Q 1566 4138 1362 3434 
Q 1159 2731 1159 2009 
Q 1159 1288 1364 580 
Q 1569 -128 1984 -844 
L 1484 -844 
Q 1016 -109 783 600 
Q 550 1309 550 2009 
Q 550 2706 781 3412 
Q 1013 4119 1484 4856 
L 1984 4856 
z
" transform="scale(0.015625)"/>
       <path id="DejaVuSans-Bold-78" d="M 1422 1791 
L 159 3500 
L 1344 3500 
L 2059 2463 
L 2784 3500 
L 3969 3500 
L 2706 1797 
L 4031 0 
L 2847 0 
L 2059 1106 
L 1281 0 
L 97 0 
L 1422 1791 
z
" transform="scale(0.015625)"/>
       <path id="DejaVuSans-Oblique-6d" d="M 5747 2113 
L 5338 0 
L 4763 0 
L 5166 2094 
Q 5191 2228 5203 2325 
Q 5216 2422 5216 2491 
Q 5216 2772 5059 2928 
Q 4903 3084 4622 3084 
Q 4203 3084 3875 2770 
Q 3547 2456 3450 1953 
L 3066 0 
L 2491 0 
L 2900 2094 
Q 2925 2209 2937 2307 
Q 2950 2406 2950 2484 
Q 2950 2769 2794 2926 
Q 2638 3084 2363 3084 
Q 1938 3084 1609 2770 
Q 1281 2456 1184 1953 
L 800 0 
L 225 0 
L 909 3500 
L 1484 3500 
L 1375 2956 
Q 1609 3263 1923 3423 
Q 2238 3584 2597 3584 
Q 2978 3584 3223 3384 
Q 3469 3184 3519 2828 
Q 3781 3197 4126 3390 
Q 4472 3584 4856 3584 
Q 5306 3584 5551 3325 
Q 5797 3066 5797 2591 
Q 5797 2488 5784 2364 
Q 5772 2241 5747 2113 
z
" transform="scale(0.015625)"/>
       <path id="DejaVuSans-Oblique-61" d="M 3438 1997 
L 3047 0 
L 2472 0 
L 2578 531 
Q 2325 219 2001 64 
Q 1678 -91 1281 -91 
Q 834 -91 548 182 
Q 263 456 263 884 
Q 263 1497 752 1853 
Q 1241 2209 2100 2209 
L 2900 2209 
L 2931 2363 
Q 2938 2388 2941 2417 
Q 2944 2447 2944 2509 
Q 2944 2788 2717 2942 
Q 2491 3097 2081 3097 
Q 1800 3097 1504 3025 
Q 1209 2953 897 2809 
L 997 3341 
Q 1322 3463 1633 3523 
Q 1944 3584 2234 3584 
Q 2853 3584 3176 3315 
Q 3500 3047 3500 2534 
Q 3500 2431 3484 2292 
Q 3469 2153 3438 1997 
z
M 2816 1759 
L 2241 1759 
Q 1534 1759 1195 1570 
Q 856 1381 856 984 
Q 856 709 1029 553 
Q 1203 397 1509 397 
Q 1978 397 2328 733 
Q 2678 1069 2791 1631 
L 2816 1759 
z
" transform="scale(0.015625)"/>
       <path id="DejaVuSans-Oblique-78" d="M 3841 3500 
L 2234 1784 
L 3219 0 
L 2559 0 
L 1819 1388 
L 531 0 
L -166 0 
L 1556 1844 
L 641 3500 
L 1300 3500 
L 1972 2234 
L 3144 3500 
L 3841 3500 
z
" transform="scale(0.015625)"/>
       <path id="DejaVuSans-29" d="M 513 4856 
L 1013 4856 
Q 1481 4119 1714 3412 
Q 1947 2706 1947 2009 
Q 1947 1309 1714 600 
Q 1481 -109 1013 -844 
L 513 -844 
Q 928 -128 1133 580 
Q 1338 1288 1338 2009 
Q 1338 2731 1133 3434 
Q 928 4138 513 4856 
z
" transform="scale(0.015625)"/>
      </defs>
      <use xlink:href="#DejaVuSans-Oblique-4d" transform="translate(0 0.765625)"/>
      <use xlink:href="#DejaVuSans-Oblique-50" transform="translate(86.279297 0.765625)"/>
      <use xlink:href="#DejaVuSans-Oblique-53" transform="translate(146.582031 0.765625)"/>
      <use xlink:href="#DejaVuSans-28" transform="translate(210.058594 0.765625)"/>
      <use xlink:href="#DejaVuSans-Bold-78" transform="translate(249.072266 0.765625)"/>
      <use xlink:href="#DejaVuSans-30" transform="translate(314.53125 39.046875) scale(0.7)"/>
      <use xlink:href="#DejaVuSans-Oblique-6d" transform="translate(314.53125 -26.578125) scale(0.7)"/>
      <use xlink:href="#DejaVuSans-Oblique-61" transform="translate(382.719727 -26.578125) scale(0.7)"/>
      <use xlink:href="#DejaVuSans-Oblique-78" transform="translate(425.615234 -26.578125) scale(0.7)"/>
      <use xlink:href="#DejaVuSans-29" transform="translate(469.775391 0.765625)"/>
     </g>
    </g>
    <g id="line2d_43">
     <path d="M 423.1 83.44 
L 433.1 83.44 
L 443.1 83.44 
" style="fill: none; stroke: #b6c800; stroke-width: 1.5; stroke-linecap: square"/>
     <g>
      <use xlink:href="#mf05cc3a9f9" x="433.1" y="83.44" style="fill: #b6c800; stroke: #b6c800; stroke-linejoin: miter"/>
     </g>
    </g>
    <g id="text_18">
     <!-- $PM_{C\searrow}(\mathbf{x}^0_{max})$ -->
     <g transform="translate(451.1 86.94) scale(0.1 -0.1)">
      <defs>
       <path id="DejaVuSans-Oblique-43" d="M 4447 4306 
L 4319 3641 
Q 4019 3944 3683 4091 
Q 3347 4238 2956 4238 
Q 2422 4238 2017 3981 
Q 1613 3725 1319 3200 
Q 1131 2863 1032 2486 
Q 934 2109 934 1728 
Q 934 1091 1264 756 
Q 1594 422 2222 422 
Q 2656 422 3056 561 
Q 3456 700 3834 978 
L 3688 231 
Q 3316 72 2936 -9 
Q 2556 -91 2175 -91 
Q 1278 -91 773 396 
Q 269 884 269 1753 
Q 269 2309 461 2846 
Q 653 3384 1013 3828 
Q 1394 4300 1883 4525 
Q 2372 4750 3022 4750 
Q 3422 4750 3780 4639 
Q 4138 4528 4447 4306 
z
" transform="scale(0.015625)"/>
       <path id="DejaVuSans-2198" d="M 4497 359 
L 4300 163 
L 2563 163 
L 2563 691 
L 3594 691 
L 900 3384 
L 1275 3759 
L 3969 1066 
L 3969 2097 
L 4497 2097 
L 4497 359 
z
" transform="scale(0.015625)"/>
      </defs>
      <use xlink:href="#DejaVuSans-Oblique-50" transform="translate(0 0.765625)"/>
      <use xlink:href="#DejaVuSans-Oblique-4d" transform="translate(60.302734 0.765625)"/>
      <use xlink:href="#DejaVuSans-Oblique-43" transform="translate(146.582031 -15.640625) scale(0.7)"/>
      <use xlink:href="#DejaVuSans-2198" transform="translate(209.09668 -15.640625) scale(0.7)"/>
      <use xlink:href="#DejaVuSans-28" transform="translate(284.121094 0.765625)"/>
      <use xlink:href="#DejaVuSans-Bold-78" transform="translate(323.134766 0.765625)"/>
      <use xlink:href="#DejaVuSans-30" transform="translate(388.59375 39.046875) scale(0.7)"/>
      <use xlink:href="#DejaVuSans-Oblique-6d" transform="translate(388.59375 -26.578125) scale(0.7)"/>
      <use xlink:href="#DejaVuSans-Oblique-61" transform="translate(456.782227 -26.578125) scale(0.7)"/>
      <use xlink:href="#DejaVuSans-Oblique-78" transform="translate(499.677734 -26.578125) scale(0.7)"/>
      <use xlink:href="#DejaVuSans-29" transform="translate(543.837891 0.765625)"/>
     </g>
    </g>
    <g id="line2d_44">
     <path d="M 423.1 100.44 
L 433.1 100.44 
L 443.1 100.44 
" style="fill: none; stroke: #f119c3; stroke-width: 1.5; stroke-linecap: square"/>
     <g>
      <use xlink:href="#mc86d567f40" x="433.1" y="100.44" style="fill: #f119c3; stroke: #f119c3; stroke-linejoin: miter"/>
     </g>
    </g>
    <g id="text_19">
     <!-- $PM_{C\nearrow}(\mathbf{x}^0_{max})$ -->
     <g transform="translate(451.1 103.94) scale(0.1 -0.1)">
      <defs>
       <path id="DejaVuSans-2197" d="M 4300 3759 
L 4497 3563 
L 4497 1825 
L 3969 1825 
L 3969 2856 
L 1275 163 
L 900 538 
L 3594 3231 
L 2563 3231 
L 2563 3759 
L 4300 3759 
z
" transform="scale(0.015625)"/>
      </defs>
      <use xlink:href="#DejaVuSans-Oblique-50" transform="translate(0 0.765625)"/>
      <use xlink:href="#DejaVuSans-Oblique-4d" transform="translate(60.302734 0.765625)"/>
      <use xlink:href="#DejaVuSans-Oblique-43" transform="translate(146.582031 -15.640625) scale(0.7)"/>
      <use xlink:href="#DejaVuSans-2197" transform="translate(209.09668 -15.640625) scale(0.7)"/>
      <use xlink:href="#DejaVuSans-28" transform="translate(284.121094 0.765625)"/>
      <use xlink:href="#DejaVuSans-Bold-78" transform="translate(323.134766 0.765625)"/>
      <use xlink:href="#DejaVuSans-30" transform="translate(388.59375 39.046875) scale(0.7)"/>
      <use xlink:href="#DejaVuSans-Oblique-6d" transform="translate(388.59375 -26.578125) scale(0.7)"/>
      <use xlink:href="#DejaVuSans-Oblique-61" transform="translate(456.782227 -26.578125) scale(0.7)"/>
      <use xlink:href="#DejaVuSans-Oblique-78" transform="translate(499.677734 -26.578125) scale(0.7)"/>
      <use xlink:href="#DejaVuSans-29" transform="translate(543.837891 0.765625)"/>
     </g>
    </g>
    <g id="line2d_45">
     <path d="M 423.1 117.44 
L 433.1 117.44 
L 443.1 117.44 
" style="fill: none; stroke: #0d5915; stroke-width: 1.5; stroke-linecap: square"/>
     <g>
      <use xlink:href="#md5ba07f3bf" x="433.1" y="117.44" style="fill: #0d5915; stroke: #0d5915"/>
     </g>
    </g>
    <g id="text_20">
     <!-- $IPDD(\mathbf{x}^0_{max})$ -->
     <g transform="translate(451.1 120.94) scale(0.1 -0.1)">
      <defs>
       <path id="DejaVuSans-Oblique-49" d="M 1081 4666 
L 1716 4666 
L 806 0 
L 172 0 
L 1081 4666 
z
" transform="scale(0.015625)"/>
       <path id="DejaVuSans-Oblique-44" d="M 1081 4666 
L 2438 4666 
Q 3519 4666 4070 4208 
Q 4622 3750 4622 2847 
Q 4622 2250 4412 1698 
Q 4203 1147 3834 769 
Q 3463 381 2891 190 
Q 2319 0 1538 0 
L 172 0 
L 1081 4666 
z
M 1613 4147 
L 909 519 
L 1734 519 
Q 2794 519 3375 1128 
Q 3956 1738 3956 2847 
Q 3956 3519 3581 3833 
Q 3206 4147 2406 4147 
L 1613 4147 
z
" transform="scale(0.015625)"/>
      </defs>
      <use xlink:href="#DejaVuSans-Oblique-49" transform="translate(0 0.765625)"/>
      <use xlink:href="#DejaVuSans-Oblique-50" transform="translate(29.492188 0.765625)"/>
      <use xlink:href="#DejaVuSans-Oblique-44" transform="translate(89.794922 0.765625)"/>
      <use xlink:href="#DejaVuSans-Oblique-44" transform="translate(166.796875 0.765625)"/>
      <use xlink:href="#DejaVuSans-28" transform="translate(243.798828 0.765625)"/>
      <use xlink:href="#DejaVuSans-Bold-78" transform="translate(282.8125 0.765625)"/>
      <use xlink:href="#DejaVuSans-30" transform="translate(348.271484 39.046875) scale(0.7)"/>
      <use xlink:href="#DejaVuSans-Oblique-6d" transform="translate(348.271484 -26.578125) scale(0.7)"/>
      <use xlink:href="#DejaVuSans-Oblique-61" transform="translate(416.459961 -26.578125) scale(0.7)"/>
      <use xlink:href="#DejaVuSans-Oblique-78" transform="translate(459.355469 -26.578125) scale(0.7)"/>
      <use xlink:href="#DejaVuSans-29" transform="translate(503.515625 0.765625)"/>
     </g>
    </g>
    <g id="line2d_46">
     <path d="M 423.1 134.44 
L 433.1 134.44 
L 443.1 134.44 
" style="fill: none; stroke: #e31d1d; stroke-width: 1.5; stroke-linecap: square"/>
     <g>
      <use xlink:href="#m26c84799be" x="433.1" y="134.44" style="fill: #e31d1d; stroke: #e31d1d"/>
     </g>
    </g>
    <g id="text_21">
     <!-- $GDPA(\mathbf{x}^0_{max})$ -->
     <g transform="translate(451.1 137.94) scale(0.1 -0.1)">
      <defs>
       <path id="DejaVuSans-Oblique-47" d="M 3494 697 
L 3738 1919 
L 2700 1919 
L 2797 2438 
L 4453 2438 
L 4050 384 
Q 3634 156 3143 32 
Q 2653 -91 2156 -91 
Q 1278 -91 783 396 
Q 288 884 288 1753 
Q 288 2475 589 3126 
Q 891 3778 1422 4213 
Q 1756 4484 2153 4617 
Q 2550 4750 3034 4750 
Q 3472 4750 3873 4639 
Q 4275 4528 4641 4306 
L 4513 3634 
Q 4231 3928 3853 4083 
Q 3475 4238 3047 4238 
Q 2550 4238 2172 4048 
Q 1794 3859 1497 3463 
Q 1244 3125 1098 2667 
Q 953 2209 953 1734 
Q 953 1081 1287 751 
Q 1622 422 2284 422 
Q 2616 422 2925 492 
Q 3234 563 3494 697 
z
" transform="scale(0.015625)"/>
       <path id="DejaVuSans-Oblique-41" d="M 2356 4666 
L 3072 4666 
L 3938 0 
L 3278 0 
L 3084 1197 
L 984 1197 
L 325 0 
L -341 0 
L 2356 4666 
z
M 2584 4044 
L 1275 1722 
L 2988 1722 
L 2584 4044 
z
" transform="scale(0.015625)"/>
      </defs>
      <use xlink:href="#DejaVuSans-Oblique-47" transform="translate(0 0.765625)"/>
      <use xlink:href="#DejaVuSans-Oblique-44" transform="translate(77.490234 0.765625)"/>
      <use xlink:href="#DejaVuSans-Oblique-50" transform="translate(154.492188 0.765625)"/>
      <use xlink:href="#DejaVuSans-Oblique-41" transform="translate(214.794922 0.765625)"/>
      <use xlink:href="#DejaVuSans-28" transform="translate(283.203125 0.765625)"/>
      <use xlink:href="#DejaVuSans-Bold-78" transform="translate(322.216797 0.765625)"/>
      <use xlink:href="#DejaVuSans-30" transform="translate(387.675781 39.046875) scale(0.7)"/>
      <use xlink:href="#DejaVuSans-Oblique-6d" transform="translate(387.675781 -26.578125) scale(0.7)"/>
      <use xlink:href="#DejaVuSans-Oblique-61" transform="translate(455.864258 -26.578125) scale(0.7)"/>
      <use xlink:href="#DejaVuSans-Oblique-78" transform="translate(498.759766 -26.578125) scale(0.7)"/>
      <use xlink:href="#DejaVuSans-29" transform="translate(542.919922 0.765625)"/>
     </g>
    </g>
    <g id="line2d_47">
     <path d="M 423.1 151.44 
L 433.1 151.44 
L 443.1 151.44 
" style="fill: none; stroke-dasharray: 1.5,15; stroke-dashoffset: 0; stroke: #df6f67; stroke-width: 1.5"/>
     <g>
      <use xlink:href="#ma97aa8c778" x="433.1" y="151.44" style="fill: #df6f67; stroke: #df6f67"/>
     </g>
    </g>
    <g id="text_22">
     <!-- $GDPA(\mathbf{x}^0_1)$ -->
     <g transform="translate(451.1 154.94) scale(0.1 -0.1)">
      <use xlink:href="#DejaVuSans-Oblique-47" transform="translate(0 0.765625)"/>
      <use xlink:href="#DejaVuSans-Oblique-44" transform="translate(77.490234 0.765625)"/>
      <use xlink:href="#DejaVuSans-Oblique-50" transform="translate(154.492188 0.765625)"/>
      <use xlink:href="#DejaVuSans-Oblique-41" transform="translate(214.794922 0.765625)"/>
      <use xlink:href="#DejaVuSans-28" transform="translate(283.203125 0.765625)"/>
      <use xlink:href="#DejaVuSans-Bold-78" transform="translate(322.216797 0.765625)"/>
      <use xlink:href="#DejaVuSans-30" transform="translate(387.675781 39.046875) scale(0.7)"/>
      <use xlink:href="#DejaVuSans-31" transform="translate(387.675781 -26.578125) scale(0.7)"/>
      <use xlink:href="#DejaVuSans-29" transform="translate(434.946289 0.765625)"/>
     </g>
    </g>
    <g id="line2d_48">
     <path d="M 423.1 168.34 
L 433.1 168.34 
L 443.1 168.34 
" style="fill: none; stroke-dasharray: 7.5,15; stroke-dashoffset: 0; stroke: #dea39f; stroke-width: 1.5"/>
     <g>
      <use xlink:href="#mca07102017" x="433.1" y="168.34" style="fill: #dea39f; stroke: #dea39f"/>
     </g>
    </g>
    <g id="text_23">
     <!-- $GDPA(\mathbf{x}^0_2)$ -->
     <g transform="translate(451.1 171.84) scale(0.1 -0.1)">
      <use xlink:href="#DejaVuSans-Oblique-47" transform="translate(0 0.765625)"/>
      <use xlink:href="#DejaVuSans-Oblique-44" transform="translate(77.490234 0.765625)"/>
      <use xlink:href="#DejaVuSans-Oblique-50" transform="translate(154.492188 0.765625)"/>
      <use xlink:href="#DejaVuSans-Oblique-41" transform="translate(214.794922 0.765625)"/>
      <use xlink:href="#DejaVuSans-28" transform="translate(283.203125 0.765625)"/>
      <use xlink:href="#DejaVuSans-Bold-78" transform="translate(322.216797 0.765625)"/>
      <use xlink:href="#DejaVuSans-30" transform="translate(387.675781 39.046875) scale(0.7)"/>
      <use xlink:href="#DejaVuSans-32" transform="translate(387.675781 -26.578125) scale(0.7)"/>
      <use xlink:href="#DejaVuSans-29" transform="translate(434.946289 0.765625)"/>
     </g>
    </g>
    <g id="line2d_49">
     <path d="M 423.1 185.24 
L 433.1 185.24 
L 443.1 185.24 
" style="fill: none; stroke: #1c24dc; stroke-width: 1.5; stroke-linecap: square"/>
     <g>
      <use xlink:href="#ma56e66c27b" x="433.1" y="185.24" style="fill: #1c24dc; stroke: #1c24dc; stroke-linejoin: bevel"/>
     </g>
    </g>
    <g id="text_24">
     <!-- $PGA(\mathbf{x}^0_{max})$ -->
     <g transform="translate(451.1 188.74) scale(0.1 -0.1)">
      <use xlink:href="#DejaVuSans-Oblique-50" transform="translate(0 0.765625)"/>
      <use xlink:href="#DejaVuSans-Oblique-47" transform="translate(60.302734 0.765625)"/>
      <use xlink:href="#DejaVuSans-Oblique-41" transform="translate(137.792969 0.765625)"/>
      <use xlink:href="#DejaVuSans-28" transform="translate(206.201172 0.765625)"/>
      <use xlink:href="#DejaVuSans-Bold-78" transform="translate(245.214844 0.765625)"/>
      <use xlink:href="#DejaVuSans-30" transform="translate(310.673828 39.046875) scale(0.7)"/>
      <use xlink:href="#DejaVuSans-Oblique-6d" transform="translate(310.673828 -26.578125) scale(0.7)"/>
      <use xlink:href="#DejaVuSans-Oblique-61" transform="translate(378.862305 -26.578125) scale(0.7)"/>
      <use xlink:href="#DejaVuSans-Oblique-78" transform="translate(421.757812 -26.578125) scale(0.7)"/>
      <use xlink:href="#DejaVuSans-29" transform="translate(465.917969 0.765625)"/>
     </g>
    </g>
    <g id="line2d_50">
     <path d="M 423.1 202.24 
L 433.1 202.24 
L 443.1 202.24 
" style="fill: none; stroke-dasharray: 1.5,15; stroke-dashoffset: 0; stroke: #595fdc; stroke-width: 1.5"/>
     <g>
      <use xlink:href="#m8c6cce90e4" x="433.1" y="202.24" style="fill: #595fdc; stroke: #595fdc; stroke-linejoin: bevel"/>
     </g>
    </g>
    <g id="text_25">
     <!-- $PGA(\mathbf{x}^0_1)$ -->
     <g transform="translate(451.1 205.74) scale(0.1 -0.1)">
      <use xlink:href="#DejaVuSans-Oblique-50" transform="translate(0 0.765625)"/>
      <use xlink:href="#DejaVuSans-Oblique-47" transform="translate(60.302734 0.765625)"/>
      <use xlink:href="#DejaVuSans-Oblique-41" transform="translate(137.792969 0.765625)"/>
      <use xlink:href="#DejaVuSans-28" transform="translate(206.201172 0.765625)"/>
      <use xlink:href="#DejaVuSans-Bold-78" transform="translate(245.214844 0.765625)"/>
      <use xlink:href="#DejaVuSans-30" transform="translate(310.673828 39.046875) scale(0.7)"/>
      <use xlink:href="#DejaVuSans-31" transform="translate(310.673828 -26.578125) scale(0.7)"/>
      <use xlink:href="#DejaVuSans-29" transform="translate(357.944336 0.765625)"/>
     </g>
    </g>
    <g id="line2d_51">
     <path d="M 423.1 219.14 
L 433.1 219.14 
L 443.1 219.14 
" style="fill: none; stroke-dasharray: 7.5,15; stroke-dashoffset: 0; stroke: #9598dc; stroke-width: 1.5"/>
     <g>
      <use xlink:href="#mc8cd1ca66f" x="433.1" y="219.14" style="fill: #9598dc; stroke: #9598dc; stroke-linejoin: bevel"/>
     </g>
    </g>
    <g id="text_26">
     <!-- $PGA(\mathbf{x}^0_2)$ -->
     <g transform="translate(451.1 222.64) scale(0.1 -0.1)">
      <use xlink:href="#DejaVuSans-Oblique-50" transform="translate(0 0.765625)"/>
      <use xlink:href="#DejaVuSans-Oblique-47" transform="translate(60.302734 0.765625)"/>
      <use xlink:href="#DejaVuSans-Oblique-41" transform="translate(137.792969 0.765625)"/>
      <use xlink:href="#DejaVuSans-28" transform="translate(206.201172 0.765625)"/>
      <use xlink:href="#DejaVuSans-Bold-78" transform="translate(245.214844 0.765625)"/>
      <use xlink:href="#DejaVuSans-30" transform="translate(310.673828 39.046875) scale(0.7)"/>
      <use xlink:href="#DejaVuSans-32" transform="translate(310.673828 -26.578125) scale(0.7)"/>
      <use xlink:href="#DejaVuSans-29" transform="translate(357.944336 0.765625)"/>
     </g>
    </g>
   </g>
  </g>
 </g>
 <defs>
  <clipPath id="p2a08a599ad">
   <rect x="72" y="51.84" width="446.4" height="332.64"/>
  </clipPath>
 </defs>
</svg>
