<?xml version="1.0" encoding="utf-8" standalone="no"?>
<!DOCTYPE svg PUBLIC "-//W3C//DTD SVG 1.1//EN"
  "http://www.w3.org/Graphics/SVG/1.1/DTD/svg11.dtd">
<svg xmlns:xlink="http://www.w3.org/1999/xlink" width="576pt" height="432pt" viewBox="0 0 576 432" xmlns="http://www.w3.org/2000/svg" version="1.1">
 <metadata>
  <rdf:RDF xmlns:dc="http://purl.org/dc/elements/1.1/" xmlns:cc="http://creativecommons.org/ns#" xmlns:rdf="http://www.w3.org/1999/02/22-rdf-syntax-ns#">
   <cc:Work>
    <dc:type rdf:resource="http://purl.org/dc/dcmitype/StillImage"/>
    <dc:date>2025-03-28T17:01:33.293774</dc:date>
    <dc:format>image/svg+xml</dc:format>
    <dc:creator>
     <cc:Agent>
      <dc:title>Matplotlib v3.7.1, https://matplotlib.org/</dc:title>
     </cc:Agent>
    </dc:creator>
   </cc:Work>
  </rdf:RDF>
 </metadata>
 <defs>
  <style type="text/css">*{stroke-linejoin: round; stroke-linecap: butt}</style>
 </defs>
 <g id="figure_1">
  <g id="patch_1">
   <path d="M 0 432 
L 576 432 
L 576 0 
L 0 0 
z
" style="fill: #ffffff"/>
  </g>
  <g id="axes_1">
   <g id="patch_2">
    <path d="M 72 384.48 
L 518.4 384.48 
L 518.4 51.84 
L 72 51.84 
z
" style="fill: #ffffff"/>
   </g>
   <g id="matplotlib.axis_1">
    <g id="xtick_1">
     <g id="line2d_1">
      <path d="M 72 384.48 
L 72 51.84 
" clip-path="url(#p56878a8a86)" style="fill: none; stroke: #b0b0b0; stroke-width: 0.8; stroke-linecap: square"/>
     </g>
     <g id="line2d_2">
      <defs>
       <path id="m0e20852a2c" d="M 0 0 
L 0 3.5 
" style="stroke: #000000; stroke-width: 0.8"/>
      </defs>
      <g>
       <use xlink:href="#m0e20852a2c" x="72" y="384.48" style="stroke: #000000; stroke-width: 0.8"/>
      </g>
     </g>
     <g id="text_1">
      <!-- 0 -->
      <g transform="translate(67.54625 402.117813) scale(0.14 -0.14)">
       <defs>
        <path id="DejaVuSans-30" d="M 2034 4250 
Q 1547 4250 1301 3770 
Q 1056 3291 1056 2328 
Q 1056 1369 1301 889 
Q 1547 409 2034 409 
Q 2525 409 2770 889 
Q 3016 1369 3016 2328 
Q 3016 3291 2770 3770 
Q 2525 4250 2034 4250 
z
M 2034 4750 
Q 2819 4750 3233 4129 
Q 3647 3509 3647 2328 
Q 3647 1150 3233 529 
Q 2819 -91 2034 -91 
Q 1250 -91 836 529 
Q 422 1150 422 2328 
Q 422 3509 836 4129 
Q 1250 4750 2034 4750 
z
" transform="scale(0.015625)"/>
       </defs>
       <use xlink:href="#DejaVuSans-30"/>
      </g>
     </g>
    </g>
    <g id="xtick_2">
     <g id="line2d_3">
      <path d="M 161.28 384.48 
L 161.28 51.84 
" clip-path="url(#p56878a8a86)" style="fill: none; stroke: #b0b0b0; stroke-width: 0.8; stroke-linecap: square"/>
     </g>
     <g id="line2d_4">
      <g>
       <use xlink:href="#m0e20852a2c" x="161.28" y="384.48" style="stroke: #000000; stroke-width: 0.8"/>
      </g>
     </g>
     <g id="text_2">
      <!-- 100 -->
      <g transform="translate(147.91875 402.117813) scale(0.14 -0.14)">
       <defs>
        <path id="DejaVuSans-31" d="M 794 531 
L 1825 531 
L 1825 4091 
L 703 3866 
L 703 4441 
L 1819 4666 
L 2450 4666 
L 2450 531 
L 3481 531 
L 3481 0 
L 794 0 
L 794 531 
z
" transform="scale(0.015625)"/>
       </defs>
       <use xlink:href="#DejaVuSans-31"/>
       <use xlink:href="#DejaVuSans-30" x="63.623047"/>
       <use xlink:href="#DejaVuSans-30" x="127.246094"/>
      </g>
     </g>
    </g>
    <g id="xtick_3">
     <g id="line2d_5">
      <path d="M 250.56 384.48 
L 250.56 51.84 
" clip-path="url(#p56878a8a86)" style="fill: none; stroke: #b0b0b0; stroke-width: 0.8; stroke-linecap: square"/>
     </g>
     <g id="line2d_6">
      <g>
       <use xlink:href="#m0e20852a2c" x="250.56" y="384.48" style="stroke: #000000; stroke-width: 0.8"/>
      </g>
     </g>
     <g id="text_3">
      <!-- 200 -->
      <g transform="translate(237.19875 402.117813) scale(0.14 -0.14)">
       <defs>
        <path id="DejaVuSans-32" d="M 1228 531 
L 3431 531 
L 3431 0 
L 469 0 
L 469 531 
Q 828 903 1448 1529 
Q 2069 2156 2228 2338 
Q 2531 2678 2651 2914 
Q 2772 3150 2772 3378 
Q 2772 3750 2511 3984 
Q 2250 4219 1831 4219 
Q 1534 4219 1204 4116 
Q 875 4013 500 3803 
L 500 4441 
Q 881 4594 1212 4672 
Q 1544 4750 1819 4750 
Q 2544 4750 2975 4387 
Q 3406 4025 3406 3419 
Q 3406 3131 3298 2873 
Q 3191 2616 2906 2266 
Q 2828 2175 2409 1742 
Q 1991 1309 1228 531 
z
" transform="scale(0.015625)"/>
       </defs>
       <use xlink:href="#DejaVuSans-32"/>
       <use xlink:href="#DejaVuSans-30" x="63.623047"/>
       <use xlink:href="#DejaVuSans-30" x="127.246094"/>
      </g>
     </g>
    </g>
    <g id="xtick_4">
     <g id="line2d_7">
      <path d="M 339.84 384.48 
L 339.84 51.84 
" clip-path="url(#p56878a8a86)" style="fill: none; stroke: #b0b0b0; stroke-width: 0.8; stroke-linecap: square"/>
     </g>
     <g id="line2d_8">
      <g>
       <use xlink:href="#m0e20852a2c" x="339.84" y="384.48" style="stroke: #000000; stroke-width: 0.8"/>
      </g>
     </g>
     <g id="text_4">
      <!-- 300 -->
      <g transform="translate(326.47875 402.117813) scale(0.14 -0.14)">
       <defs>
        <path id="DejaVuSans-33" d="M 2597 2516 
Q 3050 2419 3304 2112 
Q 3559 1806 3559 1356 
Q 3559 666 3084 287 
Q 2609 -91 1734 -91 
Q 1441 -91 1130 -33 
Q 819 25 488 141 
L 488 750 
Q 750 597 1062 519 
Q 1375 441 1716 441 
Q 2309 441 2620 675 
Q 2931 909 2931 1356 
Q 2931 1769 2642 2001 
Q 2353 2234 1838 2234 
L 1294 2234 
L 1294 2753 
L 1863 2753 
Q 2328 2753 2575 2939 
Q 2822 3125 2822 3475 
Q 2822 3834 2567 4026 
Q 2313 4219 1838 4219 
Q 1578 4219 1281 4162 
Q 984 4106 628 3988 
L 628 4550 
Q 988 4650 1302 4700 
Q 1616 4750 1894 4750 
Q 2613 4750 3031 4423 
Q 3450 4097 3450 3541 
Q 3450 3153 3228 2886 
Q 3006 2619 2597 2516 
z
" transform="scale(0.015625)"/>
       </defs>
       <use xlink:href="#DejaVuSans-33"/>
       <use xlink:href="#DejaVuSans-30" x="63.623047"/>
       <use xlink:href="#DejaVuSans-30" x="127.246094"/>
      </g>
     </g>
    </g>
    <g id="xtick_5">
     <g id="line2d_9">
      <path d="M 429.12 384.48 
L 429.12 51.84 
" clip-path="url(#p56878a8a86)" style="fill: none; stroke: #b0b0b0; stroke-width: 0.8; stroke-linecap: square"/>
     </g>
     <g id="line2d_10">
      <g>
       <use xlink:href="#m0e20852a2c" x="429.12" y="384.48" style="stroke: #000000; stroke-width: 0.8"/>
      </g>
     </g>
     <g id="text_5">
      <!-- 400 -->
      <g transform="translate(415.75875 402.117813) scale(0.14 -0.14)">
       <defs>
        <path id="DejaVuSans-34" d="M 2419 4116 
L 825 1625 
L 2419 1625 
L 2419 4116 
z
M 2253 4666 
L 3047 4666 
L 3047 1625 
L 3713 1625 
L 3713 1100 
L 3047 1100 
L 3047 0 
L 2419 0 
L 2419 1100 
L 313 1100 
L 313 1709 
L 2253 4666 
z
" transform="scale(0.015625)"/>
       </defs>
       <use xlink:href="#DejaVuSans-34"/>
       <use xlink:href="#DejaVuSans-30" x="63.623047"/>
       <use xlink:href="#DejaVuSans-30" x="127.246094"/>
      </g>
     </g>
    </g>
    <g id="xtick_6">
     <g id="line2d_11">
      <path d="M 518.4 384.48 
L 518.4 51.84 
" clip-path="url(#p56878a8a86)" style="fill: none; stroke: #b0b0b0; stroke-width: 0.8; stroke-linecap: square"/>
     </g>
     <g id="line2d_12">
      <g>
       <use xlink:href="#m0e20852a2c" x="518.4" y="384.48" style="stroke: #000000; stroke-width: 0.8"/>
      </g>
     </g>
     <g id="text_6">
      <!-- 500 -->
      <g transform="translate(505.03875 402.117813) scale(0.14 -0.14)">
       <defs>
        <path id="DejaVuSans-35" d="M 691 4666 
L 3169 4666 
L 3169 4134 
L 1269 4134 
L 1269 2991 
Q 1406 3038 1543 3061 
Q 1681 3084 1819 3084 
Q 2600 3084 3056 2656 
Q 3513 2228 3513 1497 
Q 3513 744 3044 326 
Q 2575 -91 1722 -91 
Q 1428 -91 1123 -41 
Q 819 9 494 109 
L 494 744 
Q 775 591 1075 516 
Q 1375 441 1709 441 
Q 2250 441 2565 725 
Q 2881 1009 2881 1497 
Q 2881 1984 2565 2268 
Q 2250 2553 1709 2553 
Q 1456 2553 1204 2497 
Q 953 2441 691 2322 
L 691 4666 
z
" transform="scale(0.015625)"/>
       </defs>
       <use xlink:href="#DejaVuSans-35"/>
       <use xlink:href="#DejaVuSans-30" x="63.623047"/>
       <use xlink:href="#DejaVuSans-30" x="127.246094"/>
      </g>
     </g>
    </g>
    <g id="text_7">
     <!-- Computational time [s] -->
     <g transform="translate(191.161406 422.706563) scale(0.18 -0.18)">
      <defs>
       <path id="DejaVuSans-43" d="M 4122 4306 
L 4122 3641 
Q 3803 3938 3442 4084 
Q 3081 4231 2675 4231 
Q 1875 4231 1450 3742 
Q 1025 3253 1025 2328 
Q 1025 1406 1450 917 
Q 1875 428 2675 428 
Q 3081 428 3442 575 
Q 3803 722 4122 1019 
L 4122 359 
Q 3791 134 3420 21 
Q 3050 -91 2638 -91 
Q 1578 -91 968 557 
Q 359 1206 359 2328 
Q 359 3453 968 4101 
Q 1578 4750 2638 4750 
Q 3056 4750 3426 4639 
Q 3797 4528 4122 4306 
z
" transform="scale(0.015625)"/>
       <path id="DejaVuSans-6f" d="M 1959 3097 
Q 1497 3097 1228 2736 
Q 959 2375 959 1747 
Q 959 1119 1226 758 
Q 1494 397 1959 397 
Q 2419 397 2687 759 
Q 2956 1122 2956 1747 
Q 2956 2369 2687 2733 
Q 2419 3097 1959 3097 
z
M 1959 3584 
Q 2709 3584 3137 3096 
Q 3566 2609 3566 1747 
Q 3566 888 3137 398 
Q 2709 -91 1959 -91 
Q 1206 -91 779 398 
Q 353 888 353 1747 
Q 353 2609 779 3096 
Q 1206 3584 1959 3584 
z
" transform="scale(0.015625)"/>
       <path id="DejaVuSans-6d" d="M 3328 2828 
Q 3544 3216 3844 3400 
Q 4144 3584 4550 3584 
Q 5097 3584 5394 3201 
Q 5691 2819 5691 2113 
L 5691 0 
L 5113 0 
L 5113 2094 
Q 5113 2597 4934 2840 
Q 4756 3084 4391 3084 
Q 3944 3084 3684 2787 
Q 3425 2491 3425 1978 
L 3425 0 
L 2847 0 
L 2847 2094 
Q 2847 2600 2669 2842 
Q 2491 3084 2119 3084 
Q 1678 3084 1418 2786 
Q 1159 2488 1159 1978 
L 1159 0 
L 581 0 
L 581 3500 
L 1159 3500 
L 1159 2956 
Q 1356 3278 1631 3431 
Q 1906 3584 2284 3584 
Q 2666 3584 2933 3390 
Q 3200 3197 3328 2828 
z
" transform="scale(0.015625)"/>
       <path id="DejaVuSans-70" d="M 1159 525 
L 1159 -1331 
L 581 -1331 
L 581 3500 
L 1159 3500 
L 1159 2969 
Q 1341 3281 1617 3432 
Q 1894 3584 2278 3584 
Q 2916 3584 3314 3078 
Q 3713 2572 3713 1747 
Q 3713 922 3314 415 
Q 2916 -91 2278 -91 
Q 1894 -91 1617 61 
Q 1341 213 1159 525 
z
M 3116 1747 
Q 3116 2381 2855 2742 
Q 2594 3103 2138 3103 
Q 1681 3103 1420 2742 
Q 1159 2381 1159 1747 
Q 1159 1113 1420 752 
Q 1681 391 2138 391 
Q 2594 391 2855 752 
Q 3116 1113 3116 1747 
z
" transform="scale(0.015625)"/>
       <path id="DejaVuSans-75" d="M 544 1381 
L 544 3500 
L 1119 3500 
L 1119 1403 
Q 1119 906 1312 657 
Q 1506 409 1894 409 
Q 2359 409 2629 706 
Q 2900 1003 2900 1516 
L 2900 3500 
L 3475 3500 
L 3475 0 
L 2900 0 
L 2900 538 
Q 2691 219 2414 64 
Q 2138 -91 1772 -91 
Q 1169 -91 856 284 
Q 544 659 544 1381 
z
M 1991 3584 
L 1991 3584 
z
" transform="scale(0.015625)"/>
       <path id="DejaVuSans-74" d="M 1172 4494 
L 1172 3500 
L 2356 3500 
L 2356 3053 
L 1172 3053 
L 1172 1153 
Q 1172 725 1289 603 
Q 1406 481 1766 481 
L 2356 481 
L 2356 0 
L 1766 0 
Q 1100 0 847 248 
Q 594 497 594 1153 
L 594 3053 
L 172 3053 
L 172 3500 
L 594 3500 
L 594 4494 
L 1172 4494 
z
" transform="scale(0.015625)"/>
       <path id="DejaVuSans-61" d="M 2194 1759 
Q 1497 1759 1228 1600 
Q 959 1441 959 1056 
Q 959 750 1161 570 
Q 1363 391 1709 391 
Q 2188 391 2477 730 
Q 2766 1069 2766 1631 
L 2766 1759 
L 2194 1759 
z
M 3341 1997 
L 3341 0 
L 2766 0 
L 2766 531 
Q 2569 213 2275 61 
Q 1981 -91 1556 -91 
Q 1019 -91 701 211 
Q 384 513 384 1019 
Q 384 1609 779 1909 
Q 1175 2209 1959 2209 
L 2766 2209 
L 2766 2266 
Q 2766 2663 2505 2880 
Q 2244 3097 1772 3097 
Q 1472 3097 1187 3025 
Q 903 2953 641 2809 
L 641 3341 
Q 956 3463 1253 3523 
Q 1550 3584 1831 3584 
Q 2591 3584 2966 3190 
Q 3341 2797 3341 1997 
z
" transform="scale(0.015625)"/>
       <path id="DejaVuSans-69" d="M 603 3500 
L 1178 3500 
L 1178 0 
L 603 0 
L 603 3500 
z
M 603 4863 
L 1178 4863 
L 1178 4134 
L 603 4134 
L 603 4863 
z
" transform="scale(0.015625)"/>
       <path id="DejaVuSans-6e" d="M 3513 2113 
L 3513 0 
L 2938 0 
L 2938 2094 
Q 2938 2591 2744 2837 
Q 2550 3084 2163 3084 
Q 1697 3084 1428 2787 
Q 1159 2491 1159 1978 
L 1159 0 
L 581 0 
L 581 3500 
L 1159 3500 
L 1159 2956 
Q 1366 3272 1645 3428 
Q 1925 3584 2291 3584 
Q 2894 3584 3203 3211 
Q 3513 2838 3513 2113 
z
" transform="scale(0.015625)"/>
       <path id="DejaVuSans-6c" d="M 603 4863 
L 1178 4863 
L 1178 0 
L 603 0 
L 603 4863 
z
" transform="scale(0.015625)"/>
       <path id="DejaVuSans-20" transform="scale(0.015625)"/>
       <path id="DejaVuSans-65" d="M 3597 1894 
L 3597 1613 
L 953 1613 
Q 991 1019 1311 708 
Q 1631 397 2203 397 
Q 2534 397 2845 478 
Q 3156 559 3463 722 
L 3463 178 
Q 3153 47 2828 -22 
Q 2503 -91 2169 -91 
Q 1331 -91 842 396 
Q 353 884 353 1716 
Q 353 2575 817 3079 
Q 1281 3584 2069 3584 
Q 2775 3584 3186 3129 
Q 3597 2675 3597 1894 
z
M 3022 2063 
Q 3016 2534 2758 2815 
Q 2500 3097 2075 3097 
Q 1594 3097 1305 2825 
Q 1016 2553 972 2059 
L 3022 2063 
z
" transform="scale(0.015625)"/>
       <path id="DejaVuSans-5b" d="M 550 4863 
L 1875 4863 
L 1875 4416 
L 1125 4416 
L 1125 -397 
L 1875 -397 
L 1875 -844 
L 550 -844 
L 550 4863 
z
" transform="scale(0.015625)"/>
       <path id="DejaVuSans-73" d="M 2834 3397 
L 2834 2853 
Q 2591 2978 2328 3040 
Q 2066 3103 1784 3103 
Q 1356 3103 1142 2972 
Q 928 2841 928 2578 
Q 928 2378 1081 2264 
Q 1234 2150 1697 2047 
L 1894 2003 
Q 2506 1872 2764 1633 
Q 3022 1394 3022 966 
Q 3022 478 2636 193 
Q 2250 -91 1575 -91 
Q 1294 -91 989 -36 
Q 684 19 347 128 
L 347 722 
Q 666 556 975 473 
Q 1284 391 1588 391 
Q 1994 391 2212 530 
Q 2431 669 2431 922 
Q 2431 1156 2273 1281 
Q 2116 1406 1581 1522 
L 1381 1569 
Q 847 1681 609 1914 
Q 372 2147 372 2553 
Q 372 3047 722 3315 
Q 1072 3584 1716 3584 
Q 2034 3584 2315 3537 
Q 2597 3491 2834 3397 
z
" transform="scale(0.015625)"/>
       <path id="DejaVuSans-5d" d="M 1947 4863 
L 1947 -844 
L 622 -844 
L 622 -397 
L 1369 -397 
L 1369 4416 
L 622 4416 
L 622 4863 
L 1947 4863 
z
" transform="scale(0.015625)"/>
      </defs>
      <use xlink:href="#DejaVuSans-43"/>
      <use xlink:href="#DejaVuSans-6f" x="69.824219"/>
      <use xlink:href="#DejaVuSans-6d" x="131.005859"/>
      <use xlink:href="#DejaVuSans-70" x="228.417969"/>
      <use xlink:href="#DejaVuSans-75" x="291.894531"/>
      <use xlink:href="#DejaVuSans-74" x="355.273438"/>
      <use xlink:href="#DejaVuSans-61" x="394.482422"/>
      <use xlink:href="#DejaVuSans-74" x="455.761719"/>
      <use xlink:href="#DejaVuSans-69" x="494.970703"/>
      <use xlink:href="#DejaVuSans-6f" x="522.753906"/>
      <use xlink:href="#DejaVuSans-6e" x="583.935547"/>
      <use xlink:href="#DejaVuSans-61" x="647.314453"/>
      <use xlink:href="#DejaVuSans-6c" x="708.59375"/>
      <use xlink:href="#DejaVuSans-20" x="736.376953"/>
      <use xlink:href="#DejaVuSans-74" x="768.164062"/>
      <use xlink:href="#DejaVuSans-69" x="807.373047"/>
      <use xlink:href="#DejaVuSans-6d" x="835.15625"/>
      <use xlink:href="#DejaVuSans-65" x="932.568359"/>
      <use xlink:href="#DejaVuSans-20" x="994.091797"/>
      <use xlink:href="#DejaVuSans-5b" x="1025.878906"/>
      <use xlink:href="#DejaVuSans-73" x="1064.892578"/>
      <use xlink:href="#DejaVuSans-5d" x="1116.992188"/>
     </g>
    </g>
   </g>
   <g id="matplotlib.axis_2">
    <g id="ytick_1">
     <g id="line2d_13">
      <path d="M 72 369.36 
L 518.4 369.36 
" clip-path="url(#p56878a8a86)" style="fill: none; stroke: #b0b0b0; stroke-width: 0.8; stroke-linecap: square"/>
     </g>
     <g id="line2d_14">
      <defs>
       <path id="m5e99701b79" d="M 0 0 
L -3.5 0 
" style="stroke: #000000; stroke-width: 0.8"/>
      </defs>
      <g>
       <use xlink:href="#m5e99701b79" x="72" y="369.36" style="stroke: #000000; stroke-width: 0.8"/>
      </g>
     </g>
     <g id="text_8">
      <!-- 0 -->
      <g transform="translate(56.0925 374.678906) scale(0.14 -0.14)">
       <use xlink:href="#DejaVuSans-30"/>
      </g>
     </g>
    </g>
    <g id="ytick_2">
     <g id="line2d_15">
      <path d="M 72 327.696064 
L 518.4 327.696064 
" clip-path="url(#p56878a8a86)" style="fill: none; stroke: #b0b0b0; stroke-width: 0.8; stroke-linecap: square"/>
     </g>
     <g id="line2d_16">
      <g>
       <use xlink:href="#m5e99701b79" x="72" y="327.696064" style="stroke: #000000; stroke-width: 0.8"/>
      </g>
     </g>
     <g id="text_9">
      <!-- 1 -->
      <g transform="translate(56.0925 333.014971) scale(0.14 -0.14)">
       <use xlink:href="#DejaVuSans-31"/>
      </g>
     </g>
    </g>
    <g id="ytick_3">
     <g id="line2d_17">
      <path d="M 72 286.032129 
L 518.4 286.032129 
" clip-path="url(#p56878a8a86)" style="fill: none; stroke: #b0b0b0; stroke-width: 0.8; stroke-linecap: square"/>
     </g>
     <g id="line2d_18">
      <g>
       <use xlink:href="#m5e99701b79" x="72" y="286.032129" style="stroke: #000000; stroke-width: 0.8"/>
      </g>
     </g>
     <g id="text_10">
      <!-- 2 -->
      <g transform="translate(56.0925 291.351035) scale(0.14 -0.14)">
       <use xlink:href="#DejaVuSans-32"/>
      </g>
     </g>
    </g>
    <g id="ytick_4">
     <g id="line2d_19">
      <path d="M 72 244.368193 
L 518.4 244.368193 
" clip-path="url(#p56878a8a86)" style="fill: none; stroke: #b0b0b0; stroke-width: 0.8; stroke-linecap: square"/>
     </g>
     <g id="line2d_20">
      <g>
       <use xlink:href="#m5e99701b79" x="72" y="244.368193" style="stroke: #000000; stroke-width: 0.8"/>
      </g>
     </g>
     <g id="text_11">
      <!-- 3 -->
      <g transform="translate(56.0925 249.687099) scale(0.14 -0.14)">
       <use xlink:href="#DejaVuSans-33"/>
      </g>
     </g>
    </g>
    <g id="ytick_5">
     <g id="line2d_21">
      <path d="M 72 202.704257 
L 518.4 202.704257 
" clip-path="url(#p56878a8a86)" style="fill: none; stroke: #b0b0b0; stroke-width: 0.8; stroke-linecap: square"/>
     </g>
     <g id="line2d_22">
      <g>
       <use xlink:href="#m5e99701b79" x="72" y="202.704257" style="stroke: #000000; stroke-width: 0.8"/>
      </g>
     </g>
     <g id="text_12">
      <!-- 4 -->
      <g transform="translate(56.0925 208.023163) scale(0.14 -0.14)">
       <use xlink:href="#DejaVuSans-34"/>
      </g>
     </g>
    </g>
    <g id="ytick_6">
     <g id="line2d_23">
      <path d="M 72 161.040321 
L 518.4 161.040321 
" clip-path="url(#p56878a8a86)" style="fill: none; stroke: #b0b0b0; stroke-width: 0.8; stroke-linecap: square"/>
     </g>
     <g id="line2d_24">
      <g>
       <use xlink:href="#m5e99701b79" x="72" y="161.040321" style="stroke: #000000; stroke-width: 0.8"/>
      </g>
     </g>
     <g id="text_13">
      <!-- 5 -->
      <g transform="translate(56.0925 166.359228) scale(0.14 -0.14)">
       <use xlink:href="#DejaVuSans-35"/>
      </g>
     </g>
    </g>
    <g id="ytick_7">
     <g id="line2d_25">
      <path d="M 72 119.376386 
L 518.4 119.376386 
" clip-path="url(#p56878a8a86)" style="fill: none; stroke: #b0b0b0; stroke-width: 0.8; stroke-linecap: square"/>
     </g>
     <g id="line2d_26">
      <g>
       <use xlink:href="#m5e99701b79" x="72" y="119.376386" style="stroke: #000000; stroke-width: 0.8"/>
      </g>
     </g>
     <g id="text_14">
      <!-- 6 -->
      <g transform="translate(56.0925 124.695292) scale(0.14 -0.14)">
       <defs>
        <path id="DejaVuSans-36" d="M 2113 2584 
Q 1688 2584 1439 2293 
Q 1191 2003 1191 1497 
Q 1191 994 1439 701 
Q 1688 409 2113 409 
Q 2538 409 2786 701 
Q 3034 994 3034 1497 
Q 3034 2003 2786 2293 
Q 2538 2584 2113 2584 
z
M 3366 4563 
L 3366 3988 
Q 3128 4100 2886 4159 
Q 2644 4219 2406 4219 
Q 1781 4219 1451 3797 
Q 1122 3375 1075 2522 
Q 1259 2794 1537 2939 
Q 1816 3084 2150 3084 
Q 2853 3084 3261 2657 
Q 3669 2231 3669 1497 
Q 3669 778 3244 343 
Q 2819 -91 2113 -91 
Q 1303 -91 875 529 
Q 447 1150 447 2328 
Q 447 3434 972 4092 
Q 1497 4750 2381 4750 
Q 2619 4750 2861 4703 
Q 3103 4656 3366 4563 
z
" transform="scale(0.015625)"/>
       </defs>
       <use xlink:href="#DejaVuSans-36"/>
      </g>
     </g>
    </g>
    <g id="ytick_8">
     <g id="line2d_27">
      <path d="M 72 77.71245 
L 518.4 77.71245 
" clip-path="url(#p56878a8a86)" style="fill: none; stroke: #b0b0b0; stroke-width: 0.8; stroke-linecap: square"/>
     </g>
     <g id="line2d_28">
      <g>
       <use xlink:href="#m5e99701b79" x="72" y="77.71245" style="stroke: #000000; stroke-width: 0.8"/>
      </g>
     </g>
     <g id="text_15">
      <!-- 7 -->
      <g transform="translate(56.0925 83.031356) scale(0.14 -0.14)">
       <defs>
        <path id="DejaVuSans-37" d="M 525 4666 
L 3525 4666 
L 3525 4397 
L 1831 0 
L 1172 0 
L 2766 4134 
L 525 4134 
L 525 4666 
z
" transform="scale(0.015625)"/>
       </defs>
       <use xlink:href="#DejaVuSans-37"/>
      </g>
     </g>
    </g>
    <g id="text_16">
     <!-- Constraint violation -->
     <g transform="translate(48.349062 306.268594) rotate(-90) scale(0.18 -0.18)">
      <defs>
       <path id="DejaVuSans-72" d="M 2631 2963 
Q 2534 3019 2420 3045 
Q 2306 3072 2169 3072 
Q 1681 3072 1420 2755 
Q 1159 2438 1159 1844 
L 1159 0 
L 581 0 
L 581 3500 
L 1159 3500 
L 1159 2956 
Q 1341 3275 1631 3429 
Q 1922 3584 2338 3584 
Q 2397 3584 2469 3576 
Q 2541 3569 2628 3553 
L 2631 2963 
z
" transform="scale(0.015625)"/>
       <path id="DejaVuSans-76" d="M 191 3500 
L 800 3500 
L 1894 563 
L 2988 3500 
L 3597 3500 
L 2284 0 
L 1503 0 
L 191 3500 
z
" transform="scale(0.015625)"/>
      </defs>
      <use xlink:href="#DejaVuSans-43"/>
      <use xlink:href="#DejaVuSans-6f" x="69.824219"/>
      <use xlink:href="#DejaVuSans-6e" x="131.005859"/>
      <use xlink:href="#DejaVuSans-73" x="194.384766"/>
      <use xlink:href="#DejaVuSans-74" x="246.484375"/>
      <use xlink:href="#DejaVuSans-72" x="285.693359"/>
      <use xlink:href="#DejaVuSans-61" x="326.806641"/>
      <use xlink:href="#DejaVuSans-69" x="388.085938"/>
      <use xlink:href="#DejaVuSans-6e" x="415.869141"/>
      <use xlink:href="#DejaVuSans-74" x="479.248047"/>
      <use xlink:href="#DejaVuSans-20" x="518.457031"/>
      <use xlink:href="#DejaVuSans-76" x="550.244141"/>
      <use xlink:href="#DejaVuSans-69" x="609.423828"/>
      <use xlink:href="#DejaVuSans-6f" x="637.207031"/>
      <use xlink:href="#DejaVuSans-6c" x="698.388672"/>
      <use xlink:href="#DejaVuSans-61" x="726.171875"/>
      <use xlink:href="#DejaVuSans-74" x="787.451172"/>
      <use xlink:href="#DejaVuSans-69" x="826.660156"/>
      <use xlink:href="#DejaVuSans-6f" x="854.443359"/>
      <use xlink:href="#DejaVuSans-6e" x="915.625"/>
     </g>
    </g>
   </g>
   <g id="line2d_29">
    <path d="M 98.737896 66.960318 
" clip-path="url(#p56878a8a86)" style="fill: none; stroke: #b6c800; stroke-width: 1.5; stroke-linecap: square"/>
    <defs>
     <path id="m3b918d4ae8" d="M 0 -5 
L -5 5 
L 5 5 
z
" style="stroke: #b6c800; stroke-linejoin: miter"/>
    </defs>
    <g clip-path="url(#p56878a8a86)">
     <use xlink:href="#m3b918d4ae8" x="98.737896" y="66.960318" style="fill: #b6c800; stroke: #b6c800; stroke-linejoin: miter"/>
    </g>
   </g>
   <g id="line2d_30">
    <path d="M 98.737896 66.960318 
L 518.4 66.960318 
" clip-path="url(#p56878a8a86)" style="fill: none; stroke: #b6c800; stroke-width: 1.5; stroke-linecap: square"/>
   </g>
   <g id="line2d_31">
    <path d="M 97.613399 66.960477 
" clip-path="url(#p56878a8a86)" style="fill: none; stroke-dasharray: 1.5,15; stroke-dashoffset: 0; stroke: #b8c348; stroke-width: 1.5"/>
    <defs>
     <path id="m7f9690cddb" d="M 0 -3 
L -3 3 
L 3 3 
z
" style="stroke: #b8c348; stroke-linejoin: miter"/>
    </defs>
    <g clip-path="url(#p56878a8a86)">
     <use xlink:href="#m7f9690cddb" x="97.613399" y="66.960477" style="fill: #b8c348; stroke: #b8c348; stroke-linejoin: miter"/>
    </g>
   </g>
   <g id="line2d_32">
    <path d="M 97.613399 66.960477 
L 518.4 66.960477 
" clip-path="url(#p56878a8a86)" style="fill: none; stroke-dasharray: 1.5,15; stroke-dashoffset: 0; stroke: #b8c348; stroke-width: 1.5"/>
   </g>
   <g id="line2d_33">
    <path d="M 97.584867 66.96 
" clip-path="url(#p56878a8a86)" style="fill: none; stroke-dasharray: 7.5,15; stroke-dashoffset: 0; stroke: #bec291; stroke-width: 1.5"/>
    <defs>
     <path id="mc0457b0203" d="M 0 -3 
L -3 3 
L 3 3 
z
" style="stroke: #bec291; stroke-linejoin: miter"/>
    </defs>
    <g clip-path="url(#p56878a8a86)">
     <use xlink:href="#mc0457b0203" x="97.584867" y="66.96" style="fill: #bec291; stroke: #bec291; stroke-linejoin: miter"/>
    </g>
   </g>
   <g id="line2d_34">
    <path d="M 97.584867 66.96 
L 518.4 66.96 
" clip-path="url(#p56878a8a86)" style="fill: none; stroke-dasharray: 7.5,15; stroke-dashoffset: 0; stroke: #bec291; stroke-width: 1.5"/>
   </g>
   <g id="line2d_35">
    <path d="M 96.005178 369.350146 
" clip-path="url(#p56878a8a86)" style="fill: none; stroke: #f119c3; stroke-width: 1.5; stroke-linecap: square"/>
    <defs>
     <path id="m1e1bfd1c19" d="M -0 5 
L 5 -5 
L -5 -5 
z
" style="stroke: #f119c3; stroke-linejoin: miter"/>
    </defs>
    <g clip-path="url(#p56878a8a86)">
     <use xlink:href="#m1e1bfd1c19" x="96.005178" y="369.350146" style="fill: #f119c3; stroke: #f119c3; stroke-linejoin: miter"/>
    </g>
   </g>
   <g id="line2d_36">
    <path d="M 96.005178 369.350146 
L 518.4 369.350146 
" clip-path="url(#p56878a8a86)" style="fill: none; stroke: #f119c3; stroke-width: 1.5; stroke-linecap: square"/>
   </g>
   <g id="line2d_37">
    <path d="M 100.245848 369.36 
" clip-path="url(#p56878a8a86)" style="fill: none; stroke-dasharray: 1.5,15; stroke-dashoffset: 0; stroke: #f190dd; stroke-width: 1.5"/>
    <defs>
     <path id="m82a3d7f0f0" d="M -0 3 
L 3 -3 
L -3 -3 
z
" style="stroke: #f190dd; stroke-linejoin: miter"/>
    </defs>
    <g clip-path="url(#p56878a8a86)">
     <use xlink:href="#m82a3d7f0f0" x="100.245848" y="369.36" style="fill: #f190dd; stroke: #f190dd; stroke-linejoin: miter"/>
    </g>
   </g>
   <g id="line2d_38">
    <path d="M 100.245848 369.36 
L 518.4 369.36 
" clip-path="url(#p56878a8a86)" style="fill: none; stroke-dasharray: 1.5,15; stroke-dashoffset: 0; stroke: #f190dd; stroke-width: 1.5"/>
   </g>
   <g id="line2d_39">
    <path d="M 96.320534 369.329802 
" clip-path="url(#p56878a8a86)" style="fill: none; stroke-dasharray: 7.5,15; stroke-dashoffset: 0; stroke: #ecc0e3; stroke-width: 1.5"/>
    <defs>
     <path id="m1b372a47e0" d="M -0 3 
L 3 -3 
L -3 -3 
z
" style="stroke: #ecc0e3; stroke-linejoin: miter"/>
    </defs>
    <g clip-path="url(#p56878a8a86)">
     <use xlink:href="#m1b372a47e0" x="96.320534" y="369.329802" style="fill: #ecc0e3; stroke: #ecc0e3; stroke-linejoin: miter"/>
    </g>
   </g>
   <g id="line2d_40">
    <path d="M 96.320534 369.329802 
L 518.4 369.329802 
" clip-path="url(#p56878a8a86)" style="fill: none; stroke-dasharray: 7.5,15; stroke-dashoffset: 0; stroke: #ecc0e3; stroke-width: 1.5"/>
   </g>
   <g id="line2d_41">
    <path d="M 97.97943 161.77492 
L 122.671655 234.111939 
L 147.711883 247.978885 
L 172.022997 249.470334 
L 196.38865 249.185204 
L 220.71666 249.071724 
L 245.506326 249.041685 
L 269.615928 249.032308 
L 293.417556 249.031196 
L 319.381192 249.041368 
L 343.904895 249.028653 
L 369.548633 249.031672 
L 394.201025 249.032149 
L 420.464283 249.033898 
L 445.105904 249.029447 
L 469.509424 248.981449 
L 495.303478 249.034374 
L 520.520296 248.988283 
" clip-path="url(#p56878a8a86)" style="fill: none; stroke: #0d5915; stroke-width: 1.5; stroke-linecap: square"/>
    <defs>
     <path id="m048c26c5c3" d="M 0 0 
L 0 -5 
M 0 0 
L -4 2.5 
M 0 0 
L 4 2.5 
" style="stroke: #0d5915"/>
    </defs>
    <g clip-path="url(#p56878a8a86)">
     <use xlink:href="#m048c26c5c3" x="97.97943" y="161.77492" style="fill: #0d5915; stroke: #0d5915"/>
     <use xlink:href="#m048c26c5c3" x="122.671655" y="234.111939" style="fill: #0d5915; stroke: #0d5915"/>
     <use xlink:href="#m048c26c5c3" x="147.711883" y="247.978885" style="fill: #0d5915; stroke: #0d5915"/>
     <use xlink:href="#m048c26c5c3" x="172.022997" y="249.470334" style="fill: #0d5915; stroke: #0d5915"/>
     <use xlink:href="#m048c26c5c3" x="196.38865" y="249.185204" style="fill: #0d5915; stroke: #0d5915"/>
     <use xlink:href="#m048c26c5c3" x="220.71666" y="249.071724" style="fill: #0d5915; stroke: #0d5915"/>
     <use xlink:href="#m048c26c5c3" x="245.506326" y="249.041685" style="fill: #0d5915; stroke: #0d5915"/>
     <use xlink:href="#m048c26c5c3" x="269.615928" y="249.032308" style="fill: #0d5915; stroke: #0d5915"/>
     <use xlink:href="#m048c26c5c3" x="293.417556" y="249.031196" style="fill: #0d5915; stroke: #0d5915"/>
     <use xlink:href="#m048c26c5c3" x="319.381192" y="249.041368" style="fill: #0d5915; stroke: #0d5915"/>
     <use xlink:href="#m048c26c5c3" x="343.904895" y="249.028653" style="fill: #0d5915; stroke: #0d5915"/>
     <use xlink:href="#m048c26c5c3" x="369.548633" y="249.031672" style="fill: #0d5915; stroke: #0d5915"/>
     <use xlink:href="#m048c26c5c3" x="394.201025" y="249.032149" style="fill: #0d5915; stroke: #0d5915"/>
     <use xlink:href="#m048c26c5c3" x="420.464283" y="249.033898" style="fill: #0d5915; stroke: #0d5915"/>
     <use xlink:href="#m048c26c5c3" x="445.105904" y="249.029447" style="fill: #0d5915; stroke: #0d5915"/>
     <use xlink:href="#m048c26c5c3" x="469.509424" y="248.981449" style="fill: #0d5915; stroke: #0d5915"/>
     <use xlink:href="#m048c26c5c3" x="495.303478" y="249.034374" style="fill: #0d5915; stroke: #0d5915"/>
     <use xlink:href="#m048c26c5c3" x="520.520296" y="248.988283" style="fill: #0d5915; stroke: #0d5915"/>
    </g>
   </g>
   <g id="line2d_42">
    <path d="M 97.630497 158.70588 
L 123.135906 234.1566 
L 147.608111 248.038645 
L 172.679085 249.490519 
L 199.012648 249.181231 
L 223.862652 249.076174 
L 249.446712 249.043434 
L 274.77702 249.058533 
L 299.883101 249.037553 
L 325.58849 249.052811 
L 350.676369 248.992098 
L 375.443201 249.035487 
L 399.984361 249.032626 
L 424.740763 249.020865 
L 450.06375 249.034533 
L 474.903562 249.155801 
L 499.740011 249.04391 
L 524.099292 249.016574 
" clip-path="url(#p56878a8a86)" style="fill: none; stroke-dasharray: 1.5,15; stroke-dashoffset: 0; stroke: #6ec977; stroke-width: 1.5"/>
    <defs>
     <path id="m65bd375717" d="M 0 0 
L 0 -3 
M 0 0 
L -2.4 1.5 
M 0 0 
L 2.4 1.5 
" style="stroke: #6ec977"/>
    </defs>
    <g clip-path="url(#p56878a8a86)">
     <use xlink:href="#m65bd375717" x="97.630497" y="158.70588" style="fill: #6ec977; stroke: #6ec977"/>
     <use xlink:href="#m65bd375717" x="123.135906" y="234.1566" style="fill: #6ec977; stroke: #6ec977"/>
     <use xlink:href="#m65bd375717" x="147.608111" y="248.038645" style="fill: #6ec977; stroke: #6ec977"/>
     <use xlink:href="#m65bd375717" x="172.679085" y="249.490519" style="fill: #6ec977; stroke: #6ec977"/>
     <use xlink:href="#m65bd375717" x="199.012648" y="249.181231" style="fill: #6ec977; stroke: #6ec977"/>
     <use xlink:href="#m65bd375717" x="223.862652" y="249.076174" style="fill: #6ec977; stroke: #6ec977"/>
     <use xlink:href="#m65bd375717" x="249.446712" y="249.043434" style="fill: #6ec977; stroke: #6ec977"/>
     <use xlink:href="#m65bd375717" x="274.77702" y="249.058533" style="fill: #6ec977; stroke: #6ec977"/>
     <use xlink:href="#m65bd375717" x="299.883101" y="249.037553" style="fill: #6ec977; stroke: #6ec977"/>
     <use xlink:href="#m65bd375717" x="325.58849" y="249.052811" style="fill: #6ec977; stroke: #6ec977"/>
     <use xlink:href="#m65bd375717" x="350.676369" y="248.992098" style="fill: #6ec977; stroke: #6ec977"/>
     <use xlink:href="#m65bd375717" x="375.443201" y="249.035487" style="fill: #6ec977; stroke: #6ec977"/>
     <use xlink:href="#m65bd375717" x="399.984361" y="249.032626" style="fill: #6ec977; stroke: #6ec977"/>
     <use xlink:href="#m65bd375717" x="424.740763" y="249.020865" style="fill: #6ec977; stroke: #6ec977"/>
     <use xlink:href="#m65bd375717" x="450.06375" y="249.034533" style="fill: #6ec977; stroke: #6ec977"/>
     <use xlink:href="#m65bd375717" x="474.903562" y="249.155801" style="fill: #6ec977; stroke: #6ec977"/>
     <use xlink:href="#m65bd375717" x="499.740011" y="249.04391" style="fill: #6ec977; stroke: #6ec977"/>
     <use xlink:href="#m65bd375717" x="524.099292" y="249.016574" style="fill: #6ec977; stroke: #6ec977"/>
    </g>
   </g>
   <g id="line2d_43">
    <path d="M 96.088748 158.263404 
L 121.491906 234.231299 
L 146.665271 248.044366 
L 171.989203 249.481141 
L 196.437198 249.180913 
L 221.254019 249.074426 
L 245.742248 249.038189 
L 272.607263 249.03501 
L 296.869078 249.064095 
L 321.174515 248.938854 
L 345.692005 249.048043 
L 370.755096 249.004336 
L 396.400485 249.085393 
L 420.617481 249.02166 
L 446.089326 249.028812 
L 470.162048 249.006084 
L 496.321158 249.021342 
L 522.785285 248.993369 
" clip-path="url(#p56878a8a86)" style="fill: none; stroke-dasharray: 7.5,15; stroke-dashoffset: 0; stroke: #96f6a0; stroke-width: 1.5"/>
    <defs>
     <path id="me8d701a2c2" d="M 0 0 
L 0 -3 
M 0 0 
L -2.4 1.5 
M 0 0 
L 2.4 1.5 
" style="stroke: #96f6a0"/>
    </defs>
    <g clip-path="url(#p56878a8a86)">
     <use xlink:href="#me8d701a2c2" x="96.088748" y="158.263404" style="fill: #96f6a0; stroke: #96f6a0"/>
     <use xlink:href="#me8d701a2c2" x="121.491906" y="234.231299" style="fill: #96f6a0; stroke: #96f6a0"/>
     <use xlink:href="#me8d701a2c2" x="146.665271" y="248.044366" style="fill: #96f6a0; stroke: #96f6a0"/>
     <use xlink:href="#me8d701a2c2" x="171.989203" y="249.481141" style="fill: #96f6a0; stroke: #96f6a0"/>
     <use xlink:href="#me8d701a2c2" x="196.437198" y="249.180913" style="fill: #96f6a0; stroke: #96f6a0"/>
     <use xlink:href="#me8d701a2c2" x="221.254019" y="249.074426" style="fill: #96f6a0; stroke: #96f6a0"/>
     <use xlink:href="#me8d701a2c2" x="245.742248" y="249.038189" style="fill: #96f6a0; stroke: #96f6a0"/>
     <use xlink:href="#me8d701a2c2" x="272.607263" y="249.03501" style="fill: #96f6a0; stroke: #96f6a0"/>
     <use xlink:href="#me8d701a2c2" x="296.869078" y="249.064095" style="fill: #96f6a0; stroke: #96f6a0"/>
     <use xlink:href="#me8d701a2c2" x="321.174515" y="248.938854" style="fill: #96f6a0; stroke: #96f6a0"/>
     <use xlink:href="#me8d701a2c2" x="345.692005" y="249.048043" style="fill: #96f6a0; stroke: #96f6a0"/>
     <use xlink:href="#me8d701a2c2" x="370.755096" y="249.004336" style="fill: #96f6a0; stroke: #96f6a0"/>
     <use xlink:href="#me8d701a2c2" x="396.400485" y="249.085393" style="fill: #96f6a0; stroke: #96f6a0"/>
     <use xlink:href="#me8d701a2c2" x="420.617481" y="249.02166" style="fill: #96f6a0; stroke: #96f6a0"/>
     <use xlink:href="#me8d701a2c2" x="446.089326" y="249.028812" style="fill: #96f6a0; stroke: #96f6a0"/>
     <use xlink:href="#me8d701a2c2" x="470.162048" y="249.006084" style="fill: #96f6a0; stroke: #96f6a0"/>
     <use xlink:href="#me8d701a2c2" x="496.321158" y="249.021342" style="fill: #96f6a0; stroke: #96f6a0"/>
     <use xlink:href="#me8d701a2c2" x="522.785285" y="248.993369" style="fill: #96f6a0; stroke: #96f6a0"/>
    </g>
   </g>
   <g id="line2d_44">
    <path d="M 72.934921 369.36 
L 89.88594 365.985271 
L 106.841918 367.315905 
L 125.214672 367.020022 
L 142.39159 367.737593 
L 159.466984 367.386374 
L 176.291329 367.942695 
L 193.732007 367.595764 
L 210.74485 368.072292 
L 228.261736 367.737533 
L 246.55236 368.164597 
L 263.33421 367.842509 
L 280.567953 368.235082 
L 297.604952 367.924699 
L 314.394056 368.291424 
L 331.06875 367.991556 
L 348.560654 368.337944 
L 365.008971 368.047474 
L 382.195527 368.377293 
L 400.64095 368.095245 
L 417.483745 368.411207 
L 434.497911 368.136742 
L 452.983811 368.440876 
L 469.912159 368.173279 
L 498.147463 368.467152 
L 518.363952 368.205808 
L 518.402104 368.479237 
" clip-path="url(#p56878a8a86)" style="fill: none; stroke: #e31d1d; stroke-width: 1.5; stroke-linecap: square"/>
    <defs>
     <path id="m2245102dba" d="M 0 5 
C 1.326016 5 2.597899 4.473168 3.535534 3.535534 
C 4.473168 2.597899 5 1.326016 5 0 
C 5 -1.326016 4.473168 -2.597899 3.535534 -3.535534 
C 2.597899 -4.473168 1.326016 -5 0 -5 
C -1.326016 -5 -2.597899 -4.473168 -3.535534 -3.535534 
C -4.473168 -2.597899 -5 -1.326016 -5 0 
C -5 1.326016 -4.473168 2.597899 -3.535534 3.535534 
C -2.597899 4.473168 -1.326016 5 0 5 
z
" style="stroke: #e31d1d"/>
    </defs>
    <g clip-path="url(#p56878a8a86)">
     <use xlink:href="#m2245102dba" x="72.934921" y="369.36" style="fill: #e31d1d; stroke: #e31d1d"/>
     <use xlink:href="#m2245102dba" x="89.88594" y="365.985271" style="fill: #e31d1d; stroke: #e31d1d"/>
     <use xlink:href="#m2245102dba" x="106.841918" y="367.315905" style="fill: #e31d1d; stroke: #e31d1d"/>
     <use xlink:href="#m2245102dba" x="125.214672" y="367.020022" style="fill: #e31d1d; stroke: #e31d1d"/>
     <use xlink:href="#m2245102dba" x="142.39159" y="367.737593" style="fill: #e31d1d; stroke: #e31d1d"/>
     <use xlink:href="#m2245102dba" x="159.466984" y="367.386374" style="fill: #e31d1d; stroke: #e31d1d"/>
     <use xlink:href="#m2245102dba" x="176.291329" y="367.942695" style="fill: #e31d1d; stroke: #e31d1d"/>
     <use xlink:href="#m2245102dba" x="193.732007" y="367.595764" style="fill: #e31d1d; stroke: #e31d1d"/>
     <use xlink:href="#m2245102dba" x="210.74485" y="368.072292" style="fill: #e31d1d; stroke: #e31d1d"/>
     <use xlink:href="#m2245102dba" x="228.261736" y="367.737533" style="fill: #e31d1d; stroke: #e31d1d"/>
     <use xlink:href="#m2245102dba" x="246.55236" y="368.164597" style="fill: #e31d1d; stroke: #e31d1d"/>
     <use xlink:href="#m2245102dba" x="263.33421" y="367.842509" style="fill: #e31d1d; stroke: #e31d1d"/>
     <use xlink:href="#m2245102dba" x="280.567953" y="368.235082" style="fill: #e31d1d; stroke: #e31d1d"/>
     <use xlink:href="#m2245102dba" x="297.604952" y="367.924699" style="fill: #e31d1d; stroke: #e31d1d"/>
     <use xlink:href="#m2245102dba" x="314.394056" y="368.291424" style="fill: #e31d1d; stroke: #e31d1d"/>
     <use xlink:href="#m2245102dba" x="331.06875" y="367.991556" style="fill: #e31d1d; stroke: #e31d1d"/>
     <use xlink:href="#m2245102dba" x="348.560654" y="368.337944" style="fill: #e31d1d; stroke: #e31d1d"/>
     <use xlink:href="#m2245102dba" x="365.008971" y="368.047474" style="fill: #e31d1d; stroke: #e31d1d"/>
     <use xlink:href="#m2245102dba" x="382.195527" y="368.377293" style="fill: #e31d1d; stroke: #e31d1d"/>
     <use xlink:href="#m2245102dba" x="400.64095" y="368.095245" style="fill: #e31d1d; stroke: #e31d1d"/>
     <use xlink:href="#m2245102dba" x="417.483745" y="368.411207" style="fill: #e31d1d; stroke: #e31d1d"/>
     <use xlink:href="#m2245102dba" x="434.497911" y="368.136742" style="fill: #e31d1d; stroke: #e31d1d"/>
     <use xlink:href="#m2245102dba" x="452.983811" y="368.440876" style="fill: #e31d1d; stroke: #e31d1d"/>
     <use xlink:href="#m2245102dba" x="469.912159" y="368.173279" style="fill: #e31d1d; stroke: #e31d1d"/>
     <use xlink:href="#m2245102dba" x="498.147463" y="368.467152" style="fill: #e31d1d; stroke: #e31d1d"/>
     <use xlink:href="#m2245102dba" x="518.363952" y="368.205808" style="fill: #e31d1d; stroke: #e31d1d"/>
     <use xlink:href="#m2245102dba" x="518.402104" y="368.479237" style="fill: #e31d1d; stroke: #e31d1d"/>
    </g>
   </g>
   <g id="line2d_45">
    <path d="M 72.014861 369.36 
L 91.176681 366.027651 
L 109.714202 366.715054 
L 129.592514 367.04941 
L 149.781767 367.260682 
L 169.072502 367.411161 
L 187.004051 367.52607 
L 204.883205 367.617922 
L 222.226649 367.693761 
L 240.130995 367.757911 
L 257.542578 367.813199 
L 274.255125 367.861568 
L 291.034901 367.904403 
L 308.553917 367.942726 
L 325.946724 367.977307 
L 343.444978 368.008743 
L 361.095592 368.037502 
L 378.662243 368.063958 
L 395.921476 368.088418 
L 413.881157 368.111129 
L 431.026139 368.132301 
L 447.704342 368.152105 
L 465.889882 368.170691 
L 483.611942 368.188184 
L 500.889712 368.20469 
L 518.383874 368.220304 
L 518.402651 368.220319 
" clip-path="url(#p56878a8a86)" style="fill: none; stroke-dasharray: 1.5,15; stroke-dashoffset: 0; stroke: #df6f67; stroke-width: 1.5"/>
    <defs>
     <path id="m176a3e6f1d" d="M 0 3 
C 0.795609 3 1.55874 2.683901 2.12132 2.12132 
C 2.683901 1.55874 3 0.795609 3 0 
C 3 -0.795609 2.683901 -1.55874 2.12132 -2.12132 
C 1.55874 -2.683901 0.795609 -3 0 -3 
C -0.795609 -3 -1.55874 -2.683901 -2.12132 -2.12132 
C -2.683901 -1.55874 -3 -0.795609 -3 0 
C -3 0.795609 -2.683901 1.55874 -2.12132 2.12132 
C -1.55874 2.683901 -0.795609 3 0 3 
z
" style="stroke: #df6f67"/>
    </defs>
    <g clip-path="url(#p56878a8a86)">
     <use xlink:href="#m176a3e6f1d" x="72.014861" y="369.36" style="fill: #df6f67; stroke: #df6f67"/>
     <use xlink:href="#m176a3e6f1d" x="91.176681" y="366.027651" style="fill: #df6f67; stroke: #df6f67"/>
     <use xlink:href="#m176a3e6f1d" x="109.714202" y="366.715054" style="fill: #df6f67; stroke: #df6f67"/>
     <use xlink:href="#m176a3e6f1d" x="129.592514" y="367.04941" style="fill: #df6f67; stroke: #df6f67"/>
     <use xlink:href="#m176a3e6f1d" x="149.781767" y="367.260682" style="fill: #df6f67; stroke: #df6f67"/>
     <use xlink:href="#m176a3e6f1d" x="169.072502" y="367.411161" style="fill: #df6f67; stroke: #df6f67"/>
     <use xlink:href="#m176a3e6f1d" x="187.004051" y="367.52607" style="fill: #df6f67; stroke: #df6f67"/>
     <use xlink:href="#m176a3e6f1d" x="204.883205" y="367.617922" style="fill: #df6f67; stroke: #df6f67"/>
     <use xlink:href="#m176a3e6f1d" x="222.226649" y="367.693761" style="fill: #df6f67; stroke: #df6f67"/>
     <use xlink:href="#m176a3e6f1d" x="240.130995" y="367.757911" style="fill: #df6f67; stroke: #df6f67"/>
     <use xlink:href="#m176a3e6f1d" x="257.542578" y="367.813199" style="fill: #df6f67; stroke: #df6f67"/>
     <use xlink:href="#m176a3e6f1d" x="274.255125" y="367.861568" style="fill: #df6f67; stroke: #df6f67"/>
     <use xlink:href="#m176a3e6f1d" x="291.034901" y="367.904403" style="fill: #df6f67; stroke: #df6f67"/>
     <use xlink:href="#m176a3e6f1d" x="308.553917" y="367.942726" style="fill: #df6f67; stroke: #df6f67"/>
     <use xlink:href="#m176a3e6f1d" x="325.946724" y="367.977307" style="fill: #df6f67; stroke: #df6f67"/>
     <use xlink:href="#m176a3e6f1d" x="343.444978" y="368.008743" style="fill: #df6f67; stroke: #df6f67"/>
     <use xlink:href="#m176a3e6f1d" x="361.095592" y="368.037502" style="fill: #df6f67; stroke: #df6f67"/>
     <use xlink:href="#m176a3e6f1d" x="378.662243" y="368.063958" style="fill: #df6f67; stroke: #df6f67"/>
     <use xlink:href="#m176a3e6f1d" x="395.921476" y="368.088418" style="fill: #df6f67; stroke: #df6f67"/>
     <use xlink:href="#m176a3e6f1d" x="413.881157" y="368.111129" style="fill: #df6f67; stroke: #df6f67"/>
     <use xlink:href="#m176a3e6f1d" x="431.026139" y="368.132301" style="fill: #df6f67; stroke: #df6f67"/>
     <use xlink:href="#m176a3e6f1d" x="447.704342" y="368.152105" style="fill: #df6f67; stroke: #df6f67"/>
     <use xlink:href="#m176a3e6f1d" x="465.889882" y="368.170691" style="fill: #df6f67; stroke: #df6f67"/>
     <use xlink:href="#m176a3e6f1d" x="483.611942" y="368.188184" style="fill: #df6f67; stroke: #df6f67"/>
     <use xlink:href="#m176a3e6f1d" x="500.889712" y="368.20469" style="fill: #df6f67; stroke: #df6f67"/>
     <use xlink:href="#m176a3e6f1d" x="518.383874" y="368.220304" style="fill: #df6f67; stroke: #df6f67"/>
     <use xlink:href="#m176a3e6f1d" x="518.402651" y="368.220319" style="fill: #df6f67; stroke: #df6f67"/>
    </g>
   </g>
   <g id="line2d_46">
    <path d="M 72.02091 369.36 
L 88.508414 366.742193 
L 104.665841 366.637281 
L 120.757596 367.54489 
L 136.177685 367.198951 
L 152.775123 367.829073 
L 168.087681 367.472142 
L 185.107862 367.991497 
L 203.865398 367.644764 
L 220.541321 368.101467 
L 236.415881 367.767714 
L 253.357505 368.182897 
L 270.154594 367.8616 
L 286.145949 368.246651 
L 311.710721 367.936648 
L 330.374148 368.298512 
L 353.396765 367.998612 
L 373.312576 368.341887 
L 390.384368 368.051025 
L 410.618034 368.378942 
L 427.308162 368.096199 
L 445.321362 368.411131 
L 468.395541 368.135718 
L 484.867608 368.439473 
L 501.458695 368.170717 
L 518.358634 368.464706 
L 518.400839 368.464736 
" clip-path="url(#p56878a8a86)" style="fill: none; stroke-dasharray: 7.5,15; stroke-dashoffset: 0; stroke: #dea39f; stroke-width: 1.5"/>
    <defs>
     <path id="m8f07f6f5e0" d="M 0 3 
C 0.795609 3 1.55874 2.683901 2.12132 2.12132 
C 2.683901 1.55874 3 0.795609 3 0 
C 3 -0.795609 2.683901 -1.55874 2.12132 -2.12132 
C 1.55874 -2.683901 0.795609 -3 0 -3 
C -0.795609 -3 -1.55874 -2.683901 -2.12132 -2.12132 
C -2.683901 -1.55874 -3 -0.795609 -3 0 
C -3 0.795609 -2.683901 1.55874 -2.12132 2.12132 
C -1.55874 2.683901 -0.795609 3 0 3 
z
" style="stroke: #dea39f"/>
    </defs>
    <g clip-path="url(#p56878a8a86)">
     <use xlink:href="#m8f07f6f5e0" x="72.02091" y="369.36" style="fill: #dea39f; stroke: #dea39f"/>
     <use xlink:href="#m8f07f6f5e0" x="88.508414" y="366.742193" style="fill: #dea39f; stroke: #dea39f"/>
     <use xlink:href="#m8f07f6f5e0" x="104.665841" y="366.637281" style="fill: #dea39f; stroke: #dea39f"/>
     <use xlink:href="#m8f07f6f5e0" x="120.757596" y="367.54489" style="fill: #dea39f; stroke: #dea39f"/>
     <use xlink:href="#m8f07f6f5e0" x="136.177685" y="367.198951" style="fill: #dea39f; stroke: #dea39f"/>
     <use xlink:href="#m8f07f6f5e0" x="152.775123" y="367.829073" style="fill: #dea39f; stroke: #dea39f"/>
     <use xlink:href="#m8f07f6f5e0" x="168.087681" y="367.472142" style="fill: #dea39f; stroke: #dea39f"/>
     <use xlink:href="#m8f07f6f5e0" x="185.107862" y="367.991497" style="fill: #dea39f; stroke: #dea39f"/>
     <use xlink:href="#m8f07f6f5e0" x="203.865398" y="367.644764" style="fill: #dea39f; stroke: #dea39f"/>
     <use xlink:href="#m8f07f6f5e0" x="220.541321" y="368.101467" style="fill: #dea39f; stroke: #dea39f"/>
     <use xlink:href="#m8f07f6f5e0" x="236.415881" y="367.767714" style="fill: #dea39f; stroke: #dea39f"/>
     <use xlink:href="#m8f07f6f5e0" x="253.357505" y="368.182897" style="fill: #dea39f; stroke: #dea39f"/>
     <use xlink:href="#m8f07f6f5e0" x="270.154594" y="367.8616" style="fill: #dea39f; stroke: #dea39f"/>
     <use xlink:href="#m8f07f6f5e0" x="286.145949" y="368.246651" style="fill: #dea39f; stroke: #dea39f"/>
     <use xlink:href="#m8f07f6f5e0" x="311.710721" y="367.936648" style="fill: #dea39f; stroke: #dea39f"/>
     <use xlink:href="#m8f07f6f5e0" x="330.374148" y="368.298512" style="fill: #dea39f; stroke: #dea39f"/>
     <use xlink:href="#m8f07f6f5e0" x="353.396765" y="367.998612" style="fill: #dea39f; stroke: #dea39f"/>
     <use xlink:href="#m8f07f6f5e0" x="373.312576" y="368.341887" style="fill: #dea39f; stroke: #dea39f"/>
     <use xlink:href="#m8f07f6f5e0" x="390.384368" y="368.051025" style="fill: #dea39f; stroke: #dea39f"/>
     <use xlink:href="#m8f07f6f5e0" x="410.618034" y="368.378942" style="fill: #dea39f; stroke: #dea39f"/>
     <use xlink:href="#m8f07f6f5e0" x="427.308162" y="368.096199" style="fill: #dea39f; stroke: #dea39f"/>
     <use xlink:href="#m8f07f6f5e0" x="445.321362" y="368.411131" style="fill: #dea39f; stroke: #dea39f"/>
     <use xlink:href="#m8f07f6f5e0" x="468.395541" y="368.135718" style="fill: #dea39f; stroke: #dea39f"/>
     <use xlink:href="#m8f07f6f5e0" x="484.867608" y="368.439473" style="fill: #dea39f; stroke: #dea39f"/>
     <use xlink:href="#m8f07f6f5e0" x="501.458695" y="368.170717" style="fill: #dea39f; stroke: #dea39f"/>
     <use xlink:href="#m8f07f6f5e0" x="518.358634" y="368.464706" style="fill: #dea39f; stroke: #dea39f"/>
     <use xlink:href="#m8f07f6f5e0" x="518.400839" y="368.464736" style="fill: #dea39f; stroke: #dea39f"/>
    </g>
   </g>
   <g id="line2d_47">
    <path d="M 106.163178 66.960318 
L 130.875479 369.36 
L 156.037786 369.36 
L 182.85593 369.36 
L 208.533844 369.36 
L 234.43948 369.36 
L 259.072307 369.36 
L 284.912771 369.36 
L 310.266443 369.36 
L 335.860525 369.36 
L 359.853911 369.36 
L 384.684477 369.36 
L 409.709301 369.36 
L 435.798749 369.36 
L 460.904124 369.36 
L 486.877949 369.36 
L 513.774204 369.36 
L 538.630811 369.36 
" clip-path="url(#p56878a8a86)" style="fill: none; stroke: #1c24dc; stroke-width: 1.5; stroke-linecap: square"/>
    <defs>
     <path id="m59c0c26265" d="M 0 -5 
L -1.12257 -1.545085 
L -4.755283 -1.545085 
L -1.816356 0.59017 
L -2.938926 4.045085 
L -0 1.90983 
L 2.938926 4.045085 
L 1.816356 0.59017 
L 4.755283 -1.545085 
L 1.12257 -1.545085 
z
" style="stroke: #1c24dc; stroke-linejoin: bevel"/>
    </defs>
    <g clip-path="url(#p56878a8a86)">
     <use xlink:href="#m59c0c26265" x="106.163178" y="66.960318" style="fill: #1c24dc; stroke: #1c24dc; stroke-linejoin: bevel"/>
     <use xlink:href="#m59c0c26265" x="130.875479" y="369.36" style="fill: #1c24dc; stroke: #1c24dc; stroke-linejoin: bevel"/>
     <use xlink:href="#m59c0c26265" x="156.037786" y="369.36" style="fill: #1c24dc; stroke: #1c24dc; stroke-linejoin: bevel"/>
     <use xlink:href="#m59c0c26265" x="182.85593" y="369.36" style="fill: #1c24dc; stroke: #1c24dc; stroke-linejoin: bevel"/>
     <use xlink:href="#m59c0c26265" x="208.533844" y="369.36" style="fill: #1c24dc; stroke: #1c24dc; stroke-linejoin: bevel"/>
     <use xlink:href="#m59c0c26265" x="234.43948" y="369.36" style="fill: #1c24dc; stroke: #1c24dc; stroke-linejoin: bevel"/>
     <use xlink:href="#m59c0c26265" x="259.072307" y="369.36" style="fill: #1c24dc; stroke: #1c24dc; stroke-linejoin: bevel"/>
     <use xlink:href="#m59c0c26265" x="284.912771" y="369.36" style="fill: #1c24dc; stroke: #1c24dc; stroke-linejoin: bevel"/>
     <use xlink:href="#m59c0c26265" x="310.266443" y="369.36" style="fill: #1c24dc; stroke: #1c24dc; stroke-linejoin: bevel"/>
     <use xlink:href="#m59c0c26265" x="335.860525" y="369.36" style="fill: #1c24dc; stroke: #1c24dc; stroke-linejoin: bevel"/>
     <use xlink:href="#m59c0c26265" x="359.853911" y="369.36" style="fill: #1c24dc; stroke: #1c24dc; stroke-linejoin: bevel"/>
     <use xlink:href="#m59c0c26265" x="384.684477" y="369.36" style="fill: #1c24dc; stroke: #1c24dc; stroke-linejoin: bevel"/>
     <use xlink:href="#m59c0c26265" x="409.709301" y="369.36" style="fill: #1c24dc; stroke: #1c24dc; stroke-linejoin: bevel"/>
     <use xlink:href="#m59c0c26265" x="435.798749" y="369.36" style="fill: #1c24dc; stroke: #1c24dc; stroke-linejoin: bevel"/>
     <use xlink:href="#m59c0c26265" x="460.904124" y="369.36" style="fill: #1c24dc; stroke: #1c24dc; stroke-linejoin: bevel"/>
     <use xlink:href="#m59c0c26265" x="486.877949" y="369.36" style="fill: #1c24dc; stroke: #1c24dc; stroke-linejoin: bevel"/>
     <use xlink:href="#m59c0c26265" x="513.774204" y="369.36" style="fill: #1c24dc; stroke: #1c24dc; stroke-linejoin: bevel"/>
     <use xlink:href="#m59c0c26265" x="538.630811" y="369.36" style="fill: #1c24dc; stroke: #1c24dc; stroke-linejoin: bevel"/>
    </g>
   </g>
   <g id="line2d_48">
    <path d="M 95.829796 66.960477 
L 119.642145 369.36 
L 143.279029 369.36 
L 166.533492 369.36 
L 189.929388 369.36 
L 214.252046 369.36 
L 241.025287 369.36 
L 264.854011 369.36 
L 288.639517 369.36 
L 312.081489 369.36 
L 336.28064 369.36 
L 359.994338 369.36 
L 384.119047 369.36 
L 409.794935 369.36 
L 433.605788 369.36 
L 457.455821 369.36 
L 481.578567 369.36 
L 505.189048 369.36 
L 528.493679 369.36 
" clip-path="url(#p56878a8a86)" style="fill: none; stroke-dasharray: 1.5,15; stroke-dashoffset: 0; stroke: #595fdc; stroke-width: 1.5"/>
    <defs>
     <path id="mbe86586cbd" d="M 0 -3 
L -0.673542 -0.927051 
L -2.85317 -0.927051 
L -1.089814 0.354102 
L -1.763356 2.427051 
L -0 1.145898 
L 1.763356 2.427051 
L 1.089814 0.354102 
L 2.85317 -0.927051 
L 0.673542 -0.927051 
z
" style="stroke: #595fdc; stroke-linejoin: bevel"/>
    </defs>
    <g clip-path="url(#p56878a8a86)">
     <use xlink:href="#mbe86586cbd" x="95.829796" y="66.960477" style="fill: #595fdc; stroke: #595fdc; stroke-linejoin: bevel"/>
     <use xlink:href="#mbe86586cbd" x="119.642145" y="369.36" style="fill: #595fdc; stroke: #595fdc; stroke-linejoin: bevel"/>
     <use xlink:href="#mbe86586cbd" x="143.279029" y="369.36" style="fill: #595fdc; stroke: #595fdc; stroke-linejoin: bevel"/>
     <use xlink:href="#mbe86586cbd" x="166.533492" y="369.36" style="fill: #595fdc; stroke: #595fdc; stroke-linejoin: bevel"/>
     <use xlink:href="#mbe86586cbd" x="189.929388" y="369.36" style="fill: #595fdc; stroke: #595fdc; stroke-linejoin: bevel"/>
     <use xlink:href="#mbe86586cbd" x="214.252046" y="369.36" style="fill: #595fdc; stroke: #595fdc; stroke-linejoin: bevel"/>
     <use xlink:href="#mbe86586cbd" x="241.025287" y="369.36" style="fill: #595fdc; stroke: #595fdc; stroke-linejoin: bevel"/>
     <use xlink:href="#mbe86586cbd" x="264.854011" y="369.36" style="fill: #595fdc; stroke: #595fdc; stroke-linejoin: bevel"/>
     <use xlink:href="#mbe86586cbd" x="288.639517" y="369.36" style="fill: #595fdc; stroke: #595fdc; stroke-linejoin: bevel"/>
     <use xlink:href="#mbe86586cbd" x="312.081489" y="369.36" style="fill: #595fdc; stroke: #595fdc; stroke-linejoin: bevel"/>
     <use xlink:href="#mbe86586cbd" x="336.28064" y="369.36" style="fill: #595fdc; stroke: #595fdc; stroke-linejoin: bevel"/>
     <use xlink:href="#mbe86586cbd" x="359.994338" y="369.36" style="fill: #595fdc; stroke: #595fdc; stroke-linejoin: bevel"/>
     <use xlink:href="#mbe86586cbd" x="384.119047" y="369.36" style="fill: #595fdc; stroke: #595fdc; stroke-linejoin: bevel"/>
     <use xlink:href="#mbe86586cbd" x="409.794935" y="369.36" style="fill: #595fdc; stroke: #595fdc; stroke-linejoin: bevel"/>
     <use xlink:href="#mbe86586cbd" x="433.605788" y="369.36" style="fill: #595fdc; stroke: #595fdc; stroke-linejoin: bevel"/>
     <use xlink:href="#mbe86586cbd" x="457.455821" y="369.36" style="fill: #595fdc; stroke: #595fdc; stroke-linejoin: bevel"/>
     <use xlink:href="#mbe86586cbd" x="481.578567" y="369.36" style="fill: #595fdc; stroke: #595fdc; stroke-linejoin: bevel"/>
     <use xlink:href="#mbe86586cbd" x="505.189048" y="369.36" style="fill: #595fdc; stroke: #595fdc; stroke-linejoin: bevel"/>
     <use xlink:href="#mbe86586cbd" x="528.493679" y="369.36" style="fill: #595fdc; stroke: #595fdc; stroke-linejoin: bevel"/>
    </g>
   </g>
   <g id="line2d_49">
    <path d="M 98.160308 66.96 
L 122.64478 369.359682 
L 148.246947 369.36 
L 174.418912 369.36 
L 198.767604 369.36 
L 224.198252 369.36 
L 248.91428 369.36 
L 272.744615 369.36 
L 297.077249 369.36 
L 320.764675 369.36 
L 346.374677 369.36 
L 370.104181 369.36 
L 394.467413 369.36 
L 420.330066 369.36 
L 447.490729 369.36 
L 471.630006 369.36 
L 497.073026 369.36 
L 521.785265 369.36 
" clip-path="url(#p56878a8a86)" style="fill: none; stroke-dasharray: 7.5,15; stroke-dashoffset: 0; stroke: #9598dc; stroke-width: 1.5"/>
    <defs>
     <path id="m1d0a35c2f2" d="M 0 -3 
L -0.673542 -0.927051 
L -2.85317 -0.927051 
L -1.089814 0.354102 
L -1.763356 2.427051 
L -0 1.145898 
L 1.763356 2.427051 
L 1.089814 0.354102 
L 2.85317 -0.927051 
L 0.673542 -0.927051 
z
" style="stroke: #9598dc; stroke-linejoin: bevel"/>
    </defs>
    <g clip-path="url(#p56878a8a86)">
     <use xlink:href="#m1d0a35c2f2" x="98.160308" y="66.96" style="fill: #9598dc; stroke: #9598dc; stroke-linejoin: bevel"/>
     <use xlink:href="#m1d0a35c2f2" x="122.64478" y="369.359682" style="fill: #9598dc; stroke: #9598dc; stroke-linejoin: bevel"/>
     <use xlink:href="#m1d0a35c2f2" x="148.246947" y="369.36" style="fill: #9598dc; stroke: #9598dc; stroke-linejoin: bevel"/>
     <use xlink:href="#m1d0a35c2f2" x="174.418912" y="369.36" style="fill: #9598dc; stroke: #9598dc; stroke-linejoin: bevel"/>
     <use xlink:href="#m1d0a35c2f2" x="198.767604" y="369.36" style="fill: #9598dc; stroke: #9598dc; stroke-linejoin: bevel"/>
     <use xlink:href="#m1d0a35c2f2" x="224.198252" y="369.36" style="fill: #9598dc; stroke: #9598dc; stroke-linejoin: bevel"/>
     <use xlink:href="#m1d0a35c2f2" x="248.91428" y="369.36" style="fill: #9598dc; stroke: #9598dc; stroke-linejoin: bevel"/>
     <use xlink:href="#m1d0a35c2f2" x="272.744615" y="369.36" style="fill: #9598dc; stroke: #9598dc; stroke-linejoin: bevel"/>
     <use xlink:href="#m1d0a35c2f2" x="297.077249" y="369.36" style="fill: #9598dc; stroke: #9598dc; stroke-linejoin: bevel"/>
     <use xlink:href="#m1d0a35c2f2" x="320.764675" y="369.36" style="fill: #9598dc; stroke: #9598dc; stroke-linejoin: bevel"/>
     <use xlink:href="#m1d0a35c2f2" x="346.374677" y="369.36" style="fill: #9598dc; stroke: #9598dc; stroke-linejoin: bevel"/>
     <use xlink:href="#m1d0a35c2f2" x="370.104181" y="369.36" style="fill: #9598dc; stroke: #9598dc; stroke-linejoin: bevel"/>
     <use xlink:href="#m1d0a35c2f2" x="394.467413" y="369.36" style="fill: #9598dc; stroke: #9598dc; stroke-linejoin: bevel"/>
     <use xlink:href="#m1d0a35c2f2" x="420.330066" y="369.36" style="fill: #9598dc; stroke: #9598dc; stroke-linejoin: bevel"/>
     <use xlink:href="#m1d0a35c2f2" x="447.490729" y="369.36" style="fill: #9598dc; stroke: #9598dc; stroke-linejoin: bevel"/>
     <use xlink:href="#m1d0a35c2f2" x="471.630006" y="369.36" style="fill: #9598dc; stroke: #9598dc; stroke-linejoin: bevel"/>
     <use xlink:href="#m1d0a35c2f2" x="497.073026" y="369.36" style="fill: #9598dc; stroke: #9598dc; stroke-linejoin: bevel"/>
     <use xlink:href="#m1d0a35c2f2" x="521.785265" y="369.36" style="fill: #9598dc; stroke: #9598dc; stroke-linejoin: bevel"/>
    </g>
   </g>
   <g id="patch_3">
    <path d="M 72 384.48 
L 72 51.84 
" style="fill: none; stroke: #000000; stroke-width: 0.8; stroke-linejoin: miter; stroke-linecap: square"/>
   </g>
   <g id="patch_4">
    <path d="M 518.4 384.48 
L 518.4 51.84 
" style="fill: none; stroke: #000000; stroke-width: 0.8; stroke-linejoin: miter; stroke-linecap: square"/>
   </g>
   <g id="patch_5">
    <path d="M 72 384.48 
L 518.4 384.48 
" style="fill: none; stroke: #000000; stroke-width: 0.8; stroke-linejoin: miter; stroke-linecap: square"/>
   </g>
   <g id="patch_6">
    <path d="M 72 51.84 
L 518.4 51.84 
" style="fill: none; stroke: #000000; stroke-width: 0.8; stroke-linejoin: miter; stroke-linecap: square"/>
   </g>
   <g id="legend_1">
    <g id="patch_7">
     <path d="M 410.2 315.34 
L 511.4 315.34 
Q 513.4 315.34 513.4 313.34 
L 513.4 58.84 
Q 513.4 56.84 511.4 56.84 
L 410.2 56.84 
Q 408.2 56.84 408.2 58.84 
L 408.2 313.34 
Q 408.2 315.34 410.2 315.34 
z
" style="fill: #ffffff; opacity: 0.8; stroke: #cccccc; stroke-linejoin: miter"/>
    </g>
    <g id="line2d_50">
     <path d="M 412.2 66.44 
L 422.2 66.44 
L 432.2 66.44 
" style="fill: none; stroke: #b6c800; stroke-width: 1.5; stroke-linecap: square"/>
     <g>
      <use xlink:href="#m3b918d4ae8" x="422.2" y="66.44" style="fill: #b6c800; stroke: #b6c800; stroke-linejoin: miter"/>
     </g>
    </g>
    <g id="text_17">
     <!-- $PA_{C\searrow}(\mathbf{x}^0_{max})$ -->
     <g transform="translate(440.2 69.94) scale(0.1 -0.1)">
      <defs>
       <path id="DejaVuSans-Oblique-50" d="M 1081 4666 
L 2541 4666 
Q 3178 4666 3512 4369 
Q 3847 4072 3847 3500 
Q 3847 2731 3353 2303 
Q 2859 1875 1966 1875 
L 1172 1875 
L 806 0 
L 172 0 
L 1081 4666 
z
M 1613 4147 
L 1275 2394 
L 2069 2394 
Q 2606 2394 2893 2669 
Q 3181 2944 3181 3456 
Q 3181 3784 2986 3965 
Q 2791 4147 2438 4147 
L 1613 4147 
z
" transform="scale(0.015625)"/>
       <path id="DejaVuSans-Oblique-41" d="M 2356 4666 
L 3072 4666 
L 3938 0 
L 3278 0 
L 3084 1197 
L 984 1197 
L 325 0 
L -341 0 
L 2356 4666 
z
M 2584 4044 
L 1275 1722 
L 2988 1722 
L 2584 4044 
z
" transform="scale(0.015625)"/>
       <path id="DejaVuSans-Oblique-43" d="M 4447 4306 
L 4319 3641 
Q 4019 3944 3683 4091 
Q 3347 4238 2956 4238 
Q 2422 4238 2017 3981 
Q 1613 3725 1319 3200 
Q 1131 2863 1032 2486 
Q 934 2109 934 1728 
Q 934 1091 1264 756 
Q 1594 422 2222 422 
Q 2656 422 3056 561 
Q 3456 700 3834 978 
L 3688 231 
Q 3316 72 2936 -9 
Q 2556 -91 2175 -91 
Q 1278 -91 773 396 
Q 269 884 269 1753 
Q 269 2309 461 2846 
Q 653 3384 1013 3828 
Q 1394 4300 1883 4525 
Q 2372 4750 3022 4750 
Q 3422 4750 3780 4639 
Q 4138 4528 4447 4306 
z
" transform="scale(0.015625)"/>
       <path id="DejaVuSans-2198" d="M 4497 359 
L 4300 163 
L 2563 163 
L 2563 691 
L 3594 691 
L 900 3384 
L 1275 3759 
L 3969 1066 
L 3969 2097 
L 4497 2097 
L 4497 359 
z
" transform="scale(0.015625)"/>
       <path id="DejaVuSans-28" d="M 1984 4856 
Q 1566 4138 1362 3434 
Q 1159 2731 1159 2009 
Q 1159 1288 1364 580 
Q 1569 -128 1984 -844 
L 1484 -844 
Q 1016 -109 783 600 
Q 550 1309 550 2009 
Q 550 2706 781 3412 
Q 1013 4119 1484 4856 
L 1984 4856 
z
" transform="scale(0.015625)"/>
       <path id="DejaVuSans-Bold-78" d="M 1422 1791 
L 159 3500 
L 1344 3500 
L 2059 2463 
L 2784 3500 
L 3969 3500 
L 2706 1797 
L 4031 0 
L 2847 0 
L 2059 1106 
L 1281 0 
L 97 0 
L 1422 1791 
z
" transform="scale(0.015625)"/>
       <path id="DejaVuSans-Oblique-6d" d="M 5747 2113 
L 5338 0 
L 4763 0 
L 5166 2094 
Q 5191 2228 5203 2325 
Q 5216 2422 5216 2491 
Q 5216 2772 5059 2928 
Q 4903 3084 4622 3084 
Q 4203 3084 3875 2770 
Q 3547 2456 3450 1953 
L 3066 0 
L 2491 0 
L 2900 2094 
Q 2925 2209 2937 2307 
Q 2950 2406 2950 2484 
Q 2950 2769 2794 2926 
Q 2638 3084 2363 3084 
Q 1938 3084 1609 2770 
Q 1281 2456 1184 1953 
L 800 0 
L 225 0 
L 909 3500 
L 1484 3500 
L 1375 2956 
Q 1609 3263 1923 3423 
Q 2238 3584 2597 3584 
Q 2978 3584 3223 3384 
Q 3469 3184 3519 2828 
Q 3781 3197 4126 3390 
Q 4472 3584 4856 3584 
Q 5306 3584 5551 3325 
Q 5797 3066 5797 2591 
Q 5797 2488 5784 2364 
Q 5772 2241 5747 2113 
z
" transform="scale(0.015625)"/>
       <path id="DejaVuSans-Oblique-61" d="M 3438 1997 
L 3047 0 
L 2472 0 
L 2578 531 
Q 2325 219 2001 64 
Q 1678 -91 1281 -91 
Q 834 -91 548 182 
Q 263 456 263 884 
Q 263 1497 752 1853 
Q 1241 2209 2100 2209 
L 2900 2209 
L 2931 2363 
Q 2938 2388 2941 2417 
Q 2944 2447 2944 2509 
Q 2944 2788 2717 2942 
Q 2491 3097 2081 3097 
Q 1800 3097 1504 3025 
Q 1209 2953 897 2809 
L 997 3341 
Q 1322 3463 1633 3523 
Q 1944 3584 2234 3584 
Q 2853 3584 3176 3315 
Q 3500 3047 3500 2534 
Q 3500 2431 3484 2292 
Q 3469 2153 3438 1997 
z
M 2816 1759 
L 2241 1759 
Q 1534 1759 1195 1570 
Q 856 1381 856 984 
Q 856 709 1029 553 
Q 1203 397 1509 397 
Q 1978 397 2328 733 
Q 2678 1069 2791 1631 
L 2816 1759 
z
" transform="scale(0.015625)"/>
       <path id="DejaVuSans-Oblique-78" d="M 3841 3500 
L 2234 1784 
L 3219 0 
L 2559 0 
L 1819 1388 
L 531 0 
L -166 0 
L 1556 1844 
L 641 3500 
L 1300 3500 
L 1972 2234 
L 3144 3500 
L 3841 3500 
z
" transform="scale(0.015625)"/>
       <path id="DejaVuSans-29" d="M 513 4856 
L 1013 4856 
Q 1481 4119 1714 3412 
Q 1947 2706 1947 2009 
Q 1947 1309 1714 600 
Q 1481 -109 1013 -844 
L 513 -844 
Q 928 -128 1133 580 
Q 1338 1288 1338 2009 
Q 1338 2731 1133 3434 
Q 928 4138 513 4856 
z
" transform="scale(0.015625)"/>
      </defs>
      <use xlink:href="#DejaVuSans-Oblique-50" transform="translate(0 0.765625)"/>
      <use xlink:href="#DejaVuSans-Oblique-41" transform="translate(60.302734 0.765625)"/>
      <use xlink:href="#DejaVuSans-Oblique-43" transform="translate(128.710938 -15.640625) scale(0.7)"/>
      <use xlink:href="#DejaVuSans-2198" transform="translate(191.225586 -15.640625) scale(0.7)"/>
      <use xlink:href="#DejaVuSans-28" transform="translate(266.25 0.765625)"/>
      <use xlink:href="#DejaVuSans-Bold-78" transform="translate(305.263672 0.765625)"/>
      <use xlink:href="#DejaVuSans-30" transform="translate(370.722656 39.046875) scale(0.7)"/>
      <use xlink:href="#DejaVuSans-Oblique-6d" transform="translate(370.722656 -26.578125) scale(0.7)"/>
      <use xlink:href="#DejaVuSans-Oblique-61" transform="translate(438.911133 -26.578125) scale(0.7)"/>
      <use xlink:href="#DejaVuSans-Oblique-78" transform="translate(481.806641 -26.578125) scale(0.7)"/>
      <use xlink:href="#DejaVuSans-29" transform="translate(525.966797 0.765625)"/>
     </g>
    </g>
    <g id="line2d_51">
     <path d="M 412.2 83.54 
L 422.2 83.54 
L 432.2 83.54 
" style="fill: none; stroke-dasharray: 1.5,15; stroke-dashoffset: 0; stroke: #b8c348; stroke-width: 1.5"/>
     <g>
      <use xlink:href="#m7f9690cddb" x="422.2" y="83.54" style="fill: #b8c348; stroke: #b8c348; stroke-linejoin: miter"/>
     </g>
    </g>
    <g id="text_18">
     <!-- $PA_{C\searrow}(\mathbf{x}^0_{median})$ -->
     <g transform="translate(440.2 87.04) scale(0.1 -0.1)">
      <defs>
       <path id="DejaVuSans-Oblique-65" d="M 3078 2063 
Q 3088 2113 3092 2166 
Q 3097 2219 3097 2272 
Q 3097 2653 2873 2875 
Q 2650 3097 2266 3097 
Q 1838 3097 1509 2826 
Q 1181 2556 1013 2059 
L 3078 2063 
z
M 3578 1613 
L 903 1613 
Q 884 1494 878 1425 
Q 872 1356 872 1306 
Q 872 872 1139 634 
Q 1406 397 1894 397 
Q 2269 397 2603 481 
Q 2938 566 3225 728 
L 3116 159 
Q 2806 34 2476 -28 
Q 2147 -91 1806 -91 
Q 1078 -91 686 257 
Q 294 606 294 1247 
Q 294 1794 489 2264 
Q 684 2734 1063 3103 
Q 1306 3334 1642 3459 
Q 1978 3584 2356 3584 
Q 2950 3584 3301 3228 
Q 3653 2872 3653 2272 
Q 3653 2128 3634 1964 
Q 3616 1800 3578 1613 
z
" transform="scale(0.015625)"/>
       <path id="DejaVuSans-Oblique-64" d="M 2675 525 
Q 2444 222 2128 65 
Q 1813 -91 1428 -91 
Q 903 -91 598 267 
Q 294 625 294 1247 
Q 294 1766 478 2236 
Q 663 2706 1013 3078 
Q 1244 3325 1534 3454 
Q 1825 3584 2144 3584 
Q 2481 3584 2739 3421 
Q 2997 3259 3138 2956 
L 3513 4863 
L 4091 4863 
L 3144 0 
L 2566 0 
L 2675 525 
z
M 891 1350 
Q 891 897 1095 644 
Q 1300 391 1663 391 
Q 1931 391 2161 520 
Q 2391 650 2566 903 
Q 2750 1166 2856 1509 
Q 2963 1853 2963 2188 
Q 2963 2622 2758 2865 
Q 2553 3109 2194 3109 
Q 1922 3109 1687 2981 
Q 1453 2853 1288 2613 
Q 1106 2353 998 2009 
Q 891 1666 891 1350 
z
" transform="scale(0.015625)"/>
       <path id="DejaVuSans-Oblique-69" d="M 1172 4863 
L 1747 4863 
L 1606 4134 
L 1031 4134 
L 1172 4863 
z
M 909 3500 
L 1484 3500 
L 800 0 
L 225 0 
L 909 3500 
z
" transform="scale(0.015625)"/>
       <path id="DejaVuSans-Oblique-6e" d="M 3566 2113 
L 3156 0 
L 2578 0 
L 2988 2091 
Q 3016 2238 3031 2350 
Q 3047 2463 3047 2528 
Q 3047 2791 2881 2937 
Q 2716 3084 2419 3084 
Q 1956 3084 1622 2776 
Q 1288 2469 1184 1941 
L 800 0 
L 225 0 
L 903 3500 
L 1478 3500 
L 1363 2950 
Q 1603 3253 1940 3418 
Q 2278 3584 2650 3584 
Q 3113 3584 3367 3334 
Q 3622 3084 3622 2631 
Q 3622 2519 3608 2391 
Q 3594 2263 3566 2113 
z
" transform="scale(0.015625)"/>
      </defs>
      <use xlink:href="#DejaVuSans-Oblique-50" transform="translate(0 0.70625)"/>
      <use xlink:href="#DejaVuSans-Oblique-41" transform="translate(60.302734 0.70625)"/>
      <use xlink:href="#DejaVuSans-Oblique-43" transform="translate(128.710938 -15.7) scale(0.7)"/>
      <use xlink:href="#DejaVuSans-2198" transform="translate(191.225586 -15.7) scale(0.7)"/>
      <use xlink:href="#DejaVuSans-28" transform="translate(266.25 0.70625)"/>
      <use xlink:href="#DejaVuSans-Bold-78" transform="translate(305.263672 0.70625)"/>
      <use xlink:href="#DejaVuSans-30" transform="translate(370.722656 40.046875) scale(0.7)"/>
      <use xlink:href="#DejaVuSans-Oblique-6d" transform="translate(370.722656 -26.6375) scale(0.7)"/>
      <use xlink:href="#DejaVuSans-Oblique-65" transform="translate(438.911133 -26.6375) scale(0.7)"/>
      <use xlink:href="#DejaVuSans-Oblique-64" transform="translate(481.977539 -26.6375) scale(0.7)"/>
      <use xlink:href="#DejaVuSans-Oblique-69" transform="translate(526.411133 -26.6375) scale(0.7)"/>
      <use xlink:href="#DejaVuSans-Oblique-61" transform="translate(545.859375 -26.6375) scale(0.7)"/>
      <use xlink:href="#DejaVuSans-Oblique-6e" transform="translate(588.754883 -26.6375) scale(0.7)"/>
      <use xlink:href="#DejaVuSans-29" transform="translate(635.854492 0.70625)"/>
     </g>
    </g>
    <g id="line2d_52">
     <path d="M 412.2 100.64 
L 422.2 100.64 
L 432.2 100.64 
" style="fill: none; stroke-dasharray: 7.5,15; stroke-dashoffset: 0; stroke: #bec291; stroke-width: 1.5"/>
     <g>
      <use xlink:href="#mc0457b0203" x="422.2" y="100.64" style="fill: #bec291; stroke: #bec291; stroke-linejoin: miter"/>
     </g>
    </g>
    <g id="text_19">
     <!-- $PA_{C\searrow}(\mathbf{x}^0_{min})$ -->
     <g transform="translate(440.2 104.14) scale(0.1 -0.1)">
      <use xlink:href="#DejaVuSans-Oblique-50" transform="translate(0 0.70625)"/>
      <use xlink:href="#DejaVuSans-Oblique-41" transform="translate(60.302734 0.70625)"/>
      <use xlink:href="#DejaVuSans-Oblique-43" transform="translate(128.710938 -15.7) scale(0.7)"/>
      <use xlink:href="#DejaVuSans-2198" transform="translate(191.225586 -15.7) scale(0.7)"/>
      <use xlink:href="#DejaVuSans-28" transform="translate(266.25 0.70625)"/>
      <use xlink:href="#DejaVuSans-Bold-78" transform="translate(305.263672 0.70625)"/>
      <use xlink:href="#DejaVuSans-30" transform="translate(370.722656 40.046875) scale(0.7)"/>
      <use xlink:href="#DejaVuSans-Oblique-6d" transform="translate(370.722656 -26.6375) scale(0.7)"/>
      <use xlink:href="#DejaVuSans-Oblique-69" transform="translate(438.911133 -26.6375) scale(0.7)"/>
      <use xlink:href="#DejaVuSans-Oblique-6e" transform="translate(458.359375 -26.6375) scale(0.7)"/>
      <use xlink:href="#DejaVuSans-29" transform="translate(505.458984 0.70625)"/>
     </g>
    </g>
    <g id="line2d_53">
     <path d="M 412.2 117.54 
L 422.2 117.54 
L 432.2 117.54 
" style="fill: none; stroke: #f119c3; stroke-width: 1.5; stroke-linecap: square"/>
     <g>
      <use xlink:href="#m1e1bfd1c19" x="422.2" y="117.54" style="fill: #f119c3; stroke: #f119c3; stroke-linejoin: miter"/>
     </g>
    </g>
    <g id="text_20">
     <!-- $PA_{C\nearrow}(\mathbf{x}^0_{max})$ -->
     <g transform="translate(440.2 121.04) scale(0.1 -0.1)">
      <defs>
       <path id="DejaVuSans-2197" d="M 4300 3759 
L 4497 3563 
L 4497 1825 
L 3969 1825 
L 3969 2856 
L 1275 163 
L 900 538 
L 3594 3231 
L 2563 3231 
L 2563 3759 
L 4300 3759 
z
" transform="scale(0.015625)"/>
      </defs>
      <use xlink:href="#DejaVuSans-Oblique-50" transform="translate(0 0.765625)"/>
      <use xlink:href="#DejaVuSans-Oblique-41" transform="translate(60.302734 0.765625)"/>
      <use xlink:href="#DejaVuSans-Oblique-43" transform="translate(128.710938 -15.640625) scale(0.7)"/>
      <use xlink:href="#DejaVuSans-2197" transform="translate(191.225586 -15.640625) scale(0.7)"/>
      <use xlink:href="#DejaVuSans-28" transform="translate(266.25 0.765625)"/>
      <use xlink:href="#DejaVuSans-Bold-78" transform="translate(305.263672 0.765625)"/>
      <use xlink:href="#DejaVuSans-30" transform="translate(370.722656 39.046875) scale(0.7)"/>
      <use xlink:href="#DejaVuSans-Oblique-6d" transform="translate(370.722656 -26.578125) scale(0.7)"/>
      <use xlink:href="#DejaVuSans-Oblique-61" transform="translate(438.911133 -26.578125) scale(0.7)"/>
      <use xlink:href="#DejaVuSans-Oblique-78" transform="translate(481.806641 -26.578125) scale(0.7)"/>
      <use xlink:href="#DejaVuSans-29" transform="translate(525.966797 0.765625)"/>
     </g>
    </g>
    <g id="line2d_54">
     <path d="M 412.2 134.64 
L 422.2 134.64 
L 432.2 134.64 
" style="fill: none; stroke-dasharray: 1.5,15; stroke-dashoffset: 0; stroke: #f190dd; stroke-width: 1.5"/>
     <g>
      <use xlink:href="#m82a3d7f0f0" x="422.2" y="134.64" style="fill: #f190dd; stroke: #f190dd; stroke-linejoin: miter"/>
     </g>
    </g>
    <g id="text_21">
     <!-- $PA_{C\nearrow}(\mathbf{x}^0_{median})$ -->
     <g transform="translate(440.2 138.14) scale(0.1 -0.1)">
      <use xlink:href="#DejaVuSans-Oblique-50" transform="translate(0 0.70625)"/>
      <use xlink:href="#DejaVuSans-Oblique-41" transform="translate(60.302734 0.70625)"/>
      <use xlink:href="#DejaVuSans-Oblique-43" transform="translate(128.710938 -15.7) scale(0.7)"/>
      <use xlink:href="#DejaVuSans-2197" transform="translate(191.225586 -15.7) scale(0.7)"/>
      <use xlink:href="#DejaVuSans-28" transform="translate(266.25 0.70625)"/>
      <use xlink:href="#DejaVuSans-Bold-78" transform="translate(305.263672 0.70625)"/>
      <use xlink:href="#DejaVuSans-30" transform="translate(370.722656 40.046875) scale(0.7)"/>
      <use xlink:href="#DejaVuSans-Oblique-6d" transform="translate(370.722656 -26.6375) scale(0.7)"/>
      <use xlink:href="#DejaVuSans-Oblique-65" transform="translate(438.911133 -26.6375) scale(0.7)"/>
      <use xlink:href="#DejaVuSans-Oblique-64" transform="translate(481.977539 -26.6375) scale(0.7)"/>
      <use xlink:href="#DejaVuSans-Oblique-69" transform="translate(526.411133 -26.6375) scale(0.7)"/>
      <use xlink:href="#DejaVuSans-Oblique-61" transform="translate(545.859375 -26.6375) scale(0.7)"/>
      <use xlink:href="#DejaVuSans-Oblique-6e" transform="translate(588.754883 -26.6375) scale(0.7)"/>
      <use xlink:href="#DejaVuSans-29" transform="translate(635.854492 0.70625)"/>
     </g>
    </g>
    <g id="line2d_55">
     <path d="M 412.2 151.74 
L 422.2 151.74 
L 432.2 151.74 
" style="fill: none; stroke-dasharray: 7.5,15; stroke-dashoffset: 0; stroke: #ecc0e3; stroke-width: 1.5"/>
     <g>
      <use xlink:href="#m1b372a47e0" x="422.2" y="151.74" style="fill: #ecc0e3; stroke: #ecc0e3; stroke-linejoin: miter"/>
     </g>
    </g>
    <g id="text_22">
     <!-- $PA_{C\nearrow}(\mathbf{x}^0_{min})$ -->
     <g transform="translate(440.2 155.24) scale(0.1 -0.1)">
      <use xlink:href="#DejaVuSans-Oblique-50" transform="translate(0 0.70625)"/>
      <use xlink:href="#DejaVuSans-Oblique-41" transform="translate(60.302734 0.70625)"/>
      <use xlink:href="#DejaVuSans-Oblique-43" transform="translate(128.710938 -15.7) scale(0.7)"/>
      <use xlink:href="#DejaVuSans-2197" transform="translate(191.225586 -15.7) scale(0.7)"/>
      <use xlink:href="#DejaVuSans-28" transform="translate(266.25 0.70625)"/>
      <use xlink:href="#DejaVuSans-Bold-78" transform="translate(305.263672 0.70625)"/>
      <use xlink:href="#DejaVuSans-30" transform="translate(370.722656 40.046875) scale(0.7)"/>
      <use xlink:href="#DejaVuSans-Oblique-6d" transform="translate(370.722656 -26.6375) scale(0.7)"/>
      <use xlink:href="#DejaVuSans-Oblique-69" transform="translate(438.911133 -26.6375) scale(0.7)"/>
      <use xlink:href="#DejaVuSans-Oblique-6e" transform="translate(458.359375 -26.6375) scale(0.7)"/>
      <use xlink:href="#DejaVuSans-29" transform="translate(505.458984 0.70625)"/>
     </g>
    </g>
    <g id="line2d_56">
     <path d="M 412.2 168.64 
L 422.2 168.64 
L 432.2 168.64 
" style="fill: none; stroke: #0d5915; stroke-width: 1.5; stroke-linecap: square"/>
     <g>
      <use xlink:href="#m048c26c5c3" x="422.2" y="168.64" style="fill: #0d5915; stroke: #0d5915"/>
     </g>
    </g>
    <g id="text_23">
     <!-- $IPDD(\mathbf{x}^0_{max})$ -->
     <g transform="translate(440.2 172.14) scale(0.1 -0.1)">
      <defs>
       <path id="DejaVuSans-Oblique-49" d="M 1081 4666 
L 1716 4666 
L 806 0 
L 172 0 
L 1081 4666 
z
" transform="scale(0.015625)"/>
       <path id="DejaVuSans-Oblique-44" d="M 1081 4666 
L 2438 4666 
Q 3519 4666 4070 4208 
Q 4622 3750 4622 2847 
Q 4622 2250 4412 1698 
Q 4203 1147 3834 769 
Q 3463 381 2891 190 
Q 2319 0 1538 0 
L 172 0 
L 1081 4666 
z
M 1613 4147 
L 909 519 
L 1734 519 
Q 2794 519 3375 1128 
Q 3956 1738 3956 2847 
Q 3956 3519 3581 3833 
Q 3206 4147 2406 4147 
L 1613 4147 
z
" transform="scale(0.015625)"/>
      </defs>
      <use xlink:href="#DejaVuSans-Oblique-49" transform="translate(0 0.765625)"/>
      <use xlink:href="#DejaVuSans-Oblique-50" transform="translate(29.492188 0.765625)"/>
      <use xlink:href="#DejaVuSans-Oblique-44" transform="translate(89.794922 0.765625)"/>
      <use xlink:href="#DejaVuSans-Oblique-44" transform="translate(166.796875 0.765625)"/>
      <use xlink:href="#DejaVuSans-28" transform="translate(243.798828 0.765625)"/>
      <use xlink:href="#DejaVuSans-Bold-78" transform="translate(282.8125 0.765625)"/>
      <use xlink:href="#DejaVuSans-30" transform="translate(348.271484 39.046875) scale(0.7)"/>
      <use xlink:href="#DejaVuSans-Oblique-6d" transform="translate(348.271484 -26.578125) scale(0.7)"/>
      <use xlink:href="#DejaVuSans-Oblique-61" transform="translate(416.459961 -26.578125) scale(0.7)"/>
      <use xlink:href="#DejaVuSans-Oblique-78" transform="translate(459.355469 -26.578125) scale(0.7)"/>
      <use xlink:href="#DejaVuSans-29" transform="translate(503.515625 0.765625)"/>
     </g>
    </g>
    <g id="line2d_57">
     <path d="M 412.2 185.74 
L 422.2 185.74 
L 432.2 185.74 
" style="fill: none; stroke-dasharray: 1.5,15; stroke-dashoffset: 0; stroke: #6ec977; stroke-width: 1.5"/>
     <g>
      <use xlink:href="#m65bd375717" x="422.2" y="185.74" style="fill: #6ec977; stroke: #6ec977"/>
     </g>
    </g>
    <g id="text_24">
     <!-- $IPDD(\mathbf{x}^0_{median})$ -->
     <g transform="translate(440.2 189.24) scale(0.1 -0.1)">
      <use xlink:href="#DejaVuSans-Oblique-49" transform="translate(0 0.70625)"/>
      <use xlink:href="#DejaVuSans-Oblique-50" transform="translate(29.492188 0.70625)"/>
      <use xlink:href="#DejaVuSans-Oblique-44" transform="translate(89.794922 0.70625)"/>
      <use xlink:href="#DejaVuSans-Oblique-44" transform="translate(166.796875 0.70625)"/>
      <use xlink:href="#DejaVuSans-28" transform="translate(243.798828 0.70625)"/>
      <use xlink:href="#DejaVuSans-Bold-78" transform="translate(282.8125 0.70625)"/>
      <use xlink:href="#DejaVuSans-30" transform="translate(348.271484 40.046875) scale(0.7)"/>
      <use xlink:href="#DejaVuSans-Oblique-6d" transform="translate(348.271484 -26.6375) scale(0.7)"/>
      <use xlink:href="#DejaVuSans-Oblique-65" transform="translate(416.459961 -26.6375) scale(0.7)"/>
      <use xlink:href="#DejaVuSans-Oblique-64" transform="translate(459.526367 -26.6375) scale(0.7)"/>
      <use xlink:href="#DejaVuSans-Oblique-69" transform="translate(503.959961 -26.6375) scale(0.7)"/>
      <use xlink:href="#DejaVuSans-Oblique-61" transform="translate(523.408203 -26.6375) scale(0.7)"/>
      <use xlink:href="#DejaVuSans-Oblique-6e" transform="translate(566.303711 -26.6375) scale(0.7)"/>
      <use xlink:href="#DejaVuSans-29" transform="translate(613.40332 0.70625)"/>
     </g>
    </g>
    <g id="line2d_58">
     <path d="M 412.2 202.84 
L 422.2 202.84 
L 432.2 202.84 
" style="fill: none; stroke-dasharray: 7.5,15; stroke-dashoffset: 0; stroke: #96f6a0; stroke-width: 1.5"/>
     <g>
      <use xlink:href="#me8d701a2c2" x="422.2" y="202.84" style="fill: #96f6a0; stroke: #96f6a0"/>
     </g>
    </g>
    <g id="text_25">
     <!-- $IPDD(\mathbf{x}^0_{min})$ -->
     <g transform="translate(440.2 206.34) scale(0.1 -0.1)">
      <use xlink:href="#DejaVuSans-Oblique-49" transform="translate(0 0.70625)"/>
      <use xlink:href="#DejaVuSans-Oblique-50" transform="translate(29.492188 0.70625)"/>
      <use xlink:href="#DejaVuSans-Oblique-44" transform="translate(89.794922 0.70625)"/>
      <use xlink:href="#DejaVuSans-Oblique-44" transform="translate(166.796875 0.70625)"/>
      <use xlink:href="#DejaVuSans-28" transform="translate(243.798828 0.70625)"/>
      <use xlink:href="#DejaVuSans-Bold-78" transform="translate(282.8125 0.70625)"/>
      <use xlink:href="#DejaVuSans-30" transform="translate(348.271484 40.046875) scale(0.7)"/>
      <use xlink:href="#DejaVuSans-Oblique-6d" transform="translate(348.271484 -26.6375) scale(0.7)"/>
      <use xlink:href="#DejaVuSans-Oblique-69" transform="translate(416.459961 -26.6375) scale(0.7)"/>
      <use xlink:href="#DejaVuSans-Oblique-6e" transform="translate(435.908203 -26.6375) scale(0.7)"/>
      <use xlink:href="#DejaVuSans-29" transform="translate(483.007812 0.70625)"/>
     </g>
    </g>
    <g id="line2d_59">
     <path d="M 412.2 219.74 
L 422.2 219.74 
L 432.2 219.74 
" style="fill: none; stroke: #e31d1d; stroke-width: 1.5; stroke-linecap: square"/>
     <g>
      <use xlink:href="#m2245102dba" x="422.2" y="219.74" style="fill: #e31d1d; stroke: #e31d1d"/>
     </g>
    </g>
    <g id="text_26">
     <!-- $GDPA(\mathbf{x}^0_{max})$ -->
     <g transform="translate(440.2 223.24) scale(0.1 -0.1)">
      <defs>
       <path id="DejaVuSans-Oblique-47" d="M 3494 697 
L 3738 1919 
L 2700 1919 
L 2797 2438 
L 4453 2438 
L 4050 384 
Q 3634 156 3143 32 
Q 2653 -91 2156 -91 
Q 1278 -91 783 396 
Q 288 884 288 1753 
Q 288 2475 589 3126 
Q 891 3778 1422 4213 
Q 1756 4484 2153 4617 
Q 2550 4750 3034 4750 
Q 3472 4750 3873 4639 
Q 4275 4528 4641 4306 
L 4513 3634 
Q 4231 3928 3853 4083 
Q 3475 4238 3047 4238 
Q 2550 4238 2172 4048 
Q 1794 3859 1497 3463 
Q 1244 3125 1098 2667 
Q 953 2209 953 1734 
Q 953 1081 1287 751 
Q 1622 422 2284 422 
Q 2616 422 2925 492 
Q 3234 563 3494 697 
z
" transform="scale(0.015625)"/>
      </defs>
      <use xlink:href="#DejaVuSans-Oblique-47" transform="translate(0 0.765625)"/>
      <use xlink:href="#DejaVuSans-Oblique-44" transform="translate(77.490234 0.765625)"/>
      <use xlink:href="#DejaVuSans-Oblique-50" transform="translate(154.492188 0.765625)"/>
      <use xlink:href="#DejaVuSans-Oblique-41" transform="translate(214.794922 0.765625)"/>
      <use xlink:href="#DejaVuSans-28" transform="translate(283.203125 0.765625)"/>
      <use xlink:href="#DejaVuSans-Bold-78" transform="translate(322.216797 0.765625)"/>
      <use xlink:href="#DejaVuSans-30" transform="translate(387.675781 39.046875) scale(0.7)"/>
      <use xlink:href="#DejaVuSans-Oblique-6d" transform="translate(387.675781 -26.578125) scale(0.7)"/>
      <use xlink:href="#DejaVuSans-Oblique-61" transform="translate(455.864258 -26.578125) scale(0.7)"/>
      <use xlink:href="#DejaVuSans-Oblique-78" transform="translate(498.759766 -26.578125) scale(0.7)"/>
      <use xlink:href="#DejaVuSans-29" transform="translate(542.919922 0.765625)"/>
     </g>
    </g>
    <g id="line2d_60">
     <path d="M 412.2 236.84 
L 422.2 236.84 
L 432.2 236.84 
" style="fill: none; stroke-dasharray: 1.5,15; stroke-dashoffset: 0; stroke: #df6f67; stroke-width: 1.5"/>
     <g>
      <use xlink:href="#m176a3e6f1d" x="422.2" y="236.84" style="fill: #df6f67; stroke: #df6f67"/>
     </g>
    </g>
    <g id="text_27">
     <!-- $GDPA(\mathbf{x}^0_{median})$ -->
     <g transform="translate(440.2 240.34) scale(0.1 -0.1)">
      <use xlink:href="#DejaVuSans-Oblique-47" transform="translate(0 0.70625)"/>
      <use xlink:href="#DejaVuSans-Oblique-44" transform="translate(77.490234 0.70625)"/>
      <use xlink:href="#DejaVuSans-Oblique-50" transform="translate(154.492188 0.70625)"/>
      <use xlink:href="#DejaVuSans-Oblique-41" transform="translate(214.794922 0.70625)"/>
      <use xlink:href="#DejaVuSans-28" transform="translate(283.203125 0.70625)"/>
      <use xlink:href="#DejaVuSans-Bold-78" transform="translate(322.216797 0.70625)"/>
      <use xlink:href="#DejaVuSans-30" transform="translate(387.675781 40.046875) scale(0.7)"/>
      <use xlink:href="#DejaVuSans-Oblique-6d" transform="translate(387.675781 -26.6375) scale(0.7)"/>
      <use xlink:href="#DejaVuSans-Oblique-65" transform="translate(455.864258 -26.6375) scale(0.7)"/>
      <use xlink:href="#DejaVuSans-Oblique-64" transform="translate(498.930664 -26.6375) scale(0.7)"/>
      <use xlink:href="#DejaVuSans-Oblique-69" transform="translate(543.364258 -26.6375) scale(0.7)"/>
      <use xlink:href="#DejaVuSans-Oblique-61" transform="translate(562.8125 -26.6375) scale(0.7)"/>
      <use xlink:href="#DejaVuSans-Oblique-6e" transform="translate(605.708008 -26.6375) scale(0.7)"/>
      <use xlink:href="#DejaVuSans-29" transform="translate(652.807617 0.70625)"/>
     </g>
    </g>
    <g id="line2d_61">
     <path d="M 412.2 253.94 
L 422.2 253.94 
L 432.2 253.94 
" style="fill: none; stroke-dasharray: 7.5,15; stroke-dashoffset: 0; stroke: #dea39f; stroke-width: 1.5"/>
     <g>
      <use xlink:href="#m8f07f6f5e0" x="422.2" y="253.94" style="fill: #dea39f; stroke: #dea39f"/>
     </g>
    </g>
    <g id="text_28">
     <!-- $GDPA(\mathbf{x}^0_{min})$ -->
     <g transform="translate(440.2 257.44) scale(0.1 -0.1)">
      <use xlink:href="#DejaVuSans-Oblique-47" transform="translate(0 0.70625)"/>
      <use xlink:href="#DejaVuSans-Oblique-44" transform="translate(77.490234 0.70625)"/>
      <use xlink:href="#DejaVuSans-Oblique-50" transform="translate(154.492188 0.70625)"/>
      <use xlink:href="#DejaVuSans-Oblique-41" transform="translate(214.794922 0.70625)"/>
      <use xlink:href="#DejaVuSans-28" transform="translate(283.203125 0.70625)"/>
      <use xlink:href="#DejaVuSans-Bold-78" transform="translate(322.216797 0.70625)"/>
      <use xlink:href="#DejaVuSans-30" transform="translate(387.675781 40.046875) scale(0.7)"/>
      <use xlink:href="#DejaVuSans-Oblique-6d" transform="translate(387.675781 -26.6375) scale(0.7)"/>
      <use xlink:href="#DejaVuSans-Oblique-69" transform="translate(455.864258 -26.6375) scale(0.7)"/>
      <use xlink:href="#DejaVuSans-Oblique-6e" transform="translate(475.3125 -26.6375) scale(0.7)"/>
      <use xlink:href="#DejaVuSans-29" transform="translate(522.412109 0.70625)"/>
     </g>
    </g>
    <g id="line2d_62">
     <path d="M 412.2 270.84 
L 422.2 270.84 
L 432.2 270.84 
" style="fill: none; stroke: #1c24dc; stroke-width: 1.5; stroke-linecap: square"/>
     <g>
      <use xlink:href="#m59c0c26265" x="422.2" y="270.84" style="fill: #1c24dc; stroke: #1c24dc; stroke-linejoin: bevel"/>
     </g>
    </g>
    <g id="text_29">
     <!-- $PGA(\mathbf{x}^0_{max})$ -->
     <g transform="translate(440.2 274.34) scale(0.1 -0.1)">
      <use xlink:href="#DejaVuSans-Oblique-50" transform="translate(0 0.765625)"/>
      <use xlink:href="#DejaVuSans-Oblique-47" transform="translate(60.302734 0.765625)"/>
      <use xlink:href="#DejaVuSans-Oblique-41" transform="translate(137.792969 0.765625)"/>
      <use xlink:href="#DejaVuSans-28" transform="translate(206.201172 0.765625)"/>
      <use xlink:href="#DejaVuSans-Bold-78" transform="translate(245.214844 0.765625)"/>
      <use xlink:href="#DejaVuSans-30" transform="translate(310.673828 39.046875) scale(0.7)"/>
      <use xlink:href="#DejaVuSans-Oblique-6d" transform="translate(310.673828 -26.578125) scale(0.7)"/>
      <use xlink:href="#DejaVuSans-Oblique-61" transform="translate(378.862305 -26.578125) scale(0.7)"/>
      <use xlink:href="#DejaVuSans-Oblique-78" transform="translate(421.757812 -26.578125) scale(0.7)"/>
      <use xlink:href="#DejaVuSans-29" transform="translate(465.917969 0.765625)"/>
     </g>
    </g>
    <g id="line2d_63">
     <path d="M 412.2 287.94 
L 422.2 287.94 
L 432.2 287.94 
" style="fill: none; stroke-dasharray: 1.5,15; stroke-dashoffset: 0; stroke: #595fdc; stroke-width: 1.5"/>
     <g>
      <use xlink:href="#mbe86586cbd" x="422.2" y="287.94" style="fill: #595fdc; stroke: #595fdc; stroke-linejoin: bevel"/>
     </g>
    </g>
    <g id="text_30">
     <!-- $PGA(\mathbf{x}^0_{median})$ -->
     <g transform="translate(440.2 291.44) scale(0.1 -0.1)">
      <use xlink:href="#DejaVuSans-Oblique-50" transform="translate(0 0.70625)"/>
      <use xlink:href="#DejaVuSans-Oblique-47" transform="translate(60.302734 0.70625)"/>
      <use xlink:href="#DejaVuSans-Oblique-41" transform="translate(137.792969 0.70625)"/>
      <use xlink:href="#DejaVuSans-28" transform="translate(206.201172 0.70625)"/>
      <use xlink:href="#DejaVuSans-Bold-78" transform="translate(245.214844 0.70625)"/>
      <use xlink:href="#DejaVuSans-30" transform="translate(310.673828 40.046875) scale(0.7)"/>
      <use xlink:href="#DejaVuSans-Oblique-6d" transform="translate(310.673828 -26.6375) scale(0.7)"/>
      <use xlink:href="#DejaVuSans-Oblique-65" transform="translate(378.862305 -26.6375) scale(0.7)"/>
      <use xlink:href="#DejaVuSans-Oblique-64" transform="translate(421.928711 -26.6375) scale(0.7)"/>
      <use xlink:href="#DejaVuSans-Oblique-69" transform="translate(466.362305 -26.6375) scale(0.7)"/>
      <use xlink:href="#DejaVuSans-Oblique-61" transform="translate(485.810547 -26.6375) scale(0.7)"/>
      <use xlink:href="#DejaVuSans-Oblique-6e" transform="translate(528.706055 -26.6375) scale(0.7)"/>
      <use xlink:href="#DejaVuSans-29" transform="translate(575.805664 0.70625)"/>
     </g>
    </g>
    <g id="line2d_64">
     <path d="M 412.2 305.04 
L 422.2 305.04 
L 432.2 305.04 
" style="fill: none; stroke-dasharray: 7.5,15; stroke-dashoffset: 0; stroke: #9598dc; stroke-width: 1.5"/>
     <g>
      <use xlink:href="#m1d0a35c2f2" x="422.2" y="305.04" style="fill: #9598dc; stroke: #9598dc; stroke-linejoin: bevel"/>
     </g>
    </g>
    <g id="text_31">
     <!-- $PGA(\mathbf{x}^0_{min})$ -->
     <g transform="translate(440.2 308.54) scale(0.1 -0.1)">
      <use xlink:href="#DejaVuSans-Oblique-50" transform="translate(0 0.70625)"/>
      <use xlink:href="#DejaVuSans-Oblique-47" transform="translate(60.302734 0.70625)"/>
      <use xlink:href="#DejaVuSans-Oblique-41" transform="translate(137.792969 0.70625)"/>
      <use xlink:href="#DejaVuSans-28" transform="translate(206.201172 0.70625)"/>
      <use xlink:href="#DejaVuSans-Bold-78" transform="translate(245.214844 0.70625)"/>
      <use xlink:href="#DejaVuSans-30" transform="translate(310.673828 40.046875) scale(0.7)"/>
      <use xlink:href="#DejaVuSans-Oblique-6d" transform="translate(310.673828 -26.6375) scale(0.7)"/>
      <use xlink:href="#DejaVuSans-Oblique-69" transform="translate(378.862305 -26.6375) scale(0.7)"/>
      <use xlink:href="#DejaVuSans-Oblique-6e" transform="translate(398.310547 -26.6375) scale(0.7)"/>
      <use xlink:href="#DejaVuSans-29" transform="translate(445.410156 0.70625)"/>
     </g>
    </g>
   </g>
  </g>
 </g>
 <defs>
  <clipPath id="p56878a8a86">
   <rect x="72" y="51.84" width="446.4" height="332.64"/>
  </clipPath>
 </defs>
</svg>
