<?xml version="1.0" encoding="utf-8" standalone="no"?>
<!DOCTYPE svg PUBLIC "-//W3C//DTD SVG 1.1//EN"
  "http://www.w3.org/Graphics/SVG/1.1/DTD/svg11.dtd">
<svg xmlns:xlink="http://www.w3.org/1999/xlink" width="576pt" height="432pt" viewBox="0 0 576 432" xmlns="http://www.w3.org/2000/svg" version="1.1">
 <metadata>
  <rdf:RDF xmlns:dc="http://purl.org/dc/elements/1.1/" xmlns:cc="http://creativecommons.org/ns#" xmlns:rdf="http://www.w3.org/1999/02/22-rdf-syntax-ns#">
   <cc:Work>
    <dc:type rdf:resource="http://purl.org/dc/dcmitype/StillImage"/>
    <dc:date>2025-05-10T17:30:18.220555</dc:date>
    <dc:format>image/svg+xml</dc:format>
    <dc:creator>
     <cc:Agent>
      <dc:title>Matplotlib v3.7.1, https://matplotlib.org/</dc:title>
     </cc:Agent>
    </dc:creator>
   </cc:Work>
  </rdf:RDF>
 </metadata>
 <defs>
  <style type="text/css">*{stroke-linejoin: round; stroke-linecap: butt}</style>
 </defs>
 <g id="figure_1">
  <g id="patch_1">
   <path d="M 0 432 
L 576 432 
L 576 0 
L 0 0 
z
" style="fill: #ffffff"/>
  </g>
  <g id="axes_1">
   <g id="patch_2">
    <path d="M 72 384.48 
L 518.4 384.48 
L 518.4 51.84 
L 72 51.84 
z
" style="fill: #ffffff"/>
   </g>
   <g id="matplotlib.axis_1">
    <g id="xtick_1">
     <g id="line2d_1">
      <path d="M 72 384.48 
L 72 51.84 
" clip-path="url(#p92c67b8d82)" style="fill: none; stroke: #b0b0b0; stroke-width: 0.8; stroke-linecap: square"/>
     </g>
     <g id="line2d_2">
      <defs>
       <path id="mfea17c59ab" d="M 0 0 
L 0 3.5 
" style="stroke: #000000; stroke-width: 0.8"/>
      </defs>
      <g>
       <use xlink:href="#mfea17c59ab" x="72" y="384.48" style="stroke: #000000; stroke-width: 0.8"/>
      </g>
     </g>
     <g id="text_1">
      <!-- 0 -->
      <g transform="translate(67.54625 402.117813) scale(0.14 -0.14)">
       <defs>
        <path id="DejaVuSans-30" d="M 2034 4250 
Q 1547 4250 1301 3770 
Q 1056 3291 1056 2328 
Q 1056 1369 1301 889 
Q 1547 409 2034 409 
Q 2525 409 2770 889 
Q 3016 1369 3016 2328 
Q 3016 3291 2770 3770 
Q 2525 4250 2034 4250 
z
M 2034 4750 
Q 2819 4750 3233 4129 
Q 3647 3509 3647 2328 
Q 3647 1150 3233 529 
Q 2819 -91 2034 -91 
Q 1250 -91 836 529 
Q 422 1150 422 2328 
Q 422 3509 836 4129 
Q 1250 4750 2034 4750 
z
" transform="scale(0.015625)"/>
       </defs>
       <use xlink:href="#DejaVuSans-30"/>
      </g>
     </g>
    </g>
    <g id="xtick_2">
     <g id="line2d_3">
      <path d="M 161.28 384.48 
L 161.28 51.84 
" clip-path="url(#p92c67b8d82)" style="fill: none; stroke: #b0b0b0; stroke-width: 0.8; stroke-linecap: square"/>
     </g>
     <g id="line2d_4">
      <g>
       <use xlink:href="#mfea17c59ab" x="161.28" y="384.48" style="stroke: #000000; stroke-width: 0.8"/>
      </g>
     </g>
     <g id="text_2">
      <!-- 100 -->
      <g transform="translate(147.91875 402.117813) scale(0.14 -0.14)">
       <defs>
        <path id="DejaVuSans-31" d="M 794 531 
L 1825 531 
L 1825 4091 
L 703 3866 
L 703 4441 
L 1819 4666 
L 2450 4666 
L 2450 531 
L 3481 531 
L 3481 0 
L 794 0 
L 794 531 
z
" transform="scale(0.015625)"/>
       </defs>
       <use xlink:href="#DejaVuSans-31"/>
       <use xlink:href="#DejaVuSans-30" x="63.623047"/>
       <use xlink:href="#DejaVuSans-30" x="127.246094"/>
      </g>
     </g>
    </g>
    <g id="xtick_3">
     <g id="line2d_5">
      <path d="M 250.56 384.48 
L 250.56 51.84 
" clip-path="url(#p92c67b8d82)" style="fill: none; stroke: #b0b0b0; stroke-width: 0.8; stroke-linecap: square"/>
     </g>
     <g id="line2d_6">
      <g>
       <use xlink:href="#mfea17c59ab" x="250.56" y="384.48" style="stroke: #000000; stroke-width: 0.8"/>
      </g>
     </g>
     <g id="text_3">
      <!-- 200 -->
      <g transform="translate(237.19875 402.117813) scale(0.14 -0.14)">
       <defs>
        <path id="DejaVuSans-32" d="M 1228 531 
L 3431 531 
L 3431 0 
L 469 0 
L 469 531 
Q 828 903 1448 1529 
Q 2069 2156 2228 2338 
Q 2531 2678 2651 2914 
Q 2772 3150 2772 3378 
Q 2772 3750 2511 3984 
Q 2250 4219 1831 4219 
Q 1534 4219 1204 4116 
Q 875 4013 500 3803 
L 500 4441 
Q 881 4594 1212 4672 
Q 1544 4750 1819 4750 
Q 2544 4750 2975 4387 
Q 3406 4025 3406 3419 
Q 3406 3131 3298 2873 
Q 3191 2616 2906 2266 
Q 2828 2175 2409 1742 
Q 1991 1309 1228 531 
z
" transform="scale(0.015625)"/>
       </defs>
       <use xlink:href="#DejaVuSans-32"/>
       <use xlink:href="#DejaVuSans-30" x="63.623047"/>
       <use xlink:href="#DejaVuSans-30" x="127.246094"/>
      </g>
     </g>
    </g>
    <g id="xtick_4">
     <g id="line2d_7">
      <path d="M 339.84 384.48 
L 339.84 51.84 
" clip-path="url(#p92c67b8d82)" style="fill: none; stroke: #b0b0b0; stroke-width: 0.8; stroke-linecap: square"/>
     </g>
     <g id="line2d_8">
      <g>
       <use xlink:href="#mfea17c59ab" x="339.84" y="384.48" style="stroke: #000000; stroke-width: 0.8"/>
      </g>
     </g>
     <g id="text_4">
      <!-- 300 -->
      <g transform="translate(326.47875 402.117813) scale(0.14 -0.14)">
       <defs>
        <path id="DejaVuSans-33" d="M 2597 2516 
Q 3050 2419 3304 2112 
Q 3559 1806 3559 1356 
Q 3559 666 3084 287 
Q 2609 -91 1734 -91 
Q 1441 -91 1130 -33 
Q 819 25 488 141 
L 488 750 
Q 750 597 1062 519 
Q 1375 441 1716 441 
Q 2309 441 2620 675 
Q 2931 909 2931 1356 
Q 2931 1769 2642 2001 
Q 2353 2234 1838 2234 
L 1294 2234 
L 1294 2753 
L 1863 2753 
Q 2328 2753 2575 2939 
Q 2822 3125 2822 3475 
Q 2822 3834 2567 4026 
Q 2313 4219 1838 4219 
Q 1578 4219 1281 4162 
Q 984 4106 628 3988 
L 628 4550 
Q 988 4650 1302 4700 
Q 1616 4750 1894 4750 
Q 2613 4750 3031 4423 
Q 3450 4097 3450 3541 
Q 3450 3153 3228 2886 
Q 3006 2619 2597 2516 
z
" transform="scale(0.015625)"/>
       </defs>
       <use xlink:href="#DejaVuSans-33"/>
       <use xlink:href="#DejaVuSans-30" x="63.623047"/>
       <use xlink:href="#DejaVuSans-30" x="127.246094"/>
      </g>
     </g>
    </g>
    <g id="xtick_5">
     <g id="line2d_9">
      <path d="M 429.12 384.48 
L 429.12 51.84 
" clip-path="url(#p92c67b8d82)" style="fill: none; stroke: #b0b0b0; stroke-width: 0.8; stroke-linecap: square"/>
     </g>
     <g id="line2d_10">
      <g>
       <use xlink:href="#mfea17c59ab" x="429.12" y="384.48" style="stroke: #000000; stroke-width: 0.8"/>
      </g>
     </g>
     <g id="text_5">
      <!-- 400 -->
      <g transform="translate(415.75875 402.117813) scale(0.14 -0.14)">
       <defs>
        <path id="DejaVuSans-34" d="M 2419 4116 
L 825 1625 
L 2419 1625 
L 2419 4116 
z
M 2253 4666 
L 3047 4666 
L 3047 1625 
L 3713 1625 
L 3713 1100 
L 3047 1100 
L 3047 0 
L 2419 0 
L 2419 1100 
L 313 1100 
L 313 1709 
L 2253 4666 
z
" transform="scale(0.015625)"/>
       </defs>
       <use xlink:href="#DejaVuSans-34"/>
       <use xlink:href="#DejaVuSans-30" x="63.623047"/>
       <use xlink:href="#DejaVuSans-30" x="127.246094"/>
      </g>
     </g>
    </g>
    <g id="xtick_6">
     <g id="line2d_11">
      <path d="M 518.4 384.48 
L 518.4 51.84 
" clip-path="url(#p92c67b8d82)" style="fill: none; stroke: #b0b0b0; stroke-width: 0.8; stroke-linecap: square"/>
     </g>
     <g id="line2d_12">
      <g>
       <use xlink:href="#mfea17c59ab" x="518.4" y="384.48" style="stroke: #000000; stroke-width: 0.8"/>
      </g>
     </g>
     <g id="text_6">
      <!-- 500 -->
      <g transform="translate(505.03875 402.117813) scale(0.14 -0.14)">
       <defs>
        <path id="DejaVuSans-35" d="M 691 4666 
L 3169 4666 
L 3169 4134 
L 1269 4134 
L 1269 2991 
Q 1406 3038 1543 3061 
Q 1681 3084 1819 3084 
Q 2600 3084 3056 2656 
Q 3513 2228 3513 1497 
Q 3513 744 3044 326 
Q 2575 -91 1722 -91 
Q 1428 -91 1123 -41 
Q 819 9 494 109 
L 494 744 
Q 775 591 1075 516 
Q 1375 441 1709 441 
Q 2250 441 2565 725 
Q 2881 1009 2881 1497 
Q 2881 1984 2565 2268 
Q 2250 2553 1709 2553 
Q 1456 2553 1204 2497 
Q 953 2441 691 2322 
L 691 4666 
z
" transform="scale(0.015625)"/>
       </defs>
       <use xlink:href="#DejaVuSans-35"/>
       <use xlink:href="#DejaVuSans-30" x="63.623047"/>
       <use xlink:href="#DejaVuSans-30" x="127.246094"/>
      </g>
     </g>
    </g>
    <g id="text_7">
     <!-- Computational time [s] -->
     <g transform="translate(191.161406 422.706563) scale(0.18 -0.18)">
      <defs>
       <path id="DejaVuSans-43" d="M 4122 4306 
L 4122 3641 
Q 3803 3938 3442 4084 
Q 3081 4231 2675 4231 
Q 1875 4231 1450 3742 
Q 1025 3253 1025 2328 
Q 1025 1406 1450 917 
Q 1875 428 2675 428 
Q 3081 428 3442 575 
Q 3803 722 4122 1019 
L 4122 359 
Q 3791 134 3420 21 
Q 3050 -91 2638 -91 
Q 1578 -91 968 557 
Q 359 1206 359 2328 
Q 359 3453 968 4101 
Q 1578 4750 2638 4750 
Q 3056 4750 3426 4639 
Q 3797 4528 4122 4306 
z
" transform="scale(0.015625)"/>
       <path id="DejaVuSans-6f" d="M 1959 3097 
Q 1497 3097 1228 2736 
Q 959 2375 959 1747 
Q 959 1119 1226 758 
Q 1494 397 1959 397 
Q 2419 397 2687 759 
Q 2956 1122 2956 1747 
Q 2956 2369 2687 2733 
Q 2419 3097 1959 3097 
z
M 1959 3584 
Q 2709 3584 3137 3096 
Q 3566 2609 3566 1747 
Q 3566 888 3137 398 
Q 2709 -91 1959 -91 
Q 1206 -91 779 398 
Q 353 888 353 1747 
Q 353 2609 779 3096 
Q 1206 3584 1959 3584 
z
" transform="scale(0.015625)"/>
       <path id="DejaVuSans-6d" d="M 3328 2828 
Q 3544 3216 3844 3400 
Q 4144 3584 4550 3584 
Q 5097 3584 5394 3201 
Q 5691 2819 5691 2113 
L 5691 0 
L 5113 0 
L 5113 2094 
Q 5113 2597 4934 2840 
Q 4756 3084 4391 3084 
Q 3944 3084 3684 2787 
Q 3425 2491 3425 1978 
L 3425 0 
L 2847 0 
L 2847 2094 
Q 2847 2600 2669 2842 
Q 2491 3084 2119 3084 
Q 1678 3084 1418 2786 
Q 1159 2488 1159 1978 
L 1159 0 
L 581 0 
L 581 3500 
L 1159 3500 
L 1159 2956 
Q 1356 3278 1631 3431 
Q 1906 3584 2284 3584 
Q 2666 3584 2933 3390 
Q 3200 3197 3328 2828 
z
" transform="scale(0.015625)"/>
       <path id="DejaVuSans-70" d="M 1159 525 
L 1159 -1331 
L 581 -1331 
L 581 3500 
L 1159 3500 
L 1159 2969 
Q 1341 3281 1617 3432 
Q 1894 3584 2278 3584 
Q 2916 3584 3314 3078 
Q 3713 2572 3713 1747 
Q 3713 922 3314 415 
Q 2916 -91 2278 -91 
Q 1894 -91 1617 61 
Q 1341 213 1159 525 
z
M 3116 1747 
Q 3116 2381 2855 2742 
Q 2594 3103 2138 3103 
Q 1681 3103 1420 2742 
Q 1159 2381 1159 1747 
Q 1159 1113 1420 752 
Q 1681 391 2138 391 
Q 2594 391 2855 752 
Q 3116 1113 3116 1747 
z
" transform="scale(0.015625)"/>
       <path id="DejaVuSans-75" d="M 544 1381 
L 544 3500 
L 1119 3500 
L 1119 1403 
Q 1119 906 1312 657 
Q 1506 409 1894 409 
Q 2359 409 2629 706 
Q 2900 1003 2900 1516 
L 2900 3500 
L 3475 3500 
L 3475 0 
L 2900 0 
L 2900 538 
Q 2691 219 2414 64 
Q 2138 -91 1772 -91 
Q 1169 -91 856 284 
Q 544 659 544 1381 
z
M 1991 3584 
L 1991 3584 
z
" transform="scale(0.015625)"/>
       <path id="DejaVuSans-74" d="M 1172 4494 
L 1172 3500 
L 2356 3500 
L 2356 3053 
L 1172 3053 
L 1172 1153 
Q 1172 725 1289 603 
Q 1406 481 1766 481 
L 2356 481 
L 2356 0 
L 1766 0 
Q 1100 0 847 248 
Q 594 497 594 1153 
L 594 3053 
L 172 3053 
L 172 3500 
L 594 3500 
L 594 4494 
L 1172 4494 
z
" transform="scale(0.015625)"/>
       <path id="DejaVuSans-61" d="M 2194 1759 
Q 1497 1759 1228 1600 
Q 959 1441 959 1056 
Q 959 750 1161 570 
Q 1363 391 1709 391 
Q 2188 391 2477 730 
Q 2766 1069 2766 1631 
L 2766 1759 
L 2194 1759 
z
M 3341 1997 
L 3341 0 
L 2766 0 
L 2766 531 
Q 2569 213 2275 61 
Q 1981 -91 1556 -91 
Q 1019 -91 701 211 
Q 384 513 384 1019 
Q 384 1609 779 1909 
Q 1175 2209 1959 2209 
L 2766 2209 
L 2766 2266 
Q 2766 2663 2505 2880 
Q 2244 3097 1772 3097 
Q 1472 3097 1187 3025 
Q 903 2953 641 2809 
L 641 3341 
Q 956 3463 1253 3523 
Q 1550 3584 1831 3584 
Q 2591 3584 2966 3190 
Q 3341 2797 3341 1997 
z
" transform="scale(0.015625)"/>
       <path id="DejaVuSans-69" d="M 603 3500 
L 1178 3500 
L 1178 0 
L 603 0 
L 603 3500 
z
M 603 4863 
L 1178 4863 
L 1178 4134 
L 603 4134 
L 603 4863 
z
" transform="scale(0.015625)"/>
       <path id="DejaVuSans-6e" d="M 3513 2113 
L 3513 0 
L 2938 0 
L 2938 2094 
Q 2938 2591 2744 2837 
Q 2550 3084 2163 3084 
Q 1697 3084 1428 2787 
Q 1159 2491 1159 1978 
L 1159 0 
L 581 0 
L 581 3500 
L 1159 3500 
L 1159 2956 
Q 1366 3272 1645 3428 
Q 1925 3584 2291 3584 
Q 2894 3584 3203 3211 
Q 3513 2838 3513 2113 
z
" transform="scale(0.015625)"/>
       <path id="DejaVuSans-6c" d="M 603 4863 
L 1178 4863 
L 1178 0 
L 603 0 
L 603 4863 
z
" transform="scale(0.015625)"/>
       <path id="DejaVuSans-20" transform="scale(0.015625)"/>
       <path id="DejaVuSans-65" d="M 3597 1894 
L 3597 1613 
L 953 1613 
Q 991 1019 1311 708 
Q 1631 397 2203 397 
Q 2534 397 2845 478 
Q 3156 559 3463 722 
L 3463 178 
Q 3153 47 2828 -22 
Q 2503 -91 2169 -91 
Q 1331 -91 842 396 
Q 353 884 353 1716 
Q 353 2575 817 3079 
Q 1281 3584 2069 3584 
Q 2775 3584 3186 3129 
Q 3597 2675 3597 1894 
z
M 3022 2063 
Q 3016 2534 2758 2815 
Q 2500 3097 2075 3097 
Q 1594 3097 1305 2825 
Q 1016 2553 972 2059 
L 3022 2063 
z
" transform="scale(0.015625)"/>
       <path id="DejaVuSans-5b" d="M 550 4863 
L 1875 4863 
L 1875 4416 
L 1125 4416 
L 1125 -397 
L 1875 -397 
L 1875 -844 
L 550 -844 
L 550 4863 
z
" transform="scale(0.015625)"/>
       <path id="DejaVuSans-73" d="M 2834 3397 
L 2834 2853 
Q 2591 2978 2328 3040 
Q 2066 3103 1784 3103 
Q 1356 3103 1142 2972 
Q 928 2841 928 2578 
Q 928 2378 1081 2264 
Q 1234 2150 1697 2047 
L 1894 2003 
Q 2506 1872 2764 1633 
Q 3022 1394 3022 966 
Q 3022 478 2636 193 
Q 2250 -91 1575 -91 
Q 1294 -91 989 -36 
Q 684 19 347 128 
L 347 722 
Q 666 556 975 473 
Q 1284 391 1588 391 
Q 1994 391 2212 530 
Q 2431 669 2431 922 
Q 2431 1156 2273 1281 
Q 2116 1406 1581 1522 
L 1381 1569 
Q 847 1681 609 1914 
Q 372 2147 372 2553 
Q 372 3047 722 3315 
Q 1072 3584 1716 3584 
Q 2034 3584 2315 3537 
Q 2597 3491 2834 3397 
z
" transform="scale(0.015625)"/>
       <path id="DejaVuSans-5d" d="M 1947 4863 
L 1947 -844 
L 622 -844 
L 622 -397 
L 1369 -397 
L 1369 4416 
L 622 4416 
L 622 4863 
L 1947 4863 
z
" transform="scale(0.015625)"/>
      </defs>
      <use xlink:href="#DejaVuSans-43"/>
      <use xlink:href="#DejaVuSans-6f" x="69.824219"/>
      <use xlink:href="#DejaVuSans-6d" x="131.005859"/>
      <use xlink:href="#DejaVuSans-70" x="228.417969"/>
      <use xlink:href="#DejaVuSans-75" x="291.894531"/>
      <use xlink:href="#DejaVuSans-74" x="355.273438"/>
      <use xlink:href="#DejaVuSans-61" x="394.482422"/>
      <use xlink:href="#DejaVuSans-74" x="455.761719"/>
      <use xlink:href="#DejaVuSans-69" x="494.970703"/>
      <use xlink:href="#DejaVuSans-6f" x="522.753906"/>
      <use xlink:href="#DejaVuSans-6e" x="583.935547"/>
      <use xlink:href="#DejaVuSans-61" x="647.314453"/>
      <use xlink:href="#DejaVuSans-6c" x="708.59375"/>
      <use xlink:href="#DejaVuSans-20" x="736.376953"/>
      <use xlink:href="#DejaVuSans-74" x="768.164062"/>
      <use xlink:href="#DejaVuSans-69" x="807.373047"/>
      <use xlink:href="#DejaVuSans-6d" x="835.15625"/>
      <use xlink:href="#DejaVuSans-65" x="932.568359"/>
      <use xlink:href="#DejaVuSans-20" x="994.091797"/>
      <use xlink:href="#DejaVuSans-5b" x="1025.878906"/>
      <use xlink:href="#DejaVuSans-73" x="1064.892578"/>
      <use xlink:href="#DejaVuSans-5d" x="1116.992188"/>
     </g>
    </g>
   </g>
   <g id="matplotlib.axis_2">
    <g id="ytick_1">
     <g id="line2d_13">
      <path d="M 72 384.48 
L 518.4 384.48 
" clip-path="url(#p92c67b8d82)" style="fill: none; stroke: #b0b0b0; stroke-width: 0.8; stroke-linecap: square"/>
     </g>
     <g id="line2d_14">
      <defs>
       <path id="ma0ec2f3644" d="M 0 0 
L -3.5 0 
" style="stroke: #000000; stroke-width: 0.8"/>
      </defs>
      <g>
       <use xlink:href="#ma0ec2f3644" x="72" y="384.48" style="stroke: #000000; stroke-width: 0.8"/>
      </g>
     </g>
     <g id="text_8">
      <!-- 1 -->
      <g transform="translate(56.0925 389.798906) scale(0.14 -0.14)">
       <use xlink:href="#DejaVuSans-31"/>
      </g>
     </g>
    </g>
    <g id="ytick_2">
     <g id="line2d_15">
      <path d="M 72 347.52 
L 518.4 347.52 
" clip-path="url(#p92c67b8d82)" style="fill: none; stroke: #b0b0b0; stroke-width: 0.8; stroke-linecap: square"/>
     </g>
     <g id="line2d_16">
      <g>
       <use xlink:href="#ma0ec2f3644" x="72" y="347.52" style="stroke: #000000; stroke-width: 0.8"/>
      </g>
     </g>
     <g id="text_9">
      <!-- 2 -->
      <g transform="translate(56.0925 352.838906) scale(0.14 -0.14)">
       <use xlink:href="#DejaVuSans-32"/>
      </g>
     </g>
    </g>
    <g id="ytick_3">
     <g id="line2d_17">
      <path d="M 72 310.56 
L 518.4 310.56 
" clip-path="url(#p92c67b8d82)" style="fill: none; stroke: #b0b0b0; stroke-width: 0.8; stroke-linecap: square"/>
     </g>
     <g id="line2d_18">
      <g>
       <use xlink:href="#ma0ec2f3644" x="72" y="310.56" style="stroke: #000000; stroke-width: 0.8"/>
      </g>
     </g>
     <g id="text_10">
      <!-- 3 -->
      <g transform="translate(56.0925 315.878906) scale(0.14 -0.14)">
       <use xlink:href="#DejaVuSans-33"/>
      </g>
     </g>
    </g>
    <g id="ytick_4">
     <g id="line2d_19">
      <path d="M 72 273.6 
L 518.4 273.6 
" clip-path="url(#p92c67b8d82)" style="fill: none; stroke: #b0b0b0; stroke-width: 0.8; stroke-linecap: square"/>
     </g>
     <g id="line2d_20">
      <g>
       <use xlink:href="#ma0ec2f3644" x="72" y="273.6" style="stroke: #000000; stroke-width: 0.8"/>
      </g>
     </g>
     <g id="text_11">
      <!-- 4 -->
      <g transform="translate(56.0925 278.918906) scale(0.14 -0.14)">
       <use xlink:href="#DejaVuSans-34"/>
      </g>
     </g>
    </g>
    <g id="ytick_5">
     <g id="line2d_21">
      <path d="M 72 236.64 
L 518.4 236.64 
" clip-path="url(#p92c67b8d82)" style="fill: none; stroke: #b0b0b0; stroke-width: 0.8; stroke-linecap: square"/>
     </g>
     <g id="line2d_22">
      <g>
       <use xlink:href="#ma0ec2f3644" x="72" y="236.64" style="stroke: #000000; stroke-width: 0.8"/>
      </g>
     </g>
     <g id="text_12">
      <!-- 5 -->
      <g transform="translate(56.0925 241.958906) scale(0.14 -0.14)">
       <use xlink:href="#DejaVuSans-35"/>
      </g>
     </g>
    </g>
    <g id="ytick_6">
     <g id="line2d_23">
      <path d="M 72 199.68 
L 518.4 199.68 
" clip-path="url(#p92c67b8d82)" style="fill: none; stroke: #b0b0b0; stroke-width: 0.8; stroke-linecap: square"/>
     </g>
     <g id="line2d_24">
      <g>
       <use xlink:href="#ma0ec2f3644" x="72" y="199.68" style="stroke: #000000; stroke-width: 0.8"/>
      </g>
     </g>
     <g id="text_13">
      <!-- 6 -->
      <g transform="translate(56.0925 204.998906) scale(0.14 -0.14)">
       <defs>
        <path id="DejaVuSans-36" d="M 2113 2584 
Q 1688 2584 1439 2293 
Q 1191 2003 1191 1497 
Q 1191 994 1439 701 
Q 1688 409 2113 409 
Q 2538 409 2786 701 
Q 3034 994 3034 1497 
Q 3034 2003 2786 2293 
Q 2538 2584 2113 2584 
z
M 3366 4563 
L 3366 3988 
Q 3128 4100 2886 4159 
Q 2644 4219 2406 4219 
Q 1781 4219 1451 3797 
Q 1122 3375 1075 2522 
Q 1259 2794 1537 2939 
Q 1816 3084 2150 3084 
Q 2853 3084 3261 2657 
Q 3669 2231 3669 1497 
Q 3669 778 3244 343 
Q 2819 -91 2113 -91 
Q 1303 -91 875 529 
Q 447 1150 447 2328 
Q 447 3434 972 4092 
Q 1497 4750 2381 4750 
Q 2619 4750 2861 4703 
Q 3103 4656 3366 4563 
z
" transform="scale(0.015625)"/>
       </defs>
       <use xlink:href="#DejaVuSans-36"/>
      </g>
     </g>
    </g>
    <g id="ytick_7">
     <g id="line2d_25">
      <path d="M 72 162.72 
L 518.4 162.72 
" clip-path="url(#p92c67b8d82)" style="fill: none; stroke: #b0b0b0; stroke-width: 0.8; stroke-linecap: square"/>
     </g>
     <g id="line2d_26">
      <g>
       <use xlink:href="#ma0ec2f3644" x="72" y="162.72" style="stroke: #000000; stroke-width: 0.8"/>
      </g>
     </g>
     <g id="text_14">
      <!-- 7 -->
      <g transform="translate(56.0925 168.038906) scale(0.14 -0.14)">
       <defs>
        <path id="DejaVuSans-37" d="M 525 4666 
L 3525 4666 
L 3525 4397 
L 1831 0 
L 1172 0 
L 2766 4134 
L 525 4134 
L 525 4666 
z
" transform="scale(0.015625)"/>
       </defs>
       <use xlink:href="#DejaVuSans-37"/>
      </g>
     </g>
    </g>
    <g id="ytick_8">
     <g id="line2d_27">
      <path d="M 72 125.76 
L 518.4 125.76 
" clip-path="url(#p92c67b8d82)" style="fill: none; stroke: #b0b0b0; stroke-width: 0.8; stroke-linecap: square"/>
     </g>
     <g id="line2d_28">
      <g>
       <use xlink:href="#ma0ec2f3644" x="72" y="125.76" style="stroke: #000000; stroke-width: 0.8"/>
      </g>
     </g>
     <g id="text_15">
      <!-- 8 -->
      <g transform="translate(56.0925 131.078906) scale(0.14 -0.14)">
       <defs>
        <path id="DejaVuSans-38" d="M 2034 2216 
Q 1584 2216 1326 1975 
Q 1069 1734 1069 1313 
Q 1069 891 1326 650 
Q 1584 409 2034 409 
Q 2484 409 2743 651 
Q 3003 894 3003 1313 
Q 3003 1734 2745 1975 
Q 2488 2216 2034 2216 
z
M 1403 2484 
Q 997 2584 770 2862 
Q 544 3141 544 3541 
Q 544 4100 942 4425 
Q 1341 4750 2034 4750 
Q 2731 4750 3128 4425 
Q 3525 4100 3525 3541 
Q 3525 3141 3298 2862 
Q 3072 2584 2669 2484 
Q 3125 2378 3379 2068 
Q 3634 1759 3634 1313 
Q 3634 634 3220 271 
Q 2806 -91 2034 -91 
Q 1263 -91 848 271 
Q 434 634 434 1313 
Q 434 1759 690 2068 
Q 947 2378 1403 2484 
z
M 1172 3481 
Q 1172 3119 1398 2916 
Q 1625 2713 2034 2713 
Q 2441 2713 2670 2916 
Q 2900 3119 2900 3481 
Q 2900 3844 2670 4047 
Q 2441 4250 2034 4250 
Q 1625 4250 1398 4047 
Q 1172 3844 1172 3481 
z
" transform="scale(0.015625)"/>
       </defs>
       <use xlink:href="#DejaVuSans-38"/>
      </g>
     </g>
    </g>
    <g id="ytick_9">
     <g id="line2d_29">
      <path d="M 72 88.8 
L 518.4 88.8 
" clip-path="url(#p92c67b8d82)" style="fill: none; stroke: #b0b0b0; stroke-width: 0.8; stroke-linecap: square"/>
     </g>
     <g id="line2d_30">
      <g>
       <use xlink:href="#ma0ec2f3644" x="72" y="88.8" style="stroke: #000000; stroke-width: 0.8"/>
      </g>
     </g>
     <g id="text_16">
      <!-- 9 -->
      <g transform="translate(56.0925 94.118906) scale(0.14 -0.14)">
       <defs>
        <path id="DejaVuSans-39" d="M 703 97 
L 703 672 
Q 941 559 1184 500 
Q 1428 441 1663 441 
Q 2288 441 2617 861 
Q 2947 1281 2994 2138 
Q 2813 1869 2534 1725 
Q 2256 1581 1919 1581 
Q 1219 1581 811 2004 
Q 403 2428 403 3163 
Q 403 3881 828 4315 
Q 1253 4750 1959 4750 
Q 2769 4750 3195 4129 
Q 3622 3509 3622 2328 
Q 3622 1225 3098 567 
Q 2575 -91 1691 -91 
Q 1453 -91 1209 -44 
Q 966 3 703 97 
z
M 1959 2075 
Q 2384 2075 2632 2365 
Q 2881 2656 2881 3163 
Q 2881 3666 2632 3958 
Q 2384 4250 1959 4250 
Q 1534 4250 1286 3958 
Q 1038 3666 1038 3163 
Q 1038 2656 1286 2365 
Q 1534 2075 1959 2075 
z
" transform="scale(0.015625)"/>
       </defs>
       <use xlink:href="#DejaVuSans-39"/>
      </g>
     </g>
    </g>
    <g id="ytick_10">
     <g id="line2d_31">
      <path d="M 72 51.84 
L 518.4 51.84 
" clip-path="url(#p92c67b8d82)" style="fill: none; stroke: #b0b0b0; stroke-width: 0.8; stroke-linecap: square"/>
     </g>
     <g id="line2d_32">
      <g>
       <use xlink:href="#ma0ec2f3644" x="72" y="51.84" style="stroke: #000000; stroke-width: 0.8"/>
      </g>
     </g>
     <g id="text_17">
      <!-- 10 -->
      <g transform="translate(47.185 57.158906) scale(0.14 -0.14)">
       <use xlink:href="#DejaVuSans-31"/>
       <use xlink:href="#DejaVuSans-30" x="63.623047"/>
      </g>
     </g>
    </g>
    <g id="text_18">
     <!-- Objective value -->
     <g transform="translate(39.441563 288.282656) rotate(-90) scale(0.18 -0.18)">
      <defs>
       <path id="DejaVuSans-4f" d="M 2522 4238 
Q 1834 4238 1429 3725 
Q 1025 3213 1025 2328 
Q 1025 1447 1429 934 
Q 1834 422 2522 422 
Q 3209 422 3611 934 
Q 4013 1447 4013 2328 
Q 4013 3213 3611 3725 
Q 3209 4238 2522 4238 
z
M 2522 4750 
Q 3503 4750 4090 4092 
Q 4678 3434 4678 2328 
Q 4678 1225 4090 567 
Q 3503 -91 2522 -91 
Q 1538 -91 948 565 
Q 359 1222 359 2328 
Q 359 3434 948 4092 
Q 1538 4750 2522 4750 
z
" transform="scale(0.015625)"/>
       <path id="DejaVuSans-62" d="M 3116 1747 
Q 3116 2381 2855 2742 
Q 2594 3103 2138 3103 
Q 1681 3103 1420 2742 
Q 1159 2381 1159 1747 
Q 1159 1113 1420 752 
Q 1681 391 2138 391 
Q 2594 391 2855 752 
Q 3116 1113 3116 1747 
z
M 1159 2969 
Q 1341 3281 1617 3432 
Q 1894 3584 2278 3584 
Q 2916 3584 3314 3078 
Q 3713 2572 3713 1747 
Q 3713 922 3314 415 
Q 2916 -91 2278 -91 
Q 1894 -91 1617 61 
Q 1341 213 1159 525 
L 1159 0 
L 581 0 
L 581 4863 
L 1159 4863 
L 1159 2969 
z
" transform="scale(0.015625)"/>
       <path id="DejaVuSans-6a" d="M 603 3500 
L 1178 3500 
L 1178 -63 
Q 1178 -731 923 -1031 
Q 669 -1331 103 -1331 
L -116 -1331 
L -116 -844 
L 38 -844 
Q 366 -844 484 -692 
Q 603 -541 603 -63 
L 603 3500 
z
M 603 4863 
L 1178 4863 
L 1178 4134 
L 603 4134 
L 603 4863 
z
" transform="scale(0.015625)"/>
       <path id="DejaVuSans-63" d="M 3122 3366 
L 3122 2828 
Q 2878 2963 2633 3030 
Q 2388 3097 2138 3097 
Q 1578 3097 1268 2742 
Q 959 2388 959 1747 
Q 959 1106 1268 751 
Q 1578 397 2138 397 
Q 2388 397 2633 464 
Q 2878 531 3122 666 
L 3122 134 
Q 2881 22 2623 -34 
Q 2366 -91 2075 -91 
Q 1284 -91 818 406 
Q 353 903 353 1747 
Q 353 2603 823 3093 
Q 1294 3584 2113 3584 
Q 2378 3584 2631 3529 
Q 2884 3475 3122 3366 
z
" transform="scale(0.015625)"/>
       <path id="DejaVuSans-76" d="M 191 3500 
L 800 3500 
L 1894 563 
L 2988 3500 
L 3597 3500 
L 2284 0 
L 1503 0 
L 191 3500 
z
" transform="scale(0.015625)"/>
      </defs>
      <use xlink:href="#DejaVuSans-4f"/>
      <use xlink:href="#DejaVuSans-62" x="78.710938"/>
      <use xlink:href="#DejaVuSans-6a" x="142.1875"/>
      <use xlink:href="#DejaVuSans-65" x="169.970703"/>
      <use xlink:href="#DejaVuSans-63" x="231.494141"/>
      <use xlink:href="#DejaVuSans-74" x="286.474609"/>
      <use xlink:href="#DejaVuSans-69" x="325.683594"/>
      <use xlink:href="#DejaVuSans-76" x="353.466797"/>
      <use xlink:href="#DejaVuSans-65" x="412.646484"/>
      <use xlink:href="#DejaVuSans-20" x="474.169922"/>
      <use xlink:href="#DejaVuSans-76" x="505.957031"/>
      <use xlink:href="#DejaVuSans-61" x="565.136719"/>
      <use xlink:href="#DejaVuSans-6c" x="626.416016"/>
      <use xlink:href="#DejaVuSans-75" x="654.199219"/>
      <use xlink:href="#DejaVuSans-65" x="717.578125"/>
     </g>
    </g>
   </g>
   <g id="line2d_33">
    <path d="M 95.72881 362.303999 
" clip-path="url(#p92c67b8d82)" style="fill: none; stroke: #b6c800; stroke-width: 1.5; stroke-linecap: square"/>
    <defs>
     <path id="m71670b2205" d="M 0 -5 
L -5 5 
L 5 5 
z
" style="stroke: #b6c800; stroke-linejoin: miter"/>
    </defs>
    <g clip-path="url(#p92c67b8d82)">
     <use xlink:href="#m71670b2205" x="95.72881" y="362.303999" style="fill: #b6c800; stroke: #b6c800; stroke-linejoin: miter"/>
    </g>
   </g>
   <g id="line2d_34">
    <path d="M 95.72881 362.303999 
L 518.4 362.303999 
" clip-path="url(#p92c67b8d82)" style="fill: none; stroke: #b6c800; stroke-width: 1.5; stroke-linecap: square"/>
   </g>
   <g id="line2d_35">
    <path d="M 98.706198 362.303999 
" clip-path="url(#p92c67b8d82)" style="fill: none; stroke-dasharray: 1.5,15; stroke-dashoffset: 0; stroke: #b8c348; stroke-width: 1.5"/>
    <defs>
     <path id="me1ae171262" d="M 0 -3 
L -3 3 
L 3 3 
z
" style="stroke: #b8c348; stroke-linejoin: miter"/>
    </defs>
    <g clip-path="url(#p92c67b8d82)">
     <use xlink:href="#me1ae171262" x="98.706198" y="362.303999" style="fill: #b8c348; stroke: #b8c348; stroke-linejoin: miter"/>
    </g>
   </g>
   <g id="line2d_36">
    <path d="M 98.706198 362.303999 
L 518.4 362.303999 
" clip-path="url(#p92c67b8d82)" style="fill: none; stroke-dasharray: 1.5,15; stroke-dashoffset: 0; stroke: #b8c348; stroke-width: 1.5"/>
   </g>
   <g id="line2d_37">
    <path d="M 95.650172 362.304004 
" clip-path="url(#p92c67b8d82)" style="fill: none; stroke-dasharray: 7.5,15; stroke-dashoffset: 0; stroke: #bec291; stroke-width: 1.5"/>
    <defs>
     <path id="m80a8494224" d="M 0 -3 
L -3 3 
L 3 3 
z
" style="stroke: #bec291; stroke-linejoin: miter"/>
    </defs>
    <g clip-path="url(#p92c67b8d82)">
     <use xlink:href="#m80a8494224" x="95.650172" y="362.304004" style="fill: #bec291; stroke: #bec291; stroke-linejoin: miter"/>
    </g>
   </g>
   <g id="line2d_38">
    <path d="M 95.650172 362.304004 
L 518.4 362.304004 
" clip-path="url(#p92c67b8d82)" style="fill: none; stroke-dasharray: 7.5,15; stroke-dashoffset: 0; stroke: #bec291; stroke-width: 1.5"/>
   </g>
   <g id="line2d_39">
    <path d="M 96.670725 324.688051 
" clip-path="url(#p92c67b8d82)" style="fill: none; stroke: #f119c3; stroke-width: 1.5; stroke-linecap: square"/>
    <defs>
     <path id="mfc2db402e7" d="M -0 5 
L 5 -5 
L -5 -5 
z
" style="stroke: #f119c3; stroke-linejoin: miter"/>
    </defs>
    <g clip-path="url(#p92c67b8d82)">
     <use xlink:href="#mfc2db402e7" x="96.670725" y="324.688051" style="fill: #f119c3; stroke: #f119c3; stroke-linejoin: miter"/>
    </g>
   </g>
   <g id="line2d_40">
    <path d="M 96.670725 324.688051 
L 518.4 324.688051 
" clip-path="url(#p92c67b8d82)" style="fill: none; stroke: #f119c3; stroke-width: 1.5; stroke-linecap: square"/>
   </g>
   <g id="line2d_41">
    <path d="M 95.683041 325.163905 
" clip-path="url(#p92c67b8d82)" style="fill: none; stroke-dasharray: 1.5,15; stroke-dashoffset: 0; stroke: #f190dd; stroke-width: 1.5"/>
    <defs>
     <path id="m65c286fd2f" d="M -0 3 
L 3 -3 
L -3 -3 
z
" style="stroke: #f190dd; stroke-linejoin: miter"/>
    </defs>
    <g clip-path="url(#p92c67b8d82)">
     <use xlink:href="#m65c286fd2f" x="95.683041" y="325.163905" style="fill: #f190dd; stroke: #f190dd; stroke-linejoin: miter"/>
    </g>
   </g>
   <g id="line2d_42">
    <path d="M 95.683041 325.163905 
L 518.4 325.163905 
" clip-path="url(#p92c67b8d82)" style="fill: none; stroke-dasharray: 1.5,15; stroke-dashoffset: 0; stroke: #f190dd; stroke-width: 1.5"/>
   </g>
   <g id="line2d_43">
    <path d="M 97.511249 325.347705 
" clip-path="url(#p92c67b8d82)" style="fill: none; stroke-dasharray: 7.5,15; stroke-dashoffset: 0; stroke: #ecc0e3; stroke-width: 1.5"/>
    <defs>
     <path id="m1fd80f5819" d="M -0 3 
L 3 -3 
L -3 -3 
z
" style="stroke: #ecc0e3; stroke-linejoin: miter"/>
    </defs>
    <g clip-path="url(#p92c67b8d82)">
     <use xlink:href="#m1fd80f5819" x="97.511249" y="325.347705" style="fill: #ecc0e3; stroke: #ecc0e3; stroke-linejoin: miter"/>
    </g>
   </g>
   <g id="line2d_44">
    <path d="M 97.511249 325.347705 
L 518.4 325.347705 
" clip-path="url(#p92c67b8d82)" style="fill: none; stroke-dasharray: 7.5,15; stroke-dashoffset: 0; stroke: #ecc0e3; stroke-width: 1.5"/>
   </g>
   <g id="line2d_45">
    <path d="M 98.714913 329.04 
L 122.872448 327.192028 
L 146.844006 326.077845 
L 170.723653 325.598131 
L 194.847414 325.424087 
L 218.673098 325.367144 
L 242.648763 325.381974 
L 266.592941 325.337254 
L 293.885556 325.342382 
L 325.944957 325.347819 
L 352.880919 325.34299 
L 379.854629 325.343986 
L 403.860728 325.344277 
L 428.430576 325.34344 
L 454.402214 325.34425 
L 479.601129 325.427321 
L 505.890702 325.326353 
L 531.526436 325.40685 
" clip-path="url(#p92c67b8d82)" style="fill: none; stroke: #0d5915; stroke-width: 1.5; stroke-linecap: square"/>
    <defs>
     <path id="m39bb62fe10" d="M 0 0 
L 0 -5 
M 0 0 
L -4 2.5 
M 0 0 
L 4 2.5 
" style="stroke: #0d5915"/>
    </defs>
    <g clip-path="url(#p92c67b8d82)">
     <use xlink:href="#m39bb62fe10" x="98.714913" y="329.04" style="fill: #0d5915; stroke: #0d5915"/>
     <use xlink:href="#m39bb62fe10" x="122.872448" y="327.192028" style="fill: #0d5915; stroke: #0d5915"/>
     <use xlink:href="#m39bb62fe10" x="146.844006" y="326.077845" style="fill: #0d5915; stroke: #0d5915"/>
     <use xlink:href="#m39bb62fe10" x="170.723653" y="325.598131" style="fill: #0d5915; stroke: #0d5915"/>
     <use xlink:href="#m39bb62fe10" x="194.847414" y="325.424087" style="fill: #0d5915; stroke: #0d5915"/>
     <use xlink:href="#m39bb62fe10" x="218.673098" y="325.367144" style="fill: #0d5915; stroke: #0d5915"/>
     <use xlink:href="#m39bb62fe10" x="242.648763" y="325.381974" style="fill: #0d5915; stroke: #0d5915"/>
     <use xlink:href="#m39bb62fe10" x="266.592941" y="325.337254" style="fill: #0d5915; stroke: #0d5915"/>
     <use xlink:href="#m39bb62fe10" x="293.885556" y="325.342382" style="fill: #0d5915; stroke: #0d5915"/>
     <use xlink:href="#m39bb62fe10" x="325.944957" y="325.347819" style="fill: #0d5915; stroke: #0d5915"/>
     <use xlink:href="#m39bb62fe10" x="352.880919" y="325.34299" style="fill: #0d5915; stroke: #0d5915"/>
     <use xlink:href="#m39bb62fe10" x="379.854629" y="325.343986" style="fill: #0d5915; stroke: #0d5915"/>
     <use xlink:href="#m39bb62fe10" x="403.860728" y="325.344277" style="fill: #0d5915; stroke: #0d5915"/>
     <use xlink:href="#m39bb62fe10" x="428.430576" y="325.34344" style="fill: #0d5915; stroke: #0d5915"/>
     <use xlink:href="#m39bb62fe10" x="454.402214" y="325.34425" style="fill: #0d5915; stroke: #0d5915"/>
     <use xlink:href="#m39bb62fe10" x="479.601129" y="325.427321" style="fill: #0d5915; stroke: #0d5915"/>
     <use xlink:href="#m39bb62fe10" x="505.890702" y="325.326353" style="fill: #0d5915; stroke: #0d5915"/>
     <use xlink:href="#m39bb62fe10" x="531.526436" y="325.40685" style="fill: #0d5915; stroke: #0d5915"/>
    </g>
   </g>
   <g id="line2d_46">
    <path d="M 95.941667 329.04 
L 120.627505 327.208498 
L 145.613266 326.098677 
L 175.200273 325.586464 
L 204.735501 325.396347 
L 230.556067 325.371532 
L 255.703678 325.352181 
L 279.589783 325.344479 
L 304.476813 325.325992 
L 329.083064 325.347264 
L 354.120676 325.345942 
L 378.201331 325.349203 
L 402.54536 325.342787 
L 427.016153 325.347246 
L 453.642658 325.343501 
L 480.546892 325.260924 
L 515.663728 325.361707 
L 552.048409 325.346083 
" clip-path="url(#p92c67b8d82)" style="fill: none; stroke-dasharray: 1.5,15; stroke-dashoffset: 0; stroke: #6ec977; stroke-width: 1.5"/>
    <defs>
     <path id="ma9202dfefa" d="M 0 0 
L 0 -3 
M 0 0 
L -2.4 1.5 
M 0 0 
L 2.4 1.5 
" style="stroke: #6ec977"/>
    </defs>
    <g clip-path="url(#p92c67b8d82)">
     <use xlink:href="#ma9202dfefa" x="95.941667" y="329.04" style="fill: #6ec977; stroke: #6ec977"/>
     <use xlink:href="#ma9202dfefa" x="120.627505" y="327.208498" style="fill: #6ec977; stroke: #6ec977"/>
     <use xlink:href="#ma9202dfefa" x="145.613266" y="326.098677" style="fill: #6ec977; stroke: #6ec977"/>
     <use xlink:href="#ma9202dfefa" x="175.200273" y="325.586464" style="fill: #6ec977; stroke: #6ec977"/>
     <use xlink:href="#ma9202dfefa" x="204.735501" y="325.396347" style="fill: #6ec977; stroke: #6ec977"/>
     <use xlink:href="#ma9202dfefa" x="230.556067" y="325.371532" style="fill: #6ec977; stroke: #6ec977"/>
     <use xlink:href="#ma9202dfefa" x="255.703678" y="325.352181" style="fill: #6ec977; stroke: #6ec977"/>
     <use xlink:href="#ma9202dfefa" x="279.589783" y="325.344479" style="fill: #6ec977; stroke: #6ec977"/>
     <use xlink:href="#ma9202dfefa" x="304.476813" y="325.325992" style="fill: #6ec977; stroke: #6ec977"/>
     <use xlink:href="#ma9202dfefa" x="329.083064" y="325.347264" style="fill: #6ec977; stroke: #6ec977"/>
     <use xlink:href="#ma9202dfefa" x="354.120676" y="325.345942" style="fill: #6ec977; stroke: #6ec977"/>
     <use xlink:href="#ma9202dfefa" x="378.201331" y="325.349203" style="fill: #6ec977; stroke: #6ec977"/>
     <use xlink:href="#ma9202dfefa" x="402.54536" y="325.342787" style="fill: #6ec977; stroke: #6ec977"/>
     <use xlink:href="#ma9202dfefa" x="427.016153" y="325.347246" style="fill: #6ec977; stroke: #6ec977"/>
     <use xlink:href="#ma9202dfefa" x="453.642658" y="325.343501" style="fill: #6ec977; stroke: #6ec977"/>
     <use xlink:href="#ma9202dfefa" x="480.546892" y="325.260924" style="fill: #6ec977; stroke: #6ec977"/>
     <use xlink:href="#ma9202dfefa" x="515.663728" y="325.361707" style="fill: #6ec977; stroke: #6ec977"/>
     <use xlink:href="#ma9202dfefa" x="552.048409" y="325.346083" style="fill: #6ec977; stroke: #6ec977"/>
    </g>
   </g>
   <g id="line2d_47">
    <path d="M 96.471979 329.04 
L 120.605367 327.191702 
L 144.835858 326.07566 
L 170.261268 325.597999 
L 194.950933 325.403696 
L 222.927608 325.373823 
L 247.673583 325.352058 
L 274.253291 325.299309 
L 298.004303 325.357944 
L 324.496955 325.346762 
L 349.046036 325.347282 
L 375.346555 325.337756 
L 400.773196 325.34522 
L 425.023842 325.348198 
L 449.268393 325.362738 
L 473.024567 325.340232 
L 523.892415 325.328345 
" clip-path="url(#p92c67b8d82)" style="fill: none; stroke-dasharray: 7.5,15; stroke-dashoffset: 0; stroke: #96f6a0; stroke-width: 1.5"/>
    <defs>
     <path id="m5d2b329664" d="M 0 0 
L 0 -3 
M 0 0 
L -2.4 1.5 
M 0 0 
L 2.4 1.5 
" style="stroke: #96f6a0"/>
    </defs>
    <g clip-path="url(#p92c67b8d82)">
     <use xlink:href="#m5d2b329664" x="96.471979" y="329.04" style="fill: #96f6a0; stroke: #96f6a0"/>
     <use xlink:href="#m5d2b329664" x="120.605367" y="327.191702" style="fill: #96f6a0; stroke: #96f6a0"/>
     <use xlink:href="#m5d2b329664" x="144.835858" y="326.07566" style="fill: #96f6a0; stroke: #96f6a0"/>
     <use xlink:href="#m5d2b329664" x="170.261268" y="325.597999" style="fill: #96f6a0; stroke: #96f6a0"/>
     <use xlink:href="#m5d2b329664" x="194.950933" y="325.403696" style="fill: #96f6a0; stroke: #96f6a0"/>
     <use xlink:href="#m5d2b329664" x="222.927608" y="325.373823" style="fill: #96f6a0; stroke: #96f6a0"/>
     <use xlink:href="#m5d2b329664" x="247.673583" y="325.352058" style="fill: #96f6a0; stroke: #96f6a0"/>
     <use xlink:href="#m5d2b329664" x="274.253291" y="325.299309" style="fill: #96f6a0; stroke: #96f6a0"/>
     <use xlink:href="#m5d2b329664" x="298.004303" y="325.357944" style="fill: #96f6a0; stroke: #96f6a0"/>
     <use xlink:href="#m5d2b329664" x="324.496955" y="325.346762" style="fill: #96f6a0; stroke: #96f6a0"/>
     <use xlink:href="#m5d2b329664" x="349.046036" y="325.347282" style="fill: #96f6a0; stroke: #96f6a0"/>
     <use xlink:href="#m5d2b329664" x="375.346555" y="325.337756" style="fill: #96f6a0; stroke: #96f6a0"/>
     <use xlink:href="#m5d2b329664" x="400.773196" y="325.34522" style="fill: #96f6a0; stroke: #96f6a0"/>
     <use xlink:href="#m5d2b329664" x="425.023842" y="325.348198" style="fill: #96f6a0; stroke: #96f6a0"/>
     <use xlink:href="#m5d2b329664" x="449.268393" y="325.362738" style="fill: #96f6a0; stroke: #96f6a0"/>
     <use xlink:href="#m5d2b329664" x="473.024567" y="325.340232" style="fill: #96f6a0; stroke: #96f6a0"/>
     <use xlink:href="#m5d2b329664" x="523.892415" y="325.328345" style="fill: #96f6a0; stroke: #96f6a0"/>
    </g>
   </g>
   <g id="line2d_48">
    <path d="M 72.377645 70.1352 
L 89.829624 325.672492 
L 108.600322 325.604726 
L 126.056127 325.571766 
L 144.126877 325.550939 
L 162.114855 325.536106 
L 179.350374 325.524778 
L 196.872019 325.515724 
L 214.907999 325.508248 
L 232.170609 325.501925 
L 249.661394 325.496475 
L 266.945218 325.491707 
L 283.905039 325.487484 
L 301.839024 325.483706 
L 320.139489 325.480298 
L 337.704393 325.477199 
L 356.055164 325.474364 
L 374.699856 325.471756 
L 392.095594 325.469345 
L 410.520203 325.467106 
L 428.655325 325.465019 
L 446.726028 325.463067 
L 465.396411 325.461235 
L 483.038372 325.459511 
L 500.345539 325.457883 
L 518.377511 325.456344 
L 518.401534 325.456342 
" clip-path="url(#p92c67b8d82)" style="fill: none; stroke: #e31d1d; stroke-width: 1.5; stroke-linecap: square"/>
    <defs>
     <path id="mf8cb733e6e" d="M 0 5 
C 1.326016 5 2.597899 4.473168 3.535534 3.535534 
C 4.473168 2.597899 5 1.326016 5 0 
C 5 -1.326016 4.473168 -2.597899 3.535534 -3.535534 
C 2.597899 -4.473168 1.326016 -5 0 -5 
C -1.326016 -5 -2.597899 -4.473168 -3.535534 -3.535534 
C -4.473168 -2.597899 -5 -1.326016 -5 0 
C -5 1.326016 -4.473168 2.597899 -3.535534 3.535534 
C -2.597899 4.473168 -1.326016 5 0 5 
z
" style="stroke: #e31d1d"/>
    </defs>
    <g clip-path="url(#p92c67b8d82)">
     <use xlink:href="#mf8cb733e6e" x="72.377645" y="70.1352" style="fill: #e31d1d; stroke: #e31d1d"/>
     <use xlink:href="#mf8cb733e6e" x="89.829624" y="325.672492" style="fill: #e31d1d; stroke: #e31d1d"/>
     <use xlink:href="#mf8cb733e6e" x="108.600322" y="325.604726" style="fill: #e31d1d; stroke: #e31d1d"/>
     <use xlink:href="#mf8cb733e6e" x="126.056127" y="325.571766" style="fill: #e31d1d; stroke: #e31d1d"/>
     <use xlink:href="#mf8cb733e6e" x="144.126877" y="325.550939" style="fill: #e31d1d; stroke: #e31d1d"/>
     <use xlink:href="#mf8cb733e6e" x="162.114855" y="325.536106" style="fill: #e31d1d; stroke: #e31d1d"/>
     <use xlink:href="#mf8cb733e6e" x="179.350374" y="325.524778" style="fill: #e31d1d; stroke: #e31d1d"/>
     <use xlink:href="#mf8cb733e6e" x="196.872019" y="325.515724" style="fill: #e31d1d; stroke: #e31d1d"/>
     <use xlink:href="#mf8cb733e6e" x="214.907999" y="325.508248" style="fill: #e31d1d; stroke: #e31d1d"/>
     <use xlink:href="#mf8cb733e6e" x="232.170609" y="325.501925" style="fill: #e31d1d; stroke: #e31d1d"/>
     <use xlink:href="#mf8cb733e6e" x="249.661394" y="325.496475" style="fill: #e31d1d; stroke: #e31d1d"/>
     <use xlink:href="#mf8cb733e6e" x="266.945218" y="325.491707" style="fill: #e31d1d; stroke: #e31d1d"/>
     <use xlink:href="#mf8cb733e6e" x="283.905039" y="325.487484" style="fill: #e31d1d; stroke: #e31d1d"/>
     <use xlink:href="#mf8cb733e6e" x="301.839024" y="325.483706" style="fill: #e31d1d; stroke: #e31d1d"/>
     <use xlink:href="#mf8cb733e6e" x="320.139489" y="325.480298" style="fill: #e31d1d; stroke: #e31d1d"/>
     <use xlink:href="#mf8cb733e6e" x="337.704393" y="325.477199" style="fill: #e31d1d; stroke: #e31d1d"/>
     <use xlink:href="#mf8cb733e6e" x="356.055164" y="325.474364" style="fill: #e31d1d; stroke: #e31d1d"/>
     <use xlink:href="#mf8cb733e6e" x="374.699856" y="325.471756" style="fill: #e31d1d; stroke: #e31d1d"/>
     <use xlink:href="#mf8cb733e6e" x="392.095594" y="325.469345" style="fill: #e31d1d; stroke: #e31d1d"/>
     <use xlink:href="#mf8cb733e6e" x="410.520203" y="325.467106" style="fill: #e31d1d; stroke: #e31d1d"/>
     <use xlink:href="#mf8cb733e6e" x="428.655325" y="325.465019" style="fill: #e31d1d; stroke: #e31d1d"/>
     <use xlink:href="#mf8cb733e6e" x="446.726028" y="325.463067" style="fill: #e31d1d; stroke: #e31d1d"/>
     <use xlink:href="#mf8cb733e6e" x="465.396411" y="325.461235" style="fill: #e31d1d; stroke: #e31d1d"/>
     <use xlink:href="#mf8cb733e6e" x="483.038372" y="325.459511" style="fill: #e31d1d; stroke: #e31d1d"/>
     <use xlink:href="#mf8cb733e6e" x="500.345539" y="325.457883" style="fill: #e31d1d; stroke: #e31d1d"/>
     <use xlink:href="#mf8cb733e6e" x="518.377511" y="325.456344" style="fill: #e31d1d; stroke: #e31d1d"/>
     <use xlink:href="#mf8cb733e6e" x="518.401534" y="325.456342" style="fill: #e31d1d; stroke: #e31d1d"/>
    </g>
   </g>
   <g id="line2d_49">
    <path d="M 72.016747 254.9352 
L 89.106539 325.663112 
L 109.377673 325.597281 
L 127.077828 325.565261 
L 144.588502 325.54503 
L 162.120008 325.530619 
L 179.237081 325.519616 
L 196.37464 325.51082 
L 213.395306 325.503558 
L 231.092807 325.497415 
L 249.504549 325.49212 
L 268.185569 325.487488 
L 285.804056 325.483386 
L 304.673189 325.479717 
L 322.211689 325.476405 
L 339.75642 325.473395 
L 356.616884 325.470641 
L 374.57024 325.468108 
L 392.446201 325.465765 
L 410.628474 325.46359 
L 429.634209 325.461563 
L 447.428414 325.459667 
L 465.658304 325.457887 
L 484.290573 325.456212 
L 501.372487 325.454631 
L 518.398504 325.453136 
L 518.400319 325.453136 
" clip-path="url(#p92c67b8d82)" style="fill: none; stroke-dasharray: 1.5,15; stroke-dashoffset: 0; stroke: #df6f67; stroke-width: 1.5"/>
    <defs>
     <path id="m5df2f16870" d="M 0 3 
C 0.795609 3 1.55874 2.683901 2.12132 2.12132 
C 2.683901 1.55874 3 0.795609 3 0 
C 3 -0.795609 2.683901 -1.55874 2.12132 -2.12132 
C 1.55874 -2.683901 0.795609 -3 0 -3 
C -0.795609 -3 -1.55874 -2.683901 -2.12132 -2.12132 
C -2.683901 -1.55874 -3 -0.795609 -3 0 
C -3 0.795609 -2.683901 1.55874 -2.12132 2.12132 
C -1.55874 2.683901 -0.795609 3 0 3 
z
" style="stroke: #df6f67"/>
    </defs>
    <g clip-path="url(#p92c67b8d82)">
     <use xlink:href="#m5df2f16870" x="72.016747" y="254.9352" style="fill: #df6f67; stroke: #df6f67"/>
     <use xlink:href="#m5df2f16870" x="89.106539" y="325.663112" style="fill: #df6f67; stroke: #df6f67"/>
     <use xlink:href="#m5df2f16870" x="109.377673" y="325.597281" style="fill: #df6f67; stroke: #df6f67"/>
     <use xlink:href="#m5df2f16870" x="127.077828" y="325.565261" style="fill: #df6f67; stroke: #df6f67"/>
     <use xlink:href="#m5df2f16870" x="144.588502" y="325.54503" style="fill: #df6f67; stroke: #df6f67"/>
     <use xlink:href="#m5df2f16870" x="162.120008" y="325.530619" style="fill: #df6f67; stroke: #df6f67"/>
     <use xlink:href="#m5df2f16870" x="179.237081" y="325.519616" style="fill: #df6f67; stroke: #df6f67"/>
     <use xlink:href="#m5df2f16870" x="196.37464" y="325.51082" style="fill: #df6f67; stroke: #df6f67"/>
     <use xlink:href="#m5df2f16870" x="213.395306" y="325.503558" style="fill: #df6f67; stroke: #df6f67"/>
     <use xlink:href="#m5df2f16870" x="231.092807" y="325.497415" style="fill: #df6f67; stroke: #df6f67"/>
     <use xlink:href="#m5df2f16870" x="249.504549" y="325.49212" style="fill: #df6f67; stroke: #df6f67"/>
     <use xlink:href="#m5df2f16870" x="268.185569" y="325.487488" style="fill: #df6f67; stroke: #df6f67"/>
     <use xlink:href="#m5df2f16870" x="285.804056" y="325.483386" style="fill: #df6f67; stroke: #df6f67"/>
     <use xlink:href="#m5df2f16870" x="304.673189" y="325.479717" style="fill: #df6f67; stroke: #df6f67"/>
     <use xlink:href="#m5df2f16870" x="322.211689" y="325.476405" style="fill: #df6f67; stroke: #df6f67"/>
     <use xlink:href="#m5df2f16870" x="339.75642" y="325.473395" style="fill: #df6f67; stroke: #df6f67"/>
     <use xlink:href="#m5df2f16870" x="356.616884" y="325.470641" style="fill: #df6f67; stroke: #df6f67"/>
     <use xlink:href="#m5df2f16870" x="374.57024" y="325.468108" style="fill: #df6f67; stroke: #df6f67"/>
     <use xlink:href="#m5df2f16870" x="392.446201" y="325.465765" style="fill: #df6f67; stroke: #df6f67"/>
     <use xlink:href="#m5df2f16870" x="410.628474" y="325.46359" style="fill: #df6f67; stroke: #df6f67"/>
     <use xlink:href="#m5df2f16870" x="429.634209" y="325.461563" style="fill: #df6f67; stroke: #df6f67"/>
     <use xlink:href="#m5df2f16870" x="447.428414" y="325.459667" style="fill: #df6f67; stroke: #df6f67"/>
     <use xlink:href="#m5df2f16870" x="465.658304" y="325.457887" style="fill: #df6f67; stroke: #df6f67"/>
     <use xlink:href="#m5df2f16870" x="484.290573" y="325.456212" style="fill: #df6f67; stroke: #df6f67"/>
     <use xlink:href="#m5df2f16870" x="501.372487" y="325.454631" style="fill: #df6f67; stroke: #df6f67"/>
     <use xlink:href="#m5df2f16870" x="518.398504" y="325.453136" style="fill: #df6f67; stroke: #df6f67"/>
     <use xlink:href="#m5df2f16870" x="518.400319" y="325.453136" style="fill: #df6f67; stroke: #df6f67"/>
    </g>
   </g>
   <g id="line2d_50">
    <path d="M 72.017344 366.5544 
L 89.815147 325.664007 
L 107.32607 325.597992 
L 124.826754 325.565883 
L 143.144461 325.545594 
L 160.807871 325.531143 
L 178.557602 325.520109 
L 196.893556 325.511288 
L 214.480037 325.504005 
L 232.016365 325.497845 
L 250.184459 325.492536 
L 267.906881 325.487891 
L 285.595469 325.483778 
L 305.158897 325.480098 
L 321.987209 325.476777 
L 338.817049 325.473758 
L 357.667629 325.470997 
L 375.209308 325.468456 
L 392.926877 325.466107 
L 411.954269 325.463926 
L 429.329003 325.461893 
L 446.67045 325.459991 
L 464.444288 325.458207 
L 482.430543 325.456527 
L 499.840993 325.454942 
L 518.392664 325.453442 
L 518.400646 325.453442 
" clip-path="url(#p92c67b8d82)" style="fill: none; stroke-dasharray: 7.5,15; stroke-dashoffset: 0; stroke: #dea39f; stroke-width: 1.5"/>
    <defs>
     <path id="m8352328fb1" d="M 0 3 
C 0.795609 3 1.55874 2.683901 2.12132 2.12132 
C 2.683901 1.55874 3 0.795609 3 0 
C 3 -0.795609 2.683901 -1.55874 2.12132 -2.12132 
C 1.55874 -2.683901 0.795609 -3 0 -3 
C -0.795609 -3 -1.55874 -2.683901 -2.12132 -2.12132 
C -2.683901 -1.55874 -3 -0.795609 -3 0 
C -3 0.795609 -2.683901 1.55874 -2.12132 2.12132 
C -1.55874 2.683901 -0.795609 3 0 3 
z
" style="stroke: #dea39f"/>
    </defs>
    <g clip-path="url(#p92c67b8d82)">
     <use xlink:href="#m8352328fb1" x="72.017344" y="366.5544" style="fill: #dea39f; stroke: #dea39f"/>
     <use xlink:href="#m8352328fb1" x="89.815147" y="325.664007" style="fill: #dea39f; stroke: #dea39f"/>
     <use xlink:href="#m8352328fb1" x="107.32607" y="325.597992" style="fill: #dea39f; stroke: #dea39f"/>
     <use xlink:href="#m8352328fb1" x="124.826754" y="325.565883" style="fill: #dea39f; stroke: #dea39f"/>
     <use xlink:href="#m8352328fb1" x="143.144461" y="325.545594" style="fill: #dea39f; stroke: #dea39f"/>
     <use xlink:href="#m8352328fb1" x="160.807871" y="325.531143" style="fill: #dea39f; stroke: #dea39f"/>
     <use xlink:href="#m8352328fb1" x="178.557602" y="325.520109" style="fill: #dea39f; stroke: #dea39f"/>
     <use xlink:href="#m8352328fb1" x="196.893556" y="325.511288" style="fill: #dea39f; stroke: #dea39f"/>
     <use xlink:href="#m8352328fb1" x="214.480037" y="325.504005" style="fill: #dea39f; stroke: #dea39f"/>
     <use xlink:href="#m8352328fb1" x="232.016365" y="325.497845" style="fill: #dea39f; stroke: #dea39f"/>
     <use xlink:href="#m8352328fb1" x="250.184459" y="325.492536" style="fill: #dea39f; stroke: #dea39f"/>
     <use xlink:href="#m8352328fb1" x="267.906881" y="325.487891" style="fill: #dea39f; stroke: #dea39f"/>
     <use xlink:href="#m8352328fb1" x="285.595469" y="325.483778" style="fill: #dea39f; stroke: #dea39f"/>
     <use xlink:href="#m8352328fb1" x="305.158897" y="325.480098" style="fill: #dea39f; stroke: #dea39f"/>
     <use xlink:href="#m8352328fb1" x="321.987209" y="325.476777" style="fill: #dea39f; stroke: #dea39f"/>
     <use xlink:href="#m8352328fb1" x="338.817049" y="325.473758" style="fill: #dea39f; stroke: #dea39f"/>
     <use xlink:href="#m8352328fb1" x="357.667629" y="325.470997" style="fill: #dea39f; stroke: #dea39f"/>
     <use xlink:href="#m8352328fb1" x="375.209308" y="325.468456" style="fill: #dea39f; stroke: #dea39f"/>
     <use xlink:href="#m8352328fb1" x="392.926877" y="325.466107" style="fill: #dea39f; stroke: #dea39f"/>
     <use xlink:href="#m8352328fb1" x="411.954269" y="325.463926" style="fill: #dea39f; stroke: #dea39f"/>
     <use xlink:href="#m8352328fb1" x="429.329003" y="325.461893" style="fill: #dea39f; stroke: #dea39f"/>
     <use xlink:href="#m8352328fb1" x="446.67045" y="325.459991" style="fill: #dea39f; stroke: #dea39f"/>
     <use xlink:href="#m8352328fb1" x="464.444288" y="325.458207" style="fill: #dea39f; stroke: #dea39f"/>
     <use xlink:href="#m8352328fb1" x="482.430543" y="325.456527" style="fill: #dea39f; stroke: #dea39f"/>
     <use xlink:href="#m8352328fb1" x="499.840993" y="325.454942" style="fill: #dea39f; stroke: #dea39f"/>
     <use xlink:href="#m8352328fb1" x="518.392664" y="325.453442" style="fill: #dea39f; stroke: #dea39f"/>
     <use xlink:href="#m8352328fb1" x="518.400646" y="325.453442" style="fill: #dea39f; stroke: #dea39f"/>
    </g>
   </g>
   <g id="line2d_51">
    <path d="M 96.805598 362.303999 
L 121.940873 325.344004 
L 147.62204 325.344004 
L 172.644323 325.344004 
L 198.409316 325.344004 
L 223.098018 325.344004 
L 249.775828 325.344004 
L 276.602458 325.344004 
L 301.180764 325.344004 
L 325.228155 325.344004 
L 350.780647 325.344004 
L 375.798762 325.344004 
L 399.345685 325.344004 
L 424.871333 325.344004 
L 448.606637 325.344004 
L 472.555534 325.344004 
L 496.315604 325.344004 
L 520.462034 325.344004 
" clip-path="url(#p92c67b8d82)" style="fill: none; stroke: #1c24dc; stroke-width: 1.5; stroke-linecap: square"/>
    <defs>
     <path id="m28f06f965b" d="M 0 -5 
L -1.12257 -1.545085 
L -4.755283 -1.545085 
L -1.816356 0.59017 
L -2.938926 4.045085 
L -0 1.90983 
L 2.938926 4.045085 
L 1.816356 0.59017 
L 4.755283 -1.545085 
L 1.12257 -1.545085 
z
" style="stroke: #1c24dc; stroke-linejoin: bevel"/>
    </defs>
    <g clip-path="url(#p92c67b8d82)">
     <use xlink:href="#m28f06f965b" x="96.805598" y="362.303999" style="fill: #1c24dc; stroke: #1c24dc; stroke-linejoin: bevel"/>
     <use xlink:href="#m28f06f965b" x="121.940873" y="325.344004" style="fill: #1c24dc; stroke: #1c24dc; stroke-linejoin: bevel"/>
     <use xlink:href="#m28f06f965b" x="147.62204" y="325.344004" style="fill: #1c24dc; stroke: #1c24dc; stroke-linejoin: bevel"/>
     <use xlink:href="#m28f06f965b" x="172.644323" y="325.344004" style="fill: #1c24dc; stroke: #1c24dc; stroke-linejoin: bevel"/>
     <use xlink:href="#m28f06f965b" x="198.409316" y="325.344004" style="fill: #1c24dc; stroke: #1c24dc; stroke-linejoin: bevel"/>
     <use xlink:href="#m28f06f965b" x="223.098018" y="325.344004" style="fill: #1c24dc; stroke: #1c24dc; stroke-linejoin: bevel"/>
     <use xlink:href="#m28f06f965b" x="249.775828" y="325.344004" style="fill: #1c24dc; stroke: #1c24dc; stroke-linejoin: bevel"/>
     <use xlink:href="#m28f06f965b" x="276.602458" y="325.344004" style="fill: #1c24dc; stroke: #1c24dc; stroke-linejoin: bevel"/>
     <use xlink:href="#m28f06f965b" x="301.180764" y="325.344004" style="fill: #1c24dc; stroke: #1c24dc; stroke-linejoin: bevel"/>
     <use xlink:href="#m28f06f965b" x="325.228155" y="325.344004" style="fill: #1c24dc; stroke: #1c24dc; stroke-linejoin: bevel"/>
     <use xlink:href="#m28f06f965b" x="350.780647" y="325.344004" style="fill: #1c24dc; stroke: #1c24dc; stroke-linejoin: bevel"/>
     <use xlink:href="#m28f06f965b" x="375.798762" y="325.344004" style="fill: #1c24dc; stroke: #1c24dc; stroke-linejoin: bevel"/>
     <use xlink:href="#m28f06f965b" x="399.345685" y="325.344004" style="fill: #1c24dc; stroke: #1c24dc; stroke-linejoin: bevel"/>
     <use xlink:href="#m28f06f965b" x="424.871333" y="325.344004" style="fill: #1c24dc; stroke: #1c24dc; stroke-linejoin: bevel"/>
     <use xlink:href="#m28f06f965b" x="448.606637" y="325.344004" style="fill: #1c24dc; stroke: #1c24dc; stroke-linejoin: bevel"/>
     <use xlink:href="#m28f06f965b" x="472.555534" y="325.344004" style="fill: #1c24dc; stroke: #1c24dc; stroke-linejoin: bevel"/>
     <use xlink:href="#m28f06f965b" x="496.315604" y="325.344004" style="fill: #1c24dc; stroke: #1c24dc; stroke-linejoin: bevel"/>
     <use xlink:href="#m28f06f965b" x="520.462034" y="325.344004" style="fill: #1c24dc; stroke: #1c24dc; stroke-linejoin: bevel"/>
    </g>
   </g>
   <g id="line2d_52">
    <path d="M 95.823219 362.303999 
L 119.96225 325.344004 
L 145.682926 325.344004 
L 169.695696 325.344004 
L 195.860144 325.344004 
L 219.755296 325.344004 
L 243.240163 325.344004 
L 267.123538 325.344004 
L 290.934449 325.344004 
L 315.316543 325.344004 
L 338.996764 325.344004 
L 363.230872 325.344004 
L 387.029812 325.344004 
L 410.651522 325.344004 
L 434.56409 325.344004 
L 458.836189 325.344004 
L 482.696425 325.344004 
L 506.58039 325.344004 
L 529.791657 325.344004 
" clip-path="url(#p92c67b8d82)" style="fill: none; stroke-dasharray: 1.5,15; stroke-dashoffset: 0; stroke: #595fdc; stroke-width: 1.5"/>
    <defs>
     <path id="m61c4911d15" d="M 0 -3 
L -0.673542 -0.927051 
L -2.85317 -0.927051 
L -1.089814 0.354102 
L -1.763356 2.427051 
L -0 1.145898 
L 1.763356 2.427051 
L 1.089814 0.354102 
L 2.85317 -0.927051 
L 0.673542 -0.927051 
z
" style="stroke: #595fdc; stroke-linejoin: bevel"/>
    </defs>
    <g clip-path="url(#p92c67b8d82)">
     <use xlink:href="#m61c4911d15" x="95.823219" y="362.303999" style="fill: #595fdc; stroke: #595fdc; stroke-linejoin: bevel"/>
     <use xlink:href="#m61c4911d15" x="119.96225" y="325.344004" style="fill: #595fdc; stroke: #595fdc; stroke-linejoin: bevel"/>
     <use xlink:href="#m61c4911d15" x="145.682926" y="325.344004" style="fill: #595fdc; stroke: #595fdc; stroke-linejoin: bevel"/>
     <use xlink:href="#m61c4911d15" x="169.695696" y="325.344004" style="fill: #595fdc; stroke: #595fdc; stroke-linejoin: bevel"/>
     <use xlink:href="#m61c4911d15" x="195.860144" y="325.344004" style="fill: #595fdc; stroke: #595fdc; stroke-linejoin: bevel"/>
     <use xlink:href="#m61c4911d15" x="219.755296" y="325.344004" style="fill: #595fdc; stroke: #595fdc; stroke-linejoin: bevel"/>
     <use xlink:href="#m61c4911d15" x="243.240163" y="325.344004" style="fill: #595fdc; stroke: #595fdc; stroke-linejoin: bevel"/>
     <use xlink:href="#m61c4911d15" x="267.123538" y="325.344004" style="fill: #595fdc; stroke: #595fdc; stroke-linejoin: bevel"/>
     <use xlink:href="#m61c4911d15" x="290.934449" y="325.344004" style="fill: #595fdc; stroke: #595fdc; stroke-linejoin: bevel"/>
     <use xlink:href="#m61c4911d15" x="315.316543" y="325.344004" style="fill: #595fdc; stroke: #595fdc; stroke-linejoin: bevel"/>
     <use xlink:href="#m61c4911d15" x="338.996764" y="325.344004" style="fill: #595fdc; stroke: #595fdc; stroke-linejoin: bevel"/>
     <use xlink:href="#m61c4911d15" x="363.230872" y="325.344004" style="fill: #595fdc; stroke: #595fdc; stroke-linejoin: bevel"/>
     <use xlink:href="#m61c4911d15" x="387.029812" y="325.344004" style="fill: #595fdc; stroke: #595fdc; stroke-linejoin: bevel"/>
     <use xlink:href="#m61c4911d15" x="410.651522" y="325.344004" style="fill: #595fdc; stroke: #595fdc; stroke-linejoin: bevel"/>
     <use xlink:href="#m61c4911d15" x="434.56409" y="325.344004" style="fill: #595fdc; stroke: #595fdc; stroke-linejoin: bevel"/>
     <use xlink:href="#m61c4911d15" x="458.836189" y="325.344004" style="fill: #595fdc; stroke: #595fdc; stroke-linejoin: bevel"/>
     <use xlink:href="#m61c4911d15" x="482.696425" y="325.344004" style="fill: #595fdc; stroke: #595fdc; stroke-linejoin: bevel"/>
     <use xlink:href="#m61c4911d15" x="506.58039" y="325.344004" style="fill: #595fdc; stroke: #595fdc; stroke-linejoin: bevel"/>
     <use xlink:href="#m61c4911d15" x="529.791657" y="325.344004" style="fill: #595fdc; stroke: #595fdc; stroke-linejoin: bevel"/>
    </g>
   </g>
   <g id="line2d_53">
    <path d="M 95.454333 362.304004 
L 118.792281 325.344004 
L 142.860967 325.344004 
L 167.030785 325.344004 
L 190.603308 325.344004 
L 214.331923 325.344004 
L 238.710538 325.344004 
L 263.512427 325.344004 
L 288.03519 325.344004 
L 311.64858 325.344004 
L 336.187731 325.344004 
L 360.919097 325.344004 
L 387.227167 325.344004 
L 411.435743 325.344004 
L 434.790905 325.344004 
L 458.444313 325.344004 
L 482.556467 325.344004 
L 508.354124 325.344004 
L 532.036361 325.344004 
" clip-path="url(#p92c67b8d82)" style="fill: none; stroke-dasharray: 7.5,15; stroke-dashoffset: 0; stroke: #9598dc; stroke-width: 1.5"/>
    <defs>
     <path id="md975ab2b31" d="M 0 -3 
L -0.673542 -0.927051 
L -2.85317 -0.927051 
L -1.089814 0.354102 
L -1.763356 2.427051 
L -0 1.145898 
L 1.763356 2.427051 
L 1.089814 0.354102 
L 2.85317 -0.927051 
L 0.673542 -0.927051 
z
" style="stroke: #9598dc; stroke-linejoin: bevel"/>
    </defs>
    <g clip-path="url(#p92c67b8d82)">
     <use xlink:href="#md975ab2b31" x="95.454333" y="362.304004" style="fill: #9598dc; stroke: #9598dc; stroke-linejoin: bevel"/>
     <use xlink:href="#md975ab2b31" x="118.792281" y="325.344004" style="fill: #9598dc; stroke: #9598dc; stroke-linejoin: bevel"/>
     <use xlink:href="#md975ab2b31" x="142.860967" y="325.344004" style="fill: #9598dc; stroke: #9598dc; stroke-linejoin: bevel"/>
     <use xlink:href="#md975ab2b31" x="167.030785" y="325.344004" style="fill: #9598dc; stroke: #9598dc; stroke-linejoin: bevel"/>
     <use xlink:href="#md975ab2b31" x="190.603308" y="325.344004" style="fill: #9598dc; stroke: #9598dc; stroke-linejoin: bevel"/>
     <use xlink:href="#md975ab2b31" x="214.331923" y="325.344004" style="fill: #9598dc; stroke: #9598dc; stroke-linejoin: bevel"/>
     <use xlink:href="#md975ab2b31" x="238.710538" y="325.344004" style="fill: #9598dc; stroke: #9598dc; stroke-linejoin: bevel"/>
     <use xlink:href="#md975ab2b31" x="263.512427" y="325.344004" style="fill: #9598dc; stroke: #9598dc; stroke-linejoin: bevel"/>
     <use xlink:href="#md975ab2b31" x="288.03519" y="325.344004" style="fill: #9598dc; stroke: #9598dc; stroke-linejoin: bevel"/>
     <use xlink:href="#md975ab2b31" x="311.64858" y="325.344004" style="fill: #9598dc; stroke: #9598dc; stroke-linejoin: bevel"/>
     <use xlink:href="#md975ab2b31" x="336.187731" y="325.344004" style="fill: #9598dc; stroke: #9598dc; stroke-linejoin: bevel"/>
     <use xlink:href="#md975ab2b31" x="360.919097" y="325.344004" style="fill: #9598dc; stroke: #9598dc; stroke-linejoin: bevel"/>
     <use xlink:href="#md975ab2b31" x="387.227167" y="325.344004" style="fill: #9598dc; stroke: #9598dc; stroke-linejoin: bevel"/>
     <use xlink:href="#md975ab2b31" x="411.435743" y="325.344004" style="fill: #9598dc; stroke: #9598dc; stroke-linejoin: bevel"/>
     <use xlink:href="#md975ab2b31" x="434.790905" y="325.344004" style="fill: #9598dc; stroke: #9598dc; stroke-linejoin: bevel"/>
     <use xlink:href="#md975ab2b31" x="458.444313" y="325.344004" style="fill: #9598dc; stroke: #9598dc; stroke-linejoin: bevel"/>
     <use xlink:href="#md975ab2b31" x="482.556467" y="325.344004" style="fill: #9598dc; stroke: #9598dc; stroke-linejoin: bevel"/>
     <use xlink:href="#md975ab2b31" x="508.354124" y="325.344004" style="fill: #9598dc; stroke: #9598dc; stroke-linejoin: bevel"/>
     <use xlink:href="#md975ab2b31" x="532.036361" y="325.344004" style="fill: #9598dc; stroke: #9598dc; stroke-linejoin: bevel"/>
    </g>
   </g>
   <g id="patch_3">
    <path d="M 72 384.48 
L 72 51.84 
" style="fill: none; stroke: #000000; stroke-width: 0.8; stroke-linejoin: miter; stroke-linecap: square"/>
   </g>
   <g id="patch_4">
    <path d="M 518.4 384.48 
L 518.4 51.84 
" style="fill: none; stroke: #000000; stroke-width: 0.8; stroke-linejoin: miter; stroke-linecap: square"/>
   </g>
   <g id="patch_5">
    <path d="M 72 384.48 
L 518.4 384.48 
" style="fill: none; stroke: #000000; stroke-width: 0.8; stroke-linejoin: miter; stroke-linecap: square"/>
   </g>
   <g id="patch_6">
    <path d="M 72 51.84 
L 518.4 51.84 
" style="fill: none; stroke: #000000; stroke-width: 0.8; stroke-linejoin: miter; stroke-linecap: square"/>
   </g>
   <g id="legend_1">
    <g id="patch_7">
     <path d="M 410.2 315.34 
L 511.4 315.34 
Q 513.4 315.34 513.4 313.34 
L 513.4 58.84 
Q 513.4 56.84 511.4 56.84 
L 410.2 56.84 
Q 408.2 56.84 408.2 58.84 
L 408.2 313.34 
Q 408.2 315.34 410.2 315.34 
z
" style="fill: #ffffff; opacity: 0.8; stroke: #cccccc; stroke-linejoin: miter"/>
    </g>
    <g id="line2d_54">
     <path d="M 412.2 66.44 
L 422.2 66.44 
L 432.2 66.44 
" style="fill: none; stroke: #b6c800; stroke-width: 1.5; stroke-linecap: square"/>
     <g>
      <use xlink:href="#m71670b2205" x="422.2" y="66.44" style="fill: #b6c800; stroke: #b6c800; stroke-linejoin: miter"/>
     </g>
    </g>
    <g id="text_19">
     <!-- $PA_{C\searrow}(\mathbf{x}^0_{max})$ -->
     <g transform="translate(440.2 69.94) scale(0.1 -0.1)">
      <defs>
       <path id="DejaVuSans-Oblique-50" d="M 1081 4666 
L 2541 4666 
Q 3178 4666 3512 4369 
Q 3847 4072 3847 3500 
Q 3847 2731 3353 2303 
Q 2859 1875 1966 1875 
L 1172 1875 
L 806 0 
L 172 0 
L 1081 4666 
z
M 1613 4147 
L 1275 2394 
L 2069 2394 
Q 2606 2394 2893 2669 
Q 3181 2944 3181 3456 
Q 3181 3784 2986 3965 
Q 2791 4147 2438 4147 
L 1613 4147 
z
" transform="scale(0.015625)"/>
       <path id="DejaVuSans-Oblique-41" d="M 2356 4666 
L 3072 4666 
L 3938 0 
L 3278 0 
L 3084 1197 
L 984 1197 
L 325 0 
L -341 0 
L 2356 4666 
z
M 2584 4044 
L 1275 1722 
L 2988 1722 
L 2584 4044 
z
" transform="scale(0.015625)"/>
       <path id="DejaVuSans-Oblique-43" d="M 4447 4306 
L 4319 3641 
Q 4019 3944 3683 4091 
Q 3347 4238 2956 4238 
Q 2422 4238 2017 3981 
Q 1613 3725 1319 3200 
Q 1131 2863 1032 2486 
Q 934 2109 934 1728 
Q 934 1091 1264 756 
Q 1594 422 2222 422 
Q 2656 422 3056 561 
Q 3456 700 3834 978 
L 3688 231 
Q 3316 72 2936 -9 
Q 2556 -91 2175 -91 
Q 1278 -91 773 396 
Q 269 884 269 1753 
Q 269 2309 461 2846 
Q 653 3384 1013 3828 
Q 1394 4300 1883 4525 
Q 2372 4750 3022 4750 
Q 3422 4750 3780 4639 
Q 4138 4528 4447 4306 
z
" transform="scale(0.015625)"/>
       <path id="DejaVuSans-2198" d="M 4497 359 
L 4300 163 
L 2563 163 
L 2563 691 
L 3594 691 
L 900 3384 
L 1275 3759 
L 3969 1066 
L 3969 2097 
L 4497 2097 
L 4497 359 
z
" transform="scale(0.015625)"/>
       <path id="DejaVuSans-28" d="M 1984 4856 
Q 1566 4138 1362 3434 
Q 1159 2731 1159 2009 
Q 1159 1288 1364 580 
Q 1569 -128 1984 -844 
L 1484 -844 
Q 1016 -109 783 600 
Q 550 1309 550 2009 
Q 550 2706 781 3412 
Q 1013 4119 1484 4856 
L 1984 4856 
z
" transform="scale(0.015625)"/>
       <path id="DejaVuSans-Bold-78" d="M 1422 1791 
L 159 3500 
L 1344 3500 
L 2059 2463 
L 2784 3500 
L 3969 3500 
L 2706 1797 
L 4031 0 
L 2847 0 
L 2059 1106 
L 1281 0 
L 97 0 
L 1422 1791 
z
" transform="scale(0.015625)"/>
       <path id="DejaVuSans-Oblique-6d" d="M 5747 2113 
L 5338 0 
L 4763 0 
L 5166 2094 
Q 5191 2228 5203 2325 
Q 5216 2422 5216 2491 
Q 5216 2772 5059 2928 
Q 4903 3084 4622 3084 
Q 4203 3084 3875 2770 
Q 3547 2456 3450 1953 
L 3066 0 
L 2491 0 
L 2900 2094 
Q 2925 2209 2937 2307 
Q 2950 2406 2950 2484 
Q 2950 2769 2794 2926 
Q 2638 3084 2363 3084 
Q 1938 3084 1609 2770 
Q 1281 2456 1184 1953 
L 800 0 
L 225 0 
L 909 3500 
L 1484 3500 
L 1375 2956 
Q 1609 3263 1923 3423 
Q 2238 3584 2597 3584 
Q 2978 3584 3223 3384 
Q 3469 3184 3519 2828 
Q 3781 3197 4126 3390 
Q 4472 3584 4856 3584 
Q 5306 3584 5551 3325 
Q 5797 3066 5797 2591 
Q 5797 2488 5784 2364 
Q 5772 2241 5747 2113 
z
" transform="scale(0.015625)"/>
       <path id="DejaVuSans-Oblique-61" d="M 3438 1997 
L 3047 0 
L 2472 0 
L 2578 531 
Q 2325 219 2001 64 
Q 1678 -91 1281 -91 
Q 834 -91 548 182 
Q 263 456 263 884 
Q 263 1497 752 1853 
Q 1241 2209 2100 2209 
L 2900 2209 
L 2931 2363 
Q 2938 2388 2941 2417 
Q 2944 2447 2944 2509 
Q 2944 2788 2717 2942 
Q 2491 3097 2081 3097 
Q 1800 3097 1504 3025 
Q 1209 2953 897 2809 
L 997 3341 
Q 1322 3463 1633 3523 
Q 1944 3584 2234 3584 
Q 2853 3584 3176 3315 
Q 3500 3047 3500 2534 
Q 3500 2431 3484 2292 
Q 3469 2153 3438 1997 
z
M 2816 1759 
L 2241 1759 
Q 1534 1759 1195 1570 
Q 856 1381 856 984 
Q 856 709 1029 553 
Q 1203 397 1509 397 
Q 1978 397 2328 733 
Q 2678 1069 2791 1631 
L 2816 1759 
z
" transform="scale(0.015625)"/>
       <path id="DejaVuSans-Oblique-78" d="M 3841 3500 
L 2234 1784 
L 3219 0 
L 2559 0 
L 1819 1388 
L 531 0 
L -166 0 
L 1556 1844 
L 641 3500 
L 1300 3500 
L 1972 2234 
L 3144 3500 
L 3841 3500 
z
" transform="scale(0.015625)"/>
       <path id="DejaVuSans-29" d="M 513 4856 
L 1013 4856 
Q 1481 4119 1714 3412 
Q 1947 2706 1947 2009 
Q 1947 1309 1714 600 
Q 1481 -109 1013 -844 
L 513 -844 
Q 928 -128 1133 580 
Q 1338 1288 1338 2009 
Q 1338 2731 1133 3434 
Q 928 4138 513 4856 
z
" transform="scale(0.015625)"/>
      </defs>
      <use xlink:href="#DejaVuSans-Oblique-50" transform="translate(0 0.765625)"/>
      <use xlink:href="#DejaVuSans-Oblique-41" transform="translate(60.302734 0.765625)"/>
      <use xlink:href="#DejaVuSans-Oblique-43" transform="translate(128.710938 -15.640625) scale(0.7)"/>
      <use xlink:href="#DejaVuSans-2198" transform="translate(191.225586 -15.640625) scale(0.7)"/>
      <use xlink:href="#DejaVuSans-28" transform="translate(266.25 0.765625)"/>
      <use xlink:href="#DejaVuSans-Bold-78" transform="translate(305.263672 0.765625)"/>
      <use xlink:href="#DejaVuSans-30" transform="translate(370.722656 39.046875) scale(0.7)"/>
      <use xlink:href="#DejaVuSans-Oblique-6d" transform="translate(370.722656 -26.578125) scale(0.7)"/>
      <use xlink:href="#DejaVuSans-Oblique-61" transform="translate(438.911133 -26.578125) scale(0.7)"/>
      <use xlink:href="#DejaVuSans-Oblique-78" transform="translate(481.806641 -26.578125) scale(0.7)"/>
      <use xlink:href="#DejaVuSans-29" transform="translate(525.966797 0.765625)"/>
     </g>
    </g>
    <g id="line2d_55">
     <path d="M 412.2 83.54 
L 422.2 83.54 
L 432.2 83.54 
" style="fill: none; stroke-dasharray: 1.5,15; stroke-dashoffset: 0; stroke: #b8c348; stroke-width: 1.5"/>
     <g>
      <use xlink:href="#me1ae171262" x="422.2" y="83.54" style="fill: #b8c348; stroke: #b8c348; stroke-linejoin: miter"/>
     </g>
    </g>
    <g id="text_20">
     <!-- $PA_{C\searrow}(\mathbf{x}^0_{median})$ -->
     <g transform="translate(440.2 87.04) scale(0.1 -0.1)">
      <defs>
       <path id="DejaVuSans-Oblique-65" d="M 3078 2063 
Q 3088 2113 3092 2166 
Q 3097 2219 3097 2272 
Q 3097 2653 2873 2875 
Q 2650 3097 2266 3097 
Q 1838 3097 1509 2826 
Q 1181 2556 1013 2059 
L 3078 2063 
z
M 3578 1613 
L 903 1613 
Q 884 1494 878 1425 
Q 872 1356 872 1306 
Q 872 872 1139 634 
Q 1406 397 1894 397 
Q 2269 397 2603 481 
Q 2938 566 3225 728 
L 3116 159 
Q 2806 34 2476 -28 
Q 2147 -91 1806 -91 
Q 1078 -91 686 257 
Q 294 606 294 1247 
Q 294 1794 489 2264 
Q 684 2734 1063 3103 
Q 1306 3334 1642 3459 
Q 1978 3584 2356 3584 
Q 2950 3584 3301 3228 
Q 3653 2872 3653 2272 
Q 3653 2128 3634 1964 
Q 3616 1800 3578 1613 
z
" transform="scale(0.015625)"/>
       <path id="DejaVuSans-Oblique-64" d="M 2675 525 
Q 2444 222 2128 65 
Q 1813 -91 1428 -91 
Q 903 -91 598 267 
Q 294 625 294 1247 
Q 294 1766 478 2236 
Q 663 2706 1013 3078 
Q 1244 3325 1534 3454 
Q 1825 3584 2144 3584 
Q 2481 3584 2739 3421 
Q 2997 3259 3138 2956 
L 3513 4863 
L 4091 4863 
L 3144 0 
L 2566 0 
L 2675 525 
z
M 891 1350 
Q 891 897 1095 644 
Q 1300 391 1663 391 
Q 1931 391 2161 520 
Q 2391 650 2566 903 
Q 2750 1166 2856 1509 
Q 2963 1853 2963 2188 
Q 2963 2622 2758 2865 
Q 2553 3109 2194 3109 
Q 1922 3109 1687 2981 
Q 1453 2853 1288 2613 
Q 1106 2353 998 2009 
Q 891 1666 891 1350 
z
" transform="scale(0.015625)"/>
       <path id="DejaVuSans-Oblique-69" d="M 1172 4863 
L 1747 4863 
L 1606 4134 
L 1031 4134 
L 1172 4863 
z
M 909 3500 
L 1484 3500 
L 800 0 
L 225 0 
L 909 3500 
z
" transform="scale(0.015625)"/>
       <path id="DejaVuSans-Oblique-6e" d="M 3566 2113 
L 3156 0 
L 2578 0 
L 2988 2091 
Q 3016 2238 3031 2350 
Q 3047 2463 3047 2528 
Q 3047 2791 2881 2937 
Q 2716 3084 2419 3084 
Q 1956 3084 1622 2776 
Q 1288 2469 1184 1941 
L 800 0 
L 225 0 
L 903 3500 
L 1478 3500 
L 1363 2950 
Q 1603 3253 1940 3418 
Q 2278 3584 2650 3584 
Q 3113 3584 3367 3334 
Q 3622 3084 3622 2631 
Q 3622 2519 3608 2391 
Q 3594 2263 3566 2113 
z
" transform="scale(0.015625)"/>
      </defs>
      <use xlink:href="#DejaVuSans-Oblique-50" transform="translate(0 0.70625)"/>
      <use xlink:href="#DejaVuSans-Oblique-41" transform="translate(60.302734 0.70625)"/>
      <use xlink:href="#DejaVuSans-Oblique-43" transform="translate(128.710938 -15.7) scale(0.7)"/>
      <use xlink:href="#DejaVuSans-2198" transform="translate(191.225586 -15.7) scale(0.7)"/>
      <use xlink:href="#DejaVuSans-28" transform="translate(266.25 0.70625)"/>
      <use xlink:href="#DejaVuSans-Bold-78" transform="translate(305.263672 0.70625)"/>
      <use xlink:href="#DejaVuSans-30" transform="translate(370.722656 40.046875) scale(0.7)"/>
      <use xlink:href="#DejaVuSans-Oblique-6d" transform="translate(370.722656 -26.6375) scale(0.7)"/>
      <use xlink:href="#DejaVuSans-Oblique-65" transform="translate(438.911133 -26.6375) scale(0.7)"/>
      <use xlink:href="#DejaVuSans-Oblique-64" transform="translate(481.977539 -26.6375) scale(0.7)"/>
      <use xlink:href="#DejaVuSans-Oblique-69" transform="translate(526.411133 -26.6375) scale(0.7)"/>
      <use xlink:href="#DejaVuSans-Oblique-61" transform="translate(545.859375 -26.6375) scale(0.7)"/>
      <use xlink:href="#DejaVuSans-Oblique-6e" transform="translate(588.754883 -26.6375) scale(0.7)"/>
      <use xlink:href="#DejaVuSans-29" transform="translate(635.854492 0.70625)"/>
     </g>
    </g>
    <g id="line2d_56">
     <path d="M 412.2 100.64 
L 422.2 100.64 
L 432.2 100.64 
" style="fill: none; stroke-dasharray: 7.5,15; stroke-dashoffset: 0; stroke: #bec291; stroke-width: 1.5"/>
     <g>
      <use xlink:href="#m80a8494224" x="422.2" y="100.64" style="fill: #bec291; stroke: #bec291; stroke-linejoin: miter"/>
     </g>
    </g>
    <g id="text_21">
     <!-- $PA_{C\searrow}(\mathbf{x}^0_{min})$ -->
     <g transform="translate(440.2 104.14) scale(0.1 -0.1)">
      <use xlink:href="#DejaVuSans-Oblique-50" transform="translate(0 0.70625)"/>
      <use xlink:href="#DejaVuSans-Oblique-41" transform="translate(60.302734 0.70625)"/>
      <use xlink:href="#DejaVuSans-Oblique-43" transform="translate(128.710938 -15.7) scale(0.7)"/>
      <use xlink:href="#DejaVuSans-2198" transform="translate(191.225586 -15.7) scale(0.7)"/>
      <use xlink:href="#DejaVuSans-28" transform="translate(266.25 0.70625)"/>
      <use xlink:href="#DejaVuSans-Bold-78" transform="translate(305.263672 0.70625)"/>
      <use xlink:href="#DejaVuSans-30" transform="translate(370.722656 40.046875) scale(0.7)"/>
      <use xlink:href="#DejaVuSans-Oblique-6d" transform="translate(370.722656 -26.6375) scale(0.7)"/>
      <use xlink:href="#DejaVuSans-Oblique-69" transform="translate(438.911133 -26.6375) scale(0.7)"/>
      <use xlink:href="#DejaVuSans-Oblique-6e" transform="translate(458.359375 -26.6375) scale(0.7)"/>
      <use xlink:href="#DejaVuSans-29" transform="translate(505.458984 0.70625)"/>
     </g>
    </g>
    <g id="line2d_57">
     <path d="M 412.2 117.54 
L 422.2 117.54 
L 432.2 117.54 
" style="fill: none; stroke: #f119c3; stroke-width: 1.5; stroke-linecap: square"/>
     <g>
      <use xlink:href="#mfc2db402e7" x="422.2" y="117.54" style="fill: #f119c3; stroke: #f119c3; stroke-linejoin: miter"/>
     </g>
    </g>
    <g id="text_22">
     <!-- $PA_{C\nearrow}(\mathbf{x}^0_{max})$ -->
     <g transform="translate(440.2 121.04) scale(0.1 -0.1)">
      <defs>
       <path id="DejaVuSans-2197" d="M 4300 3759 
L 4497 3563 
L 4497 1825 
L 3969 1825 
L 3969 2856 
L 1275 163 
L 900 538 
L 3594 3231 
L 2563 3231 
L 2563 3759 
L 4300 3759 
z
" transform="scale(0.015625)"/>
      </defs>
      <use xlink:href="#DejaVuSans-Oblique-50" transform="translate(0 0.765625)"/>
      <use xlink:href="#DejaVuSans-Oblique-41" transform="translate(60.302734 0.765625)"/>
      <use xlink:href="#DejaVuSans-Oblique-43" transform="translate(128.710938 -15.640625) scale(0.7)"/>
      <use xlink:href="#DejaVuSans-2197" transform="translate(191.225586 -15.640625) scale(0.7)"/>
      <use xlink:href="#DejaVuSans-28" transform="translate(266.25 0.765625)"/>
      <use xlink:href="#DejaVuSans-Bold-78" transform="translate(305.263672 0.765625)"/>
      <use xlink:href="#DejaVuSans-30" transform="translate(370.722656 39.046875) scale(0.7)"/>
      <use xlink:href="#DejaVuSans-Oblique-6d" transform="translate(370.722656 -26.578125) scale(0.7)"/>
      <use xlink:href="#DejaVuSans-Oblique-61" transform="translate(438.911133 -26.578125) scale(0.7)"/>
      <use xlink:href="#DejaVuSans-Oblique-78" transform="translate(481.806641 -26.578125) scale(0.7)"/>
      <use xlink:href="#DejaVuSans-29" transform="translate(525.966797 0.765625)"/>
     </g>
    </g>
    <g id="line2d_58">
     <path d="M 412.2 134.64 
L 422.2 134.64 
L 432.2 134.64 
" style="fill: none; stroke-dasharray: 1.5,15; stroke-dashoffset: 0; stroke: #f190dd; stroke-width: 1.5"/>
     <g>
      <use xlink:href="#m65c286fd2f" x="422.2" y="134.64" style="fill: #f190dd; stroke: #f190dd; stroke-linejoin: miter"/>
     </g>
    </g>
    <g id="text_23">
     <!-- $PA_{C\nearrow}(\mathbf{x}^0_{median})$ -->
     <g transform="translate(440.2 138.14) scale(0.1 -0.1)">
      <use xlink:href="#DejaVuSans-Oblique-50" transform="translate(0 0.70625)"/>
      <use xlink:href="#DejaVuSans-Oblique-41" transform="translate(60.302734 0.70625)"/>
      <use xlink:href="#DejaVuSans-Oblique-43" transform="translate(128.710938 -15.7) scale(0.7)"/>
      <use xlink:href="#DejaVuSans-2197" transform="translate(191.225586 -15.7) scale(0.7)"/>
      <use xlink:href="#DejaVuSans-28" transform="translate(266.25 0.70625)"/>
      <use xlink:href="#DejaVuSans-Bold-78" transform="translate(305.263672 0.70625)"/>
      <use xlink:href="#DejaVuSans-30" transform="translate(370.722656 40.046875) scale(0.7)"/>
      <use xlink:href="#DejaVuSans-Oblique-6d" transform="translate(370.722656 -26.6375) scale(0.7)"/>
      <use xlink:href="#DejaVuSans-Oblique-65" transform="translate(438.911133 -26.6375) scale(0.7)"/>
      <use xlink:href="#DejaVuSans-Oblique-64" transform="translate(481.977539 -26.6375) scale(0.7)"/>
      <use xlink:href="#DejaVuSans-Oblique-69" transform="translate(526.411133 -26.6375) scale(0.7)"/>
      <use xlink:href="#DejaVuSans-Oblique-61" transform="translate(545.859375 -26.6375) scale(0.7)"/>
      <use xlink:href="#DejaVuSans-Oblique-6e" transform="translate(588.754883 -26.6375) scale(0.7)"/>
      <use xlink:href="#DejaVuSans-29" transform="translate(635.854492 0.70625)"/>
     </g>
    </g>
    <g id="line2d_59">
     <path d="M 412.2 151.74 
L 422.2 151.74 
L 432.2 151.74 
" style="fill: none; stroke-dasharray: 7.5,15; stroke-dashoffset: 0; stroke: #ecc0e3; stroke-width: 1.5"/>
     <g>
      <use xlink:href="#m1fd80f5819" x="422.2" y="151.74" style="fill: #ecc0e3; stroke: #ecc0e3; stroke-linejoin: miter"/>
     </g>
    </g>
    <g id="text_24">
     <!-- $PA_{C\nearrow}(\mathbf{x}^0_{min})$ -->
     <g transform="translate(440.2 155.24) scale(0.1 -0.1)">
      <use xlink:href="#DejaVuSans-Oblique-50" transform="translate(0 0.70625)"/>
      <use xlink:href="#DejaVuSans-Oblique-41" transform="translate(60.302734 0.70625)"/>
      <use xlink:href="#DejaVuSans-Oblique-43" transform="translate(128.710938 -15.7) scale(0.7)"/>
      <use xlink:href="#DejaVuSans-2197" transform="translate(191.225586 -15.7) scale(0.7)"/>
      <use xlink:href="#DejaVuSans-28" transform="translate(266.25 0.70625)"/>
      <use xlink:href="#DejaVuSans-Bold-78" transform="translate(305.263672 0.70625)"/>
      <use xlink:href="#DejaVuSans-30" transform="translate(370.722656 40.046875) scale(0.7)"/>
      <use xlink:href="#DejaVuSans-Oblique-6d" transform="translate(370.722656 -26.6375) scale(0.7)"/>
      <use xlink:href="#DejaVuSans-Oblique-69" transform="translate(438.911133 -26.6375) scale(0.7)"/>
      <use xlink:href="#DejaVuSans-Oblique-6e" transform="translate(458.359375 -26.6375) scale(0.7)"/>
      <use xlink:href="#DejaVuSans-29" transform="translate(505.458984 0.70625)"/>
     </g>
    </g>
    <g id="line2d_60">
     <path d="M 412.2 168.64 
L 422.2 168.64 
L 432.2 168.64 
" style="fill: none; stroke: #0d5915; stroke-width: 1.5; stroke-linecap: square"/>
     <g>
      <use xlink:href="#m39bb62fe10" x="422.2" y="168.64" style="fill: #0d5915; stroke: #0d5915"/>
     </g>
    </g>
    <g id="text_25">
     <!-- $IPDD(\mathbf{x}^0_{max})$ -->
     <g transform="translate(440.2 172.14) scale(0.1 -0.1)">
      <defs>
       <path id="DejaVuSans-Oblique-49" d="M 1081 4666 
L 1716 4666 
L 806 0 
L 172 0 
L 1081 4666 
z
" transform="scale(0.015625)"/>
       <path id="DejaVuSans-Oblique-44" d="M 1081 4666 
L 2438 4666 
Q 3519 4666 4070 4208 
Q 4622 3750 4622 2847 
Q 4622 2250 4412 1698 
Q 4203 1147 3834 769 
Q 3463 381 2891 190 
Q 2319 0 1538 0 
L 172 0 
L 1081 4666 
z
M 1613 4147 
L 909 519 
L 1734 519 
Q 2794 519 3375 1128 
Q 3956 1738 3956 2847 
Q 3956 3519 3581 3833 
Q 3206 4147 2406 4147 
L 1613 4147 
z
" transform="scale(0.015625)"/>
      </defs>
      <use xlink:href="#DejaVuSans-Oblique-49" transform="translate(0 0.765625)"/>
      <use xlink:href="#DejaVuSans-Oblique-50" transform="translate(29.492188 0.765625)"/>
      <use xlink:href="#DejaVuSans-Oblique-44" transform="translate(89.794922 0.765625)"/>
      <use xlink:href="#DejaVuSans-Oblique-44" transform="translate(166.796875 0.765625)"/>
      <use xlink:href="#DejaVuSans-28" transform="translate(243.798828 0.765625)"/>
      <use xlink:href="#DejaVuSans-Bold-78" transform="translate(282.8125 0.765625)"/>
      <use xlink:href="#DejaVuSans-30" transform="translate(348.271484 39.046875) scale(0.7)"/>
      <use xlink:href="#DejaVuSans-Oblique-6d" transform="translate(348.271484 -26.578125) scale(0.7)"/>
      <use xlink:href="#DejaVuSans-Oblique-61" transform="translate(416.459961 -26.578125) scale(0.7)"/>
      <use xlink:href="#DejaVuSans-Oblique-78" transform="translate(459.355469 -26.578125) scale(0.7)"/>
      <use xlink:href="#DejaVuSans-29" transform="translate(503.515625 0.765625)"/>
     </g>
    </g>
    <g id="line2d_61">
     <path d="M 412.2 185.74 
L 422.2 185.74 
L 432.2 185.74 
" style="fill: none; stroke-dasharray: 1.5,15; stroke-dashoffset: 0; stroke: #6ec977; stroke-width: 1.5"/>
     <g>
      <use xlink:href="#ma9202dfefa" x="422.2" y="185.74" style="fill: #6ec977; stroke: #6ec977"/>
     </g>
    </g>
    <g id="text_26">
     <!-- $IPDD(\mathbf{x}^0_{median})$ -->
     <g transform="translate(440.2 189.24) scale(0.1 -0.1)">
      <use xlink:href="#DejaVuSans-Oblique-49" transform="translate(0 0.70625)"/>
      <use xlink:href="#DejaVuSans-Oblique-50" transform="translate(29.492188 0.70625)"/>
      <use xlink:href="#DejaVuSans-Oblique-44" transform="translate(89.794922 0.70625)"/>
      <use xlink:href="#DejaVuSans-Oblique-44" transform="translate(166.796875 0.70625)"/>
      <use xlink:href="#DejaVuSans-28" transform="translate(243.798828 0.70625)"/>
      <use xlink:href="#DejaVuSans-Bold-78" transform="translate(282.8125 0.70625)"/>
      <use xlink:href="#DejaVuSans-30" transform="translate(348.271484 40.046875) scale(0.7)"/>
      <use xlink:href="#DejaVuSans-Oblique-6d" transform="translate(348.271484 -26.6375) scale(0.7)"/>
      <use xlink:href="#DejaVuSans-Oblique-65" transform="translate(416.459961 -26.6375) scale(0.7)"/>
      <use xlink:href="#DejaVuSans-Oblique-64" transform="translate(459.526367 -26.6375) scale(0.7)"/>
      <use xlink:href="#DejaVuSans-Oblique-69" transform="translate(503.959961 -26.6375) scale(0.7)"/>
      <use xlink:href="#DejaVuSans-Oblique-61" transform="translate(523.408203 -26.6375) scale(0.7)"/>
      <use xlink:href="#DejaVuSans-Oblique-6e" transform="translate(566.303711 -26.6375) scale(0.7)"/>
      <use xlink:href="#DejaVuSans-29" transform="translate(613.40332 0.70625)"/>
     </g>
    </g>
    <g id="line2d_62">
     <path d="M 412.2 202.84 
L 422.2 202.84 
L 432.2 202.84 
" style="fill: none; stroke-dasharray: 7.5,15; stroke-dashoffset: 0; stroke: #96f6a0; stroke-width: 1.5"/>
     <g>
      <use xlink:href="#m5d2b329664" x="422.2" y="202.84" style="fill: #96f6a0; stroke: #96f6a0"/>
     </g>
    </g>
    <g id="text_27">
     <!-- $IPDD(\mathbf{x}^0_{min})$ -->
     <g transform="translate(440.2 206.34) scale(0.1 -0.1)">
      <use xlink:href="#DejaVuSans-Oblique-49" transform="translate(0 0.70625)"/>
      <use xlink:href="#DejaVuSans-Oblique-50" transform="translate(29.492188 0.70625)"/>
      <use xlink:href="#DejaVuSans-Oblique-44" transform="translate(89.794922 0.70625)"/>
      <use xlink:href="#DejaVuSans-Oblique-44" transform="translate(166.796875 0.70625)"/>
      <use xlink:href="#DejaVuSans-28" transform="translate(243.798828 0.70625)"/>
      <use xlink:href="#DejaVuSans-Bold-78" transform="translate(282.8125 0.70625)"/>
      <use xlink:href="#DejaVuSans-30" transform="translate(348.271484 40.046875) scale(0.7)"/>
      <use xlink:href="#DejaVuSans-Oblique-6d" transform="translate(348.271484 -26.6375) scale(0.7)"/>
      <use xlink:href="#DejaVuSans-Oblique-69" transform="translate(416.459961 -26.6375) scale(0.7)"/>
      <use xlink:href="#DejaVuSans-Oblique-6e" transform="translate(435.908203 -26.6375) scale(0.7)"/>
      <use xlink:href="#DejaVuSans-29" transform="translate(483.007812 0.70625)"/>
     </g>
    </g>
    <g id="line2d_63">
     <path d="M 412.2 219.74 
L 422.2 219.74 
L 432.2 219.74 
" style="fill: none; stroke: #e31d1d; stroke-width: 1.5; stroke-linecap: square"/>
     <g>
      <use xlink:href="#mf8cb733e6e" x="422.2" y="219.74" style="fill: #e31d1d; stroke: #e31d1d"/>
     </g>
    </g>
    <g id="text_28">
     <!-- $GDPA(\mathbf{x}^0_{max})$ -->
     <g transform="translate(440.2 223.24) scale(0.1 -0.1)">
      <defs>
       <path id="DejaVuSans-Oblique-47" d="M 3494 697 
L 3738 1919 
L 2700 1919 
L 2797 2438 
L 4453 2438 
L 4050 384 
Q 3634 156 3143 32 
Q 2653 -91 2156 -91 
Q 1278 -91 783 396 
Q 288 884 288 1753 
Q 288 2475 589 3126 
Q 891 3778 1422 4213 
Q 1756 4484 2153 4617 
Q 2550 4750 3034 4750 
Q 3472 4750 3873 4639 
Q 4275 4528 4641 4306 
L 4513 3634 
Q 4231 3928 3853 4083 
Q 3475 4238 3047 4238 
Q 2550 4238 2172 4048 
Q 1794 3859 1497 3463 
Q 1244 3125 1098 2667 
Q 953 2209 953 1734 
Q 953 1081 1287 751 
Q 1622 422 2284 422 
Q 2616 422 2925 492 
Q 3234 563 3494 697 
z
" transform="scale(0.015625)"/>
      </defs>
      <use xlink:href="#DejaVuSans-Oblique-47" transform="translate(0 0.765625)"/>
      <use xlink:href="#DejaVuSans-Oblique-44" transform="translate(77.490234 0.765625)"/>
      <use xlink:href="#DejaVuSans-Oblique-50" transform="translate(154.492188 0.765625)"/>
      <use xlink:href="#DejaVuSans-Oblique-41" transform="translate(214.794922 0.765625)"/>
      <use xlink:href="#DejaVuSans-28" transform="translate(283.203125 0.765625)"/>
      <use xlink:href="#DejaVuSans-Bold-78" transform="translate(322.216797 0.765625)"/>
      <use xlink:href="#DejaVuSans-30" transform="translate(387.675781 39.046875) scale(0.7)"/>
      <use xlink:href="#DejaVuSans-Oblique-6d" transform="translate(387.675781 -26.578125) scale(0.7)"/>
      <use xlink:href="#DejaVuSans-Oblique-61" transform="translate(455.864258 -26.578125) scale(0.7)"/>
      <use xlink:href="#DejaVuSans-Oblique-78" transform="translate(498.759766 -26.578125) scale(0.7)"/>
      <use xlink:href="#DejaVuSans-29" transform="translate(542.919922 0.765625)"/>
     </g>
    </g>
    <g id="line2d_64">
     <path d="M 412.2 236.84 
L 422.2 236.84 
L 432.2 236.84 
" style="fill: none; stroke-dasharray: 1.5,15; stroke-dashoffset: 0; stroke: #df6f67; stroke-width: 1.5"/>
     <g>
      <use xlink:href="#m5df2f16870" x="422.2" y="236.84" style="fill: #df6f67; stroke: #df6f67"/>
     </g>
    </g>
    <g id="text_29">
     <!-- $GDPA(\mathbf{x}^0_{median})$ -->
     <g transform="translate(440.2 240.34) scale(0.1 -0.1)">
      <use xlink:href="#DejaVuSans-Oblique-47" transform="translate(0 0.70625)"/>
      <use xlink:href="#DejaVuSans-Oblique-44" transform="translate(77.490234 0.70625)"/>
      <use xlink:href="#DejaVuSans-Oblique-50" transform="translate(154.492188 0.70625)"/>
      <use xlink:href="#DejaVuSans-Oblique-41" transform="translate(214.794922 0.70625)"/>
      <use xlink:href="#DejaVuSans-28" transform="translate(283.203125 0.70625)"/>
      <use xlink:href="#DejaVuSans-Bold-78" transform="translate(322.216797 0.70625)"/>
      <use xlink:href="#DejaVuSans-30" transform="translate(387.675781 40.046875) scale(0.7)"/>
      <use xlink:href="#DejaVuSans-Oblique-6d" transform="translate(387.675781 -26.6375) scale(0.7)"/>
      <use xlink:href="#DejaVuSans-Oblique-65" transform="translate(455.864258 -26.6375) scale(0.7)"/>
      <use xlink:href="#DejaVuSans-Oblique-64" transform="translate(498.930664 -26.6375) scale(0.7)"/>
      <use xlink:href="#DejaVuSans-Oblique-69" transform="translate(543.364258 -26.6375) scale(0.7)"/>
      <use xlink:href="#DejaVuSans-Oblique-61" transform="translate(562.8125 -26.6375) scale(0.7)"/>
      <use xlink:href="#DejaVuSans-Oblique-6e" transform="translate(605.708008 -26.6375) scale(0.7)"/>
      <use xlink:href="#DejaVuSans-29" transform="translate(652.807617 0.70625)"/>
     </g>
    </g>
    <g id="line2d_65">
     <path d="M 412.2 253.94 
L 422.2 253.94 
L 432.2 253.94 
" style="fill: none; stroke-dasharray: 7.5,15; stroke-dashoffset: 0; stroke: #dea39f; stroke-width: 1.5"/>
     <g>
      <use xlink:href="#m8352328fb1" x="422.2" y="253.94" style="fill: #dea39f; stroke: #dea39f"/>
     </g>
    </g>
    <g id="text_30">
     <!-- $GDPA(\mathbf{x}^0_{min})$ -->
     <g transform="translate(440.2 257.44) scale(0.1 -0.1)">
      <use xlink:href="#DejaVuSans-Oblique-47" transform="translate(0 0.70625)"/>
      <use xlink:href="#DejaVuSans-Oblique-44" transform="translate(77.490234 0.70625)"/>
      <use xlink:href="#DejaVuSans-Oblique-50" transform="translate(154.492188 0.70625)"/>
      <use xlink:href="#DejaVuSans-Oblique-41" transform="translate(214.794922 0.70625)"/>
      <use xlink:href="#DejaVuSans-28" transform="translate(283.203125 0.70625)"/>
      <use xlink:href="#DejaVuSans-Bold-78" transform="translate(322.216797 0.70625)"/>
      <use xlink:href="#DejaVuSans-30" transform="translate(387.675781 40.046875) scale(0.7)"/>
      <use xlink:href="#DejaVuSans-Oblique-6d" transform="translate(387.675781 -26.6375) scale(0.7)"/>
      <use xlink:href="#DejaVuSans-Oblique-69" transform="translate(455.864258 -26.6375) scale(0.7)"/>
      <use xlink:href="#DejaVuSans-Oblique-6e" transform="translate(475.3125 -26.6375) scale(0.7)"/>
      <use xlink:href="#DejaVuSans-29" transform="translate(522.412109 0.70625)"/>
     </g>
    </g>
    <g id="line2d_66">
     <path d="M 412.2 270.84 
L 422.2 270.84 
L 432.2 270.84 
" style="fill: none; stroke: #1c24dc; stroke-width: 1.5; stroke-linecap: square"/>
     <g>
      <use xlink:href="#m28f06f965b" x="422.2" y="270.84" style="fill: #1c24dc; stroke: #1c24dc; stroke-linejoin: bevel"/>
     </g>
    </g>
    <g id="text_31">
     <!-- $PGA(\mathbf{x}^0_{max})$ -->
     <g transform="translate(440.2 274.34) scale(0.1 -0.1)">
      <use xlink:href="#DejaVuSans-Oblique-50" transform="translate(0 0.765625)"/>
      <use xlink:href="#DejaVuSans-Oblique-47" transform="translate(60.302734 0.765625)"/>
      <use xlink:href="#DejaVuSans-Oblique-41" transform="translate(137.792969 0.765625)"/>
      <use xlink:href="#DejaVuSans-28" transform="translate(206.201172 0.765625)"/>
      <use xlink:href="#DejaVuSans-Bold-78" transform="translate(245.214844 0.765625)"/>
      <use xlink:href="#DejaVuSans-30" transform="translate(310.673828 39.046875) scale(0.7)"/>
      <use xlink:href="#DejaVuSans-Oblique-6d" transform="translate(310.673828 -26.578125) scale(0.7)"/>
      <use xlink:href="#DejaVuSans-Oblique-61" transform="translate(378.862305 -26.578125) scale(0.7)"/>
      <use xlink:href="#DejaVuSans-Oblique-78" transform="translate(421.757812 -26.578125) scale(0.7)"/>
      <use xlink:href="#DejaVuSans-29" transform="translate(465.917969 0.765625)"/>
     </g>
    </g>
    <g id="line2d_67">
     <path d="M 412.2 287.94 
L 422.2 287.94 
L 432.2 287.94 
" style="fill: none; stroke-dasharray: 1.5,15; stroke-dashoffset: 0; stroke: #595fdc; stroke-width: 1.5"/>
     <g>
      <use xlink:href="#m61c4911d15" x="422.2" y="287.94" style="fill: #595fdc; stroke: #595fdc; stroke-linejoin: bevel"/>
     </g>
    </g>
    <g id="text_32">
     <!-- $PGA(\mathbf{x}^0_{median})$ -->
     <g transform="translate(440.2 291.44) scale(0.1 -0.1)">
      <use xlink:href="#DejaVuSans-Oblique-50" transform="translate(0 0.70625)"/>
      <use xlink:href="#DejaVuSans-Oblique-47" transform="translate(60.302734 0.70625)"/>
      <use xlink:href="#DejaVuSans-Oblique-41" transform="translate(137.792969 0.70625)"/>
      <use xlink:href="#DejaVuSans-28" transform="translate(206.201172 0.70625)"/>
      <use xlink:href="#DejaVuSans-Bold-78" transform="translate(245.214844 0.70625)"/>
      <use xlink:href="#DejaVuSans-30" transform="translate(310.673828 40.046875) scale(0.7)"/>
      <use xlink:href="#DejaVuSans-Oblique-6d" transform="translate(310.673828 -26.6375) scale(0.7)"/>
      <use xlink:href="#DejaVuSans-Oblique-65" transform="translate(378.862305 -26.6375) scale(0.7)"/>
      <use xlink:href="#DejaVuSans-Oblique-64" transform="translate(421.928711 -26.6375) scale(0.7)"/>
      <use xlink:href="#DejaVuSans-Oblique-69" transform="translate(466.362305 -26.6375) scale(0.7)"/>
      <use xlink:href="#DejaVuSans-Oblique-61" transform="translate(485.810547 -26.6375) scale(0.7)"/>
      <use xlink:href="#DejaVuSans-Oblique-6e" transform="translate(528.706055 -26.6375) scale(0.7)"/>
      <use xlink:href="#DejaVuSans-29" transform="translate(575.805664 0.70625)"/>
     </g>
    </g>
    <g id="line2d_68">
     <path d="M 412.2 305.04 
L 422.2 305.04 
L 432.2 305.04 
" style="fill: none; stroke-dasharray: 7.5,15; stroke-dashoffset: 0; stroke: #9598dc; stroke-width: 1.5"/>
     <g>
      <use xlink:href="#md975ab2b31" x="422.2" y="305.04" style="fill: #9598dc; stroke: #9598dc; stroke-linejoin: bevel"/>
     </g>
    </g>
    <g id="text_33">
     <!-- $PGA(\mathbf{x}^0_{min})$ -->
     <g transform="translate(440.2 308.54) scale(0.1 -0.1)">
      <use xlink:href="#DejaVuSans-Oblique-50" transform="translate(0 0.70625)"/>
      <use xlink:href="#DejaVuSans-Oblique-47" transform="translate(60.302734 0.70625)"/>
      <use xlink:href="#DejaVuSans-Oblique-41" transform="translate(137.792969 0.70625)"/>
      <use xlink:href="#DejaVuSans-28" transform="translate(206.201172 0.70625)"/>
      <use xlink:href="#DejaVuSans-Bold-78" transform="translate(245.214844 0.70625)"/>
      <use xlink:href="#DejaVuSans-30" transform="translate(310.673828 40.046875) scale(0.7)"/>
      <use xlink:href="#DejaVuSans-Oblique-6d" transform="translate(310.673828 -26.6375) scale(0.7)"/>
      <use xlink:href="#DejaVuSans-Oblique-69" transform="translate(378.862305 -26.6375) scale(0.7)"/>
      <use xlink:href="#DejaVuSans-Oblique-6e" transform="translate(398.310547 -26.6375) scale(0.7)"/>
      <use xlink:href="#DejaVuSans-29" transform="translate(445.410156 0.70625)"/>
     </g>
    </g>
   </g>
  </g>
 </g>
 <defs>
  <clipPath id="p92c67b8d82">
   <rect x="72" y="51.84" width="446.4" height="332.64"/>
  </clipPath>
 </defs>
</svg>
