<?xml version="1.0" encoding="utf-8" standalone="no"?>
<!DOCTYPE svg PUBLIC "-//W3C//DTD SVG 1.1//EN"
  "http://www.w3.org/Graphics/SVG/1.1/DTD/svg11.dtd">
<svg xmlns:xlink="http://www.w3.org/1999/xlink" width="864pt" height="432pt" viewBox="0 0 864 432" xmlns="http://www.w3.org/2000/svg" version="1.1">
 <metadata>
  <rdf:RDF xmlns:dc="http://purl.org/dc/elements/1.1/" xmlns:cc="http://creativecommons.org/ns#" xmlns:rdf="http://www.w3.org/1999/02/22-rdf-syntax-ns#">
   <cc:Work>
    <dc:type rdf:resource="http://purl.org/dc/dcmitype/StillImage"/>
    <dc:date>2025-03-28T12:44:15.965916</dc:date>
    <dc:format>image/svg+xml</dc:format>
    <dc:creator>
     <cc:Agent>
      <dc:title>Matplotlib v3.7.1, https://matplotlib.org/</dc:title>
     </cc:Agent>
    </dc:creator>
   </cc:Work>
  </rdf:RDF>
 </metadata>
 <defs>
  <style type="text/css">*{stroke-linejoin: round; stroke-linecap: butt}</style>
 </defs>
 <g id="figure_1">
  <g id="patch_1">
   <path d="M 0 432 
L 864 432 
L 864 0 
L 0 0 
z
" style="fill: #ffffff"/>
  </g>
  <g id="axes_1">
   <g id="patch_2">
    <path d="M 108 384.48 
L 777.6 384.48 
L 777.6 51.84 
L 108 51.84 
z
" style="fill: #ffffff"/>
   </g>
   <g id="matplotlib.axis_1">
    <g id="xtick_1">
     <g id="line2d_1">
      <path d="M 108 384.48 
L 108 51.84 
" clip-path="url(#p6246e455f4)" style="fill: none; stroke: #b0b0b0; stroke-width: 0.8; stroke-linecap: square"/>
     </g>
     <g id="line2d_2">
      <defs>
       <path id="me335316cd8" d="M 0 0 
L 0 3.5 
" style="stroke: #000000; stroke-width: 0.8"/>
      </defs>
      <g>
       <use xlink:href="#me335316cd8" x="108" y="384.48" style="stroke: #000000; stroke-width: 0.8"/>
      </g>
     </g>
     <g id="text_1">
      <!-- 0 -->
      <g transform="translate(103.54625 402.117813) scale(0.14 -0.14)">
       <defs>
        <path id="DejaVuSans-30" d="M 2034 4250 
Q 1547 4250 1301 3770 
Q 1056 3291 1056 2328 
Q 1056 1369 1301 889 
Q 1547 409 2034 409 
Q 2525 409 2770 889 
Q 3016 1369 3016 2328 
Q 3016 3291 2770 3770 
Q 2525 4250 2034 4250 
z
M 2034 4750 
Q 2819 4750 3233 4129 
Q 3647 3509 3647 2328 
Q 3647 1150 3233 529 
Q 2819 -91 2034 -91 
Q 1250 -91 836 529 
Q 422 1150 422 2328 
Q 422 3509 836 4129 
Q 1250 4750 2034 4750 
z
" transform="scale(0.015625)"/>
       </defs>
       <use xlink:href="#DejaVuSans-30"/>
      </g>
     </g>
    </g>
    <g id="xtick_2">
     <g id="line2d_3">
      <path d="M 241.92 384.48 
L 241.92 51.84 
" clip-path="url(#p6246e455f4)" style="fill: none; stroke: #b0b0b0; stroke-width: 0.8; stroke-linecap: square"/>
     </g>
     <g id="line2d_4">
      <g>
       <use xlink:href="#me335316cd8" x="241.92" y="384.48" style="stroke: #000000; stroke-width: 0.8"/>
      </g>
     </g>
     <g id="text_2">
      <!-- 100 -->
      <g transform="translate(228.55875 402.117813) scale(0.14 -0.14)">
       <defs>
        <path id="DejaVuSans-31" d="M 794 531 
L 1825 531 
L 1825 4091 
L 703 3866 
L 703 4441 
L 1819 4666 
L 2450 4666 
L 2450 531 
L 3481 531 
L 3481 0 
L 794 0 
L 794 531 
z
" transform="scale(0.015625)"/>
       </defs>
       <use xlink:href="#DejaVuSans-31"/>
       <use xlink:href="#DejaVuSans-30" x="63.623047"/>
       <use xlink:href="#DejaVuSans-30" x="127.246094"/>
      </g>
     </g>
    </g>
    <g id="xtick_3">
     <g id="line2d_5">
      <path d="M 375.84 384.48 
L 375.84 51.84 
" clip-path="url(#p6246e455f4)" style="fill: none; stroke: #b0b0b0; stroke-width: 0.8; stroke-linecap: square"/>
     </g>
     <g id="line2d_6">
      <g>
       <use xlink:href="#me335316cd8" x="375.84" y="384.48" style="stroke: #000000; stroke-width: 0.8"/>
      </g>
     </g>
     <g id="text_3">
      <!-- 200 -->
      <g transform="translate(362.47875 402.117813) scale(0.14 -0.14)">
       <defs>
        <path id="DejaVuSans-32" d="M 1228 531 
L 3431 531 
L 3431 0 
L 469 0 
L 469 531 
Q 828 903 1448 1529 
Q 2069 2156 2228 2338 
Q 2531 2678 2651 2914 
Q 2772 3150 2772 3378 
Q 2772 3750 2511 3984 
Q 2250 4219 1831 4219 
Q 1534 4219 1204 4116 
Q 875 4013 500 3803 
L 500 4441 
Q 881 4594 1212 4672 
Q 1544 4750 1819 4750 
Q 2544 4750 2975 4387 
Q 3406 4025 3406 3419 
Q 3406 3131 3298 2873 
Q 3191 2616 2906 2266 
Q 2828 2175 2409 1742 
Q 1991 1309 1228 531 
z
" transform="scale(0.015625)"/>
       </defs>
       <use xlink:href="#DejaVuSans-32"/>
       <use xlink:href="#DejaVuSans-30" x="63.623047"/>
       <use xlink:href="#DejaVuSans-30" x="127.246094"/>
      </g>
     </g>
    </g>
    <g id="xtick_4">
     <g id="line2d_7">
      <path d="M 509.76 384.48 
L 509.76 51.84 
" clip-path="url(#p6246e455f4)" style="fill: none; stroke: #b0b0b0; stroke-width: 0.8; stroke-linecap: square"/>
     </g>
     <g id="line2d_8">
      <g>
       <use xlink:href="#me335316cd8" x="509.76" y="384.48" style="stroke: #000000; stroke-width: 0.8"/>
      </g>
     </g>
     <g id="text_4">
      <!-- 300 -->
      <g transform="translate(496.39875 402.117813) scale(0.14 -0.14)">
       <defs>
        <path id="DejaVuSans-33" d="M 2597 2516 
Q 3050 2419 3304 2112 
Q 3559 1806 3559 1356 
Q 3559 666 3084 287 
Q 2609 -91 1734 -91 
Q 1441 -91 1130 -33 
Q 819 25 488 141 
L 488 750 
Q 750 597 1062 519 
Q 1375 441 1716 441 
Q 2309 441 2620 675 
Q 2931 909 2931 1356 
Q 2931 1769 2642 2001 
Q 2353 2234 1838 2234 
L 1294 2234 
L 1294 2753 
L 1863 2753 
Q 2328 2753 2575 2939 
Q 2822 3125 2822 3475 
Q 2822 3834 2567 4026 
Q 2313 4219 1838 4219 
Q 1578 4219 1281 4162 
Q 984 4106 628 3988 
L 628 4550 
Q 988 4650 1302 4700 
Q 1616 4750 1894 4750 
Q 2613 4750 3031 4423 
Q 3450 4097 3450 3541 
Q 3450 3153 3228 2886 
Q 3006 2619 2597 2516 
z
" transform="scale(0.015625)"/>
       </defs>
       <use xlink:href="#DejaVuSans-33"/>
       <use xlink:href="#DejaVuSans-30" x="63.623047"/>
       <use xlink:href="#DejaVuSans-30" x="127.246094"/>
      </g>
     </g>
    </g>
    <g id="xtick_5">
     <g id="line2d_9">
      <path d="M 643.68 384.48 
L 643.68 51.84 
" clip-path="url(#p6246e455f4)" style="fill: none; stroke: #b0b0b0; stroke-width: 0.8; stroke-linecap: square"/>
     </g>
     <g id="line2d_10">
      <g>
       <use xlink:href="#me335316cd8" x="643.68" y="384.48" style="stroke: #000000; stroke-width: 0.8"/>
      </g>
     </g>
     <g id="text_5">
      <!-- 400 -->
      <g transform="translate(630.31875 402.117813) scale(0.14 -0.14)">
       <defs>
        <path id="DejaVuSans-34" d="M 2419 4116 
L 825 1625 
L 2419 1625 
L 2419 4116 
z
M 2253 4666 
L 3047 4666 
L 3047 1625 
L 3713 1625 
L 3713 1100 
L 3047 1100 
L 3047 0 
L 2419 0 
L 2419 1100 
L 313 1100 
L 313 1709 
L 2253 4666 
z
" transform="scale(0.015625)"/>
       </defs>
       <use xlink:href="#DejaVuSans-34"/>
       <use xlink:href="#DejaVuSans-30" x="63.623047"/>
       <use xlink:href="#DejaVuSans-30" x="127.246094"/>
      </g>
     </g>
    </g>
    <g id="xtick_6">
     <g id="line2d_11">
      <path d="M 777.6 384.48 
L 777.6 51.84 
" clip-path="url(#p6246e455f4)" style="fill: none; stroke: #b0b0b0; stroke-width: 0.8; stroke-linecap: square"/>
     </g>
     <g id="line2d_12">
      <g>
       <use xlink:href="#me335316cd8" x="777.6" y="384.48" style="stroke: #000000; stroke-width: 0.8"/>
      </g>
     </g>
     <g id="text_6">
      <!-- 500 -->
      <g transform="translate(764.23875 402.117813) scale(0.14 -0.14)">
       <defs>
        <path id="DejaVuSans-35" d="M 691 4666 
L 3169 4666 
L 3169 4134 
L 1269 4134 
L 1269 2991 
Q 1406 3038 1543 3061 
Q 1681 3084 1819 3084 
Q 2600 3084 3056 2656 
Q 3513 2228 3513 1497 
Q 3513 744 3044 326 
Q 2575 -91 1722 -91 
Q 1428 -91 1123 -41 
Q 819 9 494 109 
L 494 744 
Q 775 591 1075 516 
Q 1375 441 1709 441 
Q 2250 441 2565 725 
Q 2881 1009 2881 1497 
Q 2881 1984 2565 2268 
Q 2250 2553 1709 2553 
Q 1456 2553 1204 2497 
Q 953 2441 691 2322 
L 691 4666 
z
" transform="scale(0.015625)"/>
       </defs>
       <use xlink:href="#DejaVuSans-35"/>
       <use xlink:href="#DejaVuSans-30" x="63.623047"/>
       <use xlink:href="#DejaVuSans-30" x="127.246094"/>
      </g>
     </g>
    </g>
    <g id="text_7">
     <!-- Computational time [s] -->
     <g transform="translate(338.761406 422.706563) scale(0.18 -0.18)">
      <defs>
       <path id="DejaVuSans-43" d="M 4122 4306 
L 4122 3641 
Q 3803 3938 3442 4084 
Q 3081 4231 2675 4231 
Q 1875 4231 1450 3742 
Q 1025 3253 1025 2328 
Q 1025 1406 1450 917 
Q 1875 428 2675 428 
Q 3081 428 3442 575 
Q 3803 722 4122 1019 
L 4122 359 
Q 3791 134 3420 21 
Q 3050 -91 2638 -91 
Q 1578 -91 968 557 
Q 359 1206 359 2328 
Q 359 3453 968 4101 
Q 1578 4750 2638 4750 
Q 3056 4750 3426 4639 
Q 3797 4528 4122 4306 
z
" transform="scale(0.015625)"/>
       <path id="DejaVuSans-6f" d="M 1959 3097 
Q 1497 3097 1228 2736 
Q 959 2375 959 1747 
Q 959 1119 1226 758 
Q 1494 397 1959 397 
Q 2419 397 2687 759 
Q 2956 1122 2956 1747 
Q 2956 2369 2687 2733 
Q 2419 3097 1959 3097 
z
M 1959 3584 
Q 2709 3584 3137 3096 
Q 3566 2609 3566 1747 
Q 3566 888 3137 398 
Q 2709 -91 1959 -91 
Q 1206 -91 779 398 
Q 353 888 353 1747 
Q 353 2609 779 3096 
Q 1206 3584 1959 3584 
z
" transform="scale(0.015625)"/>
       <path id="DejaVuSans-6d" d="M 3328 2828 
Q 3544 3216 3844 3400 
Q 4144 3584 4550 3584 
Q 5097 3584 5394 3201 
Q 5691 2819 5691 2113 
L 5691 0 
L 5113 0 
L 5113 2094 
Q 5113 2597 4934 2840 
Q 4756 3084 4391 3084 
Q 3944 3084 3684 2787 
Q 3425 2491 3425 1978 
L 3425 0 
L 2847 0 
L 2847 2094 
Q 2847 2600 2669 2842 
Q 2491 3084 2119 3084 
Q 1678 3084 1418 2786 
Q 1159 2488 1159 1978 
L 1159 0 
L 581 0 
L 581 3500 
L 1159 3500 
L 1159 2956 
Q 1356 3278 1631 3431 
Q 1906 3584 2284 3584 
Q 2666 3584 2933 3390 
Q 3200 3197 3328 2828 
z
" transform="scale(0.015625)"/>
       <path id="DejaVuSans-70" d="M 1159 525 
L 1159 -1331 
L 581 -1331 
L 581 3500 
L 1159 3500 
L 1159 2969 
Q 1341 3281 1617 3432 
Q 1894 3584 2278 3584 
Q 2916 3584 3314 3078 
Q 3713 2572 3713 1747 
Q 3713 922 3314 415 
Q 2916 -91 2278 -91 
Q 1894 -91 1617 61 
Q 1341 213 1159 525 
z
M 3116 1747 
Q 3116 2381 2855 2742 
Q 2594 3103 2138 3103 
Q 1681 3103 1420 2742 
Q 1159 2381 1159 1747 
Q 1159 1113 1420 752 
Q 1681 391 2138 391 
Q 2594 391 2855 752 
Q 3116 1113 3116 1747 
z
" transform="scale(0.015625)"/>
       <path id="DejaVuSans-75" d="M 544 1381 
L 544 3500 
L 1119 3500 
L 1119 1403 
Q 1119 906 1312 657 
Q 1506 409 1894 409 
Q 2359 409 2629 706 
Q 2900 1003 2900 1516 
L 2900 3500 
L 3475 3500 
L 3475 0 
L 2900 0 
L 2900 538 
Q 2691 219 2414 64 
Q 2138 -91 1772 -91 
Q 1169 -91 856 284 
Q 544 659 544 1381 
z
M 1991 3584 
L 1991 3584 
z
" transform="scale(0.015625)"/>
       <path id="DejaVuSans-74" d="M 1172 4494 
L 1172 3500 
L 2356 3500 
L 2356 3053 
L 1172 3053 
L 1172 1153 
Q 1172 725 1289 603 
Q 1406 481 1766 481 
L 2356 481 
L 2356 0 
L 1766 0 
Q 1100 0 847 248 
Q 594 497 594 1153 
L 594 3053 
L 172 3053 
L 172 3500 
L 594 3500 
L 594 4494 
L 1172 4494 
z
" transform="scale(0.015625)"/>
       <path id="DejaVuSans-61" d="M 2194 1759 
Q 1497 1759 1228 1600 
Q 959 1441 959 1056 
Q 959 750 1161 570 
Q 1363 391 1709 391 
Q 2188 391 2477 730 
Q 2766 1069 2766 1631 
L 2766 1759 
L 2194 1759 
z
M 3341 1997 
L 3341 0 
L 2766 0 
L 2766 531 
Q 2569 213 2275 61 
Q 1981 -91 1556 -91 
Q 1019 -91 701 211 
Q 384 513 384 1019 
Q 384 1609 779 1909 
Q 1175 2209 1959 2209 
L 2766 2209 
L 2766 2266 
Q 2766 2663 2505 2880 
Q 2244 3097 1772 3097 
Q 1472 3097 1187 3025 
Q 903 2953 641 2809 
L 641 3341 
Q 956 3463 1253 3523 
Q 1550 3584 1831 3584 
Q 2591 3584 2966 3190 
Q 3341 2797 3341 1997 
z
" transform="scale(0.015625)"/>
       <path id="DejaVuSans-69" d="M 603 3500 
L 1178 3500 
L 1178 0 
L 603 0 
L 603 3500 
z
M 603 4863 
L 1178 4863 
L 1178 4134 
L 603 4134 
L 603 4863 
z
" transform="scale(0.015625)"/>
       <path id="DejaVuSans-6e" d="M 3513 2113 
L 3513 0 
L 2938 0 
L 2938 2094 
Q 2938 2591 2744 2837 
Q 2550 3084 2163 3084 
Q 1697 3084 1428 2787 
Q 1159 2491 1159 1978 
L 1159 0 
L 581 0 
L 581 3500 
L 1159 3500 
L 1159 2956 
Q 1366 3272 1645 3428 
Q 1925 3584 2291 3584 
Q 2894 3584 3203 3211 
Q 3513 2838 3513 2113 
z
" transform="scale(0.015625)"/>
       <path id="DejaVuSans-6c" d="M 603 4863 
L 1178 4863 
L 1178 0 
L 603 0 
L 603 4863 
z
" transform="scale(0.015625)"/>
       <path id="DejaVuSans-20" transform="scale(0.015625)"/>
       <path id="DejaVuSans-65" d="M 3597 1894 
L 3597 1613 
L 953 1613 
Q 991 1019 1311 708 
Q 1631 397 2203 397 
Q 2534 397 2845 478 
Q 3156 559 3463 722 
L 3463 178 
Q 3153 47 2828 -22 
Q 2503 -91 2169 -91 
Q 1331 -91 842 396 
Q 353 884 353 1716 
Q 353 2575 817 3079 
Q 1281 3584 2069 3584 
Q 2775 3584 3186 3129 
Q 3597 2675 3597 1894 
z
M 3022 2063 
Q 3016 2534 2758 2815 
Q 2500 3097 2075 3097 
Q 1594 3097 1305 2825 
Q 1016 2553 972 2059 
L 3022 2063 
z
" transform="scale(0.015625)"/>
       <path id="DejaVuSans-5b" d="M 550 4863 
L 1875 4863 
L 1875 4416 
L 1125 4416 
L 1125 -397 
L 1875 -397 
L 1875 -844 
L 550 -844 
L 550 4863 
z
" transform="scale(0.015625)"/>
       <path id="DejaVuSans-73" d="M 2834 3397 
L 2834 2853 
Q 2591 2978 2328 3040 
Q 2066 3103 1784 3103 
Q 1356 3103 1142 2972 
Q 928 2841 928 2578 
Q 928 2378 1081 2264 
Q 1234 2150 1697 2047 
L 1894 2003 
Q 2506 1872 2764 1633 
Q 3022 1394 3022 966 
Q 3022 478 2636 193 
Q 2250 -91 1575 -91 
Q 1294 -91 989 -36 
Q 684 19 347 128 
L 347 722 
Q 666 556 975 473 
Q 1284 391 1588 391 
Q 1994 391 2212 530 
Q 2431 669 2431 922 
Q 2431 1156 2273 1281 
Q 2116 1406 1581 1522 
L 1381 1569 
Q 847 1681 609 1914 
Q 372 2147 372 2553 
Q 372 3047 722 3315 
Q 1072 3584 1716 3584 
Q 2034 3584 2315 3537 
Q 2597 3491 2834 3397 
z
" transform="scale(0.015625)"/>
       <path id="DejaVuSans-5d" d="M 1947 4863 
L 1947 -844 
L 622 -844 
L 622 -397 
L 1369 -397 
L 1369 4416 
L 622 4416 
L 622 4863 
L 1947 4863 
z
" transform="scale(0.015625)"/>
      </defs>
      <use xlink:href="#DejaVuSans-43"/>
      <use xlink:href="#DejaVuSans-6f" x="69.824219"/>
      <use xlink:href="#DejaVuSans-6d" x="131.005859"/>
      <use xlink:href="#DejaVuSans-70" x="228.417969"/>
      <use xlink:href="#DejaVuSans-75" x="291.894531"/>
      <use xlink:href="#DejaVuSans-74" x="355.273438"/>
      <use xlink:href="#DejaVuSans-61" x="394.482422"/>
      <use xlink:href="#DejaVuSans-74" x="455.761719"/>
      <use xlink:href="#DejaVuSans-69" x="494.970703"/>
      <use xlink:href="#DejaVuSans-6f" x="522.753906"/>
      <use xlink:href="#DejaVuSans-6e" x="583.935547"/>
      <use xlink:href="#DejaVuSans-61" x="647.314453"/>
      <use xlink:href="#DejaVuSans-6c" x="708.59375"/>
      <use xlink:href="#DejaVuSans-20" x="736.376953"/>
      <use xlink:href="#DejaVuSans-74" x="768.164062"/>
      <use xlink:href="#DejaVuSans-69" x="807.373047"/>
      <use xlink:href="#DejaVuSans-6d" x="835.15625"/>
      <use xlink:href="#DejaVuSans-65" x="932.568359"/>
      <use xlink:href="#DejaVuSans-20" x="994.091797"/>
      <use xlink:href="#DejaVuSans-5b" x="1025.878906"/>
      <use xlink:href="#DejaVuSans-73" x="1064.892578"/>
      <use xlink:href="#DejaVuSans-5d" x="1116.992188"/>
     </g>
    </g>
   </g>
   <g id="matplotlib.axis_2">
    <g id="ytick_1">
     <g id="line2d_13">
      <path d="M 108 352.177157 
L 777.6 352.177157 
" clip-path="url(#p6246e455f4)" style="fill: none; stroke: #b0b0b0; stroke-width: 0.8; stroke-linecap: square"/>
     </g>
     <g id="line2d_14">
      <defs>
       <path id="md6e1093d5c" d="M 0 0 
L -3.5 0 
" style="stroke: #000000; stroke-width: 0.8"/>
      </defs>
      <g>
       <use xlink:href="#md6e1093d5c" x="108" y="352.177157" style="stroke: #000000; stroke-width: 0.8"/>
      </g>
     </g>
     <g id="text_8">
      <!-- 1.00 -->
      <g transform="translate(69.828125 357.496063) scale(0.14 -0.14)">
       <defs>
        <path id="DejaVuSans-2e" d="M 684 794 
L 1344 794 
L 1344 0 
L 684 0 
L 684 794 
z
" transform="scale(0.015625)"/>
       </defs>
       <use xlink:href="#DejaVuSans-31"/>
       <use xlink:href="#DejaVuSans-2e" x="63.623047"/>
       <use xlink:href="#DejaVuSans-30" x="95.410156"/>
       <use xlink:href="#DejaVuSans-30" x="159.033203"/>
      </g>
     </g>
    </g>
    <g id="ytick_2">
     <g id="line2d_15">
      <path d="M 108 309.22006 
L 777.6 309.22006 
" clip-path="url(#p6246e455f4)" style="fill: none; stroke: #b0b0b0; stroke-width: 0.8; stroke-linecap: square"/>
     </g>
     <g id="line2d_16">
      <g>
       <use xlink:href="#md6e1093d5c" x="108" y="309.22006" style="stroke: #000000; stroke-width: 0.8"/>
      </g>
     </g>
     <g id="text_9">
      <!-- 1.25 -->
      <g transform="translate(69.828125 314.538966) scale(0.14 -0.14)">
       <use xlink:href="#DejaVuSans-31"/>
       <use xlink:href="#DejaVuSans-2e" x="63.623047"/>
       <use xlink:href="#DejaVuSans-32" x="95.410156"/>
       <use xlink:href="#DejaVuSans-35" x="159.033203"/>
      </g>
     </g>
    </g>
    <g id="ytick_3">
     <g id="line2d_17">
      <path d="M 108 266.262962 
L 777.6 266.262962 
" clip-path="url(#p6246e455f4)" style="fill: none; stroke: #b0b0b0; stroke-width: 0.8; stroke-linecap: square"/>
     </g>
     <g id="line2d_18">
      <g>
       <use xlink:href="#md6e1093d5c" x="108" y="266.262962" style="stroke: #000000; stroke-width: 0.8"/>
      </g>
     </g>
     <g id="text_10">
      <!-- 1.50 -->
      <g transform="translate(69.828125 271.581868) scale(0.14 -0.14)">
       <use xlink:href="#DejaVuSans-31"/>
       <use xlink:href="#DejaVuSans-2e" x="63.623047"/>
       <use xlink:href="#DejaVuSans-35" x="95.410156"/>
       <use xlink:href="#DejaVuSans-30" x="159.033203"/>
      </g>
     </g>
    </g>
    <g id="ytick_4">
     <g id="line2d_19">
      <path d="M 108 223.305865 
L 777.6 223.305865 
" clip-path="url(#p6246e455f4)" style="fill: none; stroke: #b0b0b0; stroke-width: 0.8; stroke-linecap: square"/>
     </g>
     <g id="line2d_20">
      <g>
       <use xlink:href="#md6e1093d5c" x="108" y="223.305865" style="stroke: #000000; stroke-width: 0.8"/>
      </g>
     </g>
     <g id="text_11">
      <!-- 1.75 -->
      <g transform="translate(69.828125 228.624771) scale(0.14 -0.14)">
       <defs>
        <path id="DejaVuSans-37" d="M 525 4666 
L 3525 4666 
L 3525 4397 
L 1831 0 
L 1172 0 
L 2766 4134 
L 525 4134 
L 525 4666 
z
" transform="scale(0.015625)"/>
       </defs>
       <use xlink:href="#DejaVuSans-31"/>
       <use xlink:href="#DejaVuSans-2e" x="63.623047"/>
       <use xlink:href="#DejaVuSans-37" x="95.410156"/>
       <use xlink:href="#DejaVuSans-35" x="159.033203"/>
      </g>
     </g>
    </g>
    <g id="ytick_5">
     <g id="line2d_21">
      <path d="M 108 180.348767 
L 777.6 180.348767 
" clip-path="url(#p6246e455f4)" style="fill: none; stroke: #b0b0b0; stroke-width: 0.8; stroke-linecap: square"/>
     </g>
     <g id="line2d_22">
      <g>
       <use xlink:href="#md6e1093d5c" x="108" y="180.348767" style="stroke: #000000; stroke-width: 0.8"/>
      </g>
     </g>
     <g id="text_12">
      <!-- 2.00 -->
      <g transform="translate(69.828125 185.667674) scale(0.14 -0.14)">
       <use xlink:href="#DejaVuSans-32"/>
       <use xlink:href="#DejaVuSans-2e" x="63.623047"/>
       <use xlink:href="#DejaVuSans-30" x="95.410156"/>
       <use xlink:href="#DejaVuSans-30" x="159.033203"/>
      </g>
     </g>
    </g>
    <g id="ytick_6">
     <g id="line2d_23">
      <path d="M 108 137.39167 
L 777.6 137.39167 
" clip-path="url(#p6246e455f4)" style="fill: none; stroke: #b0b0b0; stroke-width: 0.8; stroke-linecap: square"/>
     </g>
     <g id="line2d_24">
      <g>
       <use xlink:href="#md6e1093d5c" x="108" y="137.39167" style="stroke: #000000; stroke-width: 0.8"/>
      </g>
     </g>
     <g id="text_13">
      <!-- 2.25 -->
      <g transform="translate(69.828125 142.710576) scale(0.14 -0.14)">
       <use xlink:href="#DejaVuSans-32"/>
       <use xlink:href="#DejaVuSans-2e" x="63.623047"/>
       <use xlink:href="#DejaVuSans-32" x="95.410156"/>
       <use xlink:href="#DejaVuSans-35" x="159.033203"/>
      </g>
     </g>
    </g>
    <g id="ytick_7">
     <g id="line2d_25">
      <path d="M 108 94.434573 
L 777.6 94.434573 
" clip-path="url(#p6246e455f4)" style="fill: none; stroke: #b0b0b0; stroke-width: 0.8; stroke-linecap: square"/>
     </g>
     <g id="line2d_26">
      <g>
       <use xlink:href="#md6e1093d5c" x="108" y="94.434573" style="stroke: #000000; stroke-width: 0.8"/>
      </g>
     </g>
     <g id="text_14">
      <!-- 2.50 -->
      <g transform="translate(69.828125 99.753479) scale(0.14 -0.14)">
       <use xlink:href="#DejaVuSans-32"/>
       <use xlink:href="#DejaVuSans-2e" x="63.623047"/>
       <use xlink:href="#DejaVuSans-35" x="95.410156"/>
       <use xlink:href="#DejaVuSans-30" x="159.033203"/>
      </g>
     </g>
    </g>
    <g id="text_15">
     <!-- Constraint violation -->
     <g transform="translate(62.084687 306.268594) rotate(-90) scale(0.18 -0.18)">
      <defs>
       <path id="DejaVuSans-72" d="M 2631 2963 
Q 2534 3019 2420 3045 
Q 2306 3072 2169 3072 
Q 1681 3072 1420 2755 
Q 1159 2438 1159 1844 
L 1159 0 
L 581 0 
L 581 3500 
L 1159 3500 
L 1159 2956 
Q 1341 3275 1631 3429 
Q 1922 3584 2338 3584 
Q 2397 3584 2469 3576 
Q 2541 3569 2628 3553 
L 2631 2963 
z
" transform="scale(0.015625)"/>
       <path id="DejaVuSans-76" d="M 191 3500 
L 800 3500 
L 1894 563 
L 2988 3500 
L 3597 3500 
L 2284 0 
L 1503 0 
L 191 3500 
z
" transform="scale(0.015625)"/>
      </defs>
      <use xlink:href="#DejaVuSans-43"/>
      <use xlink:href="#DejaVuSans-6f" x="69.824219"/>
      <use xlink:href="#DejaVuSans-6e" x="131.005859"/>
      <use xlink:href="#DejaVuSans-73" x="194.384766"/>
      <use xlink:href="#DejaVuSans-74" x="246.484375"/>
      <use xlink:href="#DejaVuSans-72" x="285.693359"/>
      <use xlink:href="#DejaVuSans-61" x="326.806641"/>
      <use xlink:href="#DejaVuSans-69" x="388.085938"/>
      <use xlink:href="#DejaVuSans-6e" x="415.869141"/>
      <use xlink:href="#DejaVuSans-74" x="479.248047"/>
      <use xlink:href="#DejaVuSans-20" x="518.457031"/>
      <use xlink:href="#DejaVuSans-76" x="550.244141"/>
      <use xlink:href="#DejaVuSans-69" x="609.423828"/>
      <use xlink:href="#DejaVuSans-6f" x="637.207031"/>
      <use xlink:href="#DejaVuSans-6c" x="698.388672"/>
      <use xlink:href="#DejaVuSans-61" x="726.171875"/>
      <use xlink:href="#DejaVuSans-74" x="787.451172"/>
      <use xlink:href="#DejaVuSans-69" x="826.660156"/>
      <use xlink:href="#DejaVuSans-6f" x="854.443359"/>
      <use xlink:href="#DejaVuSans-6e" x="915.625"/>
     </g>
    </g>
   </g>
   <g id="line2d_27">
    <path d="M 143.606028 94.117569 
" clip-path="url(#p6246e455f4)" style="fill: none; stroke-dasharray: 5.55,2.4; stroke-dashoffset: 0; stroke: #36ff33; stroke-width: 1.5"/>
    <defs>
     <path id="m11daeb1a3b" d="M 0 3.5 
C 0.928211 3.5 1.81853 3.131218 2.474874 2.474874 
C 3.131218 1.81853 3.5 0.928211 3.5 0 
C 3.5 -0.928211 3.131218 -1.81853 2.474874 -2.474874 
C 1.81853 -3.131218 0.928211 -3.5 0 -3.5 
C -0.928211 -3.5 -1.81853 -3.131218 -2.474874 -2.474874 
C -3.131218 -1.81853 -3.5 -0.928211 -3.5 0 
C -3.5 0.928211 -3.131218 1.81853 -2.474874 2.474874 
C -1.81853 3.131218 -0.928211 3.5 0 3.5 
z
" style="stroke: #36ff33"/>
    </defs>
    <g clip-path="url(#p6246e455f4)">
     <use xlink:href="#m11daeb1a3b" x="143.606028" y="94.117569" style="fill: #36ff33; stroke: #36ff33"/>
    </g>
   </g>
   <g id="line2d_28">
    <path d="M 143.606028 94.117569 
L 777.6 94.117569 
" clip-path="url(#p6246e455f4)" style="fill: none; stroke-dasharray: 5.55,2.4; stroke-dashoffset: 0; stroke: #36ff33; stroke-width: 1.5"/>
   </g>
   <g id="line2d_29">
    <path d="M 142.157346 94.117569 
L 183.225067 77.568507 
L 223.483896 77.346384 
L 264.475936 77.221844 
L 305.484994 77.221844 
L 347.20292 77.221844 
L 382.653698 77.221844 
L 417.097974 77.221844 
L 451.034127 77.221844 
L 484.74396 77.221844 
L 520.660818 77.221844 
L 559.905105 77.221844 
L 600.606315 77.221844 
L 640.991669 77.221844 
L 681.552245 77.221844 
L 721.612768 77.221844 
L 763.939266 77.221844 
L 797.898271 77.221844 
" clip-path="url(#p6246e455f4)" style="fill: none; stroke: #36ff33; stroke-width: 1.5; stroke-linecap: square"/>
    <defs>
     <path id="m30b0628ed7" d="M 0 -5 
L -1.12257 -1.545085 
L -4.755283 -1.545085 
L -1.816356 0.59017 
L -2.938926 4.045085 
L -0 1.90983 
L 2.938926 4.045085 
L 1.816356 0.59017 
L 4.755283 -1.545085 
L 1.12257 -1.545085 
z
" style="stroke: #36ff33; stroke-linejoin: bevel"/>
    </defs>
    <g clip-path="url(#p6246e455f4)">
     <use xlink:href="#m30b0628ed7" x="142.157346" y="94.117569" style="fill: #36ff33; stroke: #36ff33; stroke-linejoin: bevel"/>
     <use xlink:href="#m30b0628ed7" x="183.225067" y="77.568507" style="fill: #36ff33; stroke: #36ff33; stroke-linejoin: bevel"/>
     <use xlink:href="#m30b0628ed7" x="223.483896" y="77.346384" style="fill: #36ff33; stroke: #36ff33; stroke-linejoin: bevel"/>
     <use xlink:href="#m30b0628ed7" x="264.475936" y="77.221844" style="fill: #36ff33; stroke: #36ff33; stroke-linejoin: bevel"/>
     <use xlink:href="#m30b0628ed7" x="305.484994" y="77.221844" style="fill: #36ff33; stroke: #36ff33; stroke-linejoin: bevel"/>
     <use xlink:href="#m30b0628ed7" x="347.20292" y="77.221844" style="fill: #36ff33; stroke: #36ff33; stroke-linejoin: bevel"/>
     <use xlink:href="#m30b0628ed7" x="382.653698" y="77.221844" style="fill: #36ff33; stroke: #36ff33; stroke-linejoin: bevel"/>
     <use xlink:href="#m30b0628ed7" x="417.097974" y="77.221844" style="fill: #36ff33; stroke: #36ff33; stroke-linejoin: bevel"/>
     <use xlink:href="#m30b0628ed7" x="451.034127" y="77.221844" style="fill: #36ff33; stroke: #36ff33; stroke-linejoin: bevel"/>
     <use xlink:href="#m30b0628ed7" x="484.74396" y="77.221844" style="fill: #36ff33; stroke: #36ff33; stroke-linejoin: bevel"/>
     <use xlink:href="#m30b0628ed7" x="520.660818" y="77.221844" style="fill: #36ff33; stroke: #36ff33; stroke-linejoin: bevel"/>
     <use xlink:href="#m30b0628ed7" x="559.905105" y="77.221844" style="fill: #36ff33; stroke: #36ff33; stroke-linejoin: bevel"/>
     <use xlink:href="#m30b0628ed7" x="600.606315" y="77.221844" style="fill: #36ff33; stroke: #36ff33; stroke-linejoin: bevel"/>
     <use xlink:href="#m30b0628ed7" x="640.991669" y="77.221844" style="fill: #36ff33; stroke: #36ff33; stroke-linejoin: bevel"/>
     <use xlink:href="#m30b0628ed7" x="681.552245" y="77.221844" style="fill: #36ff33; stroke: #36ff33; stroke-linejoin: bevel"/>
     <use xlink:href="#m30b0628ed7" x="721.612768" y="77.221844" style="fill: #36ff33; stroke: #36ff33; stroke-linejoin: bevel"/>
     <use xlink:href="#m30b0628ed7" x="763.939266" y="77.221844" style="fill: #36ff33; stroke: #36ff33; stroke-linejoin: bevel"/>
     <use xlink:href="#m30b0628ed7" x="797.898271" y="77.221844" style="fill: #36ff33; stroke: #36ff33; stroke-linejoin: bevel"/>
    </g>
   </g>
   <g id="line2d_30">
    <path d="M 142.28251 100.421584 
" clip-path="url(#p6246e455f4)" style="fill: none; stroke-dasharray: 5.55,2.4; stroke-dashoffset: 0; stroke: #b6c800; stroke-width: 1.5"/>
    <defs>
     <path id="m30e54435d7" d="M 0 3.5 
C 0.928211 3.5 1.81853 3.131218 2.474874 2.474874 
C 3.131218 1.81853 3.5 0.928211 3.5 0 
C 3.5 -0.928211 3.131218 -1.81853 2.474874 -2.474874 
C 1.81853 -3.131218 0.928211 -3.5 0 -3.5 
C -0.928211 -3.5 -1.81853 -3.131218 -2.474874 -2.474874 
C -3.131218 -1.81853 -3.5 -0.928211 -3.5 0 
C -3.5 0.928211 -3.131218 1.81853 -2.474874 2.474874 
C -1.81853 3.131218 -0.928211 3.5 0 3.5 
z
" style="stroke: #b6c800"/>
    </defs>
    <g clip-path="url(#p6246e455f4)">
     <use xlink:href="#m30e54435d7" x="142.28251" y="100.421584" style="fill: #b6c800; stroke: #b6c800"/>
    </g>
   </g>
   <g id="line2d_31">
    <path d="M 142.28251 100.421584 
L 777.6 100.421584 
" clip-path="url(#p6246e455f4)" style="fill: none; stroke-dasharray: 5.55,2.4; stroke-dashoffset: 0; stroke: #b6c800; stroke-width: 1.5"/>
   </g>
   <g id="line2d_32">
    <path d="M 144.204703 100.421584 
L 183.326172 76.994231 
L 225.45572 76.994231 
L 265.07375 76.994231 
L 306.787233 76.994231 
L 345.791966 76.994231 
L 382.054485 76.994231 
L 416.641378 76.994231 
L 451.155644 76.994231 
L 485.221648 76.994231 
L 522.72347 76.994231 
L 564.313367 76.994231 
L 606.278284 76.994231 
L 646.668796 76.994231 
L 687.286336 76.994231 
L 726.951585 76.994231 
L 761.66541 76.994231 
L 796.411476 76.994231 
" clip-path="url(#p6246e455f4)" style="fill: none; stroke: #b6c800; stroke-width: 1.5; stroke-linecap: square"/>
    <defs>
     <path id="mefe2808b06" d="M 0 -5 
L -1.12257 -1.545085 
L -4.755283 -1.545085 
L -1.816356 0.59017 
L -2.938926 4.045085 
L -0 1.90983 
L 2.938926 4.045085 
L 1.816356 0.59017 
L 4.755283 -1.545085 
L 1.12257 -1.545085 
z
" style="stroke: #b6c800; stroke-linejoin: bevel"/>
    </defs>
    <g clip-path="url(#p6246e455f4)">
     <use xlink:href="#mefe2808b06" x="144.204703" y="100.421584" style="fill: #b6c800; stroke: #b6c800; stroke-linejoin: bevel"/>
     <use xlink:href="#mefe2808b06" x="183.326172" y="76.994231" style="fill: #b6c800; stroke: #b6c800; stroke-linejoin: bevel"/>
     <use xlink:href="#mefe2808b06" x="225.45572" y="76.994231" style="fill: #b6c800; stroke: #b6c800; stroke-linejoin: bevel"/>
     <use xlink:href="#mefe2808b06" x="265.07375" y="76.994231" style="fill: #b6c800; stroke: #b6c800; stroke-linejoin: bevel"/>
     <use xlink:href="#mefe2808b06" x="306.787233" y="76.994231" style="fill: #b6c800; stroke: #b6c800; stroke-linejoin: bevel"/>
     <use xlink:href="#mefe2808b06" x="345.791966" y="76.994231" style="fill: #b6c800; stroke: #b6c800; stroke-linejoin: bevel"/>
     <use xlink:href="#mefe2808b06" x="382.054485" y="76.994231" style="fill: #b6c800; stroke: #b6c800; stroke-linejoin: bevel"/>
     <use xlink:href="#mefe2808b06" x="416.641378" y="76.994231" style="fill: #b6c800; stroke: #b6c800; stroke-linejoin: bevel"/>
     <use xlink:href="#mefe2808b06" x="451.155644" y="76.994231" style="fill: #b6c800; stroke: #b6c800; stroke-linejoin: bevel"/>
     <use xlink:href="#mefe2808b06" x="485.221648" y="76.994231" style="fill: #b6c800; stroke: #b6c800; stroke-linejoin: bevel"/>
     <use xlink:href="#mefe2808b06" x="522.72347" y="76.994231" style="fill: #b6c800; stroke: #b6c800; stroke-linejoin: bevel"/>
     <use xlink:href="#mefe2808b06" x="564.313367" y="76.994231" style="fill: #b6c800; stroke: #b6c800; stroke-linejoin: bevel"/>
     <use xlink:href="#mefe2808b06" x="606.278284" y="76.994231" style="fill: #b6c800; stroke: #b6c800; stroke-linejoin: bevel"/>
     <use xlink:href="#mefe2808b06" x="646.668796" y="76.994231" style="fill: #b6c800; stroke: #b6c800; stroke-linejoin: bevel"/>
     <use xlink:href="#mefe2808b06" x="687.286336" y="76.994231" style="fill: #b6c800; stroke: #b6c800; stroke-linejoin: bevel"/>
     <use xlink:href="#mefe2808b06" x="726.951585" y="76.994231" style="fill: #b6c800; stroke: #b6c800; stroke-linejoin: bevel"/>
     <use xlink:href="#mefe2808b06" x="761.66541" y="76.994231" style="fill: #b6c800; stroke: #b6c800; stroke-linejoin: bevel"/>
     <use xlink:href="#mefe2808b06" x="796.411476" y="76.994231" style="fill: #b6c800; stroke: #b6c800; stroke-linejoin: bevel"/>
    </g>
   </g>
   <g id="line2d_33">
    <path d="M 145.991631 111.617559 
" clip-path="url(#p6246e455f4)" style="fill: none; stroke-dasharray: 5.55,2.4; stroke-dashoffset: 0; stroke: #f119c3; stroke-width: 1.5"/>
    <defs>
     <path id="mf024afd67b" d="M 0 3.5 
C 0.928211 3.5 1.81853 3.131218 2.474874 2.474874 
C 3.131218 1.81853 3.5 0.928211 3.5 0 
C 3.5 -0.928211 3.131218 -1.81853 2.474874 -2.474874 
C 1.81853 -3.131218 0.928211 -3.5 0 -3.5 
C -0.928211 -3.5 -1.81853 -3.131218 -2.474874 -2.474874 
C -3.131218 -1.81853 -3.5 -0.928211 -3.5 0 
C -3.5 0.928211 -3.131218 1.81853 -2.474874 2.474874 
C -1.81853 3.131218 -0.928211 3.5 0 3.5 
z
" style="stroke: #f119c3"/>
    </defs>
    <g clip-path="url(#p6246e455f4)">
     <use xlink:href="#mf024afd67b" x="145.991631" y="111.617559" style="fill: #f119c3; stroke: #f119c3"/>
    </g>
   </g>
   <g id="line2d_34">
    <path d="M 145.991631 111.617559 
L 777.6 111.617559 
" clip-path="url(#p6246e455f4)" style="fill: none; stroke-dasharray: 5.55,2.4; stroke-dashoffset: 0; stroke: #f119c3; stroke-width: 1.5"/>
   </g>
   <g id="line2d_35">
    <path d="M 146.761525 111.617559 
L 186.031141 77.25175 
L 227.469322 77.251586 
L 266.95421 77.251586 
L 308.923858 77.251586 
L 343.473867 77.251586 
L 379.028531 77.251586 
L 413.082919 77.251586 
L 448.499766 77.251586 
L 489.473013 77.251586 
L 529.506887 77.251586 
L 568.717487 77.251586 
L 608.69699 77.251586 
L 649.699455 77.251586 
L 685.602656 77.251586 
L 720.531915 77.251586 
L 754.955978 77.251586 
L 790.579317 77.251586 
" clip-path="url(#p6246e455f4)" style="fill: none; stroke: #f119c3; stroke-width: 1.5; stroke-linecap: square"/>
    <defs>
     <path id="m947cdcaef1" d="M 0 -5 
L -1.12257 -1.545085 
L -4.755283 -1.545085 
L -1.816356 0.59017 
L -2.938926 4.045085 
L -0 1.90983 
L 2.938926 4.045085 
L 1.816356 0.59017 
L 4.755283 -1.545085 
L 1.12257 -1.545085 
z
" style="stroke: #f119c3; stroke-linejoin: bevel"/>
    </defs>
    <g clip-path="url(#p6246e455f4)">
     <use xlink:href="#m947cdcaef1" x="146.761525" y="111.617559" style="fill: #f119c3; stroke: #f119c3; stroke-linejoin: bevel"/>
     <use xlink:href="#m947cdcaef1" x="186.031141" y="77.25175" style="fill: #f119c3; stroke: #f119c3; stroke-linejoin: bevel"/>
     <use xlink:href="#m947cdcaef1" x="227.469322" y="77.251586" style="fill: #f119c3; stroke: #f119c3; stroke-linejoin: bevel"/>
     <use xlink:href="#m947cdcaef1" x="266.95421" y="77.251586" style="fill: #f119c3; stroke: #f119c3; stroke-linejoin: bevel"/>
     <use xlink:href="#m947cdcaef1" x="308.923858" y="77.251586" style="fill: #f119c3; stroke: #f119c3; stroke-linejoin: bevel"/>
     <use xlink:href="#m947cdcaef1" x="343.473867" y="77.251586" style="fill: #f119c3; stroke: #f119c3; stroke-linejoin: bevel"/>
     <use xlink:href="#m947cdcaef1" x="379.028531" y="77.251586" style="fill: #f119c3; stroke: #f119c3; stroke-linejoin: bevel"/>
     <use xlink:href="#m947cdcaef1" x="413.082919" y="77.251586" style="fill: #f119c3; stroke: #f119c3; stroke-linejoin: bevel"/>
     <use xlink:href="#m947cdcaef1" x="448.499766" y="77.251586" style="fill: #f119c3; stroke: #f119c3; stroke-linejoin: bevel"/>
     <use xlink:href="#m947cdcaef1" x="489.473013" y="77.251586" style="fill: #f119c3; stroke: #f119c3; stroke-linejoin: bevel"/>
     <use xlink:href="#m947cdcaef1" x="529.506887" y="77.251586" style="fill: #f119c3; stroke: #f119c3; stroke-linejoin: bevel"/>
     <use xlink:href="#m947cdcaef1" x="568.717487" y="77.251586" style="fill: #f119c3; stroke: #f119c3; stroke-linejoin: bevel"/>
     <use xlink:href="#m947cdcaef1" x="608.69699" y="77.251586" style="fill: #f119c3; stroke: #f119c3; stroke-linejoin: bevel"/>
     <use xlink:href="#m947cdcaef1" x="649.699455" y="77.251586" style="fill: #f119c3; stroke: #f119c3; stroke-linejoin: bevel"/>
     <use xlink:href="#m947cdcaef1" x="685.602656" y="77.251586" style="fill: #f119c3; stroke: #f119c3; stroke-linejoin: bevel"/>
     <use xlink:href="#m947cdcaef1" x="720.531915" y="77.251586" style="fill: #f119c3; stroke: #f119c3; stroke-linejoin: bevel"/>
     <use xlink:href="#m947cdcaef1" x="754.955978" y="77.251586" style="fill: #f119c3; stroke: #f119c3; stroke-linejoin: bevel"/>
     <use xlink:href="#m947cdcaef1" x="790.579317" y="77.251586" style="fill: #f119c3; stroke: #f119c3; stroke-linejoin: bevel"/>
    </g>
   </g>
   <g id="line2d_36">
    <path d="M 148.974981 145.98304 
" clip-path="url(#p6246e455f4)" style="fill: none; stroke-dasharray: 5.55,2.4; stroke-dashoffset: 0; stroke: #0d5915; stroke-width: 1.5"/>
    <defs>
     <path id="m2c185ed234" d="M 0 3.5 
C 0.928211 3.5 1.81853 3.131218 2.474874 2.474874 
C 3.131218 1.81853 3.5 0.928211 3.5 0 
C 3.5 -0.928211 3.131218 -1.81853 2.474874 -2.474874 
C 1.81853 -3.131218 0.928211 -3.5 0 -3.5 
C -0.928211 -3.5 -1.81853 -3.131218 -2.474874 -2.474874 
C -3.131218 -1.81853 -3.5 -0.928211 -3.5 0 
C -3.5 0.928211 -3.131218 1.81853 -2.474874 2.474874 
C -1.81853 3.131218 -0.928211 3.5 0 3.5 
z
" style="stroke: #0d5915"/>
    </defs>
    <g clip-path="url(#p6246e455f4)">
     <use xlink:href="#m2c185ed234" x="148.974981" y="145.98304" style="fill: #0d5915; stroke: #0d5915"/>
    </g>
   </g>
   <g id="line2d_37">
    <path d="M 148.974981 145.98304 
L 777.6 145.98304 
" clip-path="url(#p6246e455f4)" style="fill: none; stroke-dasharray: 5.55,2.4; stroke-dashoffset: 0; stroke: #0d5915; stroke-width: 1.5"/>
   </g>
   <g id="line2d_38">
    <path d="M 149.942376 145.98304 
L 198.897702 77.251791 
L 238.183272 77.251668 
L 277.303717 77.251668 
L 313.891396 77.251668 
L 348.126972 77.251668 
L 383.098235 77.251668 
L 418.877712 77.251668 
L 461.556254 77.251668 
L 501.127964 77.251668 
L 541.591479 77.251668 
L 582.005508 77.251668 
L 620.561961 77.251668 
L 654.941585 77.251668 
L 691.238374 77.251668 
L 725.257856 77.251668 
L 763.435379 77.251668 
L 802.710932 77.251668 
" clip-path="url(#p6246e455f4)" style="fill: none; stroke: #0d5915; stroke-width: 1.5; stroke-linecap: square"/>
    <defs>
     <path id="m9afd312f8c" d="M 0 -5 
L -1.12257 -1.545085 
L -4.755283 -1.545085 
L -1.816356 0.59017 
L -2.938926 4.045085 
L -0 1.90983 
L 2.938926 4.045085 
L 1.816356 0.59017 
L 4.755283 -1.545085 
L 1.12257 -1.545085 
z
" style="stroke: #0d5915; stroke-linejoin: bevel"/>
    </defs>
    <g clip-path="url(#p6246e455f4)">
     <use xlink:href="#m9afd312f8c" x="149.942376" y="145.98304" style="fill: #0d5915; stroke: #0d5915; stroke-linejoin: bevel"/>
     <use xlink:href="#m9afd312f8c" x="198.897702" y="77.251791" style="fill: #0d5915; stroke: #0d5915; stroke-linejoin: bevel"/>
     <use xlink:href="#m9afd312f8c" x="238.183272" y="77.251668" style="fill: #0d5915; stroke: #0d5915; stroke-linejoin: bevel"/>
     <use xlink:href="#m9afd312f8c" x="277.303717" y="77.251668" style="fill: #0d5915; stroke: #0d5915; stroke-linejoin: bevel"/>
     <use xlink:href="#m9afd312f8c" x="313.891396" y="77.251668" style="fill: #0d5915; stroke: #0d5915; stroke-linejoin: bevel"/>
     <use xlink:href="#m9afd312f8c" x="348.126972" y="77.251668" style="fill: #0d5915; stroke: #0d5915; stroke-linejoin: bevel"/>
     <use xlink:href="#m9afd312f8c" x="383.098235" y="77.251668" style="fill: #0d5915; stroke: #0d5915; stroke-linejoin: bevel"/>
     <use xlink:href="#m9afd312f8c" x="418.877712" y="77.251668" style="fill: #0d5915; stroke: #0d5915; stroke-linejoin: bevel"/>
     <use xlink:href="#m9afd312f8c" x="461.556254" y="77.251668" style="fill: #0d5915; stroke: #0d5915; stroke-linejoin: bevel"/>
     <use xlink:href="#m9afd312f8c" x="501.127964" y="77.251668" style="fill: #0d5915; stroke: #0d5915; stroke-linejoin: bevel"/>
     <use xlink:href="#m9afd312f8c" x="541.591479" y="77.251668" style="fill: #0d5915; stroke: #0d5915; stroke-linejoin: bevel"/>
     <use xlink:href="#m9afd312f8c" x="582.005508" y="77.251668" style="fill: #0d5915; stroke: #0d5915; stroke-linejoin: bevel"/>
     <use xlink:href="#m9afd312f8c" x="620.561961" y="77.251668" style="fill: #0d5915; stroke: #0d5915; stroke-linejoin: bevel"/>
     <use xlink:href="#m9afd312f8c" x="654.941585" y="77.251668" style="fill: #0d5915; stroke: #0d5915; stroke-linejoin: bevel"/>
     <use xlink:href="#m9afd312f8c" x="691.238374" y="77.251668" style="fill: #0d5915; stroke: #0d5915; stroke-linejoin: bevel"/>
     <use xlink:href="#m9afd312f8c" x="725.257856" y="77.251668" style="fill: #0d5915; stroke: #0d5915; stroke-linejoin: bevel"/>
     <use xlink:href="#m9afd312f8c" x="763.435379" y="77.251668" style="fill: #0d5915; stroke: #0d5915; stroke-linejoin: bevel"/>
     <use xlink:href="#m9afd312f8c" x="802.710932" y="77.251668" style="fill: #0d5915; stroke: #0d5915; stroke-linejoin: bevel"/>
    </g>
   </g>
   <g id="line2d_39">
    <path d="M 149.982087 249.080119 
" clip-path="url(#p6246e455f4)" style="fill: none; stroke-dasharray: 5.55,2.4; stroke-dashoffset: 0; stroke: #e31d1d; stroke-width: 1.5"/>
    <defs>
     <path id="m0540208e7d" d="M 0 3.5 
C 0.928211 3.5 1.81853 3.131218 2.474874 2.474874 
C 3.131218 1.81853 3.5 0.928211 3.5 0 
C 3.5 -0.928211 3.131218 -1.81853 2.474874 -2.474874 
C 1.81853 -3.131218 0.928211 -3.5 0 -3.5 
C -0.928211 -3.5 -1.81853 -3.131218 -2.474874 -2.474874 
C -3.131218 -1.81853 -3.5 -0.928211 -3.5 0 
C -3.5 0.928211 -3.131218 1.81853 -2.474874 2.474874 
C -1.81853 3.131218 -0.928211 3.5 0 3.5 
z
" style="stroke: #e31d1d"/>
    </defs>
    <g clip-path="url(#p6246e455f4)">
     <use xlink:href="#m0540208e7d" x="149.982087" y="249.080119" style="fill: #e31d1d; stroke: #e31d1d"/>
    </g>
   </g>
   <g id="line2d_40">
    <path d="M 149.982087 249.080119 
L 777.6 249.080119 
" clip-path="url(#p6246e455f4)" style="fill: none; stroke-dasharray: 5.55,2.4; stroke-dashoffset: 0; stroke: #e31d1d; stroke-width: 1.5"/>
   </g>
   <g id="line2d_41">
    <path d="M 146.833446 249.080119 
L 188.423405 77.25175 
L 225.24669 77.25175 
L 264.838818 77.25175 
L 299.24777 77.25175 
L 334.960502 77.25175 
L 376.086647 77.25175 
L 418.175902 77.25175 
L 458.101177 77.25175 
L 498.406408 77.25175 
L 536.184247 77.25175 
L 570.708481 77.25175 
L 605.352258 77.25175 
L 640.131544 77.25175 
L 678.123382 77.25175 
L 717.178116 77.25175 
L 756.175153 77.25175 
L 794.637182 77.25175 
" clip-path="url(#p6246e455f4)" style="fill: none; stroke: #e31d1d; stroke-width: 1.5; stroke-linecap: square"/>
    <defs>
     <path id="macd3e6f427" d="M 0 -5 
L -1.12257 -1.545085 
L -4.755283 -1.545085 
L -1.816356 0.59017 
L -2.938926 4.045085 
L -0 1.90983 
L 2.938926 4.045085 
L 1.816356 0.59017 
L 4.755283 -1.545085 
L 1.12257 -1.545085 
z
" style="stroke: #e31d1d; stroke-linejoin: bevel"/>
    </defs>
    <g clip-path="url(#p6246e455f4)">
     <use xlink:href="#macd3e6f427" x="146.833446" y="249.080119" style="fill: #e31d1d; stroke: #e31d1d; stroke-linejoin: bevel"/>
     <use xlink:href="#macd3e6f427" x="188.423405" y="77.25175" style="fill: #e31d1d; stroke: #e31d1d; stroke-linejoin: bevel"/>
     <use xlink:href="#macd3e6f427" x="225.24669" y="77.25175" style="fill: #e31d1d; stroke: #e31d1d; stroke-linejoin: bevel"/>
     <use xlink:href="#macd3e6f427" x="264.838818" y="77.25175" style="fill: #e31d1d; stroke: #e31d1d; stroke-linejoin: bevel"/>
     <use xlink:href="#macd3e6f427" x="299.24777" y="77.25175" style="fill: #e31d1d; stroke: #e31d1d; stroke-linejoin: bevel"/>
     <use xlink:href="#macd3e6f427" x="334.960502" y="77.25175" style="fill: #e31d1d; stroke: #e31d1d; stroke-linejoin: bevel"/>
     <use xlink:href="#macd3e6f427" x="376.086647" y="77.25175" style="fill: #e31d1d; stroke: #e31d1d; stroke-linejoin: bevel"/>
     <use xlink:href="#macd3e6f427" x="418.175902" y="77.25175" style="fill: #e31d1d; stroke: #e31d1d; stroke-linejoin: bevel"/>
     <use xlink:href="#macd3e6f427" x="458.101177" y="77.25175" style="fill: #e31d1d; stroke: #e31d1d; stroke-linejoin: bevel"/>
     <use xlink:href="#macd3e6f427" x="498.406408" y="77.25175" style="fill: #e31d1d; stroke: #e31d1d; stroke-linejoin: bevel"/>
     <use xlink:href="#macd3e6f427" x="536.184247" y="77.25175" style="fill: #e31d1d; stroke: #e31d1d; stroke-linejoin: bevel"/>
     <use xlink:href="#macd3e6f427" x="570.708481" y="77.25175" style="fill: #e31d1d; stroke: #e31d1d; stroke-linejoin: bevel"/>
     <use xlink:href="#macd3e6f427" x="605.352258" y="77.25175" style="fill: #e31d1d; stroke: #e31d1d; stroke-linejoin: bevel"/>
     <use xlink:href="#macd3e6f427" x="640.131544" y="77.25175" style="fill: #e31d1d; stroke: #e31d1d; stroke-linejoin: bevel"/>
     <use xlink:href="#macd3e6f427" x="678.123382" y="77.25175" style="fill: #e31d1d; stroke: #e31d1d; stroke-linejoin: bevel"/>
     <use xlink:href="#macd3e6f427" x="717.178116" y="77.25175" style="fill: #e31d1d; stroke: #e31d1d; stroke-linejoin: bevel"/>
     <use xlink:href="#macd3e6f427" x="756.175153" y="77.25175" style="fill: #e31d1d; stroke: #e31d1d; stroke-linejoin: bevel"/>
     <use xlink:href="#macd3e6f427" x="794.637182" y="77.25175" style="fill: #e31d1d; stroke: #e31d1d; stroke-linejoin: bevel"/>
    </g>
   </g>
   <g id="line2d_42">
    <path d="M 165.375537 369.36 
" clip-path="url(#p6246e455f4)" style="fill: none; stroke-dasharray: 5.55,2.4; stroke-dashoffset: 0; stroke: #1c24dc; stroke-width: 1.5"/>
    <defs>
     <path id="m8c98b87411" d="M 0 3.5 
C 0.928211 3.5 1.81853 3.131218 2.474874 2.474874 
C 3.131218 1.81853 3.5 0.928211 3.5 0 
C 3.5 -0.928211 3.131218 -1.81853 2.474874 -2.474874 
C 1.81853 -3.131218 0.928211 -3.5 0 -3.5 
C -0.928211 -3.5 -1.81853 -3.131218 -2.474874 -2.474874 
C -3.131218 -1.81853 -3.5 -0.928211 -3.5 0 
C -3.5 0.928211 -3.131218 1.81853 -2.474874 2.474874 
C -1.81853 3.131218 -0.928211 3.5 0 3.5 
z
" style="stroke: #1c24dc"/>
    </defs>
    <g clip-path="url(#p6246e455f4)">
     <use xlink:href="#m8c98b87411" x="165.375537" y="369.36" style="fill: #1c24dc; stroke: #1c24dc"/>
    </g>
   </g>
   <g id="line2d_43">
    <path d="M 165.375537 369.36 
L 777.6 369.36 
" clip-path="url(#p6246e455f4)" style="fill: none; stroke-dasharray: 5.55,2.4; stroke-dashoffset: 0; stroke: #1c24dc; stroke-width: 1.5"/>
   </g>
   <g id="line2d_44">
    <path d="M 173.540417 369.36 
L 248.15095 128.800259 
L 321.271553 79.703384 
L 387.771753 70.85515 
L 449.2807 68.390038 
L 514.502288 67.543207 
L 585.298739 67.212357 
L 659.67446 67.071062 
L 725.396541 67.006539 
L 767.442437 66.975527 
L 809.637828 66.96 
" clip-path="url(#p6246e455f4)" style="fill: none; stroke: #1c24dc; stroke-width: 1.5; stroke-linecap: square"/>
    <defs>
     <path id="m72fea6960e" d="M 0 -5 
L -1.12257 -1.545085 
L -4.755283 -1.545085 
L -1.816356 0.59017 
L -2.938926 4.045085 
L -0 1.90983 
L 2.938926 4.045085 
L 1.816356 0.59017 
L 4.755283 -1.545085 
L 1.12257 -1.545085 
z
" style="stroke: #1c24dc; stroke-linejoin: bevel"/>
    </defs>
    <g clip-path="url(#p6246e455f4)">
     <use xlink:href="#m72fea6960e" x="173.540417" y="369.36" style="fill: #1c24dc; stroke: #1c24dc; stroke-linejoin: bevel"/>
     <use xlink:href="#m72fea6960e" x="248.15095" y="128.800259" style="fill: #1c24dc; stroke: #1c24dc; stroke-linejoin: bevel"/>
     <use xlink:href="#m72fea6960e" x="321.271553" y="79.703384" style="fill: #1c24dc; stroke: #1c24dc; stroke-linejoin: bevel"/>
     <use xlink:href="#m72fea6960e" x="387.771753" y="70.85515" style="fill: #1c24dc; stroke: #1c24dc; stroke-linejoin: bevel"/>
     <use xlink:href="#m72fea6960e" x="449.2807" y="68.390038" style="fill: #1c24dc; stroke: #1c24dc; stroke-linejoin: bevel"/>
     <use xlink:href="#m72fea6960e" x="514.502288" y="67.543207" style="fill: #1c24dc; stroke: #1c24dc; stroke-linejoin: bevel"/>
     <use xlink:href="#m72fea6960e" x="585.298739" y="67.212357" style="fill: #1c24dc; stroke: #1c24dc; stroke-linejoin: bevel"/>
     <use xlink:href="#m72fea6960e" x="659.67446" y="67.071062" style="fill: #1c24dc; stroke: #1c24dc; stroke-linejoin: bevel"/>
     <use xlink:href="#m72fea6960e" x="725.396541" y="67.006539" style="fill: #1c24dc; stroke: #1c24dc; stroke-linejoin: bevel"/>
     <use xlink:href="#m72fea6960e" x="767.442437" y="66.975527" style="fill: #1c24dc; stroke: #1c24dc; stroke-linejoin: bevel"/>
     <use xlink:href="#m72fea6960e" x="809.637828" y="66.96" style="fill: #1c24dc; stroke: #1c24dc; stroke-linejoin: bevel"/>
    </g>
   </g>
   <g id="patch_3">
    <path d="M 108 384.48 
L 108 51.84 
" style="fill: none; stroke: #000000; stroke-width: 0.8; stroke-linejoin: miter; stroke-linecap: square"/>
   </g>
   <g id="patch_4">
    <path d="M 777.6 384.48 
L 777.6 51.84 
" style="fill: none; stroke: #000000; stroke-width: 0.8; stroke-linejoin: miter; stroke-linecap: square"/>
   </g>
   <g id="patch_5">
    <path d="M 108 384.48 
L 777.6 384.48 
" style="fill: none; stroke: #000000; stroke-width: 0.8; stroke-linejoin: miter; stroke-linecap: square"/>
   </g>
   <g id="patch_6">
    <path d="M 108 51.84 
L 777.6 51.84 
" style="fill: none; stroke: #000000; stroke-width: 0.8; stroke-linejoin: miter; stroke-linecap: square"/>
   </g>
   <g id="legend_1">
    <g id="patch_7">
     <path d="M 115 162.586875 
L 184.628125 162.586875 
Q 186.628125 162.586875 186.628125 160.586875 
L 186.628125 58.84 
Q 186.628125 56.84 184.628125 56.84 
L 115 56.84 
Q 113 56.84 113 58.84 
L 113 160.586875 
Q 113 162.586875 115 162.586875 
z
" style="fill: #ffffff; opacity: 0.8; stroke: #cccccc; stroke-linejoin: miter"/>
    </g>
    <g id="text_16">
     <!-- C values -->
     <g transform="translate(128.471094 68.438437) scale(0.1 -0.1)">
      <use xlink:href="#DejaVuSans-43"/>
      <use xlink:href="#DejaVuSans-20" x="69.824219"/>
      <use xlink:href="#DejaVuSans-76" x="101.611328"/>
      <use xlink:href="#DejaVuSans-61" x="160.791016"/>
      <use xlink:href="#DejaVuSans-6c" x="222.070312"/>
      <use xlink:href="#DejaVuSans-75" x="249.853516"/>
      <use xlink:href="#DejaVuSans-65" x="313.232422"/>
      <use xlink:href="#DejaVuSans-73" x="374.755859"/>
     </g>
    </g>
    <g id="line2d_45">
     <path d="M 117 79.616562 
L 127 79.616562 
L 137 79.616562 
" style="fill: none; stroke: #36ff33; stroke-width: 2; stroke-linecap: square"/>
    </g>
    <g id="text_17">
     <!-- C=1 -->
     <g transform="translate(145 83.116562) scale(0.1 -0.1)">
      <defs>
       <path id="DejaVuSans-3d" d="M 678 2906 
L 4684 2906 
L 4684 2381 
L 678 2381 
L 678 2906 
z
M 678 1631 
L 4684 1631 
L 4684 1100 
L 678 1100 
L 678 1631 
z
" transform="scale(0.015625)"/>
      </defs>
      <use xlink:href="#DejaVuSans-43"/>
      <use xlink:href="#DejaVuSans-3d" x="69.824219"/>
      <use xlink:href="#DejaVuSans-31" x="153.613281"/>
     </g>
    </g>
    <g id="line2d_46">
     <path d="M 117 94.294688 
L 127 94.294688 
L 137 94.294688 
" style="fill: none; stroke: #b6c800; stroke-width: 2; stroke-linecap: square"/>
    </g>
    <g id="text_18">
     <!-- C=0.75 -->
     <g transform="translate(145 97.794688) scale(0.1 -0.1)">
      <use xlink:href="#DejaVuSans-43"/>
      <use xlink:href="#DejaVuSans-3d" x="69.824219"/>
      <use xlink:href="#DejaVuSans-30" x="153.613281"/>
      <use xlink:href="#DejaVuSans-2e" x="217.236328"/>
      <use xlink:href="#DejaVuSans-37" x="249.023438"/>
      <use xlink:href="#DejaVuSans-35" x="312.646484"/>
     </g>
    </g>
    <g id="line2d_47">
     <path d="M 117 108.972812 
L 127 108.972812 
L 137 108.972812 
" style="fill: none; stroke: #f119c3; stroke-width: 2; stroke-linecap: square"/>
    </g>
    <g id="text_19">
     <!-- C=0.5 -->
     <g transform="translate(145 112.472812) scale(0.1 -0.1)">
      <use xlink:href="#DejaVuSans-43"/>
      <use xlink:href="#DejaVuSans-3d" x="69.824219"/>
      <use xlink:href="#DejaVuSans-30" x="153.613281"/>
      <use xlink:href="#DejaVuSans-2e" x="217.236328"/>
      <use xlink:href="#DejaVuSans-35" x="249.023438"/>
     </g>
    </g>
    <g id="line2d_48">
     <path d="M 117 123.650937 
L 127 123.650937 
L 137 123.650937 
" style="fill: none; stroke: #0d5915; stroke-width: 2; stroke-linecap: square"/>
    </g>
    <g id="text_20">
     <!-- C=0.25 -->
     <g transform="translate(145 127.150937) scale(0.1 -0.1)">
      <use xlink:href="#DejaVuSans-43"/>
      <use xlink:href="#DejaVuSans-3d" x="69.824219"/>
      <use xlink:href="#DejaVuSans-30" x="153.613281"/>
      <use xlink:href="#DejaVuSans-2e" x="217.236328"/>
      <use xlink:href="#DejaVuSans-32" x="249.023438"/>
      <use xlink:href="#DejaVuSans-35" x="312.646484"/>
     </g>
    </g>
    <g id="line2d_49">
     <path d="M 117 138.329062 
L 127 138.329062 
L 137 138.329062 
" style="fill: none; stroke: #e31d1d; stroke-width: 2; stroke-linecap: square"/>
    </g>
    <g id="text_21">
     <!-- C=0.1 -->
     <g transform="translate(145 141.829062) scale(0.1 -0.1)">
      <use xlink:href="#DejaVuSans-43"/>
      <use xlink:href="#DejaVuSans-3d" x="69.824219"/>
      <use xlink:href="#DejaVuSans-30" x="153.613281"/>
      <use xlink:href="#DejaVuSans-2e" x="217.236328"/>
      <use xlink:href="#DejaVuSans-31" x="249.023438"/>
     </g>
    </g>
    <g id="line2d_50">
     <path d="M 117 153.007187 
L 127 153.007187 
L 137 153.007187 
" style="fill: none; stroke: #1c24dc; stroke-width: 2; stroke-linecap: square"/>
    </g>
    <g id="text_22">
     <!-- C=0.05 -->
     <g transform="translate(145 156.507187) scale(0.1 -0.1)">
      <use xlink:href="#DejaVuSans-43"/>
      <use xlink:href="#DejaVuSans-3d" x="69.824219"/>
      <use xlink:href="#DejaVuSans-30" x="153.613281"/>
      <use xlink:href="#DejaVuSans-2e" x="217.236328"/>
      <use xlink:href="#DejaVuSans-30" x="249.023438"/>
      <use xlink:href="#DejaVuSans-35" x="312.646484"/>
     </g>
    </g>
   </g>
   <g id="legend_2">
    <g id="patch_8">
     <path d="M 711.9 103.874375 
L 770.6 103.874375 
Q 772.6 103.874375 772.6 101.874375 
L 772.6 58.84 
Q 772.6 56.84 770.6 56.84 
L 711.9 56.84 
Q 709.9 56.84 709.9 58.84 
L 709.9 101.874375 
Q 709.9 103.874375 711.9 103.874375 
z
" style="fill: #ffffff; opacity: 0.8; stroke: #cccccc; stroke-linejoin: miter"/>
    </g>
    <g id="text_23">
     <!-- Optimizers -->
     <g transform="translate(714.170313 68.438437) scale(0.1 -0.1)">
      <defs>
       <path id="DejaVuSans-4f" d="M 2522 4238 
Q 1834 4238 1429 3725 
Q 1025 3213 1025 2328 
Q 1025 1447 1429 934 
Q 1834 422 2522 422 
Q 3209 422 3611 934 
Q 4013 1447 4013 2328 
Q 4013 3213 3611 3725 
Q 3209 4238 2522 4238 
z
M 2522 4750 
Q 3503 4750 4090 4092 
Q 4678 3434 4678 2328 
Q 4678 1225 4090 567 
Q 3503 -91 2522 -91 
Q 1538 -91 948 565 
Q 359 1222 359 2328 
Q 359 3434 948 4092 
Q 1538 4750 2522 4750 
z
" transform="scale(0.015625)"/>
       <path id="DejaVuSans-7a" d="M 353 3500 
L 3084 3500 
L 3084 2975 
L 922 459 
L 3084 459 
L 3084 0 
L 275 0 
L 275 525 
L 2438 3041 
L 353 3041 
L 353 3500 
z
" transform="scale(0.015625)"/>
      </defs>
      <use xlink:href="#DejaVuSans-4f"/>
      <use xlink:href="#DejaVuSans-70" x="78.710938"/>
      <use xlink:href="#DejaVuSans-74" x="142.1875"/>
      <use xlink:href="#DejaVuSans-69" x="181.396484"/>
      <use xlink:href="#DejaVuSans-6d" x="209.179688"/>
      <use xlink:href="#DejaVuSans-69" x="306.591797"/>
      <use xlink:href="#DejaVuSans-7a" x="334.375"/>
      <use xlink:href="#DejaVuSans-65" x="386.865234"/>
      <use xlink:href="#DejaVuSans-72" x="448.388672"/>
      <use xlink:href="#DejaVuSans-73" x="489.501953"/>
     </g>
    </g>
    <g id="line2d_51">
     <path d="M 713.9 79.616562 
L 723.9 79.616562 
L 733.9 79.616562 
" style="fill: none; stroke-dasharray: 5.55,2.4; stroke-dashoffset: 0; stroke: #000000; stroke-width: 1.5"/>
     <defs>
      <path id="m0442320931" d="M 0 3.5 
C 0.928211 3.5 1.81853 3.131218 2.474874 2.474874 
C 3.131218 1.81853 3.5 0.928211 3.5 0 
C 3.5 -0.928211 3.131218 -1.81853 2.474874 -2.474874 
C 1.81853 -3.131218 0.928211 -3.5 0 -3.5 
C -0.928211 -3.5 -1.81853 -3.131218 -2.474874 -2.474874 
C -3.131218 -1.81853 -3.5 -0.928211 -3.5 0 
C -3.5 0.928211 -3.131218 1.81853 -2.474874 2.474874 
C -1.81853 3.131218 -0.928211 3.5 0 3.5 
z
" style="stroke: #000000"/>
     </defs>
     <g>
      <use xlink:href="#m0442320931" x="723.9" y="79.616562" style="stroke: #000000"/>
     </g>
    </g>
    <g id="text_24">
     <!-- $PA_{C\searrow}$ -->
     <g transform="translate(741.9 83.116562) scale(0.1 -0.1)">
      <defs>
       <path id="DejaVuSans-Oblique-50" d="M 1081 4666 
L 2541 4666 
Q 3178 4666 3512 4369 
Q 3847 4072 3847 3500 
Q 3847 2731 3353 2303 
Q 2859 1875 1966 1875 
L 1172 1875 
L 806 0 
L 172 0 
L 1081 4666 
z
M 1613 4147 
L 1275 2394 
L 2069 2394 
Q 2606 2394 2893 2669 
Q 3181 2944 3181 3456 
Q 3181 3784 2986 3965 
Q 2791 4147 2438 4147 
L 1613 4147 
z
" transform="scale(0.015625)"/>
       <path id="DejaVuSans-Oblique-41" d="M 2356 4666 
L 3072 4666 
L 3938 0 
L 3278 0 
L 3084 1197 
L 984 1197 
L 325 0 
L -341 0 
L 2356 4666 
z
M 2584 4044 
L 1275 1722 
L 2988 1722 
L 2584 4044 
z
" transform="scale(0.015625)"/>
       <path id="DejaVuSans-Oblique-43" d="M 4447 4306 
L 4319 3641 
Q 4019 3944 3683 4091 
Q 3347 4238 2956 4238 
Q 2422 4238 2017 3981 
Q 1613 3725 1319 3200 
Q 1131 2863 1032 2486 
Q 934 2109 934 1728 
Q 934 1091 1264 756 
Q 1594 422 2222 422 
Q 2656 422 3056 561 
Q 3456 700 3834 978 
L 3688 231 
Q 3316 72 2936 -9 
Q 2556 -91 2175 -91 
Q 1278 -91 773 396 
Q 269 884 269 1753 
Q 269 2309 461 2846 
Q 653 3384 1013 3828 
Q 1394 4300 1883 4525 
Q 2372 4750 3022 4750 
Q 3422 4750 3780 4639 
Q 4138 4528 4447 4306 
z
" transform="scale(0.015625)"/>
       <path id="DejaVuSans-2198" d="M 4497 359 
L 4300 163 
L 2563 163 
L 2563 691 
L 3594 691 
L 900 3384 
L 1275 3759 
L 3969 1066 
L 3969 2097 
L 4497 2097 
L 4497 359 
z
" transform="scale(0.015625)"/>
      </defs>
      <use xlink:href="#DejaVuSans-Oblique-50" transform="translate(0 0.09375)"/>
      <use xlink:href="#DejaVuSans-Oblique-41" transform="translate(60.302734 0.09375)"/>
      <use xlink:href="#DejaVuSans-Oblique-43" transform="translate(128.710938 -16.3125) scale(0.7)"/>
      <use xlink:href="#DejaVuSans-2198" transform="translate(191.225586 -16.3125) scale(0.7)"/>
     </g>
    </g>
    <g id="line2d_52">
     <path d="M 713.9 94.294688 
L 723.9 94.294688 
L 733.9 94.294688 
" style="fill: none; stroke: #000000; stroke-width: 1.5; stroke-linecap: square"/>
     <defs>
      <path id="m73c45f5806" d="M 0 -5 
L -1.12257 -1.545085 
L -4.755283 -1.545085 
L -1.816356 0.59017 
L -2.938926 4.045085 
L -0 1.90983 
L 2.938926 4.045085 
L 1.816356 0.59017 
L 4.755283 -1.545085 
L 1.12257 -1.545085 
z
" style="stroke: #000000; stroke-linejoin: bevel"/>
     </defs>
     <g>
      <use xlink:href="#m73c45f5806" x="723.9" y="94.294688" style="stroke: #000000; stroke-linejoin: bevel"/>
     </g>
    </g>
    <g id="text_25">
     <!-- PGA -->
     <g transform="translate(741.9 97.794688) scale(0.1 -0.1)">
      <defs>
       <path id="DejaVuSans-50" d="M 1259 4147 
L 1259 2394 
L 2053 2394 
Q 2494 2394 2734 2622 
Q 2975 2850 2975 3272 
Q 2975 3691 2734 3919 
Q 2494 4147 2053 4147 
L 1259 4147 
z
M 628 4666 
L 2053 4666 
Q 2838 4666 3239 4311 
Q 3641 3956 3641 3272 
Q 3641 2581 3239 2228 
Q 2838 1875 2053 1875 
L 1259 1875 
L 1259 0 
L 628 0 
L 628 4666 
z
" transform="scale(0.015625)"/>
       <path id="DejaVuSans-47" d="M 3809 666 
L 3809 1919 
L 2778 1919 
L 2778 2438 
L 4434 2438 
L 4434 434 
Q 4069 175 3628 42 
Q 3188 -91 2688 -91 
Q 1594 -91 976 548 
Q 359 1188 359 2328 
Q 359 3472 976 4111 
Q 1594 4750 2688 4750 
Q 3144 4750 3555 4637 
Q 3966 4525 4313 4306 
L 4313 3634 
Q 3963 3931 3569 4081 
Q 3175 4231 2741 4231 
Q 1884 4231 1454 3753 
Q 1025 3275 1025 2328 
Q 1025 1384 1454 906 
Q 1884 428 2741 428 
Q 3075 428 3337 486 
Q 3600 544 3809 666 
z
" transform="scale(0.015625)"/>
       <path id="DejaVuSans-41" d="M 2188 4044 
L 1331 1722 
L 3047 1722 
L 2188 4044 
z
M 1831 4666 
L 2547 4666 
L 4325 0 
L 3669 0 
L 3244 1197 
L 1141 1197 
L 716 0 
L 50 0 
L 1831 4666 
z
" transform="scale(0.015625)"/>
      </defs>
      <use xlink:href="#DejaVuSans-50"/>
      <use xlink:href="#DejaVuSans-47" x="60.302734"/>
      <use xlink:href="#DejaVuSans-41" x="137.792969"/>
     </g>
    </g>
   </g>
  </g>
 </g>
 <defs>
  <clipPath id="p6246e455f4">
   <rect x="108" y="51.84" width="669.6" height="332.64"/>
  </clipPath>
 </defs>
</svg>
