<?xml version="1.0" encoding="utf-8" standalone="no"?>
<!DOCTYPE svg PUBLIC "-//W3C//DTD SVG 1.1//EN"
  "http://www.w3.org/Graphics/SVG/1.1/DTD/svg11.dtd">
<svg xmlns:xlink="http://www.w3.org/1999/xlink" width="576pt" height="432pt" viewBox="0 0 576 432" xmlns="http://www.w3.org/2000/svg" version="1.1">
 <metadata>
  <rdf:RDF xmlns:dc="http://purl.org/dc/elements/1.1/" xmlns:cc="http://creativecommons.org/ns#" xmlns:rdf="http://www.w3.org/1999/02/22-rdf-syntax-ns#">
   <cc:Work>
    <dc:type rdf:resource="http://purl.org/dc/dcmitype/StillImage"/>
    <dc:date>2024-12-27T11:41:26.787668</dc:date>
    <dc:format>image/svg+xml</dc:format>
    <dc:creator>
     <cc:Agent>
      <dc:title>Matplotlib v3.7.1, https://matplotlib.org/</dc:title>
     </cc:Agent>
    </dc:creator>
   </cc:Work>
  </rdf:RDF>
 </metadata>
 <defs>
  <style type="text/css">*{stroke-linejoin: round; stroke-linecap: butt}</style>
 </defs>
 <g id="figure_1">
  <g id="patch_1">
   <path d="M 0 432 
L 576 432 
L 576 0 
L 0 0 
z
" style="fill: #ffffff"/>
  </g>
  <g id="axes_1">
   <g id="patch_2">
    <path d="M 72 384.48 
L 518.4 384.48 
L 518.4 51.84 
L 72 51.84 
z
" style="fill: #ffffff"/>
   </g>
   <g id="matplotlib.axis_1">
    <g id="xtick_1">
     <g id="line2d_1">
      <path d="M 72 384.48 
L 72 51.84 
" clip-path="url(#pfc07d1f80e)" style="fill: none; stroke: #b0b0b0; stroke-width: 0.8; stroke-linecap: square"/>
     </g>
     <g id="line2d_2">
      <defs>
       <path id="m14a55f9c76" d="M 0 0 
L 0 3.5 
" style="stroke: #000000; stroke-width: 0.8"/>
      </defs>
      <g>
       <use xlink:href="#m14a55f9c76" x="72" y="384.48" style="stroke: #000000; stroke-width: 0.8"/>
      </g>
     </g>
     <g id="text_1">
      <!-- 0 -->
      <g transform="translate(68.81875 399.078438) scale(0.1 -0.1)">
       <defs>
        <path id="DejaVuSans-30" d="M 2034 4250 
Q 1547 4250 1301 3770 
Q 1056 3291 1056 2328 
Q 1056 1369 1301 889 
Q 1547 409 2034 409 
Q 2525 409 2770 889 
Q 3016 1369 3016 2328 
Q 3016 3291 2770 3770 
Q 2525 4250 2034 4250 
z
M 2034 4750 
Q 2819 4750 3233 4129 
Q 3647 3509 3647 2328 
Q 3647 1150 3233 529 
Q 2819 -91 2034 -91 
Q 1250 -91 836 529 
Q 422 1150 422 2328 
Q 422 3509 836 4129 
Q 1250 4750 2034 4750 
z
" transform="scale(0.015625)"/>
       </defs>
       <use xlink:href="#DejaVuSans-30"/>
      </g>
     </g>
    </g>
    <g id="xtick_2">
     <g id="line2d_3">
      <path d="M 161.28 384.48 
L 161.28 51.84 
" clip-path="url(#pfc07d1f80e)" style="fill: none; stroke: #b0b0b0; stroke-width: 0.8; stroke-linecap: square"/>
     </g>
     <g id="line2d_4">
      <g>
       <use xlink:href="#m14a55f9c76" x="161.28" y="384.48" style="stroke: #000000; stroke-width: 0.8"/>
      </g>
     </g>
     <g id="text_2">
      <!-- 100 -->
      <g transform="translate(151.73625 399.078438) scale(0.1 -0.1)">
       <defs>
        <path id="DejaVuSans-31" d="M 794 531 
L 1825 531 
L 1825 4091 
L 703 3866 
L 703 4441 
L 1819 4666 
L 2450 4666 
L 2450 531 
L 3481 531 
L 3481 0 
L 794 0 
L 794 531 
z
" transform="scale(0.015625)"/>
       </defs>
       <use xlink:href="#DejaVuSans-31"/>
       <use xlink:href="#DejaVuSans-30" x="63.623047"/>
       <use xlink:href="#DejaVuSans-30" x="127.246094"/>
      </g>
     </g>
    </g>
    <g id="xtick_3">
     <g id="line2d_5">
      <path d="M 250.56 384.48 
L 250.56 51.84 
" clip-path="url(#pfc07d1f80e)" style="fill: none; stroke: #b0b0b0; stroke-width: 0.8; stroke-linecap: square"/>
     </g>
     <g id="line2d_6">
      <g>
       <use xlink:href="#m14a55f9c76" x="250.56" y="384.48" style="stroke: #000000; stroke-width: 0.8"/>
      </g>
     </g>
     <g id="text_3">
      <!-- 200 -->
      <g transform="translate(241.01625 399.078438) scale(0.1 -0.1)">
       <defs>
        <path id="DejaVuSans-32" d="M 1228 531 
L 3431 531 
L 3431 0 
L 469 0 
L 469 531 
Q 828 903 1448 1529 
Q 2069 2156 2228 2338 
Q 2531 2678 2651 2914 
Q 2772 3150 2772 3378 
Q 2772 3750 2511 3984 
Q 2250 4219 1831 4219 
Q 1534 4219 1204 4116 
Q 875 4013 500 3803 
L 500 4441 
Q 881 4594 1212 4672 
Q 1544 4750 1819 4750 
Q 2544 4750 2975 4387 
Q 3406 4025 3406 3419 
Q 3406 3131 3298 2873 
Q 3191 2616 2906 2266 
Q 2828 2175 2409 1742 
Q 1991 1309 1228 531 
z
" transform="scale(0.015625)"/>
       </defs>
       <use xlink:href="#DejaVuSans-32"/>
       <use xlink:href="#DejaVuSans-30" x="63.623047"/>
       <use xlink:href="#DejaVuSans-30" x="127.246094"/>
      </g>
     </g>
    </g>
    <g id="xtick_4">
     <g id="line2d_7">
      <path d="M 339.84 384.48 
L 339.84 51.84 
" clip-path="url(#pfc07d1f80e)" style="fill: none; stroke: #b0b0b0; stroke-width: 0.8; stroke-linecap: square"/>
     </g>
     <g id="line2d_8">
      <g>
       <use xlink:href="#m14a55f9c76" x="339.84" y="384.48" style="stroke: #000000; stroke-width: 0.8"/>
      </g>
     </g>
     <g id="text_4">
      <!-- 300 -->
      <g transform="translate(330.29625 399.078438) scale(0.1 -0.1)">
       <defs>
        <path id="DejaVuSans-33" d="M 2597 2516 
Q 3050 2419 3304 2112 
Q 3559 1806 3559 1356 
Q 3559 666 3084 287 
Q 2609 -91 1734 -91 
Q 1441 -91 1130 -33 
Q 819 25 488 141 
L 488 750 
Q 750 597 1062 519 
Q 1375 441 1716 441 
Q 2309 441 2620 675 
Q 2931 909 2931 1356 
Q 2931 1769 2642 2001 
Q 2353 2234 1838 2234 
L 1294 2234 
L 1294 2753 
L 1863 2753 
Q 2328 2753 2575 2939 
Q 2822 3125 2822 3475 
Q 2822 3834 2567 4026 
Q 2313 4219 1838 4219 
Q 1578 4219 1281 4162 
Q 984 4106 628 3988 
L 628 4550 
Q 988 4650 1302 4700 
Q 1616 4750 1894 4750 
Q 2613 4750 3031 4423 
Q 3450 4097 3450 3541 
Q 3450 3153 3228 2886 
Q 3006 2619 2597 2516 
z
" transform="scale(0.015625)"/>
       </defs>
       <use xlink:href="#DejaVuSans-33"/>
       <use xlink:href="#DejaVuSans-30" x="63.623047"/>
       <use xlink:href="#DejaVuSans-30" x="127.246094"/>
      </g>
     </g>
    </g>
    <g id="xtick_5">
     <g id="line2d_9">
      <path d="M 429.12 384.48 
L 429.12 51.84 
" clip-path="url(#pfc07d1f80e)" style="fill: none; stroke: #b0b0b0; stroke-width: 0.8; stroke-linecap: square"/>
     </g>
     <g id="line2d_10">
      <g>
       <use xlink:href="#m14a55f9c76" x="429.12" y="384.48" style="stroke: #000000; stroke-width: 0.8"/>
      </g>
     </g>
     <g id="text_5">
      <!-- 400 -->
      <g transform="translate(419.57625 399.078438) scale(0.1 -0.1)">
       <defs>
        <path id="DejaVuSans-34" d="M 2419 4116 
L 825 1625 
L 2419 1625 
L 2419 4116 
z
M 2253 4666 
L 3047 4666 
L 3047 1625 
L 3713 1625 
L 3713 1100 
L 3047 1100 
L 3047 0 
L 2419 0 
L 2419 1100 
L 313 1100 
L 313 1709 
L 2253 4666 
z
" transform="scale(0.015625)"/>
       </defs>
       <use xlink:href="#DejaVuSans-34"/>
       <use xlink:href="#DejaVuSans-30" x="63.623047"/>
       <use xlink:href="#DejaVuSans-30" x="127.246094"/>
      </g>
     </g>
    </g>
    <g id="xtick_6">
     <g id="line2d_11">
      <path d="M 518.4 384.48 
L 518.4 51.84 
" clip-path="url(#pfc07d1f80e)" style="fill: none; stroke: #b0b0b0; stroke-width: 0.8; stroke-linecap: square"/>
     </g>
     <g id="line2d_12">
      <g>
       <use xlink:href="#m14a55f9c76" x="518.4" y="384.48" style="stroke: #000000; stroke-width: 0.8"/>
      </g>
     </g>
     <g id="text_6">
      <!-- 500 -->
      <g transform="translate(508.85625 399.078438) scale(0.1 -0.1)">
       <defs>
        <path id="DejaVuSans-35" d="M 691 4666 
L 3169 4666 
L 3169 4134 
L 1269 4134 
L 1269 2991 
Q 1406 3038 1543 3061 
Q 1681 3084 1819 3084 
Q 2600 3084 3056 2656 
Q 3513 2228 3513 1497 
Q 3513 744 3044 326 
Q 2575 -91 1722 -91 
Q 1428 -91 1123 -41 
Q 819 9 494 109 
L 494 744 
Q 775 591 1075 516 
Q 1375 441 1709 441 
Q 2250 441 2565 725 
Q 2881 1009 2881 1497 
Q 2881 1984 2565 2268 
Q 2250 2553 1709 2553 
Q 1456 2553 1204 2497 
Q 953 2441 691 2322 
L 691 4666 
z
" transform="scale(0.015625)"/>
       </defs>
       <use xlink:href="#DejaVuSans-35"/>
       <use xlink:href="#DejaVuSans-30" x="63.623047"/>
       <use xlink:href="#DejaVuSans-30" x="127.246094"/>
      </g>
     </g>
    </g>
    <g id="text_7">
     <!-- Computational time [s] -->
     <g transform="translate(214.281094 415.795938) scale(0.14 -0.14)">
      <defs>
       <path id="DejaVuSans-43" d="M 4122 4306 
L 4122 3641 
Q 3803 3938 3442 4084 
Q 3081 4231 2675 4231 
Q 1875 4231 1450 3742 
Q 1025 3253 1025 2328 
Q 1025 1406 1450 917 
Q 1875 428 2675 428 
Q 3081 428 3442 575 
Q 3803 722 4122 1019 
L 4122 359 
Q 3791 134 3420 21 
Q 3050 -91 2638 -91 
Q 1578 -91 968 557 
Q 359 1206 359 2328 
Q 359 3453 968 4101 
Q 1578 4750 2638 4750 
Q 3056 4750 3426 4639 
Q 3797 4528 4122 4306 
z
" transform="scale(0.015625)"/>
       <path id="DejaVuSans-6f" d="M 1959 3097 
Q 1497 3097 1228 2736 
Q 959 2375 959 1747 
Q 959 1119 1226 758 
Q 1494 397 1959 397 
Q 2419 397 2687 759 
Q 2956 1122 2956 1747 
Q 2956 2369 2687 2733 
Q 2419 3097 1959 3097 
z
M 1959 3584 
Q 2709 3584 3137 3096 
Q 3566 2609 3566 1747 
Q 3566 888 3137 398 
Q 2709 -91 1959 -91 
Q 1206 -91 779 398 
Q 353 888 353 1747 
Q 353 2609 779 3096 
Q 1206 3584 1959 3584 
z
" transform="scale(0.015625)"/>
       <path id="DejaVuSans-6d" d="M 3328 2828 
Q 3544 3216 3844 3400 
Q 4144 3584 4550 3584 
Q 5097 3584 5394 3201 
Q 5691 2819 5691 2113 
L 5691 0 
L 5113 0 
L 5113 2094 
Q 5113 2597 4934 2840 
Q 4756 3084 4391 3084 
Q 3944 3084 3684 2787 
Q 3425 2491 3425 1978 
L 3425 0 
L 2847 0 
L 2847 2094 
Q 2847 2600 2669 2842 
Q 2491 3084 2119 3084 
Q 1678 3084 1418 2786 
Q 1159 2488 1159 1978 
L 1159 0 
L 581 0 
L 581 3500 
L 1159 3500 
L 1159 2956 
Q 1356 3278 1631 3431 
Q 1906 3584 2284 3584 
Q 2666 3584 2933 3390 
Q 3200 3197 3328 2828 
z
" transform="scale(0.015625)"/>
       <path id="DejaVuSans-70" d="M 1159 525 
L 1159 -1331 
L 581 -1331 
L 581 3500 
L 1159 3500 
L 1159 2969 
Q 1341 3281 1617 3432 
Q 1894 3584 2278 3584 
Q 2916 3584 3314 3078 
Q 3713 2572 3713 1747 
Q 3713 922 3314 415 
Q 2916 -91 2278 -91 
Q 1894 -91 1617 61 
Q 1341 213 1159 525 
z
M 3116 1747 
Q 3116 2381 2855 2742 
Q 2594 3103 2138 3103 
Q 1681 3103 1420 2742 
Q 1159 2381 1159 1747 
Q 1159 1113 1420 752 
Q 1681 391 2138 391 
Q 2594 391 2855 752 
Q 3116 1113 3116 1747 
z
" transform="scale(0.015625)"/>
       <path id="DejaVuSans-75" d="M 544 1381 
L 544 3500 
L 1119 3500 
L 1119 1403 
Q 1119 906 1312 657 
Q 1506 409 1894 409 
Q 2359 409 2629 706 
Q 2900 1003 2900 1516 
L 2900 3500 
L 3475 3500 
L 3475 0 
L 2900 0 
L 2900 538 
Q 2691 219 2414 64 
Q 2138 -91 1772 -91 
Q 1169 -91 856 284 
Q 544 659 544 1381 
z
M 1991 3584 
L 1991 3584 
z
" transform="scale(0.015625)"/>
       <path id="DejaVuSans-74" d="M 1172 4494 
L 1172 3500 
L 2356 3500 
L 2356 3053 
L 1172 3053 
L 1172 1153 
Q 1172 725 1289 603 
Q 1406 481 1766 481 
L 2356 481 
L 2356 0 
L 1766 0 
Q 1100 0 847 248 
Q 594 497 594 1153 
L 594 3053 
L 172 3053 
L 172 3500 
L 594 3500 
L 594 4494 
L 1172 4494 
z
" transform="scale(0.015625)"/>
       <path id="DejaVuSans-61" d="M 2194 1759 
Q 1497 1759 1228 1600 
Q 959 1441 959 1056 
Q 959 750 1161 570 
Q 1363 391 1709 391 
Q 2188 391 2477 730 
Q 2766 1069 2766 1631 
L 2766 1759 
L 2194 1759 
z
M 3341 1997 
L 3341 0 
L 2766 0 
L 2766 531 
Q 2569 213 2275 61 
Q 1981 -91 1556 -91 
Q 1019 -91 701 211 
Q 384 513 384 1019 
Q 384 1609 779 1909 
Q 1175 2209 1959 2209 
L 2766 2209 
L 2766 2266 
Q 2766 2663 2505 2880 
Q 2244 3097 1772 3097 
Q 1472 3097 1187 3025 
Q 903 2953 641 2809 
L 641 3341 
Q 956 3463 1253 3523 
Q 1550 3584 1831 3584 
Q 2591 3584 2966 3190 
Q 3341 2797 3341 1997 
z
" transform="scale(0.015625)"/>
       <path id="DejaVuSans-69" d="M 603 3500 
L 1178 3500 
L 1178 0 
L 603 0 
L 603 3500 
z
M 603 4863 
L 1178 4863 
L 1178 4134 
L 603 4134 
L 603 4863 
z
" transform="scale(0.015625)"/>
       <path id="DejaVuSans-6e" d="M 3513 2113 
L 3513 0 
L 2938 0 
L 2938 2094 
Q 2938 2591 2744 2837 
Q 2550 3084 2163 3084 
Q 1697 3084 1428 2787 
Q 1159 2491 1159 1978 
L 1159 0 
L 581 0 
L 581 3500 
L 1159 3500 
L 1159 2956 
Q 1366 3272 1645 3428 
Q 1925 3584 2291 3584 
Q 2894 3584 3203 3211 
Q 3513 2838 3513 2113 
z
" transform="scale(0.015625)"/>
       <path id="DejaVuSans-6c" d="M 603 4863 
L 1178 4863 
L 1178 0 
L 603 0 
L 603 4863 
z
" transform="scale(0.015625)"/>
       <path id="DejaVuSans-20" transform="scale(0.015625)"/>
       <path id="DejaVuSans-65" d="M 3597 1894 
L 3597 1613 
L 953 1613 
Q 991 1019 1311 708 
Q 1631 397 2203 397 
Q 2534 397 2845 478 
Q 3156 559 3463 722 
L 3463 178 
Q 3153 47 2828 -22 
Q 2503 -91 2169 -91 
Q 1331 -91 842 396 
Q 353 884 353 1716 
Q 353 2575 817 3079 
Q 1281 3584 2069 3584 
Q 2775 3584 3186 3129 
Q 3597 2675 3597 1894 
z
M 3022 2063 
Q 3016 2534 2758 2815 
Q 2500 3097 2075 3097 
Q 1594 3097 1305 2825 
Q 1016 2553 972 2059 
L 3022 2063 
z
" transform="scale(0.015625)"/>
       <path id="DejaVuSans-5b" d="M 550 4863 
L 1875 4863 
L 1875 4416 
L 1125 4416 
L 1125 -397 
L 1875 -397 
L 1875 -844 
L 550 -844 
L 550 4863 
z
" transform="scale(0.015625)"/>
       <path id="DejaVuSans-73" d="M 2834 3397 
L 2834 2853 
Q 2591 2978 2328 3040 
Q 2066 3103 1784 3103 
Q 1356 3103 1142 2972 
Q 928 2841 928 2578 
Q 928 2378 1081 2264 
Q 1234 2150 1697 2047 
L 1894 2003 
Q 2506 1872 2764 1633 
Q 3022 1394 3022 966 
Q 3022 478 2636 193 
Q 2250 -91 1575 -91 
Q 1294 -91 989 -36 
Q 684 19 347 128 
L 347 722 
Q 666 556 975 473 
Q 1284 391 1588 391 
Q 1994 391 2212 530 
Q 2431 669 2431 922 
Q 2431 1156 2273 1281 
Q 2116 1406 1581 1522 
L 1381 1569 
Q 847 1681 609 1914 
Q 372 2147 372 2553 
Q 372 3047 722 3315 
Q 1072 3584 1716 3584 
Q 2034 3584 2315 3537 
Q 2597 3491 2834 3397 
z
" transform="scale(0.015625)"/>
       <path id="DejaVuSans-5d" d="M 1947 4863 
L 1947 -844 
L 622 -844 
L 622 -397 
L 1369 -397 
L 1369 4416 
L 622 4416 
L 622 4863 
L 1947 4863 
z
" transform="scale(0.015625)"/>
      </defs>
      <use xlink:href="#DejaVuSans-43"/>
      <use xlink:href="#DejaVuSans-6f" x="69.824219"/>
      <use xlink:href="#DejaVuSans-6d" x="131.005859"/>
      <use xlink:href="#DejaVuSans-70" x="228.417969"/>
      <use xlink:href="#DejaVuSans-75" x="291.894531"/>
      <use xlink:href="#DejaVuSans-74" x="355.273438"/>
      <use xlink:href="#DejaVuSans-61" x="394.482422"/>
      <use xlink:href="#DejaVuSans-74" x="455.761719"/>
      <use xlink:href="#DejaVuSans-69" x="494.970703"/>
      <use xlink:href="#DejaVuSans-6f" x="522.753906"/>
      <use xlink:href="#DejaVuSans-6e" x="583.935547"/>
      <use xlink:href="#DejaVuSans-61" x="647.314453"/>
      <use xlink:href="#DejaVuSans-6c" x="708.59375"/>
      <use xlink:href="#DejaVuSans-20" x="736.376953"/>
      <use xlink:href="#DejaVuSans-74" x="768.164062"/>
      <use xlink:href="#DejaVuSans-69" x="807.373047"/>
      <use xlink:href="#DejaVuSans-6d" x="835.15625"/>
      <use xlink:href="#DejaVuSans-65" x="932.568359"/>
      <use xlink:href="#DejaVuSans-20" x="994.091797"/>
      <use xlink:href="#DejaVuSans-5b" x="1025.878906"/>
      <use xlink:href="#DejaVuSans-73" x="1064.892578"/>
      <use xlink:href="#DejaVuSans-5d" x="1116.992188"/>
     </g>
    </g>
   </g>
   <g id="matplotlib.axis_2">
    <g id="ytick_1">
     <g id="line2d_13">
      <path d="M 72 359.193387 
L 518.4 359.193387 
" clip-path="url(#pfc07d1f80e)" style="fill: none; stroke: #b0b0b0; stroke-width: 0.8; stroke-linecap: square"/>
     </g>
     <g id="line2d_14">
      <defs>
       <path id="mc4091cb68f" d="M 0 0 
L -3.5 0 
" style="stroke: #000000; stroke-width: 0.8"/>
      </defs>
      <g>
       <use xlink:href="#mc4091cb68f" x="72" y="359.193387" style="stroke: #000000; stroke-width: 0.8"/>
      </g>
     </g>
     <g id="text_8">
      <!-- −600 -->
      <g transform="translate(37.532812 362.992605) scale(0.1 -0.1)">
       <defs>
        <path id="DejaVuSans-2212" d="M 678 2272 
L 4684 2272 
L 4684 1741 
L 678 1741 
L 678 2272 
z
" transform="scale(0.015625)"/>
        <path id="DejaVuSans-36" d="M 2113 2584 
Q 1688 2584 1439 2293 
Q 1191 2003 1191 1497 
Q 1191 994 1439 701 
Q 1688 409 2113 409 
Q 2538 409 2786 701 
Q 3034 994 3034 1497 
Q 3034 2003 2786 2293 
Q 2538 2584 2113 2584 
z
M 3366 4563 
L 3366 3988 
Q 3128 4100 2886 4159 
Q 2644 4219 2406 4219 
Q 1781 4219 1451 3797 
Q 1122 3375 1075 2522 
Q 1259 2794 1537 2939 
Q 1816 3084 2150 3084 
Q 2853 3084 3261 2657 
Q 3669 2231 3669 1497 
Q 3669 778 3244 343 
Q 2819 -91 2113 -91 
Q 1303 -91 875 529 
Q 447 1150 447 2328 
Q 447 3434 972 4092 
Q 1497 4750 2381 4750 
Q 2619 4750 2861 4703 
Q 3103 4656 3366 4563 
z
" transform="scale(0.015625)"/>
       </defs>
       <use xlink:href="#DejaVuSans-2212"/>
       <use xlink:href="#DejaVuSans-36" x="83.789062"/>
       <use xlink:href="#DejaVuSans-30" x="147.412109"/>
       <use xlink:href="#DejaVuSans-30" x="211.035156"/>
      </g>
     </g>
    </g>
    <g id="ytick_2">
     <g id="line2d_15">
      <path d="M 72 314.18316 
L 518.4 314.18316 
" clip-path="url(#pfc07d1f80e)" style="fill: none; stroke: #b0b0b0; stroke-width: 0.8; stroke-linecap: square"/>
     </g>
     <g id="line2d_16">
      <g>
       <use xlink:href="#mc4091cb68f" x="72" y="314.18316" style="stroke: #000000; stroke-width: 0.8"/>
      </g>
     </g>
     <g id="text_9">
      <!-- −400 -->
      <g transform="translate(37.532812 317.982379) scale(0.1 -0.1)">
       <use xlink:href="#DejaVuSans-2212"/>
       <use xlink:href="#DejaVuSans-34" x="83.789062"/>
       <use xlink:href="#DejaVuSans-30" x="147.412109"/>
       <use xlink:href="#DejaVuSans-30" x="211.035156"/>
      </g>
     </g>
    </g>
    <g id="ytick_3">
     <g id="line2d_17">
      <path d="M 72 269.172934 
L 518.4 269.172934 
" clip-path="url(#pfc07d1f80e)" style="fill: none; stroke: #b0b0b0; stroke-width: 0.8; stroke-linecap: square"/>
     </g>
     <g id="line2d_18">
      <g>
       <use xlink:href="#mc4091cb68f" x="72" y="269.172934" style="stroke: #000000; stroke-width: 0.8"/>
      </g>
     </g>
     <g id="text_10">
      <!-- −200 -->
      <g transform="translate(37.532812 272.972153) scale(0.1 -0.1)">
       <use xlink:href="#DejaVuSans-2212"/>
       <use xlink:href="#DejaVuSans-32" x="83.789062"/>
       <use xlink:href="#DejaVuSans-30" x="147.412109"/>
       <use xlink:href="#DejaVuSans-30" x="211.035156"/>
      </g>
     </g>
    </g>
    <g id="ytick_4">
     <g id="line2d_19">
      <path d="M 72 224.162707 
L 518.4 224.162707 
" clip-path="url(#pfc07d1f80e)" style="fill: none; stroke: #b0b0b0; stroke-width: 0.8; stroke-linecap: square"/>
     </g>
     <g id="line2d_20">
      <g>
       <use xlink:href="#mc4091cb68f" x="72" y="224.162707" style="stroke: #000000; stroke-width: 0.8"/>
      </g>
     </g>
     <g id="text_11">
      <!-- 0 -->
      <g transform="translate(58.6375 227.961926) scale(0.1 -0.1)">
       <use xlink:href="#DejaVuSans-30"/>
      </g>
     </g>
    </g>
    <g id="ytick_5">
     <g id="line2d_21">
      <path d="M 72 179.152481 
L 518.4 179.152481 
" clip-path="url(#pfc07d1f80e)" style="fill: none; stroke: #b0b0b0; stroke-width: 0.8; stroke-linecap: square"/>
     </g>
     <g id="line2d_22">
      <g>
       <use xlink:href="#mc4091cb68f" x="72" y="179.152481" style="stroke: #000000; stroke-width: 0.8"/>
      </g>
     </g>
     <g id="text_12">
      <!-- 200 -->
      <g transform="translate(45.9125 182.9517) scale(0.1 -0.1)">
       <use xlink:href="#DejaVuSans-32"/>
       <use xlink:href="#DejaVuSans-30" x="63.623047"/>
       <use xlink:href="#DejaVuSans-30" x="127.246094"/>
      </g>
     </g>
    </g>
    <g id="ytick_6">
     <g id="line2d_23">
      <path d="M 72 134.142255 
L 518.4 134.142255 
" clip-path="url(#pfc07d1f80e)" style="fill: none; stroke: #b0b0b0; stroke-width: 0.8; stroke-linecap: square"/>
     </g>
     <g id="line2d_24">
      <g>
       <use xlink:href="#mc4091cb68f" x="72" y="134.142255" style="stroke: #000000; stroke-width: 0.8"/>
      </g>
     </g>
     <g id="text_13">
      <!-- 400 -->
      <g transform="translate(45.9125 137.941473) scale(0.1 -0.1)">
       <use xlink:href="#DejaVuSans-34"/>
       <use xlink:href="#DejaVuSans-30" x="63.623047"/>
       <use xlink:href="#DejaVuSans-30" x="127.246094"/>
      </g>
     </g>
    </g>
    <g id="ytick_7">
     <g id="line2d_25">
      <path d="M 72 89.132028 
L 518.4 89.132028 
" clip-path="url(#pfc07d1f80e)" style="fill: none; stroke: #b0b0b0; stroke-width: 0.8; stroke-linecap: square"/>
     </g>
     <g id="line2d_26">
      <g>
       <use xlink:href="#mc4091cb68f" x="72" y="89.132028" style="stroke: #000000; stroke-width: 0.8"/>
      </g>
     </g>
     <g id="text_14">
      <!-- 600 -->
      <g transform="translate(45.9125 92.931247) scale(0.1 -0.1)">
       <use xlink:href="#DejaVuSans-36"/>
       <use xlink:href="#DejaVuSans-30" x="63.623047"/>
       <use xlink:href="#DejaVuSans-30" x="127.246094"/>
      </g>
     </g>
    </g>
    <g id="text_15">
     <!-- Objective value -->
     <g transform="translate(30.62125 272.699844) rotate(-90) scale(0.14 -0.14)">
      <defs>
       <path id="DejaVuSans-4f" d="M 2522 4238 
Q 1834 4238 1429 3725 
Q 1025 3213 1025 2328 
Q 1025 1447 1429 934 
Q 1834 422 2522 422 
Q 3209 422 3611 934 
Q 4013 1447 4013 2328 
Q 4013 3213 3611 3725 
Q 3209 4238 2522 4238 
z
M 2522 4750 
Q 3503 4750 4090 4092 
Q 4678 3434 4678 2328 
Q 4678 1225 4090 567 
Q 3503 -91 2522 -91 
Q 1538 -91 948 565 
Q 359 1222 359 2328 
Q 359 3434 948 4092 
Q 1538 4750 2522 4750 
z
" transform="scale(0.015625)"/>
       <path id="DejaVuSans-62" d="M 3116 1747 
Q 3116 2381 2855 2742 
Q 2594 3103 2138 3103 
Q 1681 3103 1420 2742 
Q 1159 2381 1159 1747 
Q 1159 1113 1420 752 
Q 1681 391 2138 391 
Q 2594 391 2855 752 
Q 3116 1113 3116 1747 
z
M 1159 2969 
Q 1341 3281 1617 3432 
Q 1894 3584 2278 3584 
Q 2916 3584 3314 3078 
Q 3713 2572 3713 1747 
Q 3713 922 3314 415 
Q 2916 -91 2278 -91 
Q 1894 -91 1617 61 
Q 1341 213 1159 525 
L 1159 0 
L 581 0 
L 581 4863 
L 1159 4863 
L 1159 2969 
z
" transform="scale(0.015625)"/>
       <path id="DejaVuSans-6a" d="M 603 3500 
L 1178 3500 
L 1178 -63 
Q 1178 -731 923 -1031 
Q 669 -1331 103 -1331 
L -116 -1331 
L -116 -844 
L 38 -844 
Q 366 -844 484 -692 
Q 603 -541 603 -63 
L 603 3500 
z
M 603 4863 
L 1178 4863 
L 1178 4134 
L 603 4134 
L 603 4863 
z
" transform="scale(0.015625)"/>
       <path id="DejaVuSans-63" d="M 3122 3366 
L 3122 2828 
Q 2878 2963 2633 3030 
Q 2388 3097 2138 3097 
Q 1578 3097 1268 2742 
Q 959 2388 959 1747 
Q 959 1106 1268 751 
Q 1578 397 2138 397 
Q 2388 397 2633 464 
Q 2878 531 3122 666 
L 3122 134 
Q 2881 22 2623 -34 
Q 2366 -91 2075 -91 
Q 1284 -91 818 406 
Q 353 903 353 1747 
Q 353 2603 823 3093 
Q 1294 3584 2113 3584 
Q 2378 3584 2631 3529 
Q 2884 3475 3122 3366 
z
" transform="scale(0.015625)"/>
       <path id="DejaVuSans-76" d="M 191 3500 
L 800 3500 
L 1894 563 
L 2988 3500 
L 3597 3500 
L 2284 0 
L 1503 0 
L 191 3500 
z
" transform="scale(0.015625)"/>
      </defs>
      <use xlink:href="#DejaVuSans-4f"/>
      <use xlink:href="#DejaVuSans-62" x="78.710938"/>
      <use xlink:href="#DejaVuSans-6a" x="142.1875"/>
      <use xlink:href="#DejaVuSans-65" x="169.970703"/>
      <use xlink:href="#DejaVuSans-63" x="231.494141"/>
      <use xlink:href="#DejaVuSans-74" x="286.474609"/>
      <use xlink:href="#DejaVuSans-69" x="325.683594"/>
      <use xlink:href="#DejaVuSans-76" x="353.466797"/>
      <use xlink:href="#DejaVuSans-65" x="412.646484"/>
      <use xlink:href="#DejaVuSans-20" x="474.169922"/>
      <use xlink:href="#DejaVuSans-76" x="505.957031"/>
      <use xlink:href="#DejaVuSans-61" x="565.136719"/>
      <use xlink:href="#DejaVuSans-6c" x="626.416016"/>
      <use xlink:href="#DejaVuSans-75" x="654.199219"/>
      <use xlink:href="#DejaVuSans-65" x="717.578125"/>
     </g>
    </g>
   </g>
   <g id="line2d_27">
    <path d="M 89.03058 278.44109 
" clip-path="url(#pfc07d1f80e)" style="fill: none; stroke-dasharray: 1.5,2.475; stroke-dashoffset: 0; stroke: #36ff33; stroke-width: 1.5"/>
    <defs>
     <path id="m37d69feac5" d="M -6 6 
L 6 6 
L 6 -6 
L -6 -6 
z
" style="stroke: #36ff33; stroke-linejoin: miter"/>
    </defs>
    <g clip-path="url(#pfc07d1f80e)">
     <use xlink:href="#m37d69feac5" x="89.03058" y="278.44109" style="fill: #36ff33; stroke: #36ff33; stroke-linejoin: miter"/>
    </g>
   </g>
   <g id="line2d_28">
    <path d="M 89.03058 278.44109 
L 518.4 278.44109 
" clip-path="url(#pfc07d1f80e)" style="fill: none; stroke-dasharray: 1.5,2.475; stroke-dashoffset: 0; stroke: #36ff33; stroke-width: 1.5"/>
   </g>
   <g id="line2d_29">
    <path d="M 101.772842 316.714985 
" clip-path="url(#pfc07d1f80e)" style="fill: none; stroke-dasharray: 5.55,2.4; stroke-dashoffset: 0; stroke: #b6c800; stroke-width: 1.5"/>
    <defs>
     <path id="m7ce2bf4f60" d="M 0 -6 
L -6 6 
L 6 6 
z
" style="stroke: #b6c800; stroke-linejoin: miter"/>
    </defs>
    <g clip-path="url(#pfc07d1f80e)">
     <use xlink:href="#m7ce2bf4f60" x="101.772842" y="316.714985" style="fill: #b6c800; stroke: #b6c800; stroke-linejoin: miter"/>
    </g>
   </g>
   <g id="line2d_30">
    <path d="M 101.772842 316.714985 
L 518.4 316.714985 
" clip-path="url(#pfc07d1f80e)" style="fill: none; stroke-dasharray: 5.55,2.4; stroke-dashoffset: 0; stroke: #b6c800; stroke-width: 1.5"/>
   </g>
   <g id="line2d_31">
    <path d="M 101.549663 231.638301 
" clip-path="url(#pfc07d1f80e)" style="fill: none; stroke-dasharray: 1.5,2.475; stroke-dashoffset: 0; stroke: #f119c3; stroke-width: 1.5"/>
    <defs>
     <path id="mb7a9d30a8b" d="M -0 6 
L 6 -6 
L -6 -6 
z
" style="stroke: #f119c3; stroke-linejoin: miter"/>
    </defs>
    <g clip-path="url(#pfc07d1f80e)">
     <use xlink:href="#mb7a9d30a8b" x="101.549663" y="231.638301" style="fill: #f119c3; stroke: #f119c3; stroke-linejoin: miter"/>
    </g>
   </g>
   <g id="line2d_32">
    <path d="M 101.549663 231.638301 
L 518.4 231.638301 
" clip-path="url(#pfc07d1f80e)" style="fill: none; stroke-dasharray: 1.5,2.475; stroke-dashoffset: 0; stroke: #f119c3; stroke-width: 1.5"/>
   </g>
   <g id="line2d_33">
    <path d="M 102.89577 224.15332 
L 134.115661 234.094256 
L 178.698315 283.803716 
L 207.817583 283.747618 
L 237.377897 283.7279 
L 267.66477 283.71913 
L 299.350818 283.721039 
L 329.853235 283.720428 
L 360.176271 283.720407 
L 389.43611 283.720517 
L 420.061044 283.720668 
L 459.029269 283.720833 
L 488.716241 283.720215 
L 520.370189 283.721053 
" clip-path="url(#pfc07d1f80e)" style="fill: none; stroke-dasharray: 7.5,1.5; stroke-dashoffset: 0; stroke: #0d5915; stroke-width: 1.5"/>
    <defs>
     <path id="m926e084faf" d="M 0 0 
L 0 -7.5 
M 0 0 
L -6 3.75 
M 0 0 
L 6 3.75 
" style="stroke: #0d5915"/>
    </defs>
    <g clip-path="url(#pfc07d1f80e)">
     <use xlink:href="#m926e084faf" x="102.89577" y="224.15332" style="fill: #0d5915; stroke: #0d5915"/>
     <use xlink:href="#m926e084faf" x="134.115661" y="234.094256" style="fill: #0d5915; stroke: #0d5915"/>
     <use xlink:href="#m926e084faf" x="178.698315" y="283.803716" style="fill: #0d5915; stroke: #0d5915"/>
     <use xlink:href="#m926e084faf" x="207.817583" y="283.747618" style="fill: #0d5915; stroke: #0d5915"/>
     <use xlink:href="#m926e084faf" x="237.377897" y="283.7279" style="fill: #0d5915; stroke: #0d5915"/>
     <use xlink:href="#m926e084faf" x="267.66477" y="283.71913" style="fill: #0d5915; stroke: #0d5915"/>
     <use xlink:href="#m926e084faf" x="299.350818" y="283.721039" style="fill: #0d5915; stroke: #0d5915"/>
     <use xlink:href="#m926e084faf" x="329.853235" y="283.720428" style="fill: #0d5915; stroke: #0d5915"/>
     <use xlink:href="#m926e084faf" x="360.176271" y="283.720407" style="fill: #0d5915; stroke: #0d5915"/>
     <use xlink:href="#m926e084faf" x="389.43611" y="283.720517" style="fill: #0d5915; stroke: #0d5915"/>
     <use xlink:href="#m926e084faf" x="420.061044" y="283.720668" style="fill: #0d5915; stroke: #0d5915"/>
     <use xlink:href="#m926e084faf" x="459.029269" y="283.720833" style="fill: #0d5915; stroke: #0d5915"/>
     <use xlink:href="#m926e084faf" x="488.716241" y="283.720215" style="fill: #0d5915; stroke: #0d5915"/>
     <use xlink:href="#m926e084faf" x="520.370189" y="283.721053" style="fill: #0d5915; stroke: #0d5915"/>
    </g>
   </g>
   <g id="line2d_34">
    <path d="M 72.739912 66.96 
L 82.100675 368.57103 
L 94.594613 367.665441 
L 103.437123 368.840792 
L 112.06962 368.721618 
L 120.519057 369.217969 
L 129.266734 369.136625 
L 137.761625 368.605425 
L 145.797687 368.548777 
L 154.431988 368.88281 
L 162.630159 368.250884 
L 170.963467 367.330721 
L 179.341093 368.374357 
L 187.418118 369.213258 
L 195.913341 369.108823 
L 204.869739 368.627512 
L 215.0107 367.935258 
L 224.897564 367.680413 
L 236.102182 368.842069 
L 244.956293 369.347363 
L 255.601783 369.130883 
L 264.565075 368.984429 
L 273.321068 369.325605 
L 282.070864 368.256008 
L 290.071667 368.860366 
L 298.015707 369.230854 
L 307.424384 369.078686 
L 316.740737 368.92601 
L 326.687699 368.838828 
L 336.064131 369.102037 
L 345.986724 369.118837 
L 355.683321 369.36 
L 364.853646 368.987905 
L 373.59065 369.286238 
L 382.466042 368.687855 
L 391.000818 368.918744 
L 399.151498 369.306512 
L 408.990472 368.334853 
L 419.850661 369.261513 
L 429.41823 368.813306 
L 437.271406 369.125938 
L 445.202309 368.802619 
L 452.944183 368.803814 
L 461.409156 368.889802 
L 469.443358 369.162943 
L 477.59343 368.866039 
L 485.411527 369.302899 
L 493.607236 368.52625 
L 502.294023 368.458861 
L 510.087717 368.986229 
L 518.090189 369.011695 
L 518.408455 369.134949 
" clip-path="url(#pfc07d1f80e)" style="fill: none; stroke-dasharray: 9.6,2.4,1.5,2.4; stroke-dashoffset: 0; stroke: #e31d1d; stroke-width: 1.5"/>
    <defs>
     <path id="mb8c9851ea1" d="M 0 3.5 
C 0.928211 3.5 1.81853 3.131218 2.474874 2.474874 
C 3.131218 1.81853 3.5 0.928211 3.5 0 
C 3.5 -0.928211 3.131218 -1.81853 2.474874 -2.474874 
C 1.81853 -3.131218 0.928211 -3.5 0 -3.5 
C -0.928211 -3.5 -1.81853 -3.131218 -2.474874 -2.474874 
C -3.131218 -1.81853 -3.5 -0.928211 -3.5 0 
C -3.5 0.928211 -3.131218 1.81853 -2.474874 2.474874 
C -1.81853 3.131218 -0.928211 3.5 0 3.5 
z
" style="stroke: #e31d1d"/>
    </defs>
    <g clip-path="url(#pfc07d1f80e)">
     <use xlink:href="#mb8c9851ea1" x="72.739912" y="66.96" style="fill: #e31d1d; stroke: #e31d1d"/>
     <use xlink:href="#mb8c9851ea1" x="82.100675" y="368.57103" style="fill: #e31d1d; stroke: #e31d1d"/>
     <use xlink:href="#mb8c9851ea1" x="94.594613" y="367.665441" style="fill: #e31d1d; stroke: #e31d1d"/>
     <use xlink:href="#mb8c9851ea1" x="103.437123" y="368.840792" style="fill: #e31d1d; stroke: #e31d1d"/>
     <use xlink:href="#mb8c9851ea1" x="112.06962" y="368.721618" style="fill: #e31d1d; stroke: #e31d1d"/>
     <use xlink:href="#mb8c9851ea1" x="120.519057" y="369.217969" style="fill: #e31d1d; stroke: #e31d1d"/>
     <use xlink:href="#mb8c9851ea1" x="129.266734" y="369.136625" style="fill: #e31d1d; stroke: #e31d1d"/>
     <use xlink:href="#mb8c9851ea1" x="137.761625" y="368.605425" style="fill: #e31d1d; stroke: #e31d1d"/>
     <use xlink:href="#mb8c9851ea1" x="145.797687" y="368.548777" style="fill: #e31d1d; stroke: #e31d1d"/>
     <use xlink:href="#mb8c9851ea1" x="154.431988" y="368.88281" style="fill: #e31d1d; stroke: #e31d1d"/>
     <use xlink:href="#mb8c9851ea1" x="162.630159" y="368.250884" style="fill: #e31d1d; stroke: #e31d1d"/>
     <use xlink:href="#mb8c9851ea1" x="170.963467" y="367.330721" style="fill: #e31d1d; stroke: #e31d1d"/>
     <use xlink:href="#mb8c9851ea1" x="179.341093" y="368.374357" style="fill: #e31d1d; stroke: #e31d1d"/>
     <use xlink:href="#mb8c9851ea1" x="187.418118" y="369.213258" style="fill: #e31d1d; stroke: #e31d1d"/>
     <use xlink:href="#mb8c9851ea1" x="195.913341" y="369.108823" style="fill: #e31d1d; stroke: #e31d1d"/>
     <use xlink:href="#mb8c9851ea1" x="204.869739" y="368.627512" style="fill: #e31d1d; stroke: #e31d1d"/>
     <use xlink:href="#mb8c9851ea1" x="215.0107" y="367.935258" style="fill: #e31d1d; stroke: #e31d1d"/>
     <use xlink:href="#mb8c9851ea1" x="224.897564" y="367.680413" style="fill: #e31d1d; stroke: #e31d1d"/>
     <use xlink:href="#mb8c9851ea1" x="236.102182" y="368.842069" style="fill: #e31d1d; stroke: #e31d1d"/>
     <use xlink:href="#mb8c9851ea1" x="244.956293" y="369.347363" style="fill: #e31d1d; stroke: #e31d1d"/>
     <use xlink:href="#mb8c9851ea1" x="255.601783" y="369.130883" style="fill: #e31d1d; stroke: #e31d1d"/>
     <use xlink:href="#mb8c9851ea1" x="264.565075" y="368.984429" style="fill: #e31d1d; stroke: #e31d1d"/>
     <use xlink:href="#mb8c9851ea1" x="273.321068" y="369.325605" style="fill: #e31d1d; stroke: #e31d1d"/>
     <use xlink:href="#mb8c9851ea1" x="282.070864" y="368.256008" style="fill: #e31d1d; stroke: #e31d1d"/>
     <use xlink:href="#mb8c9851ea1" x="290.071667" y="368.860366" style="fill: #e31d1d; stroke: #e31d1d"/>
     <use xlink:href="#mb8c9851ea1" x="298.015707" y="369.230854" style="fill: #e31d1d; stroke: #e31d1d"/>
     <use xlink:href="#mb8c9851ea1" x="307.424384" y="369.078686" style="fill: #e31d1d; stroke: #e31d1d"/>
     <use xlink:href="#mb8c9851ea1" x="316.740737" y="368.92601" style="fill: #e31d1d; stroke: #e31d1d"/>
     <use xlink:href="#mb8c9851ea1" x="326.687699" y="368.838828" style="fill: #e31d1d; stroke: #e31d1d"/>
     <use xlink:href="#mb8c9851ea1" x="336.064131" y="369.102037" style="fill: #e31d1d; stroke: #e31d1d"/>
     <use xlink:href="#mb8c9851ea1" x="345.986724" y="369.118837" style="fill: #e31d1d; stroke: #e31d1d"/>
     <use xlink:href="#mb8c9851ea1" x="355.683321" y="369.36" style="fill: #e31d1d; stroke: #e31d1d"/>
     <use xlink:href="#mb8c9851ea1" x="364.853646" y="368.987905" style="fill: #e31d1d; stroke: #e31d1d"/>
     <use xlink:href="#mb8c9851ea1" x="373.59065" y="369.286238" style="fill: #e31d1d; stroke: #e31d1d"/>
     <use xlink:href="#mb8c9851ea1" x="382.466042" y="368.687855" style="fill: #e31d1d; stroke: #e31d1d"/>
     <use xlink:href="#mb8c9851ea1" x="391.000818" y="368.918744" style="fill: #e31d1d; stroke: #e31d1d"/>
     <use xlink:href="#mb8c9851ea1" x="399.151498" y="369.306512" style="fill: #e31d1d; stroke: #e31d1d"/>
     <use xlink:href="#mb8c9851ea1" x="408.990472" y="368.334853" style="fill: #e31d1d; stroke: #e31d1d"/>
     <use xlink:href="#mb8c9851ea1" x="419.850661" y="369.261513" style="fill: #e31d1d; stroke: #e31d1d"/>
     <use xlink:href="#mb8c9851ea1" x="429.41823" y="368.813306" style="fill: #e31d1d; stroke: #e31d1d"/>
     <use xlink:href="#mb8c9851ea1" x="437.271406" y="369.125938" style="fill: #e31d1d; stroke: #e31d1d"/>
     <use xlink:href="#mb8c9851ea1" x="445.202309" y="368.802619" style="fill: #e31d1d; stroke: #e31d1d"/>
     <use xlink:href="#mb8c9851ea1" x="452.944183" y="368.803814" style="fill: #e31d1d; stroke: #e31d1d"/>
     <use xlink:href="#mb8c9851ea1" x="461.409156" y="368.889802" style="fill: #e31d1d; stroke: #e31d1d"/>
     <use xlink:href="#mb8c9851ea1" x="469.443358" y="369.162943" style="fill: #e31d1d; stroke: #e31d1d"/>
     <use xlink:href="#mb8c9851ea1" x="477.59343" y="368.866039" style="fill: #e31d1d; stroke: #e31d1d"/>
     <use xlink:href="#mb8c9851ea1" x="485.411527" y="369.302899" style="fill: #e31d1d; stroke: #e31d1d"/>
     <use xlink:href="#mb8c9851ea1" x="493.607236" y="368.52625" style="fill: #e31d1d; stroke: #e31d1d"/>
     <use xlink:href="#mb8c9851ea1" x="502.294023" y="368.458861" style="fill: #e31d1d; stroke: #e31d1d"/>
     <use xlink:href="#mb8c9851ea1" x="510.087717" y="368.986229" style="fill: #e31d1d; stroke: #e31d1d"/>
     <use xlink:href="#mb8c9851ea1" x="518.090189" y="369.011695" style="fill: #e31d1d; stroke: #e31d1d"/>
     <use xlink:href="#mb8c9851ea1" x="518.408455" y="369.134949" style="fill: #e31d1d; stroke: #e31d1d"/>
    </g>
   </g>
   <g id="line2d_35">
    <path d="M 100.747123 316.714985 
L 129.250939 316.433671 
L 157.959714 316.433671 
L 187.129388 316.433671 
L 216.784415 316.433671 
L 245.320325 316.433671 
L 275.571702 316.433671 
L 307.036401 316.433671 
L 339.545313 250.986487 
L 372.271743 250.986487 
L 401.940383 250.986487 
L 431.433889 250.986487 
L 460.344735 250.986487 
L 491.5958 250.986487 
L 520.66173 250.986487 
" clip-path="url(#pfc07d1f80e)" style="fill: none; stroke: #1c24dc; stroke-width: 1.5; stroke-linecap: square"/>
    <defs>
     <path id="m832f3e7358" d="M 0 -5 
L -1.12257 -1.545085 
L -4.755283 -1.545085 
L -1.816356 0.59017 
L -2.938926 4.045085 
L -0 1.90983 
L 2.938926 4.045085 
L 1.816356 0.59017 
L 4.755283 -1.545085 
L 1.12257 -1.545085 
z
" style="stroke: #1c24dc; stroke-linejoin: bevel"/>
    </defs>
    <g clip-path="url(#pfc07d1f80e)">
     <use xlink:href="#m832f3e7358" x="100.747123" y="316.714985" style="fill: #1c24dc; stroke: #1c24dc; stroke-linejoin: bevel"/>
     <use xlink:href="#m832f3e7358" x="129.250939" y="316.433671" style="fill: #1c24dc; stroke: #1c24dc; stroke-linejoin: bevel"/>
     <use xlink:href="#m832f3e7358" x="157.959714" y="316.433671" style="fill: #1c24dc; stroke: #1c24dc; stroke-linejoin: bevel"/>
     <use xlink:href="#m832f3e7358" x="187.129388" y="316.433671" style="fill: #1c24dc; stroke: #1c24dc; stroke-linejoin: bevel"/>
     <use xlink:href="#m832f3e7358" x="216.784415" y="316.433671" style="fill: #1c24dc; stroke: #1c24dc; stroke-linejoin: bevel"/>
     <use xlink:href="#m832f3e7358" x="245.320325" y="316.433671" style="fill: #1c24dc; stroke: #1c24dc; stroke-linejoin: bevel"/>
     <use xlink:href="#m832f3e7358" x="275.571702" y="316.433671" style="fill: #1c24dc; stroke: #1c24dc; stroke-linejoin: bevel"/>
     <use xlink:href="#m832f3e7358" x="307.036401" y="316.433671" style="fill: #1c24dc; stroke: #1c24dc; stroke-linejoin: bevel"/>
     <use xlink:href="#m832f3e7358" x="339.545313" y="250.986487" style="fill: #1c24dc; stroke: #1c24dc; stroke-linejoin: bevel"/>
     <use xlink:href="#m832f3e7358" x="372.271743" y="250.986487" style="fill: #1c24dc; stroke: #1c24dc; stroke-linejoin: bevel"/>
     <use xlink:href="#m832f3e7358" x="401.940383" y="250.986487" style="fill: #1c24dc; stroke: #1c24dc; stroke-linejoin: bevel"/>
     <use xlink:href="#m832f3e7358" x="431.433889" y="250.986487" style="fill: #1c24dc; stroke: #1c24dc; stroke-linejoin: bevel"/>
     <use xlink:href="#m832f3e7358" x="460.344735" y="250.986487" style="fill: #1c24dc; stroke: #1c24dc; stroke-linejoin: bevel"/>
     <use xlink:href="#m832f3e7358" x="491.5958" y="250.986487" style="fill: #1c24dc; stroke: #1c24dc; stroke-linejoin: bevel"/>
     <use xlink:href="#m832f3e7358" x="520.66173" y="250.986487" style="fill: #1c24dc; stroke: #1c24dc; stroke-linejoin: bevel"/>
    </g>
   </g>
   <g id="patch_3">
    <path d="M 72 384.48 
L 72 51.84 
" style="fill: none; stroke: #000000; stroke-width: 0.8; stroke-linejoin: miter; stroke-linecap: square"/>
   </g>
   <g id="patch_4">
    <path d="M 518.4 384.48 
L 518.4 51.84 
" style="fill: none; stroke: #000000; stroke-width: 0.8; stroke-linejoin: miter; stroke-linecap: square"/>
   </g>
   <g id="patch_5">
    <path d="M 72 384.48 
L 518.4 384.48 
" style="fill: none; stroke: #000000; stroke-width: 0.8; stroke-linejoin: miter; stroke-linecap: square"/>
   </g>
   <g id="patch_6">
    <path d="M 72 51.84 
L 518.4 51.84 
" style="fill: none; stroke: #000000; stroke-width: 0.8; stroke-linejoin: miter; stroke-linecap: square"/>
   </g>
   <g id="legend_1">
    <g id="patch_7">
     <path d="M 450.9 147.90875 
L 511.4 147.90875 
Q 513.4 147.90875 513.4 145.90875 
L 513.4 58.84 
Q 513.4 56.84 511.4 56.84 
L 450.9 56.84 
Q 448.9 56.84 448.9 58.84 
L 448.9 145.90875 
Q 448.9 147.90875 450.9 147.90875 
z
" style="fill: #ffffff; opacity: 0.8; stroke: #cccccc; stroke-linejoin: miter"/>
    </g>
    <g id="line2d_36">
     <path d="M 452.9 64.938437 
L 462.9 64.938437 
L 472.9 64.938437 
" style="fill: none; stroke-dasharray: 1.5,2.475; stroke-dashoffset: 0; stroke: #36ff33; stroke-width: 1.5"/>
     <g>
      <use xlink:href="#m37d69feac5" x="462.9" y="64.938437" style="fill: #36ff33; stroke: #36ff33; stroke-linejoin: miter"/>
     </g>
    </g>
    <g id="text_16">
     <!-- MPS -->
     <g transform="translate(480.9 68.438437) scale(0.1 -0.1)">
      <defs>
       <path id="DejaVuSans-4d" d="M 628 4666 
L 1569 4666 
L 2759 1491 
L 3956 4666 
L 4897 4666 
L 4897 0 
L 4281 0 
L 4281 4097 
L 3078 897 
L 2444 897 
L 1241 4097 
L 1241 0 
L 628 0 
L 628 4666 
z
" transform="scale(0.015625)"/>
       <path id="DejaVuSans-50" d="M 1259 4147 
L 1259 2394 
L 2053 2394 
Q 2494 2394 2734 2622 
Q 2975 2850 2975 3272 
Q 2975 3691 2734 3919 
Q 2494 4147 2053 4147 
L 1259 4147 
z
M 628 4666 
L 2053 4666 
Q 2838 4666 3239 4311 
Q 3641 3956 3641 3272 
Q 3641 2581 3239 2228 
Q 2838 1875 2053 1875 
L 1259 1875 
L 1259 0 
L 628 0 
L 628 4666 
z
" transform="scale(0.015625)"/>
       <path id="DejaVuSans-53" d="M 3425 4513 
L 3425 3897 
Q 3066 4069 2747 4153 
Q 2428 4238 2131 4238 
Q 1616 4238 1336 4038 
Q 1056 3838 1056 3469 
Q 1056 3159 1242 3001 
Q 1428 2844 1947 2747 
L 2328 2669 
Q 3034 2534 3370 2195 
Q 3706 1856 3706 1288 
Q 3706 609 3251 259 
Q 2797 -91 1919 -91 
Q 1588 -91 1214 -16 
Q 841 59 441 206 
L 441 856 
Q 825 641 1194 531 
Q 1563 422 1919 422 
Q 2459 422 2753 634 
Q 3047 847 3047 1241 
Q 3047 1584 2836 1778 
Q 2625 1972 2144 2069 
L 1759 2144 
Q 1053 2284 737 2584 
Q 422 2884 422 3419 
Q 422 4038 858 4394 
Q 1294 4750 2059 4750 
Q 2388 4750 2728 4690 
Q 3069 4631 3425 4513 
z
" transform="scale(0.015625)"/>
      </defs>
      <use xlink:href="#DejaVuSans-4d"/>
      <use xlink:href="#DejaVuSans-50" x="86.279297"/>
      <use xlink:href="#DejaVuSans-53" x="146.582031"/>
     </g>
    </g>
    <g id="line2d_37">
     <path d="M 452.9 79.616562 
L 462.9 79.616562 
L 472.9 79.616562 
" style="fill: none; stroke-dasharray: 5.55,2.4; stroke-dashoffset: 0; stroke: #b6c800; stroke-width: 1.5"/>
     <g>
      <use xlink:href="#m7ce2bf4f60" x="462.9" y="79.616562" style="fill: #b6c800; stroke: #b6c800; stroke-linejoin: miter"/>
     </g>
    </g>
    <g id="text_17">
     <!-- $PM_{C\searrow}$ -->
     <g transform="translate(480.9 83.116562) scale(0.1 -0.1)">
      <defs>
       <path id="DejaVuSans-Oblique-50" d="M 1081 4666 
L 2541 4666 
Q 3178 4666 3512 4369 
Q 3847 4072 3847 3500 
Q 3847 2731 3353 2303 
Q 2859 1875 1966 1875 
L 1172 1875 
L 806 0 
L 172 0 
L 1081 4666 
z
M 1613 4147 
L 1275 2394 
L 2069 2394 
Q 2606 2394 2893 2669 
Q 3181 2944 3181 3456 
Q 3181 3784 2986 3965 
Q 2791 4147 2438 4147 
L 1613 4147 
z
" transform="scale(0.015625)"/>
       <path id="DejaVuSans-Oblique-4d" d="M 1081 4666 
L 2028 4666 
L 2572 1522 
L 4378 4666 
L 5350 4666 
L 4441 0 
L 3828 0 
L 4622 4091 
L 2791 897 
L 2175 897 
L 1581 4103 
L 788 0 
L 172 0 
L 1081 4666 
z
" transform="scale(0.015625)"/>
       <path id="DejaVuSans-Oblique-43" d="M 4447 4306 
L 4319 3641 
Q 4019 3944 3683 4091 
Q 3347 4238 2956 4238 
Q 2422 4238 2017 3981 
Q 1613 3725 1319 3200 
Q 1131 2863 1032 2486 
Q 934 2109 934 1728 
Q 934 1091 1264 756 
Q 1594 422 2222 422 
Q 2656 422 3056 561 
Q 3456 700 3834 978 
L 3688 231 
Q 3316 72 2936 -9 
Q 2556 -91 2175 -91 
Q 1278 -91 773 396 
Q 269 884 269 1753 
Q 269 2309 461 2846 
Q 653 3384 1013 3828 
Q 1394 4300 1883 4525 
Q 2372 4750 3022 4750 
Q 3422 4750 3780 4639 
Q 4138 4528 4447 4306 
z
" transform="scale(0.015625)"/>
       <path id="DejaVuSans-2198" d="M 4497 359 
L 4300 163 
L 2563 163 
L 2563 691 
L 3594 691 
L 900 3384 
L 1275 3759 
L 3969 1066 
L 3969 2097 
L 4497 2097 
L 4497 359 
z
" transform="scale(0.015625)"/>
      </defs>
      <use xlink:href="#DejaVuSans-Oblique-50" transform="translate(0 0.09375)"/>
      <use xlink:href="#DejaVuSans-Oblique-4d" transform="translate(60.302734 0.09375)"/>
      <use xlink:href="#DejaVuSans-Oblique-43" transform="translate(146.582031 -16.3125) scale(0.7)"/>
      <use xlink:href="#DejaVuSans-2198" transform="translate(209.09668 -16.3125) scale(0.7)"/>
     </g>
    </g>
    <g id="line2d_38">
     <path d="M 452.9 94.294687 
L 462.9 94.294687 
L 472.9 94.294687 
" style="fill: none; stroke-dasharray: 1.5,2.475; stroke-dashoffset: 0; stroke: #f119c3; stroke-width: 1.5"/>
     <g>
      <use xlink:href="#mb7a9d30a8b" x="462.9" y="94.294687" style="fill: #f119c3; stroke: #f119c3; stroke-linejoin: miter"/>
     </g>
    </g>
    <g id="text_18">
     <!-- $PM_{C\nearrow}$ -->
     <g transform="translate(480.9 97.794687) scale(0.1 -0.1)">
      <defs>
       <path id="DejaVuSans-2197" d="M 4300 3759 
L 4497 3563 
L 4497 1825 
L 3969 1825 
L 3969 2856 
L 1275 163 
L 900 538 
L 3594 3231 
L 2563 3231 
L 2563 3759 
L 4300 3759 
z
" transform="scale(0.015625)"/>
      </defs>
      <use xlink:href="#DejaVuSans-Oblique-50" transform="translate(0 0.09375)"/>
      <use xlink:href="#DejaVuSans-Oblique-4d" transform="translate(60.302734 0.09375)"/>
      <use xlink:href="#DejaVuSans-Oblique-43" transform="translate(146.582031 -16.3125) scale(0.7)"/>
      <use xlink:href="#DejaVuSans-2197" transform="translate(209.09668 -16.3125) scale(0.7)"/>
     </g>
    </g>
    <g id="line2d_39">
     <path d="M 452.9 108.972812 
L 462.9 108.972812 
L 472.9 108.972812 
" style="fill: none; stroke-dasharray: 7.5,1.5; stroke-dashoffset: 0; stroke: #0d5915; stroke-width: 1.5"/>
     <g>
      <use xlink:href="#m926e084faf" x="462.9" y="108.972812" style="fill: #0d5915; stroke: #0d5915"/>
     </g>
    </g>
    <g id="text_19">
     <!-- IPDD -->
     <g transform="translate(480.9 112.472812) scale(0.1 -0.1)">
      <defs>
       <path id="DejaVuSans-49" d="M 628 4666 
L 1259 4666 
L 1259 0 
L 628 0 
L 628 4666 
z
" transform="scale(0.015625)"/>
       <path id="DejaVuSans-44" d="M 1259 4147 
L 1259 519 
L 2022 519 
Q 2988 519 3436 956 
Q 3884 1394 3884 2338 
Q 3884 3275 3436 3711 
Q 2988 4147 2022 4147 
L 1259 4147 
z
M 628 4666 
L 1925 4666 
Q 3281 4666 3915 4102 
Q 4550 3538 4550 2338 
Q 4550 1131 3912 565 
Q 3275 0 1925 0 
L 628 0 
L 628 4666 
z
" transform="scale(0.015625)"/>
      </defs>
      <use xlink:href="#DejaVuSans-49"/>
      <use xlink:href="#DejaVuSans-50" x="29.492188"/>
      <use xlink:href="#DejaVuSans-44" x="89.794922"/>
      <use xlink:href="#DejaVuSans-44" x="166.796875"/>
     </g>
    </g>
    <g id="line2d_40">
     <path d="M 452.9 123.650937 
L 462.9 123.650937 
L 472.9 123.650937 
" style="fill: none; stroke-dasharray: 9.6,2.4,1.5,2.4; stroke-dashoffset: 0; stroke: #e31d1d; stroke-width: 1.5"/>
     <g>
      <use xlink:href="#mb8c9851ea1" x="462.9" y="123.650937" style="fill: #e31d1d; stroke: #e31d1d"/>
     </g>
    </g>
    <g id="text_20">
     <!-- GDPA -->
     <g transform="translate(480.9 127.150937) scale(0.1 -0.1)">
      <defs>
       <path id="DejaVuSans-47" d="M 3809 666 
L 3809 1919 
L 2778 1919 
L 2778 2438 
L 4434 2438 
L 4434 434 
Q 4069 175 3628 42 
Q 3188 -91 2688 -91 
Q 1594 -91 976 548 
Q 359 1188 359 2328 
Q 359 3472 976 4111 
Q 1594 4750 2688 4750 
Q 3144 4750 3555 4637 
Q 3966 4525 4313 4306 
L 4313 3634 
Q 3963 3931 3569 4081 
Q 3175 4231 2741 4231 
Q 1884 4231 1454 3753 
Q 1025 3275 1025 2328 
Q 1025 1384 1454 906 
Q 1884 428 2741 428 
Q 3075 428 3337 486 
Q 3600 544 3809 666 
z
" transform="scale(0.015625)"/>
       <path id="DejaVuSans-41" d="M 2188 4044 
L 1331 1722 
L 3047 1722 
L 2188 4044 
z
M 1831 4666 
L 2547 4666 
L 4325 0 
L 3669 0 
L 3244 1197 
L 1141 1197 
L 716 0 
L 50 0 
L 1831 4666 
z
" transform="scale(0.015625)"/>
      </defs>
      <use xlink:href="#DejaVuSans-47"/>
      <use xlink:href="#DejaVuSans-44" x="77.490234"/>
      <use xlink:href="#DejaVuSans-50" x="154.492188"/>
      <use xlink:href="#DejaVuSans-41" x="208.419922"/>
     </g>
    </g>
    <g id="line2d_41">
     <path d="M 452.9 138.329062 
L 462.9 138.329062 
L 472.9 138.329062 
" style="fill: none; stroke: #1c24dc; stroke-width: 1.5; stroke-linecap: square"/>
     <g>
      <use xlink:href="#m832f3e7358" x="462.9" y="138.329062" style="fill: #1c24dc; stroke: #1c24dc; stroke-linejoin: bevel"/>
     </g>
    </g>
    <g id="text_21">
     <!-- PGA -->
     <g transform="translate(480.9 141.829062) scale(0.1 -0.1)">
      <use xlink:href="#DejaVuSans-50"/>
      <use xlink:href="#DejaVuSans-47" x="60.302734"/>
      <use xlink:href="#DejaVuSans-41" x="137.792969"/>
     </g>
    </g>
   </g>
  </g>
 </g>
 <defs>
  <clipPath id="pfc07d1f80e">
   <rect x="72" y="51.84" width="446.4" height="332.64"/>
  </clipPath>
 </defs>
</svg>
