<?xml version="1.0" encoding="utf-8" standalone="no"?>
<!DOCTYPE svg PUBLIC "-//W3C//DTD SVG 1.1//EN"
  "http://www.w3.org/Graphics/SVG/1.1/DTD/svg11.dtd">
<svg xmlns:xlink="http://www.w3.org/1999/xlink" width="576pt" height="432pt" viewBox="0 0 576 432" xmlns="http://www.w3.org/2000/svg" version="1.1">
 <metadata>
  <rdf:RDF xmlns:dc="http://purl.org/dc/elements/1.1/" xmlns:cc="http://creativecommons.org/ns#" xmlns:rdf="http://www.w3.org/1999/02/22-rdf-syntax-ns#">
   <cc:Work>
    <dc:type rdf:resource="http://purl.org/dc/dcmitype/StillImage"/>
    <dc:date>2024-12-27T11:40:58.926044</dc:date>
    <dc:format>image/svg+xml</dc:format>
    <dc:creator>
     <cc:Agent>
      <dc:title>Matplotlib v3.7.1, https://matplotlib.org/</dc:title>
     </cc:Agent>
    </dc:creator>
   </cc:Work>
  </rdf:RDF>
 </metadata>
 <defs>
  <style type="text/css">*{stroke-linejoin: round; stroke-linecap: butt}</style>
 </defs>
 <g id="figure_1">
  <g id="patch_1">
   <path d="M 0 432 
L 576 432 
L 576 0 
L 0 0 
z
" style="fill: #ffffff"/>
  </g>
  <g id="axes_1">
   <g id="patch_2">
    <path d="M 72 384.48 
L 518.4 384.48 
L 518.4 51.84 
L 72 51.84 
z
" style="fill: #ffffff"/>
   </g>
   <g id="matplotlib.axis_1">
    <g id="xtick_1">
     <g id="line2d_1">
      <path d="M 72 384.48 
L 72 51.84 
" clip-path="url(#p85d68fdd72)" style="fill: none; stroke: #b0b0b0; stroke-width: 0.8; stroke-linecap: square"/>
     </g>
     <g id="line2d_2">
      <defs>
       <path id="m427ae8ac21" d="M 0 0 
L 0 3.5 
" style="stroke: #000000; stroke-width: 0.8"/>
      </defs>
      <g>
       <use xlink:href="#m427ae8ac21" x="72" y="384.48" style="stroke: #000000; stroke-width: 0.8"/>
      </g>
     </g>
     <g id="text_1">
      <!-- 0 -->
      <g transform="translate(68.81875 399.078438) scale(0.1 -0.1)">
       <defs>
        <path id="DejaVuSans-30" d="M 2034 4250 
Q 1547 4250 1301 3770 
Q 1056 3291 1056 2328 
Q 1056 1369 1301 889 
Q 1547 409 2034 409 
Q 2525 409 2770 889 
Q 3016 1369 3016 2328 
Q 3016 3291 2770 3770 
Q 2525 4250 2034 4250 
z
M 2034 4750 
Q 2819 4750 3233 4129 
Q 3647 3509 3647 2328 
Q 3647 1150 3233 529 
Q 2819 -91 2034 -91 
Q 1250 -91 836 529 
Q 422 1150 422 2328 
Q 422 3509 836 4129 
Q 1250 4750 2034 4750 
z
" transform="scale(0.015625)"/>
       </defs>
       <use xlink:href="#DejaVuSans-30"/>
      </g>
     </g>
    </g>
    <g id="xtick_2">
     <g id="line2d_3">
      <path d="M 161.28 384.48 
L 161.28 51.84 
" clip-path="url(#p85d68fdd72)" style="fill: none; stroke: #b0b0b0; stroke-width: 0.8; stroke-linecap: square"/>
     </g>
     <g id="line2d_4">
      <g>
       <use xlink:href="#m427ae8ac21" x="161.28" y="384.48" style="stroke: #000000; stroke-width: 0.8"/>
      </g>
     </g>
     <g id="text_2">
      <!-- 100 -->
      <g transform="translate(151.73625 399.078438) scale(0.1 -0.1)">
       <defs>
        <path id="DejaVuSans-31" d="M 794 531 
L 1825 531 
L 1825 4091 
L 703 3866 
L 703 4441 
L 1819 4666 
L 2450 4666 
L 2450 531 
L 3481 531 
L 3481 0 
L 794 0 
L 794 531 
z
" transform="scale(0.015625)"/>
       </defs>
       <use xlink:href="#DejaVuSans-31"/>
       <use xlink:href="#DejaVuSans-30" x="63.623047"/>
       <use xlink:href="#DejaVuSans-30" x="127.246094"/>
      </g>
     </g>
    </g>
    <g id="xtick_3">
     <g id="line2d_5">
      <path d="M 250.56 384.48 
L 250.56 51.84 
" clip-path="url(#p85d68fdd72)" style="fill: none; stroke: #b0b0b0; stroke-width: 0.8; stroke-linecap: square"/>
     </g>
     <g id="line2d_6">
      <g>
       <use xlink:href="#m427ae8ac21" x="250.56" y="384.48" style="stroke: #000000; stroke-width: 0.8"/>
      </g>
     </g>
     <g id="text_3">
      <!-- 200 -->
      <g transform="translate(241.01625 399.078438) scale(0.1 -0.1)">
       <defs>
        <path id="DejaVuSans-32" d="M 1228 531 
L 3431 531 
L 3431 0 
L 469 0 
L 469 531 
Q 828 903 1448 1529 
Q 2069 2156 2228 2338 
Q 2531 2678 2651 2914 
Q 2772 3150 2772 3378 
Q 2772 3750 2511 3984 
Q 2250 4219 1831 4219 
Q 1534 4219 1204 4116 
Q 875 4013 500 3803 
L 500 4441 
Q 881 4594 1212 4672 
Q 1544 4750 1819 4750 
Q 2544 4750 2975 4387 
Q 3406 4025 3406 3419 
Q 3406 3131 3298 2873 
Q 3191 2616 2906 2266 
Q 2828 2175 2409 1742 
Q 1991 1309 1228 531 
z
" transform="scale(0.015625)"/>
       </defs>
       <use xlink:href="#DejaVuSans-32"/>
       <use xlink:href="#DejaVuSans-30" x="63.623047"/>
       <use xlink:href="#DejaVuSans-30" x="127.246094"/>
      </g>
     </g>
    </g>
    <g id="xtick_4">
     <g id="line2d_7">
      <path d="M 339.84 384.48 
L 339.84 51.84 
" clip-path="url(#p85d68fdd72)" style="fill: none; stroke: #b0b0b0; stroke-width: 0.8; stroke-linecap: square"/>
     </g>
     <g id="line2d_8">
      <g>
       <use xlink:href="#m427ae8ac21" x="339.84" y="384.48" style="stroke: #000000; stroke-width: 0.8"/>
      </g>
     </g>
     <g id="text_4">
      <!-- 300 -->
      <g transform="translate(330.29625 399.078438) scale(0.1 -0.1)">
       <defs>
        <path id="DejaVuSans-33" d="M 2597 2516 
Q 3050 2419 3304 2112 
Q 3559 1806 3559 1356 
Q 3559 666 3084 287 
Q 2609 -91 1734 -91 
Q 1441 -91 1130 -33 
Q 819 25 488 141 
L 488 750 
Q 750 597 1062 519 
Q 1375 441 1716 441 
Q 2309 441 2620 675 
Q 2931 909 2931 1356 
Q 2931 1769 2642 2001 
Q 2353 2234 1838 2234 
L 1294 2234 
L 1294 2753 
L 1863 2753 
Q 2328 2753 2575 2939 
Q 2822 3125 2822 3475 
Q 2822 3834 2567 4026 
Q 2313 4219 1838 4219 
Q 1578 4219 1281 4162 
Q 984 4106 628 3988 
L 628 4550 
Q 988 4650 1302 4700 
Q 1616 4750 1894 4750 
Q 2613 4750 3031 4423 
Q 3450 4097 3450 3541 
Q 3450 3153 3228 2886 
Q 3006 2619 2597 2516 
z
" transform="scale(0.015625)"/>
       </defs>
       <use xlink:href="#DejaVuSans-33"/>
       <use xlink:href="#DejaVuSans-30" x="63.623047"/>
       <use xlink:href="#DejaVuSans-30" x="127.246094"/>
      </g>
     </g>
    </g>
    <g id="xtick_5">
     <g id="line2d_9">
      <path d="M 429.12 384.48 
L 429.12 51.84 
" clip-path="url(#p85d68fdd72)" style="fill: none; stroke: #b0b0b0; stroke-width: 0.8; stroke-linecap: square"/>
     </g>
     <g id="line2d_10">
      <g>
       <use xlink:href="#m427ae8ac21" x="429.12" y="384.48" style="stroke: #000000; stroke-width: 0.8"/>
      </g>
     </g>
     <g id="text_5">
      <!-- 400 -->
      <g transform="translate(419.57625 399.078438) scale(0.1 -0.1)">
       <defs>
        <path id="DejaVuSans-34" d="M 2419 4116 
L 825 1625 
L 2419 1625 
L 2419 4116 
z
M 2253 4666 
L 3047 4666 
L 3047 1625 
L 3713 1625 
L 3713 1100 
L 3047 1100 
L 3047 0 
L 2419 0 
L 2419 1100 
L 313 1100 
L 313 1709 
L 2253 4666 
z
" transform="scale(0.015625)"/>
       </defs>
       <use xlink:href="#DejaVuSans-34"/>
       <use xlink:href="#DejaVuSans-30" x="63.623047"/>
       <use xlink:href="#DejaVuSans-30" x="127.246094"/>
      </g>
     </g>
    </g>
    <g id="xtick_6">
     <g id="line2d_11">
      <path d="M 518.4 384.48 
L 518.4 51.84 
" clip-path="url(#p85d68fdd72)" style="fill: none; stroke: #b0b0b0; stroke-width: 0.8; stroke-linecap: square"/>
     </g>
     <g id="line2d_12">
      <g>
       <use xlink:href="#m427ae8ac21" x="518.4" y="384.48" style="stroke: #000000; stroke-width: 0.8"/>
      </g>
     </g>
     <g id="text_6">
      <!-- 500 -->
      <g transform="translate(508.85625 399.078438) scale(0.1 -0.1)">
       <defs>
        <path id="DejaVuSans-35" d="M 691 4666 
L 3169 4666 
L 3169 4134 
L 1269 4134 
L 1269 2991 
Q 1406 3038 1543 3061 
Q 1681 3084 1819 3084 
Q 2600 3084 3056 2656 
Q 3513 2228 3513 1497 
Q 3513 744 3044 326 
Q 2575 -91 1722 -91 
Q 1428 -91 1123 -41 
Q 819 9 494 109 
L 494 744 
Q 775 591 1075 516 
Q 1375 441 1709 441 
Q 2250 441 2565 725 
Q 2881 1009 2881 1497 
Q 2881 1984 2565 2268 
Q 2250 2553 1709 2553 
Q 1456 2553 1204 2497 
Q 953 2441 691 2322 
L 691 4666 
z
" transform="scale(0.015625)"/>
       </defs>
       <use xlink:href="#DejaVuSans-35"/>
       <use xlink:href="#DejaVuSans-30" x="63.623047"/>
       <use xlink:href="#DejaVuSans-30" x="127.246094"/>
      </g>
     </g>
    </g>
    <g id="text_7">
     <!-- Computational time [s] -->
     <g transform="translate(214.281094 415.795938) scale(0.14 -0.14)">
      <defs>
       <path id="DejaVuSans-43" d="M 4122 4306 
L 4122 3641 
Q 3803 3938 3442 4084 
Q 3081 4231 2675 4231 
Q 1875 4231 1450 3742 
Q 1025 3253 1025 2328 
Q 1025 1406 1450 917 
Q 1875 428 2675 428 
Q 3081 428 3442 575 
Q 3803 722 4122 1019 
L 4122 359 
Q 3791 134 3420 21 
Q 3050 -91 2638 -91 
Q 1578 -91 968 557 
Q 359 1206 359 2328 
Q 359 3453 968 4101 
Q 1578 4750 2638 4750 
Q 3056 4750 3426 4639 
Q 3797 4528 4122 4306 
z
" transform="scale(0.015625)"/>
       <path id="DejaVuSans-6f" d="M 1959 3097 
Q 1497 3097 1228 2736 
Q 959 2375 959 1747 
Q 959 1119 1226 758 
Q 1494 397 1959 397 
Q 2419 397 2687 759 
Q 2956 1122 2956 1747 
Q 2956 2369 2687 2733 
Q 2419 3097 1959 3097 
z
M 1959 3584 
Q 2709 3584 3137 3096 
Q 3566 2609 3566 1747 
Q 3566 888 3137 398 
Q 2709 -91 1959 -91 
Q 1206 -91 779 398 
Q 353 888 353 1747 
Q 353 2609 779 3096 
Q 1206 3584 1959 3584 
z
" transform="scale(0.015625)"/>
       <path id="DejaVuSans-6d" d="M 3328 2828 
Q 3544 3216 3844 3400 
Q 4144 3584 4550 3584 
Q 5097 3584 5394 3201 
Q 5691 2819 5691 2113 
L 5691 0 
L 5113 0 
L 5113 2094 
Q 5113 2597 4934 2840 
Q 4756 3084 4391 3084 
Q 3944 3084 3684 2787 
Q 3425 2491 3425 1978 
L 3425 0 
L 2847 0 
L 2847 2094 
Q 2847 2600 2669 2842 
Q 2491 3084 2119 3084 
Q 1678 3084 1418 2786 
Q 1159 2488 1159 1978 
L 1159 0 
L 581 0 
L 581 3500 
L 1159 3500 
L 1159 2956 
Q 1356 3278 1631 3431 
Q 1906 3584 2284 3584 
Q 2666 3584 2933 3390 
Q 3200 3197 3328 2828 
z
" transform="scale(0.015625)"/>
       <path id="DejaVuSans-70" d="M 1159 525 
L 1159 -1331 
L 581 -1331 
L 581 3500 
L 1159 3500 
L 1159 2969 
Q 1341 3281 1617 3432 
Q 1894 3584 2278 3584 
Q 2916 3584 3314 3078 
Q 3713 2572 3713 1747 
Q 3713 922 3314 415 
Q 2916 -91 2278 -91 
Q 1894 -91 1617 61 
Q 1341 213 1159 525 
z
M 3116 1747 
Q 3116 2381 2855 2742 
Q 2594 3103 2138 3103 
Q 1681 3103 1420 2742 
Q 1159 2381 1159 1747 
Q 1159 1113 1420 752 
Q 1681 391 2138 391 
Q 2594 391 2855 752 
Q 3116 1113 3116 1747 
z
" transform="scale(0.015625)"/>
       <path id="DejaVuSans-75" d="M 544 1381 
L 544 3500 
L 1119 3500 
L 1119 1403 
Q 1119 906 1312 657 
Q 1506 409 1894 409 
Q 2359 409 2629 706 
Q 2900 1003 2900 1516 
L 2900 3500 
L 3475 3500 
L 3475 0 
L 2900 0 
L 2900 538 
Q 2691 219 2414 64 
Q 2138 -91 1772 -91 
Q 1169 -91 856 284 
Q 544 659 544 1381 
z
M 1991 3584 
L 1991 3584 
z
" transform="scale(0.015625)"/>
       <path id="DejaVuSans-74" d="M 1172 4494 
L 1172 3500 
L 2356 3500 
L 2356 3053 
L 1172 3053 
L 1172 1153 
Q 1172 725 1289 603 
Q 1406 481 1766 481 
L 2356 481 
L 2356 0 
L 1766 0 
Q 1100 0 847 248 
Q 594 497 594 1153 
L 594 3053 
L 172 3053 
L 172 3500 
L 594 3500 
L 594 4494 
L 1172 4494 
z
" transform="scale(0.015625)"/>
       <path id="DejaVuSans-61" d="M 2194 1759 
Q 1497 1759 1228 1600 
Q 959 1441 959 1056 
Q 959 750 1161 570 
Q 1363 391 1709 391 
Q 2188 391 2477 730 
Q 2766 1069 2766 1631 
L 2766 1759 
L 2194 1759 
z
M 3341 1997 
L 3341 0 
L 2766 0 
L 2766 531 
Q 2569 213 2275 61 
Q 1981 -91 1556 -91 
Q 1019 -91 701 211 
Q 384 513 384 1019 
Q 384 1609 779 1909 
Q 1175 2209 1959 2209 
L 2766 2209 
L 2766 2266 
Q 2766 2663 2505 2880 
Q 2244 3097 1772 3097 
Q 1472 3097 1187 3025 
Q 903 2953 641 2809 
L 641 3341 
Q 956 3463 1253 3523 
Q 1550 3584 1831 3584 
Q 2591 3584 2966 3190 
Q 3341 2797 3341 1997 
z
" transform="scale(0.015625)"/>
       <path id="DejaVuSans-69" d="M 603 3500 
L 1178 3500 
L 1178 0 
L 603 0 
L 603 3500 
z
M 603 4863 
L 1178 4863 
L 1178 4134 
L 603 4134 
L 603 4863 
z
" transform="scale(0.015625)"/>
       <path id="DejaVuSans-6e" d="M 3513 2113 
L 3513 0 
L 2938 0 
L 2938 2094 
Q 2938 2591 2744 2837 
Q 2550 3084 2163 3084 
Q 1697 3084 1428 2787 
Q 1159 2491 1159 1978 
L 1159 0 
L 581 0 
L 581 3500 
L 1159 3500 
L 1159 2956 
Q 1366 3272 1645 3428 
Q 1925 3584 2291 3584 
Q 2894 3584 3203 3211 
Q 3513 2838 3513 2113 
z
" transform="scale(0.015625)"/>
       <path id="DejaVuSans-6c" d="M 603 4863 
L 1178 4863 
L 1178 0 
L 603 0 
L 603 4863 
z
" transform="scale(0.015625)"/>
       <path id="DejaVuSans-20" transform="scale(0.015625)"/>
       <path id="DejaVuSans-65" d="M 3597 1894 
L 3597 1613 
L 953 1613 
Q 991 1019 1311 708 
Q 1631 397 2203 397 
Q 2534 397 2845 478 
Q 3156 559 3463 722 
L 3463 178 
Q 3153 47 2828 -22 
Q 2503 -91 2169 -91 
Q 1331 -91 842 396 
Q 353 884 353 1716 
Q 353 2575 817 3079 
Q 1281 3584 2069 3584 
Q 2775 3584 3186 3129 
Q 3597 2675 3597 1894 
z
M 3022 2063 
Q 3016 2534 2758 2815 
Q 2500 3097 2075 3097 
Q 1594 3097 1305 2825 
Q 1016 2553 972 2059 
L 3022 2063 
z
" transform="scale(0.015625)"/>
       <path id="DejaVuSans-5b" d="M 550 4863 
L 1875 4863 
L 1875 4416 
L 1125 4416 
L 1125 -397 
L 1875 -397 
L 1875 -844 
L 550 -844 
L 550 4863 
z
" transform="scale(0.015625)"/>
       <path id="DejaVuSans-73" d="M 2834 3397 
L 2834 2853 
Q 2591 2978 2328 3040 
Q 2066 3103 1784 3103 
Q 1356 3103 1142 2972 
Q 928 2841 928 2578 
Q 928 2378 1081 2264 
Q 1234 2150 1697 2047 
L 1894 2003 
Q 2506 1872 2764 1633 
Q 3022 1394 3022 966 
Q 3022 478 2636 193 
Q 2250 -91 1575 -91 
Q 1294 -91 989 -36 
Q 684 19 347 128 
L 347 722 
Q 666 556 975 473 
Q 1284 391 1588 391 
Q 1994 391 2212 530 
Q 2431 669 2431 922 
Q 2431 1156 2273 1281 
Q 2116 1406 1581 1522 
L 1381 1569 
Q 847 1681 609 1914 
Q 372 2147 372 2553 
Q 372 3047 722 3315 
Q 1072 3584 1716 3584 
Q 2034 3584 2315 3537 
Q 2597 3491 2834 3397 
z
" transform="scale(0.015625)"/>
       <path id="DejaVuSans-5d" d="M 1947 4863 
L 1947 -844 
L 622 -844 
L 622 -397 
L 1369 -397 
L 1369 4416 
L 622 4416 
L 622 4863 
L 1947 4863 
z
" transform="scale(0.015625)"/>
      </defs>
      <use xlink:href="#DejaVuSans-43"/>
      <use xlink:href="#DejaVuSans-6f" x="69.824219"/>
      <use xlink:href="#DejaVuSans-6d" x="131.005859"/>
      <use xlink:href="#DejaVuSans-70" x="228.417969"/>
      <use xlink:href="#DejaVuSans-75" x="291.894531"/>
      <use xlink:href="#DejaVuSans-74" x="355.273438"/>
      <use xlink:href="#DejaVuSans-61" x="394.482422"/>
      <use xlink:href="#DejaVuSans-74" x="455.761719"/>
      <use xlink:href="#DejaVuSans-69" x="494.970703"/>
      <use xlink:href="#DejaVuSans-6f" x="522.753906"/>
      <use xlink:href="#DejaVuSans-6e" x="583.935547"/>
      <use xlink:href="#DejaVuSans-61" x="647.314453"/>
      <use xlink:href="#DejaVuSans-6c" x="708.59375"/>
      <use xlink:href="#DejaVuSans-20" x="736.376953"/>
      <use xlink:href="#DejaVuSans-74" x="768.164062"/>
      <use xlink:href="#DejaVuSans-69" x="807.373047"/>
      <use xlink:href="#DejaVuSans-6d" x="835.15625"/>
      <use xlink:href="#DejaVuSans-65" x="932.568359"/>
      <use xlink:href="#DejaVuSans-20" x="994.091797"/>
      <use xlink:href="#DejaVuSans-5b" x="1025.878906"/>
      <use xlink:href="#DejaVuSans-73" x="1064.892578"/>
      <use xlink:href="#DejaVuSans-5d" x="1116.992188"/>
     </g>
    </g>
   </g>
   <g id="matplotlib.axis_2">
    <g id="ytick_1">
     <g id="line2d_13">
      <path d="M 72 380.860968 
L 518.4 380.860968 
" clip-path="url(#p85d68fdd72)" style="fill: none; stroke: #b0b0b0; stroke-width: 0.8; stroke-linecap: square"/>
     </g>
     <g id="line2d_14">
      <defs>
       <path id="m5b0cb934dc" d="M 0 0 
L -3.5 0 
" style="stroke: #000000; stroke-width: 0.8"/>
      </defs>
      <g>
       <use xlink:href="#m5b0cb934dc" x="72" y="380.860968" style="stroke: #000000; stroke-width: 0.8"/>
      </g>
     </g>
     <g id="text_8">
      <!-- −800 -->
      <g transform="translate(37.532812 384.660186) scale(0.1 -0.1)">
       <defs>
        <path id="DejaVuSans-2212" d="M 678 2272 
L 4684 2272 
L 4684 1741 
L 678 1741 
L 678 2272 
z
" transform="scale(0.015625)"/>
        <path id="DejaVuSans-38" d="M 2034 2216 
Q 1584 2216 1326 1975 
Q 1069 1734 1069 1313 
Q 1069 891 1326 650 
Q 1584 409 2034 409 
Q 2484 409 2743 651 
Q 3003 894 3003 1313 
Q 3003 1734 2745 1975 
Q 2488 2216 2034 2216 
z
M 1403 2484 
Q 997 2584 770 2862 
Q 544 3141 544 3541 
Q 544 4100 942 4425 
Q 1341 4750 2034 4750 
Q 2731 4750 3128 4425 
Q 3525 4100 3525 3541 
Q 3525 3141 3298 2862 
Q 3072 2584 2669 2484 
Q 3125 2378 3379 2068 
Q 3634 1759 3634 1313 
Q 3634 634 3220 271 
Q 2806 -91 2034 -91 
Q 1263 -91 848 271 
Q 434 634 434 1313 
Q 434 1759 690 2068 
Q 947 2378 1403 2484 
z
M 1172 3481 
Q 1172 3119 1398 2916 
Q 1625 2713 2034 2713 
Q 2441 2713 2670 2916 
Q 2900 3119 2900 3481 
Q 2900 3844 2670 4047 
Q 2441 4250 2034 4250 
Q 1625 4250 1398 4047 
Q 1172 3844 1172 3481 
z
" transform="scale(0.015625)"/>
       </defs>
       <use xlink:href="#DejaVuSans-2212"/>
       <use xlink:href="#DejaVuSans-38" x="83.789062"/>
       <use xlink:href="#DejaVuSans-30" x="147.412109"/>
       <use xlink:href="#DejaVuSans-30" x="211.035156"/>
      </g>
     </g>
    </g>
    <g id="ytick_2">
     <g id="line2d_15">
      <path d="M 72 334.857097 
L 518.4 334.857097 
" clip-path="url(#p85d68fdd72)" style="fill: none; stroke: #b0b0b0; stroke-width: 0.8; stroke-linecap: square"/>
     </g>
     <g id="line2d_16">
      <g>
       <use xlink:href="#m5b0cb934dc" x="72" y="334.857097" style="stroke: #000000; stroke-width: 0.8"/>
      </g>
     </g>
     <g id="text_9">
      <!-- −600 -->
      <g transform="translate(37.532812 338.656316) scale(0.1 -0.1)">
       <defs>
        <path id="DejaVuSans-36" d="M 2113 2584 
Q 1688 2584 1439 2293 
Q 1191 2003 1191 1497 
Q 1191 994 1439 701 
Q 1688 409 2113 409 
Q 2538 409 2786 701 
Q 3034 994 3034 1497 
Q 3034 2003 2786 2293 
Q 2538 2584 2113 2584 
z
M 3366 4563 
L 3366 3988 
Q 3128 4100 2886 4159 
Q 2644 4219 2406 4219 
Q 1781 4219 1451 3797 
Q 1122 3375 1075 2522 
Q 1259 2794 1537 2939 
Q 1816 3084 2150 3084 
Q 2853 3084 3261 2657 
Q 3669 2231 3669 1497 
Q 3669 778 3244 343 
Q 2819 -91 2113 -91 
Q 1303 -91 875 529 
Q 447 1150 447 2328 
Q 447 3434 972 4092 
Q 1497 4750 2381 4750 
Q 2619 4750 2861 4703 
Q 3103 4656 3366 4563 
z
" transform="scale(0.015625)"/>
       </defs>
       <use xlink:href="#DejaVuSans-2212"/>
       <use xlink:href="#DejaVuSans-36" x="83.789062"/>
       <use xlink:href="#DejaVuSans-30" x="147.412109"/>
       <use xlink:href="#DejaVuSans-30" x="211.035156"/>
      </g>
     </g>
    </g>
    <g id="ytick_3">
     <g id="line2d_17">
      <path d="M 72 288.853227 
L 518.4 288.853227 
" clip-path="url(#p85d68fdd72)" style="fill: none; stroke: #b0b0b0; stroke-width: 0.8; stroke-linecap: square"/>
     </g>
     <g id="line2d_18">
      <g>
       <use xlink:href="#m5b0cb934dc" x="72" y="288.853227" style="stroke: #000000; stroke-width: 0.8"/>
      </g>
     </g>
     <g id="text_10">
      <!-- −400 -->
      <g transform="translate(37.532812 292.652446) scale(0.1 -0.1)">
       <use xlink:href="#DejaVuSans-2212"/>
       <use xlink:href="#DejaVuSans-34" x="83.789062"/>
       <use xlink:href="#DejaVuSans-30" x="147.412109"/>
       <use xlink:href="#DejaVuSans-30" x="211.035156"/>
      </g>
     </g>
    </g>
    <g id="ytick_4">
     <g id="line2d_19">
      <path d="M 72 242.849357 
L 518.4 242.849357 
" clip-path="url(#p85d68fdd72)" style="fill: none; stroke: #b0b0b0; stroke-width: 0.8; stroke-linecap: square"/>
     </g>
     <g id="line2d_20">
      <g>
       <use xlink:href="#m5b0cb934dc" x="72" y="242.849357" style="stroke: #000000; stroke-width: 0.8"/>
      </g>
     </g>
     <g id="text_11">
      <!-- −200 -->
      <g transform="translate(37.532812 246.648576) scale(0.1 -0.1)">
       <use xlink:href="#DejaVuSans-2212"/>
       <use xlink:href="#DejaVuSans-32" x="83.789062"/>
       <use xlink:href="#DejaVuSans-30" x="147.412109"/>
       <use xlink:href="#DejaVuSans-30" x="211.035156"/>
      </g>
     </g>
    </g>
    <g id="ytick_5">
     <g id="line2d_21">
      <path d="M 72 196.845486 
L 518.4 196.845486 
" clip-path="url(#p85d68fdd72)" style="fill: none; stroke: #b0b0b0; stroke-width: 0.8; stroke-linecap: square"/>
     </g>
     <g id="line2d_22">
      <g>
       <use xlink:href="#m5b0cb934dc" x="72" y="196.845486" style="stroke: #000000; stroke-width: 0.8"/>
      </g>
     </g>
     <g id="text_12">
      <!-- 0 -->
      <g transform="translate(58.6375 200.644705) scale(0.1 -0.1)">
       <use xlink:href="#DejaVuSans-30"/>
      </g>
     </g>
    </g>
    <g id="ytick_6">
     <g id="line2d_23">
      <path d="M 72 150.841616 
L 518.4 150.841616 
" clip-path="url(#p85d68fdd72)" style="fill: none; stroke: #b0b0b0; stroke-width: 0.8; stroke-linecap: square"/>
     </g>
     <g id="line2d_24">
      <g>
       <use xlink:href="#m5b0cb934dc" x="72" y="150.841616" style="stroke: #000000; stroke-width: 0.8"/>
      </g>
     </g>
     <g id="text_13">
      <!-- 200 -->
      <g transform="translate(45.9125 154.640835) scale(0.1 -0.1)">
       <use xlink:href="#DejaVuSans-32"/>
       <use xlink:href="#DejaVuSans-30" x="63.623047"/>
       <use xlink:href="#DejaVuSans-30" x="127.246094"/>
      </g>
     </g>
    </g>
    <g id="ytick_7">
     <g id="line2d_25">
      <path d="M 72 104.837746 
L 518.4 104.837746 
" clip-path="url(#p85d68fdd72)" style="fill: none; stroke: #b0b0b0; stroke-width: 0.8; stroke-linecap: square"/>
     </g>
     <g id="line2d_26">
      <g>
       <use xlink:href="#m5b0cb934dc" x="72" y="104.837746" style="stroke: #000000; stroke-width: 0.8"/>
      </g>
     </g>
     <g id="text_14">
      <!-- 400 -->
      <g transform="translate(45.9125 108.636965) scale(0.1 -0.1)">
       <use xlink:href="#DejaVuSans-34"/>
       <use xlink:href="#DejaVuSans-30" x="63.623047"/>
       <use xlink:href="#DejaVuSans-30" x="127.246094"/>
      </g>
     </g>
    </g>
    <g id="ytick_8">
     <g id="line2d_27">
      <path d="M 72 58.833876 
L 518.4 58.833876 
" clip-path="url(#p85d68fdd72)" style="fill: none; stroke: #b0b0b0; stroke-width: 0.8; stroke-linecap: square"/>
     </g>
     <g id="line2d_28">
      <g>
       <use xlink:href="#m5b0cb934dc" x="72" y="58.833876" style="stroke: #000000; stroke-width: 0.8"/>
      </g>
     </g>
     <g id="text_15">
      <!-- 600 -->
      <g transform="translate(45.9125 62.633094) scale(0.1 -0.1)">
       <use xlink:href="#DejaVuSans-36"/>
       <use xlink:href="#DejaVuSans-30" x="63.623047"/>
       <use xlink:href="#DejaVuSans-30" x="127.246094"/>
      </g>
     </g>
    </g>
    <g id="text_16">
     <!-- Objective value -->
     <g transform="translate(30.62125 272.699844) rotate(-90) scale(0.14 -0.14)">
      <defs>
       <path id="DejaVuSans-4f" d="M 2522 4238 
Q 1834 4238 1429 3725 
Q 1025 3213 1025 2328 
Q 1025 1447 1429 934 
Q 1834 422 2522 422 
Q 3209 422 3611 934 
Q 4013 1447 4013 2328 
Q 4013 3213 3611 3725 
Q 3209 4238 2522 4238 
z
M 2522 4750 
Q 3503 4750 4090 4092 
Q 4678 3434 4678 2328 
Q 4678 1225 4090 567 
Q 3503 -91 2522 -91 
Q 1538 -91 948 565 
Q 359 1222 359 2328 
Q 359 3434 948 4092 
Q 1538 4750 2522 4750 
z
" transform="scale(0.015625)"/>
       <path id="DejaVuSans-62" d="M 3116 1747 
Q 3116 2381 2855 2742 
Q 2594 3103 2138 3103 
Q 1681 3103 1420 2742 
Q 1159 2381 1159 1747 
Q 1159 1113 1420 752 
Q 1681 391 2138 391 
Q 2594 391 2855 752 
Q 3116 1113 3116 1747 
z
M 1159 2969 
Q 1341 3281 1617 3432 
Q 1894 3584 2278 3584 
Q 2916 3584 3314 3078 
Q 3713 2572 3713 1747 
Q 3713 922 3314 415 
Q 2916 -91 2278 -91 
Q 1894 -91 1617 61 
Q 1341 213 1159 525 
L 1159 0 
L 581 0 
L 581 4863 
L 1159 4863 
L 1159 2969 
z
" transform="scale(0.015625)"/>
       <path id="DejaVuSans-6a" d="M 603 3500 
L 1178 3500 
L 1178 -63 
Q 1178 -731 923 -1031 
Q 669 -1331 103 -1331 
L -116 -1331 
L -116 -844 
L 38 -844 
Q 366 -844 484 -692 
Q 603 -541 603 -63 
L 603 3500 
z
M 603 4863 
L 1178 4863 
L 1178 4134 
L 603 4134 
L 603 4863 
z
" transform="scale(0.015625)"/>
       <path id="DejaVuSans-63" d="M 3122 3366 
L 3122 2828 
Q 2878 2963 2633 3030 
Q 2388 3097 2138 3097 
Q 1578 3097 1268 2742 
Q 959 2388 959 1747 
Q 959 1106 1268 751 
Q 1578 397 2138 397 
Q 2388 397 2633 464 
Q 2878 531 3122 666 
L 3122 134 
Q 2881 22 2623 -34 
Q 2366 -91 2075 -91 
Q 1284 -91 818 406 
Q 353 903 353 1747 
Q 353 2603 823 3093 
Q 1294 3584 2113 3584 
Q 2378 3584 2631 3529 
Q 2884 3475 3122 3366 
z
" transform="scale(0.015625)"/>
       <path id="DejaVuSans-76" d="M 191 3500 
L 800 3500 
L 1894 563 
L 2988 3500 
L 3597 3500 
L 2284 0 
L 1503 0 
L 191 3500 
z
" transform="scale(0.015625)"/>
      </defs>
      <use xlink:href="#DejaVuSans-4f"/>
      <use xlink:href="#DejaVuSans-62" x="78.710938"/>
      <use xlink:href="#DejaVuSans-6a" x="142.1875"/>
      <use xlink:href="#DejaVuSans-65" x="169.970703"/>
      <use xlink:href="#DejaVuSans-63" x="231.494141"/>
      <use xlink:href="#DejaVuSans-74" x="286.474609"/>
      <use xlink:href="#DejaVuSans-69" x="325.683594"/>
      <use xlink:href="#DejaVuSans-76" x="353.466797"/>
      <use xlink:href="#DejaVuSans-65" x="412.646484"/>
      <use xlink:href="#DejaVuSans-20" x="474.169922"/>
      <use xlink:href="#DejaVuSans-76" x="505.957031"/>
      <use xlink:href="#DejaVuSans-61" x="565.136719"/>
      <use xlink:href="#DejaVuSans-6c" x="626.416016"/>
      <use xlink:href="#DejaVuSans-75" x="654.199219"/>
      <use xlink:href="#DejaVuSans-65" x="717.578125"/>
     </g>
    </g>
   </g>
   <g id="line2d_29">
    <path d="M 89.03058 252.322117 
" clip-path="url(#p85d68fdd72)" style="fill: none; stroke: #36ff33; stroke-width: 1.5; stroke-linecap: square"/>
    <defs>
     <path id="m9fa2abf2a9" d="M -6 6 
L 6 6 
L 6 -6 
L -6 -6 
z
" style="stroke: #36ff33; stroke-linejoin: miter"/>
    </defs>
    <g clip-path="url(#p85d68fdd72)">
     <use xlink:href="#m9fa2abf2a9" x="89.03058" y="252.322117" style="fill: #36ff33; stroke: #36ff33; stroke-linejoin: miter"/>
    </g>
   </g>
   <g id="line2d_30">
    <path d="M 89.03058 252.322117 
L 518.4 252.322117 
" clip-path="url(#p85d68fdd72)" style="fill: none; stroke: #36ff33; stroke-width: 1.5; stroke-linecap: square"/>
   </g>
   <g id="line2d_31">
    <path d="M 100.747903 291.440945 
" clip-path="url(#p85d68fdd72)" style="fill: none; stroke: #b6c800; stroke-width: 1.5; stroke-linecap: square"/>
    <defs>
     <path id="m94a5409c84" d="M 0 -6 
L -6 6 
L 6 6 
z
" style="stroke: #b6c800; stroke-linejoin: miter"/>
    </defs>
    <g clip-path="url(#p85d68fdd72)">
     <use xlink:href="#m94a5409c84" x="100.747903" y="291.440945" style="fill: #b6c800; stroke: #b6c800; stroke-linejoin: miter"/>
    </g>
   </g>
   <g id="line2d_32">
    <path d="M 100.747903 291.440945 
L 518.4 291.440945 
" clip-path="url(#p85d68fdd72)" style="fill: none; stroke: #b6c800; stroke-width: 1.5; stroke-linecap: square"/>
   </g>
   <g id="line2d_33">
    <path d="M 101.617696 204.486111 
" clip-path="url(#p85d68fdd72)" style="fill: none; stroke: #f119c3; stroke-width: 1.5; stroke-linecap: square"/>
    <defs>
     <path id="me09234d300" d="M -0 6 
L 6 -6 
L -6 -6 
z
" style="stroke: #f119c3; stroke-linejoin: miter"/>
    </defs>
    <g clip-path="url(#p85d68fdd72)">
     <use xlink:href="#me09234d300" x="101.617696" y="204.486111" style="fill: #f119c3; stroke: #f119c3; stroke-linejoin: miter"/>
    </g>
   </g>
   <g id="line2d_34">
    <path d="M 101.617696 204.486111 
L 518.4 204.486111 
" clip-path="url(#p85d68fdd72)" style="fill: none; stroke: #f119c3; stroke-width: 1.5; stroke-linecap: square"/>
   </g>
   <g id="line2d_35">
    <path d="M 104.603279 196.835892 
L 134.326193 206.996284 
L 169.399009 257.803128 
L 199.900056 257.745791 
L 228.970276 257.725638 
L 258.423393 257.716674 
L 288.164646 257.718625 
L 318.24085 257.718001 
L 347.094213 257.717979 
L 379.370742 257.718092 
L 409.112008 257.718246 
L 438.296458 257.718415 
L 467.509692 257.717783 
L 496.807462 257.718639 
L 528.486365 257.714807 
" clip-path="url(#p85d68fdd72)" style="fill: none; stroke: #0d5915; stroke-width: 1.5; stroke-linecap: square"/>
    <defs>
     <path id="m4828d20285" d="M 0 0 
L 0 -7.5 
M 0 0 
L -6 3.75 
M 0 0 
L 6 3.75 
" style="stroke: #0d5915"/>
    </defs>
    <g clip-path="url(#p85d68fdd72)">
     <use xlink:href="#m4828d20285" x="104.603279" y="196.835892" style="fill: #0d5915; stroke: #0d5915"/>
     <use xlink:href="#m4828d20285" x="134.326193" y="206.996284" style="fill: #0d5915; stroke: #0d5915"/>
     <use xlink:href="#m4828d20285" x="169.399009" y="257.803128" style="fill: #0d5915; stroke: #0d5915"/>
     <use xlink:href="#m4828d20285" x="199.900056" y="257.745791" style="fill: #0d5915; stroke: #0d5915"/>
     <use xlink:href="#m4828d20285" x="228.970276" y="257.725638" style="fill: #0d5915; stroke: #0d5915"/>
     <use xlink:href="#m4828d20285" x="258.423393" y="257.716674" style="fill: #0d5915; stroke: #0d5915"/>
     <use xlink:href="#m4828d20285" x="288.164646" y="257.718625" style="fill: #0d5915; stroke: #0d5915"/>
     <use xlink:href="#m4828d20285" x="318.24085" y="257.718001" style="fill: #0d5915; stroke: #0d5915"/>
     <use xlink:href="#m4828d20285" x="347.094213" y="257.717979" style="fill: #0d5915; stroke: #0d5915"/>
     <use xlink:href="#m4828d20285" x="379.370742" y="257.718092" style="fill: #0d5915; stroke: #0d5915"/>
     <use xlink:href="#m4828d20285" x="409.112008" y="257.718246" style="fill: #0d5915; stroke: #0d5915"/>
     <use xlink:href="#m4828d20285" x="438.296458" y="257.718415" style="fill: #0d5915; stroke: #0d5915"/>
     <use xlink:href="#m4828d20285" x="467.509692" y="257.717783" style="fill: #0d5915; stroke: #0d5915"/>
     <use xlink:href="#m4828d20285" x="496.807462" y="257.718639" style="fill: #0d5915; stroke: #0d5915"/>
     <use xlink:href="#m4828d20285" x="528.486365" y="257.714807" style="fill: #0d5915; stroke: #0d5915"/>
    </g>
   </g>
   <g id="line2d_36">
    <path d="M 72.065121 66.96 
L 80.856109 369.36 
L 89.830196 369.36 
L 98.518981 369.36 
L 107.591306 369.36 
L 116.449642 369.36 
L 125.12334 369.36 
L 133.931765 369.36 
L 143.197841 369.36 
L 151.990303 369.36 
L 160.979958 369.36 
L 169.65544 369.36 
L 178.37347 369.36 
L 188.603257 369.36 
L 198.152199 369.36 
L 207.108786 369.36 
L 215.80112 369.36 
L 225.053497 369.36 
L 233.744186 369.36 
L 242.592543 369.36 
L 251.38204 369.36 
L 260.084132 369.36 
L 269.090163 369.36 
L 277.791059 369.36 
L 286.938566 369.36 
L 295.754856 369.36 
L 304.773829 369.36 
L 313.440232 369.36 
L 322.1765 369.36 
L 330.918756 369.36 
L 340.391696 369.36 
L 349.03009 369.36 
L 357.717363 369.36 
L 366.614428 369.36 
L 375.836251 369.36 
L 384.871325 369.36 
L 393.555869 369.36 
L 402.556407 369.36 
L 411.296627 369.36 
L 420.287715 369.36 
L 429.679452 369.36 
L 438.418815 369.36 
L 447.354818 369.36 
L 456.026092 369.36 
L 465.04395 369.36 
L 473.739317 369.36 
L 482.422299 369.36 
L 491.370045 369.36 
L 500.347706 369.36 
L 509.276159 369.36 
L 517.976134 369.36 
" clip-path="url(#p85d68fdd72)" style="fill: none; stroke: #e31d1d; stroke-width: 1.5; stroke-linecap: square"/>
    <defs>
     <path id="m31911d6c18" d="M 0 5 
C 1.326016 5 2.597899 4.473168 3.535534 3.535534 
C 4.473168 2.597899 5 1.326016 5 0 
C 5 -1.326016 4.473168 -2.597899 3.535534 -3.535534 
C 2.597899 -4.473168 1.326016 -5 0 -5 
C -1.326016 -5 -2.597899 -4.473168 -3.535534 -3.535534 
C -4.473168 -2.597899 -5 -1.326016 -5 0 
C -5 1.326016 -4.473168 2.597899 -3.535534 3.535534 
C -2.597899 4.473168 -1.326016 5 0 5 
z
" style="stroke: #e31d1d"/>
    </defs>
    <g clip-path="url(#p85d68fdd72)">
     <use xlink:href="#m31911d6c18" x="72.065121" y="66.96" style="fill: #e31d1d; stroke: #e31d1d"/>
     <use xlink:href="#m31911d6c18" x="80.856109" y="369.36" style="fill: #e31d1d; stroke: #e31d1d"/>
     <use xlink:href="#m31911d6c18" x="89.830196" y="369.36" style="fill: #e31d1d; stroke: #e31d1d"/>
     <use xlink:href="#m31911d6c18" x="98.518981" y="369.36" style="fill: #e31d1d; stroke: #e31d1d"/>
     <use xlink:href="#m31911d6c18" x="107.591306" y="369.36" style="fill: #e31d1d; stroke: #e31d1d"/>
     <use xlink:href="#m31911d6c18" x="116.449642" y="369.36" style="fill: #e31d1d; stroke: #e31d1d"/>
     <use xlink:href="#m31911d6c18" x="125.12334" y="369.36" style="fill: #e31d1d; stroke: #e31d1d"/>
     <use xlink:href="#m31911d6c18" x="133.931765" y="369.36" style="fill: #e31d1d; stroke: #e31d1d"/>
     <use xlink:href="#m31911d6c18" x="143.197841" y="369.36" style="fill: #e31d1d; stroke: #e31d1d"/>
     <use xlink:href="#m31911d6c18" x="151.990303" y="369.36" style="fill: #e31d1d; stroke: #e31d1d"/>
     <use xlink:href="#m31911d6c18" x="160.979958" y="369.36" style="fill: #e31d1d; stroke: #e31d1d"/>
     <use xlink:href="#m31911d6c18" x="169.65544" y="369.36" style="fill: #e31d1d; stroke: #e31d1d"/>
     <use xlink:href="#m31911d6c18" x="178.37347" y="369.36" style="fill: #e31d1d; stroke: #e31d1d"/>
     <use xlink:href="#m31911d6c18" x="188.603257" y="369.36" style="fill: #e31d1d; stroke: #e31d1d"/>
     <use xlink:href="#m31911d6c18" x="198.152199" y="369.36" style="fill: #e31d1d; stroke: #e31d1d"/>
     <use xlink:href="#m31911d6c18" x="207.108786" y="369.36" style="fill: #e31d1d; stroke: #e31d1d"/>
     <use xlink:href="#m31911d6c18" x="215.80112" y="369.36" style="fill: #e31d1d; stroke: #e31d1d"/>
     <use xlink:href="#m31911d6c18" x="225.053497" y="369.36" style="fill: #e31d1d; stroke: #e31d1d"/>
     <use xlink:href="#m31911d6c18" x="233.744186" y="369.36" style="fill: #e31d1d; stroke: #e31d1d"/>
     <use xlink:href="#m31911d6c18" x="242.592543" y="369.36" style="fill: #e31d1d; stroke: #e31d1d"/>
     <use xlink:href="#m31911d6c18" x="251.38204" y="369.36" style="fill: #e31d1d; stroke: #e31d1d"/>
     <use xlink:href="#m31911d6c18" x="260.084132" y="369.36" style="fill: #e31d1d; stroke: #e31d1d"/>
     <use xlink:href="#m31911d6c18" x="269.090163" y="369.36" style="fill: #e31d1d; stroke: #e31d1d"/>
     <use xlink:href="#m31911d6c18" x="277.791059" y="369.36" style="fill: #e31d1d; stroke: #e31d1d"/>
     <use xlink:href="#m31911d6c18" x="286.938566" y="369.36" style="fill: #e31d1d; stroke: #e31d1d"/>
     <use xlink:href="#m31911d6c18" x="295.754856" y="369.36" style="fill: #e31d1d; stroke: #e31d1d"/>
     <use xlink:href="#m31911d6c18" x="304.773829" y="369.36" style="fill: #e31d1d; stroke: #e31d1d"/>
     <use xlink:href="#m31911d6c18" x="313.440232" y="369.36" style="fill: #e31d1d; stroke: #e31d1d"/>
     <use xlink:href="#m31911d6c18" x="322.1765" y="369.36" style="fill: #e31d1d; stroke: #e31d1d"/>
     <use xlink:href="#m31911d6c18" x="330.918756" y="369.36" style="fill: #e31d1d; stroke: #e31d1d"/>
     <use xlink:href="#m31911d6c18" x="340.391696" y="369.36" style="fill: #e31d1d; stroke: #e31d1d"/>
     <use xlink:href="#m31911d6c18" x="349.03009" y="369.36" style="fill: #e31d1d; stroke: #e31d1d"/>
     <use xlink:href="#m31911d6c18" x="357.717363" y="369.36" style="fill: #e31d1d; stroke: #e31d1d"/>
     <use xlink:href="#m31911d6c18" x="366.614428" y="369.36" style="fill: #e31d1d; stroke: #e31d1d"/>
     <use xlink:href="#m31911d6c18" x="375.836251" y="369.36" style="fill: #e31d1d; stroke: #e31d1d"/>
     <use xlink:href="#m31911d6c18" x="384.871325" y="369.36" style="fill: #e31d1d; stroke: #e31d1d"/>
     <use xlink:href="#m31911d6c18" x="393.555869" y="369.36" style="fill: #e31d1d; stroke: #e31d1d"/>
     <use xlink:href="#m31911d6c18" x="402.556407" y="369.36" style="fill: #e31d1d; stroke: #e31d1d"/>
     <use xlink:href="#m31911d6c18" x="411.296627" y="369.36" style="fill: #e31d1d; stroke: #e31d1d"/>
     <use xlink:href="#m31911d6c18" x="420.287715" y="369.36" style="fill: #e31d1d; stroke: #e31d1d"/>
     <use xlink:href="#m31911d6c18" x="429.679452" y="369.36" style="fill: #e31d1d; stroke: #e31d1d"/>
     <use xlink:href="#m31911d6c18" x="438.418815" y="369.36" style="fill: #e31d1d; stroke: #e31d1d"/>
     <use xlink:href="#m31911d6c18" x="447.354818" y="369.36" style="fill: #e31d1d; stroke: #e31d1d"/>
     <use xlink:href="#m31911d6c18" x="456.026092" y="369.36" style="fill: #e31d1d; stroke: #e31d1d"/>
     <use xlink:href="#m31911d6c18" x="465.04395" y="369.36" style="fill: #e31d1d; stroke: #e31d1d"/>
     <use xlink:href="#m31911d6c18" x="473.739317" y="369.36" style="fill: #e31d1d; stroke: #e31d1d"/>
     <use xlink:href="#m31911d6c18" x="482.422299" y="369.36" style="fill: #e31d1d; stroke: #e31d1d"/>
     <use xlink:href="#m31911d6c18" x="491.370045" y="369.36" style="fill: #e31d1d; stroke: #e31d1d"/>
     <use xlink:href="#m31911d6c18" x="500.347706" y="369.36" style="fill: #e31d1d; stroke: #e31d1d"/>
     <use xlink:href="#m31911d6c18" x="509.276159" y="369.36" style="fill: #e31d1d; stroke: #e31d1d"/>
     <use xlink:href="#m31911d6c18" x="517.976134" y="369.36" style="fill: #e31d1d; stroke: #e31d1d"/>
    </g>
   </g>
   <g id="line2d_37">
    <path d="M 72.077487 66.96 
L 76.156773 369.36 
L 80.171471 369.36 
L 84.536679 369.36 
L 89.269227 369.36 
L 94.003834 369.36 
L 98.495498 369.36 
L 102.831477 369.36 
L 107.507884 369.36 
L 111.877017 369.36 
L 116.89494 369.36 
L 121.154735 369.36 
L 125.181991 369.36 
L 129.191512 369.36 
L 133.176991 369.36 
L 137.629045 369.36 
L 142.275613 369.36 
L 146.77592 369.36 
L 151.425875 369.36 
L 155.759451 369.36 
L 160.108575 369.36 
L 165.014651 369.36 
L 169.103555 369.36 
L 173.191912 369.36 
L 177.172922 369.36 
L 181.297144 369.36 
L 185.291965 369.36 
L 190.379587 369.36 
L 196.466481 369.36 
L 203.542061 369.36 
L 208.523977 369.36 
L 212.551316 369.36 
L 216.670795 369.36 
L 220.687162 369.36 
L 225.078012 369.36 
L 229.989325 369.36 
L 234.42968 369.36 
L 239.240013 369.36 
L 244.339687 369.36 
L 249.113203 369.36 
L 254.078228 369.36 
L 258.844527 369.36 
L 263.617016 369.36 
L 268.521265 369.36 
L 272.844461 369.36 
L 277.215464 369.36 
L 281.616239 369.36 
L 286.425104 369.36 
L 290.738572 369.36 
L 294.783872 369.36 
L 302.892237 369.36 
" clip-path="url(#p85d68fdd72)" style="fill: none; stroke-dasharray: 1.5,15; stroke-dashoffset: 0; stroke: #df6f67; stroke-width: 1.5"/>
    <defs>
     <path id="mc02a9f0f78" d="M 0 3 
C 0.795609 3 1.55874 2.683901 2.12132 2.12132 
C 2.683901 1.55874 3 0.795609 3 0 
C 3 -0.795609 2.683901 -1.55874 2.12132 -2.12132 
C 1.55874 -2.683901 0.795609 -3 0 -3 
C -0.795609 -3 -1.55874 -2.683901 -2.12132 -2.12132 
C -2.683901 -1.55874 -3 -0.795609 -3 0 
C -3 0.795609 -2.683901 1.55874 -2.12132 2.12132 
C -1.55874 2.683901 -0.795609 3 0 3 
z
" style="stroke: #df6f67"/>
    </defs>
    <g clip-path="url(#p85d68fdd72)">
     <use xlink:href="#mc02a9f0f78" x="72.077487" y="66.96" style="fill: #df6f67; stroke: #df6f67"/>
     <use xlink:href="#mc02a9f0f78" x="76.156773" y="369.36" style="fill: #df6f67; stroke: #df6f67"/>
     <use xlink:href="#mc02a9f0f78" x="80.171471" y="369.36" style="fill: #df6f67; stroke: #df6f67"/>
     <use xlink:href="#mc02a9f0f78" x="84.536679" y="369.36" style="fill: #df6f67; stroke: #df6f67"/>
     <use xlink:href="#mc02a9f0f78" x="89.269227" y="369.36" style="fill: #df6f67; stroke: #df6f67"/>
     <use xlink:href="#mc02a9f0f78" x="94.003834" y="369.36" style="fill: #df6f67; stroke: #df6f67"/>
     <use xlink:href="#mc02a9f0f78" x="98.495498" y="369.36" style="fill: #df6f67; stroke: #df6f67"/>
     <use xlink:href="#mc02a9f0f78" x="102.831477" y="369.36" style="fill: #df6f67; stroke: #df6f67"/>
     <use xlink:href="#mc02a9f0f78" x="107.507884" y="369.36" style="fill: #df6f67; stroke: #df6f67"/>
     <use xlink:href="#mc02a9f0f78" x="111.877017" y="369.36" style="fill: #df6f67; stroke: #df6f67"/>
     <use xlink:href="#mc02a9f0f78" x="116.89494" y="369.36" style="fill: #df6f67; stroke: #df6f67"/>
     <use xlink:href="#mc02a9f0f78" x="121.154735" y="369.36" style="fill: #df6f67; stroke: #df6f67"/>
     <use xlink:href="#mc02a9f0f78" x="125.181991" y="369.36" style="fill: #df6f67; stroke: #df6f67"/>
     <use xlink:href="#mc02a9f0f78" x="129.191512" y="369.36" style="fill: #df6f67; stroke: #df6f67"/>
     <use xlink:href="#mc02a9f0f78" x="133.176991" y="369.36" style="fill: #df6f67; stroke: #df6f67"/>
     <use xlink:href="#mc02a9f0f78" x="137.629045" y="369.36" style="fill: #df6f67; stroke: #df6f67"/>
     <use xlink:href="#mc02a9f0f78" x="142.275613" y="369.36" style="fill: #df6f67; stroke: #df6f67"/>
     <use xlink:href="#mc02a9f0f78" x="146.77592" y="369.36" style="fill: #df6f67; stroke: #df6f67"/>
     <use xlink:href="#mc02a9f0f78" x="151.425875" y="369.36" style="fill: #df6f67; stroke: #df6f67"/>
     <use xlink:href="#mc02a9f0f78" x="155.759451" y="369.36" style="fill: #df6f67; stroke: #df6f67"/>
     <use xlink:href="#mc02a9f0f78" x="160.108575" y="369.36" style="fill: #df6f67; stroke: #df6f67"/>
     <use xlink:href="#mc02a9f0f78" x="165.014651" y="369.36" style="fill: #df6f67; stroke: #df6f67"/>
     <use xlink:href="#mc02a9f0f78" x="169.103555" y="369.36" style="fill: #df6f67; stroke: #df6f67"/>
     <use xlink:href="#mc02a9f0f78" x="173.191912" y="369.36" style="fill: #df6f67; stroke: #df6f67"/>
     <use xlink:href="#mc02a9f0f78" x="177.172922" y="369.36" style="fill: #df6f67; stroke: #df6f67"/>
     <use xlink:href="#mc02a9f0f78" x="181.297144" y="369.36" style="fill: #df6f67; stroke: #df6f67"/>
     <use xlink:href="#mc02a9f0f78" x="185.291965" y="369.36" style="fill: #df6f67; stroke: #df6f67"/>
     <use xlink:href="#mc02a9f0f78" x="190.379587" y="369.36" style="fill: #df6f67; stroke: #df6f67"/>
     <use xlink:href="#mc02a9f0f78" x="196.466481" y="369.36" style="fill: #df6f67; stroke: #df6f67"/>
     <use xlink:href="#mc02a9f0f78" x="203.542061" y="369.36" style="fill: #df6f67; stroke: #df6f67"/>
     <use xlink:href="#mc02a9f0f78" x="208.523977" y="369.36" style="fill: #df6f67; stroke: #df6f67"/>
     <use xlink:href="#mc02a9f0f78" x="212.551316" y="369.36" style="fill: #df6f67; stroke: #df6f67"/>
     <use xlink:href="#mc02a9f0f78" x="216.670795" y="369.36" style="fill: #df6f67; stroke: #df6f67"/>
     <use xlink:href="#mc02a9f0f78" x="220.687162" y="369.36" style="fill: #df6f67; stroke: #df6f67"/>
     <use xlink:href="#mc02a9f0f78" x="225.078012" y="369.36" style="fill: #df6f67; stroke: #df6f67"/>
     <use xlink:href="#mc02a9f0f78" x="229.989325" y="369.36" style="fill: #df6f67; stroke: #df6f67"/>
     <use xlink:href="#mc02a9f0f78" x="234.42968" y="369.36" style="fill: #df6f67; stroke: #df6f67"/>
     <use xlink:href="#mc02a9f0f78" x="239.240013" y="369.36" style="fill: #df6f67; stroke: #df6f67"/>
     <use xlink:href="#mc02a9f0f78" x="244.339687" y="369.36" style="fill: #df6f67; stroke: #df6f67"/>
     <use xlink:href="#mc02a9f0f78" x="249.113203" y="369.36" style="fill: #df6f67; stroke: #df6f67"/>
     <use xlink:href="#mc02a9f0f78" x="254.078228" y="369.36" style="fill: #df6f67; stroke: #df6f67"/>
     <use xlink:href="#mc02a9f0f78" x="258.844527" y="369.36" style="fill: #df6f67; stroke: #df6f67"/>
     <use xlink:href="#mc02a9f0f78" x="263.617016" y="369.36" style="fill: #df6f67; stroke: #df6f67"/>
     <use xlink:href="#mc02a9f0f78" x="268.521265" y="369.36" style="fill: #df6f67; stroke: #df6f67"/>
     <use xlink:href="#mc02a9f0f78" x="272.844461" y="369.36" style="fill: #df6f67; stroke: #df6f67"/>
     <use xlink:href="#mc02a9f0f78" x="277.215464" y="369.36" style="fill: #df6f67; stroke: #df6f67"/>
     <use xlink:href="#mc02a9f0f78" x="281.616239" y="369.36" style="fill: #df6f67; stroke: #df6f67"/>
     <use xlink:href="#mc02a9f0f78" x="286.425104" y="369.36" style="fill: #df6f67; stroke: #df6f67"/>
     <use xlink:href="#mc02a9f0f78" x="290.738572" y="369.36" style="fill: #df6f67; stroke: #df6f67"/>
     <use xlink:href="#mc02a9f0f78" x="294.783872" y="369.36" style="fill: #df6f67; stroke: #df6f67"/>
     <use xlink:href="#mc02a9f0f78" x="302.892237" y="369.36" style="fill: #df6f67; stroke: #df6f67"/>
    </g>
   </g>
   <g id="line2d_38">
    <path d="M 72.205563 66.96 
L 84.036306 369.36 
L 92.254715 369.36 
L 101.753447 369.36 
L 110.91028 369.36 
L 119.09049 369.36 
L 126.3642 369.36 
L 136.173983 369.36 
L 143.491023 369.36 
L 150.457678 369.36 
L 158.573483 369.36 
L 167.266304 369.36 
L 176.36379 369.36 
L 185.239912 369.36 
L 193.076265 369.36 
L 200.81823 369.36 
L 208.838287 369.36 
L 219.206905 369.36 
L 229.456191 369.36 
L 240.121586 369.36 
L 249.826601 369.36 
L 259.314778 369.36 
L 268.404822 369.36 
L 277.848245 369.36 
L 287.142533 369.36 
L 295.918037 369.36 
L 305.720328 369.36 
L 315.962685 369.36 
L 325.197646 369.36 
L 332.112445 369.36 
L 339.011968 369.36 
L 346.467804 369.36 
L 355.707181 369.36 
L 364.385818 369.36 
L 371.378802 369.36 
L 378.53134 369.36 
L 385.470161 369.36 
L 395.694961 369.36 
L 404.653305 369.36 
L 411.502623 369.36 
L 419.221926 369.36 
L 427.284516 369.36 
L 436.035361 369.36 
L 448.967482 369.36 
L 459.670498 369.36 
L 472.227558 369.36 
L 483.980982 369.36 
L 492.967986 369.36 
L 503.719368 369.36 
L 510.908927 369.36 
" clip-path="url(#p85d68fdd72)" style="fill: none; stroke-dasharray: 7.5,15; stroke-dashoffset: 0; stroke: #dea39f; stroke-width: 1.5"/>
    <defs>
     <path id="m0effd4bce5" d="M 0 3 
C 0.795609 3 1.55874 2.683901 2.12132 2.12132 
C 2.683901 1.55874 3 0.795609 3 0 
C 3 -0.795609 2.683901 -1.55874 2.12132 -2.12132 
C 1.55874 -2.683901 0.795609 -3 0 -3 
C -0.795609 -3 -1.55874 -2.683901 -2.12132 -2.12132 
C -2.683901 -1.55874 -3 -0.795609 -3 0 
C -3 0.795609 -2.683901 1.55874 -2.12132 2.12132 
C -1.55874 2.683901 -0.795609 3 0 3 
z
" style="stroke: #dea39f"/>
    </defs>
    <g clip-path="url(#p85d68fdd72)">
     <use xlink:href="#m0effd4bce5" x="72.205563" y="66.96" style="fill: #dea39f; stroke: #dea39f"/>
     <use xlink:href="#m0effd4bce5" x="84.036306" y="369.36" style="fill: #dea39f; stroke: #dea39f"/>
     <use xlink:href="#m0effd4bce5" x="92.254715" y="369.36" style="fill: #dea39f; stroke: #dea39f"/>
     <use xlink:href="#m0effd4bce5" x="101.753447" y="369.36" style="fill: #dea39f; stroke: #dea39f"/>
     <use xlink:href="#m0effd4bce5" x="110.91028" y="369.36" style="fill: #dea39f; stroke: #dea39f"/>
     <use xlink:href="#m0effd4bce5" x="119.09049" y="369.36" style="fill: #dea39f; stroke: #dea39f"/>
     <use xlink:href="#m0effd4bce5" x="126.3642" y="369.36" style="fill: #dea39f; stroke: #dea39f"/>
     <use xlink:href="#m0effd4bce5" x="136.173983" y="369.36" style="fill: #dea39f; stroke: #dea39f"/>
     <use xlink:href="#m0effd4bce5" x="143.491023" y="369.36" style="fill: #dea39f; stroke: #dea39f"/>
     <use xlink:href="#m0effd4bce5" x="150.457678" y="369.36" style="fill: #dea39f; stroke: #dea39f"/>
     <use xlink:href="#m0effd4bce5" x="158.573483" y="369.36" style="fill: #dea39f; stroke: #dea39f"/>
     <use xlink:href="#m0effd4bce5" x="167.266304" y="369.36" style="fill: #dea39f; stroke: #dea39f"/>
     <use xlink:href="#m0effd4bce5" x="176.36379" y="369.36" style="fill: #dea39f; stroke: #dea39f"/>
     <use xlink:href="#m0effd4bce5" x="185.239912" y="369.36" style="fill: #dea39f; stroke: #dea39f"/>
     <use xlink:href="#m0effd4bce5" x="193.076265" y="369.36" style="fill: #dea39f; stroke: #dea39f"/>
     <use xlink:href="#m0effd4bce5" x="200.81823" y="369.36" style="fill: #dea39f; stroke: #dea39f"/>
     <use xlink:href="#m0effd4bce5" x="208.838287" y="369.36" style="fill: #dea39f; stroke: #dea39f"/>
     <use xlink:href="#m0effd4bce5" x="219.206905" y="369.36" style="fill: #dea39f; stroke: #dea39f"/>
     <use xlink:href="#m0effd4bce5" x="229.456191" y="369.36" style="fill: #dea39f; stroke: #dea39f"/>
     <use xlink:href="#m0effd4bce5" x="240.121586" y="369.36" style="fill: #dea39f; stroke: #dea39f"/>
     <use xlink:href="#m0effd4bce5" x="249.826601" y="369.36" style="fill: #dea39f; stroke: #dea39f"/>
     <use xlink:href="#m0effd4bce5" x="259.314778" y="369.36" style="fill: #dea39f; stroke: #dea39f"/>
     <use xlink:href="#m0effd4bce5" x="268.404822" y="369.36" style="fill: #dea39f; stroke: #dea39f"/>
     <use xlink:href="#m0effd4bce5" x="277.848245" y="369.36" style="fill: #dea39f; stroke: #dea39f"/>
     <use xlink:href="#m0effd4bce5" x="287.142533" y="369.36" style="fill: #dea39f; stroke: #dea39f"/>
     <use xlink:href="#m0effd4bce5" x="295.918037" y="369.36" style="fill: #dea39f; stroke: #dea39f"/>
     <use xlink:href="#m0effd4bce5" x="305.720328" y="369.36" style="fill: #dea39f; stroke: #dea39f"/>
     <use xlink:href="#m0effd4bce5" x="315.962685" y="369.36" style="fill: #dea39f; stroke: #dea39f"/>
     <use xlink:href="#m0effd4bce5" x="325.197646" y="369.36" style="fill: #dea39f; stroke: #dea39f"/>
     <use xlink:href="#m0effd4bce5" x="332.112445" y="369.36" style="fill: #dea39f; stroke: #dea39f"/>
     <use xlink:href="#m0effd4bce5" x="339.011968" y="369.36" style="fill: #dea39f; stroke: #dea39f"/>
     <use xlink:href="#m0effd4bce5" x="346.467804" y="369.36" style="fill: #dea39f; stroke: #dea39f"/>
     <use xlink:href="#m0effd4bce5" x="355.707181" y="369.36" style="fill: #dea39f; stroke: #dea39f"/>
     <use xlink:href="#m0effd4bce5" x="364.385818" y="369.36" style="fill: #dea39f; stroke: #dea39f"/>
     <use xlink:href="#m0effd4bce5" x="371.378802" y="369.36" style="fill: #dea39f; stroke: #dea39f"/>
     <use xlink:href="#m0effd4bce5" x="378.53134" y="369.36" style="fill: #dea39f; stroke: #dea39f"/>
     <use xlink:href="#m0effd4bce5" x="385.470161" y="369.36" style="fill: #dea39f; stroke: #dea39f"/>
     <use xlink:href="#m0effd4bce5" x="395.694961" y="369.36" style="fill: #dea39f; stroke: #dea39f"/>
     <use xlink:href="#m0effd4bce5" x="404.653305" y="369.36" style="fill: #dea39f; stroke: #dea39f"/>
     <use xlink:href="#m0effd4bce5" x="411.502623" y="369.36" style="fill: #dea39f; stroke: #dea39f"/>
     <use xlink:href="#m0effd4bce5" x="419.221926" y="369.36" style="fill: #dea39f; stroke: #dea39f"/>
     <use xlink:href="#m0effd4bce5" x="427.284516" y="369.36" style="fill: #dea39f; stroke: #dea39f"/>
     <use xlink:href="#m0effd4bce5" x="436.035361" y="369.36" style="fill: #dea39f; stroke: #dea39f"/>
     <use xlink:href="#m0effd4bce5" x="448.967482" y="369.36" style="fill: #dea39f; stroke: #dea39f"/>
     <use xlink:href="#m0effd4bce5" x="459.670498" y="369.36" style="fill: #dea39f; stroke: #dea39f"/>
     <use xlink:href="#m0effd4bce5" x="472.227558" y="369.36" style="fill: #dea39f; stroke: #dea39f"/>
     <use xlink:href="#m0effd4bce5" x="483.980982" y="369.36" style="fill: #dea39f; stroke: #dea39f"/>
     <use xlink:href="#m0effd4bce5" x="492.967986" y="369.36" style="fill: #dea39f; stroke: #dea39f"/>
     <use xlink:href="#m0effd4bce5" x="503.719368" y="369.36" style="fill: #dea39f; stroke: #dea39f"/>
     <use xlink:href="#m0effd4bce5" x="510.908927" y="369.36" style="fill: #dea39f; stroke: #dea39f"/>
    </g>
   </g>
   <g id="line2d_39">
    <path d="M 100.650956 291.440945 
L 128.996765 291.153421 
L 159.618167 291.153421 
L 191.286955 291.153421 
L 220.15339 291.153421 
L 249.496002 291.153421 
L 277.899618 291.153421 
L 306.230939 291.153421 
L 335.770457 224.261427 
L 364.664221 224.261427 
L 393.369607 224.261427 
L 422.020263 224.261427 
L 462.474408 224.261427 
L 494.676641 224.261427 
L 529.075038 224.261427 
" clip-path="url(#p85d68fdd72)" style="fill: none; stroke: #1c24dc; stroke-width: 1.5; stroke-linecap: square"/>
    <defs>
     <path id="m2f87da1e6a" d="M 0 -5 
L -1.12257 -1.545085 
L -4.755283 -1.545085 
L -1.816356 0.59017 
L -2.938926 4.045085 
L -0 1.90983 
L 2.938926 4.045085 
L 1.816356 0.59017 
L 4.755283 -1.545085 
L 1.12257 -1.545085 
z
" style="stroke: #1c24dc; stroke-linejoin: bevel"/>
    </defs>
    <g clip-path="url(#p85d68fdd72)">
     <use xlink:href="#m2f87da1e6a" x="100.650956" y="291.440945" style="fill: #1c24dc; stroke: #1c24dc; stroke-linejoin: bevel"/>
     <use xlink:href="#m2f87da1e6a" x="128.996765" y="291.153421" style="fill: #1c24dc; stroke: #1c24dc; stroke-linejoin: bevel"/>
     <use xlink:href="#m2f87da1e6a" x="159.618167" y="291.153421" style="fill: #1c24dc; stroke: #1c24dc; stroke-linejoin: bevel"/>
     <use xlink:href="#m2f87da1e6a" x="191.286955" y="291.153421" style="fill: #1c24dc; stroke: #1c24dc; stroke-linejoin: bevel"/>
     <use xlink:href="#m2f87da1e6a" x="220.15339" y="291.153421" style="fill: #1c24dc; stroke: #1c24dc; stroke-linejoin: bevel"/>
     <use xlink:href="#m2f87da1e6a" x="249.496002" y="291.153421" style="fill: #1c24dc; stroke: #1c24dc; stroke-linejoin: bevel"/>
     <use xlink:href="#m2f87da1e6a" x="277.899618" y="291.153421" style="fill: #1c24dc; stroke: #1c24dc; stroke-linejoin: bevel"/>
     <use xlink:href="#m2f87da1e6a" x="306.230939" y="291.153421" style="fill: #1c24dc; stroke: #1c24dc; stroke-linejoin: bevel"/>
     <use xlink:href="#m2f87da1e6a" x="335.770457" y="224.261427" style="fill: #1c24dc; stroke: #1c24dc; stroke-linejoin: bevel"/>
     <use xlink:href="#m2f87da1e6a" x="364.664221" y="224.261427" style="fill: #1c24dc; stroke: #1c24dc; stroke-linejoin: bevel"/>
     <use xlink:href="#m2f87da1e6a" x="393.369607" y="224.261427" style="fill: #1c24dc; stroke: #1c24dc; stroke-linejoin: bevel"/>
     <use xlink:href="#m2f87da1e6a" x="422.020263" y="224.261427" style="fill: #1c24dc; stroke: #1c24dc; stroke-linejoin: bevel"/>
     <use xlink:href="#m2f87da1e6a" x="462.474408" y="224.261427" style="fill: #1c24dc; stroke: #1c24dc; stroke-linejoin: bevel"/>
     <use xlink:href="#m2f87da1e6a" x="494.676641" y="224.261427" style="fill: #1c24dc; stroke: #1c24dc; stroke-linejoin: bevel"/>
     <use xlink:href="#m2f87da1e6a" x="529.075038" y="224.261427" style="fill: #1c24dc; stroke: #1c24dc; stroke-linejoin: bevel"/>
    </g>
   </g>
   <g id="line2d_40">
    <path clip-path="url(#p85d68fdd72)" style="fill: none; stroke-dasharray: 1.5,15; stroke-dashoffset: 0; stroke: #595fdc; stroke-width: 1.5"/>
    <defs>
     <path id="m1ab965cde4" d="M 0 -3 
L -0.673542 -0.927051 
L -2.85317 -0.927051 
L -1.089814 0.354102 
L -1.763356 2.427051 
L -0 1.145898 
L 1.763356 2.427051 
L 1.089814 0.354102 
L 2.85317 -0.927051 
L 0.673542 -0.927051 
z
" style="stroke: #595fdc; stroke-linejoin: bevel"/>
    </defs>
    <g clip-path="url(#p85d68fdd72)">
     <use xlink:href="#m1ab965cde4" x="32236.712124" y="291.440945" style="fill: #595fdc; stroke: #595fdc; stroke-linejoin: bevel"/>
    </g>
   </g>
   <g id="line2d_41">
    <path d="M 107.388241 291.440945 
L 140.554766 291.153421 
L 173.172991 291.153421 
L 207.10682 291.153421 
L 251.201179 291.153421 
L 290.135711 291.153421 
L 327.46502 291.153421 
L 363.477248 291.153421 
L 401.568842 224.261427 
L 434.466556 224.261427 
L 467.193486 224.261427 
L 504.973297 224.261427 
L 543.07935 224.261427 
" clip-path="url(#p85d68fdd72)" style="fill: none; stroke-dasharray: 7.5,15; stroke-dashoffset: 0; stroke: #9598dc; stroke-width: 1.5"/>
    <defs>
     <path id="m09674c029d" d="M 0 -3 
L -0.673542 -0.927051 
L -2.85317 -0.927051 
L -1.089814 0.354102 
L -1.763356 2.427051 
L -0 1.145898 
L 1.763356 2.427051 
L 1.089814 0.354102 
L 2.85317 -0.927051 
L 0.673542 -0.927051 
z
" style="stroke: #9598dc; stroke-linejoin: bevel"/>
    </defs>
    <g clip-path="url(#p85d68fdd72)">
     <use xlink:href="#m09674c029d" x="107.388241" y="291.440945" style="fill: #9598dc; stroke: #9598dc; stroke-linejoin: bevel"/>
     <use xlink:href="#m09674c029d" x="140.554766" y="291.153421" style="fill: #9598dc; stroke: #9598dc; stroke-linejoin: bevel"/>
     <use xlink:href="#m09674c029d" x="173.172991" y="291.153421" style="fill: #9598dc; stroke: #9598dc; stroke-linejoin: bevel"/>
     <use xlink:href="#m09674c029d" x="207.10682" y="291.153421" style="fill: #9598dc; stroke: #9598dc; stroke-linejoin: bevel"/>
     <use xlink:href="#m09674c029d" x="251.201179" y="291.153421" style="fill: #9598dc; stroke: #9598dc; stroke-linejoin: bevel"/>
     <use xlink:href="#m09674c029d" x="290.135711" y="291.153421" style="fill: #9598dc; stroke: #9598dc; stroke-linejoin: bevel"/>
     <use xlink:href="#m09674c029d" x="327.46502" y="291.153421" style="fill: #9598dc; stroke: #9598dc; stroke-linejoin: bevel"/>
     <use xlink:href="#m09674c029d" x="363.477248" y="291.153421" style="fill: #9598dc; stroke: #9598dc; stroke-linejoin: bevel"/>
     <use xlink:href="#m09674c029d" x="401.568842" y="224.261427" style="fill: #9598dc; stroke: #9598dc; stroke-linejoin: bevel"/>
     <use xlink:href="#m09674c029d" x="434.466556" y="224.261427" style="fill: #9598dc; stroke: #9598dc; stroke-linejoin: bevel"/>
     <use xlink:href="#m09674c029d" x="467.193486" y="224.261427" style="fill: #9598dc; stroke: #9598dc; stroke-linejoin: bevel"/>
     <use xlink:href="#m09674c029d" x="504.973297" y="224.261427" style="fill: #9598dc; stroke: #9598dc; stroke-linejoin: bevel"/>
     <use xlink:href="#m09674c029d" x="543.07935" y="224.261427" style="fill: #9598dc; stroke: #9598dc; stroke-linejoin: bevel"/>
    </g>
   </g>
   <g id="patch_3">
    <path d="M 72 384.48 
L 72 51.84 
" style="fill: none; stroke: #000000; stroke-width: 0.8; stroke-linejoin: miter; stroke-linecap: square"/>
   </g>
   <g id="patch_4">
    <path d="M 518.4 384.48 
L 518.4 51.84 
" style="fill: none; stroke: #000000; stroke-width: 0.8; stroke-linejoin: miter; stroke-linecap: square"/>
   </g>
   <g id="patch_5">
    <path d="M 72 384.48 
L 518.4 384.48 
" style="fill: none; stroke: #000000; stroke-width: 0.8; stroke-linejoin: miter; stroke-linecap: square"/>
   </g>
   <g id="patch_6">
    <path d="M 72 51.84 
L 518.4 51.84 
" style="fill: none; stroke: #000000; stroke-width: 0.8; stroke-linejoin: miter; stroke-linecap: square"/>
   </g>
   <g id="legend_1">
    <g id="patch_7">
     <path d="M 421.1 229.44 
L 511.4 229.44 
Q 513.4 229.44 513.4 227.44 
L 513.4 58.84 
Q 513.4 56.84 511.4 56.84 
L 421.1 56.84 
Q 419.1 56.84 419.1 58.84 
L 419.1 227.44 
Q 419.1 229.44 421.1 229.44 
z
" style="fill: #ffffff; opacity: 0.8; stroke: #cccccc; stroke-linejoin: miter"/>
    </g>
    <g id="line2d_42">
     <path d="M 423.1 66.44 
L 433.1 66.44 
L 443.1 66.44 
" style="fill: none; stroke: #36ff33; stroke-width: 1.5; stroke-linecap: square"/>
     <g>
      <use xlink:href="#m9fa2abf2a9" x="433.1" y="66.44" style="fill: #36ff33; stroke: #36ff33; stroke-linejoin: miter"/>
     </g>
    </g>
    <g id="text_17">
     <!-- $MPS(\mathbf{x}^0_{max})$ -->
     <g transform="translate(451.1 69.94) scale(0.1 -0.1)">
      <defs>
       <path id="DejaVuSans-Oblique-4d" d="M 1081 4666 
L 2028 4666 
L 2572 1522 
L 4378 4666 
L 5350 4666 
L 4441 0 
L 3828 0 
L 4622 4091 
L 2791 897 
L 2175 897 
L 1581 4103 
L 788 0 
L 172 0 
L 1081 4666 
z
" transform="scale(0.015625)"/>
       <path id="DejaVuSans-Oblique-50" d="M 1081 4666 
L 2541 4666 
Q 3178 4666 3512 4369 
Q 3847 4072 3847 3500 
Q 3847 2731 3353 2303 
Q 2859 1875 1966 1875 
L 1172 1875 
L 806 0 
L 172 0 
L 1081 4666 
z
M 1613 4147 
L 1275 2394 
L 2069 2394 
Q 2606 2394 2893 2669 
Q 3181 2944 3181 3456 
Q 3181 3784 2986 3965 
Q 2791 4147 2438 4147 
L 1613 4147 
z
" transform="scale(0.015625)"/>
       <path id="DejaVuSans-Oblique-53" d="M 3859 4513 
L 3738 3897 
Q 3422 4066 3111 4152 
Q 2800 4238 2509 4238 
Q 1944 4238 1609 3991 
Q 1275 3744 1275 3334 
Q 1275 3109 1398 2989 
Q 1522 2869 2034 2731 
L 2413 2638 
Q 3053 2472 3303 2217 
Q 3553 1963 3553 1503 
Q 3553 797 2998 353 
Q 2444 -91 1538 -91 
Q 1166 -91 791 -17 
Q 416 56 38 206 
L 166 856 
Q 513 641 861 531 
Q 1209 422 1556 422 
Q 2147 422 2503 684 
Q 2859 947 2859 1369 
Q 2859 1650 2717 1795 
Q 2575 1941 2106 2059 
L 1728 2156 
Q 1081 2325 845 2545 
Q 609 2766 609 3163 
Q 609 3859 1145 4304 
Q 1681 4750 2541 4750 
Q 2875 4750 3203 4690 
Q 3531 4631 3859 4513 
z
" transform="scale(0.015625)"/>
       <path id="DejaVuSans-28" d="M 1984 4856 
Q 1566 4138 1362 3434 
Q 1159 2731 1159 2009 
Q 1159 1288 1364 580 
Q 1569 -128 1984 -844 
L 1484 -844 
Q 1016 -109 783 600 
Q 550 1309 550 2009 
Q 550 2706 781 3412 
Q 1013 4119 1484 4856 
L 1984 4856 
z
" transform="scale(0.015625)"/>
       <path id="DejaVuSans-Bold-78" d="M 1422 1791 
L 159 3500 
L 1344 3500 
L 2059 2463 
L 2784 3500 
L 3969 3500 
L 2706 1797 
L 4031 0 
L 2847 0 
L 2059 1106 
L 1281 0 
L 97 0 
L 1422 1791 
z
" transform="scale(0.015625)"/>
       <path id="DejaVuSans-Oblique-6d" d="M 5747 2113 
L 5338 0 
L 4763 0 
L 5166 2094 
Q 5191 2228 5203 2325 
Q 5216 2422 5216 2491 
Q 5216 2772 5059 2928 
Q 4903 3084 4622 3084 
Q 4203 3084 3875 2770 
Q 3547 2456 3450 1953 
L 3066 0 
L 2491 0 
L 2900 2094 
Q 2925 2209 2937 2307 
Q 2950 2406 2950 2484 
Q 2950 2769 2794 2926 
Q 2638 3084 2363 3084 
Q 1938 3084 1609 2770 
Q 1281 2456 1184 1953 
L 800 0 
L 225 0 
L 909 3500 
L 1484 3500 
L 1375 2956 
Q 1609 3263 1923 3423 
Q 2238 3584 2597 3584 
Q 2978 3584 3223 3384 
Q 3469 3184 3519 2828 
Q 3781 3197 4126 3390 
Q 4472 3584 4856 3584 
Q 5306 3584 5551 3325 
Q 5797 3066 5797 2591 
Q 5797 2488 5784 2364 
Q 5772 2241 5747 2113 
z
" transform="scale(0.015625)"/>
       <path id="DejaVuSans-Oblique-61" d="M 3438 1997 
L 3047 0 
L 2472 0 
L 2578 531 
Q 2325 219 2001 64 
Q 1678 -91 1281 -91 
Q 834 -91 548 182 
Q 263 456 263 884 
Q 263 1497 752 1853 
Q 1241 2209 2100 2209 
L 2900 2209 
L 2931 2363 
Q 2938 2388 2941 2417 
Q 2944 2447 2944 2509 
Q 2944 2788 2717 2942 
Q 2491 3097 2081 3097 
Q 1800 3097 1504 3025 
Q 1209 2953 897 2809 
L 997 3341 
Q 1322 3463 1633 3523 
Q 1944 3584 2234 3584 
Q 2853 3584 3176 3315 
Q 3500 3047 3500 2534 
Q 3500 2431 3484 2292 
Q 3469 2153 3438 1997 
z
M 2816 1759 
L 2241 1759 
Q 1534 1759 1195 1570 
Q 856 1381 856 984 
Q 856 709 1029 553 
Q 1203 397 1509 397 
Q 1978 397 2328 733 
Q 2678 1069 2791 1631 
L 2816 1759 
z
" transform="scale(0.015625)"/>
       <path id="DejaVuSans-Oblique-78" d="M 3841 3500 
L 2234 1784 
L 3219 0 
L 2559 0 
L 1819 1388 
L 531 0 
L -166 0 
L 1556 1844 
L 641 3500 
L 1300 3500 
L 1972 2234 
L 3144 3500 
L 3841 3500 
z
" transform="scale(0.015625)"/>
       <path id="DejaVuSans-29" d="M 513 4856 
L 1013 4856 
Q 1481 4119 1714 3412 
Q 1947 2706 1947 2009 
Q 1947 1309 1714 600 
Q 1481 -109 1013 -844 
L 513 -844 
Q 928 -128 1133 580 
Q 1338 1288 1338 2009 
Q 1338 2731 1133 3434 
Q 928 4138 513 4856 
z
" transform="scale(0.015625)"/>
      </defs>
      <use xlink:href="#DejaVuSans-Oblique-4d" transform="translate(0 0.765625)"/>
      <use xlink:href="#DejaVuSans-Oblique-50" transform="translate(86.279297 0.765625)"/>
      <use xlink:href="#DejaVuSans-Oblique-53" transform="translate(146.582031 0.765625)"/>
      <use xlink:href="#DejaVuSans-28" transform="translate(210.058594 0.765625)"/>
      <use xlink:href="#DejaVuSans-Bold-78" transform="translate(249.072266 0.765625)"/>
      <use xlink:href="#DejaVuSans-30" transform="translate(314.53125 39.046875) scale(0.7)"/>
      <use xlink:href="#DejaVuSans-Oblique-6d" transform="translate(314.53125 -26.578125) scale(0.7)"/>
      <use xlink:href="#DejaVuSans-Oblique-61" transform="translate(382.719727 -26.578125) scale(0.7)"/>
      <use xlink:href="#DejaVuSans-Oblique-78" transform="translate(425.615234 -26.578125) scale(0.7)"/>
      <use xlink:href="#DejaVuSans-29" transform="translate(469.775391 0.765625)"/>
     </g>
    </g>
    <g id="line2d_43">
     <path d="M 423.1 83.44 
L 433.1 83.44 
L 443.1 83.44 
" style="fill: none; stroke: #b6c800; stroke-width: 1.5; stroke-linecap: square"/>
     <g>
      <use xlink:href="#m94a5409c84" x="433.1" y="83.44" style="fill: #b6c800; stroke: #b6c800; stroke-linejoin: miter"/>
     </g>
    </g>
    <g id="text_18">
     <!-- $PM_{C\searrow}(\mathbf{x}^0_{max})$ -->
     <g transform="translate(451.1 86.94) scale(0.1 -0.1)">
      <defs>
       <path id="DejaVuSans-Oblique-43" d="M 4447 4306 
L 4319 3641 
Q 4019 3944 3683 4091 
Q 3347 4238 2956 4238 
Q 2422 4238 2017 3981 
Q 1613 3725 1319 3200 
Q 1131 2863 1032 2486 
Q 934 2109 934 1728 
Q 934 1091 1264 756 
Q 1594 422 2222 422 
Q 2656 422 3056 561 
Q 3456 700 3834 978 
L 3688 231 
Q 3316 72 2936 -9 
Q 2556 -91 2175 -91 
Q 1278 -91 773 396 
Q 269 884 269 1753 
Q 269 2309 461 2846 
Q 653 3384 1013 3828 
Q 1394 4300 1883 4525 
Q 2372 4750 3022 4750 
Q 3422 4750 3780 4639 
Q 4138 4528 4447 4306 
z
" transform="scale(0.015625)"/>
       <path id="DejaVuSans-2198" d="M 4497 359 
L 4300 163 
L 2563 163 
L 2563 691 
L 3594 691 
L 900 3384 
L 1275 3759 
L 3969 1066 
L 3969 2097 
L 4497 2097 
L 4497 359 
z
" transform="scale(0.015625)"/>
      </defs>
      <use xlink:href="#DejaVuSans-Oblique-50" transform="translate(0 0.765625)"/>
      <use xlink:href="#DejaVuSans-Oblique-4d" transform="translate(60.302734 0.765625)"/>
      <use xlink:href="#DejaVuSans-Oblique-43" transform="translate(146.582031 -15.640625) scale(0.7)"/>
      <use xlink:href="#DejaVuSans-2198" transform="translate(209.09668 -15.640625) scale(0.7)"/>
      <use xlink:href="#DejaVuSans-28" transform="translate(284.121094 0.765625)"/>
      <use xlink:href="#DejaVuSans-Bold-78" transform="translate(323.134766 0.765625)"/>
      <use xlink:href="#DejaVuSans-30" transform="translate(388.59375 39.046875) scale(0.7)"/>
      <use xlink:href="#DejaVuSans-Oblique-6d" transform="translate(388.59375 -26.578125) scale(0.7)"/>
      <use xlink:href="#DejaVuSans-Oblique-61" transform="translate(456.782227 -26.578125) scale(0.7)"/>
      <use xlink:href="#DejaVuSans-Oblique-78" transform="translate(499.677734 -26.578125) scale(0.7)"/>
      <use xlink:href="#DejaVuSans-29" transform="translate(543.837891 0.765625)"/>
     </g>
    </g>
    <g id="line2d_44">
     <path d="M 423.1 100.44 
L 433.1 100.44 
L 443.1 100.44 
" style="fill: none; stroke: #f119c3; stroke-width: 1.5; stroke-linecap: square"/>
     <g>
      <use xlink:href="#me09234d300" x="433.1" y="100.44" style="fill: #f119c3; stroke: #f119c3; stroke-linejoin: miter"/>
     </g>
    </g>
    <g id="text_19">
     <!-- $PM_{C\nearrow}(\mathbf{x}^0_{max})$ -->
     <g transform="translate(451.1 103.94) scale(0.1 -0.1)">
      <defs>
       <path id="DejaVuSans-2197" d="M 4300 3759 
L 4497 3563 
L 4497 1825 
L 3969 1825 
L 3969 2856 
L 1275 163 
L 900 538 
L 3594 3231 
L 2563 3231 
L 2563 3759 
L 4300 3759 
z
" transform="scale(0.015625)"/>
      </defs>
      <use xlink:href="#DejaVuSans-Oblique-50" transform="translate(0 0.765625)"/>
      <use xlink:href="#DejaVuSans-Oblique-4d" transform="translate(60.302734 0.765625)"/>
      <use xlink:href="#DejaVuSans-Oblique-43" transform="translate(146.582031 -15.640625) scale(0.7)"/>
      <use xlink:href="#DejaVuSans-2197" transform="translate(209.09668 -15.640625) scale(0.7)"/>
      <use xlink:href="#DejaVuSans-28" transform="translate(284.121094 0.765625)"/>
      <use xlink:href="#DejaVuSans-Bold-78" transform="translate(323.134766 0.765625)"/>
      <use xlink:href="#DejaVuSans-30" transform="translate(388.59375 39.046875) scale(0.7)"/>
      <use xlink:href="#DejaVuSans-Oblique-6d" transform="translate(388.59375 -26.578125) scale(0.7)"/>
      <use xlink:href="#DejaVuSans-Oblique-61" transform="translate(456.782227 -26.578125) scale(0.7)"/>
      <use xlink:href="#DejaVuSans-Oblique-78" transform="translate(499.677734 -26.578125) scale(0.7)"/>
      <use xlink:href="#DejaVuSans-29" transform="translate(543.837891 0.765625)"/>
     </g>
    </g>
    <g id="line2d_45">
     <path d="M 423.1 117.44 
L 433.1 117.44 
L 443.1 117.44 
" style="fill: none; stroke: #0d5915; stroke-width: 1.5; stroke-linecap: square"/>
     <g>
      <use xlink:href="#m4828d20285" x="433.1" y="117.44" style="fill: #0d5915; stroke: #0d5915"/>
     </g>
    </g>
    <g id="text_20">
     <!-- $IPDD(\mathbf{x}^0_{max})$ -->
     <g transform="translate(451.1 120.94) scale(0.1 -0.1)">
      <defs>
       <path id="DejaVuSans-Oblique-49" d="M 1081 4666 
L 1716 4666 
L 806 0 
L 172 0 
L 1081 4666 
z
" transform="scale(0.015625)"/>
       <path id="DejaVuSans-Oblique-44" d="M 1081 4666 
L 2438 4666 
Q 3519 4666 4070 4208 
Q 4622 3750 4622 2847 
Q 4622 2250 4412 1698 
Q 4203 1147 3834 769 
Q 3463 381 2891 190 
Q 2319 0 1538 0 
L 172 0 
L 1081 4666 
z
M 1613 4147 
L 909 519 
L 1734 519 
Q 2794 519 3375 1128 
Q 3956 1738 3956 2847 
Q 3956 3519 3581 3833 
Q 3206 4147 2406 4147 
L 1613 4147 
z
" transform="scale(0.015625)"/>
      </defs>
      <use xlink:href="#DejaVuSans-Oblique-49" transform="translate(0 0.765625)"/>
      <use xlink:href="#DejaVuSans-Oblique-50" transform="translate(29.492188 0.765625)"/>
      <use xlink:href="#DejaVuSans-Oblique-44" transform="translate(89.794922 0.765625)"/>
      <use xlink:href="#DejaVuSans-Oblique-44" transform="translate(166.796875 0.765625)"/>
      <use xlink:href="#DejaVuSans-28" transform="translate(243.798828 0.765625)"/>
      <use xlink:href="#DejaVuSans-Bold-78" transform="translate(282.8125 0.765625)"/>
      <use xlink:href="#DejaVuSans-30" transform="translate(348.271484 39.046875) scale(0.7)"/>
      <use xlink:href="#DejaVuSans-Oblique-6d" transform="translate(348.271484 -26.578125) scale(0.7)"/>
      <use xlink:href="#DejaVuSans-Oblique-61" transform="translate(416.459961 -26.578125) scale(0.7)"/>
      <use xlink:href="#DejaVuSans-Oblique-78" transform="translate(459.355469 -26.578125) scale(0.7)"/>
      <use xlink:href="#DejaVuSans-29" transform="translate(503.515625 0.765625)"/>
     </g>
    </g>
    <g id="line2d_46">
     <path d="M 423.1 134.44 
L 433.1 134.44 
L 443.1 134.44 
" style="fill: none; stroke: #e31d1d; stroke-width: 1.5; stroke-linecap: square"/>
     <g>
      <use xlink:href="#m31911d6c18" x="433.1" y="134.44" style="fill: #e31d1d; stroke: #e31d1d"/>
     </g>
    </g>
    <g id="text_21">
     <!-- $GDPA(\mathbf{x}^0_{max})$ -->
     <g transform="translate(451.1 137.94) scale(0.1 -0.1)">
      <defs>
       <path id="DejaVuSans-Oblique-47" d="M 3494 697 
L 3738 1919 
L 2700 1919 
L 2797 2438 
L 4453 2438 
L 4050 384 
Q 3634 156 3143 32 
Q 2653 -91 2156 -91 
Q 1278 -91 783 396 
Q 288 884 288 1753 
Q 288 2475 589 3126 
Q 891 3778 1422 4213 
Q 1756 4484 2153 4617 
Q 2550 4750 3034 4750 
Q 3472 4750 3873 4639 
Q 4275 4528 4641 4306 
L 4513 3634 
Q 4231 3928 3853 4083 
Q 3475 4238 3047 4238 
Q 2550 4238 2172 4048 
Q 1794 3859 1497 3463 
Q 1244 3125 1098 2667 
Q 953 2209 953 1734 
Q 953 1081 1287 751 
Q 1622 422 2284 422 
Q 2616 422 2925 492 
Q 3234 563 3494 697 
z
" transform="scale(0.015625)"/>
       <path id="DejaVuSans-Oblique-41" d="M 2356 4666 
L 3072 4666 
L 3938 0 
L 3278 0 
L 3084 1197 
L 984 1197 
L 325 0 
L -341 0 
L 2356 4666 
z
M 2584 4044 
L 1275 1722 
L 2988 1722 
L 2584 4044 
z
" transform="scale(0.015625)"/>
      </defs>
      <use xlink:href="#DejaVuSans-Oblique-47" transform="translate(0 0.765625)"/>
      <use xlink:href="#DejaVuSans-Oblique-44" transform="translate(77.490234 0.765625)"/>
      <use xlink:href="#DejaVuSans-Oblique-50" transform="translate(154.492188 0.765625)"/>
      <use xlink:href="#DejaVuSans-Oblique-41" transform="translate(214.794922 0.765625)"/>
      <use xlink:href="#DejaVuSans-28" transform="translate(283.203125 0.765625)"/>
      <use xlink:href="#DejaVuSans-Bold-78" transform="translate(322.216797 0.765625)"/>
      <use xlink:href="#DejaVuSans-30" transform="translate(387.675781 39.046875) scale(0.7)"/>
      <use xlink:href="#DejaVuSans-Oblique-6d" transform="translate(387.675781 -26.578125) scale(0.7)"/>
      <use xlink:href="#DejaVuSans-Oblique-61" transform="translate(455.864258 -26.578125) scale(0.7)"/>
      <use xlink:href="#DejaVuSans-Oblique-78" transform="translate(498.759766 -26.578125) scale(0.7)"/>
      <use xlink:href="#DejaVuSans-29" transform="translate(542.919922 0.765625)"/>
     </g>
    </g>
    <g id="line2d_47">
     <path d="M 423.1 151.44 
L 433.1 151.44 
L 443.1 151.44 
" style="fill: none; stroke-dasharray: 1.5,15; stroke-dashoffset: 0; stroke: #df6f67; stroke-width: 1.5"/>
     <g>
      <use xlink:href="#mc02a9f0f78" x="433.1" y="151.44" style="fill: #df6f67; stroke: #df6f67"/>
     </g>
    </g>
    <g id="text_22">
     <!-- $GDPA(\mathbf{x}^0_1)$ -->
     <g transform="translate(451.1 154.94) scale(0.1 -0.1)">
      <use xlink:href="#DejaVuSans-Oblique-47" transform="translate(0 0.765625)"/>
      <use xlink:href="#DejaVuSans-Oblique-44" transform="translate(77.490234 0.765625)"/>
      <use xlink:href="#DejaVuSans-Oblique-50" transform="translate(154.492188 0.765625)"/>
      <use xlink:href="#DejaVuSans-Oblique-41" transform="translate(214.794922 0.765625)"/>
      <use xlink:href="#DejaVuSans-28" transform="translate(283.203125 0.765625)"/>
      <use xlink:href="#DejaVuSans-Bold-78" transform="translate(322.216797 0.765625)"/>
      <use xlink:href="#DejaVuSans-30" transform="translate(387.675781 39.046875) scale(0.7)"/>
      <use xlink:href="#DejaVuSans-31" transform="translate(387.675781 -26.578125) scale(0.7)"/>
      <use xlink:href="#DejaVuSans-29" transform="translate(434.946289 0.765625)"/>
     </g>
    </g>
    <g id="line2d_48">
     <path d="M 423.1 168.34 
L 433.1 168.34 
L 443.1 168.34 
" style="fill: none; stroke-dasharray: 7.5,15; stroke-dashoffset: 0; stroke: #dea39f; stroke-width: 1.5"/>
     <g>
      <use xlink:href="#m0effd4bce5" x="433.1" y="168.34" style="fill: #dea39f; stroke: #dea39f"/>
     </g>
    </g>
    <g id="text_23">
     <!-- $GDPA(\mathbf{x}^0_2)$ -->
     <g transform="translate(451.1 171.84) scale(0.1 -0.1)">
      <use xlink:href="#DejaVuSans-Oblique-47" transform="translate(0 0.765625)"/>
      <use xlink:href="#DejaVuSans-Oblique-44" transform="translate(77.490234 0.765625)"/>
      <use xlink:href="#DejaVuSans-Oblique-50" transform="translate(154.492188 0.765625)"/>
      <use xlink:href="#DejaVuSans-Oblique-41" transform="translate(214.794922 0.765625)"/>
      <use xlink:href="#DejaVuSans-28" transform="translate(283.203125 0.765625)"/>
      <use xlink:href="#DejaVuSans-Bold-78" transform="translate(322.216797 0.765625)"/>
      <use xlink:href="#DejaVuSans-30" transform="translate(387.675781 39.046875) scale(0.7)"/>
      <use xlink:href="#DejaVuSans-32" transform="translate(387.675781 -26.578125) scale(0.7)"/>
      <use xlink:href="#DejaVuSans-29" transform="translate(434.946289 0.765625)"/>
     </g>
    </g>
    <g id="line2d_49">
     <path d="M 423.1 185.24 
L 433.1 185.24 
L 443.1 185.24 
" style="fill: none; stroke: #1c24dc; stroke-width: 1.5; stroke-linecap: square"/>
     <g>
      <use xlink:href="#m2f87da1e6a" x="433.1" y="185.24" style="fill: #1c24dc; stroke: #1c24dc; stroke-linejoin: bevel"/>
     </g>
    </g>
    <g id="text_24">
     <!-- $PGA(\mathbf{x}^0_{max})$ -->
     <g transform="translate(451.1 188.74) scale(0.1 -0.1)">
      <use xlink:href="#DejaVuSans-Oblique-50" transform="translate(0 0.765625)"/>
      <use xlink:href="#DejaVuSans-Oblique-47" transform="translate(60.302734 0.765625)"/>
      <use xlink:href="#DejaVuSans-Oblique-41" transform="translate(137.792969 0.765625)"/>
      <use xlink:href="#DejaVuSans-28" transform="translate(206.201172 0.765625)"/>
      <use xlink:href="#DejaVuSans-Bold-78" transform="translate(245.214844 0.765625)"/>
      <use xlink:href="#DejaVuSans-30" transform="translate(310.673828 39.046875) scale(0.7)"/>
      <use xlink:href="#DejaVuSans-Oblique-6d" transform="translate(310.673828 -26.578125) scale(0.7)"/>
      <use xlink:href="#DejaVuSans-Oblique-61" transform="translate(378.862305 -26.578125) scale(0.7)"/>
      <use xlink:href="#DejaVuSans-Oblique-78" transform="translate(421.757812 -26.578125) scale(0.7)"/>
      <use xlink:href="#DejaVuSans-29" transform="translate(465.917969 0.765625)"/>
     </g>
    </g>
    <g id="line2d_50">
     <path d="M 423.1 202.24 
L 433.1 202.24 
L 443.1 202.24 
" style="fill: none; stroke-dasharray: 1.5,15; stroke-dashoffset: 0; stroke: #595fdc; stroke-width: 1.5"/>
     <g>
      <use xlink:href="#m1ab965cde4" x="433.1" y="202.24" style="fill: #595fdc; stroke: #595fdc; stroke-linejoin: bevel"/>
     </g>
    </g>
    <g id="text_25">
     <!-- $PGA(\mathbf{x}^0_1)$ -->
     <g transform="translate(451.1 205.74) scale(0.1 -0.1)">
      <use xlink:href="#DejaVuSans-Oblique-50" transform="translate(0 0.765625)"/>
      <use xlink:href="#DejaVuSans-Oblique-47" transform="translate(60.302734 0.765625)"/>
      <use xlink:href="#DejaVuSans-Oblique-41" transform="translate(137.792969 0.765625)"/>
      <use xlink:href="#DejaVuSans-28" transform="translate(206.201172 0.765625)"/>
      <use xlink:href="#DejaVuSans-Bold-78" transform="translate(245.214844 0.765625)"/>
      <use xlink:href="#DejaVuSans-30" transform="translate(310.673828 39.046875) scale(0.7)"/>
      <use xlink:href="#DejaVuSans-31" transform="translate(310.673828 -26.578125) scale(0.7)"/>
      <use xlink:href="#DejaVuSans-29" transform="translate(357.944336 0.765625)"/>
     </g>
    </g>
    <g id="line2d_51">
     <path d="M 423.1 219.14 
L 433.1 219.14 
L 443.1 219.14 
" style="fill: none; stroke-dasharray: 7.5,15; stroke-dashoffset: 0; stroke: #9598dc; stroke-width: 1.5"/>
     <g>
      <use xlink:href="#m09674c029d" x="433.1" y="219.14" style="fill: #9598dc; stroke: #9598dc; stroke-linejoin: bevel"/>
     </g>
    </g>
    <g id="text_26">
     <!-- $PGA(\mathbf{x}^0_2)$ -->
     <g transform="translate(451.1 222.64) scale(0.1 -0.1)">
      <use xlink:href="#DejaVuSans-Oblique-50" transform="translate(0 0.765625)"/>
      <use xlink:href="#DejaVuSans-Oblique-47" transform="translate(60.302734 0.765625)"/>
      <use xlink:href="#DejaVuSans-Oblique-41" transform="translate(137.792969 0.765625)"/>
      <use xlink:href="#DejaVuSans-28" transform="translate(206.201172 0.765625)"/>
      <use xlink:href="#DejaVuSans-Bold-78" transform="translate(245.214844 0.765625)"/>
      <use xlink:href="#DejaVuSans-30" transform="translate(310.673828 39.046875) scale(0.7)"/>
      <use xlink:href="#DejaVuSans-32" transform="translate(310.673828 -26.578125) scale(0.7)"/>
      <use xlink:href="#DejaVuSans-29" transform="translate(357.944336 0.765625)"/>
     </g>
    </g>
   </g>
  </g>
 </g>
 <defs>
  <clipPath id="p85d68fdd72">
   <rect x="72" y="51.84" width="446.4" height="332.64"/>
  </clipPath>
 </defs>
</svg>
