<?xml version="1.0" encoding="utf-8" standalone="no"?>
<!DOCTYPE svg PUBLIC "-//W3C//DTD SVG 1.1//EN"
  "http://www.w3.org/Graphics/SVG/1.1/DTD/svg11.dtd">
<svg xmlns:xlink="http://www.w3.org/1999/xlink" width="864pt" height="432pt" viewBox="0 0 864 432" xmlns="http://www.w3.org/2000/svg" version="1.1">
 <metadata>
  <rdf:RDF xmlns:dc="http://purl.org/dc/elements/1.1/" xmlns:cc="http://creativecommons.org/ns#" xmlns:rdf="http://www.w3.org/1999/02/22-rdf-syntax-ns#">
   <cc:Work>
    <dc:type rdf:resource="http://purl.org/dc/dcmitype/StillImage"/>
    <dc:date>2025-05-10T18:18:43.537647</dc:date>
    <dc:format>image/svg+xml</dc:format>
    <dc:creator>
     <cc:Agent>
      <dc:title>Matplotlib v3.7.1, https://matplotlib.org/</dc:title>
     </cc:Agent>
    </dc:creator>
   </cc:Work>
  </rdf:RDF>
 </metadata>
 <defs>
  <style type="text/css">*{stroke-linejoin: round; stroke-linecap: butt}</style>
 </defs>
 <g id="figure_1">
  <g id="patch_1">
   <path d="M 0 432 
L 864 432 
L 864 0 
L 0 0 
z
" style="fill: #ffffff"/>
  </g>
  <g id="axes_1">
   <g id="patch_2">
    <path d="M 108 384.48 
L 777.6 384.48 
L 777.6 51.84 
L 108 51.84 
z
" style="fill: #ffffff"/>
   </g>
   <g id="matplotlib.axis_1">
    <g id="xtick_1">
     <g id="line2d_1">
      <path d="M 108 384.48 
L 108 51.84 
" clip-path="url(#p4b0d6b5ef7)" style="fill: none; stroke: #b0b0b0; stroke-width: 0.8; stroke-linecap: square"/>
     </g>
     <g id="line2d_2">
      <defs>
       <path id="me7de7e8807" d="M 0 0 
L 0 3.5 
" style="stroke: #000000; stroke-width: 0.8"/>
      </defs>
      <g>
       <use xlink:href="#me7de7e8807" x="108" y="384.48" style="stroke: #000000; stroke-width: 0.8"/>
      </g>
     </g>
     <g id="text_1">
      <!-- 0 -->
      <g transform="translate(103.54625 402.117813) scale(0.14 -0.14)">
       <defs>
        <path id="DejaVuSans-30" d="M 2034 4250 
Q 1547 4250 1301 3770 
Q 1056 3291 1056 2328 
Q 1056 1369 1301 889 
Q 1547 409 2034 409 
Q 2525 409 2770 889 
Q 3016 1369 3016 2328 
Q 3016 3291 2770 3770 
Q 2525 4250 2034 4250 
z
M 2034 4750 
Q 2819 4750 3233 4129 
Q 3647 3509 3647 2328 
Q 3647 1150 3233 529 
Q 2819 -91 2034 -91 
Q 1250 -91 836 529 
Q 422 1150 422 2328 
Q 422 3509 836 4129 
Q 1250 4750 2034 4750 
z
" transform="scale(0.015625)"/>
       </defs>
       <use xlink:href="#DejaVuSans-30"/>
      </g>
     </g>
    </g>
    <g id="xtick_2">
     <g id="line2d_3">
      <path d="M 241.92 384.48 
L 241.92 51.84 
" clip-path="url(#p4b0d6b5ef7)" style="fill: none; stroke: #b0b0b0; stroke-width: 0.8; stroke-linecap: square"/>
     </g>
     <g id="line2d_4">
      <g>
       <use xlink:href="#me7de7e8807" x="241.92" y="384.48" style="stroke: #000000; stroke-width: 0.8"/>
      </g>
     </g>
     <g id="text_2">
      <!-- 100 -->
      <g transform="translate(228.55875 402.117813) scale(0.14 -0.14)">
       <defs>
        <path id="DejaVuSans-31" d="M 794 531 
L 1825 531 
L 1825 4091 
L 703 3866 
L 703 4441 
L 1819 4666 
L 2450 4666 
L 2450 531 
L 3481 531 
L 3481 0 
L 794 0 
L 794 531 
z
" transform="scale(0.015625)"/>
       </defs>
       <use xlink:href="#DejaVuSans-31"/>
       <use xlink:href="#DejaVuSans-30" x="63.623047"/>
       <use xlink:href="#DejaVuSans-30" x="127.246094"/>
      </g>
     </g>
    </g>
    <g id="xtick_3">
     <g id="line2d_5">
      <path d="M 375.84 384.48 
L 375.84 51.84 
" clip-path="url(#p4b0d6b5ef7)" style="fill: none; stroke: #b0b0b0; stroke-width: 0.8; stroke-linecap: square"/>
     </g>
     <g id="line2d_6">
      <g>
       <use xlink:href="#me7de7e8807" x="375.84" y="384.48" style="stroke: #000000; stroke-width: 0.8"/>
      </g>
     </g>
     <g id="text_3">
      <!-- 200 -->
      <g transform="translate(362.47875 402.117813) scale(0.14 -0.14)">
       <defs>
        <path id="DejaVuSans-32" d="M 1228 531 
L 3431 531 
L 3431 0 
L 469 0 
L 469 531 
Q 828 903 1448 1529 
Q 2069 2156 2228 2338 
Q 2531 2678 2651 2914 
Q 2772 3150 2772 3378 
Q 2772 3750 2511 3984 
Q 2250 4219 1831 4219 
Q 1534 4219 1204 4116 
Q 875 4013 500 3803 
L 500 4441 
Q 881 4594 1212 4672 
Q 1544 4750 1819 4750 
Q 2544 4750 2975 4387 
Q 3406 4025 3406 3419 
Q 3406 3131 3298 2873 
Q 3191 2616 2906 2266 
Q 2828 2175 2409 1742 
Q 1991 1309 1228 531 
z
" transform="scale(0.015625)"/>
       </defs>
       <use xlink:href="#DejaVuSans-32"/>
       <use xlink:href="#DejaVuSans-30" x="63.623047"/>
       <use xlink:href="#DejaVuSans-30" x="127.246094"/>
      </g>
     </g>
    </g>
    <g id="xtick_4">
     <g id="line2d_7">
      <path d="M 509.76 384.48 
L 509.76 51.84 
" clip-path="url(#p4b0d6b5ef7)" style="fill: none; stroke: #b0b0b0; stroke-width: 0.8; stroke-linecap: square"/>
     </g>
     <g id="line2d_8">
      <g>
       <use xlink:href="#me7de7e8807" x="509.76" y="384.48" style="stroke: #000000; stroke-width: 0.8"/>
      </g>
     </g>
     <g id="text_4">
      <!-- 300 -->
      <g transform="translate(496.39875 402.117813) scale(0.14 -0.14)">
       <defs>
        <path id="DejaVuSans-33" d="M 2597 2516 
Q 3050 2419 3304 2112 
Q 3559 1806 3559 1356 
Q 3559 666 3084 287 
Q 2609 -91 1734 -91 
Q 1441 -91 1130 -33 
Q 819 25 488 141 
L 488 750 
Q 750 597 1062 519 
Q 1375 441 1716 441 
Q 2309 441 2620 675 
Q 2931 909 2931 1356 
Q 2931 1769 2642 2001 
Q 2353 2234 1838 2234 
L 1294 2234 
L 1294 2753 
L 1863 2753 
Q 2328 2753 2575 2939 
Q 2822 3125 2822 3475 
Q 2822 3834 2567 4026 
Q 2313 4219 1838 4219 
Q 1578 4219 1281 4162 
Q 984 4106 628 3988 
L 628 4550 
Q 988 4650 1302 4700 
Q 1616 4750 1894 4750 
Q 2613 4750 3031 4423 
Q 3450 4097 3450 3541 
Q 3450 3153 3228 2886 
Q 3006 2619 2597 2516 
z
" transform="scale(0.015625)"/>
       </defs>
       <use xlink:href="#DejaVuSans-33"/>
       <use xlink:href="#DejaVuSans-30" x="63.623047"/>
       <use xlink:href="#DejaVuSans-30" x="127.246094"/>
      </g>
     </g>
    </g>
    <g id="xtick_5">
     <g id="line2d_9">
      <path d="M 643.68 384.48 
L 643.68 51.84 
" clip-path="url(#p4b0d6b5ef7)" style="fill: none; stroke: #b0b0b0; stroke-width: 0.8; stroke-linecap: square"/>
     </g>
     <g id="line2d_10">
      <g>
       <use xlink:href="#me7de7e8807" x="643.68" y="384.48" style="stroke: #000000; stroke-width: 0.8"/>
      </g>
     </g>
     <g id="text_5">
      <!-- 400 -->
      <g transform="translate(630.31875 402.117813) scale(0.14 -0.14)">
       <defs>
        <path id="DejaVuSans-34" d="M 2419 4116 
L 825 1625 
L 2419 1625 
L 2419 4116 
z
M 2253 4666 
L 3047 4666 
L 3047 1625 
L 3713 1625 
L 3713 1100 
L 3047 1100 
L 3047 0 
L 2419 0 
L 2419 1100 
L 313 1100 
L 313 1709 
L 2253 4666 
z
" transform="scale(0.015625)"/>
       </defs>
       <use xlink:href="#DejaVuSans-34"/>
       <use xlink:href="#DejaVuSans-30" x="63.623047"/>
       <use xlink:href="#DejaVuSans-30" x="127.246094"/>
      </g>
     </g>
    </g>
    <g id="xtick_6">
     <g id="line2d_11">
      <path d="M 777.6 384.48 
L 777.6 51.84 
" clip-path="url(#p4b0d6b5ef7)" style="fill: none; stroke: #b0b0b0; stroke-width: 0.8; stroke-linecap: square"/>
     </g>
     <g id="line2d_12">
      <g>
       <use xlink:href="#me7de7e8807" x="777.6" y="384.48" style="stroke: #000000; stroke-width: 0.8"/>
      </g>
     </g>
     <g id="text_6">
      <!-- 500 -->
      <g transform="translate(764.23875 402.117813) scale(0.14 -0.14)">
       <defs>
        <path id="DejaVuSans-35" d="M 691 4666 
L 3169 4666 
L 3169 4134 
L 1269 4134 
L 1269 2991 
Q 1406 3038 1543 3061 
Q 1681 3084 1819 3084 
Q 2600 3084 3056 2656 
Q 3513 2228 3513 1497 
Q 3513 744 3044 326 
Q 2575 -91 1722 -91 
Q 1428 -91 1123 -41 
Q 819 9 494 109 
L 494 744 
Q 775 591 1075 516 
Q 1375 441 1709 441 
Q 2250 441 2565 725 
Q 2881 1009 2881 1497 
Q 2881 1984 2565 2268 
Q 2250 2553 1709 2553 
Q 1456 2553 1204 2497 
Q 953 2441 691 2322 
L 691 4666 
z
" transform="scale(0.015625)"/>
       </defs>
       <use xlink:href="#DejaVuSans-35"/>
       <use xlink:href="#DejaVuSans-30" x="63.623047"/>
       <use xlink:href="#DejaVuSans-30" x="127.246094"/>
      </g>
     </g>
    </g>
    <g id="text_7">
     <!-- Computational time [s] -->
     <g transform="translate(338.761406 422.706563) scale(0.18 -0.18)">
      <defs>
       <path id="DejaVuSans-43" d="M 4122 4306 
L 4122 3641 
Q 3803 3938 3442 4084 
Q 3081 4231 2675 4231 
Q 1875 4231 1450 3742 
Q 1025 3253 1025 2328 
Q 1025 1406 1450 917 
Q 1875 428 2675 428 
Q 3081 428 3442 575 
Q 3803 722 4122 1019 
L 4122 359 
Q 3791 134 3420 21 
Q 3050 -91 2638 -91 
Q 1578 -91 968 557 
Q 359 1206 359 2328 
Q 359 3453 968 4101 
Q 1578 4750 2638 4750 
Q 3056 4750 3426 4639 
Q 3797 4528 4122 4306 
z
" transform="scale(0.015625)"/>
       <path id="DejaVuSans-6f" d="M 1959 3097 
Q 1497 3097 1228 2736 
Q 959 2375 959 1747 
Q 959 1119 1226 758 
Q 1494 397 1959 397 
Q 2419 397 2687 759 
Q 2956 1122 2956 1747 
Q 2956 2369 2687 2733 
Q 2419 3097 1959 3097 
z
M 1959 3584 
Q 2709 3584 3137 3096 
Q 3566 2609 3566 1747 
Q 3566 888 3137 398 
Q 2709 -91 1959 -91 
Q 1206 -91 779 398 
Q 353 888 353 1747 
Q 353 2609 779 3096 
Q 1206 3584 1959 3584 
z
" transform="scale(0.015625)"/>
       <path id="DejaVuSans-6d" d="M 3328 2828 
Q 3544 3216 3844 3400 
Q 4144 3584 4550 3584 
Q 5097 3584 5394 3201 
Q 5691 2819 5691 2113 
L 5691 0 
L 5113 0 
L 5113 2094 
Q 5113 2597 4934 2840 
Q 4756 3084 4391 3084 
Q 3944 3084 3684 2787 
Q 3425 2491 3425 1978 
L 3425 0 
L 2847 0 
L 2847 2094 
Q 2847 2600 2669 2842 
Q 2491 3084 2119 3084 
Q 1678 3084 1418 2786 
Q 1159 2488 1159 1978 
L 1159 0 
L 581 0 
L 581 3500 
L 1159 3500 
L 1159 2956 
Q 1356 3278 1631 3431 
Q 1906 3584 2284 3584 
Q 2666 3584 2933 3390 
Q 3200 3197 3328 2828 
z
" transform="scale(0.015625)"/>
       <path id="DejaVuSans-70" d="M 1159 525 
L 1159 -1331 
L 581 -1331 
L 581 3500 
L 1159 3500 
L 1159 2969 
Q 1341 3281 1617 3432 
Q 1894 3584 2278 3584 
Q 2916 3584 3314 3078 
Q 3713 2572 3713 1747 
Q 3713 922 3314 415 
Q 2916 -91 2278 -91 
Q 1894 -91 1617 61 
Q 1341 213 1159 525 
z
M 3116 1747 
Q 3116 2381 2855 2742 
Q 2594 3103 2138 3103 
Q 1681 3103 1420 2742 
Q 1159 2381 1159 1747 
Q 1159 1113 1420 752 
Q 1681 391 2138 391 
Q 2594 391 2855 752 
Q 3116 1113 3116 1747 
z
" transform="scale(0.015625)"/>
       <path id="DejaVuSans-75" d="M 544 1381 
L 544 3500 
L 1119 3500 
L 1119 1403 
Q 1119 906 1312 657 
Q 1506 409 1894 409 
Q 2359 409 2629 706 
Q 2900 1003 2900 1516 
L 2900 3500 
L 3475 3500 
L 3475 0 
L 2900 0 
L 2900 538 
Q 2691 219 2414 64 
Q 2138 -91 1772 -91 
Q 1169 -91 856 284 
Q 544 659 544 1381 
z
M 1991 3584 
L 1991 3584 
z
" transform="scale(0.015625)"/>
       <path id="DejaVuSans-74" d="M 1172 4494 
L 1172 3500 
L 2356 3500 
L 2356 3053 
L 1172 3053 
L 1172 1153 
Q 1172 725 1289 603 
Q 1406 481 1766 481 
L 2356 481 
L 2356 0 
L 1766 0 
Q 1100 0 847 248 
Q 594 497 594 1153 
L 594 3053 
L 172 3053 
L 172 3500 
L 594 3500 
L 594 4494 
L 1172 4494 
z
" transform="scale(0.015625)"/>
       <path id="DejaVuSans-61" d="M 2194 1759 
Q 1497 1759 1228 1600 
Q 959 1441 959 1056 
Q 959 750 1161 570 
Q 1363 391 1709 391 
Q 2188 391 2477 730 
Q 2766 1069 2766 1631 
L 2766 1759 
L 2194 1759 
z
M 3341 1997 
L 3341 0 
L 2766 0 
L 2766 531 
Q 2569 213 2275 61 
Q 1981 -91 1556 -91 
Q 1019 -91 701 211 
Q 384 513 384 1019 
Q 384 1609 779 1909 
Q 1175 2209 1959 2209 
L 2766 2209 
L 2766 2266 
Q 2766 2663 2505 2880 
Q 2244 3097 1772 3097 
Q 1472 3097 1187 3025 
Q 903 2953 641 2809 
L 641 3341 
Q 956 3463 1253 3523 
Q 1550 3584 1831 3584 
Q 2591 3584 2966 3190 
Q 3341 2797 3341 1997 
z
" transform="scale(0.015625)"/>
       <path id="DejaVuSans-69" d="M 603 3500 
L 1178 3500 
L 1178 0 
L 603 0 
L 603 3500 
z
M 603 4863 
L 1178 4863 
L 1178 4134 
L 603 4134 
L 603 4863 
z
" transform="scale(0.015625)"/>
       <path id="DejaVuSans-6e" d="M 3513 2113 
L 3513 0 
L 2938 0 
L 2938 2094 
Q 2938 2591 2744 2837 
Q 2550 3084 2163 3084 
Q 1697 3084 1428 2787 
Q 1159 2491 1159 1978 
L 1159 0 
L 581 0 
L 581 3500 
L 1159 3500 
L 1159 2956 
Q 1366 3272 1645 3428 
Q 1925 3584 2291 3584 
Q 2894 3584 3203 3211 
Q 3513 2838 3513 2113 
z
" transform="scale(0.015625)"/>
       <path id="DejaVuSans-6c" d="M 603 4863 
L 1178 4863 
L 1178 0 
L 603 0 
L 603 4863 
z
" transform="scale(0.015625)"/>
       <path id="DejaVuSans-20" transform="scale(0.015625)"/>
       <path id="DejaVuSans-65" d="M 3597 1894 
L 3597 1613 
L 953 1613 
Q 991 1019 1311 708 
Q 1631 397 2203 397 
Q 2534 397 2845 478 
Q 3156 559 3463 722 
L 3463 178 
Q 3153 47 2828 -22 
Q 2503 -91 2169 -91 
Q 1331 -91 842 396 
Q 353 884 353 1716 
Q 353 2575 817 3079 
Q 1281 3584 2069 3584 
Q 2775 3584 3186 3129 
Q 3597 2675 3597 1894 
z
M 3022 2063 
Q 3016 2534 2758 2815 
Q 2500 3097 2075 3097 
Q 1594 3097 1305 2825 
Q 1016 2553 972 2059 
L 3022 2063 
z
" transform="scale(0.015625)"/>
       <path id="DejaVuSans-5b" d="M 550 4863 
L 1875 4863 
L 1875 4416 
L 1125 4416 
L 1125 -397 
L 1875 -397 
L 1875 -844 
L 550 -844 
L 550 4863 
z
" transform="scale(0.015625)"/>
       <path id="DejaVuSans-73" d="M 2834 3397 
L 2834 2853 
Q 2591 2978 2328 3040 
Q 2066 3103 1784 3103 
Q 1356 3103 1142 2972 
Q 928 2841 928 2578 
Q 928 2378 1081 2264 
Q 1234 2150 1697 2047 
L 1894 2003 
Q 2506 1872 2764 1633 
Q 3022 1394 3022 966 
Q 3022 478 2636 193 
Q 2250 -91 1575 -91 
Q 1294 -91 989 -36 
Q 684 19 347 128 
L 347 722 
Q 666 556 975 473 
Q 1284 391 1588 391 
Q 1994 391 2212 530 
Q 2431 669 2431 922 
Q 2431 1156 2273 1281 
Q 2116 1406 1581 1522 
L 1381 1569 
Q 847 1681 609 1914 
Q 372 2147 372 2553 
Q 372 3047 722 3315 
Q 1072 3584 1716 3584 
Q 2034 3584 2315 3537 
Q 2597 3491 2834 3397 
z
" transform="scale(0.015625)"/>
       <path id="DejaVuSans-5d" d="M 1947 4863 
L 1947 -844 
L 622 -844 
L 622 -397 
L 1369 -397 
L 1369 4416 
L 622 4416 
L 622 4863 
L 1947 4863 
z
" transform="scale(0.015625)"/>
      </defs>
      <use xlink:href="#DejaVuSans-43"/>
      <use xlink:href="#DejaVuSans-6f" x="69.824219"/>
      <use xlink:href="#DejaVuSans-6d" x="131.005859"/>
      <use xlink:href="#DejaVuSans-70" x="228.417969"/>
      <use xlink:href="#DejaVuSans-75" x="291.894531"/>
      <use xlink:href="#DejaVuSans-74" x="355.273438"/>
      <use xlink:href="#DejaVuSans-61" x="394.482422"/>
      <use xlink:href="#DejaVuSans-74" x="455.761719"/>
      <use xlink:href="#DejaVuSans-69" x="494.970703"/>
      <use xlink:href="#DejaVuSans-6f" x="522.753906"/>
      <use xlink:href="#DejaVuSans-6e" x="583.935547"/>
      <use xlink:href="#DejaVuSans-61" x="647.314453"/>
      <use xlink:href="#DejaVuSans-6c" x="708.59375"/>
      <use xlink:href="#DejaVuSans-20" x="736.376953"/>
      <use xlink:href="#DejaVuSans-74" x="768.164062"/>
      <use xlink:href="#DejaVuSans-69" x="807.373047"/>
      <use xlink:href="#DejaVuSans-6d" x="835.15625"/>
      <use xlink:href="#DejaVuSans-65" x="932.568359"/>
      <use xlink:href="#DejaVuSans-20" x="994.091797"/>
      <use xlink:href="#DejaVuSans-5b" x="1025.878906"/>
      <use xlink:href="#DejaVuSans-73" x="1064.892578"/>
      <use xlink:href="#DejaVuSans-5d" x="1116.992188"/>
     </g>
    </g>
   </g>
   <g id="matplotlib.axis_2">
    <g id="ytick_1">
     <g id="line2d_13">
      <path d="M 108 347.588755 
L 777.6 347.588755 
" clip-path="url(#p4b0d6b5ef7)" style="fill: none; stroke: #b0b0b0; stroke-width: 0.8; stroke-linecap: square"/>
     </g>
     <g id="line2d_14">
      <defs>
       <path id="m6e6181f8ac" d="M 0 0 
L -3.5 0 
" style="stroke: #000000; stroke-width: 0.8"/>
      </defs>
      <g>
       <use xlink:href="#m6e6181f8ac" x="108" y="347.588755" style="stroke: #000000; stroke-width: 0.8"/>
      </g>
     </g>
     <g id="text_8">
      <!-- −90.5 -->
      <g transform="translate(58.096562 352.907661) scale(0.14 -0.14)">
       <defs>
        <path id="DejaVuSans-2212" d="M 678 2272 
L 4684 2272 
L 4684 1741 
L 678 1741 
L 678 2272 
z
" transform="scale(0.015625)"/>
        <path id="DejaVuSans-39" d="M 703 97 
L 703 672 
Q 941 559 1184 500 
Q 1428 441 1663 441 
Q 2288 441 2617 861 
Q 2947 1281 2994 2138 
Q 2813 1869 2534 1725 
Q 2256 1581 1919 1581 
Q 1219 1581 811 2004 
Q 403 2428 403 3163 
Q 403 3881 828 4315 
Q 1253 4750 1959 4750 
Q 2769 4750 3195 4129 
Q 3622 3509 3622 2328 
Q 3622 1225 3098 567 
Q 2575 -91 1691 -91 
Q 1453 -91 1209 -44 
Q 966 3 703 97 
z
M 1959 2075 
Q 2384 2075 2632 2365 
Q 2881 2656 2881 3163 
Q 2881 3666 2632 3958 
Q 2384 4250 1959 4250 
Q 1534 4250 1286 3958 
Q 1038 3666 1038 3163 
Q 1038 2656 1286 2365 
Q 1534 2075 1959 2075 
z
" transform="scale(0.015625)"/>
        <path id="DejaVuSans-2e" d="M 684 794 
L 1344 794 
L 1344 0 
L 684 0 
L 684 794 
z
" transform="scale(0.015625)"/>
       </defs>
       <use xlink:href="#DejaVuSans-2212"/>
       <use xlink:href="#DejaVuSans-39" x="83.789062"/>
       <use xlink:href="#DejaVuSans-30" x="147.412109"/>
       <use xlink:href="#DejaVuSans-2e" x="211.035156"/>
       <use xlink:href="#DejaVuSans-35" x="242.822266"/>
      </g>
     </g>
    </g>
    <g id="ytick_2">
     <g id="line2d_15">
      <path d="M 108 308.880118 
L 777.6 308.880118 
" clip-path="url(#p4b0d6b5ef7)" style="fill: none; stroke: #b0b0b0; stroke-width: 0.8; stroke-linecap: square"/>
     </g>
     <g id="line2d_16">
      <g>
       <use xlink:href="#m6e6181f8ac" x="108" y="308.880118" style="stroke: #000000; stroke-width: 0.8"/>
      </g>
     </g>
     <g id="text_9">
      <!-- −90.0 -->
      <g transform="translate(58.096562 314.199024) scale(0.14 -0.14)">
       <use xlink:href="#DejaVuSans-2212"/>
       <use xlink:href="#DejaVuSans-39" x="83.789062"/>
       <use xlink:href="#DejaVuSans-30" x="147.412109"/>
       <use xlink:href="#DejaVuSans-2e" x="211.035156"/>
       <use xlink:href="#DejaVuSans-30" x="242.822266"/>
      </g>
     </g>
    </g>
    <g id="ytick_3">
     <g id="line2d_17">
      <path d="M 108 270.171482 
L 777.6 270.171482 
" clip-path="url(#p4b0d6b5ef7)" style="fill: none; stroke: #b0b0b0; stroke-width: 0.8; stroke-linecap: square"/>
     </g>
     <g id="line2d_18">
      <g>
       <use xlink:href="#m6e6181f8ac" x="108" y="270.171482" style="stroke: #000000; stroke-width: 0.8"/>
      </g>
     </g>
     <g id="text_10">
      <!-- −89.5 -->
      <g transform="translate(58.096562 275.490388) scale(0.14 -0.14)">
       <defs>
        <path id="DejaVuSans-38" d="M 2034 2216 
Q 1584 2216 1326 1975 
Q 1069 1734 1069 1313 
Q 1069 891 1326 650 
Q 1584 409 2034 409 
Q 2484 409 2743 651 
Q 3003 894 3003 1313 
Q 3003 1734 2745 1975 
Q 2488 2216 2034 2216 
z
M 1403 2484 
Q 997 2584 770 2862 
Q 544 3141 544 3541 
Q 544 4100 942 4425 
Q 1341 4750 2034 4750 
Q 2731 4750 3128 4425 
Q 3525 4100 3525 3541 
Q 3525 3141 3298 2862 
Q 3072 2584 2669 2484 
Q 3125 2378 3379 2068 
Q 3634 1759 3634 1313 
Q 3634 634 3220 271 
Q 2806 -91 2034 -91 
Q 1263 -91 848 271 
Q 434 634 434 1313 
Q 434 1759 690 2068 
Q 947 2378 1403 2484 
z
M 1172 3481 
Q 1172 3119 1398 2916 
Q 1625 2713 2034 2713 
Q 2441 2713 2670 2916 
Q 2900 3119 2900 3481 
Q 2900 3844 2670 4047 
Q 2441 4250 2034 4250 
Q 1625 4250 1398 4047 
Q 1172 3844 1172 3481 
z
" transform="scale(0.015625)"/>
       </defs>
       <use xlink:href="#DejaVuSans-2212"/>
       <use xlink:href="#DejaVuSans-38" x="83.789062"/>
       <use xlink:href="#DejaVuSans-39" x="147.412109"/>
       <use xlink:href="#DejaVuSans-2e" x="211.035156"/>
       <use xlink:href="#DejaVuSans-35" x="242.822266"/>
      </g>
     </g>
    </g>
    <g id="ytick_4">
     <g id="line2d_19">
      <path d="M 108 231.462845 
L 777.6 231.462845 
" clip-path="url(#p4b0d6b5ef7)" style="fill: none; stroke: #b0b0b0; stroke-width: 0.8; stroke-linecap: square"/>
     </g>
     <g id="line2d_20">
      <g>
       <use xlink:href="#m6e6181f8ac" x="108" y="231.462845" style="stroke: #000000; stroke-width: 0.8"/>
      </g>
     </g>
     <g id="text_11">
      <!-- −89.0 -->
      <g transform="translate(58.096562 236.781751) scale(0.14 -0.14)">
       <use xlink:href="#DejaVuSans-2212"/>
       <use xlink:href="#DejaVuSans-38" x="83.789062"/>
       <use xlink:href="#DejaVuSans-39" x="147.412109"/>
       <use xlink:href="#DejaVuSans-2e" x="211.035156"/>
       <use xlink:href="#DejaVuSans-30" x="242.822266"/>
      </g>
     </g>
    </g>
    <g id="ytick_5">
     <g id="line2d_21">
      <path d="M 108 192.754209 
L 777.6 192.754209 
" clip-path="url(#p4b0d6b5ef7)" style="fill: none; stroke: #b0b0b0; stroke-width: 0.8; stroke-linecap: square"/>
     </g>
     <g id="line2d_22">
      <g>
       <use xlink:href="#m6e6181f8ac" x="108" y="192.754209" style="stroke: #000000; stroke-width: 0.8"/>
      </g>
     </g>
     <g id="text_12">
      <!-- −88.5 -->
      <g transform="translate(58.096562 198.073115) scale(0.14 -0.14)">
       <use xlink:href="#DejaVuSans-2212"/>
       <use xlink:href="#DejaVuSans-38" x="83.789062"/>
       <use xlink:href="#DejaVuSans-38" x="147.412109"/>
       <use xlink:href="#DejaVuSans-2e" x="211.035156"/>
       <use xlink:href="#DejaVuSans-35" x="242.822266"/>
      </g>
     </g>
    </g>
    <g id="ytick_6">
     <g id="line2d_23">
      <path d="M 108 154.045572 
L 777.6 154.045572 
" clip-path="url(#p4b0d6b5ef7)" style="fill: none; stroke: #b0b0b0; stroke-width: 0.8; stroke-linecap: square"/>
     </g>
     <g id="line2d_24">
      <g>
       <use xlink:href="#m6e6181f8ac" x="108" y="154.045572" style="stroke: #000000; stroke-width: 0.8"/>
      </g>
     </g>
     <g id="text_13">
      <!-- −88.0 -->
      <g transform="translate(58.096562 159.364479) scale(0.14 -0.14)">
       <use xlink:href="#DejaVuSans-2212"/>
       <use xlink:href="#DejaVuSans-38" x="83.789062"/>
       <use xlink:href="#DejaVuSans-38" x="147.412109"/>
       <use xlink:href="#DejaVuSans-2e" x="211.035156"/>
       <use xlink:href="#DejaVuSans-30" x="242.822266"/>
      </g>
     </g>
    </g>
    <g id="ytick_7">
     <g id="line2d_25">
      <path d="M 108 115.336936 
L 777.6 115.336936 
" clip-path="url(#p4b0d6b5ef7)" style="fill: none; stroke: #b0b0b0; stroke-width: 0.8; stroke-linecap: square"/>
     </g>
     <g id="line2d_26">
      <g>
       <use xlink:href="#m6e6181f8ac" x="108" y="115.336936" style="stroke: #000000; stroke-width: 0.8"/>
      </g>
     </g>
     <g id="text_14">
      <!-- −87.5 -->
      <g transform="translate(58.096562 120.655842) scale(0.14 -0.14)">
       <defs>
        <path id="DejaVuSans-37" d="M 525 4666 
L 3525 4666 
L 3525 4397 
L 1831 0 
L 1172 0 
L 2766 4134 
L 525 4134 
L 525 4666 
z
" transform="scale(0.015625)"/>
       </defs>
       <use xlink:href="#DejaVuSans-2212"/>
       <use xlink:href="#DejaVuSans-38" x="83.789062"/>
       <use xlink:href="#DejaVuSans-37" x="147.412109"/>
       <use xlink:href="#DejaVuSans-2e" x="211.035156"/>
       <use xlink:href="#DejaVuSans-35" x="242.822266"/>
      </g>
     </g>
    </g>
    <g id="ytick_8">
     <g id="line2d_27">
      <path d="M 108 76.628299 
L 777.6 76.628299 
" clip-path="url(#p4b0d6b5ef7)" style="fill: none; stroke: #b0b0b0; stroke-width: 0.8; stroke-linecap: square"/>
     </g>
     <g id="line2d_28">
      <g>
       <use xlink:href="#m6e6181f8ac" x="108" y="76.628299" style="stroke: #000000; stroke-width: 0.8"/>
      </g>
     </g>
     <g id="text_15">
      <!-- −87.0 -->
      <g transform="translate(58.096562 81.947206) scale(0.14 -0.14)">
       <use xlink:href="#DejaVuSans-2212"/>
       <use xlink:href="#DejaVuSans-38" x="83.789062"/>
       <use xlink:href="#DejaVuSans-37" x="147.412109"/>
       <use xlink:href="#DejaVuSans-2e" x="211.035156"/>
       <use xlink:href="#DejaVuSans-30" x="242.822266"/>
      </g>
     </g>
    </g>
    <g id="text_16">
     <!-- Objective value -->
     <g transform="translate(50.353125 288.282656) rotate(-90) scale(0.18 -0.18)">
      <defs>
       <path id="DejaVuSans-4f" d="M 2522 4238 
Q 1834 4238 1429 3725 
Q 1025 3213 1025 2328 
Q 1025 1447 1429 934 
Q 1834 422 2522 422 
Q 3209 422 3611 934 
Q 4013 1447 4013 2328 
Q 4013 3213 3611 3725 
Q 3209 4238 2522 4238 
z
M 2522 4750 
Q 3503 4750 4090 4092 
Q 4678 3434 4678 2328 
Q 4678 1225 4090 567 
Q 3503 -91 2522 -91 
Q 1538 -91 948 565 
Q 359 1222 359 2328 
Q 359 3434 948 4092 
Q 1538 4750 2522 4750 
z
" transform="scale(0.015625)"/>
       <path id="DejaVuSans-62" d="M 3116 1747 
Q 3116 2381 2855 2742 
Q 2594 3103 2138 3103 
Q 1681 3103 1420 2742 
Q 1159 2381 1159 1747 
Q 1159 1113 1420 752 
Q 1681 391 2138 391 
Q 2594 391 2855 752 
Q 3116 1113 3116 1747 
z
M 1159 2969 
Q 1341 3281 1617 3432 
Q 1894 3584 2278 3584 
Q 2916 3584 3314 3078 
Q 3713 2572 3713 1747 
Q 3713 922 3314 415 
Q 2916 -91 2278 -91 
Q 1894 -91 1617 61 
Q 1341 213 1159 525 
L 1159 0 
L 581 0 
L 581 4863 
L 1159 4863 
L 1159 2969 
z
" transform="scale(0.015625)"/>
       <path id="DejaVuSans-6a" d="M 603 3500 
L 1178 3500 
L 1178 -63 
Q 1178 -731 923 -1031 
Q 669 -1331 103 -1331 
L -116 -1331 
L -116 -844 
L 38 -844 
Q 366 -844 484 -692 
Q 603 -541 603 -63 
L 603 3500 
z
M 603 4863 
L 1178 4863 
L 1178 4134 
L 603 4134 
L 603 4863 
z
" transform="scale(0.015625)"/>
       <path id="DejaVuSans-63" d="M 3122 3366 
L 3122 2828 
Q 2878 2963 2633 3030 
Q 2388 3097 2138 3097 
Q 1578 3097 1268 2742 
Q 959 2388 959 1747 
Q 959 1106 1268 751 
Q 1578 397 2138 397 
Q 2388 397 2633 464 
Q 2878 531 3122 666 
L 3122 134 
Q 2881 22 2623 -34 
Q 2366 -91 2075 -91 
Q 1284 -91 818 406 
Q 353 903 353 1747 
Q 353 2603 823 3093 
Q 1294 3584 2113 3584 
Q 2378 3584 2631 3529 
Q 2884 3475 3122 3366 
z
" transform="scale(0.015625)"/>
       <path id="DejaVuSans-76" d="M 191 3500 
L 800 3500 
L 1894 563 
L 2988 3500 
L 3597 3500 
L 2284 0 
L 1503 0 
L 191 3500 
z
" transform="scale(0.015625)"/>
      </defs>
      <use xlink:href="#DejaVuSans-4f"/>
      <use xlink:href="#DejaVuSans-62" x="78.710938"/>
      <use xlink:href="#DejaVuSans-6a" x="142.1875"/>
      <use xlink:href="#DejaVuSans-65" x="169.970703"/>
      <use xlink:href="#DejaVuSans-63" x="231.494141"/>
      <use xlink:href="#DejaVuSans-74" x="286.474609"/>
      <use xlink:href="#DejaVuSans-69" x="325.683594"/>
      <use xlink:href="#DejaVuSans-76" x="353.466797"/>
      <use xlink:href="#DejaVuSans-65" x="412.646484"/>
      <use xlink:href="#DejaVuSans-20" x="474.169922"/>
      <use xlink:href="#DejaVuSans-76" x="505.957031"/>
      <use xlink:href="#DejaVuSans-61" x="565.136719"/>
      <use xlink:href="#DejaVuSans-6c" x="626.416016"/>
      <use xlink:href="#DejaVuSans-75" x="654.199219"/>
      <use xlink:href="#DejaVuSans-65" x="717.578125"/>
     </g>
    </g>
   </g>
   <g id="line2d_29">
    <path d="M 152.989424 82.113047 
" clip-path="url(#p4b0d6b5ef7)" style="fill: none; stroke-dasharray: 5.55,2.4; stroke-dashoffset: 0; stroke: #36ff33; stroke-width: 1.5"/>
    <defs>
     <path id="m6f34bd2a66" d="M 0 3.5 
C 0.928211 3.5 1.81853 3.131218 2.474874 2.474874 
C 3.131218 1.81853 3.5 0.928211 3.5 0 
C 3.5 -0.928211 3.131218 -1.81853 2.474874 -2.474874 
C 1.81853 -3.131218 0.928211 -3.5 0 -3.5 
C -0.928211 -3.5 -1.81853 -3.131218 -2.474874 -2.474874 
C -3.131218 -1.81853 -3.5 -0.928211 -3.5 0 
C -3.5 0.928211 -3.131218 1.81853 -2.474874 2.474874 
C -1.81853 3.131218 -0.928211 3.5 0 3.5 
z
" style="stroke: #36ff33"/>
    </defs>
    <g clip-path="url(#p4b0d6b5ef7)">
     <use xlink:href="#m6f34bd2a66" x="152.989424" y="82.113047" style="fill: #36ff33; stroke: #36ff33"/>
    </g>
   </g>
   <g id="line2d_30">
    <path d="M 152.989424 82.113047 
L 777.6 82.113047 
" clip-path="url(#p4b0d6b5ef7)" style="fill: none; stroke-dasharray: 5.55,2.4; stroke-dashoffset: 0; stroke: #36ff33; stroke-width: 1.5"/>
   </g>
   <g id="line2d_31">
    <path d="M 151.820971 82.113047 
L 195.99798 66.997211 
L 233.576953 66.997211 
L 271.717267 66.997211 
L 310.77995 66.997211 
L 356.897287 66.997211 
L 401.443377 66.997211 
L 447.008324 66.997211 
L 487.028833 66.997211 
L 525.233707 66.997211 
L 562.663394 66.997211 
L 603.076951 66.997211 
L 648.93301 66.997211 
L 694.299931 66.997211 
L 740.259308 66.997211 
L 783.493649 66.997211 
" clip-path="url(#p4b0d6b5ef7)" style="fill: none; stroke: #36ff33; stroke-width: 1.5; stroke-linecap: square"/>
    <defs>
     <path id="mca5823e446" d="M 0 -5 
L -1.12257 -1.545085 
L -4.755283 -1.545085 
L -1.816356 0.59017 
L -2.938926 4.045085 
L -0 1.90983 
L 2.938926 4.045085 
L 1.816356 0.59017 
L 4.755283 -1.545085 
L 1.12257 -1.545085 
z
" style="stroke: #36ff33; stroke-linejoin: bevel"/>
    </defs>
    <g clip-path="url(#p4b0d6b5ef7)">
     <use xlink:href="#mca5823e446" x="151.820971" y="82.113047" style="fill: #36ff33; stroke: #36ff33; stroke-linejoin: bevel"/>
     <use xlink:href="#mca5823e446" x="195.99798" y="66.997211" style="fill: #36ff33; stroke: #36ff33; stroke-linejoin: bevel"/>
     <use xlink:href="#mca5823e446" x="233.576953" y="66.997211" style="fill: #36ff33; stroke: #36ff33; stroke-linejoin: bevel"/>
     <use xlink:href="#mca5823e446" x="271.717267" y="66.997211" style="fill: #36ff33; stroke: #36ff33; stroke-linejoin: bevel"/>
     <use xlink:href="#mca5823e446" x="310.77995" y="66.997211" style="fill: #36ff33; stroke: #36ff33; stroke-linejoin: bevel"/>
     <use xlink:href="#mca5823e446" x="356.897287" y="66.997211" style="fill: #36ff33; stroke: #36ff33; stroke-linejoin: bevel"/>
     <use xlink:href="#mca5823e446" x="401.443377" y="66.997211" style="fill: #36ff33; stroke: #36ff33; stroke-linejoin: bevel"/>
     <use xlink:href="#mca5823e446" x="447.008324" y="66.997211" style="fill: #36ff33; stroke: #36ff33; stroke-linejoin: bevel"/>
     <use xlink:href="#mca5823e446" x="487.028833" y="66.997211" style="fill: #36ff33; stroke: #36ff33; stroke-linejoin: bevel"/>
     <use xlink:href="#mca5823e446" x="525.233707" y="66.997211" style="fill: #36ff33; stroke: #36ff33; stroke-linejoin: bevel"/>
     <use xlink:href="#mca5823e446" x="562.663394" y="66.997211" style="fill: #36ff33; stroke: #36ff33; stroke-linejoin: bevel"/>
     <use xlink:href="#mca5823e446" x="603.076951" y="66.997211" style="fill: #36ff33; stroke: #36ff33; stroke-linejoin: bevel"/>
     <use xlink:href="#mca5823e446" x="648.93301" y="66.997211" style="fill: #36ff33; stroke: #36ff33; stroke-linejoin: bevel"/>
     <use xlink:href="#mca5823e446" x="694.299931" y="66.997211" style="fill: #36ff33; stroke: #36ff33; stroke-linejoin: bevel"/>
     <use xlink:href="#mca5823e446" x="740.259308" y="66.997211" style="fill: #36ff33; stroke: #36ff33; stroke-linejoin: bevel"/>
     <use xlink:href="#mca5823e446" x="783.493649" y="66.997211" style="fill: #36ff33; stroke: #36ff33; stroke-linejoin: bevel"/>
    </g>
   </g>
   <g id="line2d_32">
    <path d="M 147.42854 87.151265 
" clip-path="url(#p4b0d6b5ef7)" style="fill: none; stroke-dasharray: 5.55,2.4; stroke-dashoffset: 0; stroke: #b6c800; stroke-width: 1.5"/>
    <defs>
     <path id="m7f443dca84" d="M 0 3.5 
C 0.928211 3.5 1.81853 3.131218 2.474874 2.474874 
C 3.131218 1.81853 3.5 0.928211 3.5 0 
C 3.5 -0.928211 3.131218 -1.81853 2.474874 -2.474874 
C 1.81853 -3.131218 0.928211 -3.5 0 -3.5 
C -0.928211 -3.5 -1.81853 -3.131218 -2.474874 -2.474874 
C -3.131218 -1.81853 -3.5 -0.928211 -3.5 0 
C -3.5 0.928211 -3.131218 1.81853 -2.474874 2.474874 
C -1.81853 3.131218 -0.928211 3.5 0 3.5 
z
" style="stroke: #b6c800"/>
    </defs>
    <g clip-path="url(#p4b0d6b5ef7)">
     <use xlink:href="#m7f443dca84" x="147.42854" y="87.151265" style="fill: #b6c800; stroke: #b6c800"/>
    </g>
   </g>
   <g id="line2d_33">
    <path d="M 147.42854 87.151265 
L 777.6 87.151265 
" clip-path="url(#p4b0d6b5ef7)" style="fill: none; stroke-dasharray: 5.55,2.4; stroke-dashoffset: 0; stroke: #b6c800; stroke-width: 1.5"/>
   </g>
   <g id="line2d_34">
    <path d="M 153.992665 87.151265 
L 218.68128 66.997211 
L 268.646683 66.997211 
L 319.655964 66.997211 
L 365.740398 66.997211 
L 405.866269 66.997211 
L 445.130155 66.997211 
L 482.862529 66.997211 
L 524.160415 66.997211 
L 569.267647 66.997211 
L 613.244835 66.997211 
L 655.776122 66.997211 
L 695.553402 66.997211 
L 734.01018 66.997211 
L 772.913425 66.997211 
L 818.407255 66.997211 
" clip-path="url(#p4b0d6b5ef7)" style="fill: none; stroke: #b6c800; stroke-width: 1.5; stroke-linecap: square"/>
    <defs>
     <path id="m7e9c67e289" d="M 0 -5 
L -1.12257 -1.545085 
L -4.755283 -1.545085 
L -1.816356 0.59017 
L -2.938926 4.045085 
L -0 1.90983 
L 2.938926 4.045085 
L 1.816356 0.59017 
L 4.755283 -1.545085 
L 1.12257 -1.545085 
z
" style="stroke: #b6c800; stroke-linejoin: bevel"/>
    </defs>
    <g clip-path="url(#p4b0d6b5ef7)">
     <use xlink:href="#m7e9c67e289" x="153.992665" y="87.151265" style="fill: #b6c800; stroke: #b6c800; stroke-linejoin: bevel"/>
     <use xlink:href="#m7e9c67e289" x="218.68128" y="66.997211" style="fill: #b6c800; stroke: #b6c800; stroke-linejoin: bevel"/>
     <use xlink:href="#m7e9c67e289" x="268.646683" y="66.997211" style="fill: #b6c800; stroke: #b6c800; stroke-linejoin: bevel"/>
     <use xlink:href="#m7e9c67e289" x="319.655964" y="66.997211" style="fill: #b6c800; stroke: #b6c800; stroke-linejoin: bevel"/>
     <use xlink:href="#m7e9c67e289" x="365.740398" y="66.997211" style="fill: #b6c800; stroke: #b6c800; stroke-linejoin: bevel"/>
     <use xlink:href="#m7e9c67e289" x="405.866269" y="66.997211" style="fill: #b6c800; stroke: #b6c800; stroke-linejoin: bevel"/>
     <use xlink:href="#m7e9c67e289" x="445.130155" y="66.997211" style="fill: #b6c800; stroke: #b6c800; stroke-linejoin: bevel"/>
     <use xlink:href="#m7e9c67e289" x="482.862529" y="66.997211" style="fill: #b6c800; stroke: #b6c800; stroke-linejoin: bevel"/>
     <use xlink:href="#m7e9c67e289" x="524.160415" y="66.997211" style="fill: #b6c800; stroke: #b6c800; stroke-linejoin: bevel"/>
     <use xlink:href="#m7e9c67e289" x="569.267647" y="66.997211" style="fill: #b6c800; stroke: #b6c800; stroke-linejoin: bevel"/>
     <use xlink:href="#m7e9c67e289" x="613.244835" y="66.997211" style="fill: #b6c800; stroke: #b6c800; stroke-linejoin: bevel"/>
     <use xlink:href="#m7e9c67e289" x="655.776122" y="66.997211" style="fill: #b6c800; stroke: #b6c800; stroke-linejoin: bevel"/>
     <use xlink:href="#m7e9c67e289" x="695.553402" y="66.997211" style="fill: #b6c800; stroke: #b6c800; stroke-linejoin: bevel"/>
     <use xlink:href="#m7e9c67e289" x="734.01018" y="66.997211" style="fill: #b6c800; stroke: #b6c800; stroke-linejoin: bevel"/>
     <use xlink:href="#m7e9c67e289" x="772.913425" y="66.997211" style="fill: #b6c800; stroke: #b6c800; stroke-linejoin: bevel"/>
     <use xlink:href="#m7e9c67e289" x="818.407255" y="66.997211" style="fill: #b6c800; stroke: #b6c800; stroke-linejoin: bevel"/>
    </g>
   </g>
   <g id="line2d_35">
    <path d="M 153.938245 97.228292 
" clip-path="url(#p4b0d6b5ef7)" style="fill: none; stroke-dasharray: 5.55,2.4; stroke-dashoffset: 0; stroke: #f119c3; stroke-width: 1.5"/>
    <defs>
     <path id="m9baf96e1e1" d="M 0 3.5 
C 0.928211 3.5 1.81853 3.131218 2.474874 2.474874 
C 3.131218 1.81853 3.5 0.928211 3.5 0 
C 3.5 -0.928211 3.131218 -1.81853 2.474874 -2.474874 
C 1.81853 -3.131218 0.928211 -3.5 0 -3.5 
C -0.928211 -3.5 -1.81853 -3.131218 -2.474874 -2.474874 
C -3.131218 -1.81853 -3.5 -0.928211 -3.5 0 
C -3.5 0.928211 -3.131218 1.81853 -2.474874 2.474874 
C -1.81853 3.131218 -0.928211 3.5 0 3.5 
z
" style="stroke: #f119c3"/>
    </defs>
    <g clip-path="url(#p4b0d6b5ef7)">
     <use xlink:href="#m9baf96e1e1" x="153.938245" y="97.228292" style="fill: #f119c3; stroke: #f119c3"/>
    </g>
   </g>
   <g id="line2d_36">
    <path d="M 153.938245 97.228292 
L 777.6 97.228292 
" clip-path="url(#p4b0d6b5ef7)" style="fill: none; stroke-dasharray: 5.55,2.4; stroke-dashoffset: 0; stroke: #f119c3; stroke-width: 1.5"/>
   </g>
   <g id="line2d_37">
    <path d="M 152.540525 97.228292 
L 197.542541 66.997211 
L 239.163291 66.997211 
L 277.236145 66.997211 
L 314.889821 66.997211 
L 357.441198 66.997211 
L 402.403518 66.997211 
L 447.850025 66.997211 
L 494.086805 66.997211 
L 536.737673 66.997211 
L 575.539143 66.997211 
L 616.468057 66.997211 
L 678.077115 66.997211 
L 722.312004 66.997211 
L 768.810639 66.997211 
L 815.759269 66.997211 
" clip-path="url(#p4b0d6b5ef7)" style="fill: none; stroke: #f119c3; stroke-width: 1.5; stroke-linecap: square"/>
    <defs>
     <path id="mc2343454f6" d="M 0 -5 
L -1.12257 -1.545085 
L -4.755283 -1.545085 
L -1.816356 0.59017 
L -2.938926 4.045085 
L -0 1.90983 
L 2.938926 4.045085 
L 1.816356 0.59017 
L 4.755283 -1.545085 
L 1.12257 -1.545085 
z
" style="stroke: #f119c3; stroke-linejoin: bevel"/>
    </defs>
    <g clip-path="url(#p4b0d6b5ef7)">
     <use xlink:href="#mc2343454f6" x="152.540525" y="97.228292" style="fill: #f119c3; stroke: #f119c3; stroke-linejoin: bevel"/>
     <use xlink:href="#mc2343454f6" x="197.542541" y="66.997211" style="fill: #f119c3; stroke: #f119c3; stroke-linejoin: bevel"/>
     <use xlink:href="#mc2343454f6" x="239.163291" y="66.997211" style="fill: #f119c3; stroke: #f119c3; stroke-linejoin: bevel"/>
     <use xlink:href="#mc2343454f6" x="277.236145" y="66.997211" style="fill: #f119c3; stroke: #f119c3; stroke-linejoin: bevel"/>
     <use xlink:href="#mc2343454f6" x="314.889821" y="66.997211" style="fill: #f119c3; stroke: #f119c3; stroke-linejoin: bevel"/>
     <use xlink:href="#mc2343454f6" x="357.441198" y="66.997211" style="fill: #f119c3; stroke: #f119c3; stroke-linejoin: bevel"/>
     <use xlink:href="#mc2343454f6" x="402.403518" y="66.997211" style="fill: #f119c3; stroke: #f119c3; stroke-linejoin: bevel"/>
     <use xlink:href="#mc2343454f6" x="447.850025" y="66.997211" style="fill: #f119c3; stroke: #f119c3; stroke-linejoin: bevel"/>
     <use xlink:href="#mc2343454f6" x="494.086805" y="66.997211" style="fill: #f119c3; stroke: #f119c3; stroke-linejoin: bevel"/>
     <use xlink:href="#mc2343454f6" x="536.737673" y="66.997211" style="fill: #f119c3; stroke: #f119c3; stroke-linejoin: bevel"/>
     <use xlink:href="#mc2343454f6" x="575.539143" y="66.997211" style="fill: #f119c3; stroke: #f119c3; stroke-linejoin: bevel"/>
     <use xlink:href="#mc2343454f6" x="616.468057" y="66.997211" style="fill: #f119c3; stroke: #f119c3; stroke-linejoin: bevel"/>
     <use xlink:href="#mc2343454f6" x="678.077115" y="66.997211" style="fill: #f119c3; stroke: #f119c3; stroke-linejoin: bevel"/>
     <use xlink:href="#mc2343454f6" x="722.312004" y="66.997211" style="fill: #f119c3; stroke: #f119c3; stroke-linejoin: bevel"/>
     <use xlink:href="#mc2343454f6" x="768.810639" y="66.997211" style="fill: #f119c3; stroke: #f119c3; stroke-linejoin: bevel"/>
     <use xlink:href="#mc2343454f6" x="815.759269" y="66.997211" style="fill: #f119c3; stroke: #f119c3; stroke-linejoin: bevel"/>
    </g>
   </g>
   <g id="line2d_38">
    <path d="M 150.565872 127.461736 
" clip-path="url(#p4b0d6b5ef7)" style="fill: none; stroke-dasharray: 5.55,2.4; stroke-dashoffset: 0; stroke: #0d5915; stroke-width: 1.5"/>
    <defs>
     <path id="mea59bfc26d" d="M 0 3.5 
C 0.928211 3.5 1.81853 3.131218 2.474874 2.474874 
C 3.131218 1.81853 3.5 0.928211 3.5 0 
C 3.5 -0.928211 3.131218 -1.81853 2.474874 -2.474874 
C 1.81853 -3.131218 0.928211 -3.5 0 -3.5 
C -0.928211 -3.5 -1.81853 -3.131218 -2.474874 -2.474874 
C -3.131218 -1.81853 -3.5 -0.928211 -3.5 0 
C -3.5 0.928211 -3.131218 1.81853 -2.474874 2.474874 
C -1.81853 3.131218 -0.928211 3.5 0 3.5 
z
" style="stroke: #0d5915"/>
    </defs>
    <g clip-path="url(#p4b0d6b5ef7)">
     <use xlink:href="#mea59bfc26d" x="150.565872" y="127.461736" style="fill: #0d5915; stroke: #0d5915"/>
    </g>
   </g>
   <g id="line2d_39">
    <path d="M 150.565872 127.461736 
L 777.6 127.461736 
" clip-path="url(#p4b0d6b5ef7)" style="fill: none; stroke-dasharray: 5.55,2.4; stroke-dashoffset: 0; stroke: #0d5915; stroke-width: 1.5"/>
   </g>
   <g id="line2d_40">
    <path d="M 147.017048 127.461736 
L 184.878174 66.995439 
L 224.660585 66.995439 
L 273.80133 66.995439 
L 317.083271 66.995439 
L 360.808269 66.995439 
L 406.459545 66.995439 
L 445.505089 66.995439 
L 483.871548 66.995439 
L 522.594497 66.995439 
L 566.180683 66.995439 
L 609.949259 66.995439 
L 655.957218 66.995439 
L 705.263569 66.995439 
L 766.777362 66.995439 
L 814.697362 66.995439 
" clip-path="url(#p4b0d6b5ef7)" style="fill: none; stroke: #0d5915; stroke-width: 1.5; stroke-linecap: square"/>
    <defs>
     <path id="m846cbbc5c8" d="M 0 -5 
L -1.12257 -1.545085 
L -4.755283 -1.545085 
L -1.816356 0.59017 
L -2.938926 4.045085 
L -0 1.90983 
L 2.938926 4.045085 
L 1.816356 0.59017 
L 4.755283 -1.545085 
L 1.12257 -1.545085 
z
" style="stroke: #0d5915; stroke-linejoin: bevel"/>
    </defs>
    <g clip-path="url(#p4b0d6b5ef7)">
     <use xlink:href="#m846cbbc5c8" x="147.017048" y="127.461736" style="fill: #0d5915; stroke: #0d5915; stroke-linejoin: bevel"/>
     <use xlink:href="#m846cbbc5c8" x="184.878174" y="66.995439" style="fill: #0d5915; stroke: #0d5915; stroke-linejoin: bevel"/>
     <use xlink:href="#m846cbbc5c8" x="224.660585" y="66.995439" style="fill: #0d5915; stroke: #0d5915; stroke-linejoin: bevel"/>
     <use xlink:href="#m846cbbc5c8" x="273.80133" y="66.995439" style="fill: #0d5915; stroke: #0d5915; stroke-linejoin: bevel"/>
     <use xlink:href="#m846cbbc5c8" x="317.083271" y="66.995439" style="fill: #0d5915; stroke: #0d5915; stroke-linejoin: bevel"/>
     <use xlink:href="#m846cbbc5c8" x="360.808269" y="66.995439" style="fill: #0d5915; stroke: #0d5915; stroke-linejoin: bevel"/>
     <use xlink:href="#m846cbbc5c8" x="406.459545" y="66.995439" style="fill: #0d5915; stroke: #0d5915; stroke-linejoin: bevel"/>
     <use xlink:href="#m846cbbc5c8" x="445.505089" y="66.995439" style="fill: #0d5915; stroke: #0d5915; stroke-linejoin: bevel"/>
     <use xlink:href="#m846cbbc5c8" x="483.871548" y="66.995439" style="fill: #0d5915; stroke: #0d5915; stroke-linejoin: bevel"/>
     <use xlink:href="#m846cbbc5c8" x="522.594497" y="66.995439" style="fill: #0d5915; stroke: #0d5915; stroke-linejoin: bevel"/>
     <use xlink:href="#m846cbbc5c8" x="566.180683" y="66.995439" style="fill: #0d5915; stroke: #0d5915; stroke-linejoin: bevel"/>
     <use xlink:href="#m846cbbc5c8" x="609.949259" y="66.995439" style="fill: #0d5915; stroke: #0d5915; stroke-linejoin: bevel"/>
     <use xlink:href="#m846cbbc5c8" x="655.957218" y="66.995439" style="fill: #0d5915; stroke: #0d5915; stroke-linejoin: bevel"/>
     <use xlink:href="#m846cbbc5c8" x="705.263569" y="66.995439" style="fill: #0d5915; stroke: #0d5915; stroke-linejoin: bevel"/>
     <use xlink:href="#m846cbbc5c8" x="766.777362" y="66.995439" style="fill: #0d5915; stroke: #0d5915; stroke-linejoin: bevel"/>
     <use xlink:href="#m846cbbc5c8" x="814.697362" y="66.995439" style="fill: #0d5915; stroke: #0d5915; stroke-linejoin: bevel"/>
    </g>
   </g>
   <g id="line2d_41">
    <path d="M 150.135218 218.167974 
" clip-path="url(#p4b0d6b5ef7)" style="fill: none; stroke-dasharray: 5.55,2.4; stroke-dashoffset: 0; stroke: #e31d1d; stroke-width: 1.5"/>
    <defs>
     <path id="m7b74248f2b" d="M 0 3.5 
C 0.928211 3.5 1.81853 3.131218 2.474874 2.474874 
C 3.131218 1.81853 3.5 0.928211 3.5 0 
C 3.5 -0.928211 3.131218 -1.81853 2.474874 -2.474874 
C 1.81853 -3.131218 0.928211 -3.5 0 -3.5 
C -0.928211 -3.5 -1.81853 -3.131218 -2.474874 -2.474874 
C -3.131218 -1.81853 -3.5 -0.928211 -3.5 0 
C -3.5 0.928211 -3.131218 1.81853 -2.474874 2.474874 
C -1.81853 3.131218 -0.928211 3.5 0 3.5 
z
" style="stroke: #e31d1d"/>
    </defs>
    <g clip-path="url(#p4b0d6b5ef7)">
     <use xlink:href="#m7b74248f2b" x="150.135218" y="218.167974" style="fill: #e31d1d; stroke: #e31d1d"/>
    </g>
   </g>
   <g id="line2d_42">
    <path d="M 150.135218 218.167974 
L 777.6 218.167974 
" clip-path="url(#p4b0d6b5ef7)" style="fill: none; stroke-dasharray: 5.55,2.4; stroke-dashoffset: 0; stroke: #e31d1d; stroke-width: 1.5"/>
   </g>
   <g id="line2d_43">
    <path d="M 147.452304 218.167974 
L 188.15517 66.985398 
L 238.593688 66.985398 
L 281.650175 66.985398 
L 334.560716 66.985398 
L 378.118786 66.985398 
L 416.15221 66.985398 
L 453.991604 66.985398 
L 493.453308 66.985398 
L 535.21752 66.985398 
L 580.253494 66.985398 
L 625.04551 66.985398 
L 669.810967 66.985398 
L 713.695578 66.985398 
L 753.752459 66.985398 
L 791.408846 66.985398 
" clip-path="url(#p4b0d6b5ef7)" style="fill: none; stroke: #e31d1d; stroke-width: 1.5; stroke-linecap: square"/>
    <defs>
     <path id="m25afd4ebf9" d="M 0 -5 
L -1.12257 -1.545085 
L -4.755283 -1.545085 
L -1.816356 0.59017 
L -2.938926 4.045085 
L -0 1.90983 
L 2.938926 4.045085 
L 1.816356 0.59017 
L 4.755283 -1.545085 
L 1.12257 -1.545085 
z
" style="stroke: #e31d1d; stroke-linejoin: bevel"/>
    </defs>
    <g clip-path="url(#p4b0d6b5ef7)">
     <use xlink:href="#m25afd4ebf9" x="147.452304" y="218.167974" style="fill: #e31d1d; stroke: #e31d1d; stroke-linejoin: bevel"/>
     <use xlink:href="#m25afd4ebf9" x="188.15517" y="66.985398" style="fill: #e31d1d; stroke: #e31d1d; stroke-linejoin: bevel"/>
     <use xlink:href="#m25afd4ebf9" x="238.593688" y="66.985398" style="fill: #e31d1d; stroke: #e31d1d; stroke-linejoin: bevel"/>
     <use xlink:href="#m25afd4ebf9" x="281.650175" y="66.985398" style="fill: #e31d1d; stroke: #e31d1d; stroke-linejoin: bevel"/>
     <use xlink:href="#m25afd4ebf9" x="334.560716" y="66.985398" style="fill: #e31d1d; stroke: #e31d1d; stroke-linejoin: bevel"/>
     <use xlink:href="#m25afd4ebf9" x="378.118786" y="66.985398" style="fill: #e31d1d; stroke: #e31d1d; stroke-linejoin: bevel"/>
     <use xlink:href="#m25afd4ebf9" x="416.15221" y="66.985398" style="fill: #e31d1d; stroke: #e31d1d; stroke-linejoin: bevel"/>
     <use xlink:href="#m25afd4ebf9" x="453.991604" y="66.985398" style="fill: #e31d1d; stroke: #e31d1d; stroke-linejoin: bevel"/>
     <use xlink:href="#m25afd4ebf9" x="493.453308" y="66.985398" style="fill: #e31d1d; stroke: #e31d1d; stroke-linejoin: bevel"/>
     <use xlink:href="#m25afd4ebf9" x="535.21752" y="66.985398" style="fill: #e31d1d; stroke: #e31d1d; stroke-linejoin: bevel"/>
     <use xlink:href="#m25afd4ebf9" x="580.253494" y="66.985398" style="fill: #e31d1d; stroke: #e31d1d; stroke-linejoin: bevel"/>
     <use xlink:href="#m25afd4ebf9" x="625.04551" y="66.985398" style="fill: #e31d1d; stroke: #e31d1d; stroke-linejoin: bevel"/>
     <use xlink:href="#m25afd4ebf9" x="669.810967" y="66.985398" style="fill: #e31d1d; stroke: #e31d1d; stroke-linejoin: bevel"/>
     <use xlink:href="#m25afd4ebf9" x="713.695578" y="66.985398" style="fill: #e31d1d; stroke: #e31d1d; stroke-linejoin: bevel"/>
     <use xlink:href="#m25afd4ebf9" x="753.752459" y="66.985398" style="fill: #e31d1d; stroke: #e31d1d; stroke-linejoin: bevel"/>
     <use xlink:href="#m25afd4ebf9" x="791.408846" y="66.985398" style="fill: #e31d1d; stroke: #e31d1d; stroke-linejoin: bevel"/>
    </g>
   </g>
   <g id="line2d_44">
    <path d="M 174.31835 369.36 
" clip-path="url(#p4b0d6b5ef7)" style="fill: none; stroke-dasharray: 5.55,2.4; stroke-dashoffset: 0; stroke: #1c24dc; stroke-width: 1.5"/>
    <defs>
     <path id="m7f6ea1bbf8" d="M 0 3.5 
C 0.928211 3.5 1.81853 3.131218 2.474874 2.474874 
C 3.131218 1.81853 3.5 0.928211 3.5 0 
C 3.5 -0.928211 3.131218 -1.81853 2.474874 -2.474874 
C 1.81853 -3.131218 0.928211 -3.5 0 -3.5 
C -0.928211 -3.5 -1.81853 -3.131218 -2.474874 -2.474874 
C -3.131218 -1.81853 -3.5 -0.928211 -3.5 0 
C -3.5 0.928211 -3.131218 1.81853 -2.474874 2.474874 
C -1.81853 3.131218 -0.928211 3.5 0 3.5 
z
" style="stroke: #1c24dc"/>
    </defs>
    <g clip-path="url(#p4b0d6b5ef7)">
     <use xlink:href="#m7f6ea1bbf8" x="174.31835" y="369.36" style="fill: #1c24dc; stroke: #1c24dc"/>
    </g>
   </g>
   <g id="line2d_45">
    <path d="M 174.31835 369.36 
L 777.6 369.36 
" clip-path="url(#p4b0d6b5ef7)" style="fill: none; stroke-dasharray: 5.55,2.4; stroke-dashoffset: 0; stroke: #1c24dc; stroke-width: 1.5"/>
   </g>
   <g id="line2d_46">
    <path d="M 176.914204 369.36 
L 237.109768 66.96 
L 293.880553 66.96 
L 349.096285 66.96 
L 405.844803 66.96 
L 462.401148 66.96 
L 522.476511 66.96 
L 583.589711 66.96 
L 638.077356 66.96 
L 694.254179 66.96 
L 752.354994 66.96 
L 810.569233 66.96 
" clip-path="url(#p4b0d6b5ef7)" style="fill: none; stroke: #1c24dc; stroke-width: 1.5; stroke-linecap: square"/>
    <defs>
     <path id="m1d57e7efbf" d="M 0 -5 
L -1.12257 -1.545085 
L -4.755283 -1.545085 
L -1.816356 0.59017 
L -2.938926 4.045085 
L -0 1.90983 
L 2.938926 4.045085 
L 1.816356 0.59017 
L 4.755283 -1.545085 
L 1.12257 -1.545085 
z
" style="stroke: #1c24dc; stroke-linejoin: bevel"/>
    </defs>
    <g clip-path="url(#p4b0d6b5ef7)">
     <use xlink:href="#m1d57e7efbf" x="176.914204" y="369.36" style="fill: #1c24dc; stroke: #1c24dc; stroke-linejoin: bevel"/>
     <use xlink:href="#m1d57e7efbf" x="237.109768" y="66.96" style="fill: #1c24dc; stroke: #1c24dc; stroke-linejoin: bevel"/>
     <use xlink:href="#m1d57e7efbf" x="293.880553" y="66.96" style="fill: #1c24dc; stroke: #1c24dc; stroke-linejoin: bevel"/>
     <use xlink:href="#m1d57e7efbf" x="349.096285" y="66.96" style="fill: #1c24dc; stroke: #1c24dc; stroke-linejoin: bevel"/>
     <use xlink:href="#m1d57e7efbf" x="405.844803" y="66.96" style="fill: #1c24dc; stroke: #1c24dc; stroke-linejoin: bevel"/>
     <use xlink:href="#m1d57e7efbf" x="462.401148" y="66.96" style="fill: #1c24dc; stroke: #1c24dc; stroke-linejoin: bevel"/>
     <use xlink:href="#m1d57e7efbf" x="522.476511" y="66.96" style="fill: #1c24dc; stroke: #1c24dc; stroke-linejoin: bevel"/>
     <use xlink:href="#m1d57e7efbf" x="583.589711" y="66.96" style="fill: #1c24dc; stroke: #1c24dc; stroke-linejoin: bevel"/>
     <use xlink:href="#m1d57e7efbf" x="638.077356" y="66.96" style="fill: #1c24dc; stroke: #1c24dc; stroke-linejoin: bevel"/>
     <use xlink:href="#m1d57e7efbf" x="694.254179" y="66.96" style="fill: #1c24dc; stroke: #1c24dc; stroke-linejoin: bevel"/>
     <use xlink:href="#m1d57e7efbf" x="752.354994" y="66.96" style="fill: #1c24dc; stroke: #1c24dc; stroke-linejoin: bevel"/>
     <use xlink:href="#m1d57e7efbf" x="810.569233" y="66.96" style="fill: #1c24dc; stroke: #1c24dc; stroke-linejoin: bevel"/>
    </g>
   </g>
   <g id="patch_3">
    <path d="M 108 384.48 
L 108 51.84 
" style="fill: none; stroke: #000000; stroke-width: 0.8; stroke-linejoin: miter; stroke-linecap: square"/>
   </g>
   <g id="patch_4">
    <path d="M 777.6 384.48 
L 777.6 51.84 
" style="fill: none; stroke: #000000; stroke-width: 0.8; stroke-linejoin: miter; stroke-linecap: square"/>
   </g>
   <g id="patch_5">
    <path d="M 108 384.48 
L 777.6 384.48 
" style="fill: none; stroke: #000000; stroke-width: 0.8; stroke-linejoin: miter; stroke-linecap: square"/>
   </g>
   <g id="patch_6">
    <path d="M 108 51.84 
L 777.6 51.84 
" style="fill: none; stroke: #000000; stroke-width: 0.8; stroke-linejoin: miter; stroke-linecap: square"/>
   </g>
   <g id="legend_1">
    <g id="patch_7">
     <path d="M 115 162.586875 
L 184.628125 162.586875 
Q 186.628125 162.586875 186.628125 160.586875 
L 186.628125 58.84 
Q 186.628125 56.84 184.628125 56.84 
L 115 56.84 
Q 113 56.84 113 58.84 
L 113 160.586875 
Q 113 162.586875 115 162.586875 
z
" style="fill: #ffffff; opacity: 0.8; stroke: #cccccc; stroke-linejoin: miter"/>
    </g>
    <g id="text_17">
     <!-- C values -->
     <g transform="translate(128.471094 68.438437) scale(0.1 -0.1)">
      <use xlink:href="#DejaVuSans-43"/>
      <use xlink:href="#DejaVuSans-20" x="69.824219"/>
      <use xlink:href="#DejaVuSans-76" x="101.611328"/>
      <use xlink:href="#DejaVuSans-61" x="160.791016"/>
      <use xlink:href="#DejaVuSans-6c" x="222.070312"/>
      <use xlink:href="#DejaVuSans-75" x="249.853516"/>
      <use xlink:href="#DejaVuSans-65" x="313.232422"/>
      <use xlink:href="#DejaVuSans-73" x="374.755859"/>
     </g>
    </g>
    <g id="line2d_47">
     <path d="M 117 79.616562 
L 127 79.616562 
L 137 79.616562 
" style="fill: none; stroke: #36ff33; stroke-width: 2; stroke-linecap: square"/>
    </g>
    <g id="text_18">
     <!-- C=1 -->
     <g transform="translate(145 83.116562) scale(0.1 -0.1)">
      <defs>
       <path id="DejaVuSans-3d" d="M 678 2906 
L 4684 2906 
L 4684 2381 
L 678 2381 
L 678 2906 
z
M 678 1631 
L 4684 1631 
L 4684 1100 
L 678 1100 
L 678 1631 
z
" transform="scale(0.015625)"/>
      </defs>
      <use xlink:href="#DejaVuSans-43"/>
      <use xlink:href="#DejaVuSans-3d" x="69.824219"/>
      <use xlink:href="#DejaVuSans-31" x="153.613281"/>
     </g>
    </g>
    <g id="line2d_48">
     <path d="M 117 94.294688 
L 127 94.294688 
L 137 94.294688 
" style="fill: none; stroke: #b6c800; stroke-width: 2; stroke-linecap: square"/>
    </g>
    <g id="text_19">
     <!-- C=0.75 -->
     <g transform="translate(145 97.794688) scale(0.1 -0.1)">
      <use xlink:href="#DejaVuSans-43"/>
      <use xlink:href="#DejaVuSans-3d" x="69.824219"/>
      <use xlink:href="#DejaVuSans-30" x="153.613281"/>
      <use xlink:href="#DejaVuSans-2e" x="217.236328"/>
      <use xlink:href="#DejaVuSans-37" x="249.023438"/>
      <use xlink:href="#DejaVuSans-35" x="312.646484"/>
     </g>
    </g>
    <g id="line2d_49">
     <path d="M 117 108.972812 
L 127 108.972812 
L 137 108.972812 
" style="fill: none; stroke: #f119c3; stroke-width: 2; stroke-linecap: square"/>
    </g>
    <g id="text_20">
     <!-- C=0.5 -->
     <g transform="translate(145 112.472812) scale(0.1 -0.1)">
      <use xlink:href="#DejaVuSans-43"/>
      <use xlink:href="#DejaVuSans-3d" x="69.824219"/>
      <use xlink:href="#DejaVuSans-30" x="153.613281"/>
      <use xlink:href="#DejaVuSans-2e" x="217.236328"/>
      <use xlink:href="#DejaVuSans-35" x="249.023438"/>
     </g>
    </g>
    <g id="line2d_50">
     <path d="M 117 123.650937 
L 127 123.650937 
L 137 123.650937 
" style="fill: none; stroke: #0d5915; stroke-width: 2; stroke-linecap: square"/>
    </g>
    <g id="text_21">
     <!-- C=0.25 -->
     <g transform="translate(145 127.150937) scale(0.1 -0.1)">
      <use xlink:href="#DejaVuSans-43"/>
      <use xlink:href="#DejaVuSans-3d" x="69.824219"/>
      <use xlink:href="#DejaVuSans-30" x="153.613281"/>
      <use xlink:href="#DejaVuSans-2e" x="217.236328"/>
      <use xlink:href="#DejaVuSans-32" x="249.023438"/>
      <use xlink:href="#DejaVuSans-35" x="312.646484"/>
     </g>
    </g>
    <g id="line2d_51">
     <path d="M 117 138.329062 
L 127 138.329062 
L 137 138.329062 
" style="fill: none; stroke: #e31d1d; stroke-width: 2; stroke-linecap: square"/>
    </g>
    <g id="text_22">
     <!-- C=0.1 -->
     <g transform="translate(145 141.829062) scale(0.1 -0.1)">
      <use xlink:href="#DejaVuSans-43"/>
      <use xlink:href="#DejaVuSans-3d" x="69.824219"/>
      <use xlink:href="#DejaVuSans-30" x="153.613281"/>
      <use xlink:href="#DejaVuSans-2e" x="217.236328"/>
      <use xlink:href="#DejaVuSans-31" x="249.023438"/>
     </g>
    </g>
    <g id="line2d_52">
     <path d="M 117 153.007187 
L 127 153.007187 
L 137 153.007187 
" style="fill: none; stroke: #1c24dc; stroke-width: 2; stroke-linecap: square"/>
    </g>
    <g id="text_23">
     <!-- C=0.05 -->
     <g transform="translate(145 156.507187) scale(0.1 -0.1)">
      <use xlink:href="#DejaVuSans-43"/>
      <use xlink:href="#DejaVuSans-3d" x="69.824219"/>
      <use xlink:href="#DejaVuSans-30" x="153.613281"/>
      <use xlink:href="#DejaVuSans-2e" x="217.236328"/>
      <use xlink:href="#DejaVuSans-30" x="249.023438"/>
      <use xlink:href="#DejaVuSans-35" x="312.646484"/>
     </g>
    </g>
   </g>
   <g id="legend_2">
    <g id="patch_8">
     <path d="M 711.9 103.874375 
L 770.6 103.874375 
Q 772.6 103.874375 772.6 101.874375 
L 772.6 58.84 
Q 772.6 56.84 770.6 56.84 
L 711.9 56.84 
Q 709.9 56.84 709.9 58.84 
L 709.9 101.874375 
Q 709.9 103.874375 711.9 103.874375 
z
" style="fill: #ffffff; opacity: 0.8; stroke: #cccccc; stroke-linejoin: miter"/>
    </g>
    <g id="text_24">
     <!-- Optimizers -->
     <g transform="translate(714.170313 68.438437) scale(0.1 -0.1)">
      <defs>
       <path id="DejaVuSans-7a" d="M 353 3500 
L 3084 3500 
L 3084 2975 
L 922 459 
L 3084 459 
L 3084 0 
L 275 0 
L 275 525 
L 2438 3041 
L 353 3041 
L 353 3500 
z
" transform="scale(0.015625)"/>
       <path id="DejaVuSans-72" d="M 2631 2963 
Q 2534 3019 2420 3045 
Q 2306 3072 2169 3072 
Q 1681 3072 1420 2755 
Q 1159 2438 1159 1844 
L 1159 0 
L 581 0 
L 581 3500 
L 1159 3500 
L 1159 2956 
Q 1341 3275 1631 3429 
Q 1922 3584 2338 3584 
Q 2397 3584 2469 3576 
Q 2541 3569 2628 3553 
L 2631 2963 
z
" transform="scale(0.015625)"/>
      </defs>
      <use xlink:href="#DejaVuSans-4f"/>
      <use xlink:href="#DejaVuSans-70" x="78.710938"/>
      <use xlink:href="#DejaVuSans-74" x="142.1875"/>
      <use xlink:href="#DejaVuSans-69" x="181.396484"/>
      <use xlink:href="#DejaVuSans-6d" x="209.179688"/>
      <use xlink:href="#DejaVuSans-69" x="306.591797"/>
      <use xlink:href="#DejaVuSans-7a" x="334.375"/>
      <use xlink:href="#DejaVuSans-65" x="386.865234"/>
      <use xlink:href="#DejaVuSans-72" x="448.388672"/>
      <use xlink:href="#DejaVuSans-73" x="489.501953"/>
     </g>
    </g>
    <g id="line2d_53">
     <path d="M 713.9 79.616562 
L 723.9 79.616562 
L 733.9 79.616562 
" style="fill: none; stroke-dasharray: 5.55,2.4; stroke-dashoffset: 0; stroke: #000000; stroke-width: 1.5"/>
     <defs>
      <path id="m16c165b090" d="M 0 3.5 
C 0.928211 3.5 1.81853 3.131218 2.474874 2.474874 
C 3.131218 1.81853 3.5 0.928211 3.5 0 
C 3.5 -0.928211 3.131218 -1.81853 2.474874 -2.474874 
C 1.81853 -3.131218 0.928211 -3.5 0 -3.5 
C -0.928211 -3.5 -1.81853 -3.131218 -2.474874 -2.474874 
C -3.131218 -1.81853 -3.5 -0.928211 -3.5 0 
C -3.5 0.928211 -3.131218 1.81853 -2.474874 2.474874 
C -1.81853 3.131218 -0.928211 3.5 0 3.5 
z
" style="stroke: #000000"/>
     </defs>
     <g>
      <use xlink:href="#m16c165b090" x="723.9" y="79.616562" style="stroke: #000000"/>
     </g>
    </g>
    <g id="text_25">
     <!-- $PA_{C\searrow}$ -->
     <g transform="translate(741.9 83.116562) scale(0.1 -0.1)">
      <defs>
       <path id="DejaVuSans-Oblique-50" d="M 1081 4666 
L 2541 4666 
Q 3178 4666 3512 4369 
Q 3847 4072 3847 3500 
Q 3847 2731 3353 2303 
Q 2859 1875 1966 1875 
L 1172 1875 
L 806 0 
L 172 0 
L 1081 4666 
z
M 1613 4147 
L 1275 2394 
L 2069 2394 
Q 2606 2394 2893 2669 
Q 3181 2944 3181 3456 
Q 3181 3784 2986 3965 
Q 2791 4147 2438 4147 
L 1613 4147 
z
" transform="scale(0.015625)"/>
       <path id="DejaVuSans-Oblique-41" d="M 2356 4666 
L 3072 4666 
L 3938 0 
L 3278 0 
L 3084 1197 
L 984 1197 
L 325 0 
L -341 0 
L 2356 4666 
z
M 2584 4044 
L 1275 1722 
L 2988 1722 
L 2584 4044 
z
" transform="scale(0.015625)"/>
       <path id="DejaVuSans-Oblique-43" d="M 4447 4306 
L 4319 3641 
Q 4019 3944 3683 4091 
Q 3347 4238 2956 4238 
Q 2422 4238 2017 3981 
Q 1613 3725 1319 3200 
Q 1131 2863 1032 2486 
Q 934 2109 934 1728 
Q 934 1091 1264 756 
Q 1594 422 2222 422 
Q 2656 422 3056 561 
Q 3456 700 3834 978 
L 3688 231 
Q 3316 72 2936 -9 
Q 2556 -91 2175 -91 
Q 1278 -91 773 396 
Q 269 884 269 1753 
Q 269 2309 461 2846 
Q 653 3384 1013 3828 
Q 1394 4300 1883 4525 
Q 2372 4750 3022 4750 
Q 3422 4750 3780 4639 
Q 4138 4528 4447 4306 
z
" transform="scale(0.015625)"/>
       <path id="DejaVuSans-2198" d="M 4497 359 
L 4300 163 
L 2563 163 
L 2563 691 
L 3594 691 
L 900 3384 
L 1275 3759 
L 3969 1066 
L 3969 2097 
L 4497 2097 
L 4497 359 
z
" transform="scale(0.015625)"/>
      </defs>
      <use xlink:href="#DejaVuSans-Oblique-50" transform="translate(0 0.09375)"/>
      <use xlink:href="#DejaVuSans-Oblique-41" transform="translate(60.302734 0.09375)"/>
      <use xlink:href="#DejaVuSans-Oblique-43" transform="translate(128.710938 -16.3125) scale(0.7)"/>
      <use xlink:href="#DejaVuSans-2198" transform="translate(191.225586 -16.3125) scale(0.7)"/>
     </g>
    </g>
    <g id="line2d_54">
     <path d="M 713.9 94.294688 
L 723.9 94.294688 
L 733.9 94.294688 
" style="fill: none; stroke: #000000; stroke-width: 1.5; stroke-linecap: square"/>
     <defs>
      <path id="m4d56157dc5" d="M 0 -5 
L -1.12257 -1.545085 
L -4.755283 -1.545085 
L -1.816356 0.59017 
L -2.938926 4.045085 
L -0 1.90983 
L 2.938926 4.045085 
L 1.816356 0.59017 
L 4.755283 -1.545085 
L 1.12257 -1.545085 
z
" style="stroke: #000000; stroke-linejoin: bevel"/>
     </defs>
     <g>
      <use xlink:href="#m4d56157dc5" x="723.9" y="94.294688" style="stroke: #000000; stroke-linejoin: bevel"/>
     </g>
    </g>
    <g id="text_26">
     <!-- PGA -->
     <g transform="translate(741.9 97.794688) scale(0.1 -0.1)">
      <defs>
       <path id="DejaVuSans-50" d="M 1259 4147 
L 1259 2394 
L 2053 2394 
Q 2494 2394 2734 2622 
Q 2975 2850 2975 3272 
Q 2975 3691 2734 3919 
Q 2494 4147 2053 4147 
L 1259 4147 
z
M 628 4666 
L 2053 4666 
Q 2838 4666 3239 4311 
Q 3641 3956 3641 3272 
Q 3641 2581 3239 2228 
Q 2838 1875 2053 1875 
L 1259 1875 
L 1259 0 
L 628 0 
L 628 4666 
z
" transform="scale(0.015625)"/>
       <path id="DejaVuSans-47" d="M 3809 666 
L 3809 1919 
L 2778 1919 
L 2778 2438 
L 4434 2438 
L 4434 434 
Q 4069 175 3628 42 
Q 3188 -91 2688 -91 
Q 1594 -91 976 548 
Q 359 1188 359 2328 
Q 359 3472 976 4111 
Q 1594 4750 2688 4750 
Q 3144 4750 3555 4637 
Q 3966 4525 4313 4306 
L 4313 3634 
Q 3963 3931 3569 4081 
Q 3175 4231 2741 4231 
Q 1884 4231 1454 3753 
Q 1025 3275 1025 2328 
Q 1025 1384 1454 906 
Q 1884 428 2741 428 
Q 3075 428 3337 486 
Q 3600 544 3809 666 
z
" transform="scale(0.015625)"/>
       <path id="DejaVuSans-41" d="M 2188 4044 
L 1331 1722 
L 3047 1722 
L 2188 4044 
z
M 1831 4666 
L 2547 4666 
L 4325 0 
L 3669 0 
L 3244 1197 
L 1141 1197 
L 716 0 
L 50 0 
L 1831 4666 
z
" transform="scale(0.015625)"/>
      </defs>
      <use xlink:href="#DejaVuSans-50"/>
      <use xlink:href="#DejaVuSans-47" x="60.302734"/>
      <use xlink:href="#DejaVuSans-41" x="137.792969"/>
     </g>
    </g>
   </g>
  </g>
 </g>
 <defs>
  <clipPath id="p4b0d6b5ef7">
   <rect x="108" y="51.84" width="669.6" height="332.64"/>
  </clipPath>
 </defs>
</svg>
