<?xml version="1.0" encoding="utf-8" standalone="no"?>
<!DOCTYPE svg PUBLIC "-//W3C//DTD SVG 1.1//EN"
  "http://www.w3.org/Graphics/SVG/1.1/DTD/svg11.dtd">
<svg xmlns:xlink="http://www.w3.org/1999/xlink" width="864pt" height="432pt" viewBox="0 0 864 432" xmlns="http://www.w3.org/2000/svg" version="1.1">
 <metadata>
  <rdf:RDF xmlns:dc="http://purl.org/dc/elements/1.1/" xmlns:cc="http://creativecommons.org/ns#" xmlns:rdf="http://www.w3.org/1999/02/22-rdf-syntax-ns#">
   <cc:Work>
    <dc:type rdf:resource="http://purl.org/dc/dcmitype/StillImage"/>
    <dc:date>2024-12-30T17:29:53.624858</dc:date>
    <dc:format>image/svg+xml</dc:format>
    <dc:creator>
     <cc:Agent>
      <dc:title>Matplotlib v3.7.1, https://matplotlib.org/</dc:title>
     </cc:Agent>
    </dc:creator>
   </cc:Work>
  </rdf:RDF>
 </metadata>
 <defs>
  <style type="text/css">*{stroke-linejoin: round; stroke-linecap: butt}</style>
 </defs>
 <g id="figure_1">
  <g id="patch_1">
   <path d="M 0 432 
L 864 432 
L 864 0 
L 0 0 
z
" style="fill: #ffffff"/>
  </g>
  <g id="axes_1">
   <g id="patch_2">
    <path d="M 108 384.48 
L 777.6 384.48 
L 777.6 51.84 
L 108 51.84 
z
" style="fill: #ffffff"/>
   </g>
   <g id="matplotlib.axis_1">
    <g id="xtick_1">
     <g id="line2d_1">
      <path d="M 108 384.48 
L 108 51.84 
" clip-path="url(#pb0cc538321)" style="fill: none; stroke: #b0b0b0; stroke-width: 0.8; stroke-linecap: square"/>
     </g>
     <g id="line2d_2">
      <defs>
       <path id="m9882959e3f" d="M 0 0 
L 0 3.5 
" style="stroke: #000000; stroke-width: 0.8"/>
      </defs>
      <g>
       <use xlink:href="#m9882959e3f" x="108" y="384.48" style="stroke: #000000; stroke-width: 0.8"/>
      </g>
     </g>
     <g id="text_1">
      <!-- 0 -->
      <g transform="translate(104.81875 399.078438) scale(0.1 -0.1)">
       <defs>
        <path id="DejaVuSans-30" d="M 2034 4250 
Q 1547 4250 1301 3770 
Q 1056 3291 1056 2328 
Q 1056 1369 1301 889 
Q 1547 409 2034 409 
Q 2525 409 2770 889 
Q 3016 1369 3016 2328 
Q 3016 3291 2770 3770 
Q 2525 4250 2034 4250 
z
M 2034 4750 
Q 2819 4750 3233 4129 
Q 3647 3509 3647 2328 
Q 3647 1150 3233 529 
Q 2819 -91 2034 -91 
Q 1250 -91 836 529 
Q 422 1150 422 2328 
Q 422 3509 836 4129 
Q 1250 4750 2034 4750 
z
" transform="scale(0.015625)"/>
       </defs>
       <use xlink:href="#DejaVuSans-30"/>
      </g>
     </g>
    </g>
    <g id="xtick_2">
     <g id="line2d_3">
      <path d="M 241.92 384.48 
L 241.92 51.84 
" clip-path="url(#pb0cc538321)" style="fill: none; stroke: #b0b0b0; stroke-width: 0.8; stroke-linecap: square"/>
     </g>
     <g id="line2d_4">
      <g>
       <use xlink:href="#m9882959e3f" x="241.92" y="384.48" style="stroke: #000000; stroke-width: 0.8"/>
      </g>
     </g>
     <g id="text_2">
      <!-- 100 -->
      <g transform="translate(232.37625 399.078438) scale(0.1 -0.1)">
       <defs>
        <path id="DejaVuSans-31" d="M 794 531 
L 1825 531 
L 1825 4091 
L 703 3866 
L 703 4441 
L 1819 4666 
L 2450 4666 
L 2450 531 
L 3481 531 
L 3481 0 
L 794 0 
L 794 531 
z
" transform="scale(0.015625)"/>
       </defs>
       <use xlink:href="#DejaVuSans-31"/>
       <use xlink:href="#DejaVuSans-30" x="63.623047"/>
       <use xlink:href="#DejaVuSans-30" x="127.246094"/>
      </g>
     </g>
    </g>
    <g id="xtick_3">
     <g id="line2d_5">
      <path d="M 375.84 384.48 
L 375.84 51.84 
" clip-path="url(#pb0cc538321)" style="fill: none; stroke: #b0b0b0; stroke-width: 0.8; stroke-linecap: square"/>
     </g>
     <g id="line2d_6">
      <g>
       <use xlink:href="#m9882959e3f" x="375.84" y="384.48" style="stroke: #000000; stroke-width: 0.8"/>
      </g>
     </g>
     <g id="text_3">
      <!-- 200 -->
      <g transform="translate(366.29625 399.078438) scale(0.1 -0.1)">
       <defs>
        <path id="DejaVuSans-32" d="M 1228 531 
L 3431 531 
L 3431 0 
L 469 0 
L 469 531 
Q 828 903 1448 1529 
Q 2069 2156 2228 2338 
Q 2531 2678 2651 2914 
Q 2772 3150 2772 3378 
Q 2772 3750 2511 3984 
Q 2250 4219 1831 4219 
Q 1534 4219 1204 4116 
Q 875 4013 500 3803 
L 500 4441 
Q 881 4594 1212 4672 
Q 1544 4750 1819 4750 
Q 2544 4750 2975 4387 
Q 3406 4025 3406 3419 
Q 3406 3131 3298 2873 
Q 3191 2616 2906 2266 
Q 2828 2175 2409 1742 
Q 1991 1309 1228 531 
z
" transform="scale(0.015625)"/>
       </defs>
       <use xlink:href="#DejaVuSans-32"/>
       <use xlink:href="#DejaVuSans-30" x="63.623047"/>
       <use xlink:href="#DejaVuSans-30" x="127.246094"/>
      </g>
     </g>
    </g>
    <g id="xtick_4">
     <g id="line2d_7">
      <path d="M 509.76 384.48 
L 509.76 51.84 
" clip-path="url(#pb0cc538321)" style="fill: none; stroke: #b0b0b0; stroke-width: 0.8; stroke-linecap: square"/>
     </g>
     <g id="line2d_8">
      <g>
       <use xlink:href="#m9882959e3f" x="509.76" y="384.48" style="stroke: #000000; stroke-width: 0.8"/>
      </g>
     </g>
     <g id="text_4">
      <!-- 300 -->
      <g transform="translate(500.21625 399.078438) scale(0.1 -0.1)">
       <defs>
        <path id="DejaVuSans-33" d="M 2597 2516 
Q 3050 2419 3304 2112 
Q 3559 1806 3559 1356 
Q 3559 666 3084 287 
Q 2609 -91 1734 -91 
Q 1441 -91 1130 -33 
Q 819 25 488 141 
L 488 750 
Q 750 597 1062 519 
Q 1375 441 1716 441 
Q 2309 441 2620 675 
Q 2931 909 2931 1356 
Q 2931 1769 2642 2001 
Q 2353 2234 1838 2234 
L 1294 2234 
L 1294 2753 
L 1863 2753 
Q 2328 2753 2575 2939 
Q 2822 3125 2822 3475 
Q 2822 3834 2567 4026 
Q 2313 4219 1838 4219 
Q 1578 4219 1281 4162 
Q 984 4106 628 3988 
L 628 4550 
Q 988 4650 1302 4700 
Q 1616 4750 1894 4750 
Q 2613 4750 3031 4423 
Q 3450 4097 3450 3541 
Q 3450 3153 3228 2886 
Q 3006 2619 2597 2516 
z
" transform="scale(0.015625)"/>
       </defs>
       <use xlink:href="#DejaVuSans-33"/>
       <use xlink:href="#DejaVuSans-30" x="63.623047"/>
       <use xlink:href="#DejaVuSans-30" x="127.246094"/>
      </g>
     </g>
    </g>
    <g id="xtick_5">
     <g id="line2d_9">
      <path d="M 643.68 384.48 
L 643.68 51.84 
" clip-path="url(#pb0cc538321)" style="fill: none; stroke: #b0b0b0; stroke-width: 0.8; stroke-linecap: square"/>
     </g>
     <g id="line2d_10">
      <g>
       <use xlink:href="#m9882959e3f" x="643.68" y="384.48" style="stroke: #000000; stroke-width: 0.8"/>
      </g>
     </g>
     <g id="text_5">
      <!-- 400 -->
      <g transform="translate(634.13625 399.078438) scale(0.1 -0.1)">
       <defs>
        <path id="DejaVuSans-34" d="M 2419 4116 
L 825 1625 
L 2419 1625 
L 2419 4116 
z
M 2253 4666 
L 3047 4666 
L 3047 1625 
L 3713 1625 
L 3713 1100 
L 3047 1100 
L 3047 0 
L 2419 0 
L 2419 1100 
L 313 1100 
L 313 1709 
L 2253 4666 
z
" transform="scale(0.015625)"/>
       </defs>
       <use xlink:href="#DejaVuSans-34"/>
       <use xlink:href="#DejaVuSans-30" x="63.623047"/>
       <use xlink:href="#DejaVuSans-30" x="127.246094"/>
      </g>
     </g>
    </g>
    <g id="xtick_6">
     <g id="line2d_11">
      <path d="M 777.6 384.48 
L 777.6 51.84 
" clip-path="url(#pb0cc538321)" style="fill: none; stroke: #b0b0b0; stroke-width: 0.8; stroke-linecap: square"/>
     </g>
     <g id="line2d_12">
      <g>
       <use xlink:href="#m9882959e3f" x="777.6" y="384.48" style="stroke: #000000; stroke-width: 0.8"/>
      </g>
     </g>
     <g id="text_6">
      <!-- 500 -->
      <g transform="translate(768.05625 399.078438) scale(0.1 -0.1)">
       <defs>
        <path id="DejaVuSans-35" d="M 691 4666 
L 3169 4666 
L 3169 4134 
L 1269 4134 
L 1269 2991 
Q 1406 3038 1543 3061 
Q 1681 3084 1819 3084 
Q 2600 3084 3056 2656 
Q 3513 2228 3513 1497 
Q 3513 744 3044 326 
Q 2575 -91 1722 -91 
Q 1428 -91 1123 -41 
Q 819 9 494 109 
L 494 744 
Q 775 591 1075 516 
Q 1375 441 1709 441 
Q 2250 441 2565 725 
Q 2881 1009 2881 1497 
Q 2881 1984 2565 2268 
Q 2250 2553 1709 2553 
Q 1456 2553 1204 2497 
Q 953 2441 691 2322 
L 691 4666 
z
" transform="scale(0.015625)"/>
       </defs>
       <use xlink:href="#DejaVuSans-35"/>
       <use xlink:href="#DejaVuSans-30" x="63.623047"/>
       <use xlink:href="#DejaVuSans-30" x="127.246094"/>
      </g>
     </g>
    </g>
    <g id="text_7">
     <!-- Computational time [s] -->
     <g transform="translate(356.101172 416.555781) scale(0.15 -0.15)">
      <defs>
       <path id="DejaVuSans-43" d="M 4122 4306 
L 4122 3641 
Q 3803 3938 3442 4084 
Q 3081 4231 2675 4231 
Q 1875 4231 1450 3742 
Q 1025 3253 1025 2328 
Q 1025 1406 1450 917 
Q 1875 428 2675 428 
Q 3081 428 3442 575 
Q 3803 722 4122 1019 
L 4122 359 
Q 3791 134 3420 21 
Q 3050 -91 2638 -91 
Q 1578 -91 968 557 
Q 359 1206 359 2328 
Q 359 3453 968 4101 
Q 1578 4750 2638 4750 
Q 3056 4750 3426 4639 
Q 3797 4528 4122 4306 
z
" transform="scale(0.015625)"/>
       <path id="DejaVuSans-6f" d="M 1959 3097 
Q 1497 3097 1228 2736 
Q 959 2375 959 1747 
Q 959 1119 1226 758 
Q 1494 397 1959 397 
Q 2419 397 2687 759 
Q 2956 1122 2956 1747 
Q 2956 2369 2687 2733 
Q 2419 3097 1959 3097 
z
M 1959 3584 
Q 2709 3584 3137 3096 
Q 3566 2609 3566 1747 
Q 3566 888 3137 398 
Q 2709 -91 1959 -91 
Q 1206 -91 779 398 
Q 353 888 353 1747 
Q 353 2609 779 3096 
Q 1206 3584 1959 3584 
z
" transform="scale(0.015625)"/>
       <path id="DejaVuSans-6d" d="M 3328 2828 
Q 3544 3216 3844 3400 
Q 4144 3584 4550 3584 
Q 5097 3584 5394 3201 
Q 5691 2819 5691 2113 
L 5691 0 
L 5113 0 
L 5113 2094 
Q 5113 2597 4934 2840 
Q 4756 3084 4391 3084 
Q 3944 3084 3684 2787 
Q 3425 2491 3425 1978 
L 3425 0 
L 2847 0 
L 2847 2094 
Q 2847 2600 2669 2842 
Q 2491 3084 2119 3084 
Q 1678 3084 1418 2786 
Q 1159 2488 1159 1978 
L 1159 0 
L 581 0 
L 581 3500 
L 1159 3500 
L 1159 2956 
Q 1356 3278 1631 3431 
Q 1906 3584 2284 3584 
Q 2666 3584 2933 3390 
Q 3200 3197 3328 2828 
z
" transform="scale(0.015625)"/>
       <path id="DejaVuSans-70" d="M 1159 525 
L 1159 -1331 
L 581 -1331 
L 581 3500 
L 1159 3500 
L 1159 2969 
Q 1341 3281 1617 3432 
Q 1894 3584 2278 3584 
Q 2916 3584 3314 3078 
Q 3713 2572 3713 1747 
Q 3713 922 3314 415 
Q 2916 -91 2278 -91 
Q 1894 -91 1617 61 
Q 1341 213 1159 525 
z
M 3116 1747 
Q 3116 2381 2855 2742 
Q 2594 3103 2138 3103 
Q 1681 3103 1420 2742 
Q 1159 2381 1159 1747 
Q 1159 1113 1420 752 
Q 1681 391 2138 391 
Q 2594 391 2855 752 
Q 3116 1113 3116 1747 
z
" transform="scale(0.015625)"/>
       <path id="DejaVuSans-75" d="M 544 1381 
L 544 3500 
L 1119 3500 
L 1119 1403 
Q 1119 906 1312 657 
Q 1506 409 1894 409 
Q 2359 409 2629 706 
Q 2900 1003 2900 1516 
L 2900 3500 
L 3475 3500 
L 3475 0 
L 2900 0 
L 2900 538 
Q 2691 219 2414 64 
Q 2138 -91 1772 -91 
Q 1169 -91 856 284 
Q 544 659 544 1381 
z
M 1991 3584 
L 1991 3584 
z
" transform="scale(0.015625)"/>
       <path id="DejaVuSans-74" d="M 1172 4494 
L 1172 3500 
L 2356 3500 
L 2356 3053 
L 1172 3053 
L 1172 1153 
Q 1172 725 1289 603 
Q 1406 481 1766 481 
L 2356 481 
L 2356 0 
L 1766 0 
Q 1100 0 847 248 
Q 594 497 594 1153 
L 594 3053 
L 172 3053 
L 172 3500 
L 594 3500 
L 594 4494 
L 1172 4494 
z
" transform="scale(0.015625)"/>
       <path id="DejaVuSans-61" d="M 2194 1759 
Q 1497 1759 1228 1600 
Q 959 1441 959 1056 
Q 959 750 1161 570 
Q 1363 391 1709 391 
Q 2188 391 2477 730 
Q 2766 1069 2766 1631 
L 2766 1759 
L 2194 1759 
z
M 3341 1997 
L 3341 0 
L 2766 0 
L 2766 531 
Q 2569 213 2275 61 
Q 1981 -91 1556 -91 
Q 1019 -91 701 211 
Q 384 513 384 1019 
Q 384 1609 779 1909 
Q 1175 2209 1959 2209 
L 2766 2209 
L 2766 2266 
Q 2766 2663 2505 2880 
Q 2244 3097 1772 3097 
Q 1472 3097 1187 3025 
Q 903 2953 641 2809 
L 641 3341 
Q 956 3463 1253 3523 
Q 1550 3584 1831 3584 
Q 2591 3584 2966 3190 
Q 3341 2797 3341 1997 
z
" transform="scale(0.015625)"/>
       <path id="DejaVuSans-69" d="M 603 3500 
L 1178 3500 
L 1178 0 
L 603 0 
L 603 3500 
z
M 603 4863 
L 1178 4863 
L 1178 4134 
L 603 4134 
L 603 4863 
z
" transform="scale(0.015625)"/>
       <path id="DejaVuSans-6e" d="M 3513 2113 
L 3513 0 
L 2938 0 
L 2938 2094 
Q 2938 2591 2744 2837 
Q 2550 3084 2163 3084 
Q 1697 3084 1428 2787 
Q 1159 2491 1159 1978 
L 1159 0 
L 581 0 
L 581 3500 
L 1159 3500 
L 1159 2956 
Q 1366 3272 1645 3428 
Q 1925 3584 2291 3584 
Q 2894 3584 3203 3211 
Q 3513 2838 3513 2113 
z
" transform="scale(0.015625)"/>
       <path id="DejaVuSans-6c" d="M 603 4863 
L 1178 4863 
L 1178 0 
L 603 0 
L 603 4863 
z
" transform="scale(0.015625)"/>
       <path id="DejaVuSans-20" transform="scale(0.015625)"/>
       <path id="DejaVuSans-65" d="M 3597 1894 
L 3597 1613 
L 953 1613 
Q 991 1019 1311 708 
Q 1631 397 2203 397 
Q 2534 397 2845 478 
Q 3156 559 3463 722 
L 3463 178 
Q 3153 47 2828 -22 
Q 2503 -91 2169 -91 
Q 1331 -91 842 396 
Q 353 884 353 1716 
Q 353 2575 817 3079 
Q 1281 3584 2069 3584 
Q 2775 3584 3186 3129 
Q 3597 2675 3597 1894 
z
M 3022 2063 
Q 3016 2534 2758 2815 
Q 2500 3097 2075 3097 
Q 1594 3097 1305 2825 
Q 1016 2553 972 2059 
L 3022 2063 
z
" transform="scale(0.015625)"/>
       <path id="DejaVuSans-5b" d="M 550 4863 
L 1875 4863 
L 1875 4416 
L 1125 4416 
L 1125 -397 
L 1875 -397 
L 1875 -844 
L 550 -844 
L 550 4863 
z
" transform="scale(0.015625)"/>
       <path id="DejaVuSans-73" d="M 2834 3397 
L 2834 2853 
Q 2591 2978 2328 3040 
Q 2066 3103 1784 3103 
Q 1356 3103 1142 2972 
Q 928 2841 928 2578 
Q 928 2378 1081 2264 
Q 1234 2150 1697 2047 
L 1894 2003 
Q 2506 1872 2764 1633 
Q 3022 1394 3022 966 
Q 3022 478 2636 193 
Q 2250 -91 1575 -91 
Q 1294 -91 989 -36 
Q 684 19 347 128 
L 347 722 
Q 666 556 975 473 
Q 1284 391 1588 391 
Q 1994 391 2212 530 
Q 2431 669 2431 922 
Q 2431 1156 2273 1281 
Q 2116 1406 1581 1522 
L 1381 1569 
Q 847 1681 609 1914 
Q 372 2147 372 2553 
Q 372 3047 722 3315 
Q 1072 3584 1716 3584 
Q 2034 3584 2315 3537 
Q 2597 3491 2834 3397 
z
" transform="scale(0.015625)"/>
       <path id="DejaVuSans-5d" d="M 1947 4863 
L 1947 -844 
L 622 -844 
L 622 -397 
L 1369 -397 
L 1369 4416 
L 622 4416 
L 622 4863 
L 1947 4863 
z
" transform="scale(0.015625)"/>
      </defs>
      <use xlink:href="#DejaVuSans-43"/>
      <use xlink:href="#DejaVuSans-6f" x="69.824219"/>
      <use xlink:href="#DejaVuSans-6d" x="131.005859"/>
      <use xlink:href="#DejaVuSans-70" x="228.417969"/>
      <use xlink:href="#DejaVuSans-75" x="291.894531"/>
      <use xlink:href="#DejaVuSans-74" x="355.273438"/>
      <use xlink:href="#DejaVuSans-61" x="394.482422"/>
      <use xlink:href="#DejaVuSans-74" x="455.761719"/>
      <use xlink:href="#DejaVuSans-69" x="494.970703"/>
      <use xlink:href="#DejaVuSans-6f" x="522.753906"/>
      <use xlink:href="#DejaVuSans-6e" x="583.935547"/>
      <use xlink:href="#DejaVuSans-61" x="647.314453"/>
      <use xlink:href="#DejaVuSans-6c" x="708.59375"/>
      <use xlink:href="#DejaVuSans-20" x="736.376953"/>
      <use xlink:href="#DejaVuSans-74" x="768.164062"/>
      <use xlink:href="#DejaVuSans-69" x="807.373047"/>
      <use xlink:href="#DejaVuSans-6d" x="835.15625"/>
      <use xlink:href="#DejaVuSans-65" x="932.568359"/>
      <use xlink:href="#DejaVuSans-20" x="994.091797"/>
      <use xlink:href="#DejaVuSans-5b" x="1025.878906"/>
      <use xlink:href="#DejaVuSans-73" x="1064.892578"/>
      <use xlink:href="#DejaVuSans-5d" x="1116.992188"/>
     </g>
    </g>
   </g>
   <g id="matplotlib.axis_2">
    <g id="ytick_1">
     <g id="line2d_13">
      <path d="M 108 369.36 
L 777.6 369.36 
" clip-path="url(#pb0cc538321)" style="fill: none; stroke: #b0b0b0; stroke-width: 0.8; stroke-linecap: square"/>
     </g>
     <g id="line2d_14">
      <defs>
       <path id="md42cbd2a98" d="M 0 0 
L -3.5 0 
" style="stroke: #000000; stroke-width: 0.8"/>
      </defs>
      <g>
       <use xlink:href="#md42cbd2a98" x="108" y="369.36" style="stroke: #000000; stroke-width: 0.8"/>
      </g>
     </g>
     <g id="text_8">
      <!-- 0.0 -->
      <g transform="translate(85.096875 373.159219) scale(0.1 -0.1)">
       <defs>
        <path id="DejaVuSans-2e" d="M 684 794 
L 1344 794 
L 1344 0 
L 684 0 
L 684 794 
z
" transform="scale(0.015625)"/>
       </defs>
       <use xlink:href="#DejaVuSans-30"/>
       <use xlink:href="#DejaVuSans-2e" x="63.623047"/>
       <use xlink:href="#DejaVuSans-30" x="95.410156"/>
      </g>
     </g>
    </g>
    <g id="ytick_2">
     <g id="line2d_15">
      <path d="M 108 310.072277 
L 777.6 310.072277 
" clip-path="url(#pb0cc538321)" style="fill: none; stroke: #b0b0b0; stroke-width: 0.8; stroke-linecap: square"/>
     </g>
     <g id="line2d_16">
      <g>
       <use xlink:href="#md42cbd2a98" x="108" y="310.072277" style="stroke: #000000; stroke-width: 0.8"/>
      </g>
     </g>
     <g id="text_9">
      <!-- 0.1 -->
      <g transform="translate(85.096875 313.871496) scale(0.1 -0.1)">
       <use xlink:href="#DejaVuSans-30"/>
       <use xlink:href="#DejaVuSans-2e" x="63.623047"/>
       <use xlink:href="#DejaVuSans-31" x="95.410156"/>
      </g>
     </g>
    </g>
    <g id="ytick_3">
     <g id="line2d_17">
      <path d="M 108 250.784554 
L 777.6 250.784554 
" clip-path="url(#pb0cc538321)" style="fill: none; stroke: #b0b0b0; stroke-width: 0.8; stroke-linecap: square"/>
     </g>
     <g id="line2d_18">
      <g>
       <use xlink:href="#md42cbd2a98" x="108" y="250.784554" style="stroke: #000000; stroke-width: 0.8"/>
      </g>
     </g>
     <g id="text_10">
      <!-- 0.2 -->
      <g transform="translate(85.096875 254.583772) scale(0.1 -0.1)">
       <use xlink:href="#DejaVuSans-30"/>
       <use xlink:href="#DejaVuSans-2e" x="63.623047"/>
       <use xlink:href="#DejaVuSans-32" x="95.410156"/>
      </g>
     </g>
    </g>
    <g id="ytick_4">
     <g id="line2d_19">
      <path d="M 108 191.49683 
L 777.6 191.49683 
" clip-path="url(#pb0cc538321)" style="fill: none; stroke: #b0b0b0; stroke-width: 0.8; stroke-linecap: square"/>
     </g>
     <g id="line2d_20">
      <g>
       <use xlink:href="#md42cbd2a98" x="108" y="191.49683" style="stroke: #000000; stroke-width: 0.8"/>
      </g>
     </g>
     <g id="text_11">
      <!-- 0.3 -->
      <g transform="translate(85.096875 195.296049) scale(0.1 -0.1)">
       <use xlink:href="#DejaVuSans-30"/>
       <use xlink:href="#DejaVuSans-2e" x="63.623047"/>
       <use xlink:href="#DejaVuSans-33" x="95.410156"/>
      </g>
     </g>
    </g>
    <g id="ytick_5">
     <g id="line2d_21">
      <path d="M 108 132.209107 
L 777.6 132.209107 
" clip-path="url(#pb0cc538321)" style="fill: none; stroke: #b0b0b0; stroke-width: 0.8; stroke-linecap: square"/>
     </g>
     <g id="line2d_22">
      <g>
       <use xlink:href="#md42cbd2a98" x="108" y="132.209107" style="stroke: #000000; stroke-width: 0.8"/>
      </g>
     </g>
     <g id="text_12">
      <!-- 0.4 -->
      <g transform="translate(85.096875 136.008326) scale(0.1 -0.1)">
       <use xlink:href="#DejaVuSans-30"/>
       <use xlink:href="#DejaVuSans-2e" x="63.623047"/>
       <use xlink:href="#DejaVuSans-34" x="95.410156"/>
      </g>
     </g>
    </g>
    <g id="ytick_6">
     <g id="line2d_23">
      <path d="M 108 72.921384 
L 777.6 72.921384 
" clip-path="url(#pb0cc538321)" style="fill: none; stroke: #b0b0b0; stroke-width: 0.8; stroke-linecap: square"/>
     </g>
     <g id="line2d_24">
      <g>
       <use xlink:href="#md42cbd2a98" x="108" y="72.921384" style="stroke: #000000; stroke-width: 0.8"/>
      </g>
     </g>
     <g id="text_13">
      <!-- 0.5 -->
      <g transform="translate(85.096875 76.720603) scale(0.1 -0.1)">
       <use xlink:href="#DejaVuSans-30"/>
       <use xlink:href="#DejaVuSans-2e" x="63.623047"/>
       <use xlink:href="#DejaVuSans-35" x="95.410156"/>
      </g>
     </g>
    </g>
    <g id="text_14">
     <!-- Objective value -->
     <g transform="translate(77.977344 276.595547) rotate(-90) scale(0.15 -0.15)">
      <defs>
       <path id="DejaVuSans-4f" d="M 2522 4238 
Q 1834 4238 1429 3725 
Q 1025 3213 1025 2328 
Q 1025 1447 1429 934 
Q 1834 422 2522 422 
Q 3209 422 3611 934 
Q 4013 1447 4013 2328 
Q 4013 3213 3611 3725 
Q 3209 4238 2522 4238 
z
M 2522 4750 
Q 3503 4750 4090 4092 
Q 4678 3434 4678 2328 
Q 4678 1225 4090 567 
Q 3503 -91 2522 -91 
Q 1538 -91 948 565 
Q 359 1222 359 2328 
Q 359 3434 948 4092 
Q 1538 4750 2522 4750 
z
" transform="scale(0.015625)"/>
       <path id="DejaVuSans-62" d="M 3116 1747 
Q 3116 2381 2855 2742 
Q 2594 3103 2138 3103 
Q 1681 3103 1420 2742 
Q 1159 2381 1159 1747 
Q 1159 1113 1420 752 
Q 1681 391 2138 391 
Q 2594 391 2855 752 
Q 3116 1113 3116 1747 
z
M 1159 2969 
Q 1341 3281 1617 3432 
Q 1894 3584 2278 3584 
Q 2916 3584 3314 3078 
Q 3713 2572 3713 1747 
Q 3713 922 3314 415 
Q 2916 -91 2278 -91 
Q 1894 -91 1617 61 
Q 1341 213 1159 525 
L 1159 0 
L 581 0 
L 581 4863 
L 1159 4863 
L 1159 2969 
z
" transform="scale(0.015625)"/>
       <path id="DejaVuSans-6a" d="M 603 3500 
L 1178 3500 
L 1178 -63 
Q 1178 -731 923 -1031 
Q 669 -1331 103 -1331 
L -116 -1331 
L -116 -844 
L 38 -844 
Q 366 -844 484 -692 
Q 603 -541 603 -63 
L 603 3500 
z
M 603 4863 
L 1178 4863 
L 1178 4134 
L 603 4134 
L 603 4863 
z
" transform="scale(0.015625)"/>
       <path id="DejaVuSans-63" d="M 3122 3366 
L 3122 2828 
Q 2878 2963 2633 3030 
Q 2388 3097 2138 3097 
Q 1578 3097 1268 2742 
Q 959 2388 959 1747 
Q 959 1106 1268 751 
Q 1578 397 2138 397 
Q 2388 397 2633 464 
Q 2878 531 3122 666 
L 3122 134 
Q 2881 22 2623 -34 
Q 2366 -91 2075 -91 
Q 1284 -91 818 406 
Q 353 903 353 1747 
Q 353 2603 823 3093 
Q 1294 3584 2113 3584 
Q 2378 3584 2631 3529 
Q 2884 3475 3122 3366 
z
" transform="scale(0.015625)"/>
       <path id="DejaVuSans-76" d="M 191 3500 
L 800 3500 
L 1894 563 
L 2988 3500 
L 3597 3500 
L 2284 0 
L 1503 0 
L 191 3500 
z
" transform="scale(0.015625)"/>
      </defs>
      <use xlink:href="#DejaVuSans-4f"/>
      <use xlink:href="#DejaVuSans-62" x="78.710938"/>
      <use xlink:href="#DejaVuSans-6a" x="142.1875"/>
      <use xlink:href="#DejaVuSans-65" x="169.970703"/>
      <use xlink:href="#DejaVuSans-63" x="231.494141"/>
      <use xlink:href="#DejaVuSans-74" x="286.474609"/>
      <use xlink:href="#DejaVuSans-69" x="325.683594"/>
      <use xlink:href="#DejaVuSans-76" x="353.466797"/>
      <use xlink:href="#DejaVuSans-65" x="412.646484"/>
      <use xlink:href="#DejaVuSans-20" x="474.169922"/>
      <use xlink:href="#DejaVuSans-76" x="505.957031"/>
      <use xlink:href="#DejaVuSans-61" x="565.136719"/>
      <use xlink:href="#DejaVuSans-6c" x="626.416016"/>
      <use xlink:href="#DejaVuSans-75" x="654.199219"/>
      <use xlink:href="#DejaVuSans-65" x="717.578125"/>
     </g>
    </g>
   </g>
   <g id="line2d_25">
    <path d="M 146.673016 132.433908 
" clip-path="url(#pb0cc538321)" style="fill: none; stroke-dasharray: 5.55,2.4; stroke-dashoffset: 0; stroke: #36ff33; stroke-width: 1.5"/>
    <defs>
     <path id="me584bb034a" d="M 0 3.5 
C 0.928211 3.5 1.81853 3.131218 2.474874 2.474874 
C 3.131218 1.81853 3.5 0.928211 3.5 0 
C 3.5 -0.928211 3.131218 -1.81853 2.474874 -2.474874 
C 1.81853 -3.131218 0.928211 -3.5 0 -3.5 
C -0.928211 -3.5 -1.81853 -3.131218 -2.474874 -2.474874 
C -3.131218 -1.81853 -3.5 -0.928211 -3.5 0 
C -3.5 0.928211 -3.131218 1.81853 -2.474874 2.474874 
C -1.81853 3.131218 -0.928211 3.5 0 3.5 
z
" style="stroke: #36ff33"/>
    </defs>
    <g clip-path="url(#pb0cc538321)">
     <use xlink:href="#me584bb034a" x="146.673016" y="132.433908" style="fill: #36ff33; stroke: #36ff33"/>
    </g>
   </g>
   <g id="line2d_26">
    <path d="M 146.673016 132.433908 
L 777.6 132.433908 
" clip-path="url(#pb0cc538321)" style="fill: none; stroke-dasharray: 5.55,2.4; stroke-dashoffset: 0; stroke: #36ff33; stroke-width: 1.5"/>
   </g>
   <g id="line2d_27">
    <path d="M 144.217647 132.433908 
L 181.723379 69.649346 
L 218.705059 69.011915 
L 258.735661 68.847839 
L 295.20587 68.79045 
L 331.771783 68.767021 
L 368.00991 68.756419 
L 405.948926 68.751225 
L 443.633398 68.74861 
L 482.822543 68.747196 
L 519.317506 68.746383 
L 557.283489 68.745924 
L 593.875859 68.745677 
L 630.307994 68.745535 
L 667.126958 68.745429 
L 703.726413 68.745429 
L 740.724817 68.745358 
L 777.054361 68.745323 
L 813.570478 68.745288 
" clip-path="url(#pb0cc538321)" style="fill: none; stroke: #36ff33; stroke-width: 1.5; stroke-linecap: square"/>
    <defs>
     <path id="m29c23f66e4" d="M 0 -5 
L -1.12257 -1.545085 
L -4.755283 -1.545085 
L -1.816356 0.59017 
L -2.938926 4.045085 
L -0 1.90983 
L 2.938926 4.045085 
L 1.816356 0.59017 
L 4.755283 -1.545085 
L 1.12257 -1.545085 
z
" style="stroke: #36ff33; stroke-linejoin: bevel"/>
    </defs>
    <g clip-path="url(#pb0cc538321)">
     <use xlink:href="#m29c23f66e4" x="144.217647" y="132.433908" style="fill: #36ff33; stroke: #36ff33; stroke-linejoin: bevel"/>
     <use xlink:href="#m29c23f66e4" x="181.723379" y="69.649346" style="fill: #36ff33; stroke: #36ff33; stroke-linejoin: bevel"/>
     <use xlink:href="#m29c23f66e4" x="218.705059" y="69.011915" style="fill: #36ff33; stroke: #36ff33; stroke-linejoin: bevel"/>
     <use xlink:href="#m29c23f66e4" x="258.735661" y="68.847839" style="fill: #36ff33; stroke: #36ff33; stroke-linejoin: bevel"/>
     <use xlink:href="#m29c23f66e4" x="295.20587" y="68.79045" style="fill: #36ff33; stroke: #36ff33; stroke-linejoin: bevel"/>
     <use xlink:href="#m29c23f66e4" x="331.771783" y="68.767021" style="fill: #36ff33; stroke: #36ff33; stroke-linejoin: bevel"/>
     <use xlink:href="#m29c23f66e4" x="368.00991" y="68.756419" style="fill: #36ff33; stroke: #36ff33; stroke-linejoin: bevel"/>
     <use xlink:href="#m29c23f66e4" x="405.948926" y="68.751225" style="fill: #36ff33; stroke: #36ff33; stroke-linejoin: bevel"/>
     <use xlink:href="#m29c23f66e4" x="443.633398" y="68.74861" style="fill: #36ff33; stroke: #36ff33; stroke-linejoin: bevel"/>
     <use xlink:href="#m29c23f66e4" x="482.822543" y="68.747196" style="fill: #36ff33; stroke: #36ff33; stroke-linejoin: bevel"/>
     <use xlink:href="#m29c23f66e4" x="519.317506" y="68.746383" style="fill: #36ff33; stroke: #36ff33; stroke-linejoin: bevel"/>
     <use xlink:href="#m29c23f66e4" x="557.283489" y="68.745924" style="fill: #36ff33; stroke: #36ff33; stroke-linejoin: bevel"/>
     <use xlink:href="#m29c23f66e4" x="593.875859" y="68.745677" style="fill: #36ff33; stroke: #36ff33; stroke-linejoin: bevel"/>
     <use xlink:href="#m29c23f66e4" x="630.307994" y="68.745535" style="fill: #36ff33; stroke: #36ff33; stroke-linejoin: bevel"/>
     <use xlink:href="#m29c23f66e4" x="667.126958" y="68.745429" style="fill: #36ff33; stroke: #36ff33; stroke-linejoin: bevel"/>
     <use xlink:href="#m29c23f66e4" x="703.726413" y="68.745429" style="fill: #36ff33; stroke: #36ff33; stroke-linejoin: bevel"/>
     <use xlink:href="#m29c23f66e4" x="740.724817" y="68.745358" style="fill: #36ff33; stroke: #36ff33; stroke-linejoin: bevel"/>
     <use xlink:href="#m29c23f66e4" x="777.054361" y="68.745323" style="fill: #36ff33; stroke: #36ff33; stroke-linejoin: bevel"/>
     <use xlink:href="#m29c23f66e4" x="813.570478" y="68.745288" style="fill: #36ff33; stroke: #36ff33; stroke-linejoin: bevel"/>
    </g>
   </g>
   <g id="line2d_28">
    <path d="M 145.056447 153.198974 
" clip-path="url(#pb0cc538321)" style="fill: none; stroke-dasharray: 5.55,2.4; stroke-dashoffset: 0; stroke: #b6c800; stroke-width: 1.5"/>
    <defs>
     <path id="m355d9e09e8" d="M 0 3.5 
C 0.928211 3.5 1.81853 3.131218 2.474874 2.474874 
C 3.131218 1.81853 3.5 0.928211 3.5 0 
C 3.5 -0.928211 3.131218 -1.81853 2.474874 -2.474874 
C 1.81853 -3.131218 0.928211 -3.5 0 -3.5 
C -0.928211 -3.5 -1.81853 -3.131218 -2.474874 -2.474874 
C -3.131218 -1.81853 -3.5 -0.928211 -3.5 0 
C -3.5 0.928211 -3.131218 1.81853 -2.474874 2.474874 
C -1.81853 3.131218 -0.928211 3.5 0 3.5 
z
" style="stroke: #b6c800"/>
    </defs>
    <g clip-path="url(#pb0cc538321)">
     <use xlink:href="#m355d9e09e8" x="145.056447" y="153.198974" style="fill: #b6c800; stroke: #b6c800"/>
    </g>
   </g>
   <g id="line2d_29">
    <path d="M 145.056447 153.198974 
L 777.6 153.198974 
" clip-path="url(#pb0cc538321)" style="fill: none; stroke-dasharray: 5.55,2.4; stroke-dashoffset: 0; stroke: #b6c800; stroke-width: 1.5"/>
   </g>
   <g id="line2d_30">
    <path d="M 146.002693 153.198974 
L 182.725518 70.176239 
L 220.664723 69.202141 
L 256.947052 68.931026 
L 293.346024 68.830948 
L 332.217408 68.788118 
L 369.807934 68.767975 
L 407.258041 68.757833 
L 444.683583 68.752532 
L 483.192817 68.749528 
L 521.406224 68.747832 
L 561.229447 68.746843 
L 598.166516 68.746277 
L 635.767331 68.745924 
L 672.460691 68.745712 
L 709.270024 68.74557 
L 745.506841 68.745464 
L 782.98771 68.745394 
" clip-path="url(#pb0cc538321)" style="fill: none; stroke: #b6c800; stroke-width: 1.5; stroke-linecap: square"/>
    <defs>
     <path id="m9527ad8782" d="M 0 -5 
L -1.12257 -1.545085 
L -4.755283 -1.545085 
L -1.816356 0.59017 
L -2.938926 4.045085 
L -0 1.90983 
L 2.938926 4.045085 
L 1.816356 0.59017 
L 4.755283 -1.545085 
L 1.12257 -1.545085 
z
" style="stroke: #b6c800; stroke-linejoin: bevel"/>
    </defs>
    <g clip-path="url(#pb0cc538321)">
     <use xlink:href="#m9527ad8782" x="146.002693" y="153.198974" style="fill: #b6c800; stroke: #b6c800; stroke-linejoin: bevel"/>
     <use xlink:href="#m9527ad8782" x="182.725518" y="70.176239" style="fill: #b6c800; stroke: #b6c800; stroke-linejoin: bevel"/>
     <use xlink:href="#m9527ad8782" x="220.664723" y="69.202141" style="fill: #b6c800; stroke: #b6c800; stroke-linejoin: bevel"/>
     <use xlink:href="#m9527ad8782" x="256.947052" y="68.931026" style="fill: #b6c800; stroke: #b6c800; stroke-linejoin: bevel"/>
     <use xlink:href="#m9527ad8782" x="293.346024" y="68.830948" style="fill: #b6c800; stroke: #b6c800; stroke-linejoin: bevel"/>
     <use xlink:href="#m9527ad8782" x="332.217408" y="68.788118" style="fill: #b6c800; stroke: #b6c800; stroke-linejoin: bevel"/>
     <use xlink:href="#m9527ad8782" x="369.807934" y="68.767975" style="fill: #b6c800; stroke: #b6c800; stroke-linejoin: bevel"/>
     <use xlink:href="#m9527ad8782" x="407.258041" y="68.757833" style="fill: #b6c800; stroke: #b6c800; stroke-linejoin: bevel"/>
     <use xlink:href="#m9527ad8782" x="444.683583" y="68.752532" style="fill: #b6c800; stroke: #b6c800; stroke-linejoin: bevel"/>
     <use xlink:href="#m9527ad8782" x="483.192817" y="68.749528" style="fill: #b6c800; stroke: #b6c800; stroke-linejoin: bevel"/>
     <use xlink:href="#m9527ad8782" x="521.406224" y="68.747832" style="fill: #b6c800; stroke: #b6c800; stroke-linejoin: bevel"/>
     <use xlink:href="#m9527ad8782" x="561.229447" y="68.746843" style="fill: #b6c800; stroke: #b6c800; stroke-linejoin: bevel"/>
     <use xlink:href="#m9527ad8782" x="598.166516" y="68.746277" style="fill: #b6c800; stroke: #b6c800; stroke-linejoin: bevel"/>
     <use xlink:href="#m9527ad8782" x="635.767331" y="68.745924" style="fill: #b6c800; stroke: #b6c800; stroke-linejoin: bevel"/>
     <use xlink:href="#m9527ad8782" x="672.460691" y="68.745712" style="fill: #b6c800; stroke: #b6c800; stroke-linejoin: bevel"/>
     <use xlink:href="#m9527ad8782" x="709.270024" y="68.74557" style="fill: #b6c800; stroke: #b6c800; stroke-linejoin: bevel"/>
     <use xlink:href="#m9527ad8782" x="745.506841" y="68.745464" style="fill: #b6c800; stroke: #b6c800; stroke-linejoin: bevel"/>
     <use xlink:href="#m9527ad8782" x="782.98771" y="68.745394" style="fill: #b6c800; stroke: #b6c800; stroke-linejoin: bevel"/>
    </g>
   </g>
   <g id="line2d_31">
    <path d="M 145.674929 194.3054 
" clip-path="url(#pb0cc538321)" style="fill: none; stroke-dasharray: 5.55,2.4; stroke-dashoffset: 0; stroke: #f119c3; stroke-width: 1.5"/>
    <defs>
     <path id="m664bb63382" d="M 0 3.5 
C 0.928211 3.5 1.81853 3.131218 2.474874 2.474874 
C 3.131218 1.81853 3.5 0.928211 3.5 0 
C 3.5 -0.928211 3.131218 -1.81853 2.474874 -2.474874 
C 1.81853 -3.131218 0.928211 -3.5 0 -3.5 
C -0.928211 -3.5 -1.81853 -3.131218 -2.474874 -2.474874 
C -3.131218 -1.81853 -3.5 -0.928211 -3.5 0 
C -3.5 0.928211 -3.131218 1.81853 -2.474874 2.474874 
C -1.81853 3.131218 -0.928211 3.5 0 3.5 
z
" style="stroke: #f119c3"/>
    </defs>
    <g clip-path="url(#pb0cc538321)">
     <use xlink:href="#m664bb63382" x="145.674929" y="194.3054" style="fill: #f119c3; stroke: #f119c3"/>
    </g>
   </g>
   <g id="line2d_32">
    <path d="M 145.674929 194.3054 
L 777.6 194.3054 
" clip-path="url(#pb0cc538321)" style="fill: none; stroke-dasharray: 5.55,2.4; stroke-dashoffset: 0; stroke: #f119c3; stroke-width: 1.5"/>
   </g>
   <g id="line2d_33">
    <path d="M 145.540721 194.3054 
L 181.793352 71.355441 
L 218.824029 69.688359 
L 257.136892 69.165247 
L 293.753319 68.95396 
L 333.998428 68.856603 
L 370.868324 68.80773 
L 411.258003 68.781686 
L 448.461609 68.767162 
L 490.533839 68.758787 
L 528.294794 68.753804 
L 565.249531 68.750765 
L 602.256811 68.748857 
L 639.475366 68.747655 
L 675.587343 68.746878 
L 713.57915 68.746383 
L 750.230576 68.74603 
L 787.508398 68.745818 
" clip-path="url(#pb0cc538321)" style="fill: none; stroke: #f119c3; stroke-width: 1.5; stroke-linecap: square"/>
    <defs>
     <path id="m5b54cbddae" d="M 0 -5 
L -1.12257 -1.545085 
L -4.755283 -1.545085 
L -1.816356 0.59017 
L -2.938926 4.045085 
L -0 1.90983 
L 2.938926 4.045085 
L 1.816356 0.59017 
L 4.755283 -1.545085 
L 1.12257 -1.545085 
z
" style="stroke: #f119c3; stroke-linejoin: bevel"/>
    </defs>
    <g clip-path="url(#pb0cc538321)">
     <use xlink:href="#m5b54cbddae" x="145.540721" y="194.3054" style="fill: #f119c3; stroke: #f119c3; stroke-linejoin: bevel"/>
     <use xlink:href="#m5b54cbddae" x="181.793352" y="71.355441" style="fill: #f119c3; stroke: #f119c3; stroke-linejoin: bevel"/>
     <use xlink:href="#m5b54cbddae" x="218.824029" y="69.688359" style="fill: #f119c3; stroke: #f119c3; stroke-linejoin: bevel"/>
     <use xlink:href="#m5b54cbddae" x="257.136892" y="69.165247" style="fill: #f119c3; stroke: #f119c3; stroke-linejoin: bevel"/>
     <use xlink:href="#m5b54cbddae" x="293.753319" y="68.95396" style="fill: #f119c3; stroke: #f119c3; stroke-linejoin: bevel"/>
     <use xlink:href="#m5b54cbddae" x="333.998428" y="68.856603" style="fill: #f119c3; stroke: #f119c3; stroke-linejoin: bevel"/>
     <use xlink:href="#m5b54cbddae" x="370.868324" y="68.80773" style="fill: #f119c3; stroke: #f119c3; stroke-linejoin: bevel"/>
     <use xlink:href="#m5b54cbddae" x="411.258003" y="68.781686" style="fill: #f119c3; stroke: #f119c3; stroke-linejoin: bevel"/>
     <use xlink:href="#m5b54cbddae" x="448.461609" y="68.767162" style="fill: #f119c3; stroke: #f119c3; stroke-linejoin: bevel"/>
     <use xlink:href="#m5b54cbddae" x="490.533839" y="68.758787" style="fill: #f119c3; stroke: #f119c3; stroke-linejoin: bevel"/>
     <use xlink:href="#m5b54cbddae" x="528.294794" y="68.753804" style="fill: #f119c3; stroke: #f119c3; stroke-linejoin: bevel"/>
     <use xlink:href="#m5b54cbddae" x="565.249531" y="68.750765" style="fill: #f119c3; stroke: #f119c3; stroke-linejoin: bevel"/>
     <use xlink:href="#m5b54cbddae" x="602.256811" y="68.748857" style="fill: #f119c3; stroke: #f119c3; stroke-linejoin: bevel"/>
     <use xlink:href="#m5b54cbddae" x="639.475366" y="68.747655" style="fill: #f119c3; stroke: #f119c3; stroke-linejoin: bevel"/>
     <use xlink:href="#m5b54cbddae" x="675.587343" y="68.746878" style="fill: #f119c3; stroke: #f119c3; stroke-linejoin: bevel"/>
     <use xlink:href="#m5b54cbddae" x="713.57915" y="68.746383" style="fill: #f119c3; stroke: #f119c3; stroke-linejoin: bevel"/>
     <use xlink:href="#m5b54cbddae" x="750.230576" y="68.74603" style="fill: #f119c3; stroke: #f119c3; stroke-linejoin: bevel"/>
     <use xlink:href="#m5b54cbddae" x="787.508398" y="68.745818" style="fill: #f119c3; stroke: #f119c3; stroke-linejoin: bevel"/>
    </g>
   </g>
   <g id="line2d_34">
    <path d="M 147.039445 315.70376 
" clip-path="url(#pb0cc538321)" style="fill: none; stroke-dasharray: 5.55,2.4; stroke-dashoffset: 0; stroke: #0d5915; stroke-width: 1.5"/>
    <defs>
     <path id="m7670fc894f" d="M 0 3.5 
C 0.928211 3.5 1.81853 3.131218 2.474874 2.474874 
C 3.131218 1.81853 3.5 0.928211 3.5 0 
C 3.5 -0.928211 3.131218 -1.81853 2.474874 -2.474874 
C 1.81853 -3.131218 0.928211 -3.5 0 -3.5 
C -0.928211 -3.5 -1.81853 -3.131218 -2.474874 -2.474874 
C -3.131218 -1.81853 -3.5 -0.928211 -3.5 0 
C -3.5 0.928211 -3.131218 1.81853 -2.474874 2.474874 
C -1.81853 3.131218 -0.928211 3.5 0 3.5 
z
" style="stroke: #0d5915"/>
    </defs>
    <g clip-path="url(#pb0cc538321)">
     <use xlink:href="#m7670fc894f" x="147.039445" y="315.70376" style="fill: #0d5915; stroke: #0d5915"/>
    </g>
   </g>
   <g id="line2d_35">
    <path d="M 147.039445 315.70376 
L 777.6 315.70376 
" clip-path="url(#pb0cc538321)" style="fill: none; stroke-dasharray: 5.55,2.4; stroke-dashoffset: 0; stroke: #0d5915; stroke-width: 1.5"/>
   </g>
   <g id="line2d_36">
    <path d="M 145.452936 315.70376 
L 183.695261 75.559472 
L 221.841148 70.725289 
L 259.375877 68.94145 
L 296.574956 68.097326 
L 334.588716 67.648778 
L 370.529865 67.392611 
L 407.839329 67.238854 
L 444.984927 67.143052 
L 482.934302 67.081599 
L 520.382856 67.041243 
L 556.262842 67.014209 
L 593.488056 66.995762 
L 631.651204 66.983005 
L 667.88569 66.9741 
L 704.190889 66.967774 
L 741.422177 66.963251 
L 777.875344 66.96 
" clip-path="url(#pb0cc538321)" style="fill: none; stroke: #0d5915; stroke-width: 1.5; stroke-linecap: square"/>
    <defs>
     <path id="m22fcbeab96" d="M 0 -5 
L -1.12257 -1.545085 
L -4.755283 -1.545085 
L -1.816356 0.59017 
L -2.938926 4.045085 
L -0 1.90983 
L 2.938926 4.045085 
L 1.816356 0.59017 
L 4.755283 -1.545085 
L 1.12257 -1.545085 
z
" style="stroke: #0d5915; stroke-linejoin: bevel"/>
    </defs>
    <g clip-path="url(#pb0cc538321)">
     <use xlink:href="#m22fcbeab96" x="145.452936" y="315.70376" style="fill: #0d5915; stroke: #0d5915; stroke-linejoin: bevel"/>
     <use xlink:href="#m22fcbeab96" x="183.695261" y="75.559472" style="fill: #0d5915; stroke: #0d5915; stroke-linejoin: bevel"/>
     <use xlink:href="#m22fcbeab96" x="221.841148" y="70.725289" style="fill: #0d5915; stroke: #0d5915; stroke-linejoin: bevel"/>
     <use xlink:href="#m22fcbeab96" x="259.375877" y="68.94145" style="fill: #0d5915; stroke: #0d5915; stroke-linejoin: bevel"/>
     <use xlink:href="#m22fcbeab96" x="296.574956" y="68.097326" style="fill: #0d5915; stroke: #0d5915; stroke-linejoin: bevel"/>
     <use xlink:href="#m22fcbeab96" x="334.588716" y="67.648778" style="fill: #0d5915; stroke: #0d5915; stroke-linejoin: bevel"/>
     <use xlink:href="#m22fcbeab96" x="370.529865" y="67.392611" style="fill: #0d5915; stroke: #0d5915; stroke-linejoin: bevel"/>
     <use xlink:href="#m22fcbeab96" x="407.839329" y="67.238854" style="fill: #0d5915; stroke: #0d5915; stroke-linejoin: bevel"/>
     <use xlink:href="#m22fcbeab96" x="444.984927" y="67.143052" style="fill: #0d5915; stroke: #0d5915; stroke-linejoin: bevel"/>
     <use xlink:href="#m22fcbeab96" x="482.934302" y="67.081599" style="fill: #0d5915; stroke: #0d5915; stroke-linejoin: bevel"/>
     <use xlink:href="#m22fcbeab96" x="520.382856" y="67.041243" style="fill: #0d5915; stroke: #0d5915; stroke-linejoin: bevel"/>
     <use xlink:href="#m22fcbeab96" x="556.262842" y="67.014209" style="fill: #0d5915; stroke: #0d5915; stroke-linejoin: bevel"/>
     <use xlink:href="#m22fcbeab96" x="593.488056" y="66.995762" style="fill: #0d5915; stroke: #0d5915; stroke-linejoin: bevel"/>
     <use xlink:href="#m22fcbeab96" x="631.651204" y="66.983005" style="fill: #0d5915; stroke: #0d5915; stroke-linejoin: bevel"/>
     <use xlink:href="#m22fcbeab96" x="667.88569" y="66.9741" style="fill: #0d5915; stroke: #0d5915; stroke-linejoin: bevel"/>
     <use xlink:href="#m22fcbeab96" x="704.190889" y="66.967774" style="fill: #0d5915; stroke: #0d5915; stroke-linejoin: bevel"/>
     <use xlink:href="#m22fcbeab96" x="741.422177" y="66.963251" style="fill: #0d5915; stroke: #0d5915; stroke-linejoin: bevel"/>
     <use xlink:href="#m22fcbeab96" x="777.875344" y="66.96" style="fill: #0d5915; stroke: #0d5915; stroke-linejoin: bevel"/>
    </g>
   </g>
   <g id="line2d_37">
    <path d="M 144.550643 369.36 
" clip-path="url(#pb0cc538321)" style="fill: none; stroke-dasharray: 5.55,2.4; stroke-dashoffset: 0; stroke: #e31d1d; stroke-width: 1.5"/>
    <defs>
     <path id="m377a42376f" d="M 0 3.5 
C 0.928211 3.5 1.81853 3.131218 2.474874 2.474874 
C 3.131218 1.81853 3.5 0.928211 3.5 0 
C 3.5 -0.928211 3.131218 -1.81853 2.474874 -2.474874 
C 1.81853 -3.131218 0.928211 -3.5 0 -3.5 
C -0.928211 -3.5 -1.81853 -3.131218 -2.474874 -2.474874 
C -3.131218 -1.81853 -3.5 -0.928211 -3.5 0 
C -3.5 0.928211 -3.131218 1.81853 -2.474874 2.474874 
C -1.81853 3.131218 -0.928211 3.5 0 3.5 
z
" style="stroke: #e31d1d"/>
    </defs>
    <g clip-path="url(#pb0cc538321)">
     <use xlink:href="#m377a42376f" x="144.550643" y="369.36" style="fill: #e31d1d; stroke: #e31d1d"/>
    </g>
   </g>
   <g id="line2d_38">
    <path d="M 144.550643 369.36 
L 777.6 369.36 
" clip-path="url(#pb0cc538321)" style="fill: none; stroke-dasharray: 5.55,2.4; stroke-dashoffset: 0; stroke: #e31d1d; stroke-width: 1.5"/>
   </g>
   <g id="line2d_39">
    <path d="M 144.106264 369.36 
L 181.514126 338.699638 
L 218.628748 179.394785 
L 254.479461 106.508417 
L 290.518106 85.077084 
L 327.383632 77.083539 
L 363.116924 73.572067 
L 399.207842 71.818866 
L 436.047493 70.846287 
L 472.066823 70.257835 
L 509.660271 69.875793 
L 545.767313 69.613654 
L 583.044303 69.425832 
L 622.338031 69.286846 
L 659.304824 69.181291 
L 695.939161 69.099554 
L 732.436471 69.035344 
L 768.694011 68.984316 
L 805.146716 68.943323 
" clip-path="url(#pb0cc538321)" style="fill: none; stroke: #e31d1d; stroke-width: 1.5; stroke-linecap: square"/>
    <defs>
     <path id="m804456e47c" d="M 0 -5 
L -1.12257 -1.545085 
L -4.755283 -1.545085 
L -1.816356 0.59017 
L -2.938926 4.045085 
L -0 1.90983 
L 2.938926 4.045085 
L 1.816356 0.59017 
L 4.755283 -1.545085 
L 1.12257 -1.545085 
z
" style="stroke: #e31d1d; stroke-linejoin: bevel"/>
    </defs>
    <g clip-path="url(#pb0cc538321)">
     <use xlink:href="#m804456e47c" x="144.106264" y="369.36" style="fill: #e31d1d; stroke: #e31d1d; stroke-linejoin: bevel"/>
     <use xlink:href="#m804456e47c" x="181.514126" y="338.699638" style="fill: #e31d1d; stroke: #e31d1d; stroke-linejoin: bevel"/>
     <use xlink:href="#m804456e47c" x="218.628748" y="179.394785" style="fill: #e31d1d; stroke: #e31d1d; stroke-linejoin: bevel"/>
     <use xlink:href="#m804456e47c" x="254.479461" y="106.508417" style="fill: #e31d1d; stroke: #e31d1d; stroke-linejoin: bevel"/>
     <use xlink:href="#m804456e47c" x="290.518106" y="85.077084" style="fill: #e31d1d; stroke: #e31d1d; stroke-linejoin: bevel"/>
     <use xlink:href="#m804456e47c" x="327.383632" y="77.083539" style="fill: #e31d1d; stroke: #e31d1d; stroke-linejoin: bevel"/>
     <use xlink:href="#m804456e47c" x="363.116924" y="73.572067" style="fill: #e31d1d; stroke: #e31d1d; stroke-linejoin: bevel"/>
     <use xlink:href="#m804456e47c" x="399.207842" y="71.818866" style="fill: #e31d1d; stroke: #e31d1d; stroke-linejoin: bevel"/>
     <use xlink:href="#m804456e47c" x="436.047493" y="70.846287" style="fill: #e31d1d; stroke: #e31d1d; stroke-linejoin: bevel"/>
     <use xlink:href="#m804456e47c" x="472.066823" y="70.257835" style="fill: #e31d1d; stroke: #e31d1d; stroke-linejoin: bevel"/>
     <use xlink:href="#m804456e47c" x="509.660271" y="69.875793" style="fill: #e31d1d; stroke: #e31d1d; stroke-linejoin: bevel"/>
     <use xlink:href="#m804456e47c" x="545.767313" y="69.613654" style="fill: #e31d1d; stroke: #e31d1d; stroke-linejoin: bevel"/>
     <use xlink:href="#m804456e47c" x="583.044303" y="69.425832" style="fill: #e31d1d; stroke: #e31d1d; stroke-linejoin: bevel"/>
     <use xlink:href="#m804456e47c" x="622.338031" y="69.286846" style="fill: #e31d1d; stroke: #e31d1d; stroke-linejoin: bevel"/>
     <use xlink:href="#m804456e47c" x="659.304824" y="69.181291" style="fill: #e31d1d; stroke: #e31d1d; stroke-linejoin: bevel"/>
     <use xlink:href="#m804456e47c" x="695.939161" y="69.099554" style="fill: #e31d1d; stroke: #e31d1d; stroke-linejoin: bevel"/>
     <use xlink:href="#m804456e47c" x="732.436471" y="69.035344" style="fill: #e31d1d; stroke: #e31d1d; stroke-linejoin: bevel"/>
     <use xlink:href="#m804456e47c" x="768.694011" y="68.984316" style="fill: #e31d1d; stroke: #e31d1d; stroke-linejoin: bevel"/>
     <use xlink:href="#m804456e47c" x="805.146716" y="68.943323" style="fill: #e31d1d; stroke: #e31d1d; stroke-linejoin: bevel"/>
    </g>
   </g>
   <g id="patch_3">
    <path d="M 108 384.48 
L 108 51.84 
" style="fill: none; stroke: #000000; stroke-width: 0.8; stroke-linejoin: miter; stroke-linecap: square"/>
   </g>
   <g id="patch_4">
    <path d="M 777.6 384.48 
L 777.6 51.84 
" style="fill: none; stroke: #000000; stroke-width: 0.8; stroke-linejoin: miter; stroke-linecap: square"/>
   </g>
   <g id="patch_5">
    <path d="M 108 384.48 
L 777.6 384.48 
" style="fill: none; stroke: #000000; stroke-width: 0.8; stroke-linejoin: miter; stroke-linecap: square"/>
   </g>
   <g id="patch_6">
    <path d="M 108 51.84 
L 777.6 51.84 
" style="fill: none; stroke: #000000; stroke-width: 0.8; stroke-linejoin: miter; stroke-linecap: square"/>
   </g>
   <g id="legend_1">
    <g id="patch_7">
     <path d="M 115 147.90875 
L 184.628125 147.90875 
Q 186.628125 147.90875 186.628125 145.90875 
L 186.628125 58.84 
Q 186.628125 56.84 184.628125 56.84 
L 115 56.84 
Q 113 56.84 113 58.84 
L 113 145.90875 
Q 113 147.90875 115 147.90875 
z
" style="fill: #ffffff; opacity: 0.8; stroke: #cccccc; stroke-linejoin: miter"/>
    </g>
    <g id="text_15">
     <!-- C values -->
     <g transform="translate(128.471094 68.438437) scale(0.1 -0.1)">
      <use xlink:href="#DejaVuSans-43"/>
      <use xlink:href="#DejaVuSans-20" x="69.824219"/>
      <use xlink:href="#DejaVuSans-76" x="101.611328"/>
      <use xlink:href="#DejaVuSans-61" x="160.791016"/>
      <use xlink:href="#DejaVuSans-6c" x="222.070312"/>
      <use xlink:href="#DejaVuSans-75" x="249.853516"/>
      <use xlink:href="#DejaVuSans-65" x="313.232422"/>
      <use xlink:href="#DejaVuSans-73" x="374.755859"/>
     </g>
    </g>
    <g id="line2d_40">
     <path d="M 117 79.616562 
L 127 79.616562 
L 137 79.616562 
" style="fill: none; stroke: #36ff33; stroke-width: 2; stroke-linecap: square"/>
    </g>
    <g id="text_16">
     <!-- C=1 -->
     <g transform="translate(145 83.116562) scale(0.1 -0.1)">
      <defs>
       <path id="DejaVuSans-3d" d="M 678 2906 
L 4684 2906 
L 4684 2381 
L 678 2381 
L 678 2906 
z
M 678 1631 
L 4684 1631 
L 4684 1100 
L 678 1100 
L 678 1631 
z
" transform="scale(0.015625)"/>
      </defs>
      <use xlink:href="#DejaVuSans-43"/>
      <use xlink:href="#DejaVuSans-3d" x="69.824219"/>
      <use xlink:href="#DejaVuSans-31" x="153.613281"/>
     </g>
    </g>
    <g id="line2d_41">
     <path d="M 117 94.294688 
L 127 94.294688 
L 137 94.294688 
" style="fill: none; stroke: #b6c800; stroke-width: 2; stroke-linecap: square"/>
    </g>
    <g id="text_17">
     <!-- C=0.75 -->
     <g transform="translate(145 97.794688) scale(0.1 -0.1)">
      <defs>
       <path id="DejaVuSans-37" d="M 525 4666 
L 3525 4666 
L 3525 4397 
L 1831 0 
L 1172 0 
L 2766 4134 
L 525 4134 
L 525 4666 
z
" transform="scale(0.015625)"/>
      </defs>
      <use xlink:href="#DejaVuSans-43"/>
      <use xlink:href="#DejaVuSans-3d" x="69.824219"/>
      <use xlink:href="#DejaVuSans-30" x="153.613281"/>
      <use xlink:href="#DejaVuSans-2e" x="217.236328"/>
      <use xlink:href="#DejaVuSans-37" x="249.023438"/>
      <use xlink:href="#DejaVuSans-35" x="312.646484"/>
     </g>
    </g>
    <g id="line2d_42">
     <path d="M 117 108.972812 
L 127 108.972812 
L 137 108.972812 
" style="fill: none; stroke: #f119c3; stroke-width: 2; stroke-linecap: square"/>
    </g>
    <g id="text_18">
     <!-- C=0.5 -->
     <g transform="translate(145 112.472812) scale(0.1 -0.1)">
      <use xlink:href="#DejaVuSans-43"/>
      <use xlink:href="#DejaVuSans-3d" x="69.824219"/>
      <use xlink:href="#DejaVuSans-30" x="153.613281"/>
      <use xlink:href="#DejaVuSans-2e" x="217.236328"/>
      <use xlink:href="#DejaVuSans-35" x="249.023438"/>
     </g>
    </g>
    <g id="line2d_43">
     <path d="M 117 123.650937 
L 127 123.650937 
L 137 123.650937 
" style="fill: none; stroke: #0d5915; stroke-width: 2; stroke-linecap: square"/>
    </g>
    <g id="text_19">
     <!-- C=0.25 -->
     <g transform="translate(145 127.150937) scale(0.1 -0.1)">
      <use xlink:href="#DejaVuSans-43"/>
      <use xlink:href="#DejaVuSans-3d" x="69.824219"/>
      <use xlink:href="#DejaVuSans-30" x="153.613281"/>
      <use xlink:href="#DejaVuSans-2e" x="217.236328"/>
      <use xlink:href="#DejaVuSans-32" x="249.023438"/>
      <use xlink:href="#DejaVuSans-35" x="312.646484"/>
     </g>
    </g>
    <g id="line2d_44">
     <path d="M 117 138.329062 
L 127 138.329062 
L 137 138.329062 
" style="fill: none; stroke: #e31d1d; stroke-width: 2; stroke-linecap: square"/>
    </g>
    <g id="text_20">
     <!-- C=0.1 -->
     <g transform="translate(145 141.829062) scale(0.1 -0.1)">
      <use xlink:href="#DejaVuSans-43"/>
      <use xlink:href="#DejaVuSans-3d" x="69.824219"/>
      <use xlink:href="#DejaVuSans-30" x="153.613281"/>
      <use xlink:href="#DejaVuSans-2e" x="217.236328"/>
      <use xlink:href="#DejaVuSans-31" x="249.023438"/>
     </g>
    </g>
   </g>
   <g id="legend_2">
    <g id="patch_8">
     <path d="M 712.440625 103.874375 
L 770.6 103.874375 
Q 772.6 103.874375 772.6 101.874375 
L 772.6 58.84 
Q 772.6 56.84 770.6 56.84 
L 712.440625 56.84 
Q 710.440625 56.84 710.440625 58.84 
L 710.440625 101.874375 
Q 710.440625 103.874375 712.440625 103.874375 
z
" style="fill: #ffffff; opacity: 0.8; stroke: #cccccc; stroke-linejoin: miter"/>
    </g>
    <g id="text_21">
     <!-- Optimizers -->
     <g transform="translate(714.440625 68.438437) scale(0.1 -0.1)">
      <defs>
       <path id="DejaVuSans-7a" d="M 353 3500 
L 3084 3500 
L 3084 2975 
L 922 459 
L 3084 459 
L 3084 0 
L 275 0 
L 275 525 
L 2438 3041 
L 353 3041 
L 353 3500 
z
" transform="scale(0.015625)"/>
       <path id="DejaVuSans-72" d="M 2631 2963 
Q 2534 3019 2420 3045 
Q 2306 3072 2169 3072 
Q 1681 3072 1420 2755 
Q 1159 2438 1159 1844 
L 1159 0 
L 581 0 
L 581 3500 
L 1159 3500 
L 1159 2956 
Q 1341 3275 1631 3429 
Q 1922 3584 2338 3584 
Q 2397 3584 2469 3576 
Q 2541 3569 2628 3553 
L 2631 2963 
z
" transform="scale(0.015625)"/>
      </defs>
      <use xlink:href="#DejaVuSans-4f"/>
      <use xlink:href="#DejaVuSans-70" x="78.710938"/>
      <use xlink:href="#DejaVuSans-74" x="142.1875"/>
      <use xlink:href="#DejaVuSans-69" x="181.396484"/>
      <use xlink:href="#DejaVuSans-6d" x="209.179688"/>
      <use xlink:href="#DejaVuSans-69" x="306.591797"/>
      <use xlink:href="#DejaVuSans-7a" x="334.375"/>
      <use xlink:href="#DejaVuSans-65" x="386.865234"/>
      <use xlink:href="#DejaVuSans-72" x="448.388672"/>
      <use xlink:href="#DejaVuSans-73" x="489.501953"/>
     </g>
    </g>
    <g id="line2d_45">
     <path d="M 717.210938 79.616562 
L 727.210938 79.616562 
L 737.210938 79.616562 
" style="fill: none; stroke-dasharray: 5.55,2.4; stroke-dashoffset: 0; stroke: #000000; stroke-width: 1.5"/>
     <defs>
      <path id="mc07f911047" d="M 0 3.5 
C 0.928211 3.5 1.81853 3.131218 2.474874 2.474874 
C 3.131218 1.81853 3.5 0.928211 3.5 0 
C 3.5 -0.928211 3.131218 -1.81853 2.474874 -2.474874 
C 1.81853 -3.131218 0.928211 -3.5 0 -3.5 
C -0.928211 -3.5 -1.81853 -3.131218 -2.474874 -2.474874 
C -3.131218 -1.81853 -3.5 -0.928211 -3.5 0 
C -3.5 0.928211 -3.131218 1.81853 -2.474874 2.474874 
C -1.81853 3.131218 -0.928211 3.5 0 3.5 
z
" style="stroke: #000000"/>
     </defs>
     <g>
      <use xlink:href="#mc07f911047" x="727.210938" y="79.616562" style="stroke: #000000"/>
     </g>
    </g>
    <g id="text_22">
     <!-- PM -->
     <g transform="translate(745.210938 83.116562) scale(0.1 -0.1)">
      <defs>
       <path id="DejaVuSans-50" d="M 1259 4147 
L 1259 2394 
L 2053 2394 
Q 2494 2394 2734 2622 
Q 2975 2850 2975 3272 
Q 2975 3691 2734 3919 
Q 2494 4147 2053 4147 
L 1259 4147 
z
M 628 4666 
L 2053 4666 
Q 2838 4666 3239 4311 
Q 3641 3956 3641 3272 
Q 3641 2581 3239 2228 
Q 2838 1875 2053 1875 
L 1259 1875 
L 1259 0 
L 628 0 
L 628 4666 
z
" transform="scale(0.015625)"/>
       <path id="DejaVuSans-4d" d="M 628 4666 
L 1569 4666 
L 2759 1491 
L 3956 4666 
L 4897 4666 
L 4897 0 
L 4281 0 
L 4281 4097 
L 3078 897 
L 2444 897 
L 1241 4097 
L 1241 0 
L 628 0 
L 628 4666 
z
" transform="scale(0.015625)"/>
      </defs>
      <use xlink:href="#DejaVuSans-50"/>
      <use xlink:href="#DejaVuSans-4d" x="60.302734"/>
     </g>
    </g>
    <g id="line2d_46">
     <path d="M 717.210938 94.294688 
L 727.210938 94.294688 
L 737.210938 94.294688 
" style="fill: none; stroke: #000000; stroke-width: 1.5; stroke-linecap: square"/>
     <defs>
      <path id="m270d26a4c0" d="M 0 -5 
L -1.12257 -1.545085 
L -4.755283 -1.545085 
L -1.816356 0.59017 
L -2.938926 4.045085 
L -0 1.90983 
L 2.938926 4.045085 
L 1.816356 0.59017 
L 4.755283 -1.545085 
L 1.12257 -1.545085 
z
" style="stroke: #000000; stroke-linejoin: bevel"/>
     </defs>
     <g>
      <use xlink:href="#m270d26a4c0" x="727.210938" y="94.294688" style="stroke: #000000; stroke-linejoin: bevel"/>
     </g>
    </g>
    <g id="text_23">
     <!-- PGA -->
     <g transform="translate(745.210938 97.794688) scale(0.1 -0.1)">
      <defs>
       <path id="DejaVuSans-47" d="M 3809 666 
L 3809 1919 
L 2778 1919 
L 2778 2438 
L 4434 2438 
L 4434 434 
Q 4069 175 3628 42 
Q 3188 -91 2688 -91 
Q 1594 -91 976 548 
Q 359 1188 359 2328 
Q 359 3472 976 4111 
Q 1594 4750 2688 4750 
Q 3144 4750 3555 4637 
Q 3966 4525 4313 4306 
L 4313 3634 
Q 3963 3931 3569 4081 
Q 3175 4231 2741 4231 
Q 1884 4231 1454 3753 
Q 1025 3275 1025 2328 
Q 1025 1384 1454 906 
Q 1884 428 2741 428 
Q 3075 428 3337 486 
Q 3600 544 3809 666 
z
" transform="scale(0.015625)"/>
       <path id="DejaVuSans-41" d="M 2188 4044 
L 1331 1722 
L 3047 1722 
L 2188 4044 
z
M 1831 4666 
L 2547 4666 
L 4325 0 
L 3669 0 
L 3244 1197 
L 1141 1197 
L 716 0 
L 50 0 
L 1831 4666 
z
" transform="scale(0.015625)"/>
      </defs>
      <use xlink:href="#DejaVuSans-50"/>
      <use xlink:href="#DejaVuSans-47" x="60.302734"/>
      <use xlink:href="#DejaVuSans-41" x="137.792969"/>
     </g>
    </g>
   </g>
  </g>
 </g>
 <defs>
  <clipPath id="pb0cc538321">
   <rect x="108" y="51.84" width="669.6" height="332.64"/>
  </clipPath>
 </defs>
</svg>
