<?xml version="1.0" encoding="utf-8" standalone="no"?>
<!DOCTYPE svg PUBLIC "-//W3C//DTD SVG 1.1//EN"
  "http://www.w3.org/Graphics/SVG/1.1/DTD/svg11.dtd">
<svg xmlns:xlink="http://www.w3.org/1999/xlink" width="576pt" height="432pt" viewBox="0 0 576 432" xmlns="http://www.w3.org/2000/svg" version="1.1">
 <metadata>
  <rdf:RDF xmlns:dc="http://purl.org/dc/elements/1.1/" xmlns:cc="http://creativecommons.org/ns#" xmlns:rdf="http://www.w3.org/1999/02/22-rdf-syntax-ns#">
   <cc:Work>
    <dc:type rdf:resource="http://purl.org/dc/dcmitype/StillImage"/>
    <dc:date>2024-12-30T17:30:23.620319</dc:date>
    <dc:format>image/svg+xml</dc:format>
    <dc:creator>
     <cc:Agent>
      <dc:title>Matplotlib v3.7.1, https://matplotlib.org/</dc:title>
     </cc:Agent>
    </dc:creator>
   </cc:Work>
  </rdf:RDF>
 </metadata>
 <defs>
  <style type="text/css">*{stroke-linejoin: round; stroke-linecap: butt}</style>
 </defs>
 <g id="figure_1">
  <g id="patch_1">
   <path d="M 0 432 
L 576 432 
L 576 0 
L 0 0 
z
" style="fill: #ffffff"/>
  </g>
  <g id="axes_1">
   <g id="patch_2">
    <path d="M 72 384.48 
L 518.4 384.48 
L 518.4 51.84 
L 72 51.84 
z
" style="fill: #ffffff"/>
   </g>
   <g id="matplotlib.axis_1">
    <g id="xtick_1">
     <g id="line2d_1">
      <path d="M 72 384.48 
L 72 51.84 
" clip-path="url(#p3e240ff4ba)" style="fill: none; stroke: #b0b0b0; stroke-width: 0.8; stroke-linecap: square"/>
     </g>
     <g id="line2d_2">
      <defs>
       <path id="me0b346d070" d="M 0 0 
L 0 3.5 
" style="stroke: #000000; stroke-width: 0.8"/>
      </defs>
      <g>
       <use xlink:href="#me0b346d070" x="72" y="384.48" style="stroke: #000000; stroke-width: 0.8"/>
      </g>
     </g>
     <g id="text_1">
      <!-- 0 -->
      <g transform="translate(68.81875 399.078438) scale(0.1 -0.1)">
       <defs>
        <path id="DejaVuSans-30" d="M 2034 4250 
Q 1547 4250 1301 3770 
Q 1056 3291 1056 2328 
Q 1056 1369 1301 889 
Q 1547 409 2034 409 
Q 2525 409 2770 889 
Q 3016 1369 3016 2328 
Q 3016 3291 2770 3770 
Q 2525 4250 2034 4250 
z
M 2034 4750 
Q 2819 4750 3233 4129 
Q 3647 3509 3647 2328 
Q 3647 1150 3233 529 
Q 2819 -91 2034 -91 
Q 1250 -91 836 529 
Q 422 1150 422 2328 
Q 422 3509 836 4129 
Q 1250 4750 2034 4750 
z
" transform="scale(0.015625)"/>
       </defs>
       <use xlink:href="#DejaVuSans-30"/>
      </g>
     </g>
    </g>
    <g id="xtick_2">
     <g id="line2d_3">
      <path d="M 161.28 384.48 
L 161.28 51.84 
" clip-path="url(#p3e240ff4ba)" style="fill: none; stroke: #b0b0b0; stroke-width: 0.8; stroke-linecap: square"/>
     </g>
     <g id="line2d_4">
      <g>
       <use xlink:href="#me0b346d070" x="161.28" y="384.48" style="stroke: #000000; stroke-width: 0.8"/>
      </g>
     </g>
     <g id="text_2">
      <!-- 100 -->
      <g transform="translate(151.73625 399.078438) scale(0.1 -0.1)">
       <defs>
        <path id="DejaVuSans-31" d="M 794 531 
L 1825 531 
L 1825 4091 
L 703 3866 
L 703 4441 
L 1819 4666 
L 2450 4666 
L 2450 531 
L 3481 531 
L 3481 0 
L 794 0 
L 794 531 
z
" transform="scale(0.015625)"/>
       </defs>
       <use xlink:href="#DejaVuSans-31"/>
       <use xlink:href="#DejaVuSans-30" x="63.623047"/>
       <use xlink:href="#DejaVuSans-30" x="127.246094"/>
      </g>
     </g>
    </g>
    <g id="xtick_3">
     <g id="line2d_5">
      <path d="M 250.56 384.48 
L 250.56 51.84 
" clip-path="url(#p3e240ff4ba)" style="fill: none; stroke: #b0b0b0; stroke-width: 0.8; stroke-linecap: square"/>
     </g>
     <g id="line2d_6">
      <g>
       <use xlink:href="#me0b346d070" x="250.56" y="384.48" style="stroke: #000000; stroke-width: 0.8"/>
      </g>
     </g>
     <g id="text_3">
      <!-- 200 -->
      <g transform="translate(241.01625 399.078438) scale(0.1 -0.1)">
       <defs>
        <path id="DejaVuSans-32" d="M 1228 531 
L 3431 531 
L 3431 0 
L 469 0 
L 469 531 
Q 828 903 1448 1529 
Q 2069 2156 2228 2338 
Q 2531 2678 2651 2914 
Q 2772 3150 2772 3378 
Q 2772 3750 2511 3984 
Q 2250 4219 1831 4219 
Q 1534 4219 1204 4116 
Q 875 4013 500 3803 
L 500 4441 
Q 881 4594 1212 4672 
Q 1544 4750 1819 4750 
Q 2544 4750 2975 4387 
Q 3406 4025 3406 3419 
Q 3406 3131 3298 2873 
Q 3191 2616 2906 2266 
Q 2828 2175 2409 1742 
Q 1991 1309 1228 531 
z
" transform="scale(0.015625)"/>
       </defs>
       <use xlink:href="#DejaVuSans-32"/>
       <use xlink:href="#DejaVuSans-30" x="63.623047"/>
       <use xlink:href="#DejaVuSans-30" x="127.246094"/>
      </g>
     </g>
    </g>
    <g id="xtick_4">
     <g id="line2d_7">
      <path d="M 339.84 384.48 
L 339.84 51.84 
" clip-path="url(#p3e240ff4ba)" style="fill: none; stroke: #b0b0b0; stroke-width: 0.8; stroke-linecap: square"/>
     </g>
     <g id="line2d_8">
      <g>
       <use xlink:href="#me0b346d070" x="339.84" y="384.48" style="stroke: #000000; stroke-width: 0.8"/>
      </g>
     </g>
     <g id="text_4">
      <!-- 300 -->
      <g transform="translate(330.29625 399.078438) scale(0.1 -0.1)">
       <defs>
        <path id="DejaVuSans-33" d="M 2597 2516 
Q 3050 2419 3304 2112 
Q 3559 1806 3559 1356 
Q 3559 666 3084 287 
Q 2609 -91 1734 -91 
Q 1441 -91 1130 -33 
Q 819 25 488 141 
L 488 750 
Q 750 597 1062 519 
Q 1375 441 1716 441 
Q 2309 441 2620 675 
Q 2931 909 2931 1356 
Q 2931 1769 2642 2001 
Q 2353 2234 1838 2234 
L 1294 2234 
L 1294 2753 
L 1863 2753 
Q 2328 2753 2575 2939 
Q 2822 3125 2822 3475 
Q 2822 3834 2567 4026 
Q 2313 4219 1838 4219 
Q 1578 4219 1281 4162 
Q 984 4106 628 3988 
L 628 4550 
Q 988 4650 1302 4700 
Q 1616 4750 1894 4750 
Q 2613 4750 3031 4423 
Q 3450 4097 3450 3541 
Q 3450 3153 3228 2886 
Q 3006 2619 2597 2516 
z
" transform="scale(0.015625)"/>
       </defs>
       <use xlink:href="#DejaVuSans-33"/>
       <use xlink:href="#DejaVuSans-30" x="63.623047"/>
       <use xlink:href="#DejaVuSans-30" x="127.246094"/>
      </g>
     </g>
    </g>
    <g id="xtick_5">
     <g id="line2d_9">
      <path d="M 429.12 384.48 
L 429.12 51.84 
" clip-path="url(#p3e240ff4ba)" style="fill: none; stroke: #b0b0b0; stroke-width: 0.8; stroke-linecap: square"/>
     </g>
     <g id="line2d_10">
      <g>
       <use xlink:href="#me0b346d070" x="429.12" y="384.48" style="stroke: #000000; stroke-width: 0.8"/>
      </g>
     </g>
     <g id="text_5">
      <!-- 400 -->
      <g transform="translate(419.57625 399.078438) scale(0.1 -0.1)">
       <defs>
        <path id="DejaVuSans-34" d="M 2419 4116 
L 825 1625 
L 2419 1625 
L 2419 4116 
z
M 2253 4666 
L 3047 4666 
L 3047 1625 
L 3713 1625 
L 3713 1100 
L 3047 1100 
L 3047 0 
L 2419 0 
L 2419 1100 
L 313 1100 
L 313 1709 
L 2253 4666 
z
" transform="scale(0.015625)"/>
       </defs>
       <use xlink:href="#DejaVuSans-34"/>
       <use xlink:href="#DejaVuSans-30" x="63.623047"/>
       <use xlink:href="#DejaVuSans-30" x="127.246094"/>
      </g>
     </g>
    </g>
    <g id="xtick_6">
     <g id="line2d_11">
      <path d="M 518.4 384.48 
L 518.4 51.84 
" clip-path="url(#p3e240ff4ba)" style="fill: none; stroke: #b0b0b0; stroke-width: 0.8; stroke-linecap: square"/>
     </g>
     <g id="line2d_12">
      <g>
       <use xlink:href="#me0b346d070" x="518.4" y="384.48" style="stroke: #000000; stroke-width: 0.8"/>
      </g>
     </g>
     <g id="text_6">
      <!-- 500 -->
      <g transform="translate(508.85625 399.078438) scale(0.1 -0.1)">
       <defs>
        <path id="DejaVuSans-35" d="M 691 4666 
L 3169 4666 
L 3169 4134 
L 1269 4134 
L 1269 2991 
Q 1406 3038 1543 3061 
Q 1681 3084 1819 3084 
Q 2600 3084 3056 2656 
Q 3513 2228 3513 1497 
Q 3513 744 3044 326 
Q 2575 -91 1722 -91 
Q 1428 -91 1123 -41 
Q 819 9 494 109 
L 494 744 
Q 775 591 1075 516 
Q 1375 441 1709 441 
Q 2250 441 2565 725 
Q 2881 1009 2881 1497 
Q 2881 1984 2565 2268 
Q 2250 2553 1709 2553 
Q 1456 2553 1204 2497 
Q 953 2441 691 2322 
L 691 4666 
z
" transform="scale(0.015625)"/>
       </defs>
       <use xlink:href="#DejaVuSans-35"/>
       <use xlink:href="#DejaVuSans-30" x="63.623047"/>
       <use xlink:href="#DejaVuSans-30" x="127.246094"/>
      </g>
     </g>
    </g>
    <g id="text_7">
     <!-- Computational time [s] -->
     <g transform="translate(208.501172 416.555781) scale(0.15 -0.15)">
      <defs>
       <path id="DejaVuSans-43" d="M 4122 4306 
L 4122 3641 
Q 3803 3938 3442 4084 
Q 3081 4231 2675 4231 
Q 1875 4231 1450 3742 
Q 1025 3253 1025 2328 
Q 1025 1406 1450 917 
Q 1875 428 2675 428 
Q 3081 428 3442 575 
Q 3803 722 4122 1019 
L 4122 359 
Q 3791 134 3420 21 
Q 3050 -91 2638 -91 
Q 1578 -91 968 557 
Q 359 1206 359 2328 
Q 359 3453 968 4101 
Q 1578 4750 2638 4750 
Q 3056 4750 3426 4639 
Q 3797 4528 4122 4306 
z
" transform="scale(0.015625)"/>
       <path id="DejaVuSans-6f" d="M 1959 3097 
Q 1497 3097 1228 2736 
Q 959 2375 959 1747 
Q 959 1119 1226 758 
Q 1494 397 1959 397 
Q 2419 397 2687 759 
Q 2956 1122 2956 1747 
Q 2956 2369 2687 2733 
Q 2419 3097 1959 3097 
z
M 1959 3584 
Q 2709 3584 3137 3096 
Q 3566 2609 3566 1747 
Q 3566 888 3137 398 
Q 2709 -91 1959 -91 
Q 1206 -91 779 398 
Q 353 888 353 1747 
Q 353 2609 779 3096 
Q 1206 3584 1959 3584 
z
" transform="scale(0.015625)"/>
       <path id="DejaVuSans-6d" d="M 3328 2828 
Q 3544 3216 3844 3400 
Q 4144 3584 4550 3584 
Q 5097 3584 5394 3201 
Q 5691 2819 5691 2113 
L 5691 0 
L 5113 0 
L 5113 2094 
Q 5113 2597 4934 2840 
Q 4756 3084 4391 3084 
Q 3944 3084 3684 2787 
Q 3425 2491 3425 1978 
L 3425 0 
L 2847 0 
L 2847 2094 
Q 2847 2600 2669 2842 
Q 2491 3084 2119 3084 
Q 1678 3084 1418 2786 
Q 1159 2488 1159 1978 
L 1159 0 
L 581 0 
L 581 3500 
L 1159 3500 
L 1159 2956 
Q 1356 3278 1631 3431 
Q 1906 3584 2284 3584 
Q 2666 3584 2933 3390 
Q 3200 3197 3328 2828 
z
" transform="scale(0.015625)"/>
       <path id="DejaVuSans-70" d="M 1159 525 
L 1159 -1331 
L 581 -1331 
L 581 3500 
L 1159 3500 
L 1159 2969 
Q 1341 3281 1617 3432 
Q 1894 3584 2278 3584 
Q 2916 3584 3314 3078 
Q 3713 2572 3713 1747 
Q 3713 922 3314 415 
Q 2916 -91 2278 -91 
Q 1894 -91 1617 61 
Q 1341 213 1159 525 
z
M 3116 1747 
Q 3116 2381 2855 2742 
Q 2594 3103 2138 3103 
Q 1681 3103 1420 2742 
Q 1159 2381 1159 1747 
Q 1159 1113 1420 752 
Q 1681 391 2138 391 
Q 2594 391 2855 752 
Q 3116 1113 3116 1747 
z
" transform="scale(0.015625)"/>
       <path id="DejaVuSans-75" d="M 544 1381 
L 544 3500 
L 1119 3500 
L 1119 1403 
Q 1119 906 1312 657 
Q 1506 409 1894 409 
Q 2359 409 2629 706 
Q 2900 1003 2900 1516 
L 2900 3500 
L 3475 3500 
L 3475 0 
L 2900 0 
L 2900 538 
Q 2691 219 2414 64 
Q 2138 -91 1772 -91 
Q 1169 -91 856 284 
Q 544 659 544 1381 
z
M 1991 3584 
L 1991 3584 
z
" transform="scale(0.015625)"/>
       <path id="DejaVuSans-74" d="M 1172 4494 
L 1172 3500 
L 2356 3500 
L 2356 3053 
L 1172 3053 
L 1172 1153 
Q 1172 725 1289 603 
Q 1406 481 1766 481 
L 2356 481 
L 2356 0 
L 1766 0 
Q 1100 0 847 248 
Q 594 497 594 1153 
L 594 3053 
L 172 3053 
L 172 3500 
L 594 3500 
L 594 4494 
L 1172 4494 
z
" transform="scale(0.015625)"/>
       <path id="DejaVuSans-61" d="M 2194 1759 
Q 1497 1759 1228 1600 
Q 959 1441 959 1056 
Q 959 750 1161 570 
Q 1363 391 1709 391 
Q 2188 391 2477 730 
Q 2766 1069 2766 1631 
L 2766 1759 
L 2194 1759 
z
M 3341 1997 
L 3341 0 
L 2766 0 
L 2766 531 
Q 2569 213 2275 61 
Q 1981 -91 1556 -91 
Q 1019 -91 701 211 
Q 384 513 384 1019 
Q 384 1609 779 1909 
Q 1175 2209 1959 2209 
L 2766 2209 
L 2766 2266 
Q 2766 2663 2505 2880 
Q 2244 3097 1772 3097 
Q 1472 3097 1187 3025 
Q 903 2953 641 2809 
L 641 3341 
Q 956 3463 1253 3523 
Q 1550 3584 1831 3584 
Q 2591 3584 2966 3190 
Q 3341 2797 3341 1997 
z
" transform="scale(0.015625)"/>
       <path id="DejaVuSans-69" d="M 603 3500 
L 1178 3500 
L 1178 0 
L 603 0 
L 603 3500 
z
M 603 4863 
L 1178 4863 
L 1178 4134 
L 603 4134 
L 603 4863 
z
" transform="scale(0.015625)"/>
       <path id="DejaVuSans-6e" d="M 3513 2113 
L 3513 0 
L 2938 0 
L 2938 2094 
Q 2938 2591 2744 2837 
Q 2550 3084 2163 3084 
Q 1697 3084 1428 2787 
Q 1159 2491 1159 1978 
L 1159 0 
L 581 0 
L 581 3500 
L 1159 3500 
L 1159 2956 
Q 1366 3272 1645 3428 
Q 1925 3584 2291 3584 
Q 2894 3584 3203 3211 
Q 3513 2838 3513 2113 
z
" transform="scale(0.015625)"/>
       <path id="DejaVuSans-6c" d="M 603 4863 
L 1178 4863 
L 1178 0 
L 603 0 
L 603 4863 
z
" transform="scale(0.015625)"/>
       <path id="DejaVuSans-20" transform="scale(0.015625)"/>
       <path id="DejaVuSans-65" d="M 3597 1894 
L 3597 1613 
L 953 1613 
Q 991 1019 1311 708 
Q 1631 397 2203 397 
Q 2534 397 2845 478 
Q 3156 559 3463 722 
L 3463 178 
Q 3153 47 2828 -22 
Q 2503 -91 2169 -91 
Q 1331 -91 842 396 
Q 353 884 353 1716 
Q 353 2575 817 3079 
Q 1281 3584 2069 3584 
Q 2775 3584 3186 3129 
Q 3597 2675 3597 1894 
z
M 3022 2063 
Q 3016 2534 2758 2815 
Q 2500 3097 2075 3097 
Q 1594 3097 1305 2825 
Q 1016 2553 972 2059 
L 3022 2063 
z
" transform="scale(0.015625)"/>
       <path id="DejaVuSans-5b" d="M 550 4863 
L 1875 4863 
L 1875 4416 
L 1125 4416 
L 1125 -397 
L 1875 -397 
L 1875 -844 
L 550 -844 
L 550 4863 
z
" transform="scale(0.015625)"/>
       <path id="DejaVuSans-73" d="M 2834 3397 
L 2834 2853 
Q 2591 2978 2328 3040 
Q 2066 3103 1784 3103 
Q 1356 3103 1142 2972 
Q 928 2841 928 2578 
Q 928 2378 1081 2264 
Q 1234 2150 1697 2047 
L 1894 2003 
Q 2506 1872 2764 1633 
Q 3022 1394 3022 966 
Q 3022 478 2636 193 
Q 2250 -91 1575 -91 
Q 1294 -91 989 -36 
Q 684 19 347 128 
L 347 722 
Q 666 556 975 473 
Q 1284 391 1588 391 
Q 1994 391 2212 530 
Q 2431 669 2431 922 
Q 2431 1156 2273 1281 
Q 2116 1406 1581 1522 
L 1381 1569 
Q 847 1681 609 1914 
Q 372 2147 372 2553 
Q 372 3047 722 3315 
Q 1072 3584 1716 3584 
Q 2034 3584 2315 3537 
Q 2597 3491 2834 3397 
z
" transform="scale(0.015625)"/>
       <path id="DejaVuSans-5d" d="M 1947 4863 
L 1947 -844 
L 622 -844 
L 622 -397 
L 1369 -397 
L 1369 4416 
L 622 4416 
L 622 4863 
L 1947 4863 
z
" transform="scale(0.015625)"/>
      </defs>
      <use xlink:href="#DejaVuSans-43"/>
      <use xlink:href="#DejaVuSans-6f" x="69.824219"/>
      <use xlink:href="#DejaVuSans-6d" x="131.005859"/>
      <use xlink:href="#DejaVuSans-70" x="228.417969"/>
      <use xlink:href="#DejaVuSans-75" x="291.894531"/>
      <use xlink:href="#DejaVuSans-74" x="355.273438"/>
      <use xlink:href="#DejaVuSans-61" x="394.482422"/>
      <use xlink:href="#DejaVuSans-74" x="455.761719"/>
      <use xlink:href="#DejaVuSans-69" x="494.970703"/>
      <use xlink:href="#DejaVuSans-6f" x="522.753906"/>
      <use xlink:href="#DejaVuSans-6e" x="583.935547"/>
      <use xlink:href="#DejaVuSans-61" x="647.314453"/>
      <use xlink:href="#DejaVuSans-6c" x="708.59375"/>
      <use xlink:href="#DejaVuSans-20" x="736.376953"/>
      <use xlink:href="#DejaVuSans-74" x="768.164062"/>
      <use xlink:href="#DejaVuSans-69" x="807.373047"/>
      <use xlink:href="#DejaVuSans-6d" x="835.15625"/>
      <use xlink:href="#DejaVuSans-65" x="932.568359"/>
      <use xlink:href="#DejaVuSans-20" x="994.091797"/>
      <use xlink:href="#DejaVuSans-5b" x="1025.878906"/>
      <use xlink:href="#DejaVuSans-73" x="1064.892578"/>
      <use xlink:href="#DejaVuSans-5d" x="1116.992188"/>
     </g>
    </g>
   </g>
   <g id="matplotlib.axis_2">
    <g id="ytick_1">
     <g id="line2d_13">
      <path d="M 72 384.48 
L 518.4 384.48 
" clip-path="url(#p3e240ff4ba)" style="fill: none; stroke: #b0b0b0; stroke-width: 0.8; stroke-linecap: square"/>
     </g>
     <g id="line2d_14">
      <defs>
       <path id="mbc677c1d32" d="M 0 0 
L -3.5 0 
" style="stroke: #000000; stroke-width: 0.8"/>
      </defs>
      <g>
       <use xlink:href="#mbc677c1d32" x="72" y="384.48" style="stroke: #000000; stroke-width: 0.8"/>
      </g>
     </g>
     <g id="text_8">
      <!-- −2 -->
      <g transform="translate(50.257812 388.279219) scale(0.1 -0.1)">
       <defs>
        <path id="DejaVuSans-2212" d="M 678 2272 
L 4684 2272 
L 4684 1741 
L 678 1741 
L 678 2272 
z
" transform="scale(0.015625)"/>
       </defs>
       <use xlink:href="#DejaVuSans-2212"/>
       <use xlink:href="#DejaVuSans-32" x="83.789062"/>
      </g>
     </g>
    </g>
    <g id="ytick_2">
     <g id="line2d_15">
      <path d="M 72 329.04 
L 518.4 329.04 
" clip-path="url(#p3e240ff4ba)" style="fill: none; stroke: #b0b0b0; stroke-width: 0.8; stroke-linecap: square"/>
     </g>
     <g id="line2d_16">
      <g>
       <use xlink:href="#mbc677c1d32" x="72" y="329.04" style="stroke: #000000; stroke-width: 0.8"/>
      </g>
     </g>
     <g id="text_9">
      <!-- 0 -->
      <g transform="translate(58.6375 332.839219) scale(0.1 -0.1)">
       <use xlink:href="#DejaVuSans-30"/>
      </g>
     </g>
    </g>
    <g id="ytick_3">
     <g id="line2d_17">
      <path d="M 72 273.6 
L 518.4 273.6 
" clip-path="url(#p3e240ff4ba)" style="fill: none; stroke: #b0b0b0; stroke-width: 0.8; stroke-linecap: square"/>
     </g>
     <g id="line2d_18">
      <g>
       <use xlink:href="#mbc677c1d32" x="72" y="273.6" style="stroke: #000000; stroke-width: 0.8"/>
      </g>
     </g>
     <g id="text_10">
      <!-- 2 -->
      <g transform="translate(58.6375 277.399219) scale(0.1 -0.1)">
       <use xlink:href="#DejaVuSans-32"/>
      </g>
     </g>
    </g>
    <g id="ytick_4">
     <g id="line2d_19">
      <path d="M 72 218.16 
L 518.4 218.16 
" clip-path="url(#p3e240ff4ba)" style="fill: none; stroke: #b0b0b0; stroke-width: 0.8; stroke-linecap: square"/>
     </g>
     <g id="line2d_20">
      <g>
       <use xlink:href="#mbc677c1d32" x="72" y="218.16" style="stroke: #000000; stroke-width: 0.8"/>
      </g>
     </g>
     <g id="text_11">
      <!-- 4 -->
      <g transform="translate(58.6375 221.959219) scale(0.1 -0.1)">
       <use xlink:href="#DejaVuSans-34"/>
      </g>
     </g>
    </g>
    <g id="ytick_5">
     <g id="line2d_21">
      <path d="M 72 162.72 
L 518.4 162.72 
" clip-path="url(#p3e240ff4ba)" style="fill: none; stroke: #b0b0b0; stroke-width: 0.8; stroke-linecap: square"/>
     </g>
     <g id="line2d_22">
      <g>
       <use xlink:href="#mbc677c1d32" x="72" y="162.72" style="stroke: #000000; stroke-width: 0.8"/>
      </g>
     </g>
     <g id="text_12">
      <!-- 6 -->
      <g transform="translate(58.6375 166.519219) scale(0.1 -0.1)">
       <defs>
        <path id="DejaVuSans-36" d="M 2113 2584 
Q 1688 2584 1439 2293 
Q 1191 2003 1191 1497 
Q 1191 994 1439 701 
Q 1688 409 2113 409 
Q 2538 409 2786 701 
Q 3034 994 3034 1497 
Q 3034 2003 2786 2293 
Q 2538 2584 2113 2584 
z
M 3366 4563 
L 3366 3988 
Q 3128 4100 2886 4159 
Q 2644 4219 2406 4219 
Q 1781 4219 1451 3797 
Q 1122 3375 1075 2522 
Q 1259 2794 1537 2939 
Q 1816 3084 2150 3084 
Q 2853 3084 3261 2657 
Q 3669 2231 3669 1497 
Q 3669 778 3244 343 
Q 2819 -91 2113 -91 
Q 1303 -91 875 529 
Q 447 1150 447 2328 
Q 447 3434 972 4092 
Q 1497 4750 2381 4750 
Q 2619 4750 2861 4703 
Q 3103 4656 3366 4563 
z
" transform="scale(0.015625)"/>
       </defs>
       <use xlink:href="#DejaVuSans-36"/>
      </g>
     </g>
    </g>
    <g id="ytick_6">
     <g id="line2d_23">
      <path d="M 72 107.28 
L 518.4 107.28 
" clip-path="url(#p3e240ff4ba)" style="fill: none; stroke: #b0b0b0; stroke-width: 0.8; stroke-linecap: square"/>
     </g>
     <g id="line2d_24">
      <g>
       <use xlink:href="#mbc677c1d32" x="72" y="107.28" style="stroke: #000000; stroke-width: 0.8"/>
      </g>
     </g>
     <g id="text_13">
      <!-- 8 -->
      <g transform="translate(58.6375 111.079219) scale(0.1 -0.1)">
       <defs>
        <path id="DejaVuSans-38" d="M 2034 2216 
Q 1584 2216 1326 1975 
Q 1069 1734 1069 1313 
Q 1069 891 1326 650 
Q 1584 409 2034 409 
Q 2484 409 2743 651 
Q 3003 894 3003 1313 
Q 3003 1734 2745 1975 
Q 2488 2216 2034 2216 
z
M 1403 2484 
Q 997 2584 770 2862 
Q 544 3141 544 3541 
Q 544 4100 942 4425 
Q 1341 4750 2034 4750 
Q 2731 4750 3128 4425 
Q 3525 4100 3525 3541 
Q 3525 3141 3298 2862 
Q 3072 2584 2669 2484 
Q 3125 2378 3379 2068 
Q 3634 1759 3634 1313 
Q 3634 634 3220 271 
Q 2806 -91 2034 -91 
Q 1263 -91 848 271 
Q 434 634 434 1313 
Q 434 1759 690 2068 
Q 947 2378 1403 2484 
z
M 1172 3481 
Q 1172 3119 1398 2916 
Q 1625 2713 2034 2713 
Q 2441 2713 2670 2916 
Q 2900 3119 2900 3481 
Q 2900 3844 2670 4047 
Q 2441 4250 2034 4250 
Q 1625 4250 1398 4047 
Q 1172 3844 1172 3481 
z
" transform="scale(0.015625)"/>
       </defs>
       <use xlink:href="#DejaVuSans-38"/>
      </g>
     </g>
    </g>
    <g id="ytick_7">
     <g id="line2d_25">
      <path d="M 72 51.84 
L 518.4 51.84 
" clip-path="url(#p3e240ff4ba)" style="fill: none; stroke: #b0b0b0; stroke-width: 0.8; stroke-linecap: square"/>
     </g>
     <g id="line2d_26">
      <g>
       <use xlink:href="#mbc677c1d32" x="72" y="51.84" style="stroke: #000000; stroke-width: 0.8"/>
      </g>
     </g>
     <g id="text_14">
      <!-- 10 -->
      <g transform="translate(52.275 55.639219) scale(0.1 -0.1)">
       <use xlink:href="#DejaVuSans-31"/>
       <use xlink:href="#DejaVuSans-30" x="63.623047"/>
      </g>
     </g>
    </g>
    <g id="text_15">
     <!-- Objective value -->
     <g transform="translate(43.138281 276.595547) rotate(-90) scale(0.15 -0.15)">
      <defs>
       <path id="DejaVuSans-4f" d="M 2522 4238 
Q 1834 4238 1429 3725 
Q 1025 3213 1025 2328 
Q 1025 1447 1429 934 
Q 1834 422 2522 422 
Q 3209 422 3611 934 
Q 4013 1447 4013 2328 
Q 4013 3213 3611 3725 
Q 3209 4238 2522 4238 
z
M 2522 4750 
Q 3503 4750 4090 4092 
Q 4678 3434 4678 2328 
Q 4678 1225 4090 567 
Q 3503 -91 2522 -91 
Q 1538 -91 948 565 
Q 359 1222 359 2328 
Q 359 3434 948 4092 
Q 1538 4750 2522 4750 
z
" transform="scale(0.015625)"/>
       <path id="DejaVuSans-62" d="M 3116 1747 
Q 3116 2381 2855 2742 
Q 2594 3103 2138 3103 
Q 1681 3103 1420 2742 
Q 1159 2381 1159 1747 
Q 1159 1113 1420 752 
Q 1681 391 2138 391 
Q 2594 391 2855 752 
Q 3116 1113 3116 1747 
z
M 1159 2969 
Q 1341 3281 1617 3432 
Q 1894 3584 2278 3584 
Q 2916 3584 3314 3078 
Q 3713 2572 3713 1747 
Q 3713 922 3314 415 
Q 2916 -91 2278 -91 
Q 1894 -91 1617 61 
Q 1341 213 1159 525 
L 1159 0 
L 581 0 
L 581 4863 
L 1159 4863 
L 1159 2969 
z
" transform="scale(0.015625)"/>
       <path id="DejaVuSans-6a" d="M 603 3500 
L 1178 3500 
L 1178 -63 
Q 1178 -731 923 -1031 
Q 669 -1331 103 -1331 
L -116 -1331 
L -116 -844 
L 38 -844 
Q 366 -844 484 -692 
Q 603 -541 603 -63 
L 603 3500 
z
M 603 4863 
L 1178 4863 
L 1178 4134 
L 603 4134 
L 603 4863 
z
" transform="scale(0.015625)"/>
       <path id="DejaVuSans-63" d="M 3122 3366 
L 3122 2828 
Q 2878 2963 2633 3030 
Q 2388 3097 2138 3097 
Q 1578 3097 1268 2742 
Q 959 2388 959 1747 
Q 959 1106 1268 751 
Q 1578 397 2138 397 
Q 2388 397 2633 464 
Q 2878 531 3122 666 
L 3122 134 
Q 2881 22 2623 -34 
Q 2366 -91 2075 -91 
Q 1284 -91 818 406 
Q 353 903 353 1747 
Q 353 2603 823 3093 
Q 1294 3584 2113 3584 
Q 2378 3584 2631 3529 
Q 2884 3475 3122 3366 
z
" transform="scale(0.015625)"/>
       <path id="DejaVuSans-76" d="M 191 3500 
L 800 3500 
L 1894 563 
L 2988 3500 
L 3597 3500 
L 2284 0 
L 1503 0 
L 191 3500 
z
" transform="scale(0.015625)"/>
      </defs>
      <use xlink:href="#DejaVuSans-4f"/>
      <use xlink:href="#DejaVuSans-62" x="78.710938"/>
      <use xlink:href="#DejaVuSans-6a" x="142.1875"/>
      <use xlink:href="#DejaVuSans-65" x="169.970703"/>
      <use xlink:href="#DejaVuSans-63" x="231.494141"/>
      <use xlink:href="#DejaVuSans-74" x="286.474609"/>
      <use xlink:href="#DejaVuSans-69" x="325.683594"/>
      <use xlink:href="#DejaVuSans-76" x="353.466797"/>
      <use xlink:href="#DejaVuSans-65" x="412.646484"/>
      <use xlink:href="#DejaVuSans-20" x="474.169922"/>
      <use xlink:href="#DejaVuSans-76" x="505.957031"/>
      <use xlink:href="#DejaVuSans-61" x="565.136719"/>
      <use xlink:href="#DejaVuSans-6c" x="626.416016"/>
      <use xlink:href="#DejaVuSans-75" x="654.199219"/>
      <use xlink:href="#DejaVuSans-65" x="717.578125"/>
     </g>
    </g>
   </g>
   <g id="line2d_27">
    <path d="M 85.499911 -1 
L 89.750678 316.254001 
L 108.649681 310.598845 
L 126.029987 316.19443 
L 143.95579 314.029532 
L 161.41294 315.731192 
L 179.099747 315.627806 
L 198.476337 315.925765 
L 216.748067 312.036723 
L 234.138869 316.089606 
L 251.920427 312.623989 
L 269.82775 315.40431 
L 287.63459 308.781453 
L 305.586072 314.500232 
L 323.604194 315.928239 
L 341.108212 315.786735 
L 358.472326 315.987149 
L 377.050682 315.315614 
L 394.807614 313.023505 
L 412.411816 315.998987 
L 429.98387 308.917362 
L 447.605364 315.00991 
L 465.403309 313.721851 
L 482.99985 313.131506 
L 500.695925 314.899697 
L 518.336214 314.914492 
L 518.404124 313.988298 
" clip-path="url(#p3e240ff4ba)" style="fill: none; stroke: #e31d1d; stroke-width: 1.5; stroke-linecap: square"/>
    <defs>
     <path id="mc72337f142" d="M 0 3.5 
C 0.928211 3.5 1.81853 3.131218 2.474874 2.474874 
C 3.131218 1.81853 3.5 0.928211 3.5 0 
C 3.5 -0.928211 3.131218 -1.81853 2.474874 -2.474874 
C 1.81853 -3.131218 0.928211 -3.5 0 -3.5 
C -0.928211 -3.5 -1.81853 -3.131218 -2.474874 -2.474874 
C -3.131218 -1.81853 -3.5 -0.928211 -3.5 0 
C -3.5 0.928211 -3.131218 1.81853 -2.474874 2.474874 
C -1.81853 3.131218 -0.928211 3.5 0 3.5 
z
" style="stroke: #e31d1d"/>
    </defs>
    <g clip-path="url(#p3e240ff4ba)">
     <use xlink:href="#mc72337f142" x="85.499911" y="-1" style="fill: #e31d1d; stroke: #e31d1d"/>
     <use xlink:href="#mc72337f142" x="89.750678" y="316.254001" style="fill: #e31d1d; stroke: #e31d1d"/>
     <use xlink:href="#mc72337f142" x="108.649681" y="310.598845" style="fill: #e31d1d; stroke: #e31d1d"/>
     <use xlink:href="#mc72337f142" x="126.029987" y="316.19443" style="fill: #e31d1d; stroke: #e31d1d"/>
     <use xlink:href="#mc72337f142" x="143.95579" y="314.029532" style="fill: #e31d1d; stroke: #e31d1d"/>
     <use xlink:href="#mc72337f142" x="161.41294" y="315.731192" style="fill: #e31d1d; stroke: #e31d1d"/>
     <use xlink:href="#mc72337f142" x="179.099747" y="315.627806" style="fill: #e31d1d; stroke: #e31d1d"/>
     <use xlink:href="#mc72337f142" x="198.476337" y="315.925765" style="fill: #e31d1d; stroke: #e31d1d"/>
     <use xlink:href="#mc72337f142" x="216.748067" y="312.036723" style="fill: #e31d1d; stroke: #e31d1d"/>
     <use xlink:href="#mc72337f142" x="234.138869" y="316.089606" style="fill: #e31d1d; stroke: #e31d1d"/>
     <use xlink:href="#mc72337f142" x="251.920427" y="312.623989" style="fill: #e31d1d; stroke: #e31d1d"/>
     <use xlink:href="#mc72337f142" x="269.82775" y="315.40431" style="fill: #e31d1d; stroke: #e31d1d"/>
     <use xlink:href="#mc72337f142" x="287.63459" y="308.781453" style="fill: #e31d1d; stroke: #e31d1d"/>
     <use xlink:href="#mc72337f142" x="305.586072" y="314.500232" style="fill: #e31d1d; stroke: #e31d1d"/>
     <use xlink:href="#mc72337f142" x="323.604194" y="315.928239" style="fill: #e31d1d; stroke: #e31d1d"/>
     <use xlink:href="#mc72337f142" x="341.108212" y="315.786735" style="fill: #e31d1d; stroke: #e31d1d"/>
     <use xlink:href="#mc72337f142" x="358.472326" y="315.987149" style="fill: #e31d1d; stroke: #e31d1d"/>
     <use xlink:href="#mc72337f142" x="377.050682" y="315.315614" style="fill: #e31d1d; stroke: #e31d1d"/>
     <use xlink:href="#mc72337f142" x="394.807614" y="313.023505" style="fill: #e31d1d; stroke: #e31d1d"/>
     <use xlink:href="#mc72337f142" x="412.411816" y="315.998987" style="fill: #e31d1d; stroke: #e31d1d"/>
     <use xlink:href="#mc72337f142" x="429.98387" y="308.917362" style="fill: #e31d1d; stroke: #e31d1d"/>
     <use xlink:href="#mc72337f142" x="447.605364" y="315.00991" style="fill: #e31d1d; stroke: #e31d1d"/>
     <use xlink:href="#mc72337f142" x="465.403309" y="313.721851" style="fill: #e31d1d; stroke: #e31d1d"/>
     <use xlink:href="#mc72337f142" x="482.99985" y="313.131506" style="fill: #e31d1d; stroke: #e31d1d"/>
     <use xlink:href="#mc72337f142" x="500.695925" y="314.899697" style="fill: #e31d1d; stroke: #e31d1d"/>
     <use xlink:href="#mc72337f142" x="518.336214" y="314.914492" style="fill: #e31d1d; stroke: #e31d1d"/>
     <use xlink:href="#mc72337f142" x="518.404124" y="313.988298" style="fill: #e31d1d; stroke: #e31d1d"/>
    </g>
   </g>
   <g id="line2d_28">
    <path d="M 85.759045 -1 
L 90.065107 316.830554 
L 108.85977 312.232883 
L 126.360494 316.043432 
L 144.842763 312.027159 
L 162.618615 312.985446 
L 180.074479 316.257177 
L 199.5982 315.877027 
L 217.320039 314.698332 
L 235.321944 315.46828 
L 252.719537 314.069914 
L 270.40405 313.890938 
L 288.088053 313.496276 
L 305.803128 311.286931 
L 323.850775 312.168644 
L 341.532343 315.395784 
L 359.334065 315.429737 
L 376.876655 315.458501 
L 394.651308 315.374441 
L 412.365443 312.961677 
L 430.128806 315.047808 
L 447.613037 314.570158 
L 465.462437 314.898744 
L 482.844693 313.034078 
L 500.530245 314.914951 
L 518.403701 315.794477 
L 518.403701 315.794477 
" clip-path="url(#p3e240ff4ba)" style="fill: none; stroke-dasharray: 4.5,1.5,1.5,1.5,1.5,1.5; stroke-dashoffset: 0; stroke: #36ff33; stroke-width: 1.5"/>
    <defs>
     <path id="m13f5dab5d2" d="M 0 -3.5 
L -3.5 3.5 
L 3.5 3.5 
z
" style="stroke: #36ff33; stroke-linejoin: miter"/>
    </defs>
    <g clip-path="url(#p3e240ff4ba)">
     <use xlink:href="#m13f5dab5d2" x="85.759045" y="-1" style="fill: #36ff33; stroke: #36ff33; stroke-linejoin: miter"/>
     <use xlink:href="#m13f5dab5d2" x="90.065107" y="316.830554" style="fill: #36ff33; stroke: #36ff33; stroke-linejoin: miter"/>
     <use xlink:href="#m13f5dab5d2" x="108.85977" y="312.232883" style="fill: #36ff33; stroke: #36ff33; stroke-linejoin: miter"/>
     <use xlink:href="#m13f5dab5d2" x="126.360494" y="316.043432" style="fill: #36ff33; stroke: #36ff33; stroke-linejoin: miter"/>
     <use xlink:href="#m13f5dab5d2" x="144.842763" y="312.027159" style="fill: #36ff33; stroke: #36ff33; stroke-linejoin: miter"/>
     <use xlink:href="#m13f5dab5d2" x="162.618615" y="312.985446" style="fill: #36ff33; stroke: #36ff33; stroke-linejoin: miter"/>
     <use xlink:href="#m13f5dab5d2" x="180.074479" y="316.257177" style="fill: #36ff33; stroke: #36ff33; stroke-linejoin: miter"/>
     <use xlink:href="#m13f5dab5d2" x="199.5982" y="315.877027" style="fill: #36ff33; stroke: #36ff33; stroke-linejoin: miter"/>
     <use xlink:href="#m13f5dab5d2" x="217.320039" y="314.698332" style="fill: #36ff33; stroke: #36ff33; stroke-linejoin: miter"/>
     <use xlink:href="#m13f5dab5d2" x="235.321944" y="315.46828" style="fill: #36ff33; stroke: #36ff33; stroke-linejoin: miter"/>
     <use xlink:href="#m13f5dab5d2" x="252.719537" y="314.069914" style="fill: #36ff33; stroke: #36ff33; stroke-linejoin: miter"/>
     <use xlink:href="#m13f5dab5d2" x="270.40405" y="313.890938" style="fill: #36ff33; stroke: #36ff33; stroke-linejoin: miter"/>
     <use xlink:href="#m13f5dab5d2" x="288.088053" y="313.496276" style="fill: #36ff33; stroke: #36ff33; stroke-linejoin: miter"/>
     <use xlink:href="#m13f5dab5d2" x="305.803128" y="311.286931" style="fill: #36ff33; stroke: #36ff33; stroke-linejoin: miter"/>
     <use xlink:href="#m13f5dab5d2" x="323.850775" y="312.168644" style="fill: #36ff33; stroke: #36ff33; stroke-linejoin: miter"/>
     <use xlink:href="#m13f5dab5d2" x="341.532343" y="315.395784" style="fill: #36ff33; stroke: #36ff33; stroke-linejoin: miter"/>
     <use xlink:href="#m13f5dab5d2" x="359.334065" y="315.429737" style="fill: #36ff33; stroke: #36ff33; stroke-linejoin: miter"/>
     <use xlink:href="#m13f5dab5d2" x="376.876655" y="315.458501" style="fill: #36ff33; stroke: #36ff33; stroke-linejoin: miter"/>
     <use xlink:href="#m13f5dab5d2" x="394.651308" y="315.374441" style="fill: #36ff33; stroke: #36ff33; stroke-linejoin: miter"/>
     <use xlink:href="#m13f5dab5d2" x="412.365443" y="312.961677" style="fill: #36ff33; stroke: #36ff33; stroke-linejoin: miter"/>
     <use xlink:href="#m13f5dab5d2" x="430.128806" y="315.047808" style="fill: #36ff33; stroke: #36ff33; stroke-linejoin: miter"/>
     <use xlink:href="#m13f5dab5d2" x="447.613037" y="314.570158" style="fill: #36ff33; stroke: #36ff33; stroke-linejoin: miter"/>
     <use xlink:href="#m13f5dab5d2" x="465.462437" y="314.898744" style="fill: #36ff33; stroke: #36ff33; stroke-linejoin: miter"/>
     <use xlink:href="#m13f5dab5d2" x="482.844693" y="313.034078" style="fill: #36ff33; stroke: #36ff33; stroke-linejoin: miter"/>
     <use xlink:href="#m13f5dab5d2" x="500.530245" y="314.914951" style="fill: #36ff33; stroke: #36ff33; stroke-linejoin: miter"/>
     <use xlink:href="#m13f5dab5d2" x="518.403701" y="315.794477" style="fill: #36ff33; stroke: #36ff33; stroke-linejoin: miter"/>
     <use xlink:href="#m13f5dab5d2" x="518.403701" y="315.794477" style="fill: #36ff33; stroke: #36ff33; stroke-linejoin: miter"/>
    </g>
   </g>
   <g id="line2d_29">
    <path d="M 85.424393 -1 
L 89.550342 315.301309 
L 108.708508 313.814245 
L 126.455158 315.969995 
L 144.637691 315.193359 
L 162.368814 314.127352 
L 179.669932 315.77015 
L 198.699286 315.160319 
L 216.290621 314.253567 
L 234.180599 315.672381 
L 252.776253 315.141884 
L 270.125201 314.328247 
L 288.888219 315.610398 
L 306.634541 315.129498 
L 324.498307 314.379631 
L 341.931572 315.566154 
L 359.957721 315.120356 
L 377.37197 314.418036 
L 394.963605 315.532312 
L 412.692754 315.113208 
L 430.594049 314.448282 
L 447.910915 315.505224 
L 465.500918 315.107394 
L 482.820387 314.472991 
L 500.606112 315.482833 
L 518.335262 315.102523 
L 518.403418 314.487206 
" clip-path="url(#p3e240ff4ba)" style="fill: none; stroke-dasharray: 9.6,2.4,1.5,2.4; stroke-dashoffset: 0; stroke: #1c24dc; stroke-width: 1.5"/>
    <defs>
     <path id="mf027a12da7" d="M -3.5 3.5 
L 3.5 3.5 
L 3.5 -3.5 
L -3.5 -3.5 
z
" style="stroke: #1c24dc; stroke-linejoin: miter"/>
    </defs>
    <g clip-path="url(#p3e240ff4ba)">
     <use xlink:href="#mf027a12da7" x="85.424393" y="-1" style="fill: #1c24dc; stroke: #1c24dc; stroke-linejoin: miter"/>
     <use xlink:href="#mf027a12da7" x="89.550342" y="315.301309" style="fill: #1c24dc; stroke: #1c24dc; stroke-linejoin: miter"/>
     <use xlink:href="#mf027a12da7" x="108.708508" y="313.814245" style="fill: #1c24dc; stroke: #1c24dc; stroke-linejoin: miter"/>
     <use xlink:href="#mf027a12da7" x="126.455158" y="315.969995" style="fill: #1c24dc; stroke: #1c24dc; stroke-linejoin: miter"/>
     <use xlink:href="#mf027a12da7" x="144.637691" y="315.193359" style="fill: #1c24dc; stroke: #1c24dc; stroke-linejoin: miter"/>
     <use xlink:href="#mf027a12da7" x="162.368814" y="314.127352" style="fill: #1c24dc; stroke: #1c24dc; stroke-linejoin: miter"/>
     <use xlink:href="#mf027a12da7" x="179.669932" y="315.77015" style="fill: #1c24dc; stroke: #1c24dc; stroke-linejoin: miter"/>
     <use xlink:href="#mf027a12da7" x="198.699286" y="315.160319" style="fill: #1c24dc; stroke: #1c24dc; stroke-linejoin: miter"/>
     <use xlink:href="#mf027a12da7" x="216.290621" y="314.253567" style="fill: #1c24dc; stroke: #1c24dc; stroke-linejoin: miter"/>
     <use xlink:href="#mf027a12da7" x="234.180599" y="315.672381" style="fill: #1c24dc; stroke: #1c24dc; stroke-linejoin: miter"/>
     <use xlink:href="#mf027a12da7" x="252.776253" y="315.141884" style="fill: #1c24dc; stroke: #1c24dc; stroke-linejoin: miter"/>
     <use xlink:href="#mf027a12da7" x="270.125201" y="314.328247" style="fill: #1c24dc; stroke: #1c24dc; stroke-linejoin: miter"/>
     <use xlink:href="#mf027a12da7" x="288.888219" y="315.610398" style="fill: #1c24dc; stroke: #1c24dc; stroke-linejoin: miter"/>
     <use xlink:href="#mf027a12da7" x="306.634541" y="315.129498" style="fill: #1c24dc; stroke: #1c24dc; stroke-linejoin: miter"/>
     <use xlink:href="#mf027a12da7" x="324.498307" y="314.379631" style="fill: #1c24dc; stroke: #1c24dc; stroke-linejoin: miter"/>
     <use xlink:href="#mf027a12da7" x="341.931572" y="315.566154" style="fill: #1c24dc; stroke: #1c24dc; stroke-linejoin: miter"/>
     <use xlink:href="#mf027a12da7" x="359.957721" y="315.120356" style="fill: #1c24dc; stroke: #1c24dc; stroke-linejoin: miter"/>
     <use xlink:href="#mf027a12da7" x="377.37197" y="314.418036" style="fill: #1c24dc; stroke: #1c24dc; stroke-linejoin: miter"/>
     <use xlink:href="#mf027a12da7" x="394.963605" y="315.532312" style="fill: #1c24dc; stroke: #1c24dc; stroke-linejoin: miter"/>
     <use xlink:href="#mf027a12da7" x="412.692754" y="315.113208" style="fill: #1c24dc; stroke: #1c24dc; stroke-linejoin: miter"/>
     <use xlink:href="#mf027a12da7" x="430.594049" y="314.448282" style="fill: #1c24dc; stroke: #1c24dc; stroke-linejoin: miter"/>
     <use xlink:href="#mf027a12da7" x="447.910915" y="315.505224" style="fill: #1c24dc; stroke: #1c24dc; stroke-linejoin: miter"/>
     <use xlink:href="#mf027a12da7" x="465.500918" y="315.107394" style="fill: #1c24dc; stroke: #1c24dc; stroke-linejoin: miter"/>
     <use xlink:href="#mf027a12da7" x="482.820387" y="314.472991" style="fill: #1c24dc; stroke: #1c24dc; stroke-linejoin: miter"/>
     <use xlink:href="#mf027a12da7" x="500.606112" y="315.482833" style="fill: #1c24dc; stroke: #1c24dc; stroke-linejoin: miter"/>
     <use xlink:href="#mf027a12da7" x="518.335262" y="315.102523" style="fill: #1c24dc; stroke: #1c24dc; stroke-linejoin: miter"/>
     <use xlink:href="#mf027a12da7" x="518.403418" y="314.487206" style="fill: #1c24dc; stroke: #1c24dc; stroke-linejoin: miter"/>
    </g>
   </g>
   <g id="line2d_30">
    <path d="M 85.924043 -1 
L 90.14867 315.377016 
L 107.769831 315.296338 
L 125.262386 315.257053 
L 143.253277 315.232214 
L 161.664275 315.214515 
L 179.420244 315.200997 
L 198.323054 315.190187 
L 216.063016 315.181261 
L 233.868772 315.17371 
L 251.983202 315.1672 
L 269.762452 315.161506 
L 287.641683 315.156461 
L 305.12084 315.151948 
L 323.367209 315.147874 
L 341.017097 315.144171 
L 358.848505 315.140784 
L 376.525855 315.137668 
L 394.020937 315.134786 
L 411.795438 315.13211 
L 429.728253 315.129615 
L 447.443275 315.12728 
L 465.004017 315.125093 
L 482.608757 315.123029 
L 500.356628 315.121084 
L 518.325792 315.119244 
L 518.4002 315.119237 
" clip-path="url(#p3e240ff4ba)" style="fill: none; stroke-dasharray: 7.5,1.5; stroke-dashoffset: 0; stroke: #0d5915; stroke-width: 1.5"/>
    <defs>
     <path id="me6953aeaee" d="M 0 -5 
L -1.12257 -1.545085 
L -4.755283 -1.545085 
L -1.816356 0.59017 
L -2.938926 4.045085 
L -0 1.90983 
L 2.938926 4.045085 
L 1.816356 0.59017 
L 4.755283 -1.545085 
L 1.12257 -1.545085 
z
" style="stroke: #0d5915; stroke-linejoin: bevel"/>
    </defs>
    <g clip-path="url(#p3e240ff4ba)">
     <use xlink:href="#me6953aeaee" x="85.924043" y="-1" style="fill: #0d5915; stroke: #0d5915; stroke-linejoin: bevel"/>
     <use xlink:href="#me6953aeaee" x="90.14867" y="315.377016" style="fill: #0d5915; stroke: #0d5915; stroke-linejoin: bevel"/>
     <use xlink:href="#me6953aeaee" x="107.769831" y="315.296338" style="fill: #0d5915; stroke: #0d5915; stroke-linejoin: bevel"/>
     <use xlink:href="#me6953aeaee" x="125.262386" y="315.257053" style="fill: #0d5915; stroke: #0d5915; stroke-linejoin: bevel"/>
     <use xlink:href="#me6953aeaee" x="143.253277" y="315.232214" style="fill: #0d5915; stroke: #0d5915; stroke-linejoin: bevel"/>
     <use xlink:href="#me6953aeaee" x="161.664275" y="315.214515" style="fill: #0d5915; stroke: #0d5915; stroke-linejoin: bevel"/>
     <use xlink:href="#me6953aeaee" x="179.420244" y="315.200997" style="fill: #0d5915; stroke: #0d5915; stroke-linejoin: bevel"/>
     <use xlink:href="#me6953aeaee" x="198.323054" y="315.190187" style="fill: #0d5915; stroke: #0d5915; stroke-linejoin: bevel"/>
     <use xlink:href="#me6953aeaee" x="216.063016" y="315.181261" style="fill: #0d5915; stroke: #0d5915; stroke-linejoin: bevel"/>
     <use xlink:href="#me6953aeaee" x="233.868772" y="315.17371" style="fill: #0d5915; stroke: #0d5915; stroke-linejoin: bevel"/>
     <use xlink:href="#me6953aeaee" x="251.983202" y="315.1672" style="fill: #0d5915; stroke: #0d5915; stroke-linejoin: bevel"/>
     <use xlink:href="#me6953aeaee" x="269.762452" y="315.161506" style="fill: #0d5915; stroke: #0d5915; stroke-linejoin: bevel"/>
     <use xlink:href="#me6953aeaee" x="287.641683" y="315.156461" style="fill: #0d5915; stroke: #0d5915; stroke-linejoin: bevel"/>
     <use xlink:href="#me6953aeaee" x="305.12084" y="315.151948" style="fill: #0d5915; stroke: #0d5915; stroke-linejoin: bevel"/>
     <use xlink:href="#me6953aeaee" x="323.367209" y="315.147874" style="fill: #0d5915; stroke: #0d5915; stroke-linejoin: bevel"/>
     <use xlink:href="#me6953aeaee" x="341.017097" y="315.144171" style="fill: #0d5915; stroke: #0d5915; stroke-linejoin: bevel"/>
     <use xlink:href="#me6953aeaee" x="358.848505" y="315.140784" style="fill: #0d5915; stroke: #0d5915; stroke-linejoin: bevel"/>
     <use xlink:href="#me6953aeaee" x="376.525855" y="315.137668" style="fill: #0d5915; stroke: #0d5915; stroke-linejoin: bevel"/>
     <use xlink:href="#me6953aeaee" x="394.020937" y="315.134786" style="fill: #0d5915; stroke: #0d5915; stroke-linejoin: bevel"/>
     <use xlink:href="#me6953aeaee" x="411.795438" y="315.13211" style="fill: #0d5915; stroke: #0d5915; stroke-linejoin: bevel"/>
     <use xlink:href="#me6953aeaee" x="429.728253" y="315.129615" style="fill: #0d5915; stroke: #0d5915; stroke-linejoin: bevel"/>
     <use xlink:href="#me6953aeaee" x="447.443275" y="315.12728" style="fill: #0d5915; stroke: #0d5915; stroke-linejoin: bevel"/>
     <use xlink:href="#me6953aeaee" x="465.004017" y="315.125093" style="fill: #0d5915; stroke: #0d5915; stroke-linejoin: bevel"/>
     <use xlink:href="#me6953aeaee" x="482.608757" y="315.123029" style="fill: #0d5915; stroke: #0d5915; stroke-linejoin: bevel"/>
     <use xlink:href="#me6953aeaee" x="500.356628" y="315.121084" style="fill: #0d5915; stroke: #0d5915; stroke-linejoin: bevel"/>
     <use xlink:href="#me6953aeaee" x="518.325792" y="315.119244" style="fill: #0d5915; stroke: #0d5915; stroke-linejoin: bevel"/>
     <use xlink:href="#me6953aeaee" x="518.4002" y="315.119237" style="fill: #0d5915; stroke: #0d5915; stroke-linejoin: bevel"/>
    </g>
   </g>
   <g id="line2d_31">
    <path d="M 86.143777 -1 
L 90.400642 315.378047 
L 107.919089 315.297138 
L 125.361498 315.257746 
L 143.752818 315.232841 
L 161.620377 315.215097 
L 179.991034 315.201543 
L 198.629803 315.190707 
L 216.241225 315.181756 
L 234.143909 315.174187 
L 251.91698 315.167659 
L 269.510986 315.161951 
L 287.154986 315.156893 
L 304.900384 315.152368 
L 322.834812 315.148285 
L 340.311934 315.144573 
L 359.000964 315.141177 
L 376.872083 315.138051 
L 394.311525 315.135161 
L 412.118425 315.13248 
L 429.990509 315.129978 
L 447.815205 315.127639 
L 465.362482 315.125445 
L 483.132134 315.123378 
L 500.499312 315.121428 
L 518.395964 315.119583 
L 518.401257 315.119583 
" clip-path="url(#p3e240ff4ba)" style="fill: none; stroke-dasharray: 1.5,2.475; stroke-dashoffset: 0; stroke: #f119c3; stroke-width: 1.5"/>
    <defs>
     <path id="mf31968b4d3" d="M 0 0 
L 0 -7.5 
M 0 0 
L -6 3.75 
M 0 0 
L 6 3.75 
" style="stroke: #f119c3"/>
    </defs>
    <g clip-path="url(#p3e240ff4ba)">
     <use xlink:href="#mf31968b4d3" x="86.143777" y="-1" style="fill: #f119c3; stroke: #f119c3"/>
     <use xlink:href="#mf31968b4d3" x="90.400642" y="315.378047" style="fill: #f119c3; stroke: #f119c3"/>
     <use xlink:href="#mf31968b4d3" x="107.919089" y="315.297138" style="fill: #f119c3; stroke: #f119c3"/>
     <use xlink:href="#mf31968b4d3" x="125.361498" y="315.257746" style="fill: #f119c3; stroke: #f119c3"/>
     <use xlink:href="#mf31968b4d3" x="143.752818" y="315.232841" style="fill: #f119c3; stroke: #f119c3"/>
     <use xlink:href="#mf31968b4d3" x="161.620377" y="315.215097" style="fill: #f119c3; stroke: #f119c3"/>
     <use xlink:href="#mf31968b4d3" x="179.991034" y="315.201543" style="fill: #f119c3; stroke: #f119c3"/>
     <use xlink:href="#mf31968b4d3" x="198.629803" y="315.190707" style="fill: #f119c3; stroke: #f119c3"/>
     <use xlink:href="#mf31968b4d3" x="216.241225" y="315.181756" style="fill: #f119c3; stroke: #f119c3"/>
     <use xlink:href="#mf31968b4d3" x="234.143909" y="315.174187" style="fill: #f119c3; stroke: #f119c3"/>
     <use xlink:href="#mf31968b4d3" x="251.91698" y="315.167659" style="fill: #f119c3; stroke: #f119c3"/>
     <use xlink:href="#mf31968b4d3" x="269.510986" y="315.161951" style="fill: #f119c3; stroke: #f119c3"/>
     <use xlink:href="#mf31968b4d3" x="287.154986" y="315.156893" style="fill: #f119c3; stroke: #f119c3"/>
     <use xlink:href="#mf31968b4d3" x="304.900384" y="315.152368" style="fill: #f119c3; stroke: #f119c3"/>
     <use xlink:href="#mf31968b4d3" x="322.834812" y="315.148285" style="fill: #f119c3; stroke: #f119c3"/>
     <use xlink:href="#mf31968b4d3" x="340.311934" y="315.144573" style="fill: #f119c3; stroke: #f119c3"/>
     <use xlink:href="#mf31968b4d3" x="359.000964" y="315.141177" style="fill: #f119c3; stroke: #f119c3"/>
     <use xlink:href="#mf31968b4d3" x="376.872083" y="315.138051" style="fill: #f119c3; stroke: #f119c3"/>
     <use xlink:href="#mf31968b4d3" x="394.311525" y="315.135161" style="fill: #f119c3; stroke: #f119c3"/>
     <use xlink:href="#mf31968b4d3" x="412.118425" y="315.13248" style="fill: #f119c3; stroke: #f119c3"/>
     <use xlink:href="#mf31968b4d3" x="429.990509" y="315.129978" style="fill: #f119c3; stroke: #f119c3"/>
     <use xlink:href="#mf31968b4d3" x="447.815205" y="315.127639" style="fill: #f119c3; stroke: #f119c3"/>
     <use xlink:href="#mf31968b4d3" x="465.362482" y="315.125445" style="fill: #f119c3; stroke: #f119c3"/>
     <use xlink:href="#mf31968b4d3" x="483.132134" y="315.123378" style="fill: #f119c3; stroke: #f119c3"/>
     <use xlink:href="#mf31968b4d3" x="500.499312" y="315.121428" style="fill: #f119c3; stroke: #f119c3"/>
     <use xlink:href="#mf31968b4d3" x="518.395964" y="315.119583" style="fill: #f119c3; stroke: #f119c3"/>
     <use xlink:href="#mf31968b4d3" x="518.401257" y="315.119583" style="fill: #f119c3; stroke: #f119c3"/>
    </g>
   </g>
   <g id="patch_3">
    <path d="M 72 384.48 
L 72 51.84 
" style="fill: none; stroke: #000000; stroke-width: 0.8; stroke-linejoin: miter; stroke-linecap: square"/>
   </g>
   <g id="patch_4">
    <path d="M 518.4 384.48 
L 518.4 51.84 
" style="fill: none; stroke: #000000; stroke-width: 0.8; stroke-linejoin: miter; stroke-linecap: square"/>
   </g>
   <g id="patch_5">
    <path d="M 72 384.48 
L 518.4 384.48 
" style="fill: none; stroke: #000000; stroke-width: 0.8; stroke-linejoin: miter; stroke-linecap: square"/>
   </g>
   <g id="patch_6">
    <path d="M 72 51.84 
L 518.4 51.84 
" style="fill: none; stroke: #000000; stroke-width: 0.8; stroke-linejoin: miter; stroke-linecap: square"/>
   </g>
   <g id="legend_1">
    <g id="patch_7">
     <path d="M 439 133.84 
L 511.4 133.84 
Q 513.4 133.84 513.4 131.84 
L 513.4 58.84 
Q 513.4 56.84 511.4 56.84 
L 439 56.84 
Q 437 56.84 437 58.84 
L 437 131.84 
Q 437 133.84 439 133.84 
z
" style="fill: #ffffff; opacity: 0.8; stroke: #cccccc; stroke-linejoin: miter"/>
    </g>
    <g id="line2d_32">
     <path d="M 441 65.04 
L 451 65.04 
L 461 65.04 
" style="fill: none; stroke: #e31d1d; stroke-width: 1.5; stroke-linecap: square"/>
     <g>
      <use xlink:href="#mc72337f142" x="451" y="65.04" style="fill: #e31d1d; stroke: #e31d1d"/>
     </g>
    </g>
    <g id="text_16">
     <!-- $\beta=0.9$ -->
     <g transform="translate(469 68.54) scale(0.1 -0.1)">
      <defs>
       <path id="DejaVuSans-Oblique-3b2" d="M 872 216 
L 572 -1331 
L -6 -1331 
L 928 3478 
Q 1206 4903 2538 4903 
Q 3888 4903 3659 3700 
Q 3503 2844 2894 2531 
Q 3713 2250 3553 1416 
Q 3272 -69 1759 -66 
Q 1097 -63 872 216 
z
M 1019 966 
Q 1259 422 1875 425 
Q 2775 425 2966 1406 
Q 3138 2288 1675 2219 
L 1778 2750 
Q 2909 2731 3106 3750 
Q 3241 4438 2509 4434 
Q 1691 4434 1503 3459 
L 1019 966 
z
" transform="scale(0.015625)"/>
       <path id="DejaVuSans-3d" d="M 678 2906 
L 4684 2906 
L 4684 2381 
L 678 2381 
L 678 2906 
z
M 678 1631 
L 4684 1631 
L 4684 1100 
L 678 1100 
L 678 1631 
z
" transform="scale(0.015625)"/>
       <path id="DejaVuSans-2e" d="M 684 794 
L 1344 794 
L 1344 0 
L 684 0 
L 684 794 
z
" transform="scale(0.015625)"/>
       <path id="DejaVuSans-39" d="M 703 97 
L 703 672 
Q 941 559 1184 500 
Q 1428 441 1663 441 
Q 2288 441 2617 861 
Q 2947 1281 2994 2138 
Q 2813 1869 2534 1725 
Q 2256 1581 1919 1581 
Q 1219 1581 811 2004 
Q 403 2428 403 3163 
Q 403 3881 828 4315 
Q 1253 4750 1959 4750 
Q 2769 4750 3195 4129 
Q 3622 3509 3622 2328 
Q 3622 1225 3098 567 
Q 2575 -91 1691 -91 
Q 1453 -91 1209 -44 
Q 966 3 703 97 
z
M 1959 2075 
Q 2384 2075 2632 2365 
Q 2881 2656 2881 3163 
Q 2881 3666 2632 3958 
Q 2384 4250 1959 4250 
Q 1534 4250 1286 3958 
Q 1038 3666 1038 3163 
Q 1038 2656 1286 2365 
Q 1534 2075 1959 2075 
z
" transform="scale(0.015625)"/>
      </defs>
      <use xlink:href="#DejaVuSans-Oblique-3b2" transform="translate(0 0.390625)"/>
      <use xlink:href="#DejaVuSans-3d" transform="translate(83.300781 0.390625)"/>
      <use xlink:href="#DejaVuSans-30" transform="translate(186.572266 0.390625)"/>
      <use xlink:href="#DejaVuSans-2e" transform="translate(250.195312 0.390625)"/>
      <use xlink:href="#DejaVuSans-39" transform="translate(281.982422 0.390625)"/>
     </g>
    </g>
    <g id="line2d_33">
     <path d="M 441 79.84 
L 451 79.84 
L 461 79.84 
" style="fill: none; stroke-dasharray: 4.5,1.5,1.5,1.5,1.5,1.5; stroke-dashoffset: 0; stroke: #36ff33; stroke-width: 1.5"/>
     <g>
      <use xlink:href="#m13f5dab5d2" x="451" y="79.84" style="fill: #36ff33; stroke: #36ff33; stroke-linejoin: miter"/>
     </g>
    </g>
    <g id="text_17">
     <!-- $\beta=0.75$ -->
     <g transform="translate(469 83.34) scale(0.1 -0.1)">
      <defs>
       <path id="DejaVuSans-37" d="M 525 4666 
L 3525 4666 
L 3525 4397 
L 1831 0 
L 1172 0 
L 2766 4134 
L 525 4134 
L 525 4666 
z
" transform="scale(0.015625)"/>
      </defs>
      <use xlink:href="#DejaVuSans-Oblique-3b2" transform="translate(0 0.390625)"/>
      <use xlink:href="#DejaVuSans-3d" transform="translate(83.300781 0.390625)"/>
      <use xlink:href="#DejaVuSans-30" transform="translate(186.572266 0.390625)"/>
      <use xlink:href="#DejaVuSans-2e" transform="translate(250.195312 0.390625)"/>
      <use xlink:href="#DejaVuSans-37" transform="translate(274.232422 0.390625)"/>
      <use xlink:href="#DejaVuSans-35" transform="translate(337.855469 0.390625)"/>
     </g>
    </g>
    <g id="line2d_34">
     <path d="M 441 94.64 
L 451 94.64 
L 461 94.64 
" style="fill: none; stroke-dasharray: 9.6,2.4,1.5,2.4; stroke-dashoffset: 0; stroke: #1c24dc; stroke-width: 1.5"/>
     <g>
      <use xlink:href="#mf027a12da7" x="451" y="94.64" style="fill: #1c24dc; stroke: #1c24dc; stroke-linejoin: miter"/>
     </g>
    </g>
    <g id="text_18">
     <!-- $\beta=0.5$ -->
     <g transform="translate(469 98.14) scale(0.1 -0.1)">
      <use xlink:href="#DejaVuSans-Oblique-3b2" transform="translate(0 0.390625)"/>
      <use xlink:href="#DejaVuSans-3d" transform="translate(83.300781 0.390625)"/>
      <use xlink:href="#DejaVuSans-30" transform="translate(186.572266 0.390625)"/>
      <use xlink:href="#DejaVuSans-2e" transform="translate(250.195312 0.390625)"/>
      <use xlink:href="#DejaVuSans-35" transform="translate(281.982422 0.390625)"/>
     </g>
    </g>
    <g id="line2d_35">
     <path d="M 441 109.44 
L 451 109.44 
L 461 109.44 
" style="fill: none; stroke-dasharray: 7.5,1.5; stroke-dashoffset: 0; stroke: #0d5915; stroke-width: 1.5"/>
     <g>
      <use xlink:href="#me6953aeaee" x="451" y="109.44" style="fill: #0d5915; stroke: #0d5915; stroke-linejoin: bevel"/>
     </g>
    </g>
    <g id="text_19">
     <!-- $\beta=0.25$ -->
     <g transform="translate(469 112.94) scale(0.1 -0.1)">
      <use xlink:href="#DejaVuSans-Oblique-3b2" transform="translate(0 0.390625)"/>
      <use xlink:href="#DejaVuSans-3d" transform="translate(83.300781 0.390625)"/>
      <use xlink:href="#DejaVuSans-30" transform="translate(186.572266 0.390625)"/>
      <use xlink:href="#DejaVuSans-2e" transform="translate(250.195312 0.390625)"/>
      <use xlink:href="#DejaVuSans-32" transform="translate(276.482422 0.390625)"/>
      <use xlink:href="#DejaVuSans-35" transform="translate(340.105469 0.390625)"/>
     </g>
    </g>
    <g id="line2d_36">
     <path d="M 441 124.24 
L 451 124.24 
L 461 124.24 
" style="fill: none; stroke-dasharray: 1.5,2.475; stroke-dashoffset: 0; stroke: #f119c3; stroke-width: 1.5"/>
     <g>
      <use xlink:href="#mf31968b4d3" x="451" y="124.24" style="fill: #f119c3; stroke: #f119c3"/>
     </g>
    </g>
    <g id="text_20">
     <!-- $\beta=0.1$ -->
     <g transform="translate(469 127.74) scale(0.1 -0.1)">
      <use xlink:href="#DejaVuSans-Oblique-3b2" transform="translate(0 0.390625)"/>
      <use xlink:href="#DejaVuSans-3d" transform="translate(83.300781 0.390625)"/>
      <use xlink:href="#DejaVuSans-30" transform="translate(186.572266 0.390625)"/>
      <use xlink:href="#DejaVuSans-2e" transform="translate(250.195312 0.390625)"/>
      <use xlink:href="#DejaVuSans-31" transform="translate(281.982422 0.390625)"/>
     </g>
    </g>
   </g>
  </g>
 </g>
 <defs>
  <clipPath id="p3e240ff4ba">
   <rect x="72" y="51.84" width="446.4" height="332.64"/>
  </clipPath>
 </defs>
</svg>
