<?xml version="1.0" encoding="utf-8" standalone="no"?>
<!DOCTYPE svg PUBLIC "-//W3C//DTD SVG 1.1//EN"
  "http://www.w3.org/Graphics/SVG/1.1/DTD/svg11.dtd">
<svg xmlns:xlink="http://www.w3.org/1999/xlink" width="576pt" height="432pt" viewBox="0 0 576 432" xmlns="http://www.w3.org/2000/svg" version="1.1">
 <metadata>
  <rdf:RDF xmlns:dc="http://purl.org/dc/elements/1.1/" xmlns:cc="http://creativecommons.org/ns#" xmlns:rdf="http://www.w3.org/1999/02/22-rdf-syntax-ns#">
   <cc:Work>
    <dc:type rdf:resource="http://purl.org/dc/dcmitype/StillImage"/>
    <dc:date>2024-12-29T13:39:38.211462</dc:date>
    <dc:format>image/svg+xml</dc:format>
    <dc:creator>
     <cc:Agent>
      <dc:title>Matplotlib v3.7.1, https://matplotlib.org/</dc:title>
     </cc:Agent>
    </dc:creator>
   </cc:Work>
  </rdf:RDF>
 </metadata>
 <defs>
  <style type="text/css">*{stroke-linejoin: round; stroke-linecap: butt}</style>
 </defs>
 <g id="figure_1">
  <g id="patch_1">
   <path d="M 0 432 
L 576 432 
L 576 0 
L 0 0 
z
" style="fill: #ffffff"/>
  </g>
  <g id="axes_1">
   <g id="patch_2">
    <path d="M 72 384.48 
L 518.4 384.48 
L 518.4 51.84 
L 72 51.84 
z
" style="fill: #ffffff"/>
   </g>
   <g id="matplotlib.axis_1">
    <g id="xtick_1">
     <g id="line2d_1">
      <path d="M 72 384.48 
L 72 51.84 
" clip-path="url(#p39f50f1685)" style="fill: none; stroke: #b0b0b0; stroke-width: 0.8; stroke-linecap: square"/>
     </g>
     <g id="line2d_2">
      <defs>
       <path id="mc6ee089b7e" d="M 0 0 
L 0 3.5 
" style="stroke: #000000; stroke-width: 0.8"/>
      </defs>
      <g>
       <use xlink:href="#mc6ee089b7e" x="72" y="384.48" style="stroke: #000000; stroke-width: 0.8"/>
      </g>
     </g>
     <g id="text_1">
      <!-- 0 -->
      <g transform="translate(68.81875 399.078438) scale(0.1 -0.1)">
       <defs>
        <path id="DejaVuSans-30" d="M 2034 4250 
Q 1547 4250 1301 3770 
Q 1056 3291 1056 2328 
Q 1056 1369 1301 889 
Q 1547 409 2034 409 
Q 2525 409 2770 889 
Q 3016 1369 3016 2328 
Q 3016 3291 2770 3770 
Q 2525 4250 2034 4250 
z
M 2034 4750 
Q 2819 4750 3233 4129 
Q 3647 3509 3647 2328 
Q 3647 1150 3233 529 
Q 2819 -91 2034 -91 
Q 1250 -91 836 529 
Q 422 1150 422 2328 
Q 422 3509 836 4129 
Q 1250 4750 2034 4750 
z
" transform="scale(0.015625)"/>
       </defs>
       <use xlink:href="#DejaVuSans-30"/>
      </g>
     </g>
    </g>
    <g id="xtick_2">
     <g id="line2d_3">
      <path d="M 161.28 384.48 
L 161.28 51.84 
" clip-path="url(#p39f50f1685)" style="fill: none; stroke: #b0b0b0; stroke-width: 0.8; stroke-linecap: square"/>
     </g>
     <g id="line2d_4">
      <g>
       <use xlink:href="#mc6ee089b7e" x="161.28" y="384.48" style="stroke: #000000; stroke-width: 0.8"/>
      </g>
     </g>
     <g id="text_2">
      <!-- 100 -->
      <g transform="translate(151.73625 399.078438) scale(0.1 -0.1)">
       <defs>
        <path id="DejaVuSans-31" d="M 794 531 
L 1825 531 
L 1825 4091 
L 703 3866 
L 703 4441 
L 1819 4666 
L 2450 4666 
L 2450 531 
L 3481 531 
L 3481 0 
L 794 0 
L 794 531 
z
" transform="scale(0.015625)"/>
       </defs>
       <use xlink:href="#DejaVuSans-31"/>
       <use xlink:href="#DejaVuSans-30" x="63.623047"/>
       <use xlink:href="#DejaVuSans-30" x="127.246094"/>
      </g>
     </g>
    </g>
    <g id="xtick_3">
     <g id="line2d_5">
      <path d="M 250.56 384.48 
L 250.56 51.84 
" clip-path="url(#p39f50f1685)" style="fill: none; stroke: #b0b0b0; stroke-width: 0.8; stroke-linecap: square"/>
     </g>
     <g id="line2d_6">
      <g>
       <use xlink:href="#mc6ee089b7e" x="250.56" y="384.48" style="stroke: #000000; stroke-width: 0.8"/>
      </g>
     </g>
     <g id="text_3">
      <!-- 200 -->
      <g transform="translate(241.01625 399.078438) scale(0.1 -0.1)">
       <defs>
        <path id="DejaVuSans-32" d="M 1228 531 
L 3431 531 
L 3431 0 
L 469 0 
L 469 531 
Q 828 903 1448 1529 
Q 2069 2156 2228 2338 
Q 2531 2678 2651 2914 
Q 2772 3150 2772 3378 
Q 2772 3750 2511 3984 
Q 2250 4219 1831 4219 
Q 1534 4219 1204 4116 
Q 875 4013 500 3803 
L 500 4441 
Q 881 4594 1212 4672 
Q 1544 4750 1819 4750 
Q 2544 4750 2975 4387 
Q 3406 4025 3406 3419 
Q 3406 3131 3298 2873 
Q 3191 2616 2906 2266 
Q 2828 2175 2409 1742 
Q 1991 1309 1228 531 
z
" transform="scale(0.015625)"/>
       </defs>
       <use xlink:href="#DejaVuSans-32"/>
       <use xlink:href="#DejaVuSans-30" x="63.623047"/>
       <use xlink:href="#DejaVuSans-30" x="127.246094"/>
      </g>
     </g>
    </g>
    <g id="xtick_4">
     <g id="line2d_7">
      <path d="M 339.84 384.48 
L 339.84 51.84 
" clip-path="url(#p39f50f1685)" style="fill: none; stroke: #b0b0b0; stroke-width: 0.8; stroke-linecap: square"/>
     </g>
     <g id="line2d_8">
      <g>
       <use xlink:href="#mc6ee089b7e" x="339.84" y="384.48" style="stroke: #000000; stroke-width: 0.8"/>
      </g>
     </g>
     <g id="text_4">
      <!-- 300 -->
      <g transform="translate(330.29625 399.078438) scale(0.1 -0.1)">
       <defs>
        <path id="DejaVuSans-33" d="M 2597 2516 
Q 3050 2419 3304 2112 
Q 3559 1806 3559 1356 
Q 3559 666 3084 287 
Q 2609 -91 1734 -91 
Q 1441 -91 1130 -33 
Q 819 25 488 141 
L 488 750 
Q 750 597 1062 519 
Q 1375 441 1716 441 
Q 2309 441 2620 675 
Q 2931 909 2931 1356 
Q 2931 1769 2642 2001 
Q 2353 2234 1838 2234 
L 1294 2234 
L 1294 2753 
L 1863 2753 
Q 2328 2753 2575 2939 
Q 2822 3125 2822 3475 
Q 2822 3834 2567 4026 
Q 2313 4219 1838 4219 
Q 1578 4219 1281 4162 
Q 984 4106 628 3988 
L 628 4550 
Q 988 4650 1302 4700 
Q 1616 4750 1894 4750 
Q 2613 4750 3031 4423 
Q 3450 4097 3450 3541 
Q 3450 3153 3228 2886 
Q 3006 2619 2597 2516 
z
" transform="scale(0.015625)"/>
       </defs>
       <use xlink:href="#DejaVuSans-33"/>
       <use xlink:href="#DejaVuSans-30" x="63.623047"/>
       <use xlink:href="#DejaVuSans-30" x="127.246094"/>
      </g>
     </g>
    </g>
    <g id="xtick_5">
     <g id="line2d_9">
      <path d="M 429.12 384.48 
L 429.12 51.84 
" clip-path="url(#p39f50f1685)" style="fill: none; stroke: #b0b0b0; stroke-width: 0.8; stroke-linecap: square"/>
     </g>
     <g id="line2d_10">
      <g>
       <use xlink:href="#mc6ee089b7e" x="429.12" y="384.48" style="stroke: #000000; stroke-width: 0.8"/>
      </g>
     </g>
     <g id="text_5">
      <!-- 400 -->
      <g transform="translate(419.57625 399.078438) scale(0.1 -0.1)">
       <defs>
        <path id="DejaVuSans-34" d="M 2419 4116 
L 825 1625 
L 2419 1625 
L 2419 4116 
z
M 2253 4666 
L 3047 4666 
L 3047 1625 
L 3713 1625 
L 3713 1100 
L 3047 1100 
L 3047 0 
L 2419 0 
L 2419 1100 
L 313 1100 
L 313 1709 
L 2253 4666 
z
" transform="scale(0.015625)"/>
       </defs>
       <use xlink:href="#DejaVuSans-34"/>
       <use xlink:href="#DejaVuSans-30" x="63.623047"/>
       <use xlink:href="#DejaVuSans-30" x="127.246094"/>
      </g>
     </g>
    </g>
    <g id="xtick_6">
     <g id="line2d_11">
      <path d="M 518.4 384.48 
L 518.4 51.84 
" clip-path="url(#p39f50f1685)" style="fill: none; stroke: #b0b0b0; stroke-width: 0.8; stroke-linecap: square"/>
     </g>
     <g id="line2d_12">
      <g>
       <use xlink:href="#mc6ee089b7e" x="518.4" y="384.48" style="stroke: #000000; stroke-width: 0.8"/>
      </g>
     </g>
     <g id="text_6">
      <!-- 500 -->
      <g transform="translate(508.85625 399.078438) scale(0.1 -0.1)">
       <defs>
        <path id="DejaVuSans-35" d="M 691 4666 
L 3169 4666 
L 3169 4134 
L 1269 4134 
L 1269 2991 
Q 1406 3038 1543 3061 
Q 1681 3084 1819 3084 
Q 2600 3084 3056 2656 
Q 3513 2228 3513 1497 
Q 3513 744 3044 326 
Q 2575 -91 1722 -91 
Q 1428 -91 1123 -41 
Q 819 9 494 109 
L 494 744 
Q 775 591 1075 516 
Q 1375 441 1709 441 
Q 2250 441 2565 725 
Q 2881 1009 2881 1497 
Q 2881 1984 2565 2268 
Q 2250 2553 1709 2553 
Q 1456 2553 1204 2497 
Q 953 2441 691 2322 
L 691 4666 
z
" transform="scale(0.015625)"/>
       </defs>
       <use xlink:href="#DejaVuSans-35"/>
       <use xlink:href="#DejaVuSans-30" x="63.623047"/>
       <use xlink:href="#DejaVuSans-30" x="127.246094"/>
      </g>
     </g>
    </g>
    <g id="text_7">
     <!-- Computational time [s] -->
     <g transform="translate(208.501172 416.555781) scale(0.15 -0.15)">
      <defs>
       <path id="DejaVuSans-43" d="M 4122 4306 
L 4122 3641 
Q 3803 3938 3442 4084 
Q 3081 4231 2675 4231 
Q 1875 4231 1450 3742 
Q 1025 3253 1025 2328 
Q 1025 1406 1450 917 
Q 1875 428 2675 428 
Q 3081 428 3442 575 
Q 3803 722 4122 1019 
L 4122 359 
Q 3791 134 3420 21 
Q 3050 -91 2638 -91 
Q 1578 -91 968 557 
Q 359 1206 359 2328 
Q 359 3453 968 4101 
Q 1578 4750 2638 4750 
Q 3056 4750 3426 4639 
Q 3797 4528 4122 4306 
z
" transform="scale(0.015625)"/>
       <path id="DejaVuSans-6f" d="M 1959 3097 
Q 1497 3097 1228 2736 
Q 959 2375 959 1747 
Q 959 1119 1226 758 
Q 1494 397 1959 397 
Q 2419 397 2687 759 
Q 2956 1122 2956 1747 
Q 2956 2369 2687 2733 
Q 2419 3097 1959 3097 
z
M 1959 3584 
Q 2709 3584 3137 3096 
Q 3566 2609 3566 1747 
Q 3566 888 3137 398 
Q 2709 -91 1959 -91 
Q 1206 -91 779 398 
Q 353 888 353 1747 
Q 353 2609 779 3096 
Q 1206 3584 1959 3584 
z
" transform="scale(0.015625)"/>
       <path id="DejaVuSans-6d" d="M 3328 2828 
Q 3544 3216 3844 3400 
Q 4144 3584 4550 3584 
Q 5097 3584 5394 3201 
Q 5691 2819 5691 2113 
L 5691 0 
L 5113 0 
L 5113 2094 
Q 5113 2597 4934 2840 
Q 4756 3084 4391 3084 
Q 3944 3084 3684 2787 
Q 3425 2491 3425 1978 
L 3425 0 
L 2847 0 
L 2847 2094 
Q 2847 2600 2669 2842 
Q 2491 3084 2119 3084 
Q 1678 3084 1418 2786 
Q 1159 2488 1159 1978 
L 1159 0 
L 581 0 
L 581 3500 
L 1159 3500 
L 1159 2956 
Q 1356 3278 1631 3431 
Q 1906 3584 2284 3584 
Q 2666 3584 2933 3390 
Q 3200 3197 3328 2828 
z
" transform="scale(0.015625)"/>
       <path id="DejaVuSans-70" d="M 1159 525 
L 1159 -1331 
L 581 -1331 
L 581 3500 
L 1159 3500 
L 1159 2969 
Q 1341 3281 1617 3432 
Q 1894 3584 2278 3584 
Q 2916 3584 3314 3078 
Q 3713 2572 3713 1747 
Q 3713 922 3314 415 
Q 2916 -91 2278 -91 
Q 1894 -91 1617 61 
Q 1341 213 1159 525 
z
M 3116 1747 
Q 3116 2381 2855 2742 
Q 2594 3103 2138 3103 
Q 1681 3103 1420 2742 
Q 1159 2381 1159 1747 
Q 1159 1113 1420 752 
Q 1681 391 2138 391 
Q 2594 391 2855 752 
Q 3116 1113 3116 1747 
z
" transform="scale(0.015625)"/>
       <path id="DejaVuSans-75" d="M 544 1381 
L 544 3500 
L 1119 3500 
L 1119 1403 
Q 1119 906 1312 657 
Q 1506 409 1894 409 
Q 2359 409 2629 706 
Q 2900 1003 2900 1516 
L 2900 3500 
L 3475 3500 
L 3475 0 
L 2900 0 
L 2900 538 
Q 2691 219 2414 64 
Q 2138 -91 1772 -91 
Q 1169 -91 856 284 
Q 544 659 544 1381 
z
M 1991 3584 
L 1991 3584 
z
" transform="scale(0.015625)"/>
       <path id="DejaVuSans-74" d="M 1172 4494 
L 1172 3500 
L 2356 3500 
L 2356 3053 
L 1172 3053 
L 1172 1153 
Q 1172 725 1289 603 
Q 1406 481 1766 481 
L 2356 481 
L 2356 0 
L 1766 0 
Q 1100 0 847 248 
Q 594 497 594 1153 
L 594 3053 
L 172 3053 
L 172 3500 
L 594 3500 
L 594 4494 
L 1172 4494 
z
" transform="scale(0.015625)"/>
       <path id="DejaVuSans-61" d="M 2194 1759 
Q 1497 1759 1228 1600 
Q 959 1441 959 1056 
Q 959 750 1161 570 
Q 1363 391 1709 391 
Q 2188 391 2477 730 
Q 2766 1069 2766 1631 
L 2766 1759 
L 2194 1759 
z
M 3341 1997 
L 3341 0 
L 2766 0 
L 2766 531 
Q 2569 213 2275 61 
Q 1981 -91 1556 -91 
Q 1019 -91 701 211 
Q 384 513 384 1019 
Q 384 1609 779 1909 
Q 1175 2209 1959 2209 
L 2766 2209 
L 2766 2266 
Q 2766 2663 2505 2880 
Q 2244 3097 1772 3097 
Q 1472 3097 1187 3025 
Q 903 2953 641 2809 
L 641 3341 
Q 956 3463 1253 3523 
Q 1550 3584 1831 3584 
Q 2591 3584 2966 3190 
Q 3341 2797 3341 1997 
z
" transform="scale(0.015625)"/>
       <path id="DejaVuSans-69" d="M 603 3500 
L 1178 3500 
L 1178 0 
L 603 0 
L 603 3500 
z
M 603 4863 
L 1178 4863 
L 1178 4134 
L 603 4134 
L 603 4863 
z
" transform="scale(0.015625)"/>
       <path id="DejaVuSans-6e" d="M 3513 2113 
L 3513 0 
L 2938 0 
L 2938 2094 
Q 2938 2591 2744 2837 
Q 2550 3084 2163 3084 
Q 1697 3084 1428 2787 
Q 1159 2491 1159 1978 
L 1159 0 
L 581 0 
L 581 3500 
L 1159 3500 
L 1159 2956 
Q 1366 3272 1645 3428 
Q 1925 3584 2291 3584 
Q 2894 3584 3203 3211 
Q 3513 2838 3513 2113 
z
" transform="scale(0.015625)"/>
       <path id="DejaVuSans-6c" d="M 603 4863 
L 1178 4863 
L 1178 0 
L 603 0 
L 603 4863 
z
" transform="scale(0.015625)"/>
       <path id="DejaVuSans-20" transform="scale(0.015625)"/>
       <path id="DejaVuSans-65" d="M 3597 1894 
L 3597 1613 
L 953 1613 
Q 991 1019 1311 708 
Q 1631 397 2203 397 
Q 2534 397 2845 478 
Q 3156 559 3463 722 
L 3463 178 
Q 3153 47 2828 -22 
Q 2503 -91 2169 -91 
Q 1331 -91 842 396 
Q 353 884 353 1716 
Q 353 2575 817 3079 
Q 1281 3584 2069 3584 
Q 2775 3584 3186 3129 
Q 3597 2675 3597 1894 
z
M 3022 2063 
Q 3016 2534 2758 2815 
Q 2500 3097 2075 3097 
Q 1594 3097 1305 2825 
Q 1016 2553 972 2059 
L 3022 2063 
z
" transform="scale(0.015625)"/>
       <path id="DejaVuSans-5b" d="M 550 4863 
L 1875 4863 
L 1875 4416 
L 1125 4416 
L 1125 -397 
L 1875 -397 
L 1875 -844 
L 550 -844 
L 550 4863 
z
" transform="scale(0.015625)"/>
       <path id="DejaVuSans-73" d="M 2834 3397 
L 2834 2853 
Q 2591 2978 2328 3040 
Q 2066 3103 1784 3103 
Q 1356 3103 1142 2972 
Q 928 2841 928 2578 
Q 928 2378 1081 2264 
Q 1234 2150 1697 2047 
L 1894 2003 
Q 2506 1872 2764 1633 
Q 3022 1394 3022 966 
Q 3022 478 2636 193 
Q 2250 -91 1575 -91 
Q 1294 -91 989 -36 
Q 684 19 347 128 
L 347 722 
Q 666 556 975 473 
Q 1284 391 1588 391 
Q 1994 391 2212 530 
Q 2431 669 2431 922 
Q 2431 1156 2273 1281 
Q 2116 1406 1581 1522 
L 1381 1569 
Q 847 1681 609 1914 
Q 372 2147 372 2553 
Q 372 3047 722 3315 
Q 1072 3584 1716 3584 
Q 2034 3584 2315 3537 
Q 2597 3491 2834 3397 
z
" transform="scale(0.015625)"/>
       <path id="DejaVuSans-5d" d="M 1947 4863 
L 1947 -844 
L 622 -844 
L 622 -397 
L 1369 -397 
L 1369 4416 
L 622 4416 
L 622 4863 
L 1947 4863 
z
" transform="scale(0.015625)"/>
      </defs>
      <use xlink:href="#DejaVuSans-43"/>
      <use xlink:href="#DejaVuSans-6f" x="69.824219"/>
      <use xlink:href="#DejaVuSans-6d" x="131.005859"/>
      <use xlink:href="#DejaVuSans-70" x="228.417969"/>
      <use xlink:href="#DejaVuSans-75" x="291.894531"/>
      <use xlink:href="#DejaVuSans-74" x="355.273438"/>
      <use xlink:href="#DejaVuSans-61" x="394.482422"/>
      <use xlink:href="#DejaVuSans-74" x="455.761719"/>
      <use xlink:href="#DejaVuSans-69" x="494.970703"/>
      <use xlink:href="#DejaVuSans-6f" x="522.753906"/>
      <use xlink:href="#DejaVuSans-6e" x="583.935547"/>
      <use xlink:href="#DejaVuSans-61" x="647.314453"/>
      <use xlink:href="#DejaVuSans-6c" x="708.59375"/>
      <use xlink:href="#DejaVuSans-20" x="736.376953"/>
      <use xlink:href="#DejaVuSans-74" x="768.164062"/>
      <use xlink:href="#DejaVuSans-69" x="807.373047"/>
      <use xlink:href="#DejaVuSans-6d" x="835.15625"/>
      <use xlink:href="#DejaVuSans-65" x="932.568359"/>
      <use xlink:href="#DejaVuSans-20" x="994.091797"/>
      <use xlink:href="#DejaVuSans-5b" x="1025.878906"/>
      <use xlink:href="#DejaVuSans-73" x="1064.892578"/>
      <use xlink:href="#DejaVuSans-5d" x="1116.992188"/>
     </g>
    </g>
   </g>
   <g id="matplotlib.axis_2">
    <g id="ytick_1">
     <g id="line2d_13">
      <path d="M 72 384.48 
L 518.4 384.48 
" clip-path="url(#p39f50f1685)" style="fill: none; stroke: #b0b0b0; stroke-width: 0.8; stroke-linecap: square"/>
     </g>
     <g id="line2d_14">
      <defs>
       <path id="m311546cf69" d="M 0 0 
L -3.5 0 
" style="stroke: #000000; stroke-width: 0.8"/>
      </defs>
      <g>
       <use xlink:href="#m311546cf69" x="72" y="384.48" style="stroke: #000000; stroke-width: 0.8"/>
      </g>
     </g>
     <g id="text_8">
      <!-- 1 -->
      <g transform="translate(58.6375 388.279219) scale(0.1 -0.1)">
       <use xlink:href="#DejaVuSans-31"/>
      </g>
     </g>
    </g>
    <g id="ytick_2">
     <g id="line2d_15">
      <path d="M 72 347.52 
L 518.4 347.52 
" clip-path="url(#p39f50f1685)" style="fill: none; stroke: #b0b0b0; stroke-width: 0.8; stroke-linecap: square"/>
     </g>
     <g id="line2d_16">
      <g>
       <use xlink:href="#m311546cf69" x="72" y="347.52" style="stroke: #000000; stroke-width: 0.8"/>
      </g>
     </g>
     <g id="text_9">
      <!-- 2 -->
      <g transform="translate(58.6375 351.319219) scale(0.1 -0.1)">
       <use xlink:href="#DejaVuSans-32"/>
      </g>
     </g>
    </g>
    <g id="ytick_3">
     <g id="line2d_17">
      <path d="M 72 310.56 
L 518.4 310.56 
" clip-path="url(#p39f50f1685)" style="fill: none; stroke: #b0b0b0; stroke-width: 0.8; stroke-linecap: square"/>
     </g>
     <g id="line2d_18">
      <g>
       <use xlink:href="#m311546cf69" x="72" y="310.56" style="stroke: #000000; stroke-width: 0.8"/>
      </g>
     </g>
     <g id="text_10">
      <!-- 3 -->
      <g transform="translate(58.6375 314.359219) scale(0.1 -0.1)">
       <use xlink:href="#DejaVuSans-33"/>
      </g>
     </g>
    </g>
    <g id="ytick_4">
     <g id="line2d_19">
      <path d="M 72 273.6 
L 518.4 273.6 
" clip-path="url(#p39f50f1685)" style="fill: none; stroke: #b0b0b0; stroke-width: 0.8; stroke-linecap: square"/>
     </g>
     <g id="line2d_20">
      <g>
       <use xlink:href="#m311546cf69" x="72" y="273.6" style="stroke: #000000; stroke-width: 0.8"/>
      </g>
     </g>
     <g id="text_11">
      <!-- 4 -->
      <g transform="translate(58.6375 277.399219) scale(0.1 -0.1)">
       <use xlink:href="#DejaVuSans-34"/>
      </g>
     </g>
    </g>
    <g id="ytick_5">
     <g id="line2d_21">
      <path d="M 72 236.64 
L 518.4 236.64 
" clip-path="url(#p39f50f1685)" style="fill: none; stroke: #b0b0b0; stroke-width: 0.8; stroke-linecap: square"/>
     </g>
     <g id="line2d_22">
      <g>
       <use xlink:href="#m311546cf69" x="72" y="236.64" style="stroke: #000000; stroke-width: 0.8"/>
      </g>
     </g>
     <g id="text_12">
      <!-- 5 -->
      <g transform="translate(58.6375 240.439219) scale(0.1 -0.1)">
       <use xlink:href="#DejaVuSans-35"/>
      </g>
     </g>
    </g>
    <g id="ytick_6">
     <g id="line2d_23">
      <path d="M 72 199.68 
L 518.4 199.68 
" clip-path="url(#p39f50f1685)" style="fill: none; stroke: #b0b0b0; stroke-width: 0.8; stroke-linecap: square"/>
     </g>
     <g id="line2d_24">
      <g>
       <use xlink:href="#m311546cf69" x="72" y="199.68" style="stroke: #000000; stroke-width: 0.8"/>
      </g>
     </g>
     <g id="text_13">
      <!-- 6 -->
      <g transform="translate(58.6375 203.479219) scale(0.1 -0.1)">
       <defs>
        <path id="DejaVuSans-36" d="M 2113 2584 
Q 1688 2584 1439 2293 
Q 1191 2003 1191 1497 
Q 1191 994 1439 701 
Q 1688 409 2113 409 
Q 2538 409 2786 701 
Q 3034 994 3034 1497 
Q 3034 2003 2786 2293 
Q 2538 2584 2113 2584 
z
M 3366 4563 
L 3366 3988 
Q 3128 4100 2886 4159 
Q 2644 4219 2406 4219 
Q 1781 4219 1451 3797 
Q 1122 3375 1075 2522 
Q 1259 2794 1537 2939 
Q 1816 3084 2150 3084 
Q 2853 3084 3261 2657 
Q 3669 2231 3669 1497 
Q 3669 778 3244 343 
Q 2819 -91 2113 -91 
Q 1303 -91 875 529 
Q 447 1150 447 2328 
Q 447 3434 972 4092 
Q 1497 4750 2381 4750 
Q 2619 4750 2861 4703 
Q 3103 4656 3366 4563 
z
" transform="scale(0.015625)"/>
       </defs>
       <use xlink:href="#DejaVuSans-36"/>
      </g>
     </g>
    </g>
    <g id="ytick_7">
     <g id="line2d_25">
      <path d="M 72 162.72 
L 518.4 162.72 
" clip-path="url(#p39f50f1685)" style="fill: none; stroke: #b0b0b0; stroke-width: 0.8; stroke-linecap: square"/>
     </g>
     <g id="line2d_26">
      <g>
       <use xlink:href="#m311546cf69" x="72" y="162.72" style="stroke: #000000; stroke-width: 0.8"/>
      </g>
     </g>
     <g id="text_14">
      <!-- 7 -->
      <g transform="translate(58.6375 166.519219) scale(0.1 -0.1)">
       <defs>
        <path id="DejaVuSans-37" d="M 525 4666 
L 3525 4666 
L 3525 4397 
L 1831 0 
L 1172 0 
L 2766 4134 
L 525 4134 
L 525 4666 
z
" transform="scale(0.015625)"/>
       </defs>
       <use xlink:href="#DejaVuSans-37"/>
      </g>
     </g>
    </g>
    <g id="ytick_8">
     <g id="line2d_27">
      <path d="M 72 125.76 
L 518.4 125.76 
" clip-path="url(#p39f50f1685)" style="fill: none; stroke: #b0b0b0; stroke-width: 0.8; stroke-linecap: square"/>
     </g>
     <g id="line2d_28">
      <g>
       <use xlink:href="#m311546cf69" x="72" y="125.76" style="stroke: #000000; stroke-width: 0.8"/>
      </g>
     </g>
     <g id="text_15">
      <!-- 8 -->
      <g transform="translate(58.6375 129.559219) scale(0.1 -0.1)">
       <defs>
        <path id="DejaVuSans-38" d="M 2034 2216 
Q 1584 2216 1326 1975 
Q 1069 1734 1069 1313 
Q 1069 891 1326 650 
Q 1584 409 2034 409 
Q 2484 409 2743 651 
Q 3003 894 3003 1313 
Q 3003 1734 2745 1975 
Q 2488 2216 2034 2216 
z
M 1403 2484 
Q 997 2584 770 2862 
Q 544 3141 544 3541 
Q 544 4100 942 4425 
Q 1341 4750 2034 4750 
Q 2731 4750 3128 4425 
Q 3525 4100 3525 3541 
Q 3525 3141 3298 2862 
Q 3072 2584 2669 2484 
Q 3125 2378 3379 2068 
Q 3634 1759 3634 1313 
Q 3634 634 3220 271 
Q 2806 -91 2034 -91 
Q 1263 -91 848 271 
Q 434 634 434 1313 
Q 434 1759 690 2068 
Q 947 2378 1403 2484 
z
M 1172 3481 
Q 1172 3119 1398 2916 
Q 1625 2713 2034 2713 
Q 2441 2713 2670 2916 
Q 2900 3119 2900 3481 
Q 2900 3844 2670 4047 
Q 2441 4250 2034 4250 
Q 1625 4250 1398 4047 
Q 1172 3844 1172 3481 
z
" transform="scale(0.015625)"/>
       </defs>
       <use xlink:href="#DejaVuSans-38"/>
      </g>
     </g>
    </g>
    <g id="ytick_9">
     <g id="line2d_29">
      <path d="M 72 88.8 
L 518.4 88.8 
" clip-path="url(#p39f50f1685)" style="fill: none; stroke: #b0b0b0; stroke-width: 0.8; stroke-linecap: square"/>
     </g>
     <g id="line2d_30">
      <g>
       <use xlink:href="#m311546cf69" x="72" y="88.8" style="stroke: #000000; stroke-width: 0.8"/>
      </g>
     </g>
     <g id="text_16">
      <!-- 9 -->
      <g transform="translate(58.6375 92.599219) scale(0.1 -0.1)">
       <defs>
        <path id="DejaVuSans-39" d="M 703 97 
L 703 672 
Q 941 559 1184 500 
Q 1428 441 1663 441 
Q 2288 441 2617 861 
Q 2947 1281 2994 2138 
Q 2813 1869 2534 1725 
Q 2256 1581 1919 1581 
Q 1219 1581 811 2004 
Q 403 2428 403 3163 
Q 403 3881 828 4315 
Q 1253 4750 1959 4750 
Q 2769 4750 3195 4129 
Q 3622 3509 3622 2328 
Q 3622 1225 3098 567 
Q 2575 -91 1691 -91 
Q 1453 -91 1209 -44 
Q 966 3 703 97 
z
M 1959 2075 
Q 2384 2075 2632 2365 
Q 2881 2656 2881 3163 
Q 2881 3666 2632 3958 
Q 2384 4250 1959 4250 
Q 1534 4250 1286 3958 
Q 1038 3666 1038 3163 
Q 1038 2656 1286 2365 
Q 1534 2075 1959 2075 
z
" transform="scale(0.015625)"/>
       </defs>
       <use xlink:href="#DejaVuSans-39"/>
      </g>
     </g>
    </g>
    <g id="ytick_10">
     <g id="line2d_31">
      <path d="M 72 51.84 
L 518.4 51.84 
" clip-path="url(#p39f50f1685)" style="fill: none; stroke: #b0b0b0; stroke-width: 0.8; stroke-linecap: square"/>
     </g>
     <g id="line2d_32">
      <g>
       <use xlink:href="#m311546cf69" x="72" y="51.84" style="stroke: #000000; stroke-width: 0.8"/>
      </g>
     </g>
     <g id="text_17">
      <!-- 10 -->
      <g transform="translate(52.275 55.639219) scale(0.1 -0.1)">
       <use xlink:href="#DejaVuSans-31"/>
       <use xlink:href="#DejaVuSans-30" x="63.623047"/>
      </g>
     </g>
    </g>
    <g id="text_18">
     <!-- Objective value -->
     <g transform="translate(45.155469 276.595547) rotate(-90) scale(0.15 -0.15)">
      <defs>
       <path id="DejaVuSans-4f" d="M 2522 4238 
Q 1834 4238 1429 3725 
Q 1025 3213 1025 2328 
Q 1025 1447 1429 934 
Q 1834 422 2522 422 
Q 3209 422 3611 934 
Q 4013 1447 4013 2328 
Q 4013 3213 3611 3725 
Q 3209 4238 2522 4238 
z
M 2522 4750 
Q 3503 4750 4090 4092 
Q 4678 3434 4678 2328 
Q 4678 1225 4090 567 
Q 3503 -91 2522 -91 
Q 1538 -91 948 565 
Q 359 1222 359 2328 
Q 359 3434 948 4092 
Q 1538 4750 2522 4750 
z
" transform="scale(0.015625)"/>
       <path id="DejaVuSans-62" d="M 3116 1747 
Q 3116 2381 2855 2742 
Q 2594 3103 2138 3103 
Q 1681 3103 1420 2742 
Q 1159 2381 1159 1747 
Q 1159 1113 1420 752 
Q 1681 391 2138 391 
Q 2594 391 2855 752 
Q 3116 1113 3116 1747 
z
M 1159 2969 
Q 1341 3281 1617 3432 
Q 1894 3584 2278 3584 
Q 2916 3584 3314 3078 
Q 3713 2572 3713 1747 
Q 3713 922 3314 415 
Q 2916 -91 2278 -91 
Q 1894 -91 1617 61 
Q 1341 213 1159 525 
L 1159 0 
L 581 0 
L 581 4863 
L 1159 4863 
L 1159 2969 
z
" transform="scale(0.015625)"/>
       <path id="DejaVuSans-6a" d="M 603 3500 
L 1178 3500 
L 1178 -63 
Q 1178 -731 923 -1031 
Q 669 -1331 103 -1331 
L -116 -1331 
L -116 -844 
L 38 -844 
Q 366 -844 484 -692 
Q 603 -541 603 -63 
L 603 3500 
z
M 603 4863 
L 1178 4863 
L 1178 4134 
L 603 4134 
L 603 4863 
z
" transform="scale(0.015625)"/>
       <path id="DejaVuSans-63" d="M 3122 3366 
L 3122 2828 
Q 2878 2963 2633 3030 
Q 2388 3097 2138 3097 
Q 1578 3097 1268 2742 
Q 959 2388 959 1747 
Q 959 1106 1268 751 
Q 1578 397 2138 397 
Q 2388 397 2633 464 
Q 2878 531 3122 666 
L 3122 134 
Q 2881 22 2623 -34 
Q 2366 -91 2075 -91 
Q 1284 -91 818 406 
Q 353 903 353 1747 
Q 353 2603 823 3093 
Q 1294 3584 2113 3584 
Q 2378 3584 2631 3529 
Q 2884 3475 3122 3366 
z
" transform="scale(0.015625)"/>
       <path id="DejaVuSans-76" d="M 191 3500 
L 800 3500 
L 1894 563 
L 2988 3500 
L 3597 3500 
L 2284 0 
L 1503 0 
L 191 3500 
z
" transform="scale(0.015625)"/>
      </defs>
      <use xlink:href="#DejaVuSans-4f"/>
      <use xlink:href="#DejaVuSans-62" x="78.710938"/>
      <use xlink:href="#DejaVuSans-6a" x="142.1875"/>
      <use xlink:href="#DejaVuSans-65" x="169.970703"/>
      <use xlink:href="#DejaVuSans-63" x="231.494141"/>
      <use xlink:href="#DejaVuSans-74" x="286.474609"/>
      <use xlink:href="#DejaVuSans-69" x="325.683594"/>
      <use xlink:href="#DejaVuSans-76" x="353.466797"/>
      <use xlink:href="#DejaVuSans-65" x="412.646484"/>
      <use xlink:href="#DejaVuSans-20" x="474.169922"/>
      <use xlink:href="#DejaVuSans-76" x="505.957031"/>
      <use xlink:href="#DejaVuSans-61" x="565.136719"/>
      <use xlink:href="#DejaVuSans-6c" x="626.416016"/>
      <use xlink:href="#DejaVuSans-75" x="654.199219"/>
      <use xlink:href="#DejaVuSans-65" x="717.578125"/>
     </g>
    </g>
   </g>
   <g id="line2d_33">
    <path d="M 72.027625 117.70272 
L 92.655677 323.539269 
L 110.496122 316.981078 
L 126.759671 323.419987 
L 143.34706 325.25212 
L 158.97301 323.589619 
L 174.645441 326.097557 
L 191.900759 325.076144 
L 211.457203 325.798524 
L 229.698304 326.050628 
L 252.402228 320.958046 
L 270.517263 323.228173 
L 288.788443 326.065861 
L 308.28815 326.099227 
L 325.99024 321.219187 
L 341.921707 324.920412 
L 358.516858 325.249349 
L 374.288135 322.372148 
L 390.341172 321.87221 
L 406.016305 317.942332 
L 423.853799 322.687095 
L 441.785772 325.725778 
L 460.59529 324.461673 
L 479.818167 324.636339 
L 498.677793 325.36684 
L 518.378903 320.254481 
" clip-path="url(#p39f50f1685)" style="fill: none; stroke: #e31d1d; stroke-width: 1.5; stroke-linecap: square"/>
    <defs>
     <path id="m9fef848579" d="M 0 3.5 
C 0.928211 3.5 1.81853 3.131218 2.474874 2.474874 
C 3.131218 1.81853 3.5 0.928211 3.5 0 
C 3.5 -0.928211 3.131218 -1.81853 2.474874 -2.474874 
C 1.81853 -3.131218 0.928211 -3.5 0 -3.5 
C -0.928211 -3.5 -1.81853 -3.131218 -2.474874 -2.474874 
C -3.131218 -1.81853 -3.5 -0.928211 -3.5 0 
C -3.5 0.928211 -3.131218 1.81853 -2.474874 2.474874 
C -1.81853 3.131218 -0.928211 3.5 0 3.5 
z
" style="stroke: #e31d1d"/>
    </defs>
    <g clip-path="url(#p39f50f1685)">
     <use xlink:href="#m9fef848579" x="72.027625" y="117.70272" style="fill: #e31d1d; stroke: #e31d1d"/>
     <use xlink:href="#m9fef848579" x="92.655677" y="323.539269" style="fill: #e31d1d; stroke: #e31d1d"/>
     <use xlink:href="#m9fef848579" x="110.496122" y="316.981078" style="fill: #e31d1d; stroke: #e31d1d"/>
     <use xlink:href="#m9fef848579" x="126.759671" y="323.419987" style="fill: #e31d1d; stroke: #e31d1d"/>
     <use xlink:href="#m9fef848579" x="143.34706" y="325.25212" style="fill: #e31d1d; stroke: #e31d1d"/>
     <use xlink:href="#m9fef848579" x="158.97301" y="323.589619" style="fill: #e31d1d; stroke: #e31d1d"/>
     <use xlink:href="#m9fef848579" x="174.645441" y="326.097557" style="fill: #e31d1d; stroke: #e31d1d"/>
     <use xlink:href="#m9fef848579" x="191.900759" y="325.076144" style="fill: #e31d1d; stroke: #e31d1d"/>
     <use xlink:href="#m9fef848579" x="211.457203" y="325.798524" style="fill: #e31d1d; stroke: #e31d1d"/>
     <use xlink:href="#m9fef848579" x="229.698304" y="326.050628" style="fill: #e31d1d; stroke: #e31d1d"/>
     <use xlink:href="#m9fef848579" x="252.402228" y="320.958046" style="fill: #e31d1d; stroke: #e31d1d"/>
     <use xlink:href="#m9fef848579" x="270.517263" y="323.228173" style="fill: #e31d1d; stroke: #e31d1d"/>
     <use xlink:href="#m9fef848579" x="288.788443" y="326.065861" style="fill: #e31d1d; stroke: #e31d1d"/>
     <use xlink:href="#m9fef848579" x="308.28815" y="326.099227" style="fill: #e31d1d; stroke: #e31d1d"/>
     <use xlink:href="#m9fef848579" x="325.99024" y="321.219187" style="fill: #e31d1d; stroke: #e31d1d"/>
     <use xlink:href="#m9fef848579" x="341.921707" y="324.920412" style="fill: #e31d1d; stroke: #e31d1d"/>
     <use xlink:href="#m9fef848579" x="358.516858" y="325.249349" style="fill: #e31d1d; stroke: #e31d1d"/>
     <use xlink:href="#m9fef848579" x="374.288135" y="322.372148" style="fill: #e31d1d; stroke: #e31d1d"/>
     <use xlink:href="#m9fef848579" x="390.341172" y="321.87221" style="fill: #e31d1d; stroke: #e31d1d"/>
     <use xlink:href="#m9fef848579" x="406.016305" y="317.942332" style="fill: #e31d1d; stroke: #e31d1d"/>
     <use xlink:href="#m9fef848579" x="423.853799" y="322.687095" style="fill: #e31d1d; stroke: #e31d1d"/>
     <use xlink:href="#m9fef848579" x="441.785772" y="325.725778" style="fill: #e31d1d; stroke: #e31d1d"/>
     <use xlink:href="#m9fef848579" x="460.59529" y="324.461673" style="fill: #e31d1d; stroke: #e31d1d"/>
     <use xlink:href="#m9fef848579" x="479.818167" y="324.636339" style="fill: #e31d1d; stroke: #e31d1d"/>
     <use xlink:href="#m9fef848579" x="498.677793" y="325.36684" style="fill: #e31d1d; stroke: #e31d1d"/>
     <use xlink:href="#m9fef848579" x="518.378903" y="320.254481" style="fill: #e31d1d; stroke: #e31d1d"/>
    </g>
   </g>
   <g id="line2d_34">
    <path d="M 72.002671 106.7256 
L 91.160187 325.794942 
L 108.231482 325.460387 
L 124.350539 321.593315 
L 140.074323 324.514089 
L 155.74388 324.68878 
L 172.012202 325.651893 
L 188.624998 324.780587 
L 206.996764 324.67798 
L 226.251028 323.301033 
L 245.40941 323.951698 
L 263.627271 325.986063 
L 282.656196 322.571709 
L 301.82742 321.538224 
L 321.04799 325.745939 
L 340.273589 325.746452 
L 355.985688 323.808741 
L 371.63374 325.576841 
L 388.333836 324.216232 
L 404.153281 326.027683 
L 421.924598 321.980979 
L 441.25988 325.688565 
L 461.887652 323.099905 
L 481.067188 325.678137 
L 499.390027 324.136674 
L 518.390054 323.478107 
" clip-path="url(#p39f50f1685)" style="fill: none; stroke-dasharray: 4.5,1.5,1.5,1.5,1.5,1.5; stroke-dashoffset: 0; stroke: #36ff33; stroke-width: 1.5"/>
    <defs>
     <path id="m932ac66789" d="M 0 -3.5 
L -3.5 3.5 
L 3.5 3.5 
z
" style="stroke: #36ff33; stroke-linejoin: miter"/>
    </defs>
    <g clip-path="url(#p39f50f1685)">
     <use xlink:href="#m932ac66789" x="72.002671" y="106.7256" style="fill: #36ff33; stroke: #36ff33; stroke-linejoin: miter"/>
     <use xlink:href="#m932ac66789" x="91.160187" y="325.794942" style="fill: #36ff33; stroke: #36ff33; stroke-linejoin: miter"/>
     <use xlink:href="#m932ac66789" x="108.231482" y="325.460387" style="fill: #36ff33; stroke: #36ff33; stroke-linejoin: miter"/>
     <use xlink:href="#m932ac66789" x="124.350539" y="321.593315" style="fill: #36ff33; stroke: #36ff33; stroke-linejoin: miter"/>
     <use xlink:href="#m932ac66789" x="140.074323" y="324.514089" style="fill: #36ff33; stroke: #36ff33; stroke-linejoin: miter"/>
     <use xlink:href="#m932ac66789" x="155.74388" y="324.68878" style="fill: #36ff33; stroke: #36ff33; stroke-linejoin: miter"/>
     <use xlink:href="#m932ac66789" x="172.012202" y="325.651893" style="fill: #36ff33; stroke: #36ff33; stroke-linejoin: miter"/>
     <use xlink:href="#m932ac66789" x="188.624998" y="324.780587" style="fill: #36ff33; stroke: #36ff33; stroke-linejoin: miter"/>
     <use xlink:href="#m932ac66789" x="206.996764" y="324.67798" style="fill: #36ff33; stroke: #36ff33; stroke-linejoin: miter"/>
     <use xlink:href="#m932ac66789" x="226.251028" y="323.301033" style="fill: #36ff33; stroke: #36ff33; stroke-linejoin: miter"/>
     <use xlink:href="#m932ac66789" x="245.40941" y="323.951698" style="fill: #36ff33; stroke: #36ff33; stroke-linejoin: miter"/>
     <use xlink:href="#m932ac66789" x="263.627271" y="325.986063" style="fill: #36ff33; stroke: #36ff33; stroke-linejoin: miter"/>
     <use xlink:href="#m932ac66789" x="282.656196" y="322.571709" style="fill: #36ff33; stroke: #36ff33; stroke-linejoin: miter"/>
     <use xlink:href="#m932ac66789" x="301.82742" y="321.538224" style="fill: #36ff33; stroke: #36ff33; stroke-linejoin: miter"/>
     <use xlink:href="#m932ac66789" x="321.04799" y="325.745939" style="fill: #36ff33; stroke: #36ff33; stroke-linejoin: miter"/>
     <use xlink:href="#m932ac66789" x="340.273589" y="325.746452" style="fill: #36ff33; stroke: #36ff33; stroke-linejoin: miter"/>
     <use xlink:href="#m932ac66789" x="355.985688" y="323.808741" style="fill: #36ff33; stroke: #36ff33; stroke-linejoin: miter"/>
     <use xlink:href="#m932ac66789" x="371.63374" y="325.576841" style="fill: #36ff33; stroke: #36ff33; stroke-linejoin: miter"/>
     <use xlink:href="#m932ac66789" x="388.333836" y="324.216232" style="fill: #36ff33; stroke: #36ff33; stroke-linejoin: miter"/>
     <use xlink:href="#m932ac66789" x="404.153281" y="326.027683" style="fill: #36ff33; stroke: #36ff33; stroke-linejoin: miter"/>
     <use xlink:href="#m932ac66789" x="421.924598" y="321.980979" style="fill: #36ff33; stroke: #36ff33; stroke-linejoin: miter"/>
     <use xlink:href="#m932ac66789" x="441.25988" y="325.688565" style="fill: #36ff33; stroke: #36ff33; stroke-linejoin: miter"/>
     <use xlink:href="#m932ac66789" x="461.887652" y="323.099905" style="fill: #36ff33; stroke: #36ff33; stroke-linejoin: miter"/>
     <use xlink:href="#m932ac66789" x="481.067188" y="325.678137" style="fill: #36ff33; stroke: #36ff33; stroke-linejoin: miter"/>
     <use xlink:href="#m932ac66789" x="499.390027" y="324.136674" style="fill: #36ff33; stroke: #36ff33; stroke-linejoin: miter"/>
     <use xlink:href="#m932ac66789" x="518.390054" y="323.478107" style="fill: #36ff33; stroke: #36ff33; stroke-linejoin: miter"/>
    </g>
   </g>
   <g id="line2d_35">
    <path d="M 72.002639 88.4304 
L 91.35903 326.684321 
L 107.707925 324.056693 
L 123.649012 325.355875 
L 139.48585 326.188384 
L 156.098094 324.395486 
L 171.910948 325.353425 
L 189.520388 326.044697 
L 207.644653 324.533028 
L 227.583725 325.352233 
L 245.858644 325.966153 
L 266.269256 324.614701 
L 285.346518 325.35148 
L 303.900599 325.914055 
L 320.194804 324.671032 
L 336.202088 325.350944 
L 351.644789 325.875934 
L 367.64261 324.713206 
L 383.790979 325.350534 
L 399.755156 325.84632 
L 422.45614 324.746468 
L 441.028234 325.350207 
L 458.852969 325.822363 
L 477.533319 324.773667 
L 500.090651 325.349937 
L 518.400802 325.802408 
" clip-path="url(#p39f50f1685)" style="fill: none; stroke-dasharray: 9.6,2.4,1.5,2.4; stroke-dashoffset: 0; stroke: #1c24dc; stroke-width: 1.5"/>
    <defs>
     <path id="ma4d77b84f1" d="M -3.5 3.5 
L 3.5 3.5 
L 3.5 -3.5 
L -3.5 -3.5 
z
" style="stroke: #1c24dc; stroke-linejoin: miter"/>
    </defs>
    <g clip-path="url(#p39f50f1685)">
     <use xlink:href="#ma4d77b84f1" x="72.002639" y="88.4304" style="fill: #1c24dc; stroke: #1c24dc; stroke-linejoin: miter"/>
     <use xlink:href="#ma4d77b84f1" x="91.35903" y="326.684321" style="fill: #1c24dc; stroke: #1c24dc; stroke-linejoin: miter"/>
     <use xlink:href="#ma4d77b84f1" x="107.707925" y="324.056693" style="fill: #1c24dc; stroke: #1c24dc; stroke-linejoin: miter"/>
     <use xlink:href="#ma4d77b84f1" x="123.649012" y="325.355875" style="fill: #1c24dc; stroke: #1c24dc; stroke-linejoin: miter"/>
     <use xlink:href="#ma4d77b84f1" x="139.48585" y="326.188384" style="fill: #1c24dc; stroke: #1c24dc; stroke-linejoin: miter"/>
     <use xlink:href="#ma4d77b84f1" x="156.098094" y="324.395486" style="fill: #1c24dc; stroke: #1c24dc; stroke-linejoin: miter"/>
     <use xlink:href="#ma4d77b84f1" x="171.910948" y="325.353425" style="fill: #1c24dc; stroke: #1c24dc; stroke-linejoin: miter"/>
     <use xlink:href="#ma4d77b84f1" x="189.520388" y="326.044697" style="fill: #1c24dc; stroke: #1c24dc; stroke-linejoin: miter"/>
     <use xlink:href="#ma4d77b84f1" x="207.644653" y="324.533028" style="fill: #1c24dc; stroke: #1c24dc; stroke-linejoin: miter"/>
     <use xlink:href="#ma4d77b84f1" x="227.583725" y="325.352233" style="fill: #1c24dc; stroke: #1c24dc; stroke-linejoin: miter"/>
     <use xlink:href="#ma4d77b84f1" x="245.858644" y="325.966153" style="fill: #1c24dc; stroke: #1c24dc; stroke-linejoin: miter"/>
     <use xlink:href="#ma4d77b84f1" x="266.269256" y="324.614701" style="fill: #1c24dc; stroke: #1c24dc; stroke-linejoin: miter"/>
     <use xlink:href="#ma4d77b84f1" x="285.346518" y="325.35148" style="fill: #1c24dc; stroke: #1c24dc; stroke-linejoin: miter"/>
     <use xlink:href="#ma4d77b84f1" x="303.900599" y="325.914055" style="fill: #1c24dc; stroke: #1c24dc; stroke-linejoin: miter"/>
     <use xlink:href="#ma4d77b84f1" x="320.194804" y="324.671032" style="fill: #1c24dc; stroke: #1c24dc; stroke-linejoin: miter"/>
     <use xlink:href="#ma4d77b84f1" x="336.202088" y="325.350944" style="fill: #1c24dc; stroke: #1c24dc; stroke-linejoin: miter"/>
     <use xlink:href="#ma4d77b84f1" x="351.644789" y="325.875934" style="fill: #1c24dc; stroke: #1c24dc; stroke-linejoin: miter"/>
     <use xlink:href="#ma4d77b84f1" x="367.64261" y="324.713206" style="fill: #1c24dc; stroke: #1c24dc; stroke-linejoin: miter"/>
     <use xlink:href="#ma4d77b84f1" x="383.790979" y="325.350534" style="fill: #1c24dc; stroke: #1c24dc; stroke-linejoin: miter"/>
     <use xlink:href="#ma4d77b84f1" x="399.755156" y="325.84632" style="fill: #1c24dc; stroke: #1c24dc; stroke-linejoin: miter"/>
     <use xlink:href="#ma4d77b84f1" x="422.45614" y="324.746468" style="fill: #1c24dc; stroke: #1c24dc; stroke-linejoin: miter"/>
     <use xlink:href="#ma4d77b84f1" x="441.028234" y="325.350207" style="fill: #1c24dc; stroke: #1c24dc; stroke-linejoin: miter"/>
     <use xlink:href="#ma4d77b84f1" x="458.852969" y="325.822363" style="fill: #1c24dc; stroke: #1c24dc; stroke-linejoin: miter"/>
     <use xlink:href="#ma4d77b84f1" x="477.533319" y="324.773667" style="fill: #1c24dc; stroke: #1c24dc; stroke-linejoin: miter"/>
     <use xlink:href="#ma4d77b84f1" x="500.090651" y="325.349937" style="fill: #1c24dc; stroke: #1c24dc; stroke-linejoin: miter"/>
     <use xlink:href="#ma4d77b84f1" x="518.400802" y="325.802408" style="fill: #1c24dc; stroke: #1c24dc; stroke-linejoin: miter"/>
    </g>
   </g>
   <g id="line2d_36">
    <path d="M 72.002581 70.1352 
L 90.644228 325.670092 
L 107.22947 325.602821 
L 123.041593 325.570101 
L 139.327201 325.549427 
L 155.631972 325.534702 
L 171.408205 325.523457 
L 188.088818 325.514469 
L 206.678498 325.507048 
L 225.110236 325.50077 
L 245.122741 325.49536 
L 263.670007 325.490627 
L 281.913862 325.486435 
L 300.924743 325.482685 
L 319.559089 325.479301 
L 335.394561 325.476225 
L 352.087392 325.473411 
L 368.431654 325.470822 
L 384.283014 325.468429 
L 401.623772 325.466206 
L 421.092072 325.464135 
L 439.903734 325.462197 
L 458.914471 325.460378 
L 478.388609 325.458666 
L 499.749696 325.457051 
L 518.374473 325.455523 
" clip-path="url(#p39f50f1685)" style="fill: none; stroke-dasharray: 7.5,1.5; stroke-dashoffset: 0; stroke: #0d5915; stroke-width: 1.5"/>
    <defs>
     <path id="m93e6d719b7" d="M 0 -5 
L -1.12257 -1.545085 
L -4.755283 -1.545085 
L -1.816356 0.59017 
L -2.938926 4.045085 
L -0 1.90983 
L 2.938926 4.045085 
L 1.816356 0.59017 
L 4.755283 -1.545085 
L 1.12257 -1.545085 
z
" style="stroke: #0d5915; stroke-linejoin: bevel"/>
    </defs>
    <g clip-path="url(#p39f50f1685)">
     <use xlink:href="#m93e6d719b7" x="72.002581" y="70.1352" style="fill: #0d5915; stroke: #0d5915; stroke-linejoin: bevel"/>
     <use xlink:href="#m93e6d719b7" x="90.644228" y="325.670092" style="fill: #0d5915; stroke: #0d5915; stroke-linejoin: bevel"/>
     <use xlink:href="#m93e6d719b7" x="107.22947" y="325.602821" style="fill: #0d5915; stroke: #0d5915; stroke-linejoin: bevel"/>
     <use xlink:href="#m93e6d719b7" x="123.041593" y="325.570101" style="fill: #0d5915; stroke: #0d5915; stroke-linejoin: bevel"/>
     <use xlink:href="#m93e6d719b7" x="139.327201" y="325.549427" style="fill: #0d5915; stroke: #0d5915; stroke-linejoin: bevel"/>
     <use xlink:href="#m93e6d719b7" x="155.631972" y="325.534702" style="fill: #0d5915; stroke: #0d5915; stroke-linejoin: bevel"/>
     <use xlink:href="#m93e6d719b7" x="171.408205" y="325.523457" style="fill: #0d5915; stroke: #0d5915; stroke-linejoin: bevel"/>
     <use xlink:href="#m93e6d719b7" x="188.088818" y="325.514469" style="fill: #0d5915; stroke: #0d5915; stroke-linejoin: bevel"/>
     <use xlink:href="#m93e6d719b7" x="206.678498" y="325.507048" style="fill: #0d5915; stroke: #0d5915; stroke-linejoin: bevel"/>
     <use xlink:href="#m93e6d719b7" x="225.110236" y="325.50077" style="fill: #0d5915; stroke: #0d5915; stroke-linejoin: bevel"/>
     <use xlink:href="#m93e6d719b7" x="245.122741" y="325.49536" style="fill: #0d5915; stroke: #0d5915; stroke-linejoin: bevel"/>
     <use xlink:href="#m93e6d719b7" x="263.670007" y="325.490627" style="fill: #0d5915; stroke: #0d5915; stroke-linejoin: bevel"/>
     <use xlink:href="#m93e6d719b7" x="281.913862" y="325.486435" style="fill: #0d5915; stroke: #0d5915; stroke-linejoin: bevel"/>
     <use xlink:href="#m93e6d719b7" x="300.924743" y="325.482685" style="fill: #0d5915; stroke: #0d5915; stroke-linejoin: bevel"/>
     <use xlink:href="#m93e6d719b7" x="319.559089" y="325.479301" style="fill: #0d5915; stroke: #0d5915; stroke-linejoin: bevel"/>
     <use xlink:href="#m93e6d719b7" x="335.394561" y="325.476225" style="fill: #0d5915; stroke: #0d5915; stroke-linejoin: bevel"/>
     <use xlink:href="#m93e6d719b7" x="352.087392" y="325.473411" style="fill: #0d5915; stroke: #0d5915; stroke-linejoin: bevel"/>
     <use xlink:href="#m93e6d719b7" x="368.431654" y="325.470822" style="fill: #0d5915; stroke: #0d5915; stroke-linejoin: bevel"/>
     <use xlink:href="#m93e6d719b7" x="384.283014" y="325.468429" style="fill: #0d5915; stroke: #0d5915; stroke-linejoin: bevel"/>
     <use xlink:href="#m93e6d719b7" x="401.623772" y="325.466206" style="fill: #0d5915; stroke: #0d5915; stroke-linejoin: bevel"/>
     <use xlink:href="#m93e6d719b7" x="421.092072" y="325.464135" style="fill: #0d5915; stroke: #0d5915; stroke-linejoin: bevel"/>
     <use xlink:href="#m93e6d719b7" x="439.903734" y="325.462197" style="fill: #0d5915; stroke: #0d5915; stroke-linejoin: bevel"/>
     <use xlink:href="#m93e6d719b7" x="458.914471" y="325.460378" style="fill: #0d5915; stroke: #0d5915; stroke-linejoin: bevel"/>
     <use xlink:href="#m93e6d719b7" x="478.388609" y="325.458666" style="fill: #0d5915; stroke: #0d5915; stroke-linejoin: bevel"/>
     <use xlink:href="#m93e6d719b7" x="499.749696" y="325.457051" style="fill: #0d5915; stroke: #0d5915; stroke-linejoin: bevel"/>
     <use xlink:href="#m93e6d719b7" x="518.374473" y="325.455523" style="fill: #0d5915; stroke: #0d5915; stroke-linejoin: bevel"/>
    </g>
   </g>
   <g id="line2d_37">
    <path d="M 72.005739 59.15808 
L 89.352034 325.669425 
L 105.32722 325.602286 
L 121.22626 325.569633 
L 138.072618 325.549001 
L 153.96688 325.534305 
L 170.496641 325.523084 
L 189.768012 325.514114 
L 208.373693 325.506709 
L 227.734436 325.500444 
L 247.306583 325.495045 
L 265.946109 325.490322 
L 285.213201 325.486139 
L 303.645822 325.482397 
L 319.766604 325.47902 
L 335.701307 325.47595 
L 352.080157 325.473142 
L 367.952172 325.470558 
L 384.243187 325.46817 
L 403.57754 325.465952 
L 421.994346 325.463884 
L 441.577876 325.46195 
L 461.101112 325.460136 
L 479.49846 325.458427 
L 499.480004 325.456816 
L 518.379172 325.455291 
" clip-path="url(#p39f50f1685)" style="fill: none; stroke-dasharray: 1.5,2.475; stroke-dashoffset: 0; stroke: #f119c3; stroke-width: 1.5"/>
    <defs>
     <path id="ma4a86cdfee" d="M 0 0 
L 0 -7.5 
M 0 0 
L -6 3.75 
M 0 0 
L 6 3.75 
" style="stroke: #f119c3"/>
    </defs>
    <g clip-path="url(#p39f50f1685)">
     <use xlink:href="#ma4a86cdfee" x="72.005739" y="59.15808" style="fill: #f119c3; stroke: #f119c3"/>
     <use xlink:href="#ma4a86cdfee" x="89.352034" y="325.669425" style="fill: #f119c3; stroke: #f119c3"/>
     <use xlink:href="#ma4a86cdfee" x="105.32722" y="325.602286" style="fill: #f119c3; stroke: #f119c3"/>
     <use xlink:href="#ma4a86cdfee" x="121.22626" y="325.569633" style="fill: #f119c3; stroke: #f119c3"/>
     <use xlink:href="#ma4a86cdfee" x="138.072618" y="325.549001" style="fill: #f119c3; stroke: #f119c3"/>
     <use xlink:href="#ma4a86cdfee" x="153.96688" y="325.534305" style="fill: #f119c3; stroke: #f119c3"/>
     <use xlink:href="#ma4a86cdfee" x="170.496641" y="325.523084" style="fill: #f119c3; stroke: #f119c3"/>
     <use xlink:href="#ma4a86cdfee" x="189.768012" y="325.514114" style="fill: #f119c3; stroke: #f119c3"/>
     <use xlink:href="#ma4a86cdfee" x="208.373693" y="325.506709" style="fill: #f119c3; stroke: #f119c3"/>
     <use xlink:href="#ma4a86cdfee" x="227.734436" y="325.500444" style="fill: #f119c3; stroke: #f119c3"/>
     <use xlink:href="#ma4a86cdfee" x="247.306583" y="325.495045" style="fill: #f119c3; stroke: #f119c3"/>
     <use xlink:href="#ma4a86cdfee" x="265.946109" y="325.490322" style="fill: #f119c3; stroke: #f119c3"/>
     <use xlink:href="#ma4a86cdfee" x="285.213201" y="325.486139" style="fill: #f119c3; stroke: #f119c3"/>
     <use xlink:href="#ma4a86cdfee" x="303.645822" y="325.482397" style="fill: #f119c3; stroke: #f119c3"/>
     <use xlink:href="#ma4a86cdfee" x="319.766604" y="325.47902" style="fill: #f119c3; stroke: #f119c3"/>
     <use xlink:href="#ma4a86cdfee" x="335.701307" y="325.47595" style="fill: #f119c3; stroke: #f119c3"/>
     <use xlink:href="#ma4a86cdfee" x="352.080157" y="325.473142" style="fill: #f119c3; stroke: #f119c3"/>
     <use xlink:href="#ma4a86cdfee" x="367.952172" y="325.470558" style="fill: #f119c3; stroke: #f119c3"/>
     <use xlink:href="#ma4a86cdfee" x="384.243187" y="325.46817" style="fill: #f119c3; stroke: #f119c3"/>
     <use xlink:href="#ma4a86cdfee" x="403.57754" y="325.465952" style="fill: #f119c3; stroke: #f119c3"/>
     <use xlink:href="#ma4a86cdfee" x="421.994346" y="325.463884" style="fill: #f119c3; stroke: #f119c3"/>
     <use xlink:href="#ma4a86cdfee" x="441.577876" y="325.46195" style="fill: #f119c3; stroke: #f119c3"/>
     <use xlink:href="#ma4a86cdfee" x="461.101112" y="325.460136" style="fill: #f119c3; stroke: #f119c3"/>
     <use xlink:href="#ma4a86cdfee" x="479.49846" y="325.458427" style="fill: #f119c3; stroke: #f119c3"/>
     <use xlink:href="#ma4a86cdfee" x="499.480004" y="325.456816" style="fill: #f119c3; stroke: #f119c3"/>
     <use xlink:href="#ma4a86cdfee" x="518.379172" y="325.455291" style="fill: #f119c3; stroke: #f119c3"/>
    </g>
   </g>
   <g id="patch_3">
    <path d="M 72 384.48 
L 72 51.84 
" style="fill: none; stroke: #000000; stroke-width: 0.8; stroke-linejoin: miter; stroke-linecap: square"/>
   </g>
   <g id="patch_4">
    <path d="M 518.4 384.48 
L 518.4 51.84 
" style="fill: none; stroke: #000000; stroke-width: 0.8; stroke-linejoin: miter; stroke-linecap: square"/>
   </g>
   <g id="patch_5">
    <path d="M 72 384.48 
L 518.4 384.48 
" style="fill: none; stroke: #000000; stroke-width: 0.8; stroke-linejoin: miter; stroke-linecap: square"/>
   </g>
   <g id="patch_6">
    <path d="M 72 51.84 
L 518.4 51.84 
" style="fill: none; stroke: #000000; stroke-width: 0.8; stroke-linejoin: miter; stroke-linecap: square"/>
   </g>
   <g id="legend_1">
    <g id="patch_7">
     <path d="M 439 133.84 
L 511.4 133.84 
Q 513.4 133.84 513.4 131.84 
L 513.4 58.84 
Q 513.4 56.84 511.4 56.84 
L 439 56.84 
Q 437 56.84 437 58.84 
L 437 131.84 
Q 437 133.84 439 133.84 
z
" style="fill: #ffffff; opacity: 0.8; stroke: #cccccc; stroke-linejoin: miter"/>
    </g>
    <g id="line2d_38">
     <path d="M 441 65.04 
L 451 65.04 
L 461 65.04 
" style="fill: none; stroke: #e31d1d; stroke-width: 1.5; stroke-linecap: square"/>
     <g>
      <use xlink:href="#m9fef848579" x="451" y="65.04" style="fill: #e31d1d; stroke: #e31d1d"/>
     </g>
    </g>
    <g id="text_19">
     <!-- $\beta=0.9$ -->
     <g transform="translate(469 68.54) scale(0.1 -0.1)">
      <defs>
       <path id="DejaVuSans-Oblique-3b2" d="M 872 216 
L 572 -1331 
L -6 -1331 
L 928 3478 
Q 1206 4903 2538 4903 
Q 3888 4903 3659 3700 
Q 3503 2844 2894 2531 
Q 3713 2250 3553 1416 
Q 3272 -69 1759 -66 
Q 1097 -63 872 216 
z
M 1019 966 
Q 1259 422 1875 425 
Q 2775 425 2966 1406 
Q 3138 2288 1675 2219 
L 1778 2750 
Q 2909 2731 3106 3750 
Q 3241 4438 2509 4434 
Q 1691 4434 1503 3459 
L 1019 966 
z
" transform="scale(0.015625)"/>
       <path id="DejaVuSans-3d" d="M 678 2906 
L 4684 2906 
L 4684 2381 
L 678 2381 
L 678 2906 
z
M 678 1631 
L 4684 1631 
L 4684 1100 
L 678 1100 
L 678 1631 
z
" transform="scale(0.015625)"/>
       <path id="DejaVuSans-2e" d="M 684 794 
L 1344 794 
L 1344 0 
L 684 0 
L 684 794 
z
" transform="scale(0.015625)"/>
      </defs>
      <use xlink:href="#DejaVuSans-Oblique-3b2" transform="translate(0 0.390625)"/>
      <use xlink:href="#DejaVuSans-3d" transform="translate(83.300781 0.390625)"/>
      <use xlink:href="#DejaVuSans-30" transform="translate(186.572266 0.390625)"/>
      <use xlink:href="#DejaVuSans-2e" transform="translate(250.195312 0.390625)"/>
      <use xlink:href="#DejaVuSans-39" transform="translate(281.982422 0.390625)"/>
     </g>
    </g>
    <g id="line2d_39">
     <path d="M 441 79.84 
L 451 79.84 
L 461 79.84 
" style="fill: none; stroke-dasharray: 4.5,1.5,1.5,1.5,1.5,1.5; stroke-dashoffset: 0; stroke: #36ff33; stroke-width: 1.5"/>
     <g>
      <use xlink:href="#m932ac66789" x="451" y="79.84" style="fill: #36ff33; stroke: #36ff33; stroke-linejoin: miter"/>
     </g>
    </g>
    <g id="text_20">
     <!-- $\beta=0.75$ -->
     <g transform="translate(469 83.34) scale(0.1 -0.1)">
      <use xlink:href="#DejaVuSans-Oblique-3b2" transform="translate(0 0.390625)"/>
      <use xlink:href="#DejaVuSans-3d" transform="translate(83.300781 0.390625)"/>
      <use xlink:href="#DejaVuSans-30" transform="translate(186.572266 0.390625)"/>
      <use xlink:href="#DejaVuSans-2e" transform="translate(250.195312 0.390625)"/>
      <use xlink:href="#DejaVuSans-37" transform="translate(274.232422 0.390625)"/>
      <use xlink:href="#DejaVuSans-35" transform="translate(337.855469 0.390625)"/>
     </g>
    </g>
    <g id="line2d_40">
     <path d="M 441 94.64 
L 451 94.64 
L 461 94.64 
" style="fill: none; stroke-dasharray: 9.6,2.4,1.5,2.4; stroke-dashoffset: 0; stroke: #1c24dc; stroke-width: 1.5"/>
     <g>
      <use xlink:href="#ma4d77b84f1" x="451" y="94.64" style="fill: #1c24dc; stroke: #1c24dc; stroke-linejoin: miter"/>
     </g>
    </g>
    <g id="text_21">
     <!-- $\beta=0.5$ -->
     <g transform="translate(469 98.14) scale(0.1 -0.1)">
      <use xlink:href="#DejaVuSans-Oblique-3b2" transform="translate(0 0.390625)"/>
      <use xlink:href="#DejaVuSans-3d" transform="translate(83.300781 0.390625)"/>
      <use xlink:href="#DejaVuSans-30" transform="translate(186.572266 0.390625)"/>
      <use xlink:href="#DejaVuSans-2e" transform="translate(250.195312 0.390625)"/>
      <use xlink:href="#DejaVuSans-35" transform="translate(281.982422 0.390625)"/>
     </g>
    </g>
    <g id="line2d_41">
     <path d="M 441 109.44 
L 451 109.44 
L 461 109.44 
" style="fill: none; stroke-dasharray: 7.5,1.5; stroke-dashoffset: 0; stroke: #0d5915; stroke-width: 1.5"/>
     <g>
      <use xlink:href="#m93e6d719b7" x="451" y="109.44" style="fill: #0d5915; stroke: #0d5915; stroke-linejoin: bevel"/>
     </g>
    </g>
    <g id="text_22">
     <!-- $\beta=0.25$ -->
     <g transform="translate(469 112.94) scale(0.1 -0.1)">
      <use xlink:href="#DejaVuSans-Oblique-3b2" transform="translate(0 0.390625)"/>
      <use xlink:href="#DejaVuSans-3d" transform="translate(83.300781 0.390625)"/>
      <use xlink:href="#DejaVuSans-30" transform="translate(186.572266 0.390625)"/>
      <use xlink:href="#DejaVuSans-2e" transform="translate(250.195312 0.390625)"/>
      <use xlink:href="#DejaVuSans-32" transform="translate(276.482422 0.390625)"/>
      <use xlink:href="#DejaVuSans-35" transform="translate(340.105469 0.390625)"/>
     </g>
    </g>
    <g id="line2d_42">
     <path d="M 441 124.24 
L 451 124.24 
L 461 124.24 
" style="fill: none; stroke-dasharray: 1.5,2.475; stroke-dashoffset: 0; stroke: #f119c3; stroke-width: 1.5"/>
     <g>
      <use xlink:href="#ma4a86cdfee" x="451" y="124.24" style="fill: #f119c3; stroke: #f119c3"/>
     </g>
    </g>
    <g id="text_23">
     <!-- $\beta=0.1$ -->
     <g transform="translate(469 127.74) scale(0.1 -0.1)">
      <use xlink:href="#DejaVuSans-Oblique-3b2" transform="translate(0 0.390625)"/>
      <use xlink:href="#DejaVuSans-3d" transform="translate(83.300781 0.390625)"/>
      <use xlink:href="#DejaVuSans-30" transform="translate(186.572266 0.390625)"/>
      <use xlink:href="#DejaVuSans-2e" transform="translate(250.195312 0.390625)"/>
      <use xlink:href="#DejaVuSans-31" transform="translate(281.982422 0.390625)"/>
     </g>
    </g>
   </g>
  </g>
 </g>
 <defs>
  <clipPath id="p39f50f1685">
   <rect x="72" y="51.84" width="446.4" height="332.64"/>
  </clipPath>
 </defs>
</svg>
