<?xml version="1.0" encoding="utf-8" standalone="no"?>
<!DOCTYPE svg PUBLIC "-//W3C//DTD SVG 1.1//EN"
  "http://www.w3.org/Graphics/SVG/1.1/DTD/svg11.dtd">
<svg xmlns:xlink="http://www.w3.org/1999/xlink" width="576pt" height="432pt" viewBox="0 0 576 432" xmlns="http://www.w3.org/2000/svg" version="1.1">
 <metadata>
  <rdf:RDF xmlns:dc="http://purl.org/dc/elements/1.1/" xmlns:cc="http://creativecommons.org/ns#" xmlns:rdf="http://www.w3.org/1999/02/22-rdf-syntax-ns#">
   <cc:Work>
    <dc:type rdf:resource="http://purl.org/dc/dcmitype/StillImage"/>
    <dc:date>2025-05-10T17:22:10.865644</dc:date>
    <dc:format>image/svg+xml</dc:format>
    <dc:creator>
     <cc:Agent>
      <dc:title>Matplotlib v3.7.1, https://matplotlib.org/</dc:title>
     </cc:Agent>
    </dc:creator>
   </cc:Work>
  </rdf:RDF>
 </metadata>
 <defs>
  <style type="text/css">*{stroke-linejoin: round; stroke-linecap: butt}</style>
 </defs>
 <g id="figure_1">
  <g id="patch_1">
   <path d="M 0 432 
L 576 432 
L 576 0 
L 0 0 
z
" style="fill: #ffffff"/>
  </g>
  <g id="axes_1">
   <g id="patch_2">
    <path d="M 72 384.48 
L 518.4 384.48 
L 518.4 51.84 
L 72 51.84 
z
" style="fill: #ffffff"/>
   </g>
   <g id="matplotlib.axis_1">
    <g id="xtick_1">
     <g id="line2d_1">
      <path d="M 72 384.48 
L 72 51.84 
" clip-path="url(#ped61d2cb5f)" style="fill: none; stroke: #b0b0b0; stroke-width: 0.8; stroke-linecap: square"/>
     </g>
     <g id="line2d_2">
      <defs>
       <path id="m2eaa350641" d="M 0 0 
L 0 3.5 
" style="stroke: #000000; stroke-width: 0.8"/>
      </defs>
      <g>
       <use xlink:href="#m2eaa350641" x="72" y="384.48" style="stroke: #000000; stroke-width: 0.8"/>
      </g>
     </g>
     <g id="text_1">
      <!-- 0 -->
      <g transform="translate(67.54625 402.117813) scale(0.14 -0.14)">
       <defs>
        <path id="DejaVuSans-30" d="M 2034 4250 
Q 1547 4250 1301 3770 
Q 1056 3291 1056 2328 
Q 1056 1369 1301 889 
Q 1547 409 2034 409 
Q 2525 409 2770 889 
Q 3016 1369 3016 2328 
Q 3016 3291 2770 3770 
Q 2525 4250 2034 4250 
z
M 2034 4750 
Q 2819 4750 3233 4129 
Q 3647 3509 3647 2328 
Q 3647 1150 3233 529 
Q 2819 -91 2034 -91 
Q 1250 -91 836 529 
Q 422 1150 422 2328 
Q 422 3509 836 4129 
Q 1250 4750 2034 4750 
z
" transform="scale(0.015625)"/>
       </defs>
       <use xlink:href="#DejaVuSans-30"/>
      </g>
     </g>
    </g>
    <g id="xtick_2">
     <g id="line2d_3">
      <path d="M 161.28 384.48 
L 161.28 51.84 
" clip-path="url(#ped61d2cb5f)" style="fill: none; stroke: #b0b0b0; stroke-width: 0.8; stroke-linecap: square"/>
     </g>
     <g id="line2d_4">
      <g>
       <use xlink:href="#m2eaa350641" x="161.28" y="384.48" style="stroke: #000000; stroke-width: 0.8"/>
      </g>
     </g>
     <g id="text_2">
      <!-- 100 -->
      <g transform="translate(147.91875 402.117813) scale(0.14 -0.14)">
       <defs>
        <path id="DejaVuSans-31" d="M 794 531 
L 1825 531 
L 1825 4091 
L 703 3866 
L 703 4441 
L 1819 4666 
L 2450 4666 
L 2450 531 
L 3481 531 
L 3481 0 
L 794 0 
L 794 531 
z
" transform="scale(0.015625)"/>
       </defs>
       <use xlink:href="#DejaVuSans-31"/>
       <use xlink:href="#DejaVuSans-30" x="63.623047"/>
       <use xlink:href="#DejaVuSans-30" x="127.246094"/>
      </g>
     </g>
    </g>
    <g id="xtick_3">
     <g id="line2d_5">
      <path d="M 250.56 384.48 
L 250.56 51.84 
" clip-path="url(#ped61d2cb5f)" style="fill: none; stroke: #b0b0b0; stroke-width: 0.8; stroke-linecap: square"/>
     </g>
     <g id="line2d_6">
      <g>
       <use xlink:href="#m2eaa350641" x="250.56" y="384.48" style="stroke: #000000; stroke-width: 0.8"/>
      </g>
     </g>
     <g id="text_3">
      <!-- 200 -->
      <g transform="translate(237.19875 402.117813) scale(0.14 -0.14)">
       <defs>
        <path id="DejaVuSans-32" d="M 1228 531 
L 3431 531 
L 3431 0 
L 469 0 
L 469 531 
Q 828 903 1448 1529 
Q 2069 2156 2228 2338 
Q 2531 2678 2651 2914 
Q 2772 3150 2772 3378 
Q 2772 3750 2511 3984 
Q 2250 4219 1831 4219 
Q 1534 4219 1204 4116 
Q 875 4013 500 3803 
L 500 4441 
Q 881 4594 1212 4672 
Q 1544 4750 1819 4750 
Q 2544 4750 2975 4387 
Q 3406 4025 3406 3419 
Q 3406 3131 3298 2873 
Q 3191 2616 2906 2266 
Q 2828 2175 2409 1742 
Q 1991 1309 1228 531 
z
" transform="scale(0.015625)"/>
       </defs>
       <use xlink:href="#DejaVuSans-32"/>
       <use xlink:href="#DejaVuSans-30" x="63.623047"/>
       <use xlink:href="#DejaVuSans-30" x="127.246094"/>
      </g>
     </g>
    </g>
    <g id="xtick_4">
     <g id="line2d_7">
      <path d="M 339.84 384.48 
L 339.84 51.84 
" clip-path="url(#ped61d2cb5f)" style="fill: none; stroke: #b0b0b0; stroke-width: 0.8; stroke-linecap: square"/>
     </g>
     <g id="line2d_8">
      <g>
       <use xlink:href="#m2eaa350641" x="339.84" y="384.48" style="stroke: #000000; stroke-width: 0.8"/>
      </g>
     </g>
     <g id="text_4">
      <!-- 300 -->
      <g transform="translate(326.47875 402.117813) scale(0.14 -0.14)">
       <defs>
        <path id="DejaVuSans-33" d="M 2597 2516 
Q 3050 2419 3304 2112 
Q 3559 1806 3559 1356 
Q 3559 666 3084 287 
Q 2609 -91 1734 -91 
Q 1441 -91 1130 -33 
Q 819 25 488 141 
L 488 750 
Q 750 597 1062 519 
Q 1375 441 1716 441 
Q 2309 441 2620 675 
Q 2931 909 2931 1356 
Q 2931 1769 2642 2001 
Q 2353 2234 1838 2234 
L 1294 2234 
L 1294 2753 
L 1863 2753 
Q 2328 2753 2575 2939 
Q 2822 3125 2822 3475 
Q 2822 3834 2567 4026 
Q 2313 4219 1838 4219 
Q 1578 4219 1281 4162 
Q 984 4106 628 3988 
L 628 4550 
Q 988 4650 1302 4700 
Q 1616 4750 1894 4750 
Q 2613 4750 3031 4423 
Q 3450 4097 3450 3541 
Q 3450 3153 3228 2886 
Q 3006 2619 2597 2516 
z
" transform="scale(0.015625)"/>
       </defs>
       <use xlink:href="#DejaVuSans-33"/>
       <use xlink:href="#DejaVuSans-30" x="63.623047"/>
       <use xlink:href="#DejaVuSans-30" x="127.246094"/>
      </g>
     </g>
    </g>
    <g id="xtick_5">
     <g id="line2d_9">
      <path d="M 429.12 384.48 
L 429.12 51.84 
" clip-path="url(#ped61d2cb5f)" style="fill: none; stroke: #b0b0b0; stroke-width: 0.8; stroke-linecap: square"/>
     </g>
     <g id="line2d_10">
      <g>
       <use xlink:href="#m2eaa350641" x="429.12" y="384.48" style="stroke: #000000; stroke-width: 0.8"/>
      </g>
     </g>
     <g id="text_5">
      <!-- 400 -->
      <g transform="translate(415.75875 402.117813) scale(0.14 -0.14)">
       <defs>
        <path id="DejaVuSans-34" d="M 2419 4116 
L 825 1625 
L 2419 1625 
L 2419 4116 
z
M 2253 4666 
L 3047 4666 
L 3047 1625 
L 3713 1625 
L 3713 1100 
L 3047 1100 
L 3047 0 
L 2419 0 
L 2419 1100 
L 313 1100 
L 313 1709 
L 2253 4666 
z
" transform="scale(0.015625)"/>
       </defs>
       <use xlink:href="#DejaVuSans-34"/>
       <use xlink:href="#DejaVuSans-30" x="63.623047"/>
       <use xlink:href="#DejaVuSans-30" x="127.246094"/>
      </g>
     </g>
    </g>
    <g id="xtick_6">
     <g id="line2d_11">
      <path d="M 518.4 384.48 
L 518.4 51.84 
" clip-path="url(#ped61d2cb5f)" style="fill: none; stroke: #b0b0b0; stroke-width: 0.8; stroke-linecap: square"/>
     </g>
     <g id="line2d_12">
      <g>
       <use xlink:href="#m2eaa350641" x="518.4" y="384.48" style="stroke: #000000; stroke-width: 0.8"/>
      </g>
     </g>
     <g id="text_6">
      <!-- 500 -->
      <g transform="translate(505.03875 402.117813) scale(0.14 -0.14)">
       <defs>
        <path id="DejaVuSans-35" d="M 691 4666 
L 3169 4666 
L 3169 4134 
L 1269 4134 
L 1269 2991 
Q 1406 3038 1543 3061 
Q 1681 3084 1819 3084 
Q 2600 3084 3056 2656 
Q 3513 2228 3513 1497 
Q 3513 744 3044 326 
Q 2575 -91 1722 -91 
Q 1428 -91 1123 -41 
Q 819 9 494 109 
L 494 744 
Q 775 591 1075 516 
Q 1375 441 1709 441 
Q 2250 441 2565 725 
Q 2881 1009 2881 1497 
Q 2881 1984 2565 2268 
Q 2250 2553 1709 2553 
Q 1456 2553 1204 2497 
Q 953 2441 691 2322 
L 691 4666 
z
" transform="scale(0.015625)"/>
       </defs>
       <use xlink:href="#DejaVuSans-35"/>
       <use xlink:href="#DejaVuSans-30" x="63.623047"/>
       <use xlink:href="#DejaVuSans-30" x="127.246094"/>
      </g>
     </g>
    </g>
    <g id="text_7">
     <!-- Computational time [s] -->
     <g transform="translate(191.161406 422.706563) scale(0.18 -0.18)">
      <defs>
       <path id="DejaVuSans-43" d="M 4122 4306 
L 4122 3641 
Q 3803 3938 3442 4084 
Q 3081 4231 2675 4231 
Q 1875 4231 1450 3742 
Q 1025 3253 1025 2328 
Q 1025 1406 1450 917 
Q 1875 428 2675 428 
Q 3081 428 3442 575 
Q 3803 722 4122 1019 
L 4122 359 
Q 3791 134 3420 21 
Q 3050 -91 2638 -91 
Q 1578 -91 968 557 
Q 359 1206 359 2328 
Q 359 3453 968 4101 
Q 1578 4750 2638 4750 
Q 3056 4750 3426 4639 
Q 3797 4528 4122 4306 
z
" transform="scale(0.015625)"/>
       <path id="DejaVuSans-6f" d="M 1959 3097 
Q 1497 3097 1228 2736 
Q 959 2375 959 1747 
Q 959 1119 1226 758 
Q 1494 397 1959 397 
Q 2419 397 2687 759 
Q 2956 1122 2956 1747 
Q 2956 2369 2687 2733 
Q 2419 3097 1959 3097 
z
M 1959 3584 
Q 2709 3584 3137 3096 
Q 3566 2609 3566 1747 
Q 3566 888 3137 398 
Q 2709 -91 1959 -91 
Q 1206 -91 779 398 
Q 353 888 353 1747 
Q 353 2609 779 3096 
Q 1206 3584 1959 3584 
z
" transform="scale(0.015625)"/>
       <path id="DejaVuSans-6d" d="M 3328 2828 
Q 3544 3216 3844 3400 
Q 4144 3584 4550 3584 
Q 5097 3584 5394 3201 
Q 5691 2819 5691 2113 
L 5691 0 
L 5113 0 
L 5113 2094 
Q 5113 2597 4934 2840 
Q 4756 3084 4391 3084 
Q 3944 3084 3684 2787 
Q 3425 2491 3425 1978 
L 3425 0 
L 2847 0 
L 2847 2094 
Q 2847 2600 2669 2842 
Q 2491 3084 2119 3084 
Q 1678 3084 1418 2786 
Q 1159 2488 1159 1978 
L 1159 0 
L 581 0 
L 581 3500 
L 1159 3500 
L 1159 2956 
Q 1356 3278 1631 3431 
Q 1906 3584 2284 3584 
Q 2666 3584 2933 3390 
Q 3200 3197 3328 2828 
z
" transform="scale(0.015625)"/>
       <path id="DejaVuSans-70" d="M 1159 525 
L 1159 -1331 
L 581 -1331 
L 581 3500 
L 1159 3500 
L 1159 2969 
Q 1341 3281 1617 3432 
Q 1894 3584 2278 3584 
Q 2916 3584 3314 3078 
Q 3713 2572 3713 1747 
Q 3713 922 3314 415 
Q 2916 -91 2278 -91 
Q 1894 -91 1617 61 
Q 1341 213 1159 525 
z
M 3116 1747 
Q 3116 2381 2855 2742 
Q 2594 3103 2138 3103 
Q 1681 3103 1420 2742 
Q 1159 2381 1159 1747 
Q 1159 1113 1420 752 
Q 1681 391 2138 391 
Q 2594 391 2855 752 
Q 3116 1113 3116 1747 
z
" transform="scale(0.015625)"/>
       <path id="DejaVuSans-75" d="M 544 1381 
L 544 3500 
L 1119 3500 
L 1119 1403 
Q 1119 906 1312 657 
Q 1506 409 1894 409 
Q 2359 409 2629 706 
Q 2900 1003 2900 1516 
L 2900 3500 
L 3475 3500 
L 3475 0 
L 2900 0 
L 2900 538 
Q 2691 219 2414 64 
Q 2138 -91 1772 -91 
Q 1169 -91 856 284 
Q 544 659 544 1381 
z
M 1991 3584 
L 1991 3584 
z
" transform="scale(0.015625)"/>
       <path id="DejaVuSans-74" d="M 1172 4494 
L 1172 3500 
L 2356 3500 
L 2356 3053 
L 1172 3053 
L 1172 1153 
Q 1172 725 1289 603 
Q 1406 481 1766 481 
L 2356 481 
L 2356 0 
L 1766 0 
Q 1100 0 847 248 
Q 594 497 594 1153 
L 594 3053 
L 172 3053 
L 172 3500 
L 594 3500 
L 594 4494 
L 1172 4494 
z
" transform="scale(0.015625)"/>
       <path id="DejaVuSans-61" d="M 2194 1759 
Q 1497 1759 1228 1600 
Q 959 1441 959 1056 
Q 959 750 1161 570 
Q 1363 391 1709 391 
Q 2188 391 2477 730 
Q 2766 1069 2766 1631 
L 2766 1759 
L 2194 1759 
z
M 3341 1997 
L 3341 0 
L 2766 0 
L 2766 531 
Q 2569 213 2275 61 
Q 1981 -91 1556 -91 
Q 1019 -91 701 211 
Q 384 513 384 1019 
Q 384 1609 779 1909 
Q 1175 2209 1959 2209 
L 2766 2209 
L 2766 2266 
Q 2766 2663 2505 2880 
Q 2244 3097 1772 3097 
Q 1472 3097 1187 3025 
Q 903 2953 641 2809 
L 641 3341 
Q 956 3463 1253 3523 
Q 1550 3584 1831 3584 
Q 2591 3584 2966 3190 
Q 3341 2797 3341 1997 
z
" transform="scale(0.015625)"/>
       <path id="DejaVuSans-69" d="M 603 3500 
L 1178 3500 
L 1178 0 
L 603 0 
L 603 3500 
z
M 603 4863 
L 1178 4863 
L 1178 4134 
L 603 4134 
L 603 4863 
z
" transform="scale(0.015625)"/>
       <path id="DejaVuSans-6e" d="M 3513 2113 
L 3513 0 
L 2938 0 
L 2938 2094 
Q 2938 2591 2744 2837 
Q 2550 3084 2163 3084 
Q 1697 3084 1428 2787 
Q 1159 2491 1159 1978 
L 1159 0 
L 581 0 
L 581 3500 
L 1159 3500 
L 1159 2956 
Q 1366 3272 1645 3428 
Q 1925 3584 2291 3584 
Q 2894 3584 3203 3211 
Q 3513 2838 3513 2113 
z
" transform="scale(0.015625)"/>
       <path id="DejaVuSans-6c" d="M 603 4863 
L 1178 4863 
L 1178 0 
L 603 0 
L 603 4863 
z
" transform="scale(0.015625)"/>
       <path id="DejaVuSans-20" transform="scale(0.015625)"/>
       <path id="DejaVuSans-65" d="M 3597 1894 
L 3597 1613 
L 953 1613 
Q 991 1019 1311 708 
Q 1631 397 2203 397 
Q 2534 397 2845 478 
Q 3156 559 3463 722 
L 3463 178 
Q 3153 47 2828 -22 
Q 2503 -91 2169 -91 
Q 1331 -91 842 396 
Q 353 884 353 1716 
Q 353 2575 817 3079 
Q 1281 3584 2069 3584 
Q 2775 3584 3186 3129 
Q 3597 2675 3597 1894 
z
M 3022 2063 
Q 3016 2534 2758 2815 
Q 2500 3097 2075 3097 
Q 1594 3097 1305 2825 
Q 1016 2553 972 2059 
L 3022 2063 
z
" transform="scale(0.015625)"/>
       <path id="DejaVuSans-5b" d="M 550 4863 
L 1875 4863 
L 1875 4416 
L 1125 4416 
L 1125 -397 
L 1875 -397 
L 1875 -844 
L 550 -844 
L 550 4863 
z
" transform="scale(0.015625)"/>
       <path id="DejaVuSans-73" d="M 2834 3397 
L 2834 2853 
Q 2591 2978 2328 3040 
Q 2066 3103 1784 3103 
Q 1356 3103 1142 2972 
Q 928 2841 928 2578 
Q 928 2378 1081 2264 
Q 1234 2150 1697 2047 
L 1894 2003 
Q 2506 1872 2764 1633 
Q 3022 1394 3022 966 
Q 3022 478 2636 193 
Q 2250 -91 1575 -91 
Q 1294 -91 989 -36 
Q 684 19 347 128 
L 347 722 
Q 666 556 975 473 
Q 1284 391 1588 391 
Q 1994 391 2212 530 
Q 2431 669 2431 922 
Q 2431 1156 2273 1281 
Q 2116 1406 1581 1522 
L 1381 1569 
Q 847 1681 609 1914 
Q 372 2147 372 2553 
Q 372 3047 722 3315 
Q 1072 3584 1716 3584 
Q 2034 3584 2315 3537 
Q 2597 3491 2834 3397 
z
" transform="scale(0.015625)"/>
       <path id="DejaVuSans-5d" d="M 1947 4863 
L 1947 -844 
L 622 -844 
L 622 -397 
L 1369 -397 
L 1369 4416 
L 622 4416 
L 622 4863 
L 1947 4863 
z
" transform="scale(0.015625)"/>
      </defs>
      <use xlink:href="#DejaVuSans-43"/>
      <use xlink:href="#DejaVuSans-6f" x="69.824219"/>
      <use xlink:href="#DejaVuSans-6d" x="131.005859"/>
      <use xlink:href="#DejaVuSans-70" x="228.417969"/>
      <use xlink:href="#DejaVuSans-75" x="291.894531"/>
      <use xlink:href="#DejaVuSans-74" x="355.273438"/>
      <use xlink:href="#DejaVuSans-61" x="394.482422"/>
      <use xlink:href="#DejaVuSans-74" x="455.761719"/>
      <use xlink:href="#DejaVuSans-69" x="494.970703"/>
      <use xlink:href="#DejaVuSans-6f" x="522.753906"/>
      <use xlink:href="#DejaVuSans-6e" x="583.935547"/>
      <use xlink:href="#DejaVuSans-61" x="647.314453"/>
      <use xlink:href="#DejaVuSans-6c" x="708.59375"/>
      <use xlink:href="#DejaVuSans-20" x="736.376953"/>
      <use xlink:href="#DejaVuSans-74" x="768.164062"/>
      <use xlink:href="#DejaVuSans-69" x="807.373047"/>
      <use xlink:href="#DejaVuSans-6d" x="835.15625"/>
      <use xlink:href="#DejaVuSans-65" x="932.568359"/>
      <use xlink:href="#DejaVuSans-20" x="994.091797"/>
      <use xlink:href="#DejaVuSans-5b" x="1025.878906"/>
      <use xlink:href="#DejaVuSans-73" x="1064.892578"/>
      <use xlink:href="#DejaVuSans-5d" x="1116.992188"/>
     </g>
    </g>
   </g>
   <g id="matplotlib.axis_2">
    <g id="ytick_1">
     <g id="line2d_13">
      <path d="M 72 354.24 
L 518.4 354.24 
" clip-path="url(#ped61d2cb5f)" style="fill: none; stroke: #b0b0b0; stroke-width: 0.8; stroke-linecap: square"/>
     </g>
     <g id="line2d_14">
      <defs>
       <path id="mb80477da61" d="M 0 0 
L -3.5 0 
" style="stroke: #000000; stroke-width: 0.8"/>
      </defs>
      <g>
       <use xlink:href="#mb80477da61" x="72" y="354.24" style="stroke: #000000; stroke-width: 0.8"/>
      </g>
     </g>
     <g id="text_8">
      <!-- 0 -->
      <g transform="translate(56.0925 359.558906) scale(0.14 -0.14)">
       <use xlink:href="#DejaVuSans-30"/>
      </g>
     </g>
    </g>
    <g id="ytick_2">
     <g id="line2d_15">
      <path d="M 72 293.76 
L 518.4 293.76 
" clip-path="url(#ped61d2cb5f)" style="fill: none; stroke: #b0b0b0; stroke-width: 0.8; stroke-linecap: square"/>
     </g>
     <g id="line2d_16">
      <g>
       <use xlink:href="#mb80477da61" x="72" y="293.76" style="stroke: #000000; stroke-width: 0.8"/>
      </g>
     </g>
     <g id="text_9">
      <!-- 10 -->
      <g transform="translate(47.185 299.078906) scale(0.14 -0.14)">
       <use xlink:href="#DejaVuSans-31"/>
       <use xlink:href="#DejaVuSans-30" x="63.623047"/>
      </g>
     </g>
    </g>
    <g id="ytick_3">
     <g id="line2d_17">
      <path d="M 72 233.28 
L 518.4 233.28 
" clip-path="url(#ped61d2cb5f)" style="fill: none; stroke: #b0b0b0; stroke-width: 0.8; stroke-linecap: square"/>
     </g>
     <g id="line2d_18">
      <g>
       <use xlink:href="#mb80477da61" x="72" y="233.28" style="stroke: #000000; stroke-width: 0.8"/>
      </g>
     </g>
     <g id="text_10">
      <!-- 20 -->
      <g transform="translate(47.185 238.598906) scale(0.14 -0.14)">
       <use xlink:href="#DejaVuSans-32"/>
       <use xlink:href="#DejaVuSans-30" x="63.623047"/>
      </g>
     </g>
    </g>
    <g id="ytick_4">
     <g id="line2d_19">
      <path d="M 72 172.8 
L 518.4 172.8 
" clip-path="url(#ped61d2cb5f)" style="fill: none; stroke: #b0b0b0; stroke-width: 0.8; stroke-linecap: square"/>
     </g>
     <g id="line2d_20">
      <g>
       <use xlink:href="#mb80477da61" x="72" y="172.8" style="stroke: #000000; stroke-width: 0.8"/>
      </g>
     </g>
     <g id="text_11">
      <!-- 30 -->
      <g transform="translate(47.185 178.118906) scale(0.14 -0.14)">
       <use xlink:href="#DejaVuSans-33"/>
       <use xlink:href="#DejaVuSans-30" x="63.623047"/>
      </g>
     </g>
    </g>
    <g id="ytick_5">
     <g id="line2d_21">
      <path d="M 72 112.32 
L 518.4 112.32 
" clip-path="url(#ped61d2cb5f)" style="fill: none; stroke: #b0b0b0; stroke-width: 0.8; stroke-linecap: square"/>
     </g>
     <g id="line2d_22">
      <g>
       <use xlink:href="#mb80477da61" x="72" y="112.32" style="stroke: #000000; stroke-width: 0.8"/>
      </g>
     </g>
     <g id="text_12">
      <!-- 40 -->
      <g transform="translate(47.185 117.638906) scale(0.14 -0.14)">
       <use xlink:href="#DejaVuSans-34"/>
       <use xlink:href="#DejaVuSans-30" x="63.623047"/>
      </g>
     </g>
    </g>
    <g id="ytick_6">
     <g id="line2d_23">
      <path d="M 72 51.84 
L 518.4 51.84 
" clip-path="url(#ped61d2cb5f)" style="fill: none; stroke: #b0b0b0; stroke-width: 0.8; stroke-linecap: square"/>
     </g>
     <g id="line2d_24">
      <g>
       <use xlink:href="#mb80477da61" x="72" y="51.84" style="stroke: #000000; stroke-width: 0.8"/>
      </g>
     </g>
     <g id="text_13">
      <!-- 50 -->
      <g transform="translate(47.185 57.158906) scale(0.14 -0.14)">
       <use xlink:href="#DejaVuSans-35"/>
       <use xlink:href="#DejaVuSans-30" x="63.623047"/>
      </g>
     </g>
    </g>
    <g id="text_14">
     <!-- Objective value -->
     <g transform="translate(39.441563 288.282656) rotate(-90) scale(0.18 -0.18)">
      <defs>
       <path id="DejaVuSans-4f" d="M 2522 4238 
Q 1834 4238 1429 3725 
Q 1025 3213 1025 2328 
Q 1025 1447 1429 934 
Q 1834 422 2522 422 
Q 3209 422 3611 934 
Q 4013 1447 4013 2328 
Q 4013 3213 3611 3725 
Q 3209 4238 2522 4238 
z
M 2522 4750 
Q 3503 4750 4090 4092 
Q 4678 3434 4678 2328 
Q 4678 1225 4090 567 
Q 3503 -91 2522 -91 
Q 1538 -91 948 565 
Q 359 1222 359 2328 
Q 359 3434 948 4092 
Q 1538 4750 2522 4750 
z
" transform="scale(0.015625)"/>
       <path id="DejaVuSans-62" d="M 3116 1747 
Q 3116 2381 2855 2742 
Q 2594 3103 2138 3103 
Q 1681 3103 1420 2742 
Q 1159 2381 1159 1747 
Q 1159 1113 1420 752 
Q 1681 391 2138 391 
Q 2594 391 2855 752 
Q 3116 1113 3116 1747 
z
M 1159 2969 
Q 1341 3281 1617 3432 
Q 1894 3584 2278 3584 
Q 2916 3584 3314 3078 
Q 3713 2572 3713 1747 
Q 3713 922 3314 415 
Q 2916 -91 2278 -91 
Q 1894 -91 1617 61 
Q 1341 213 1159 525 
L 1159 0 
L 581 0 
L 581 4863 
L 1159 4863 
L 1159 2969 
z
" transform="scale(0.015625)"/>
       <path id="DejaVuSans-6a" d="M 603 3500 
L 1178 3500 
L 1178 -63 
Q 1178 -731 923 -1031 
Q 669 -1331 103 -1331 
L -116 -1331 
L -116 -844 
L 38 -844 
Q 366 -844 484 -692 
Q 603 -541 603 -63 
L 603 3500 
z
M 603 4863 
L 1178 4863 
L 1178 4134 
L 603 4134 
L 603 4863 
z
" transform="scale(0.015625)"/>
       <path id="DejaVuSans-63" d="M 3122 3366 
L 3122 2828 
Q 2878 2963 2633 3030 
Q 2388 3097 2138 3097 
Q 1578 3097 1268 2742 
Q 959 2388 959 1747 
Q 959 1106 1268 751 
Q 1578 397 2138 397 
Q 2388 397 2633 464 
Q 2878 531 3122 666 
L 3122 134 
Q 2881 22 2623 -34 
Q 2366 -91 2075 -91 
Q 1284 -91 818 406 
Q 353 903 353 1747 
Q 353 2603 823 3093 
Q 1294 3584 2113 3584 
Q 2378 3584 2631 3529 
Q 2884 3475 3122 3366 
z
" transform="scale(0.015625)"/>
       <path id="DejaVuSans-76" d="M 191 3500 
L 800 3500 
L 1894 563 
L 2988 3500 
L 3597 3500 
L 2284 0 
L 1503 0 
L 191 3500 
z
" transform="scale(0.015625)"/>
      </defs>
      <use xlink:href="#DejaVuSans-4f"/>
      <use xlink:href="#DejaVuSans-62" x="78.710938"/>
      <use xlink:href="#DejaVuSans-6a" x="142.1875"/>
      <use xlink:href="#DejaVuSans-65" x="169.970703"/>
      <use xlink:href="#DejaVuSans-63" x="231.494141"/>
      <use xlink:href="#DejaVuSans-74" x="286.474609"/>
      <use xlink:href="#DejaVuSans-69" x="325.683594"/>
      <use xlink:href="#DejaVuSans-76" x="353.466797"/>
      <use xlink:href="#DejaVuSans-65" x="412.646484"/>
      <use xlink:href="#DejaVuSans-20" x="474.169922"/>
      <use xlink:href="#DejaVuSans-76" x="505.957031"/>
      <use xlink:href="#DejaVuSans-61" x="565.136719"/>
      <use xlink:href="#DejaVuSans-6c" x="626.416016"/>
      <use xlink:href="#DejaVuSans-75" x="654.199219"/>
      <use xlink:href="#DejaVuSans-65" x="717.578125"/>
     </g>
    </g>
   </g>
   <g id="line2d_25">
    <path d="M 98.827687 351.215999 
" clip-path="url(#ped61d2cb5f)" style="fill: none; stroke: #b6c800; stroke-width: 1.5; stroke-linecap: square"/>
    <defs>
     <path id="m9c845ee6a9" d="M 0 -5 
L -5 5 
L 5 5 
z
" style="stroke: #b6c800; stroke-linejoin: miter"/>
    </defs>
    <g clip-path="url(#ped61d2cb5f)">
     <use xlink:href="#m9c845ee6a9" x="98.827687" y="351.215999" style="fill: #b6c800; stroke: #b6c800; stroke-linejoin: miter"/>
    </g>
   </g>
   <g id="line2d_26">
    <path d="M 98.827687 351.215999 
L 518.4 351.215999 
" clip-path="url(#ped61d2cb5f)" style="fill: none; stroke: #b6c800; stroke-width: 1.5; stroke-linecap: square"/>
   </g>
   <g id="line2d_27">
    <path d="M 96.418648 351.215999 
" clip-path="url(#ped61d2cb5f)" style="fill: none; stroke-dasharray: 1.5,15; stroke-dashoffset: 0; stroke: #b8c348; stroke-width: 1.5"/>
    <defs>
     <path id="mf6891c502e" d="M 0 -3 
L -3 3 
L 3 3 
z
" style="stroke: #b8c348; stroke-linejoin: miter"/>
    </defs>
    <g clip-path="url(#ped61d2cb5f)">
     <use xlink:href="#mf6891c502e" x="96.418648" y="351.215999" style="fill: #b8c348; stroke: #b8c348; stroke-linejoin: miter"/>
    </g>
   </g>
   <g id="line2d_28">
    <path d="M 96.418648 351.215999 
L 518.4 351.215999 
" clip-path="url(#ped61d2cb5f)" style="fill: none; stroke-dasharray: 1.5,15; stroke-dashoffset: 0; stroke: #b8c348; stroke-width: 1.5"/>
   </g>
   <g id="line2d_29">
    <path d="M 124.560676 351.215999 
" clip-path="url(#ped61d2cb5f)" style="fill: none; stroke-dasharray: 7.5,15; stroke-dashoffset: 0; stroke: #bec291; stroke-width: 1.5"/>
    <defs>
     <path id="mdc0c062b59" d="M 0 -3 
L -3 3 
L 3 3 
z
" style="stroke: #bec291; stroke-linejoin: miter"/>
    </defs>
    <g clip-path="url(#ped61d2cb5f)">
     <use xlink:href="#mdc0c062b59" x="124.560676" y="351.215999" style="fill: #bec291; stroke: #bec291; stroke-linejoin: miter"/>
    </g>
   </g>
   <g id="line2d_30">
    <path d="M 124.560676 351.215999 
L 518.4 351.215999 
" clip-path="url(#ped61d2cb5f)" style="fill: none; stroke-dasharray: 7.5,15; stroke-dashoffset: 0; stroke: #bec291; stroke-width: 1.5"/>
   </g>
   <g id="line2d_31">
    <path d="M 110.185837 324.003022 
" clip-path="url(#ped61d2cb5f)" style="fill: none; stroke: #f119c3; stroke-width: 1.5; stroke-linecap: square"/>
    <defs>
     <path id="m0f385db0f1" d="M -0 5 
L 5 -5 
L -5 -5 
z
" style="stroke: #f119c3; stroke-linejoin: miter"/>
    </defs>
    <g clip-path="url(#ped61d2cb5f)">
     <use xlink:href="#m0f385db0f1" x="110.185837" y="324.003022" style="fill: #f119c3; stroke: #f119c3; stroke-linejoin: miter"/>
    </g>
   </g>
   <g id="line2d_32">
    <path d="M 110.185837 324.003022 
L 518.4 324.003022 
" clip-path="url(#ped61d2cb5f)" style="fill: none; stroke: #f119c3; stroke-width: 1.5; stroke-linecap: square"/>
   </g>
   <g id="line2d_33">
    <path d="M 95.884571 323.998298 
" clip-path="url(#ped61d2cb5f)" style="fill: none; stroke-dasharray: 1.5,15; stroke-dashoffset: 0; stroke: #f190dd; stroke-width: 1.5"/>
    <defs>
     <path id="me75e600b4c" d="M -0 3 
L 3 -3 
L -3 -3 
z
" style="stroke: #f190dd; stroke-linejoin: miter"/>
    </defs>
    <g clip-path="url(#ped61d2cb5f)">
     <use xlink:href="#me75e600b4c" x="95.884571" y="323.998298" style="fill: #f190dd; stroke: #f190dd; stroke-linejoin: miter"/>
    </g>
   </g>
   <g id="line2d_34">
    <path d="M 95.884571 323.998298 
L 518.4 323.998298 
" clip-path="url(#ped61d2cb5f)" style="fill: none; stroke-dasharray: 1.5,15; stroke-dashoffset: 0; stroke: #f190dd; stroke-width: 1.5"/>
   </g>
   <g id="line2d_35">
    <path d="M 125.458137 307.345854 
" clip-path="url(#ped61d2cb5f)" style="fill: none; stroke-dasharray: 7.5,15; stroke-dashoffset: 0; stroke: #ecc0e3; stroke-width: 1.5"/>
    <defs>
     <path id="m8105558ed4" d="M -0 3 
L 3 -3 
L -3 -3 
z
" style="stroke: #ecc0e3; stroke-linejoin: miter"/>
    </defs>
    <g clip-path="url(#ped61d2cb5f)">
     <use xlink:href="#m8105558ed4" x="125.458137" y="307.345854" style="fill: #ecc0e3; stroke: #ecc0e3; stroke-linejoin: miter"/>
    </g>
   </g>
   <g id="line2d_36">
    <path d="M 125.458137 307.345854 
L 518.4 307.345854 
" clip-path="url(#ped61d2cb5f)" style="fill: none; stroke-dasharray: 7.5,15; stroke-dashoffset: 0; stroke: #ecc0e3; stroke-width: 1.5"/>
   </g>
   <g id="line2d_37">
    <path d="M 102.070471 337.608036 
L 131.384707 296.027994 
L 162.912555 254.550667 
L 195.126796 236.691148 
L 231.209992 230.225511 
L 266.250111 228.09835 
L 298.693728 227.473856 
L 326.405924 227.303336 
L 352.368587 227.244897 
L 377.682195 227.23523 
L 413.502852 227.231239 
L 447.819858 227.232531 
L 475.10428 227.232438 
L 504.346381 227.233407 
L 539.152675 227.235691 
" clip-path="url(#ped61d2cb5f)" style="fill: none; stroke: #0d5915; stroke-width: 1.5; stroke-linecap: square"/>
    <defs>
     <path id="m9ca3de8246" d="M 0 0 
L 0 -5 
M 0 0 
L -4 2.5 
M 0 0 
L 4 2.5 
" style="stroke: #0d5915"/>
    </defs>
    <g clip-path="url(#ped61d2cb5f)">
     <use xlink:href="#m9ca3de8246" x="102.070471" y="337.608036" style="fill: #0d5915; stroke: #0d5915"/>
     <use xlink:href="#m9ca3de8246" x="131.384707" y="296.027994" style="fill: #0d5915; stroke: #0d5915"/>
     <use xlink:href="#m9ca3de8246" x="162.912555" y="254.550667" style="fill: #0d5915; stroke: #0d5915"/>
     <use xlink:href="#m9ca3de8246" x="195.126796" y="236.691148" style="fill: #0d5915; stroke: #0d5915"/>
     <use xlink:href="#m9ca3de8246" x="231.209992" y="230.225511" style="fill: #0d5915; stroke: #0d5915"/>
     <use xlink:href="#m9ca3de8246" x="266.250111" y="228.09835" style="fill: #0d5915; stroke: #0d5915"/>
     <use xlink:href="#m9ca3de8246" x="298.693728" y="227.473856" style="fill: #0d5915; stroke: #0d5915"/>
     <use xlink:href="#m9ca3de8246" x="326.405924" y="227.303336" style="fill: #0d5915; stroke: #0d5915"/>
     <use xlink:href="#m9ca3de8246" x="352.368587" y="227.244897" style="fill: #0d5915; stroke: #0d5915"/>
     <use xlink:href="#m9ca3de8246" x="377.682195" y="227.23523" style="fill: #0d5915; stroke: #0d5915"/>
     <use xlink:href="#m9ca3de8246" x="413.502852" y="227.231239" style="fill: #0d5915; stroke: #0d5915"/>
     <use xlink:href="#m9ca3de8246" x="447.819858" y="227.232531" style="fill: #0d5915; stroke: #0d5915"/>
     <use xlink:href="#m9ca3de8246" x="475.10428" y="227.232438" style="fill: #0d5915; stroke: #0d5915"/>
     <use xlink:href="#m9ca3de8246" x="504.346381" y="227.233407" style="fill: #0d5915; stroke: #0d5915"/>
     <use xlink:href="#m9ca3de8246" x="539.152675" y="227.235691" style="fill: #0d5915; stroke: #0d5915"/>
    </g>
   </g>
   <g id="line2d_38">
    <path d="M 97.530056 337.608006 
L 122.701243 296.028 
L 148.619212 254.534333 
L 177.691518 236.696754 
L 205.422899 230.213237 
L 239.651207 228.104856 
L 271.21686 227.471964 
L 299.501614 227.296519 
L 327.02705 227.245716 
L 354.795873 227.238529 
L 381.523418 227.232311 
L 408.433548 227.231516 
L 435.879395 227.232081 
L 465.759157 227.234169 
L 494.552157 227.235311 
L 521.141626 227.23125 
" clip-path="url(#ped61d2cb5f)" style="fill: none; stroke-dasharray: 1.5,15; stroke-dashoffset: 0; stroke: #6ec977; stroke-width: 1.5"/>
    <defs>
     <path id="me33d8c209a" d="M 0 0 
L 0 -3 
M 0 0 
L -2.4 1.5 
M 0 0 
L 2.4 1.5 
" style="stroke: #6ec977"/>
    </defs>
    <g clip-path="url(#ped61d2cb5f)">
     <use xlink:href="#me33d8c209a" x="97.530056" y="337.608006" style="fill: #6ec977; stroke: #6ec977"/>
     <use xlink:href="#me33d8c209a" x="122.701243" y="296.028" style="fill: #6ec977; stroke: #6ec977"/>
     <use xlink:href="#me33d8c209a" x="148.619212" y="254.534333" style="fill: #6ec977; stroke: #6ec977"/>
     <use xlink:href="#me33d8c209a" x="177.691518" y="236.696754" style="fill: #6ec977; stroke: #6ec977"/>
     <use xlink:href="#me33d8c209a" x="205.422899" y="230.213237" style="fill: #6ec977; stroke: #6ec977"/>
     <use xlink:href="#me33d8c209a" x="239.651207" y="228.104856" style="fill: #6ec977; stroke: #6ec977"/>
     <use xlink:href="#me33d8c209a" x="271.21686" y="227.471964" style="fill: #6ec977; stroke: #6ec977"/>
     <use xlink:href="#me33d8c209a" x="299.501614" y="227.296519" style="fill: #6ec977; stroke: #6ec977"/>
     <use xlink:href="#me33d8c209a" x="327.02705" y="227.245716" style="fill: #6ec977; stroke: #6ec977"/>
     <use xlink:href="#me33d8c209a" x="354.795873" y="227.238529" style="fill: #6ec977; stroke: #6ec977"/>
     <use xlink:href="#me33d8c209a" x="381.523418" y="227.232311" style="fill: #6ec977; stroke: #6ec977"/>
     <use xlink:href="#me33d8c209a" x="408.433548" y="227.231516" style="fill: #6ec977; stroke: #6ec977"/>
     <use xlink:href="#me33d8c209a" x="435.879395" y="227.232081" style="fill: #6ec977; stroke: #6ec977"/>
     <use xlink:href="#me33d8c209a" x="465.759157" y="227.234169" style="fill: #6ec977; stroke: #6ec977"/>
     <use xlink:href="#me33d8c209a" x="494.552157" y="227.235311" style="fill: #6ec977; stroke: #6ec977"/>
     <use xlink:href="#me33d8c209a" x="521.141626" y="227.23125" style="fill: #6ec977; stroke: #6ec977"/>
    </g>
   </g>
   <g id="line2d_39">
    <path d="M 126.435064 337.608 
L 180.253598 296.028 
L 233.764515 254.53371 
L 288.274053 236.697158 
L 342.362788 230.207746 
L 395.161184 228.105491 
L 451.401588 227.472264 
L 502.991369 227.309416 
L 555.225356 227.245508 
" clip-path="url(#ped61d2cb5f)" style="fill: none; stroke-dasharray: 7.5,15; stroke-dashoffset: 0; stroke: #96f6a0; stroke-width: 1.5"/>
    <defs>
     <path id="m9a94667527" d="M 0 0 
L 0 -3 
M 0 0 
L -2.4 1.5 
M 0 0 
L 2.4 1.5 
" style="stroke: #96f6a0"/>
    </defs>
    <g clip-path="url(#ped61d2cb5f)">
     <use xlink:href="#m9a94667527" x="126.435064" y="337.608" style="fill: #96f6a0; stroke: #96f6a0"/>
     <use xlink:href="#m9a94667527" x="180.253598" y="296.028" style="fill: #96f6a0; stroke: #96f6a0"/>
     <use xlink:href="#m9a94667527" x="233.764515" y="254.53371" style="fill: #96f6a0; stroke: #96f6a0"/>
     <use xlink:href="#m9a94667527" x="288.274053" y="236.697158" style="fill: #96f6a0; stroke: #96f6a0"/>
     <use xlink:href="#m9a94667527" x="342.362788" y="230.207746" style="fill: #96f6a0; stroke: #96f6a0"/>
     <use xlink:href="#m9a94667527" x="395.161184" y="228.105491" style="fill: #96f6a0; stroke: #96f6a0"/>
     <use xlink:href="#m9a94667527" x="451.401588" y="227.472264" style="fill: #96f6a0; stroke: #96f6a0"/>
     <use xlink:href="#m9a94667527" x="502.991369" y="227.309416" style="fill: #96f6a0; stroke: #96f6a0"/>
     <use xlink:href="#m9a94667527" x="555.225356" y="227.245508" style="fill: #96f6a0; stroke: #96f6a0"/>
    </g>
   </g>
   <g id="line2d_40">
    <path d="M 84.930836 -1 
L 88.350608 324.283766 
L 103.685565 324.225214 
L 121.016432 324.196739 
L 136.153146 324.178748 
L 157.308094 324.165934 
L 175.952601 324.156149 
L 195.653213 324.148328 
L 211.013449 324.141871 
L 230.42853 324.136408 
L 249.688291 324.131701 
L 268.102935 324.127582 
L 288.337297 324.123935 
L 308.609073 324.120672 
L 327.414988 324.117727 
L 347.334516 324.115051 
L 362.438594 324.112602 
L 376.549261 324.110349 
L 394.755721 324.108267 
L 411.451304 324.106333 
L 429.780284 324.10453 
L 449.149671 324.102844 
L 471.451189 324.101262 
L 486.238426 324.099772 
L 501.036328 324.098367 
L 518.385712 324.097037 
L 518.401132 324.097037 
" clip-path="url(#ped61d2cb5f)" style="fill: none; stroke: #e31d1d; stroke-width: 1.5; stroke-linecap: square"/>
    <defs>
     <path id="m2987c5ca12" d="M 0 5 
C 1.326016 5 2.597899 4.473168 3.535534 3.535534 
C 4.473168 2.597899 5 1.326016 5 0 
C 5 -1.326016 4.473168 -2.597899 3.535534 -3.535534 
C 2.597899 -4.473168 1.326016 -5 0 -5 
C -1.326016 -5 -2.597899 -4.473168 -3.535534 -3.535534 
C -4.473168 -2.597899 -5 -1.326016 -5 0 
C -5 1.326016 -4.473168 2.597899 -3.535534 3.535534 
C -2.597899 4.473168 -1.326016 5 0 5 
z
" style="stroke: #e31d1d"/>
    </defs>
    <g clip-path="url(#ped61d2cb5f)">
     <use xlink:href="#m2987c5ca12" x="84.930836" y="-1" style="fill: #e31d1d; stroke: #e31d1d"/>
     <use xlink:href="#m2987c5ca12" x="88.350608" y="324.283766" style="fill: #e31d1d; stroke: #e31d1d"/>
     <use xlink:href="#m2987c5ca12" x="103.685565" y="324.225214" style="fill: #e31d1d; stroke: #e31d1d"/>
     <use xlink:href="#m2987c5ca12" x="121.016432" y="324.196739" style="fill: #e31d1d; stroke: #e31d1d"/>
     <use xlink:href="#m2987c5ca12" x="136.153146" y="324.178748" style="fill: #e31d1d; stroke: #e31d1d"/>
     <use xlink:href="#m2987c5ca12" x="157.308094" y="324.165934" style="fill: #e31d1d; stroke: #e31d1d"/>
     <use xlink:href="#m2987c5ca12" x="175.952601" y="324.156149" style="fill: #e31d1d; stroke: #e31d1d"/>
     <use xlink:href="#m2987c5ca12" x="195.653213" y="324.148328" style="fill: #e31d1d; stroke: #e31d1d"/>
     <use xlink:href="#m2987c5ca12" x="211.013449" y="324.141871" style="fill: #e31d1d; stroke: #e31d1d"/>
     <use xlink:href="#m2987c5ca12" x="230.42853" y="324.136408" style="fill: #e31d1d; stroke: #e31d1d"/>
     <use xlink:href="#m2987c5ca12" x="249.688291" y="324.131701" style="fill: #e31d1d; stroke: #e31d1d"/>
     <use xlink:href="#m2987c5ca12" x="268.102935" y="324.127582" style="fill: #e31d1d; stroke: #e31d1d"/>
     <use xlink:href="#m2987c5ca12" x="288.337297" y="324.123935" style="fill: #e31d1d; stroke: #e31d1d"/>
     <use xlink:href="#m2987c5ca12" x="308.609073" y="324.120672" style="fill: #e31d1d; stroke: #e31d1d"/>
     <use xlink:href="#m2987c5ca12" x="327.414988" y="324.117727" style="fill: #e31d1d; stroke: #e31d1d"/>
     <use xlink:href="#m2987c5ca12" x="347.334516" y="324.115051" style="fill: #e31d1d; stroke: #e31d1d"/>
     <use xlink:href="#m2987c5ca12" x="362.438594" y="324.112602" style="fill: #e31d1d; stroke: #e31d1d"/>
     <use xlink:href="#m2987c5ca12" x="376.549261" y="324.110349" style="fill: #e31d1d; stroke: #e31d1d"/>
     <use xlink:href="#m2987c5ca12" x="394.755721" y="324.108267" style="fill: #e31d1d; stroke: #e31d1d"/>
     <use xlink:href="#m2987c5ca12" x="411.451304" y="324.106333" style="fill: #e31d1d; stroke: #e31d1d"/>
     <use xlink:href="#m2987c5ca12" x="429.780284" y="324.10453" style="fill: #e31d1d; stroke: #e31d1d"/>
     <use xlink:href="#m2987c5ca12" x="449.149671" y="324.102844" style="fill: #e31d1d; stroke: #e31d1d"/>
     <use xlink:href="#m2987c5ca12" x="471.451189" y="324.101262" style="fill: #e31d1d; stroke: #e31d1d"/>
     <use xlink:href="#m2987c5ca12" x="486.238426" y="324.099772" style="fill: #e31d1d; stroke: #e31d1d"/>
     <use xlink:href="#m2987c5ca12" x="501.036328" y="324.098367" style="fill: #e31d1d; stroke: #e31d1d"/>
     <use xlink:href="#m2987c5ca12" x="518.385712" y="324.097037" style="fill: #e31d1d; stroke: #e31d1d"/>
     <use xlink:href="#m2987c5ca12" x="518.401132" y="324.097037" style="fill: #e31d1d; stroke: #e31d1d"/>
    </g>
   </g>
   <g id="line2d_41">
    <path d="M 77.239239 -1 
L 87.947465 324.28422 
L 102.469478 324.225575 
L 117.843743 324.197054 
L 131.971956 324.179034 
L 148.053856 324.1662 
L 162.317434 324.1564 
L 179.639933 324.148566 
L 197.700413 324.142098 
L 211.890821 324.136627 
L 226.326612 324.131912 
L 240.790957 324.127787 
L 255.381675 324.124133 
L 274.519674 324.120865 
L 295.087362 324.117916 
L 315.473679 324.115235 
L 336.84486 324.112782 
L 357.435414 324.110526 
L 377.635764 324.10844 
L 397.757844 324.106503 
L 417.822003 324.104698 
L 437.777447 324.103009 
L 457.885935 324.101424 
L 478.115747 324.099932 
L 498.239942 324.098524 
L 518.372173 324.097193 
L 518.401526 324.097191 
" clip-path="url(#ped61d2cb5f)" style="fill: none; stroke-dasharray: 1.5,15; stroke-dashoffset: 0; stroke: #df6f67; stroke-width: 1.5"/>
    <defs>
     <path id="m494de9009a" d="M 0 3 
C 0.795609 3 1.55874 2.683901 2.12132 2.12132 
C 2.683901 1.55874 3 0.795609 3 0 
C 3 -0.795609 2.683901 -1.55874 2.12132 -2.12132 
C 1.55874 -2.683901 0.795609 -3 0 -3 
C -0.795609 -3 -1.55874 -2.683901 -2.12132 -2.12132 
C -2.683901 -1.55874 -3 -0.795609 -3 0 
C -3 0.795609 -2.683901 1.55874 -2.12132 2.12132 
C -1.55874 2.683901 -0.795609 3 0 3 
z
" style="stroke: #df6f67"/>
    </defs>
    <g clip-path="url(#ped61d2cb5f)">
     <use xlink:href="#m494de9009a" x="77.239239" y="-1" style="fill: #df6f67; stroke: #df6f67"/>
     <use xlink:href="#m494de9009a" x="87.947465" y="324.28422" style="fill: #df6f67; stroke: #df6f67"/>
     <use xlink:href="#m494de9009a" x="102.469478" y="324.225575" style="fill: #df6f67; stroke: #df6f67"/>
     <use xlink:href="#m494de9009a" x="117.843743" y="324.197054" style="fill: #df6f67; stroke: #df6f67"/>
     <use xlink:href="#m494de9009a" x="131.971956" y="324.179034" style="fill: #df6f67; stroke: #df6f67"/>
     <use xlink:href="#m494de9009a" x="148.053856" y="324.1662" style="fill: #df6f67; stroke: #df6f67"/>
     <use xlink:href="#m494de9009a" x="162.317434" y="324.1564" style="fill: #df6f67; stroke: #df6f67"/>
     <use xlink:href="#m494de9009a" x="179.639933" y="324.148566" style="fill: #df6f67; stroke: #df6f67"/>
     <use xlink:href="#m494de9009a" x="197.700413" y="324.142098" style="fill: #df6f67; stroke: #df6f67"/>
     <use xlink:href="#m494de9009a" x="211.890821" y="324.136627" style="fill: #df6f67; stroke: #df6f67"/>
     <use xlink:href="#m494de9009a" x="226.326612" y="324.131912" style="fill: #df6f67; stroke: #df6f67"/>
     <use xlink:href="#m494de9009a" x="240.790957" y="324.127787" style="fill: #df6f67; stroke: #df6f67"/>
     <use xlink:href="#m494de9009a" x="255.381675" y="324.124133" style="fill: #df6f67; stroke: #df6f67"/>
     <use xlink:href="#m494de9009a" x="274.519674" y="324.120865" style="fill: #df6f67; stroke: #df6f67"/>
     <use xlink:href="#m494de9009a" x="295.087362" y="324.117916" style="fill: #df6f67; stroke: #df6f67"/>
     <use xlink:href="#m494de9009a" x="315.473679" y="324.115235" style="fill: #df6f67; stroke: #df6f67"/>
     <use xlink:href="#m494de9009a" x="336.84486" y="324.112782" style="fill: #df6f67; stroke: #df6f67"/>
     <use xlink:href="#m494de9009a" x="357.435414" y="324.110526" style="fill: #df6f67; stroke: #df6f67"/>
     <use xlink:href="#m494de9009a" x="377.635764" y="324.10844" style="fill: #df6f67; stroke: #df6f67"/>
     <use xlink:href="#m494de9009a" x="397.757844" y="324.106503" style="fill: #df6f67; stroke: #df6f67"/>
     <use xlink:href="#m494de9009a" x="417.822003" y="324.104698" style="fill: #df6f67; stroke: #df6f67"/>
     <use xlink:href="#m494de9009a" x="437.777447" y="324.103009" style="fill: #df6f67; stroke: #df6f67"/>
     <use xlink:href="#m494de9009a" x="457.885935" y="324.101424" style="fill: #df6f67; stroke: #df6f67"/>
     <use xlink:href="#m494de9009a" x="478.115747" y="324.099932" style="fill: #df6f67; stroke: #df6f67"/>
     <use xlink:href="#m494de9009a" x="498.239942" y="324.098524" style="fill: #df6f67; stroke: #df6f67"/>
     <use xlink:href="#m494de9009a" x="518.372173" y="324.097193" style="fill: #df6f67; stroke: #df6f67"/>
     <use xlink:href="#m494de9009a" x="518.401526" y="324.097191" style="fill: #df6f67; stroke: #df6f67"/>
    </g>
   </g>
   <g id="line2d_42">
    <path d="M 72.005494 353.49156 
L 90.156158 324.297598 
L 107.912521 324.23619 
L 126.642823 324.206327 
L 144.554995 324.187459 
L 162.234895 324.174021 
L 179.918814 324.163759 
L 197.745075 324.155557 
L 215.429023 324.148784 
L 233.163134 324.143056 
L 251.102453 324.138119 
L 268.685246 324.1338 
L 286.902909 324.129974 
L 304.551493 324.126552 
L 322.125126 324.123464 
L 339.681531 324.120657 
L 357.374321 324.118089 
L 374.89778 324.115727 
L 392.210641 324.113543 
L 409.953916 324.111515 
L 429.155922 324.109624 
L 447.090992 324.107856 
L 464.936275 324.106196 
L 482.720746 324.104634 
L 500.591076 324.10316 
L 518.347052 324.101766 
L 518.401893 324.101763 
" clip-path="url(#ped61d2cb5f)" style="fill: none; stroke-dasharray: 7.5,15; stroke-dashoffset: 0; stroke: #dea39f; stroke-width: 1.5"/>
    <defs>
     <path id="m8eb0e6e9ab" d="M 0 3 
C 0.795609 3 1.55874 2.683901 2.12132 2.12132 
C 2.683901 1.55874 3 0.795609 3 0 
C 3 -0.795609 2.683901 -1.55874 2.12132 -2.12132 
C 1.55874 -2.683901 0.795609 -3 0 -3 
C -0.795609 -3 -1.55874 -2.683901 -2.12132 -2.12132 
C -2.683901 -1.55874 -3 -0.795609 -3 0 
C -3 0.795609 -2.683901 1.55874 -2.12132 2.12132 
C -1.55874 2.683901 -0.795609 3 0 3 
z
" style="stroke: #dea39f"/>
    </defs>
    <g clip-path="url(#ped61d2cb5f)">
     <use xlink:href="#m8eb0e6e9ab" x="72.005494" y="353.49156" style="fill: #dea39f; stroke: #dea39f"/>
     <use xlink:href="#m8eb0e6e9ab" x="90.156158" y="324.297598" style="fill: #dea39f; stroke: #dea39f"/>
     <use xlink:href="#m8eb0e6e9ab" x="107.912521" y="324.23619" style="fill: #dea39f; stroke: #dea39f"/>
     <use xlink:href="#m8eb0e6e9ab" x="126.642823" y="324.206327" style="fill: #dea39f; stroke: #dea39f"/>
     <use xlink:href="#m8eb0e6e9ab" x="144.554995" y="324.187459" style="fill: #dea39f; stroke: #dea39f"/>
     <use xlink:href="#m8eb0e6e9ab" x="162.234895" y="324.174021" style="fill: #dea39f; stroke: #dea39f"/>
     <use xlink:href="#m8eb0e6e9ab" x="179.918814" y="324.163759" style="fill: #dea39f; stroke: #dea39f"/>
     <use xlink:href="#m8eb0e6e9ab" x="197.745075" y="324.155557" style="fill: #dea39f; stroke: #dea39f"/>
     <use xlink:href="#m8eb0e6e9ab" x="215.429023" y="324.148784" style="fill: #dea39f; stroke: #dea39f"/>
     <use xlink:href="#m8eb0e6e9ab" x="233.163134" y="324.143056" style="fill: #dea39f; stroke: #dea39f"/>
     <use xlink:href="#m8eb0e6e9ab" x="251.102453" y="324.138119" style="fill: #dea39f; stroke: #dea39f"/>
     <use xlink:href="#m8eb0e6e9ab" x="268.685246" y="324.1338" style="fill: #dea39f; stroke: #dea39f"/>
     <use xlink:href="#m8eb0e6e9ab" x="286.902909" y="324.129974" style="fill: #dea39f; stroke: #dea39f"/>
     <use xlink:href="#m8eb0e6e9ab" x="304.551493" y="324.126552" style="fill: #dea39f; stroke: #dea39f"/>
     <use xlink:href="#m8eb0e6e9ab" x="322.125126" y="324.123464" style="fill: #dea39f; stroke: #dea39f"/>
     <use xlink:href="#m8eb0e6e9ab" x="339.681531" y="324.120657" style="fill: #dea39f; stroke: #dea39f"/>
     <use xlink:href="#m8eb0e6e9ab" x="357.374321" y="324.118089" style="fill: #dea39f; stroke: #dea39f"/>
     <use xlink:href="#m8eb0e6e9ab" x="374.89778" y="324.115727" style="fill: #dea39f; stroke: #dea39f"/>
     <use xlink:href="#m8eb0e6e9ab" x="392.210641" y="324.113543" style="fill: #dea39f; stroke: #dea39f"/>
     <use xlink:href="#m8eb0e6e9ab" x="409.953916" y="324.111515" style="fill: #dea39f; stroke: #dea39f"/>
     <use xlink:href="#m8eb0e6e9ab" x="429.155922" y="324.109624" style="fill: #dea39f; stroke: #dea39f"/>
     <use xlink:href="#m8eb0e6e9ab" x="447.090992" y="324.107856" style="fill: #dea39f; stroke: #dea39f"/>
     <use xlink:href="#m8eb0e6e9ab" x="464.936275" y="324.106196" style="fill: #dea39f; stroke: #dea39f"/>
     <use xlink:href="#m8eb0e6e9ab" x="482.720746" y="324.104634" style="fill: #dea39f; stroke: #dea39f"/>
     <use xlink:href="#m8eb0e6e9ab" x="500.591076" y="324.10316" style="fill: #dea39f; stroke: #dea39f"/>
     <use xlink:href="#m8eb0e6e9ab" x="518.347052" y="324.101766" style="fill: #dea39f; stroke: #dea39f"/>
     <use xlink:href="#m8eb0e6e9ab" x="518.401893" y="324.101763" style="fill: #dea39f; stroke: #dea39f"/>
    </g>
   </g>
   <g id="line2d_43">
    <path d="M 103.339527 351.215999 
L 138.376339 327.024014 
L 164.706475 324.623851 
L 195.293608 324.191298 
L 224.712124 324.070786 
L 251.507743 324.029396 
L 275.884313 324.013217 
L 301.142389 324.006307 
L 325.586344 324.003152 
L 351.741458 324.001641 
L 376.673399 324.00088 
L 401.528934 324.000482 
L 425.901198 324.000268 
L 449.395392 324.000153 
L 473.911703 324.000095 
L 498.862521 324.000055 
L 523.729121 324.000032 
" clip-path="url(#ped61d2cb5f)" style="fill: none; stroke: #1c24dc; stroke-width: 1.5; stroke-linecap: square"/>
    <defs>
     <path id="m553166cf78" d="M 0 -5 
L -1.12257 -1.545085 
L -4.755283 -1.545085 
L -1.816356 0.59017 
L -2.938926 4.045085 
L -0 1.90983 
L 2.938926 4.045085 
L 1.816356 0.59017 
L 4.755283 -1.545085 
L 1.12257 -1.545085 
z
" style="stroke: #1c24dc; stroke-linejoin: bevel"/>
    </defs>
    <g clip-path="url(#ped61d2cb5f)">
     <use xlink:href="#m553166cf78" x="103.339527" y="351.215999" style="fill: #1c24dc; stroke: #1c24dc; stroke-linejoin: bevel"/>
     <use xlink:href="#m553166cf78" x="138.376339" y="327.024014" style="fill: #1c24dc; stroke: #1c24dc; stroke-linejoin: bevel"/>
     <use xlink:href="#m553166cf78" x="164.706475" y="324.623851" style="fill: #1c24dc; stroke: #1c24dc; stroke-linejoin: bevel"/>
     <use xlink:href="#m553166cf78" x="195.293608" y="324.191298" style="fill: #1c24dc; stroke: #1c24dc; stroke-linejoin: bevel"/>
     <use xlink:href="#m553166cf78" x="224.712124" y="324.070786" style="fill: #1c24dc; stroke: #1c24dc; stroke-linejoin: bevel"/>
     <use xlink:href="#m553166cf78" x="251.507743" y="324.029396" style="fill: #1c24dc; stroke: #1c24dc; stroke-linejoin: bevel"/>
     <use xlink:href="#m553166cf78" x="275.884313" y="324.013217" style="fill: #1c24dc; stroke: #1c24dc; stroke-linejoin: bevel"/>
     <use xlink:href="#m553166cf78" x="301.142389" y="324.006307" style="fill: #1c24dc; stroke: #1c24dc; stroke-linejoin: bevel"/>
     <use xlink:href="#m553166cf78" x="325.586344" y="324.003152" style="fill: #1c24dc; stroke: #1c24dc; stroke-linejoin: bevel"/>
     <use xlink:href="#m553166cf78" x="351.741458" y="324.001641" style="fill: #1c24dc; stroke: #1c24dc; stroke-linejoin: bevel"/>
     <use xlink:href="#m553166cf78" x="376.673399" y="324.00088" style="fill: #1c24dc; stroke: #1c24dc; stroke-linejoin: bevel"/>
     <use xlink:href="#m553166cf78" x="401.528934" y="324.000482" style="fill: #1c24dc; stroke: #1c24dc; stroke-linejoin: bevel"/>
     <use xlink:href="#m553166cf78" x="425.901198" y="324.000268" style="fill: #1c24dc; stroke: #1c24dc; stroke-linejoin: bevel"/>
     <use xlink:href="#m553166cf78" x="449.395392" y="324.000153" style="fill: #1c24dc; stroke: #1c24dc; stroke-linejoin: bevel"/>
     <use xlink:href="#m553166cf78" x="473.911703" y="324.000095" style="fill: #1c24dc; stroke: #1c24dc; stroke-linejoin: bevel"/>
     <use xlink:href="#m553166cf78" x="498.862521" y="324.000055" style="fill: #1c24dc; stroke: #1c24dc; stroke-linejoin: bevel"/>
     <use xlink:href="#m553166cf78" x="523.729121" y="324.000032" style="fill: #1c24dc; stroke: #1c24dc; stroke-linejoin: bevel"/>
    </g>
   </g>
   <g id="line2d_44">
    <path d="M 121.116691 351.215999 
L 176.816536 327.024003 
L 231.430299 324.623851 
L 278.345903 324.191298 
L 331.632385 324.070786 
L 384.783516 324.02939 
L 435.801202 324.013217 
L 491.949833 324.006307 
L 545.008576 324.003152 
" clip-path="url(#ped61d2cb5f)" style="fill: none; stroke-dasharray: 1.5,15; stroke-dashoffset: 0; stroke: #595fdc; stroke-width: 1.5"/>
    <defs>
     <path id="m492347cebf" d="M 0 -3 
L -0.673542 -0.927051 
L -2.85317 -0.927051 
L -1.089814 0.354102 
L -1.763356 2.427051 
L -0 1.145898 
L 1.763356 2.427051 
L 1.089814 0.354102 
L 2.85317 -0.927051 
L 0.673542 -0.927051 
z
" style="stroke: #595fdc; stroke-linejoin: bevel"/>
    </defs>
    <g clip-path="url(#ped61d2cb5f)">
     <use xlink:href="#m492347cebf" x="121.116691" y="351.215999" style="fill: #595fdc; stroke: #595fdc; stroke-linejoin: bevel"/>
     <use xlink:href="#m492347cebf" x="176.816536" y="327.024003" style="fill: #595fdc; stroke: #595fdc; stroke-linejoin: bevel"/>
     <use xlink:href="#m492347cebf" x="231.430299" y="324.623851" style="fill: #595fdc; stroke: #595fdc; stroke-linejoin: bevel"/>
     <use xlink:href="#m492347cebf" x="278.345903" y="324.191298" style="fill: #595fdc; stroke: #595fdc; stroke-linejoin: bevel"/>
     <use xlink:href="#m492347cebf" x="331.632385" y="324.070786" style="fill: #595fdc; stroke: #595fdc; stroke-linejoin: bevel"/>
     <use xlink:href="#m492347cebf" x="384.783516" y="324.02939" style="fill: #595fdc; stroke: #595fdc; stroke-linejoin: bevel"/>
     <use xlink:href="#m492347cebf" x="435.801202" y="324.013217" style="fill: #595fdc; stroke: #595fdc; stroke-linejoin: bevel"/>
     <use xlink:href="#m492347cebf" x="491.949833" y="324.006307" style="fill: #595fdc; stroke: #595fdc; stroke-linejoin: bevel"/>
     <use xlink:href="#m492347cebf" x="545.008576" y="324.003152" style="fill: #595fdc; stroke: #595fdc; stroke-linejoin: bevel"/>
    </g>
   </g>
   <g id="line2d_45">
    <path d="M 128.674961 351.215999 
L 184.580658 327.024 
L 241.482736 324.623848 
L 299.005743 324.191296 
L 354.59779 324.070788 
L 409.184762 324.029393 
L 463.120146 324.013214 
L 515.049925 324.00631 
L 568.829671 324.003149 
" clip-path="url(#ped61d2cb5f)" style="fill: none; stroke-dasharray: 7.5,15; stroke-dashoffset: 0; stroke: #9598dc; stroke-width: 1.5"/>
    <defs>
     <path id="m112c8f769d" d="M 0 -3 
L -0.673542 -0.927051 
L -2.85317 -0.927051 
L -1.089814 0.354102 
L -1.763356 2.427051 
L -0 1.145898 
L 1.763356 2.427051 
L 1.089814 0.354102 
L 2.85317 -0.927051 
L 0.673542 -0.927051 
z
" style="stroke: #9598dc; stroke-linejoin: bevel"/>
    </defs>
    <g clip-path="url(#ped61d2cb5f)">
     <use xlink:href="#m112c8f769d" x="128.674961" y="351.215999" style="fill: #9598dc; stroke: #9598dc; stroke-linejoin: bevel"/>
     <use xlink:href="#m112c8f769d" x="184.580658" y="327.024" style="fill: #9598dc; stroke: #9598dc; stroke-linejoin: bevel"/>
     <use xlink:href="#m112c8f769d" x="241.482736" y="324.623848" style="fill: #9598dc; stroke: #9598dc; stroke-linejoin: bevel"/>
     <use xlink:href="#m112c8f769d" x="299.005743" y="324.191296" style="fill: #9598dc; stroke: #9598dc; stroke-linejoin: bevel"/>
     <use xlink:href="#m112c8f769d" x="354.59779" y="324.070788" style="fill: #9598dc; stroke: #9598dc; stroke-linejoin: bevel"/>
     <use xlink:href="#m112c8f769d" x="409.184762" y="324.029393" style="fill: #9598dc; stroke: #9598dc; stroke-linejoin: bevel"/>
     <use xlink:href="#m112c8f769d" x="463.120146" y="324.013214" style="fill: #9598dc; stroke: #9598dc; stroke-linejoin: bevel"/>
     <use xlink:href="#m112c8f769d" x="515.049925" y="324.00631" style="fill: #9598dc; stroke: #9598dc; stroke-linejoin: bevel"/>
     <use xlink:href="#m112c8f769d" x="568.829671" y="324.003149" style="fill: #9598dc; stroke: #9598dc; stroke-linejoin: bevel"/>
    </g>
   </g>
   <g id="patch_3">
    <path d="M 72 384.48 
L 72 51.84 
" style="fill: none; stroke: #000000; stroke-width: 0.8; stroke-linejoin: miter; stroke-linecap: square"/>
   </g>
   <g id="patch_4">
    <path d="M 518.4 384.48 
L 518.4 51.84 
" style="fill: none; stroke: #000000; stroke-width: 0.8; stroke-linejoin: miter; stroke-linecap: square"/>
   </g>
   <g id="patch_5">
    <path d="M 72 384.48 
L 518.4 384.48 
" style="fill: none; stroke: #000000; stroke-width: 0.8; stroke-linejoin: miter; stroke-linecap: square"/>
   </g>
   <g id="patch_6">
    <path d="M 72 51.84 
L 518.4 51.84 
" style="fill: none; stroke: #000000; stroke-width: 0.8; stroke-linejoin: miter; stroke-linecap: square"/>
   </g>
   <g id="legend_1">
    <g id="patch_7">
     <path d="M 410.2 315.34 
L 511.4 315.34 
Q 513.4 315.34 513.4 313.34 
L 513.4 58.84 
Q 513.4 56.84 511.4 56.84 
L 410.2 56.84 
Q 408.2 56.84 408.2 58.84 
L 408.2 313.34 
Q 408.2 315.34 410.2 315.34 
z
" style="fill: #ffffff; opacity: 0.8; stroke: #cccccc; stroke-linejoin: miter"/>
    </g>
    <g id="line2d_46">
     <path d="M 412.2 66.44 
L 422.2 66.44 
L 432.2 66.44 
" style="fill: none; stroke: #b6c800; stroke-width: 1.5; stroke-linecap: square"/>
     <g>
      <use xlink:href="#m9c845ee6a9" x="422.2" y="66.44" style="fill: #b6c800; stroke: #b6c800; stroke-linejoin: miter"/>
     </g>
    </g>
    <g id="text_15">
     <!-- $PA_{C\searrow}(\mathbf{x}^0_{max})$ -->
     <g transform="translate(440.2 69.94) scale(0.1 -0.1)">
      <defs>
       <path id="DejaVuSans-Oblique-50" d="M 1081 4666 
L 2541 4666 
Q 3178 4666 3512 4369 
Q 3847 4072 3847 3500 
Q 3847 2731 3353 2303 
Q 2859 1875 1966 1875 
L 1172 1875 
L 806 0 
L 172 0 
L 1081 4666 
z
M 1613 4147 
L 1275 2394 
L 2069 2394 
Q 2606 2394 2893 2669 
Q 3181 2944 3181 3456 
Q 3181 3784 2986 3965 
Q 2791 4147 2438 4147 
L 1613 4147 
z
" transform="scale(0.015625)"/>
       <path id="DejaVuSans-Oblique-41" d="M 2356 4666 
L 3072 4666 
L 3938 0 
L 3278 0 
L 3084 1197 
L 984 1197 
L 325 0 
L -341 0 
L 2356 4666 
z
M 2584 4044 
L 1275 1722 
L 2988 1722 
L 2584 4044 
z
" transform="scale(0.015625)"/>
       <path id="DejaVuSans-Oblique-43" d="M 4447 4306 
L 4319 3641 
Q 4019 3944 3683 4091 
Q 3347 4238 2956 4238 
Q 2422 4238 2017 3981 
Q 1613 3725 1319 3200 
Q 1131 2863 1032 2486 
Q 934 2109 934 1728 
Q 934 1091 1264 756 
Q 1594 422 2222 422 
Q 2656 422 3056 561 
Q 3456 700 3834 978 
L 3688 231 
Q 3316 72 2936 -9 
Q 2556 -91 2175 -91 
Q 1278 -91 773 396 
Q 269 884 269 1753 
Q 269 2309 461 2846 
Q 653 3384 1013 3828 
Q 1394 4300 1883 4525 
Q 2372 4750 3022 4750 
Q 3422 4750 3780 4639 
Q 4138 4528 4447 4306 
z
" transform="scale(0.015625)"/>
       <path id="DejaVuSans-2198" d="M 4497 359 
L 4300 163 
L 2563 163 
L 2563 691 
L 3594 691 
L 900 3384 
L 1275 3759 
L 3969 1066 
L 3969 2097 
L 4497 2097 
L 4497 359 
z
" transform="scale(0.015625)"/>
       <path id="DejaVuSans-28" d="M 1984 4856 
Q 1566 4138 1362 3434 
Q 1159 2731 1159 2009 
Q 1159 1288 1364 580 
Q 1569 -128 1984 -844 
L 1484 -844 
Q 1016 -109 783 600 
Q 550 1309 550 2009 
Q 550 2706 781 3412 
Q 1013 4119 1484 4856 
L 1984 4856 
z
" transform="scale(0.015625)"/>
       <path id="DejaVuSans-Bold-78" d="M 1422 1791 
L 159 3500 
L 1344 3500 
L 2059 2463 
L 2784 3500 
L 3969 3500 
L 2706 1797 
L 4031 0 
L 2847 0 
L 2059 1106 
L 1281 0 
L 97 0 
L 1422 1791 
z
" transform="scale(0.015625)"/>
       <path id="DejaVuSans-Oblique-6d" d="M 5747 2113 
L 5338 0 
L 4763 0 
L 5166 2094 
Q 5191 2228 5203 2325 
Q 5216 2422 5216 2491 
Q 5216 2772 5059 2928 
Q 4903 3084 4622 3084 
Q 4203 3084 3875 2770 
Q 3547 2456 3450 1953 
L 3066 0 
L 2491 0 
L 2900 2094 
Q 2925 2209 2937 2307 
Q 2950 2406 2950 2484 
Q 2950 2769 2794 2926 
Q 2638 3084 2363 3084 
Q 1938 3084 1609 2770 
Q 1281 2456 1184 1953 
L 800 0 
L 225 0 
L 909 3500 
L 1484 3500 
L 1375 2956 
Q 1609 3263 1923 3423 
Q 2238 3584 2597 3584 
Q 2978 3584 3223 3384 
Q 3469 3184 3519 2828 
Q 3781 3197 4126 3390 
Q 4472 3584 4856 3584 
Q 5306 3584 5551 3325 
Q 5797 3066 5797 2591 
Q 5797 2488 5784 2364 
Q 5772 2241 5747 2113 
z
" transform="scale(0.015625)"/>
       <path id="DejaVuSans-Oblique-61" d="M 3438 1997 
L 3047 0 
L 2472 0 
L 2578 531 
Q 2325 219 2001 64 
Q 1678 -91 1281 -91 
Q 834 -91 548 182 
Q 263 456 263 884 
Q 263 1497 752 1853 
Q 1241 2209 2100 2209 
L 2900 2209 
L 2931 2363 
Q 2938 2388 2941 2417 
Q 2944 2447 2944 2509 
Q 2944 2788 2717 2942 
Q 2491 3097 2081 3097 
Q 1800 3097 1504 3025 
Q 1209 2953 897 2809 
L 997 3341 
Q 1322 3463 1633 3523 
Q 1944 3584 2234 3584 
Q 2853 3584 3176 3315 
Q 3500 3047 3500 2534 
Q 3500 2431 3484 2292 
Q 3469 2153 3438 1997 
z
M 2816 1759 
L 2241 1759 
Q 1534 1759 1195 1570 
Q 856 1381 856 984 
Q 856 709 1029 553 
Q 1203 397 1509 397 
Q 1978 397 2328 733 
Q 2678 1069 2791 1631 
L 2816 1759 
z
" transform="scale(0.015625)"/>
       <path id="DejaVuSans-Oblique-78" d="M 3841 3500 
L 2234 1784 
L 3219 0 
L 2559 0 
L 1819 1388 
L 531 0 
L -166 0 
L 1556 1844 
L 641 3500 
L 1300 3500 
L 1972 2234 
L 3144 3500 
L 3841 3500 
z
" transform="scale(0.015625)"/>
       <path id="DejaVuSans-29" d="M 513 4856 
L 1013 4856 
Q 1481 4119 1714 3412 
Q 1947 2706 1947 2009 
Q 1947 1309 1714 600 
Q 1481 -109 1013 -844 
L 513 -844 
Q 928 -128 1133 580 
Q 1338 1288 1338 2009 
Q 1338 2731 1133 3434 
Q 928 4138 513 4856 
z
" transform="scale(0.015625)"/>
      </defs>
      <use xlink:href="#DejaVuSans-Oblique-50" transform="translate(0 0.765625)"/>
      <use xlink:href="#DejaVuSans-Oblique-41" transform="translate(60.302734 0.765625)"/>
      <use xlink:href="#DejaVuSans-Oblique-43" transform="translate(128.710938 -15.640625) scale(0.7)"/>
      <use xlink:href="#DejaVuSans-2198" transform="translate(191.225586 -15.640625) scale(0.7)"/>
      <use xlink:href="#DejaVuSans-28" transform="translate(266.25 0.765625)"/>
      <use xlink:href="#DejaVuSans-Bold-78" transform="translate(305.263672 0.765625)"/>
      <use xlink:href="#DejaVuSans-30" transform="translate(370.722656 39.046875) scale(0.7)"/>
      <use xlink:href="#DejaVuSans-Oblique-6d" transform="translate(370.722656 -26.578125) scale(0.7)"/>
      <use xlink:href="#DejaVuSans-Oblique-61" transform="translate(438.911133 -26.578125) scale(0.7)"/>
      <use xlink:href="#DejaVuSans-Oblique-78" transform="translate(481.806641 -26.578125) scale(0.7)"/>
      <use xlink:href="#DejaVuSans-29" transform="translate(525.966797 0.765625)"/>
     </g>
    </g>
    <g id="line2d_47">
     <path d="M 412.2 83.54 
L 422.2 83.54 
L 432.2 83.54 
" style="fill: none; stroke-dasharray: 1.5,15; stroke-dashoffset: 0; stroke: #b8c348; stroke-width: 1.5"/>
     <g>
      <use xlink:href="#mf6891c502e" x="422.2" y="83.54" style="fill: #b8c348; stroke: #b8c348; stroke-linejoin: miter"/>
     </g>
    </g>
    <g id="text_16">
     <!-- $PA_{C\searrow}(\mathbf{x}^0_{median})$ -->
     <g transform="translate(440.2 87.04) scale(0.1 -0.1)">
      <defs>
       <path id="DejaVuSans-Oblique-65" d="M 3078 2063 
Q 3088 2113 3092 2166 
Q 3097 2219 3097 2272 
Q 3097 2653 2873 2875 
Q 2650 3097 2266 3097 
Q 1838 3097 1509 2826 
Q 1181 2556 1013 2059 
L 3078 2063 
z
M 3578 1613 
L 903 1613 
Q 884 1494 878 1425 
Q 872 1356 872 1306 
Q 872 872 1139 634 
Q 1406 397 1894 397 
Q 2269 397 2603 481 
Q 2938 566 3225 728 
L 3116 159 
Q 2806 34 2476 -28 
Q 2147 -91 1806 -91 
Q 1078 -91 686 257 
Q 294 606 294 1247 
Q 294 1794 489 2264 
Q 684 2734 1063 3103 
Q 1306 3334 1642 3459 
Q 1978 3584 2356 3584 
Q 2950 3584 3301 3228 
Q 3653 2872 3653 2272 
Q 3653 2128 3634 1964 
Q 3616 1800 3578 1613 
z
" transform="scale(0.015625)"/>
       <path id="DejaVuSans-Oblique-64" d="M 2675 525 
Q 2444 222 2128 65 
Q 1813 -91 1428 -91 
Q 903 -91 598 267 
Q 294 625 294 1247 
Q 294 1766 478 2236 
Q 663 2706 1013 3078 
Q 1244 3325 1534 3454 
Q 1825 3584 2144 3584 
Q 2481 3584 2739 3421 
Q 2997 3259 3138 2956 
L 3513 4863 
L 4091 4863 
L 3144 0 
L 2566 0 
L 2675 525 
z
M 891 1350 
Q 891 897 1095 644 
Q 1300 391 1663 391 
Q 1931 391 2161 520 
Q 2391 650 2566 903 
Q 2750 1166 2856 1509 
Q 2963 1853 2963 2188 
Q 2963 2622 2758 2865 
Q 2553 3109 2194 3109 
Q 1922 3109 1687 2981 
Q 1453 2853 1288 2613 
Q 1106 2353 998 2009 
Q 891 1666 891 1350 
z
" transform="scale(0.015625)"/>
       <path id="DejaVuSans-Oblique-69" d="M 1172 4863 
L 1747 4863 
L 1606 4134 
L 1031 4134 
L 1172 4863 
z
M 909 3500 
L 1484 3500 
L 800 0 
L 225 0 
L 909 3500 
z
" transform="scale(0.015625)"/>
       <path id="DejaVuSans-Oblique-6e" d="M 3566 2113 
L 3156 0 
L 2578 0 
L 2988 2091 
Q 3016 2238 3031 2350 
Q 3047 2463 3047 2528 
Q 3047 2791 2881 2937 
Q 2716 3084 2419 3084 
Q 1956 3084 1622 2776 
Q 1288 2469 1184 1941 
L 800 0 
L 225 0 
L 903 3500 
L 1478 3500 
L 1363 2950 
Q 1603 3253 1940 3418 
Q 2278 3584 2650 3584 
Q 3113 3584 3367 3334 
Q 3622 3084 3622 2631 
Q 3622 2519 3608 2391 
Q 3594 2263 3566 2113 
z
" transform="scale(0.015625)"/>
      </defs>
      <use xlink:href="#DejaVuSans-Oblique-50" transform="translate(0 0.70625)"/>
      <use xlink:href="#DejaVuSans-Oblique-41" transform="translate(60.302734 0.70625)"/>
      <use xlink:href="#DejaVuSans-Oblique-43" transform="translate(128.710938 -15.7) scale(0.7)"/>
      <use xlink:href="#DejaVuSans-2198" transform="translate(191.225586 -15.7) scale(0.7)"/>
      <use xlink:href="#DejaVuSans-28" transform="translate(266.25 0.70625)"/>
      <use xlink:href="#DejaVuSans-Bold-78" transform="translate(305.263672 0.70625)"/>
      <use xlink:href="#DejaVuSans-30" transform="translate(370.722656 40.046875) scale(0.7)"/>
      <use xlink:href="#DejaVuSans-Oblique-6d" transform="translate(370.722656 -26.6375) scale(0.7)"/>
      <use xlink:href="#DejaVuSans-Oblique-65" transform="translate(438.911133 -26.6375) scale(0.7)"/>
      <use xlink:href="#DejaVuSans-Oblique-64" transform="translate(481.977539 -26.6375) scale(0.7)"/>
      <use xlink:href="#DejaVuSans-Oblique-69" transform="translate(526.411133 -26.6375) scale(0.7)"/>
      <use xlink:href="#DejaVuSans-Oblique-61" transform="translate(545.859375 -26.6375) scale(0.7)"/>
      <use xlink:href="#DejaVuSans-Oblique-6e" transform="translate(588.754883 -26.6375) scale(0.7)"/>
      <use xlink:href="#DejaVuSans-29" transform="translate(635.854492 0.70625)"/>
     </g>
    </g>
    <g id="line2d_48">
     <path d="M 412.2 100.64 
L 422.2 100.64 
L 432.2 100.64 
" style="fill: none; stroke-dasharray: 7.5,15; stroke-dashoffset: 0; stroke: #bec291; stroke-width: 1.5"/>
     <g>
      <use xlink:href="#mdc0c062b59" x="422.2" y="100.64" style="fill: #bec291; stroke: #bec291; stroke-linejoin: miter"/>
     </g>
    </g>
    <g id="text_17">
     <!-- $PA_{C\searrow}(\mathbf{x}^0_{min})$ -->
     <g transform="translate(440.2 104.14) scale(0.1 -0.1)">
      <use xlink:href="#DejaVuSans-Oblique-50" transform="translate(0 0.70625)"/>
      <use xlink:href="#DejaVuSans-Oblique-41" transform="translate(60.302734 0.70625)"/>
      <use xlink:href="#DejaVuSans-Oblique-43" transform="translate(128.710938 -15.7) scale(0.7)"/>
      <use xlink:href="#DejaVuSans-2198" transform="translate(191.225586 -15.7) scale(0.7)"/>
      <use xlink:href="#DejaVuSans-28" transform="translate(266.25 0.70625)"/>
      <use xlink:href="#DejaVuSans-Bold-78" transform="translate(305.263672 0.70625)"/>
      <use xlink:href="#DejaVuSans-30" transform="translate(370.722656 40.046875) scale(0.7)"/>
      <use xlink:href="#DejaVuSans-Oblique-6d" transform="translate(370.722656 -26.6375) scale(0.7)"/>
      <use xlink:href="#DejaVuSans-Oblique-69" transform="translate(438.911133 -26.6375) scale(0.7)"/>
      <use xlink:href="#DejaVuSans-Oblique-6e" transform="translate(458.359375 -26.6375) scale(0.7)"/>
      <use xlink:href="#DejaVuSans-29" transform="translate(505.458984 0.70625)"/>
     </g>
    </g>
    <g id="line2d_49">
     <path d="M 412.2 117.54 
L 422.2 117.54 
L 432.2 117.54 
" style="fill: none; stroke: #f119c3; stroke-width: 1.5; stroke-linecap: square"/>
     <g>
      <use xlink:href="#m0f385db0f1" x="422.2" y="117.54" style="fill: #f119c3; stroke: #f119c3; stroke-linejoin: miter"/>
     </g>
    </g>
    <g id="text_18">
     <!-- $PA_{C\nearrow}(\mathbf{x}^0_{max})$ -->
     <g transform="translate(440.2 121.04) scale(0.1 -0.1)">
      <defs>
       <path id="DejaVuSans-2197" d="M 4300 3759 
L 4497 3563 
L 4497 1825 
L 3969 1825 
L 3969 2856 
L 1275 163 
L 900 538 
L 3594 3231 
L 2563 3231 
L 2563 3759 
L 4300 3759 
z
" transform="scale(0.015625)"/>
      </defs>
      <use xlink:href="#DejaVuSans-Oblique-50" transform="translate(0 0.765625)"/>
      <use xlink:href="#DejaVuSans-Oblique-41" transform="translate(60.302734 0.765625)"/>
      <use xlink:href="#DejaVuSans-Oblique-43" transform="translate(128.710938 -15.640625) scale(0.7)"/>
      <use xlink:href="#DejaVuSans-2197" transform="translate(191.225586 -15.640625) scale(0.7)"/>
      <use xlink:href="#DejaVuSans-28" transform="translate(266.25 0.765625)"/>
      <use xlink:href="#DejaVuSans-Bold-78" transform="translate(305.263672 0.765625)"/>
      <use xlink:href="#DejaVuSans-30" transform="translate(370.722656 39.046875) scale(0.7)"/>
      <use xlink:href="#DejaVuSans-Oblique-6d" transform="translate(370.722656 -26.578125) scale(0.7)"/>
      <use xlink:href="#DejaVuSans-Oblique-61" transform="translate(438.911133 -26.578125) scale(0.7)"/>
      <use xlink:href="#DejaVuSans-Oblique-78" transform="translate(481.806641 -26.578125) scale(0.7)"/>
      <use xlink:href="#DejaVuSans-29" transform="translate(525.966797 0.765625)"/>
     </g>
    </g>
    <g id="line2d_50">
     <path d="M 412.2 134.64 
L 422.2 134.64 
L 432.2 134.64 
" style="fill: none; stroke-dasharray: 1.5,15; stroke-dashoffset: 0; stroke: #f190dd; stroke-width: 1.5"/>
     <g>
      <use xlink:href="#me75e600b4c" x="422.2" y="134.64" style="fill: #f190dd; stroke: #f190dd; stroke-linejoin: miter"/>
     </g>
    </g>
    <g id="text_19">
     <!-- $PA_{C\nearrow}(\mathbf{x}^0_{median})$ -->
     <g transform="translate(440.2 138.14) scale(0.1 -0.1)">
      <use xlink:href="#DejaVuSans-Oblique-50" transform="translate(0 0.70625)"/>
      <use xlink:href="#DejaVuSans-Oblique-41" transform="translate(60.302734 0.70625)"/>
      <use xlink:href="#DejaVuSans-Oblique-43" transform="translate(128.710938 -15.7) scale(0.7)"/>
      <use xlink:href="#DejaVuSans-2197" transform="translate(191.225586 -15.7) scale(0.7)"/>
      <use xlink:href="#DejaVuSans-28" transform="translate(266.25 0.70625)"/>
      <use xlink:href="#DejaVuSans-Bold-78" transform="translate(305.263672 0.70625)"/>
      <use xlink:href="#DejaVuSans-30" transform="translate(370.722656 40.046875) scale(0.7)"/>
      <use xlink:href="#DejaVuSans-Oblique-6d" transform="translate(370.722656 -26.6375) scale(0.7)"/>
      <use xlink:href="#DejaVuSans-Oblique-65" transform="translate(438.911133 -26.6375) scale(0.7)"/>
      <use xlink:href="#DejaVuSans-Oblique-64" transform="translate(481.977539 -26.6375) scale(0.7)"/>
      <use xlink:href="#DejaVuSans-Oblique-69" transform="translate(526.411133 -26.6375) scale(0.7)"/>
      <use xlink:href="#DejaVuSans-Oblique-61" transform="translate(545.859375 -26.6375) scale(0.7)"/>
      <use xlink:href="#DejaVuSans-Oblique-6e" transform="translate(588.754883 -26.6375) scale(0.7)"/>
      <use xlink:href="#DejaVuSans-29" transform="translate(635.854492 0.70625)"/>
     </g>
    </g>
    <g id="line2d_51">
     <path d="M 412.2 151.74 
L 422.2 151.74 
L 432.2 151.74 
" style="fill: none; stroke-dasharray: 7.5,15; stroke-dashoffset: 0; stroke: #ecc0e3; stroke-width: 1.5"/>
     <g>
      <use xlink:href="#m8105558ed4" x="422.2" y="151.74" style="fill: #ecc0e3; stroke: #ecc0e3; stroke-linejoin: miter"/>
     </g>
    </g>
    <g id="text_20">
     <!-- $PA_{C\nearrow}(\mathbf{x}^0_{min})$ -->
     <g transform="translate(440.2 155.24) scale(0.1 -0.1)">
      <use xlink:href="#DejaVuSans-Oblique-50" transform="translate(0 0.70625)"/>
      <use xlink:href="#DejaVuSans-Oblique-41" transform="translate(60.302734 0.70625)"/>
      <use xlink:href="#DejaVuSans-Oblique-43" transform="translate(128.710938 -15.7) scale(0.7)"/>
      <use xlink:href="#DejaVuSans-2197" transform="translate(191.225586 -15.7) scale(0.7)"/>
      <use xlink:href="#DejaVuSans-28" transform="translate(266.25 0.70625)"/>
      <use xlink:href="#DejaVuSans-Bold-78" transform="translate(305.263672 0.70625)"/>
      <use xlink:href="#DejaVuSans-30" transform="translate(370.722656 40.046875) scale(0.7)"/>
      <use xlink:href="#DejaVuSans-Oblique-6d" transform="translate(370.722656 -26.6375) scale(0.7)"/>
      <use xlink:href="#DejaVuSans-Oblique-69" transform="translate(438.911133 -26.6375) scale(0.7)"/>
      <use xlink:href="#DejaVuSans-Oblique-6e" transform="translate(458.359375 -26.6375) scale(0.7)"/>
      <use xlink:href="#DejaVuSans-29" transform="translate(505.458984 0.70625)"/>
     </g>
    </g>
    <g id="line2d_52">
     <path d="M 412.2 168.64 
L 422.2 168.64 
L 432.2 168.64 
" style="fill: none; stroke: #0d5915; stroke-width: 1.5; stroke-linecap: square"/>
     <g>
      <use xlink:href="#m9ca3de8246" x="422.2" y="168.64" style="fill: #0d5915; stroke: #0d5915"/>
     </g>
    </g>
    <g id="text_21">
     <!-- $IPDD(\mathbf{x}^0_{max})$ -->
     <g transform="translate(440.2 172.14) scale(0.1 -0.1)">
      <defs>
       <path id="DejaVuSans-Oblique-49" d="M 1081 4666 
L 1716 4666 
L 806 0 
L 172 0 
L 1081 4666 
z
" transform="scale(0.015625)"/>
       <path id="DejaVuSans-Oblique-44" d="M 1081 4666 
L 2438 4666 
Q 3519 4666 4070 4208 
Q 4622 3750 4622 2847 
Q 4622 2250 4412 1698 
Q 4203 1147 3834 769 
Q 3463 381 2891 190 
Q 2319 0 1538 0 
L 172 0 
L 1081 4666 
z
M 1613 4147 
L 909 519 
L 1734 519 
Q 2794 519 3375 1128 
Q 3956 1738 3956 2847 
Q 3956 3519 3581 3833 
Q 3206 4147 2406 4147 
L 1613 4147 
z
" transform="scale(0.015625)"/>
      </defs>
      <use xlink:href="#DejaVuSans-Oblique-49" transform="translate(0 0.765625)"/>
      <use xlink:href="#DejaVuSans-Oblique-50" transform="translate(29.492188 0.765625)"/>
      <use xlink:href="#DejaVuSans-Oblique-44" transform="translate(89.794922 0.765625)"/>
      <use xlink:href="#DejaVuSans-Oblique-44" transform="translate(166.796875 0.765625)"/>
      <use xlink:href="#DejaVuSans-28" transform="translate(243.798828 0.765625)"/>
      <use xlink:href="#DejaVuSans-Bold-78" transform="translate(282.8125 0.765625)"/>
      <use xlink:href="#DejaVuSans-30" transform="translate(348.271484 39.046875) scale(0.7)"/>
      <use xlink:href="#DejaVuSans-Oblique-6d" transform="translate(348.271484 -26.578125) scale(0.7)"/>
      <use xlink:href="#DejaVuSans-Oblique-61" transform="translate(416.459961 -26.578125) scale(0.7)"/>
      <use xlink:href="#DejaVuSans-Oblique-78" transform="translate(459.355469 -26.578125) scale(0.7)"/>
      <use xlink:href="#DejaVuSans-29" transform="translate(503.515625 0.765625)"/>
     </g>
    </g>
    <g id="line2d_53">
     <path d="M 412.2 185.74 
L 422.2 185.74 
L 432.2 185.74 
" style="fill: none; stroke-dasharray: 1.5,15; stroke-dashoffset: 0; stroke: #6ec977; stroke-width: 1.5"/>
     <g>
      <use xlink:href="#me33d8c209a" x="422.2" y="185.74" style="fill: #6ec977; stroke: #6ec977"/>
     </g>
    </g>
    <g id="text_22">
     <!-- $IPDD(\mathbf{x}^0_{median})$ -->
     <g transform="translate(440.2 189.24) scale(0.1 -0.1)">
      <use xlink:href="#DejaVuSans-Oblique-49" transform="translate(0 0.70625)"/>
      <use xlink:href="#DejaVuSans-Oblique-50" transform="translate(29.492188 0.70625)"/>
      <use xlink:href="#DejaVuSans-Oblique-44" transform="translate(89.794922 0.70625)"/>
      <use xlink:href="#DejaVuSans-Oblique-44" transform="translate(166.796875 0.70625)"/>
      <use xlink:href="#DejaVuSans-28" transform="translate(243.798828 0.70625)"/>
      <use xlink:href="#DejaVuSans-Bold-78" transform="translate(282.8125 0.70625)"/>
      <use xlink:href="#DejaVuSans-30" transform="translate(348.271484 40.046875) scale(0.7)"/>
      <use xlink:href="#DejaVuSans-Oblique-6d" transform="translate(348.271484 -26.6375) scale(0.7)"/>
      <use xlink:href="#DejaVuSans-Oblique-65" transform="translate(416.459961 -26.6375) scale(0.7)"/>
      <use xlink:href="#DejaVuSans-Oblique-64" transform="translate(459.526367 -26.6375) scale(0.7)"/>
      <use xlink:href="#DejaVuSans-Oblique-69" transform="translate(503.959961 -26.6375) scale(0.7)"/>
      <use xlink:href="#DejaVuSans-Oblique-61" transform="translate(523.408203 -26.6375) scale(0.7)"/>
      <use xlink:href="#DejaVuSans-Oblique-6e" transform="translate(566.303711 -26.6375) scale(0.7)"/>
      <use xlink:href="#DejaVuSans-29" transform="translate(613.40332 0.70625)"/>
     </g>
    </g>
    <g id="line2d_54">
     <path d="M 412.2 202.84 
L 422.2 202.84 
L 432.2 202.84 
" style="fill: none; stroke-dasharray: 7.5,15; stroke-dashoffset: 0; stroke: #96f6a0; stroke-width: 1.5"/>
     <g>
      <use xlink:href="#m9a94667527" x="422.2" y="202.84" style="fill: #96f6a0; stroke: #96f6a0"/>
     </g>
    </g>
    <g id="text_23">
     <!-- $IPDD(\mathbf{x}^0_{min})$ -->
     <g transform="translate(440.2 206.34) scale(0.1 -0.1)">
      <use xlink:href="#DejaVuSans-Oblique-49" transform="translate(0 0.70625)"/>
      <use xlink:href="#DejaVuSans-Oblique-50" transform="translate(29.492188 0.70625)"/>
      <use xlink:href="#DejaVuSans-Oblique-44" transform="translate(89.794922 0.70625)"/>
      <use xlink:href="#DejaVuSans-Oblique-44" transform="translate(166.796875 0.70625)"/>
      <use xlink:href="#DejaVuSans-28" transform="translate(243.798828 0.70625)"/>
      <use xlink:href="#DejaVuSans-Bold-78" transform="translate(282.8125 0.70625)"/>
      <use xlink:href="#DejaVuSans-30" transform="translate(348.271484 40.046875) scale(0.7)"/>
      <use xlink:href="#DejaVuSans-Oblique-6d" transform="translate(348.271484 -26.6375) scale(0.7)"/>
      <use xlink:href="#DejaVuSans-Oblique-69" transform="translate(416.459961 -26.6375) scale(0.7)"/>
      <use xlink:href="#DejaVuSans-Oblique-6e" transform="translate(435.908203 -26.6375) scale(0.7)"/>
      <use xlink:href="#DejaVuSans-29" transform="translate(483.007812 0.70625)"/>
     </g>
    </g>
    <g id="line2d_55">
     <path d="M 412.2 219.74 
L 422.2 219.74 
L 432.2 219.74 
" style="fill: none; stroke: #e31d1d; stroke-width: 1.5; stroke-linecap: square"/>
     <g>
      <use xlink:href="#m2987c5ca12" x="422.2" y="219.74" style="fill: #e31d1d; stroke: #e31d1d"/>
     </g>
    </g>
    <g id="text_24">
     <!-- $GDPA(\mathbf{x}^0_{max})$ -->
     <g transform="translate(440.2 223.24) scale(0.1 -0.1)">
      <defs>
       <path id="DejaVuSans-Oblique-47" d="M 3494 697 
L 3738 1919 
L 2700 1919 
L 2797 2438 
L 4453 2438 
L 4050 384 
Q 3634 156 3143 32 
Q 2653 -91 2156 -91 
Q 1278 -91 783 396 
Q 288 884 288 1753 
Q 288 2475 589 3126 
Q 891 3778 1422 4213 
Q 1756 4484 2153 4617 
Q 2550 4750 3034 4750 
Q 3472 4750 3873 4639 
Q 4275 4528 4641 4306 
L 4513 3634 
Q 4231 3928 3853 4083 
Q 3475 4238 3047 4238 
Q 2550 4238 2172 4048 
Q 1794 3859 1497 3463 
Q 1244 3125 1098 2667 
Q 953 2209 953 1734 
Q 953 1081 1287 751 
Q 1622 422 2284 422 
Q 2616 422 2925 492 
Q 3234 563 3494 697 
z
" transform="scale(0.015625)"/>
      </defs>
      <use xlink:href="#DejaVuSans-Oblique-47" transform="translate(0 0.765625)"/>
      <use xlink:href="#DejaVuSans-Oblique-44" transform="translate(77.490234 0.765625)"/>
      <use xlink:href="#DejaVuSans-Oblique-50" transform="translate(154.492188 0.765625)"/>
      <use xlink:href="#DejaVuSans-Oblique-41" transform="translate(214.794922 0.765625)"/>
      <use xlink:href="#DejaVuSans-28" transform="translate(283.203125 0.765625)"/>
      <use xlink:href="#DejaVuSans-Bold-78" transform="translate(322.216797 0.765625)"/>
      <use xlink:href="#DejaVuSans-30" transform="translate(387.675781 39.046875) scale(0.7)"/>
      <use xlink:href="#DejaVuSans-Oblique-6d" transform="translate(387.675781 -26.578125) scale(0.7)"/>
      <use xlink:href="#DejaVuSans-Oblique-61" transform="translate(455.864258 -26.578125) scale(0.7)"/>
      <use xlink:href="#DejaVuSans-Oblique-78" transform="translate(498.759766 -26.578125) scale(0.7)"/>
      <use xlink:href="#DejaVuSans-29" transform="translate(542.919922 0.765625)"/>
     </g>
    </g>
    <g id="line2d_56">
     <path d="M 412.2 236.84 
L 422.2 236.84 
L 432.2 236.84 
" style="fill: none; stroke-dasharray: 1.5,15; stroke-dashoffset: 0; stroke: #df6f67; stroke-width: 1.5"/>
     <g>
      <use xlink:href="#m494de9009a" x="422.2" y="236.84" style="fill: #df6f67; stroke: #df6f67"/>
     </g>
    </g>
    <g id="text_25">
     <!-- $GDPA(\mathbf{x}^0_{median})$ -->
     <g transform="translate(440.2 240.34) scale(0.1 -0.1)">
      <use xlink:href="#DejaVuSans-Oblique-47" transform="translate(0 0.70625)"/>
      <use xlink:href="#DejaVuSans-Oblique-44" transform="translate(77.490234 0.70625)"/>
      <use xlink:href="#DejaVuSans-Oblique-50" transform="translate(154.492188 0.70625)"/>
      <use xlink:href="#DejaVuSans-Oblique-41" transform="translate(214.794922 0.70625)"/>
      <use xlink:href="#DejaVuSans-28" transform="translate(283.203125 0.70625)"/>
      <use xlink:href="#DejaVuSans-Bold-78" transform="translate(322.216797 0.70625)"/>
      <use xlink:href="#DejaVuSans-30" transform="translate(387.675781 40.046875) scale(0.7)"/>
      <use xlink:href="#DejaVuSans-Oblique-6d" transform="translate(387.675781 -26.6375) scale(0.7)"/>
      <use xlink:href="#DejaVuSans-Oblique-65" transform="translate(455.864258 -26.6375) scale(0.7)"/>
      <use xlink:href="#DejaVuSans-Oblique-64" transform="translate(498.930664 -26.6375) scale(0.7)"/>
      <use xlink:href="#DejaVuSans-Oblique-69" transform="translate(543.364258 -26.6375) scale(0.7)"/>
      <use xlink:href="#DejaVuSans-Oblique-61" transform="translate(562.8125 -26.6375) scale(0.7)"/>
      <use xlink:href="#DejaVuSans-Oblique-6e" transform="translate(605.708008 -26.6375) scale(0.7)"/>
      <use xlink:href="#DejaVuSans-29" transform="translate(652.807617 0.70625)"/>
     </g>
    </g>
    <g id="line2d_57">
     <path d="M 412.2 253.94 
L 422.2 253.94 
L 432.2 253.94 
" style="fill: none; stroke-dasharray: 7.5,15; stroke-dashoffset: 0; stroke: #dea39f; stroke-width: 1.5"/>
     <g>
      <use xlink:href="#m8eb0e6e9ab" x="422.2" y="253.94" style="fill: #dea39f; stroke: #dea39f"/>
     </g>
    </g>
    <g id="text_26">
     <!-- $GDPA(\mathbf{x}^0_{min})$ -->
     <g transform="translate(440.2 257.44) scale(0.1 -0.1)">
      <use xlink:href="#DejaVuSans-Oblique-47" transform="translate(0 0.70625)"/>
      <use xlink:href="#DejaVuSans-Oblique-44" transform="translate(77.490234 0.70625)"/>
      <use xlink:href="#DejaVuSans-Oblique-50" transform="translate(154.492188 0.70625)"/>
      <use xlink:href="#DejaVuSans-Oblique-41" transform="translate(214.794922 0.70625)"/>
      <use xlink:href="#DejaVuSans-28" transform="translate(283.203125 0.70625)"/>
      <use xlink:href="#DejaVuSans-Bold-78" transform="translate(322.216797 0.70625)"/>
      <use xlink:href="#DejaVuSans-30" transform="translate(387.675781 40.046875) scale(0.7)"/>
      <use xlink:href="#DejaVuSans-Oblique-6d" transform="translate(387.675781 -26.6375) scale(0.7)"/>
      <use xlink:href="#DejaVuSans-Oblique-69" transform="translate(455.864258 -26.6375) scale(0.7)"/>
      <use xlink:href="#DejaVuSans-Oblique-6e" transform="translate(475.3125 -26.6375) scale(0.7)"/>
      <use xlink:href="#DejaVuSans-29" transform="translate(522.412109 0.70625)"/>
     </g>
    </g>
    <g id="line2d_58">
     <path d="M 412.2 270.84 
L 422.2 270.84 
L 432.2 270.84 
" style="fill: none; stroke: #1c24dc; stroke-width: 1.5; stroke-linecap: square"/>
     <g>
      <use xlink:href="#m553166cf78" x="422.2" y="270.84" style="fill: #1c24dc; stroke: #1c24dc; stroke-linejoin: bevel"/>
     </g>
    </g>
    <g id="text_27">
     <!-- $PGA(\mathbf{x}^0_{max})$ -->
     <g transform="translate(440.2 274.34) scale(0.1 -0.1)">
      <use xlink:href="#DejaVuSans-Oblique-50" transform="translate(0 0.765625)"/>
      <use xlink:href="#DejaVuSans-Oblique-47" transform="translate(60.302734 0.765625)"/>
      <use xlink:href="#DejaVuSans-Oblique-41" transform="translate(137.792969 0.765625)"/>
      <use xlink:href="#DejaVuSans-28" transform="translate(206.201172 0.765625)"/>
      <use xlink:href="#DejaVuSans-Bold-78" transform="translate(245.214844 0.765625)"/>
      <use xlink:href="#DejaVuSans-30" transform="translate(310.673828 39.046875) scale(0.7)"/>
      <use xlink:href="#DejaVuSans-Oblique-6d" transform="translate(310.673828 -26.578125) scale(0.7)"/>
      <use xlink:href="#DejaVuSans-Oblique-61" transform="translate(378.862305 -26.578125) scale(0.7)"/>
      <use xlink:href="#DejaVuSans-Oblique-78" transform="translate(421.757812 -26.578125) scale(0.7)"/>
      <use xlink:href="#DejaVuSans-29" transform="translate(465.917969 0.765625)"/>
     </g>
    </g>
    <g id="line2d_59">
     <path d="M 412.2 287.94 
L 422.2 287.94 
L 432.2 287.94 
" style="fill: none; stroke-dasharray: 1.5,15; stroke-dashoffset: 0; stroke: #595fdc; stroke-width: 1.5"/>
     <g>
      <use xlink:href="#m492347cebf" x="422.2" y="287.94" style="fill: #595fdc; stroke: #595fdc; stroke-linejoin: bevel"/>
     </g>
    </g>
    <g id="text_28">
     <!-- $PGA(\mathbf{x}^0_{median})$ -->
     <g transform="translate(440.2 291.44) scale(0.1 -0.1)">
      <use xlink:href="#DejaVuSans-Oblique-50" transform="translate(0 0.70625)"/>
      <use xlink:href="#DejaVuSans-Oblique-47" transform="translate(60.302734 0.70625)"/>
      <use xlink:href="#DejaVuSans-Oblique-41" transform="translate(137.792969 0.70625)"/>
      <use xlink:href="#DejaVuSans-28" transform="translate(206.201172 0.70625)"/>
      <use xlink:href="#DejaVuSans-Bold-78" transform="translate(245.214844 0.70625)"/>
      <use xlink:href="#DejaVuSans-30" transform="translate(310.673828 40.046875) scale(0.7)"/>
      <use xlink:href="#DejaVuSans-Oblique-6d" transform="translate(310.673828 -26.6375) scale(0.7)"/>
      <use xlink:href="#DejaVuSans-Oblique-65" transform="translate(378.862305 -26.6375) scale(0.7)"/>
      <use xlink:href="#DejaVuSans-Oblique-64" transform="translate(421.928711 -26.6375) scale(0.7)"/>
      <use xlink:href="#DejaVuSans-Oblique-69" transform="translate(466.362305 -26.6375) scale(0.7)"/>
      <use xlink:href="#DejaVuSans-Oblique-61" transform="translate(485.810547 -26.6375) scale(0.7)"/>
      <use xlink:href="#DejaVuSans-Oblique-6e" transform="translate(528.706055 -26.6375) scale(0.7)"/>
      <use xlink:href="#DejaVuSans-29" transform="translate(575.805664 0.70625)"/>
     </g>
    </g>
    <g id="line2d_60">
     <path d="M 412.2 305.04 
L 422.2 305.04 
L 432.2 305.04 
" style="fill: none; stroke-dasharray: 7.5,15; stroke-dashoffset: 0; stroke: #9598dc; stroke-width: 1.5"/>
     <g>
      <use xlink:href="#m112c8f769d" x="422.2" y="305.04" style="fill: #9598dc; stroke: #9598dc; stroke-linejoin: bevel"/>
     </g>
    </g>
    <g id="text_29">
     <!-- $PGA(\mathbf{x}^0_{min})$ -->
     <g transform="translate(440.2 308.54) scale(0.1 -0.1)">
      <use xlink:href="#DejaVuSans-Oblique-50" transform="translate(0 0.70625)"/>
      <use xlink:href="#DejaVuSans-Oblique-47" transform="translate(60.302734 0.70625)"/>
      <use xlink:href="#DejaVuSans-Oblique-41" transform="translate(137.792969 0.70625)"/>
      <use xlink:href="#DejaVuSans-28" transform="translate(206.201172 0.70625)"/>
      <use xlink:href="#DejaVuSans-Bold-78" transform="translate(245.214844 0.70625)"/>
      <use xlink:href="#DejaVuSans-30" transform="translate(310.673828 40.046875) scale(0.7)"/>
      <use xlink:href="#DejaVuSans-Oblique-6d" transform="translate(310.673828 -26.6375) scale(0.7)"/>
      <use xlink:href="#DejaVuSans-Oblique-69" transform="translate(378.862305 -26.6375) scale(0.7)"/>
      <use xlink:href="#DejaVuSans-Oblique-6e" transform="translate(398.310547 -26.6375) scale(0.7)"/>
      <use xlink:href="#DejaVuSans-29" transform="translate(445.410156 0.70625)"/>
     </g>
    </g>
   </g>
  </g>
 </g>
 <defs>
  <clipPath id="ped61d2cb5f">
   <rect x="72" y="51.84" width="446.4" height="332.64"/>
  </clipPath>
 </defs>
</svg>
