<?xml version="1.0" encoding="utf-8" standalone="no"?>
<!DOCTYPE svg PUBLIC "-//W3C//DTD SVG 1.1//EN"
  "http://www.w3.org/Graphics/SVG/1.1/DTD/svg11.dtd">
<svg xmlns:xlink="http://www.w3.org/1999/xlink" width="576pt" height="432pt" viewBox="0 0 576 432" xmlns="http://www.w3.org/2000/svg" version="1.1">
 <metadata>
  <rdf:RDF xmlns:dc="http://purl.org/dc/elements/1.1/" xmlns:cc="http://creativecommons.org/ns#" xmlns:rdf="http://www.w3.org/1999/02/22-rdf-syntax-ns#">
   <cc:Work>
    <dc:type rdf:resource="http://purl.org/dc/dcmitype/StillImage"/>
    <dc:date>2025-03-28T16:06:41.951202</dc:date>
    <dc:format>image/svg+xml</dc:format>
    <dc:creator>
     <cc:Agent>
      <dc:title>Matplotlib v3.7.1, https://matplotlib.org/</dc:title>
     </cc:Agent>
    </dc:creator>
   </cc:Work>
  </rdf:RDF>
 </metadata>
 <defs>
  <style type="text/css">*{stroke-linejoin: round; stroke-linecap: butt}</style>
 </defs>
 <g id="figure_1">
  <g id="patch_1">
   <path d="M 0 432 
L 576 432 
L 576 0 
L 0 0 
z
" style="fill: #ffffff"/>
  </g>
  <g id="axes_1">
   <g id="patch_2">
    <path d="M 72 384.48 
L 518.4 384.48 
L 518.4 51.84 
L 72 51.84 
z
" style="fill: #ffffff"/>
   </g>
   <g id="matplotlib.axis_1">
    <g id="xtick_1">
     <g id="line2d_1">
      <path d="M 72 384.48 
L 72 51.84 
" clip-path="url(#pb44d64b79d)" style="fill: none; stroke: #b0b0b0; stroke-width: 0.8; stroke-linecap: square"/>
     </g>
     <g id="line2d_2">
      <defs>
       <path id="m102a4e3098" d="M 0 0 
L 0 3.5 
" style="stroke: #000000; stroke-width: 0.8"/>
      </defs>
      <g>
       <use xlink:href="#m102a4e3098" x="72" y="384.48" style="stroke: #000000; stroke-width: 0.8"/>
      </g>
     </g>
     <g id="text_1">
      <!-- 0 -->
      <g transform="translate(67.54625 402.117813) scale(0.14 -0.14)">
       <defs>
        <path id="DejaVuSans-30" d="M 2034 4250 
Q 1547 4250 1301 3770 
Q 1056 3291 1056 2328 
Q 1056 1369 1301 889 
Q 1547 409 2034 409 
Q 2525 409 2770 889 
Q 3016 1369 3016 2328 
Q 3016 3291 2770 3770 
Q 2525 4250 2034 4250 
z
M 2034 4750 
Q 2819 4750 3233 4129 
Q 3647 3509 3647 2328 
Q 3647 1150 3233 529 
Q 2819 -91 2034 -91 
Q 1250 -91 836 529 
Q 422 1150 422 2328 
Q 422 3509 836 4129 
Q 1250 4750 2034 4750 
z
" transform="scale(0.015625)"/>
       </defs>
       <use xlink:href="#DejaVuSans-30"/>
      </g>
     </g>
    </g>
    <g id="xtick_2">
     <g id="line2d_3">
      <path d="M 161.28 384.48 
L 161.28 51.84 
" clip-path="url(#pb44d64b79d)" style="fill: none; stroke: #b0b0b0; stroke-width: 0.8; stroke-linecap: square"/>
     </g>
     <g id="line2d_4">
      <g>
       <use xlink:href="#m102a4e3098" x="161.28" y="384.48" style="stroke: #000000; stroke-width: 0.8"/>
      </g>
     </g>
     <g id="text_2">
      <!-- 100 -->
      <g transform="translate(147.91875 402.117813) scale(0.14 -0.14)">
       <defs>
        <path id="DejaVuSans-31" d="M 794 531 
L 1825 531 
L 1825 4091 
L 703 3866 
L 703 4441 
L 1819 4666 
L 2450 4666 
L 2450 531 
L 3481 531 
L 3481 0 
L 794 0 
L 794 531 
z
" transform="scale(0.015625)"/>
       </defs>
       <use xlink:href="#DejaVuSans-31"/>
       <use xlink:href="#DejaVuSans-30" x="63.623047"/>
       <use xlink:href="#DejaVuSans-30" x="127.246094"/>
      </g>
     </g>
    </g>
    <g id="xtick_3">
     <g id="line2d_5">
      <path d="M 250.56 384.48 
L 250.56 51.84 
" clip-path="url(#pb44d64b79d)" style="fill: none; stroke: #b0b0b0; stroke-width: 0.8; stroke-linecap: square"/>
     </g>
     <g id="line2d_6">
      <g>
       <use xlink:href="#m102a4e3098" x="250.56" y="384.48" style="stroke: #000000; stroke-width: 0.8"/>
      </g>
     </g>
     <g id="text_3">
      <!-- 200 -->
      <g transform="translate(237.19875 402.117813) scale(0.14 -0.14)">
       <defs>
        <path id="DejaVuSans-32" d="M 1228 531 
L 3431 531 
L 3431 0 
L 469 0 
L 469 531 
Q 828 903 1448 1529 
Q 2069 2156 2228 2338 
Q 2531 2678 2651 2914 
Q 2772 3150 2772 3378 
Q 2772 3750 2511 3984 
Q 2250 4219 1831 4219 
Q 1534 4219 1204 4116 
Q 875 4013 500 3803 
L 500 4441 
Q 881 4594 1212 4672 
Q 1544 4750 1819 4750 
Q 2544 4750 2975 4387 
Q 3406 4025 3406 3419 
Q 3406 3131 3298 2873 
Q 3191 2616 2906 2266 
Q 2828 2175 2409 1742 
Q 1991 1309 1228 531 
z
" transform="scale(0.015625)"/>
       </defs>
       <use xlink:href="#DejaVuSans-32"/>
       <use xlink:href="#DejaVuSans-30" x="63.623047"/>
       <use xlink:href="#DejaVuSans-30" x="127.246094"/>
      </g>
     </g>
    </g>
    <g id="xtick_4">
     <g id="line2d_7">
      <path d="M 339.84 384.48 
L 339.84 51.84 
" clip-path="url(#pb44d64b79d)" style="fill: none; stroke: #b0b0b0; stroke-width: 0.8; stroke-linecap: square"/>
     </g>
     <g id="line2d_8">
      <g>
       <use xlink:href="#m102a4e3098" x="339.84" y="384.48" style="stroke: #000000; stroke-width: 0.8"/>
      </g>
     </g>
     <g id="text_4">
      <!-- 300 -->
      <g transform="translate(326.47875 402.117813) scale(0.14 -0.14)">
       <defs>
        <path id="DejaVuSans-33" d="M 2597 2516 
Q 3050 2419 3304 2112 
Q 3559 1806 3559 1356 
Q 3559 666 3084 287 
Q 2609 -91 1734 -91 
Q 1441 -91 1130 -33 
Q 819 25 488 141 
L 488 750 
Q 750 597 1062 519 
Q 1375 441 1716 441 
Q 2309 441 2620 675 
Q 2931 909 2931 1356 
Q 2931 1769 2642 2001 
Q 2353 2234 1838 2234 
L 1294 2234 
L 1294 2753 
L 1863 2753 
Q 2328 2753 2575 2939 
Q 2822 3125 2822 3475 
Q 2822 3834 2567 4026 
Q 2313 4219 1838 4219 
Q 1578 4219 1281 4162 
Q 984 4106 628 3988 
L 628 4550 
Q 988 4650 1302 4700 
Q 1616 4750 1894 4750 
Q 2613 4750 3031 4423 
Q 3450 4097 3450 3541 
Q 3450 3153 3228 2886 
Q 3006 2619 2597 2516 
z
" transform="scale(0.015625)"/>
       </defs>
       <use xlink:href="#DejaVuSans-33"/>
       <use xlink:href="#DejaVuSans-30" x="63.623047"/>
       <use xlink:href="#DejaVuSans-30" x="127.246094"/>
      </g>
     </g>
    </g>
    <g id="xtick_5">
     <g id="line2d_9">
      <path d="M 429.12 384.48 
L 429.12 51.84 
" clip-path="url(#pb44d64b79d)" style="fill: none; stroke: #b0b0b0; stroke-width: 0.8; stroke-linecap: square"/>
     </g>
     <g id="line2d_10">
      <g>
       <use xlink:href="#m102a4e3098" x="429.12" y="384.48" style="stroke: #000000; stroke-width: 0.8"/>
      </g>
     </g>
     <g id="text_5">
      <!-- 400 -->
      <g transform="translate(415.75875 402.117813) scale(0.14 -0.14)">
       <defs>
        <path id="DejaVuSans-34" d="M 2419 4116 
L 825 1625 
L 2419 1625 
L 2419 4116 
z
M 2253 4666 
L 3047 4666 
L 3047 1625 
L 3713 1625 
L 3713 1100 
L 3047 1100 
L 3047 0 
L 2419 0 
L 2419 1100 
L 313 1100 
L 313 1709 
L 2253 4666 
z
" transform="scale(0.015625)"/>
       </defs>
       <use xlink:href="#DejaVuSans-34"/>
       <use xlink:href="#DejaVuSans-30" x="63.623047"/>
       <use xlink:href="#DejaVuSans-30" x="127.246094"/>
      </g>
     </g>
    </g>
    <g id="xtick_6">
     <g id="line2d_11">
      <path d="M 518.4 384.48 
L 518.4 51.84 
" clip-path="url(#pb44d64b79d)" style="fill: none; stroke: #b0b0b0; stroke-width: 0.8; stroke-linecap: square"/>
     </g>
     <g id="line2d_12">
      <g>
       <use xlink:href="#m102a4e3098" x="518.4" y="384.48" style="stroke: #000000; stroke-width: 0.8"/>
      </g>
     </g>
     <g id="text_6">
      <!-- 500 -->
      <g transform="translate(505.03875 402.117813) scale(0.14 -0.14)">
       <defs>
        <path id="DejaVuSans-35" d="M 691 4666 
L 3169 4666 
L 3169 4134 
L 1269 4134 
L 1269 2991 
Q 1406 3038 1543 3061 
Q 1681 3084 1819 3084 
Q 2600 3084 3056 2656 
Q 3513 2228 3513 1497 
Q 3513 744 3044 326 
Q 2575 -91 1722 -91 
Q 1428 -91 1123 -41 
Q 819 9 494 109 
L 494 744 
Q 775 591 1075 516 
Q 1375 441 1709 441 
Q 2250 441 2565 725 
Q 2881 1009 2881 1497 
Q 2881 1984 2565 2268 
Q 2250 2553 1709 2553 
Q 1456 2553 1204 2497 
Q 953 2441 691 2322 
L 691 4666 
z
" transform="scale(0.015625)"/>
       </defs>
       <use xlink:href="#DejaVuSans-35"/>
       <use xlink:href="#DejaVuSans-30" x="63.623047"/>
       <use xlink:href="#DejaVuSans-30" x="127.246094"/>
      </g>
     </g>
    </g>
    <g id="text_7">
     <!-- Computational time [s] -->
     <g transform="translate(191.161406 422.706563) scale(0.18 -0.18)">
      <defs>
       <path id="DejaVuSans-43" d="M 4122 4306 
L 4122 3641 
Q 3803 3938 3442 4084 
Q 3081 4231 2675 4231 
Q 1875 4231 1450 3742 
Q 1025 3253 1025 2328 
Q 1025 1406 1450 917 
Q 1875 428 2675 428 
Q 3081 428 3442 575 
Q 3803 722 4122 1019 
L 4122 359 
Q 3791 134 3420 21 
Q 3050 -91 2638 -91 
Q 1578 -91 968 557 
Q 359 1206 359 2328 
Q 359 3453 968 4101 
Q 1578 4750 2638 4750 
Q 3056 4750 3426 4639 
Q 3797 4528 4122 4306 
z
" transform="scale(0.015625)"/>
       <path id="DejaVuSans-6f" d="M 1959 3097 
Q 1497 3097 1228 2736 
Q 959 2375 959 1747 
Q 959 1119 1226 758 
Q 1494 397 1959 397 
Q 2419 397 2687 759 
Q 2956 1122 2956 1747 
Q 2956 2369 2687 2733 
Q 2419 3097 1959 3097 
z
M 1959 3584 
Q 2709 3584 3137 3096 
Q 3566 2609 3566 1747 
Q 3566 888 3137 398 
Q 2709 -91 1959 -91 
Q 1206 -91 779 398 
Q 353 888 353 1747 
Q 353 2609 779 3096 
Q 1206 3584 1959 3584 
z
" transform="scale(0.015625)"/>
       <path id="DejaVuSans-6d" d="M 3328 2828 
Q 3544 3216 3844 3400 
Q 4144 3584 4550 3584 
Q 5097 3584 5394 3201 
Q 5691 2819 5691 2113 
L 5691 0 
L 5113 0 
L 5113 2094 
Q 5113 2597 4934 2840 
Q 4756 3084 4391 3084 
Q 3944 3084 3684 2787 
Q 3425 2491 3425 1978 
L 3425 0 
L 2847 0 
L 2847 2094 
Q 2847 2600 2669 2842 
Q 2491 3084 2119 3084 
Q 1678 3084 1418 2786 
Q 1159 2488 1159 1978 
L 1159 0 
L 581 0 
L 581 3500 
L 1159 3500 
L 1159 2956 
Q 1356 3278 1631 3431 
Q 1906 3584 2284 3584 
Q 2666 3584 2933 3390 
Q 3200 3197 3328 2828 
z
" transform="scale(0.015625)"/>
       <path id="DejaVuSans-70" d="M 1159 525 
L 1159 -1331 
L 581 -1331 
L 581 3500 
L 1159 3500 
L 1159 2969 
Q 1341 3281 1617 3432 
Q 1894 3584 2278 3584 
Q 2916 3584 3314 3078 
Q 3713 2572 3713 1747 
Q 3713 922 3314 415 
Q 2916 -91 2278 -91 
Q 1894 -91 1617 61 
Q 1341 213 1159 525 
z
M 3116 1747 
Q 3116 2381 2855 2742 
Q 2594 3103 2138 3103 
Q 1681 3103 1420 2742 
Q 1159 2381 1159 1747 
Q 1159 1113 1420 752 
Q 1681 391 2138 391 
Q 2594 391 2855 752 
Q 3116 1113 3116 1747 
z
" transform="scale(0.015625)"/>
       <path id="DejaVuSans-75" d="M 544 1381 
L 544 3500 
L 1119 3500 
L 1119 1403 
Q 1119 906 1312 657 
Q 1506 409 1894 409 
Q 2359 409 2629 706 
Q 2900 1003 2900 1516 
L 2900 3500 
L 3475 3500 
L 3475 0 
L 2900 0 
L 2900 538 
Q 2691 219 2414 64 
Q 2138 -91 1772 -91 
Q 1169 -91 856 284 
Q 544 659 544 1381 
z
M 1991 3584 
L 1991 3584 
z
" transform="scale(0.015625)"/>
       <path id="DejaVuSans-74" d="M 1172 4494 
L 1172 3500 
L 2356 3500 
L 2356 3053 
L 1172 3053 
L 1172 1153 
Q 1172 725 1289 603 
Q 1406 481 1766 481 
L 2356 481 
L 2356 0 
L 1766 0 
Q 1100 0 847 248 
Q 594 497 594 1153 
L 594 3053 
L 172 3053 
L 172 3500 
L 594 3500 
L 594 4494 
L 1172 4494 
z
" transform="scale(0.015625)"/>
       <path id="DejaVuSans-61" d="M 2194 1759 
Q 1497 1759 1228 1600 
Q 959 1441 959 1056 
Q 959 750 1161 570 
Q 1363 391 1709 391 
Q 2188 391 2477 730 
Q 2766 1069 2766 1631 
L 2766 1759 
L 2194 1759 
z
M 3341 1997 
L 3341 0 
L 2766 0 
L 2766 531 
Q 2569 213 2275 61 
Q 1981 -91 1556 -91 
Q 1019 -91 701 211 
Q 384 513 384 1019 
Q 384 1609 779 1909 
Q 1175 2209 1959 2209 
L 2766 2209 
L 2766 2266 
Q 2766 2663 2505 2880 
Q 2244 3097 1772 3097 
Q 1472 3097 1187 3025 
Q 903 2953 641 2809 
L 641 3341 
Q 956 3463 1253 3523 
Q 1550 3584 1831 3584 
Q 2591 3584 2966 3190 
Q 3341 2797 3341 1997 
z
" transform="scale(0.015625)"/>
       <path id="DejaVuSans-69" d="M 603 3500 
L 1178 3500 
L 1178 0 
L 603 0 
L 603 3500 
z
M 603 4863 
L 1178 4863 
L 1178 4134 
L 603 4134 
L 603 4863 
z
" transform="scale(0.015625)"/>
       <path id="DejaVuSans-6e" d="M 3513 2113 
L 3513 0 
L 2938 0 
L 2938 2094 
Q 2938 2591 2744 2837 
Q 2550 3084 2163 3084 
Q 1697 3084 1428 2787 
Q 1159 2491 1159 1978 
L 1159 0 
L 581 0 
L 581 3500 
L 1159 3500 
L 1159 2956 
Q 1366 3272 1645 3428 
Q 1925 3584 2291 3584 
Q 2894 3584 3203 3211 
Q 3513 2838 3513 2113 
z
" transform="scale(0.015625)"/>
       <path id="DejaVuSans-6c" d="M 603 4863 
L 1178 4863 
L 1178 0 
L 603 0 
L 603 4863 
z
" transform="scale(0.015625)"/>
       <path id="DejaVuSans-20" transform="scale(0.015625)"/>
       <path id="DejaVuSans-65" d="M 3597 1894 
L 3597 1613 
L 953 1613 
Q 991 1019 1311 708 
Q 1631 397 2203 397 
Q 2534 397 2845 478 
Q 3156 559 3463 722 
L 3463 178 
Q 3153 47 2828 -22 
Q 2503 -91 2169 -91 
Q 1331 -91 842 396 
Q 353 884 353 1716 
Q 353 2575 817 3079 
Q 1281 3584 2069 3584 
Q 2775 3584 3186 3129 
Q 3597 2675 3597 1894 
z
M 3022 2063 
Q 3016 2534 2758 2815 
Q 2500 3097 2075 3097 
Q 1594 3097 1305 2825 
Q 1016 2553 972 2059 
L 3022 2063 
z
" transform="scale(0.015625)"/>
       <path id="DejaVuSans-5b" d="M 550 4863 
L 1875 4863 
L 1875 4416 
L 1125 4416 
L 1125 -397 
L 1875 -397 
L 1875 -844 
L 550 -844 
L 550 4863 
z
" transform="scale(0.015625)"/>
       <path id="DejaVuSans-73" d="M 2834 3397 
L 2834 2853 
Q 2591 2978 2328 3040 
Q 2066 3103 1784 3103 
Q 1356 3103 1142 2972 
Q 928 2841 928 2578 
Q 928 2378 1081 2264 
Q 1234 2150 1697 2047 
L 1894 2003 
Q 2506 1872 2764 1633 
Q 3022 1394 3022 966 
Q 3022 478 2636 193 
Q 2250 -91 1575 -91 
Q 1294 -91 989 -36 
Q 684 19 347 128 
L 347 722 
Q 666 556 975 473 
Q 1284 391 1588 391 
Q 1994 391 2212 530 
Q 2431 669 2431 922 
Q 2431 1156 2273 1281 
Q 2116 1406 1581 1522 
L 1381 1569 
Q 847 1681 609 1914 
Q 372 2147 372 2553 
Q 372 3047 722 3315 
Q 1072 3584 1716 3584 
Q 2034 3584 2315 3537 
Q 2597 3491 2834 3397 
z
" transform="scale(0.015625)"/>
       <path id="DejaVuSans-5d" d="M 1947 4863 
L 1947 -844 
L 622 -844 
L 622 -397 
L 1369 -397 
L 1369 4416 
L 622 4416 
L 622 4863 
L 1947 4863 
z
" transform="scale(0.015625)"/>
      </defs>
      <use xlink:href="#DejaVuSans-43"/>
      <use xlink:href="#DejaVuSans-6f" x="69.824219"/>
      <use xlink:href="#DejaVuSans-6d" x="131.005859"/>
      <use xlink:href="#DejaVuSans-70" x="228.417969"/>
      <use xlink:href="#DejaVuSans-75" x="291.894531"/>
      <use xlink:href="#DejaVuSans-74" x="355.273438"/>
      <use xlink:href="#DejaVuSans-61" x="394.482422"/>
      <use xlink:href="#DejaVuSans-74" x="455.761719"/>
      <use xlink:href="#DejaVuSans-69" x="494.970703"/>
      <use xlink:href="#DejaVuSans-6f" x="522.753906"/>
      <use xlink:href="#DejaVuSans-6e" x="583.935547"/>
      <use xlink:href="#DejaVuSans-61" x="647.314453"/>
      <use xlink:href="#DejaVuSans-6c" x="708.59375"/>
      <use xlink:href="#DejaVuSans-20" x="736.376953"/>
      <use xlink:href="#DejaVuSans-74" x="768.164062"/>
      <use xlink:href="#DejaVuSans-69" x="807.373047"/>
      <use xlink:href="#DejaVuSans-6d" x="835.15625"/>
      <use xlink:href="#DejaVuSans-65" x="932.568359"/>
      <use xlink:href="#DejaVuSans-20" x="994.091797"/>
      <use xlink:href="#DejaVuSans-5b" x="1025.878906"/>
      <use xlink:href="#DejaVuSans-73" x="1064.892578"/>
      <use xlink:href="#DejaVuSans-5d" x="1116.992188"/>
     </g>
    </g>
   </g>
   <g id="matplotlib.axis_2">
    <g id="ytick_1">
     <g id="line2d_13">
      <path d="M 72 354.24 
L 518.4 354.24 
" clip-path="url(#pb44d64b79d)" style="fill: none; stroke: #b0b0b0; stroke-width: 0.8; stroke-linecap: square"/>
     </g>
     <g id="line2d_14">
      <defs>
       <path id="me8d0da02e0" d="M 0 0 
L -3.5 0 
" style="stroke: #000000; stroke-width: 0.8"/>
      </defs>
      <g>
       <use xlink:href="#me8d0da02e0" x="72" y="354.24" style="stroke: #000000; stroke-width: 0.8"/>
      </g>
     </g>
     <g id="text_8">
      <!-- 0 -->
      <g transform="translate(56.0925 359.558906) scale(0.14 -0.14)">
       <use xlink:href="#DejaVuSans-30"/>
      </g>
     </g>
    </g>
    <g id="ytick_2">
     <g id="line2d_15">
      <path d="M 72 293.76 
L 518.4 293.76 
" clip-path="url(#pb44d64b79d)" style="fill: none; stroke: #b0b0b0; stroke-width: 0.8; stroke-linecap: square"/>
     </g>
     <g id="line2d_16">
      <g>
       <use xlink:href="#me8d0da02e0" x="72" y="293.76" style="stroke: #000000; stroke-width: 0.8"/>
      </g>
     </g>
     <g id="text_9">
      <!-- 10 -->
      <g transform="translate(47.185 299.078906) scale(0.14 -0.14)">
       <use xlink:href="#DejaVuSans-31"/>
       <use xlink:href="#DejaVuSans-30" x="63.623047"/>
      </g>
     </g>
    </g>
    <g id="ytick_3">
     <g id="line2d_17">
      <path d="M 72 233.28 
L 518.4 233.28 
" clip-path="url(#pb44d64b79d)" style="fill: none; stroke: #b0b0b0; stroke-width: 0.8; stroke-linecap: square"/>
     </g>
     <g id="line2d_18">
      <g>
       <use xlink:href="#me8d0da02e0" x="72" y="233.28" style="stroke: #000000; stroke-width: 0.8"/>
      </g>
     </g>
     <g id="text_10">
      <!-- 20 -->
      <g transform="translate(47.185 238.598906) scale(0.14 -0.14)">
       <use xlink:href="#DejaVuSans-32"/>
       <use xlink:href="#DejaVuSans-30" x="63.623047"/>
      </g>
     </g>
    </g>
    <g id="ytick_4">
     <g id="line2d_19">
      <path d="M 72 172.8 
L 518.4 172.8 
" clip-path="url(#pb44d64b79d)" style="fill: none; stroke: #b0b0b0; stroke-width: 0.8; stroke-linecap: square"/>
     </g>
     <g id="line2d_20">
      <g>
       <use xlink:href="#me8d0da02e0" x="72" y="172.8" style="stroke: #000000; stroke-width: 0.8"/>
      </g>
     </g>
     <g id="text_11">
      <!-- 30 -->
      <g transform="translate(47.185 178.118906) scale(0.14 -0.14)">
       <use xlink:href="#DejaVuSans-33"/>
       <use xlink:href="#DejaVuSans-30" x="63.623047"/>
      </g>
     </g>
    </g>
    <g id="ytick_5">
     <g id="line2d_21">
      <path d="M 72 112.32 
L 518.4 112.32 
" clip-path="url(#pb44d64b79d)" style="fill: none; stroke: #b0b0b0; stroke-width: 0.8; stroke-linecap: square"/>
     </g>
     <g id="line2d_22">
      <g>
       <use xlink:href="#me8d0da02e0" x="72" y="112.32" style="stroke: #000000; stroke-width: 0.8"/>
      </g>
     </g>
     <g id="text_12">
      <!-- 40 -->
      <g transform="translate(47.185 117.638906) scale(0.14 -0.14)">
       <use xlink:href="#DejaVuSans-34"/>
       <use xlink:href="#DejaVuSans-30" x="63.623047"/>
      </g>
     </g>
    </g>
    <g id="ytick_6">
     <g id="line2d_23">
      <path d="M 72 51.84 
L 518.4 51.84 
" clip-path="url(#pb44d64b79d)" style="fill: none; stroke: #b0b0b0; stroke-width: 0.8; stroke-linecap: square"/>
     </g>
     <g id="line2d_24">
      <g>
       <use xlink:href="#me8d0da02e0" x="72" y="51.84" style="stroke: #000000; stroke-width: 0.8"/>
      </g>
     </g>
     <g id="text_13">
      <!-- 50 -->
      <g transform="translate(47.185 57.158906) scale(0.14 -0.14)">
       <use xlink:href="#DejaVuSans-35"/>
       <use xlink:href="#DejaVuSans-30" x="63.623047"/>
      </g>
     </g>
    </g>
    <g id="text_14">
     <!-- Objective value -->
     <g transform="translate(39.441563 288.282656) rotate(-90) scale(0.18 -0.18)">
      <defs>
       <path id="DejaVuSans-4f" d="M 2522 4238 
Q 1834 4238 1429 3725 
Q 1025 3213 1025 2328 
Q 1025 1447 1429 934 
Q 1834 422 2522 422 
Q 3209 422 3611 934 
Q 4013 1447 4013 2328 
Q 4013 3213 3611 3725 
Q 3209 4238 2522 4238 
z
M 2522 4750 
Q 3503 4750 4090 4092 
Q 4678 3434 4678 2328 
Q 4678 1225 4090 567 
Q 3503 -91 2522 -91 
Q 1538 -91 948 565 
Q 359 1222 359 2328 
Q 359 3434 948 4092 
Q 1538 4750 2522 4750 
z
" transform="scale(0.015625)"/>
       <path id="DejaVuSans-62" d="M 3116 1747 
Q 3116 2381 2855 2742 
Q 2594 3103 2138 3103 
Q 1681 3103 1420 2742 
Q 1159 2381 1159 1747 
Q 1159 1113 1420 752 
Q 1681 391 2138 391 
Q 2594 391 2855 752 
Q 3116 1113 3116 1747 
z
M 1159 2969 
Q 1341 3281 1617 3432 
Q 1894 3584 2278 3584 
Q 2916 3584 3314 3078 
Q 3713 2572 3713 1747 
Q 3713 922 3314 415 
Q 2916 -91 2278 -91 
Q 1894 -91 1617 61 
Q 1341 213 1159 525 
L 1159 0 
L 581 0 
L 581 4863 
L 1159 4863 
L 1159 2969 
z
" transform="scale(0.015625)"/>
       <path id="DejaVuSans-6a" d="M 603 3500 
L 1178 3500 
L 1178 -63 
Q 1178 -731 923 -1031 
Q 669 -1331 103 -1331 
L -116 -1331 
L -116 -844 
L 38 -844 
Q 366 -844 484 -692 
Q 603 -541 603 -63 
L 603 3500 
z
M 603 4863 
L 1178 4863 
L 1178 4134 
L 603 4134 
L 603 4863 
z
" transform="scale(0.015625)"/>
       <path id="DejaVuSans-63" d="M 3122 3366 
L 3122 2828 
Q 2878 2963 2633 3030 
Q 2388 3097 2138 3097 
Q 1578 3097 1268 2742 
Q 959 2388 959 1747 
Q 959 1106 1268 751 
Q 1578 397 2138 397 
Q 2388 397 2633 464 
Q 2878 531 3122 666 
L 3122 134 
Q 2881 22 2623 -34 
Q 2366 -91 2075 -91 
Q 1284 -91 818 406 
Q 353 903 353 1747 
Q 353 2603 823 3093 
Q 1294 3584 2113 3584 
Q 2378 3584 2631 3529 
Q 2884 3475 3122 3366 
z
" transform="scale(0.015625)"/>
       <path id="DejaVuSans-76" d="M 191 3500 
L 800 3500 
L 1894 563 
L 2988 3500 
L 3597 3500 
L 2284 0 
L 1503 0 
L 191 3500 
z
" transform="scale(0.015625)"/>
      </defs>
      <use xlink:href="#DejaVuSans-4f"/>
      <use xlink:href="#DejaVuSans-62" x="78.710938"/>
      <use xlink:href="#DejaVuSans-6a" x="142.1875"/>
      <use xlink:href="#DejaVuSans-65" x="169.970703"/>
      <use xlink:href="#DejaVuSans-63" x="231.494141"/>
      <use xlink:href="#DejaVuSans-74" x="286.474609"/>
      <use xlink:href="#DejaVuSans-69" x="325.683594"/>
      <use xlink:href="#DejaVuSans-76" x="353.466797"/>
      <use xlink:href="#DejaVuSans-65" x="412.646484"/>
      <use xlink:href="#DejaVuSans-20" x="474.169922"/>
      <use xlink:href="#DejaVuSans-76" x="505.957031"/>
      <use xlink:href="#DejaVuSans-61" x="565.136719"/>
      <use xlink:href="#DejaVuSans-6c" x="626.416016"/>
      <use xlink:href="#DejaVuSans-75" x="654.199219"/>
      <use xlink:href="#DejaVuSans-65" x="717.578125"/>
     </g>
    </g>
   </g>
   <g id="line2d_25">
    <path d="M 84.688086 -1 
L 90.087434 324.283619 
L 107.556268 324.225112 
L 125.49418 324.196654 
L 143.017355 324.178673 
L 159.389335 324.165865 
L 176.169738 324.156085 
L 197.88272 324.148268 
L 215.764023 324.141813 
L 233.812651 324.136353 
L 253.02068 324.131648 
L 271.311686 324.127531 
L 290.562287 324.123885 
L 308.366993 324.120624 
L 327.32405 324.11768 
L 346.144711 324.115005 
L 364.197632 324.112557 
L 381.275613 324.110306 
L 397.668619 324.108224 
L 412.39294 324.106291 
L 426.813487 324.104489 
L 442.053715 324.102803 
L 462.206878 324.101222 
L 479.94014 324.099733 
L 499.087756 324.098328 
L 518.37505 324.096999 
" clip-path="url(#pb44d64b79d)" style="fill: none; stroke: #e31d1d; stroke-width: 1.5; stroke-linecap: square"/>
    <defs>
     <path id="m81f9971465" d="M 0 3.5 
C 0.928211 3.5 1.81853 3.131218 2.474874 2.474874 
C 3.131218 1.81853 3.5 0.928211 3.5 0 
C 3.5 -0.928211 3.131218 -1.81853 2.474874 -2.474874 
C 1.81853 -3.131218 0.928211 -3.5 0 -3.5 
C -0.928211 -3.5 -1.81853 -3.131218 -2.474874 -2.474874 
C -3.131218 -1.81853 -3.5 -0.928211 -3.5 0 
C -3.5 0.928211 -3.131218 1.81853 -2.474874 2.474874 
C -1.81853 3.131218 -0.928211 3.5 0 3.5 
z
" style="stroke: #e31d1d"/>
    </defs>
    <g clip-path="url(#pb44d64b79d)">
     <use xlink:href="#m81f9971465" x="84.688086" y="-1" style="fill: #e31d1d; stroke: #e31d1d"/>
     <use xlink:href="#m81f9971465" x="90.087434" y="324.283619" style="fill: #e31d1d; stroke: #e31d1d"/>
     <use xlink:href="#m81f9971465" x="107.556268" y="324.225112" style="fill: #e31d1d; stroke: #e31d1d"/>
     <use xlink:href="#m81f9971465" x="125.49418" y="324.196654" style="fill: #e31d1d; stroke: #e31d1d"/>
     <use xlink:href="#m81f9971465" x="143.017355" y="324.178673" style="fill: #e31d1d; stroke: #e31d1d"/>
     <use xlink:href="#m81f9971465" x="159.389335" y="324.165865" style="fill: #e31d1d; stroke: #e31d1d"/>
     <use xlink:href="#m81f9971465" x="176.169738" y="324.156085" style="fill: #e31d1d; stroke: #e31d1d"/>
     <use xlink:href="#m81f9971465" x="197.88272" y="324.148268" style="fill: #e31d1d; stroke: #e31d1d"/>
     <use xlink:href="#m81f9971465" x="215.764023" y="324.141813" style="fill: #e31d1d; stroke: #e31d1d"/>
     <use xlink:href="#m81f9971465" x="233.812651" y="324.136353" style="fill: #e31d1d; stroke: #e31d1d"/>
     <use xlink:href="#m81f9971465" x="253.02068" y="324.131648" style="fill: #e31d1d; stroke: #e31d1d"/>
     <use xlink:href="#m81f9971465" x="271.311686" y="324.127531" style="fill: #e31d1d; stroke: #e31d1d"/>
     <use xlink:href="#m81f9971465" x="290.562287" y="324.123885" style="fill: #e31d1d; stroke: #e31d1d"/>
     <use xlink:href="#m81f9971465" x="308.366993" y="324.120624" style="fill: #e31d1d; stroke: #e31d1d"/>
     <use xlink:href="#m81f9971465" x="327.32405" y="324.11768" style="fill: #e31d1d; stroke: #e31d1d"/>
     <use xlink:href="#m81f9971465" x="346.144711" y="324.115005" style="fill: #e31d1d; stroke: #e31d1d"/>
     <use xlink:href="#m81f9971465" x="364.197632" y="324.112557" style="fill: #e31d1d; stroke: #e31d1d"/>
     <use xlink:href="#m81f9971465" x="381.275613" y="324.110306" style="fill: #e31d1d; stroke: #e31d1d"/>
     <use xlink:href="#m81f9971465" x="397.668619" y="324.108224" style="fill: #e31d1d; stroke: #e31d1d"/>
     <use xlink:href="#m81f9971465" x="412.39294" y="324.106291" style="fill: #e31d1d; stroke: #e31d1d"/>
     <use xlink:href="#m81f9971465" x="426.813487" y="324.104489" style="fill: #e31d1d; stroke: #e31d1d"/>
     <use xlink:href="#m81f9971465" x="442.053715" y="324.102803" style="fill: #e31d1d; stroke: #e31d1d"/>
     <use xlink:href="#m81f9971465" x="462.206878" y="324.101222" style="fill: #e31d1d; stroke: #e31d1d"/>
     <use xlink:href="#m81f9971465" x="479.94014" y="324.099733" style="fill: #e31d1d; stroke: #e31d1d"/>
     <use xlink:href="#m81f9971465" x="499.087756" y="324.098328" style="fill: #e31d1d; stroke: #e31d1d"/>
     <use xlink:href="#m81f9971465" x="518.37505" y="324.096999" style="fill: #e31d1d; stroke: #e31d1d"/>
    </g>
   </g>
   <g id="line2d_26">
    <path d="M 85.374798 -1 
L 90.46584 324.267079 
L 109.629956 324.211982 
L 130.758612 324.185183 
L 148.447417 324.16825 
L 165.106457 324.15619 
L 180.986238 324.14698 
L 196.690651 324.139619 
L 212.703219 324.133541 
L 229.144287 324.128399 
L 247.3771 324.123968 
L 270.205749 324.120092 
L 289.314193 324.116659 
L 307.539392 324.113587 
L 325.753613 324.110816 
L 345.072285 324.108296 
L 362.024894 324.105991 
L 378.050325 324.103871 
L 394.197572 324.101911 
L 410.291923 324.10009 
L 425.992424 324.098394 
L 443.093043 324.096806 
L 461.336257 324.095317 
L 480.620228 324.093915 
L 500.281694 324.092592 
L 518.401628 324.091341 
" clip-path="url(#pb44d64b79d)" style="fill: none; stroke-dasharray: 4.5,1.5,1.5,1.5,1.5,1.5; stroke-dashoffset: 0; stroke: #36ff33; stroke-width: 1.5"/>
    <defs>
     <path id="me1fe196ae4" d="M 0 -3.5 
L -3.5 3.5 
L 3.5 3.5 
z
" style="stroke: #36ff33; stroke-linejoin: miter"/>
    </defs>
    <g clip-path="url(#pb44d64b79d)">
     <use xlink:href="#me1fe196ae4" x="85.374798" y="-1" style="fill: #36ff33; stroke: #36ff33; stroke-linejoin: miter"/>
     <use xlink:href="#me1fe196ae4" x="90.46584" y="324.267079" style="fill: #36ff33; stroke: #36ff33; stroke-linejoin: miter"/>
     <use xlink:href="#me1fe196ae4" x="109.629956" y="324.211982" style="fill: #36ff33; stroke: #36ff33; stroke-linejoin: miter"/>
     <use xlink:href="#me1fe196ae4" x="130.758612" y="324.185183" style="fill: #36ff33; stroke: #36ff33; stroke-linejoin: miter"/>
     <use xlink:href="#me1fe196ae4" x="148.447417" y="324.16825" style="fill: #36ff33; stroke: #36ff33; stroke-linejoin: miter"/>
     <use xlink:href="#me1fe196ae4" x="165.106457" y="324.15619" style="fill: #36ff33; stroke: #36ff33; stroke-linejoin: miter"/>
     <use xlink:href="#me1fe196ae4" x="180.986238" y="324.14698" style="fill: #36ff33; stroke: #36ff33; stroke-linejoin: miter"/>
     <use xlink:href="#me1fe196ae4" x="196.690651" y="324.139619" style="fill: #36ff33; stroke: #36ff33; stroke-linejoin: miter"/>
     <use xlink:href="#me1fe196ae4" x="212.703219" y="324.133541" style="fill: #36ff33; stroke: #36ff33; stroke-linejoin: miter"/>
     <use xlink:href="#me1fe196ae4" x="229.144287" y="324.128399" style="fill: #36ff33; stroke: #36ff33; stroke-linejoin: miter"/>
     <use xlink:href="#me1fe196ae4" x="247.3771" y="324.123968" style="fill: #36ff33; stroke: #36ff33; stroke-linejoin: miter"/>
     <use xlink:href="#me1fe196ae4" x="270.205749" y="324.120092" style="fill: #36ff33; stroke: #36ff33; stroke-linejoin: miter"/>
     <use xlink:href="#me1fe196ae4" x="289.314193" y="324.116659" style="fill: #36ff33; stroke: #36ff33; stroke-linejoin: miter"/>
     <use xlink:href="#me1fe196ae4" x="307.539392" y="324.113587" style="fill: #36ff33; stroke: #36ff33; stroke-linejoin: miter"/>
     <use xlink:href="#me1fe196ae4" x="325.753613" y="324.110816" style="fill: #36ff33; stroke: #36ff33; stroke-linejoin: miter"/>
     <use xlink:href="#me1fe196ae4" x="345.072285" y="324.108296" style="fill: #36ff33; stroke: #36ff33; stroke-linejoin: miter"/>
     <use xlink:href="#me1fe196ae4" x="362.024894" y="324.105991" style="fill: #36ff33; stroke: #36ff33; stroke-linejoin: miter"/>
     <use xlink:href="#me1fe196ae4" x="378.050325" y="324.103871" style="fill: #36ff33; stroke: #36ff33; stroke-linejoin: miter"/>
     <use xlink:href="#me1fe196ae4" x="394.197572" y="324.101911" style="fill: #36ff33; stroke: #36ff33; stroke-linejoin: miter"/>
     <use xlink:href="#me1fe196ae4" x="410.291923" y="324.10009" style="fill: #36ff33; stroke: #36ff33; stroke-linejoin: miter"/>
     <use xlink:href="#me1fe196ae4" x="425.992424" y="324.098394" style="fill: #36ff33; stroke: #36ff33; stroke-linejoin: miter"/>
     <use xlink:href="#me1fe196ae4" x="443.093043" y="324.096806" style="fill: #36ff33; stroke: #36ff33; stroke-linejoin: miter"/>
     <use xlink:href="#me1fe196ae4" x="461.336257" y="324.095317" style="fill: #36ff33; stroke: #36ff33; stroke-linejoin: miter"/>
     <use xlink:href="#me1fe196ae4" x="480.620228" y="324.093915" style="fill: #36ff33; stroke: #36ff33; stroke-linejoin: miter"/>
     <use xlink:href="#me1fe196ae4" x="500.281694" y="324.092592" style="fill: #36ff33; stroke: #36ff33; stroke-linejoin: miter"/>
     <use xlink:href="#me1fe196ae4" x="518.401628" y="324.091341" style="fill: #36ff33; stroke: #36ff33; stroke-linejoin: miter"/>
    </g>
   </g>
   <g id="line2d_27">
    <path d="M 87.404404 -1 
L 92.386236 324.266449 
L 110.921321 324.211479 
L 128.423603 324.184743 
L 144.392643 324.16785 
L 160.179267 324.155818 
L 175.996697 324.146631 
L 191.685217 324.139286 
L 207.909661 324.133223 
L 225.487983 324.128093 
L 244.623036 324.123673 
L 264.119495 324.119806 
L 282.955329 324.116381 
L 303.056932 324.113317 
L 322.655512 324.110552 
L 341.526225 324.108038 
L 364.381353 324.105739 
L 381.359706 324.103623 
L 397.12149 324.101668 
L 413.036469 324.099852 
L 429.007618 324.098159 
L 444.750678 324.096576 
L 461.244724 324.09509 
L 480.639941 324.093691 
L 499.334464 324.092371 
L 518.363381 324.091123 
" clip-path="url(#pb44d64b79d)" style="fill: none; stroke-dasharray: 9.6,2.4,1.5,2.4; stroke-dashoffset: 0; stroke: #1c24dc; stroke-width: 1.5"/>
    <defs>
     <path id="m3b1393dda9" d="M -3.5 3.5 
L 3.5 3.5 
L 3.5 -3.5 
L -3.5 -3.5 
z
" style="stroke: #1c24dc; stroke-linejoin: miter"/>
    </defs>
    <g clip-path="url(#pb44d64b79d)">
     <use xlink:href="#m3b1393dda9" x="87.404404" y="-1" style="fill: #1c24dc; stroke: #1c24dc; stroke-linejoin: miter"/>
     <use xlink:href="#m3b1393dda9" x="92.386236" y="324.266449" style="fill: #1c24dc; stroke: #1c24dc; stroke-linejoin: miter"/>
     <use xlink:href="#m3b1393dda9" x="110.921321" y="324.211479" style="fill: #1c24dc; stroke: #1c24dc; stroke-linejoin: miter"/>
     <use xlink:href="#m3b1393dda9" x="128.423603" y="324.184743" style="fill: #1c24dc; stroke: #1c24dc; stroke-linejoin: miter"/>
     <use xlink:href="#m3b1393dda9" x="144.392643" y="324.16785" style="fill: #1c24dc; stroke: #1c24dc; stroke-linejoin: miter"/>
     <use xlink:href="#m3b1393dda9" x="160.179267" y="324.155818" style="fill: #1c24dc; stroke: #1c24dc; stroke-linejoin: miter"/>
     <use xlink:href="#m3b1393dda9" x="175.996697" y="324.146631" style="fill: #1c24dc; stroke: #1c24dc; stroke-linejoin: miter"/>
     <use xlink:href="#m3b1393dda9" x="191.685217" y="324.139286" style="fill: #1c24dc; stroke: #1c24dc; stroke-linejoin: miter"/>
     <use xlink:href="#m3b1393dda9" x="207.909661" y="324.133223" style="fill: #1c24dc; stroke: #1c24dc; stroke-linejoin: miter"/>
     <use xlink:href="#m3b1393dda9" x="225.487983" y="324.128093" style="fill: #1c24dc; stroke: #1c24dc; stroke-linejoin: miter"/>
     <use xlink:href="#m3b1393dda9" x="244.623036" y="324.123673" style="fill: #1c24dc; stroke: #1c24dc; stroke-linejoin: miter"/>
     <use xlink:href="#m3b1393dda9" x="264.119495" y="324.119806" style="fill: #1c24dc; stroke: #1c24dc; stroke-linejoin: miter"/>
     <use xlink:href="#m3b1393dda9" x="282.955329" y="324.116381" style="fill: #1c24dc; stroke: #1c24dc; stroke-linejoin: miter"/>
     <use xlink:href="#m3b1393dda9" x="303.056932" y="324.113317" style="fill: #1c24dc; stroke: #1c24dc; stroke-linejoin: miter"/>
     <use xlink:href="#m3b1393dda9" x="322.655512" y="324.110552" style="fill: #1c24dc; stroke: #1c24dc; stroke-linejoin: miter"/>
     <use xlink:href="#m3b1393dda9" x="341.526225" y="324.108038" style="fill: #1c24dc; stroke: #1c24dc; stroke-linejoin: miter"/>
     <use xlink:href="#m3b1393dda9" x="364.381353" y="324.105739" style="fill: #1c24dc; stroke: #1c24dc; stroke-linejoin: miter"/>
     <use xlink:href="#m3b1393dda9" x="381.359706" y="324.103623" style="fill: #1c24dc; stroke: #1c24dc; stroke-linejoin: miter"/>
     <use xlink:href="#m3b1393dda9" x="397.12149" y="324.101668" style="fill: #1c24dc; stroke: #1c24dc; stroke-linejoin: miter"/>
     <use xlink:href="#m3b1393dda9" x="413.036469" y="324.099852" style="fill: #1c24dc; stroke: #1c24dc; stroke-linejoin: miter"/>
     <use xlink:href="#m3b1393dda9" x="429.007618" y="324.098159" style="fill: #1c24dc; stroke: #1c24dc; stroke-linejoin: miter"/>
     <use xlink:href="#m3b1393dda9" x="444.750678" y="324.096576" style="fill: #1c24dc; stroke: #1c24dc; stroke-linejoin: miter"/>
     <use xlink:href="#m3b1393dda9" x="461.244724" y="324.09509" style="fill: #1c24dc; stroke: #1c24dc; stroke-linejoin: miter"/>
     <use xlink:href="#m3b1393dda9" x="480.639941" y="324.093691" style="fill: #1c24dc; stroke: #1c24dc; stroke-linejoin: miter"/>
     <use xlink:href="#m3b1393dda9" x="499.334464" y="324.092371" style="fill: #1c24dc; stroke: #1c24dc; stroke-linejoin: miter"/>
     <use xlink:href="#m3b1393dda9" x="518.363381" y="324.091123" style="fill: #1c24dc; stroke: #1c24dc; stroke-linejoin: miter"/>
    </g>
   </g>
   <g id="line2d_28">
    <path d="M 87.273223 -1 
L 91.567065 324.2666 
L 109.759879 324.211592 
L 128.763596 324.18484 
L 147.647021 324.167937 
L 163.840811 324.155898 
L 180.398916 324.146705 
L 196.198496 324.139357 
L 211.944929 324.13329 
L 227.687348 324.128158 
L 243.859599 324.123736 
L 262.819562 324.119866 
L 281.922522 324.116439 
L 300.899725 324.113374 
L 319.678824 324.110607 
L 338.617162 324.108093 
L 358.008806 324.105792 
L 375.440331 324.103676 
L 392.065195 324.101719 
L 408.231021 324.099902 
L 424.038545 324.098209 
L 443.037965 324.096624 
L 460.609365 324.095137 
L 478.847071 324.093738 
L 497.796234 324.092418 
L 518.399984 324.091169 
" clip-path="url(#pb44d64b79d)" style="fill: none; stroke-dasharray: 7.5,1.5; stroke-dashoffset: 0; stroke: #0d5915; stroke-width: 1.5"/>
    <defs>
     <path id="me9c822948e" d="M 0 -5 
L -1.12257 -1.545085 
L -4.755283 -1.545085 
L -1.816356 0.59017 
L -2.938926 4.045085 
L -0 1.90983 
L 2.938926 4.045085 
L 1.816356 0.59017 
L 4.755283 -1.545085 
L 1.12257 -1.545085 
z
" style="stroke: #0d5915; stroke-linejoin: bevel"/>
    </defs>
    <g clip-path="url(#pb44d64b79d)">
     <use xlink:href="#me9c822948e" x="87.273223" y="-1" style="fill: #0d5915; stroke: #0d5915; stroke-linejoin: bevel"/>
     <use xlink:href="#me9c822948e" x="91.567065" y="324.2666" style="fill: #0d5915; stroke: #0d5915; stroke-linejoin: bevel"/>
     <use xlink:href="#me9c822948e" x="109.759879" y="324.211592" style="fill: #0d5915; stroke: #0d5915; stroke-linejoin: bevel"/>
     <use xlink:href="#me9c822948e" x="128.763596" y="324.18484" style="fill: #0d5915; stroke: #0d5915; stroke-linejoin: bevel"/>
     <use xlink:href="#me9c822948e" x="147.647021" y="324.167937" style="fill: #0d5915; stroke: #0d5915; stroke-linejoin: bevel"/>
     <use xlink:href="#me9c822948e" x="163.840811" y="324.155898" style="fill: #0d5915; stroke: #0d5915; stroke-linejoin: bevel"/>
     <use xlink:href="#me9c822948e" x="180.398916" y="324.146705" style="fill: #0d5915; stroke: #0d5915; stroke-linejoin: bevel"/>
     <use xlink:href="#me9c822948e" x="196.198496" y="324.139357" style="fill: #0d5915; stroke: #0d5915; stroke-linejoin: bevel"/>
     <use xlink:href="#me9c822948e" x="211.944929" y="324.13329" style="fill: #0d5915; stroke: #0d5915; stroke-linejoin: bevel"/>
     <use xlink:href="#me9c822948e" x="227.687348" y="324.128158" style="fill: #0d5915; stroke: #0d5915; stroke-linejoin: bevel"/>
     <use xlink:href="#me9c822948e" x="243.859599" y="324.123736" style="fill: #0d5915; stroke: #0d5915; stroke-linejoin: bevel"/>
     <use xlink:href="#me9c822948e" x="262.819562" y="324.119866" style="fill: #0d5915; stroke: #0d5915; stroke-linejoin: bevel"/>
     <use xlink:href="#me9c822948e" x="281.922522" y="324.116439" style="fill: #0d5915; stroke: #0d5915; stroke-linejoin: bevel"/>
     <use xlink:href="#me9c822948e" x="300.899725" y="324.113374" style="fill: #0d5915; stroke: #0d5915; stroke-linejoin: bevel"/>
     <use xlink:href="#me9c822948e" x="319.678824" y="324.110607" style="fill: #0d5915; stroke: #0d5915; stroke-linejoin: bevel"/>
     <use xlink:href="#me9c822948e" x="338.617162" y="324.108093" style="fill: #0d5915; stroke: #0d5915; stroke-linejoin: bevel"/>
     <use xlink:href="#me9c822948e" x="358.008806" y="324.105792" style="fill: #0d5915; stroke: #0d5915; stroke-linejoin: bevel"/>
     <use xlink:href="#me9c822948e" x="375.440331" y="324.103676" style="fill: #0d5915; stroke: #0d5915; stroke-linejoin: bevel"/>
     <use xlink:href="#me9c822948e" x="392.065195" y="324.101719" style="fill: #0d5915; stroke: #0d5915; stroke-linejoin: bevel"/>
     <use xlink:href="#me9c822948e" x="408.231021" y="324.099902" style="fill: #0d5915; stroke: #0d5915; stroke-linejoin: bevel"/>
     <use xlink:href="#me9c822948e" x="424.038545" y="324.098209" style="fill: #0d5915; stroke: #0d5915; stroke-linejoin: bevel"/>
     <use xlink:href="#me9c822948e" x="443.037965" y="324.096624" style="fill: #0d5915; stroke: #0d5915; stroke-linejoin: bevel"/>
     <use xlink:href="#me9c822948e" x="460.609365" y="324.095137" style="fill: #0d5915; stroke: #0d5915; stroke-linejoin: bevel"/>
     <use xlink:href="#me9c822948e" x="478.847071" y="324.093738" style="fill: #0d5915; stroke: #0d5915; stroke-linejoin: bevel"/>
     <use xlink:href="#me9c822948e" x="497.796234" y="324.092418" style="fill: #0d5915; stroke: #0d5915; stroke-linejoin: bevel"/>
     <use xlink:href="#me9c822948e" x="518.399984" y="324.091169" style="fill: #0d5915; stroke: #0d5915; stroke-linejoin: bevel"/>
    </g>
   </g>
   <g id="line2d_29">
    <path d="M 86.844354 -1 
L 90.714136 324.265782 
L 110.014802 324.210924 
L 129.326478 324.184251 
L 146.318176 324.1674 
L 162.490446 324.155398 
L 178.99932 324.146234 
L 194.879838 324.138909 
L 211.23108 324.132861 
L 228.151279 324.127745 
L 247.818618 324.123336 
L 266.468006 324.119479 
L 285.172213 324.116063 
L 303.576288 324.113007 
L 322.054209 324.11025 
L 339.933571 324.107743 
L 356.172802 324.10545 
L 372.44928 324.10334 
L 388.953888 324.10139 
L 404.876773 324.099579 
L 421.525245 324.097891 
L 441.049817 324.096312 
L 459.819732 324.09483 
L 479.137895 324.093435 
L 498.552426 324.092119 
L 518.380808 324.090874 
" clip-path="url(#pb44d64b79d)" style="fill: none; stroke-dasharray: 1.5,2.475; stroke-dashoffset: 0; stroke: #f119c3; stroke-width: 1.5"/>
    <defs>
     <path id="mf88b17d9b1" d="M 0 0 
L 0 -7.5 
M 0 0 
L -6 3.75 
M 0 0 
L 6 3.75 
" style="stroke: #f119c3"/>
    </defs>
    <g clip-path="url(#pb44d64b79d)">
     <use xlink:href="#mf88b17d9b1" x="86.844354" y="-1" style="fill: #f119c3; stroke: #f119c3"/>
     <use xlink:href="#mf88b17d9b1" x="90.714136" y="324.265782" style="fill: #f119c3; stroke: #f119c3"/>
     <use xlink:href="#mf88b17d9b1" x="110.014802" y="324.210924" style="fill: #f119c3; stroke: #f119c3"/>
     <use xlink:href="#mf88b17d9b1" x="129.326478" y="324.184251" style="fill: #f119c3; stroke: #f119c3"/>
     <use xlink:href="#mf88b17d9b1" x="146.318176" y="324.1674" style="fill: #f119c3; stroke: #f119c3"/>
     <use xlink:href="#mf88b17d9b1" x="162.490446" y="324.155398" style="fill: #f119c3; stroke: #f119c3"/>
     <use xlink:href="#mf88b17d9b1" x="178.99932" y="324.146234" style="fill: #f119c3; stroke: #f119c3"/>
     <use xlink:href="#mf88b17d9b1" x="194.879838" y="324.138909" style="fill: #f119c3; stroke: #f119c3"/>
     <use xlink:href="#mf88b17d9b1" x="211.23108" y="324.132861" style="fill: #f119c3; stroke: #f119c3"/>
     <use xlink:href="#mf88b17d9b1" x="228.151279" y="324.127745" style="fill: #f119c3; stroke: #f119c3"/>
     <use xlink:href="#mf88b17d9b1" x="247.818618" y="324.123336" style="fill: #f119c3; stroke: #f119c3"/>
     <use xlink:href="#mf88b17d9b1" x="266.468006" y="324.119479" style="fill: #f119c3; stroke: #f119c3"/>
     <use xlink:href="#mf88b17d9b1" x="285.172213" y="324.116063" style="fill: #f119c3; stroke: #f119c3"/>
     <use xlink:href="#mf88b17d9b1" x="303.576288" y="324.113007" style="fill: #f119c3; stroke: #f119c3"/>
     <use xlink:href="#mf88b17d9b1" x="322.054209" y="324.11025" style="fill: #f119c3; stroke: #f119c3"/>
     <use xlink:href="#mf88b17d9b1" x="339.933571" y="324.107743" style="fill: #f119c3; stroke: #f119c3"/>
     <use xlink:href="#mf88b17d9b1" x="356.172802" y="324.10545" style="fill: #f119c3; stroke: #f119c3"/>
     <use xlink:href="#mf88b17d9b1" x="372.44928" y="324.10334" style="fill: #f119c3; stroke: #f119c3"/>
     <use xlink:href="#mf88b17d9b1" x="388.953888" y="324.10139" style="fill: #f119c3; stroke: #f119c3"/>
     <use xlink:href="#mf88b17d9b1" x="404.876773" y="324.099579" style="fill: #f119c3; stroke: #f119c3"/>
     <use xlink:href="#mf88b17d9b1" x="421.525245" y="324.097891" style="fill: #f119c3; stroke: #f119c3"/>
     <use xlink:href="#mf88b17d9b1" x="441.049817" y="324.096312" style="fill: #f119c3; stroke: #f119c3"/>
     <use xlink:href="#mf88b17d9b1" x="459.819732" y="324.09483" style="fill: #f119c3; stroke: #f119c3"/>
     <use xlink:href="#mf88b17d9b1" x="479.137895" y="324.093435" style="fill: #f119c3; stroke: #f119c3"/>
     <use xlink:href="#mf88b17d9b1" x="498.552426" y="324.092119" style="fill: #f119c3; stroke: #f119c3"/>
     <use xlink:href="#mf88b17d9b1" x="518.380808" y="324.090874" style="fill: #f119c3; stroke: #f119c3"/>
    </g>
   </g>
   <g id="patch_3">
    <path d="M 72 384.48 
L 72 51.84 
" style="fill: none; stroke: #000000; stroke-width: 0.8; stroke-linejoin: miter; stroke-linecap: square"/>
   </g>
   <g id="patch_4">
    <path d="M 518.4 384.48 
L 518.4 51.84 
" style="fill: none; stroke: #000000; stroke-width: 0.8; stroke-linejoin: miter; stroke-linecap: square"/>
   </g>
   <g id="patch_5">
    <path d="M 72 384.48 
L 518.4 384.48 
" style="fill: none; stroke: #000000; stroke-width: 0.8; stroke-linejoin: miter; stroke-linecap: square"/>
   </g>
   <g id="patch_6">
    <path d="M 72 51.84 
L 518.4 51.84 
" style="fill: none; stroke: #000000; stroke-width: 0.8; stroke-linejoin: miter; stroke-linecap: square"/>
   </g>
   <g id="legend_1">
    <g id="patch_7">
     <path d="M 439 133.84 
L 511.4 133.84 
Q 513.4 133.84 513.4 131.84 
L 513.4 58.84 
Q 513.4 56.84 511.4 56.84 
L 439 56.84 
Q 437 56.84 437 58.84 
L 437 131.84 
Q 437 133.84 439 133.84 
z
" style="fill: #ffffff; opacity: 0.8; stroke: #cccccc; stroke-linejoin: miter"/>
    </g>
    <g id="line2d_30">
     <path d="M 441 65.04 
L 451 65.04 
L 461 65.04 
" style="fill: none; stroke: #e31d1d; stroke-width: 1.5; stroke-linecap: square"/>
     <g>
      <use xlink:href="#m81f9971465" x="451" y="65.04" style="fill: #e31d1d; stroke: #e31d1d"/>
     </g>
    </g>
    <g id="text_15">
     <!-- $\beta=0.9$ -->
     <g transform="translate(469 68.54) scale(0.1 -0.1)">
      <defs>
       <path id="DejaVuSans-Oblique-3b2" d="M 872 216 
L 572 -1331 
L -6 -1331 
L 928 3478 
Q 1206 4903 2538 4903 
Q 3888 4903 3659 3700 
Q 3503 2844 2894 2531 
Q 3713 2250 3553 1416 
Q 3272 -69 1759 -66 
Q 1097 -63 872 216 
z
M 1019 966 
Q 1259 422 1875 425 
Q 2775 425 2966 1406 
Q 3138 2288 1675 2219 
L 1778 2750 
Q 2909 2731 3106 3750 
Q 3241 4438 2509 4434 
Q 1691 4434 1503 3459 
L 1019 966 
z
" transform="scale(0.015625)"/>
       <path id="DejaVuSans-3d" d="M 678 2906 
L 4684 2906 
L 4684 2381 
L 678 2381 
L 678 2906 
z
M 678 1631 
L 4684 1631 
L 4684 1100 
L 678 1100 
L 678 1631 
z
" transform="scale(0.015625)"/>
       <path id="DejaVuSans-2e" d="M 684 794 
L 1344 794 
L 1344 0 
L 684 0 
L 684 794 
z
" transform="scale(0.015625)"/>
       <path id="DejaVuSans-39" d="M 703 97 
L 703 672 
Q 941 559 1184 500 
Q 1428 441 1663 441 
Q 2288 441 2617 861 
Q 2947 1281 2994 2138 
Q 2813 1869 2534 1725 
Q 2256 1581 1919 1581 
Q 1219 1581 811 2004 
Q 403 2428 403 3163 
Q 403 3881 828 4315 
Q 1253 4750 1959 4750 
Q 2769 4750 3195 4129 
Q 3622 3509 3622 2328 
Q 3622 1225 3098 567 
Q 2575 -91 1691 -91 
Q 1453 -91 1209 -44 
Q 966 3 703 97 
z
M 1959 2075 
Q 2384 2075 2632 2365 
Q 2881 2656 2881 3163 
Q 2881 3666 2632 3958 
Q 2384 4250 1959 4250 
Q 1534 4250 1286 3958 
Q 1038 3666 1038 3163 
Q 1038 2656 1286 2365 
Q 1534 2075 1959 2075 
z
" transform="scale(0.015625)"/>
      </defs>
      <use xlink:href="#DejaVuSans-Oblique-3b2" transform="translate(0 0.390625)"/>
      <use xlink:href="#DejaVuSans-3d" transform="translate(83.300781 0.390625)"/>
      <use xlink:href="#DejaVuSans-30" transform="translate(186.572266 0.390625)"/>
      <use xlink:href="#DejaVuSans-2e" transform="translate(250.195312 0.390625)"/>
      <use xlink:href="#DejaVuSans-39" transform="translate(281.982422 0.390625)"/>
     </g>
    </g>
    <g id="line2d_31">
     <path d="M 441 79.84 
L 451 79.84 
L 461 79.84 
" style="fill: none; stroke-dasharray: 4.5,1.5,1.5,1.5,1.5,1.5; stroke-dashoffset: 0; stroke: #36ff33; stroke-width: 1.5"/>
     <g>
      <use xlink:href="#me1fe196ae4" x="451" y="79.84" style="fill: #36ff33; stroke: #36ff33; stroke-linejoin: miter"/>
     </g>
    </g>
    <g id="text_16">
     <!-- $\beta=0.75$ -->
     <g transform="translate(469 83.34) scale(0.1 -0.1)">
      <defs>
       <path id="DejaVuSans-37" d="M 525 4666 
L 3525 4666 
L 3525 4397 
L 1831 0 
L 1172 0 
L 2766 4134 
L 525 4134 
L 525 4666 
z
" transform="scale(0.015625)"/>
      </defs>
      <use xlink:href="#DejaVuSans-Oblique-3b2" transform="translate(0 0.390625)"/>
      <use xlink:href="#DejaVuSans-3d" transform="translate(83.300781 0.390625)"/>
      <use xlink:href="#DejaVuSans-30" transform="translate(186.572266 0.390625)"/>
      <use xlink:href="#DejaVuSans-2e" transform="translate(250.195312 0.390625)"/>
      <use xlink:href="#DejaVuSans-37" transform="translate(274.232422 0.390625)"/>
      <use xlink:href="#DejaVuSans-35" transform="translate(337.855469 0.390625)"/>
     </g>
    </g>
    <g id="line2d_32">
     <path d="M 441 94.64 
L 451 94.64 
L 461 94.64 
" style="fill: none; stroke-dasharray: 9.6,2.4,1.5,2.4; stroke-dashoffset: 0; stroke: #1c24dc; stroke-width: 1.5"/>
     <g>
      <use xlink:href="#m3b1393dda9" x="451" y="94.64" style="fill: #1c24dc; stroke: #1c24dc; stroke-linejoin: miter"/>
     </g>
    </g>
    <g id="text_17">
     <!-- $\beta=0.5$ -->
     <g transform="translate(469 98.14) scale(0.1 -0.1)">
      <use xlink:href="#DejaVuSans-Oblique-3b2" transform="translate(0 0.390625)"/>
      <use xlink:href="#DejaVuSans-3d" transform="translate(83.300781 0.390625)"/>
      <use xlink:href="#DejaVuSans-30" transform="translate(186.572266 0.390625)"/>
      <use xlink:href="#DejaVuSans-2e" transform="translate(250.195312 0.390625)"/>
      <use xlink:href="#DejaVuSans-35" transform="translate(281.982422 0.390625)"/>
     </g>
    </g>
    <g id="line2d_33">
     <path d="M 441 109.44 
L 451 109.44 
L 461 109.44 
" style="fill: none; stroke-dasharray: 7.5,1.5; stroke-dashoffset: 0; stroke: #0d5915; stroke-width: 1.5"/>
     <g>
      <use xlink:href="#me9c822948e" x="451" y="109.44" style="fill: #0d5915; stroke: #0d5915; stroke-linejoin: bevel"/>
     </g>
    </g>
    <g id="text_18">
     <!-- $\beta=0.25$ -->
     <g transform="translate(469 112.94) scale(0.1 -0.1)">
      <use xlink:href="#DejaVuSans-Oblique-3b2" transform="translate(0 0.390625)"/>
      <use xlink:href="#DejaVuSans-3d" transform="translate(83.300781 0.390625)"/>
      <use xlink:href="#DejaVuSans-30" transform="translate(186.572266 0.390625)"/>
      <use xlink:href="#DejaVuSans-2e" transform="translate(250.195312 0.390625)"/>
      <use xlink:href="#DejaVuSans-32" transform="translate(276.482422 0.390625)"/>
      <use xlink:href="#DejaVuSans-35" transform="translate(340.105469 0.390625)"/>
     </g>
    </g>
    <g id="line2d_34">
     <path d="M 441 124.24 
L 451 124.24 
L 461 124.24 
" style="fill: none; stroke-dasharray: 1.5,2.475; stroke-dashoffset: 0; stroke: #f119c3; stroke-width: 1.5"/>
     <g>
      <use xlink:href="#mf88b17d9b1" x="451" y="124.24" style="fill: #f119c3; stroke: #f119c3"/>
     </g>
    </g>
    <g id="text_19">
     <!-- $\beta=0.1$ -->
     <g transform="translate(469 127.74) scale(0.1 -0.1)">
      <use xlink:href="#DejaVuSans-Oblique-3b2" transform="translate(0 0.390625)"/>
      <use xlink:href="#DejaVuSans-3d" transform="translate(83.300781 0.390625)"/>
      <use xlink:href="#DejaVuSans-30" transform="translate(186.572266 0.390625)"/>
      <use xlink:href="#DejaVuSans-2e" transform="translate(250.195312 0.390625)"/>
      <use xlink:href="#DejaVuSans-31" transform="translate(281.982422 0.390625)"/>
     </g>
    </g>
   </g>
  </g>
 </g>
 <defs>
  <clipPath id="pb44d64b79d">
   <rect x="72" y="51.84" width="446.4" height="332.64"/>
  </clipPath>
 </defs>
</svg>
